<?xml version="1.0" encoding="iso-8859-1"?>
<!-- Generator: Adobe Illustrator 19.0.0, SVG Export Plug-In . SVG Version: 6.00 Build 0)  -->
<svg version="1.1" id="Layer_1" xmlns="http://www.w3.org/2000/svg" xmlns:xlink="http://www.w3.org/1999/xlink" x="0px" y="0px"
	 viewBox="0 0 506.461 506.461" style="enable-background:new 0 0 506.461 506.461;" xml:space="preserve">
<polygon style="fill:#102D35;" points="506.461,287.258 416.247,191.505 398.838,223.951 374.306,205.75 357.688,235.029 
	325.243,225.533 315.747,242.151 342.652,310.207 368.767,345.818 379.054,300.711 409.917,341.07 428.909,287.258 "/>
<g>
	<polygon style="fill:#065177;" points="485.886,278.553 419.413,204.958 426.535,237.403 	"/>
	<polygon style="fill:#065177;" points="406.751,322.869 378.263,220.785 369.558,255.604 	"/>
</g>
<polygon style="fill:#102D35;" points="0,287.258 90.213,191.505 107.623,223.951 132.155,205.75 148.773,235.029 181.218,225.533 
	190.714,242.151 163.808,310.207 137.694,345.818 127.407,300.711 96.544,341.07 77.552,287.258 "/>
<g>
	<polygon style="fill:#065177;" points="20.575,278.553 87.048,204.958 79.926,237.403 	"/>
	<polygon style="fill:#065177;" points="99.709,322.869 128.198,220.785 136.903,255.604 	"/>
	<polygon style="fill:#065177;" points="204.958,147.19 151.147,121.076 159.852,18.201 231.073,92.587 	"/>
</g>
<polyline style="fill:#102D35;" points="159.852,18.201 231.073,92.587 204.958,147.19 "/>
<polygon style="fill:#065177;" points="301.502,147.19 355.314,121.076 346.609,18.201 275.388,92.587 "/>
<polyline style="fill:#102D35;" points="301.502,147.19 355.314,121.076 346.609,18.201 "/>
<path style="fill:#065177;" d="M358.479,412.291c0,47.481-37.985,56.977-85.465,56.977h-38.776
	c-47.481,0-85.465-10.287-85.465-56.977V200.21c0-47.481,37.985-85.465,85.465-85.465h38.776c47.481,0,85.465,37.985,85.465,85.465
	V412.291z"/>
<path style="fill:#102D35;" d="M234.238,114.745h38.776c47.481,0,85.465,37.985,85.465,85.465v212.872
	c0,47.481-37.985,56.977-85.465,56.977h-38.776"/>
<path style="fill:#065177;" d="M226.325,481.138c0,3.957-3.165,7.122-7.122,7.122l0,0c-3.957,0-7.122-3.165-7.122-7.122v-35.611
	c0-3.957,3.165-7.122,7.122-7.122l0,0c3.957,0,7.122,3.165,7.122,7.122V481.138z"/>
<path style="fill:#102D35;" d="M294.38,481.138c0,3.957-3.165,7.122-7.122,7.122l0,0c-3.957,0-7.122-3.165-7.122-7.122v-35.611
	c0-3.957,3.165-7.122,7.122-7.122l0,0c3.957,0,7.122,3.165,7.122,7.122V481.138z"/>
<path style="fill:#8FB5B3;" d="M187.549,179.635c3.165,11.079,13.453,18.992,26.114,18.992c12.661,0,22.158-7.913,25.323-18.992
	H187.549z"/>
<path style="fill:#E2F2EF;" d="M187.549,179.635c3.165,11.079,13.453,9.496,26.114,9.496c12.661,0,22.158,1.583,25.323-9.496
	H187.549z"/>
<path style="fill:#8FB5B3;" d="M267.474,179.635c3.165,11.079,13.453,18.992,26.114,18.992c11.87,0,22.158-7.913,25.323-18.992
	H267.474z"/>
<path style="fill:#E2F2EF;" d="M267.474,179.635c3.165,11.079,13.453,9.496,26.114,9.496c11.87,0,22.158,1.583,25.323-9.496H267.474
	z"/>
<path style="fill:#DD4343;" d="M283.301,249.274c-3.957-12.662-15.827-22.158-30.071-22.158c-14.244,0-26.114,9.496-30.071,22.158
	H283.301z"/>
<path style="fill:#A01F1F;" d="M253.23,240.569c8.705,0,15.827,3.165,21.366,8.705h8.705c-3.957-12.662-15.827-22.158-30.071-22.158
	c-14.244,0-26.114,9.496-30.071,22.158h8.705C237.403,243.734,244.526,240.569,253.23,240.569z"/>
<path style="fill:#E2F2EF;" d="M253.23,231.864c12.662,0,22.949,7.122,28.488,17.41h1.583
	c-3.957-12.662-15.827-22.158-30.071-22.158c-14.244,0-26.114,9.496-30.071,22.158h1.583
	C230.281,238.986,240.569,231.864,253.23,231.864z"/>
<g>
	
		<ellipse transform="matrix(-0.5805 -0.8142 0.8142 -0.5805 188.296 389.8082)" style="fill:#1F789B;" cx="194.557" cy="146.402" rx="8.704" ry="24.53"/>
	<path style="fill:#1F789B;" d="M178.053,417.039c0,3.957-3.165,7.122-7.122,7.122l0,0c-3.957,0-7.122-3.165-7.122-7.122V290.423
		c0-3.957,3.165-7.122,7.122-7.122l0,0c3.957,0,7.122,3.165,7.122,7.122V417.039z"/>
	<circle style="fill:#1F789B;" cx="170.93" cy="255.604" r="8.705"/>
</g>
<circle style="fill:#065177;" cx="223.159" cy="178.844" r="7.122"/>
<circle style="fill:#102D35;" cx="305.459" cy="178.844" r="7.122"/>
<polygon style="fill:#E2F2EF;" points="240.569,249.274 231.864,269.849 223.159,249.274 231.864,240.569 "/>
<polyline style="fill:#8FB5B3;" points="231.864,240.569 240.569,249.274 231.864,269.849 "/>
<polygon style="fill:#E2F2EF;" points="283.301,249.274 274.597,269.849 265.892,249.274 274.597,240.569 "/>
<polyline style="fill:#8FB5B3;" points="274.597,240.569 283.301,249.274 274.597,269.849 "/>
<polygon style="fill:#DD4343;" points="302.294,310.207 284.884,293.589 273.805,304.668 302.294,332.365 329.991,304.668 
	318.912,293.589 "/>
<polyline style="fill:#A01F1F;" points="302.294,332.365 329.991,304.668 318.912,293.589 302.294,310.207 "/>
<g>
	<circle style="fill:#DD4343;" cx="406.751" cy="149.564" r="5.539"/>
	<circle style="fill:#DD4343;" cx="443.944" cy="94.961" r="11.87"/>
	<circle style="fill:#DD4343;" cx="407.543" cy="105.249" r="3.957"/>
	<circle style="fill:#DD4343;" cx="398.046" cy="179.635" r="4.748"/>
	<circle style="fill:#DD4343;" cx="387.759" cy="53.811" r="15.036"/>
	<circle style="fill:#DD4343;" cx="427.326" cy="132.155" r="1.583"/>
	<circle style="fill:#DD4343;" cx="452.649" cy="155.104" r="6.331"/>
</g>
<g>
</g>
<g>
</g>
<g>
</g>
<g>
</g>
<g>
</g>
<g>
</g>
<g>
</g>
<g>
</g>
<g>
</g>
<g>
</g>
<g>
</g>
<g>
</g>
<g>
</g>
<g>
</g>
<g>
</g>
</svg>
