<?xml version="1.0" encoding="iso-8859-1"?>
<!-- Generator: Adobe Illustrator 19.0.0, SVG Export Plug-In . SVG Version: 6.00 Build 0)  -->
<svg version="1.1" id="Layer_1" xmlns="http://www.w3.org/2000/svg" xmlns:xlink="http://www.w3.org/1999/xlink" x="0px" y="0px"
	 viewBox="0 0 484 484" style="enable-background:new 0 0 484 484;" xml:space="preserve">
<circle style="fill:#960E08;" cx="241.6" cy="242.4" r="241.6"/>
<path style="fill:#600404;" d="M241.6,0C375.2,0,484,108.8,484,242.4S375.2,484,241.6,484"/>
<g>
	<path style="fill:#E9EADF;" d="M235.2,207.2c-0.8,0-0.8,0-1.6,0"/>
	<path style="fill:#E9EADF;" d="M366.4,117.6c3.2-13.6,0-28-10.4-38.4c-15.2-15.2-40.8-15.2-56,0c-13.6,13.6-15.2,33.6-5.6,49.6
		c-1.6,0.8-2.4,1.6-3.2,3.2L212,210.4c0,0-0.8,0.8-0.8,1.6c-0.8,0-0.8,0.8-1.6,0.8L130.4,292c-0.8,0.8-1.6,2.4-3.2,3.2
		c-15.2-9.6-36-8-49.6,5.6c-15.2,15.2-15.2,40.8,0,56c10.4,10.4,24.8,13.6,38.4,10.4c-3.2,13.6,0,28,10.4,38.4
		c15.2,15.2,40.8,15.2,56,0C196,392,197.6,372,188,356c0.8-0.8,2.4-1.6,3.2-3.2l79.2-79.2c0-0.8,0.8-0.8,0.8-1.6
		c0.8,0,0.8-0.8,1.6-0.8L352,192c0.8-0.8,1.6-2.4,3.2-3.2c15.2,9.6,36,8,49.6-5.6c15.2-15.2,15.2-40.8,0-56
		C394.4,117.6,380,114.4,366.4,117.6z"/>
</g>
<path style="fill:#CDCEBC;" d="M116.8,367.2c-3.2,13.6,0,28,10.4,38.4c15.2,15.2,40.8,15.2,56,0c13.6-13.6,15.2-33.6,5.6-49.6
	c0.8-0.8,2.4-1.6,3.2-3.2l79.2-79.2c0-0.8,0.8-0.8,0.8-1.6c0.8,0,0.8-0.8,1.6-0.8l79.2-79.2c0.8-0.8,1.6-2.4,3.2-3.2
	c15.2,9.6,36,8,49.6-5.6c15.2-15.2,15.2-40.8,0-56c-10.4-10.4-24.8-13.6-38.4-10.4"/>
<g>
	
		<ellipse transform="matrix(-0.7071 -0.7071 0.7071 -0.7071 223.0838 540.1648)" style="fill:#FFFFFF;" cx="223.414" cy="223.88" rx="7.2" ry="111.199"/>
	
		<ellipse transform="matrix(-0.7074 -0.7068 0.7068 -0.7074 -60.235 599.1397)" style="fill:#FFFFFF;" cx="93.894" cy="312.037" rx="11.2" ry="21.6"/>
	
		<ellipse transform="matrix(-0.7072 -0.707 0.707 -0.7072 464.6026 381.1489)" style="fill:#FFFFFF;" cx="311.224" cy="94.371" rx="11.2" ry="21.6"/>
</g>
<path style="fill:#E9EADF;" d="M366.4,367.2c3.2,13.6,0,28-10.4,38.4c-15.2,15.2-40.8,15.2-56,0c-13.6-13.6-15.2-33.6-5.6-49.6
	c-0.8-0.8-2.4-1.6-3.2-3.2l-78.4-78.4c0-0.8-0.8-0.8-0.8-1.6c-0.8,0-0.8-0.8-1.6-0.8l-79.2-79.2c-0.8-0.8-1.6-2.4-3.2-3.2
	c-15.2,9.6-36,8-49.6-5.6c-15.2-15.2-15.2-40.8,0-56c10.4-10.4,24.8-13.6,38.4-10.4c-3.2-13.6,0-28,10.4-38.4
	c15.2-15.2,40.8-15.2,56,0c13.6,13.6,15.2,33.6,5.6,49.6c0.8,0.8,2.4,1.6,3.2,3.2l79.2,79.2c0,0,0.8,0.8,0.8,1.6
	c0.8,0,0.8,0.8,1.6,0.8l79.2,79.2c0.8,0.8,1.6,2.4,3.2,3.2c15.2-9.6,36-8,49.6,5.6c15.2,15.2,15.2,40.8,0,56
	C394.4,367.2,380,370.4,366.4,367.2z"/>
<path style="fill:#CDCEBC;" d="M117.6,117.6c-3.2-13.6,0-28,10.4-38.4c15.2-15.2,40.8-15.2,56,0c13.6,13.6,15.2,33.6,5.6,49.6
	c0.8,0.8,2.4,1.6,3.2,3.2l79.2,79.2c0,0,0.8,0.8,0.8,1.6c0.8,0,0.8,0.8,1.6,0.8l79.2,79.2c0.8,0.8,1.6,2.4,3.2,3.2
	c15.2-9.6,36-8,49.6,5.6c15.2,15.2,15.2,40.8,0,56C396,368,381.6,371.2,368,368"/>
<g>
	
		<ellipse transform="matrix(0.7071 -0.7072 0.7072 0.7071 -119.0723 234.3515)" style="fill:#FFFFFF;" cx="223.323" cy="260.894" rx="7.2" ry="111.207"/>
	
		<ellipse transform="matrix(0.7072 -0.707 0.707 0.7072 -94.6157 116.8652)" style="fill:#FFFFFF;" cx="93.789" cy="172.667" rx="11.2" ry="21.6"/>
	
		<ellipse transform="matrix(0.7072 -0.707 0.707 0.7072 -184.8938 334.2669)" style="fill:#FFFFFF;" cx="311.13" cy="390.365" rx="11.2" ry="21.6"/>
</g>
<g>
</g>
<g>
</g>
<g>
</g>
<g>
</g>
<g>
</g>
<g>
</g>
<g>
</g>
<g>
</g>
<g>
</g>
<g>
</g>
<g>
</g>
<g>
</g>
<g>
</g>
<g>
</g>
<g>
</g>
</svg>
