<?xml version="1.0" encoding="iso-8859-1"?>
<!-- Generator: Adobe Illustrator 19.0.0, SVG Export Plug-In . SVG Version: 6.00 Build 0)  -->
<svg version="1.1" id="Layer_1" xmlns="http://www.w3.org/2000/svg" xmlns:xlink="http://www.w3.org/1999/xlink" x="0px" y="0px"
	 viewBox="0 0 500 500" style="enable-background:new 0 0 500 500;" xml:space="preserve">
<circle style="fill:#164F66;" cx="250" cy="262.4" r="232.8"/>
<path style="fill:#102D35;" d="M250,29.6c128.8,0,232.8,104,232.8,232.8S378.8,495.2,250,495.2"/>
<path style="fill:#D1E5E4;" d="M318,204c0-8.8-7.2-16-16-16H198c-8.8,0-16,7.2-16,16c0,5.6,3.2,11.2,8,13.6V476
	c0,12.8,10.4,23.2,23.2,23.2h73.6c12.8,0,23.2-10.4,23.2-23.2V217.6C314.8,215.2,318,209.6,318,204z"/>
<path style="fill:#BED3D1;" d="M286.8,500c12.8,0,23.2-10.4,23.2-23.2V217.6c4.8-2.4,8-8,8-13.6c0-8.8-7.2-16-16-16H198"/>
<path style="fill:#EDB151;" d="M292.4,100L292.4,100L250,0l-42.4,100l0,0c-2.4,5.6-4,12-4,19.2c0,25.6,20.8,46.4,46.4,46.4
	s46.4-20.8,46.4-46.4C296.4,112,294.8,105.6,292.4,100z"/>
<path style="fill:#E06E10;" d="M250,164.8c25.6,0,46.4-20.8,46.4-46.4c0-7.2-1.6-13.6-4-19.2l0,0L250,0"/>
<path style="fill:#EDB151;" d="M224.4,126.4L224.4,126.4l25.6-60l25.6,60l0,0c1.6,3.2,2.4,7.2,2.4,11.2c0,15.2-12.8,28-28,28
	s-28-12.8-28-28C222,133.6,222.8,129.6,224.4,126.4z"/>
<path style="fill:#E06E10;" d="M250,164.8c-15.2,0-28-12.8-28-28c0-4,0.8-8,2.4-11.2l0,0l25.6-60"/>
<circle style="fill:#9CBCB6;" cx="250" cy="299.2" r="9.6"/>
<path style="fill:#E2F2EF;" d="M250,290.4c4.8,0,9.6,4,9.6,9.6c0,4.8-4,9.6-9.6,9.6"/>
<circle style="fill:#9CBCB6;" cx="250" cy="344" r="9.6"/>
<path style="fill:#E2F2EF;" d="M250,334.4c4.8,0,9.6,4,9.6,9.6c0,4.8-4,9.6-9.6,9.6"/>
<circle style="fill:#9CBCB6;" cx="250" cy="388.8" r="9.6"/>
<path style="fill:#E2F2EF;" d="M250,379.2c4.8,0,9.6,4,9.6,9.6c0,4.8-4,9.6-9.6,9.6"/>
<g>
</g>
<g>
</g>
<g>
</g>
<g>
</g>
<g>
</g>
<g>
</g>
<g>
</g>
<g>
</g>
<g>
</g>
<g>
</g>
<g>
</g>
<g>
</g>
<g>
</g>
<g>
</g>
<g>
</g>
</svg>
