<?xml version="1.0" encoding="iso-8859-1"?>
<!-- Generator: Adobe Illustrator 19.0.0, SVG Export Plug-In . SVG Version: 6.00 Build 0)  -->
<svg version="1.1" id="Layer_1" xmlns="http://www.w3.org/2000/svg" xmlns:xlink="http://www.w3.org/1999/xlink" x="0px" y="0px"
	 viewBox="0 0 502.548 502.548" style="enable-background:new 0 0 502.548 502.548;" xml:space="preserve">
<path style="fill:#E57A1A;" d="M379.668,148.48c0,49.625-57.502,105.551-128.394,105.551S122.88,198.105,122.88,148.48
	S180.382,42.929,251.274,42.929S379.668,98.855,379.668,148.48z"/>
<path style="fill:#C4570C;" d="M379.668,148.48c0,49.625-57.502,105.551-128.394,105.551S122.88,198.105,122.88,148.48"/>
<path style="fill:#E57A1A;" d="M108.702,146.905C108.702,146.905,107.914,146.905,108.702,146.905
	c3.151-16.542-10.24-37.022-33.871-48.049c-25.994-11.815-53.563-7.877-61.44,9.452c-5.514,11.815-0.788,25.994,11.028,38.597
	c-11.815,11.028-17.329,24.418-13.391,35.446c6.302,18.117,33.083,24.418,59.865,14.966
	C98.462,187.077,115.003,165.022,108.702,146.905z"/>
<path style="fill:#C4570C;" d="M24.418,146.117c-11.815,11.028-17.329,24.418-13.391,35.446
	c6.302,18.117,33.083,24.418,59.865,14.966s43.323-32.295,37.022-49.625l0,0"/>
<path style="fill:#E57A1A;" d="M393.846,146.117L393.846,146.117c-3.151,16.542,10.24,37.022,33.871,48.049
	c25.994,11.815,53.563,7.877,61.44-9.452c5.514-11.815,0.788-25.994-11.028-38.597c11.815-11.028,17.329-24.418,13.391-35.446
	c-6.302-18.117-33.083-24.418-59.865-14.966C404.086,105.945,387.545,128.788,393.846,146.117z"/>
<path style="fill:#C4570C;" d="M393.846,146.117L393.846,146.117c-3.151,16.542,10.24,37.022,33.871,48.049
	c25.994,11.815,53.563,7.877,61.44-9.452c5.514-11.815,0.788-25.994-11.028-38.597"/>
<path id="SVGCleanerId_0" style="fill:#06718E;" d="M136.271,110.671l-3.151,3.151c-6.302,11.028-10.24,22.843-10.24,35.446
	c0,12.603,3.938,24.418,10.24,35.446l3.151,3.151l18.905-18.905l-18.905-18.905l18.905-18.905L136.271,110.671z"/>
<polygon style="fill:#673BAD;" points="193.772,129.575 174.868,110.671 155.175,129.575 174.08,148.48 155.175,168.172 
	174.868,187.077 193.772,168.172 174.868,148.48 "/>
<polygon style="fill:#06718E;" points="232.369,129.575 212.677,110.671 193.772,129.575 212.677,148.48 193.772,168.172 
	212.677,187.077 232.369,168.172 212.677,148.48 "/>
<polygon style="fill:#673BAD;" points="270.178,129.575 251.274,110.671 232.369,129.575 251.274,148.48 232.369,168.172 
	251.274,187.077 270.178,168.172 251.274,148.48 "/>
<polygon style="fill:#06718E;" points="308.775,129.575 289.871,110.671 270.178,129.575 289.871,148.48 270.178,168.172 
	289.871,187.077 308.775,168.172 289.871,148.48 "/>
<polygon style="fill:#673BAD;" points="347.372,129.575 328.468,110.671 308.775,129.575 327.68,148.48 308.775,168.172 
	328.468,187.077 347.372,168.172 328.468,148.48 "/>
<path id="SVGCleanerId_1" style="fill:#06718E;" d="M369.428,113.822l-3.151-3.151l-18.905,18.905l18.905,18.905l-18.905,18.905
	l18.905,18.905l3.151-3.151c6.302-11.028,10.24-22.843,10.24-35.446C379.668,135.089,376.517,124.062,369.428,113.822z"/>
<g>
	<path id="SVGCleanerId_0_1_" style="fill:#06718E;" d="M136.271,110.671l-3.151,3.151c-6.302,11.028-10.24,22.843-10.24,35.446
		c0,12.603,3.938,24.418,10.24,35.446l3.151,3.151l18.905-18.905l-18.905-18.905l18.905-18.905L136.271,110.671z"/>
</g>
<polygon style="fill:#673BAD;" points="193.772,129.575 174.868,110.671 155.175,129.575 174.08,148.48 155.175,168.172 
	174.868,187.077 193.772,168.172 174.868,148.48 "/>
<polygon style="fill:#06718E;" points="232.369,129.575 212.677,110.671 193.772,129.575 212.677,148.48 193.772,168.172 
	212.677,187.077 232.369,168.172 212.677,148.48 "/>
<polygon style="fill:#673BAD;" points="270.178,129.575 251.274,110.671 232.369,129.575 251.274,148.48 232.369,168.172 
	251.274,187.077 270.178,168.172 251.274,148.48 "/>
<polygon style="fill:#06718E;" points="308.775,129.575 289.871,110.671 270.178,129.575 289.871,148.48 270.178,168.172 
	289.871,187.077 308.775,168.172 289.871,148.48 "/>
<polygon style="fill:#673BAD;" points="347.372,129.575 328.468,110.671 308.775,129.575 327.68,148.48 308.775,168.172 
	328.468,187.077 347.372,168.172 328.468,148.48 "/>
<g>
	<path id="SVGCleanerId_1_1_" style="fill:#06718E;" d="M369.428,113.822l-3.151-3.151l-18.905,18.905l18.905,18.905l-18.905,18.905
		l18.905,18.905l3.151-3.151c6.302-11.028,10.24-22.843,10.24-35.446C379.668,135.089,376.517,124.062,369.428,113.822z"/>
</g>
<ellipse style="fill:#F78C34;" cx="251.274" cy="80.738" rx="57.502" ry="27.569"/>
<path style="fill:#13C2EA;" d="M70.892,335.163c-18.117-18.117-37.809-25.994-45.686-18.117c-3.151,3.151-3.151,9.452-0.788,17.329
	c-7.877,0-13.391,2.363-15.754,7.089c-2.363,5.514,0.788,11.815,7.089,18.905C6.302,364.308,0,369.822,0,375.335
	s6.302,11.815,15.754,14.966c-6.302,7.089-8.665,14.178-7.089,18.905c1.575,4.726,7.877,7.089,15.754,7.089
	c-2.363,7.089-2.363,14.178,0.788,17.329c7.089,7.877,27.569,0,45.686-18.117c14.178-14.178,22.055-30.72,21.268-40.172
	C92.948,365.095,85.071,349.342,70.892,335.163z"/>
<path style="fill:#059ECE;" d="M0.788,375.335c0,6.302,6.302,11.815,15.754,14.966c-6.302,7.089-8.665,14.178-7.089,18.905
	c1.575,4.726,7.877,7.089,15.754,7.089c-2.363,7.089-2.363,14.178,0.788,17.329c7.089,7.877,27.569,0,45.686-18.117
	c14.178-14.178,22.055-30.72,21.268-40.172"/>
<g>
	<path style="fill:#86DBF2;" d="M74.043,348.554c-1.575,2.363-11.815-2.363-22.843-10.24s-18.905-16.542-18.117-18.117
		c1.575-2.363,11.815,2.363,22.843,10.24C67.742,338.314,75.618,346.191,74.043,348.554z"/>
	<path style="fill:#86DBF2;" d="M55.138,357.218c-0.788,1.575-8.665,0-18.905-3.151c-10.24-3.938-17.329-7.877-16.542-9.452
		c0.788-1.575,8.665,0,18.905,3.151C48.049,350.917,55.138,354.855,55.138,357.218z"/>
</g>
<path style="fill:#13C2EA;" d="M431.655,335.163c18.117-18.117,37.809-25.994,45.686-18.117c3.151,3.938,3.151,10.24,0.788,17.329
	c7.877,0,13.391,2.363,15.754,7.089c2.363,5.514-0.788,11.815-7.089,18.905c9.452,3.938,15.754,9.452,15.754,14.966
	s-6.302,11.815-15.754,14.966c6.302,7.089,8.665,14.178,7.089,18.905c-1.575,4.726-7.877,7.089-15.754,7.089
	c2.363,7.089,2.363,14.178-0.788,17.329c-7.089,7.877-27.569,0-45.686-18.117c-14.178-14.178-22.055-30.72-21.268-40.172
	C409.6,365.095,417.477,349.342,431.655,335.163z"/>
<path style="fill:#059ECE;" d="M501.76,375.335c0,6.302-6.302,11.815-15.754,14.966c6.302,7.089,8.665,14.178,7.089,18.905
	c-1.575,4.726-7.877,7.089-15.754,7.089c2.363,7.089,2.363,14.178-0.788,17.329c-7.089,7.877-27.569,0-45.686-18.117
	c-14.178-14.178-22.055-30.72-21.268-40.172"/>
<g>
	<path style="fill:#86DBF2;" d="M428.505,348.554c1.575,2.363,11.815-2.363,22.843-10.24c11.028-7.877,18.905-16.542,18.117-18.117
		c-1.575-2.363-11.815,2.363-22.843,10.24C434.806,338.314,426.929,346.191,428.505,348.554z"/>
	<path style="fill:#86DBF2;" d="M447.409,357.218c0.788,1.575,8.665,0,18.905-3.151c10.24-3.938,17.329-7.877,16.542-9.452
		c-0.788-1.575-8.665,0-18.905,3.151C454.498,350.917,447.409,354.855,447.409,357.218z"/>
</g>
<path style="fill:#CC3BA0;" d="M114.215,390.301c0,11.815-8.665,20.48-19.692,20.48l0,0c-11.028,0-19.692-9.452-19.692-20.48
	v-29.145c0-11.815,8.665-20.48,19.692-20.48l0,0c11.028,0,19.692,9.452,19.692,20.48V390.301z"/>
<path style="fill:#A0207F;" d="M114.215,361.157v29.145c0,11.815-8.665,20.48-19.692,20.48l0,0c-11.028,0-19.692-9.452-19.692-20.48
	v-29.145"/>
<path style="fill:#CC3BA0;" d="M427.717,390.301c0,11.815-8.665,20.48-19.692,20.48l0,0c-11.028,0-19.692-9.452-19.692-20.48
	v-29.145c0-11.815,8.665-20.48,19.692-20.48l0,0c11.028,0,19.692,9.452,19.692,20.48V390.301z"/>
<path style="fill:#A0207F;" d="M427.717,361.157v29.145c0,11.815-8.665,20.48-19.692,20.48l0,0c-11.028,0-19.692-9.452-19.692-20.48
	v-29.145"/>
<path style="fill:#13C2EA;" d="M408.812,379.274c0,44.111-33.871,80.345-76.406,80.345H170.142
	c-41.748,0-76.406-36.234-76.406-80.345v-7.877c0-44.111,33.871-80.345,76.406-80.345h162.265c41.748,0,76.406,36.234,76.406,80.345
	L408.812,379.274L408.812,379.274z"/>
<path style="fill:#059ECE;" d="M408.812,371.397v7.877c0,44.111-33.871,80.345-76.406,80.345H170.142
	c-41.748,0-76.406-36.234-76.406-80.345v-7.877"/>
<ellipse style="fill:#EF73C3;" cx="137.058" cy="332.8" rx="10.24" ry="11.028"/>
<ellipse style="fill:#EACD6E;" cx="182.745" cy="332.8" rx="10.24" ry="11.028"/>
<path style="fill:#EF73C3;" d="M238.671,332.8c0,6.302-4.726,11.028-10.24,11.028c-5.514,0-10.24-4.726-10.24-11.028
	c0-6.302,4.726-11.028,10.24-11.028C233.945,321.772,238.671,326.498,238.671,332.8z"/>
<ellipse style="fill:#EACD6E;" cx="274.117" cy="332.8" rx="10.24" ry="11.028"/>
<ellipse style="fill:#EF73C3;" cx="319.803" cy="332.8" rx="10.24" ry="11.028"/>
<g>
	<ellipse style="fill:#EACD6E;" cx="365.489" cy="332.8" rx="10.24" ry="11.028"/>
	<ellipse style="fill:#EACD6E;" cx="137.058" cy="375.335" rx="10.24" ry="11.028"/>
</g>
<ellipse style="fill:#EF73C3;" cx="182.745" cy="375.335" rx="10.24" ry="11.028"/>
<path style="fill:#EACD6E;" d="M238.671,375.335c0,6.302-4.726,11.028-10.24,11.028c-5.514,0-10.24-4.726-10.24-11.028
	c0-6.302,4.726-11.028,10.24-11.028C233.945,365.095,238.671,369.822,238.671,375.335z"/>
<ellipse style="fill:#EF73C3;" cx="274.117" cy="375.335" rx="10.24" ry="11.028"/>
<ellipse style="fill:#EACD6E;" cx="319.803" cy="375.335" rx="10.24" ry="11.028"/>
<g>
	<ellipse style="fill:#EF73C3;" cx="365.489" cy="375.335" rx="10.24" ry="11.028"/>
	<ellipse style="fill:#EF73C3;" cx="137.058" cy="418.658" rx="10.24" ry="11.028"/>
</g>
<ellipse style="fill:#EACD6E;" cx="182.745" cy="418.658" rx="10.24" ry="11.028"/>
<path style="fill:#EF73C3;" d="M238.671,418.658c0,6.302-4.726,11.028-10.24,11.028c-5.514,0-10.24-4.726-10.24-11.028
	c0-6.302,4.726-11.028,10.24-11.028S238.671,412.357,238.671,418.658z"/>
<ellipse style="fill:#EACD6E;" cx="274.117" cy="418.658" rx="10.24" ry="11.028"/>
<ellipse style="fill:#EF73C3;" cx="319.803" cy="418.658" rx="10.24" ry="11.028"/>
<ellipse style="fill:#EACD6E;" cx="365.489" cy="418.658" rx="10.24" ry="11.028"/>
<path style="fill:#86DBF2;" d="M341.071,319.409c0,3.151-2.363,5.514-5.514,5.514H166.991c-3.151,0-5.514-2.363-5.514-5.514l0,0
	c0-3.151,2.363-5.514,5.514-5.514h169.354C338.708,313.895,341.071,316.258,341.071,319.409L341.071,319.409z"/>
<g>
</g>
<g>
</g>
<g>
</g>
<g>
</g>
<g>
</g>
<g>
</g>
<g>
</g>
<g>
</g>
<g>
</g>
<g>
</g>
<g>
</g>
<g>
</g>
<g>
</g>
<g>
</g>
<g>
</g>
</svg>
