<?xml version="1.0" encoding="iso-8859-1"?>
<!-- Generator: Adobe Illustrator 19.0.0, SVG Export Plug-In . SVG Version: 6.00 Build 0)  -->
<svg version="1.1" id="Layer_1" xmlns="http://www.w3.org/2000/svg" xmlns:xlink="http://www.w3.org/1999/xlink" x="0px" y="0px"
	 viewBox="0 0 498.4 498.4" style="enable-background:new 0 0 498.4 498.4;" xml:space="preserve">
<ellipse style="fill:#CE1906;" cx="249.2" cy="367.2" rx="180.8" ry="99.2"/>
<ellipse style="fill:#961208;" cx="249.2" cy="347.2" rx="180.8" ry="99.2"/>
<path style="fill:#065177;" d="M479.6,217.6c0,122.4-114.4,207.2-230.4,207.2S19.6,340,19.6,217.6S134,57.6,250,57.6
	S479.6,96,479.6,217.6z"/>
<path style="fill:#102D35;" d="M479.6,217.6c0,122.4-114.4,207.2-230.4,207.2S19.6,340,19.6,217.6"/>
<path style="fill:#E5483C;" d="M295.6,296.8c0,10.4-21.6,18.4-44,18.4s-44-7.2-44-18.4c0-10.4,21.6-13.6,44-13.6
	S295.6,286.4,295.6,296.8z"/>
<path style="fill:#CE1906;" d="M295.6,296.8c0,10.4-21.6,18.4-44,18.4s-44-7.2-44-18.4"/>
<path style="fill:#DB6E14;" d="M65.2,199.2L65.2,199.2c-8.8,32,17.6,67.2,59.2,78.4S206,272,214.8,240l0,0L65.2,199.2z"/>
<path style="fill:#FF9C39;" d="M65.2,199.2L65.2,199.2c-8.8,32,28,49.6,68.8,60.8c41.6,11.2,72,12,80.8-20l0,0L65.2,199.2z"/>
<ellipse style="fill:#102D35;" cx="139.6" cy="248" rx="4.8" ry="30.4"/>
<path style="fill:#DB6E14;" d="M434,199.2L434,199.2c8.8,32-17.6,67.2-59.2,78.4s-81.6-5.6-90.4-37.6l0,0L434,199.2z"/>
<path style="fill:#FF9C39;" d="M434,199.2L434,199.2c8.8,32-28,49.6-68.8,60.8c-41.6,11.2-72,12-80.8-20l0,0L434,199.2z"/>
<ellipse style="fill:#102D35;" cx="359.6" cy="248" rx="4.8" ry="30.4"/>
<polygon style="fill:#E2F2EF;" points="173.2,350.4 193.2,390.4 214,350.4 "/>
<polygon style="fill:#9AB2AC;" points="190,350.4 193.2,390.4 214,350.4 "/>
<polygon style="fill:#E2F2EF;" points="284.4,350.4 305.2,390.4 326,350.4 "/>
<g>
	<polygon style="fill:#9AB2AC;" points="301.2,350.4 305.2,390.4 326,350.4 	"/>
	<g style="opacity:0.4;">
		<circle style="fill:#9AB2AC;" cx="126.8" cy="320" r="6.4"/>
		<circle style="fill:#9AB2AC;" cx="110" cy="345.6" r="6.4"/>
		<circle style="fill:#9AB2AC;" cx="137.2" cy="345.6" r="6.4"/>
		<circle style="fill:#9AB2AC;" cx="371.6" cy="320" r="6.4"/>
		<circle style="fill:#9AB2AC;" cx="389.2" cy="345.6" r="6.4"/>
		<circle style="fill:#9AB2AC;" cx="362" cy="345.6" r="6.4"/>
	</g>
</g>
<ellipse style="fill:#0F6587;" cx="249.2" cy="101.6" rx="116.8" ry="30.4"/>
<path style="fill:#065177;" d="M123.6,95.2c0,0-28.8-56.8-110.4-94.4c0,0-32.8,84.8,15.2,185.6l60-22.4L123.6,95.2z"/>
<path style="fill:#102D35;" d="M89.2,164.8l35.2-70.4c0,0-28.8-56.8-110.4-94.4"/>
<path style="fill:#065177;" d="M374.8,95.2c0,0,28.8-56.8,110.4-94.4c0,0,32.8,84.8-15.2,185.6L410,164L374.8,95.2z"/>
<path style="fill:#102D35;" d="M410,164.8l-35.2-70.4c0,0,28.8-56.8,110.4-94.4"/>
<path style="fill:#E9EADF;" d="M279.6,457.6c0-16.8-13.6-30.4-30.4-30.4s-30.4,13.6-30.4,30.4c0,10.4,5.6,19.2,13.6,24.8v5.6
	c0,5.6,4.8,9.6,9.6,9.6h14.4c5.6,0,9.6-4.8,9.6-9.6v-5.6C274.8,477.6,279.6,468,279.6,457.6z"/>
<path style="fill:#D0D1C5;" d="M242,498.4h14.4c5.6,0,9.6-4.8,9.6-9.6v-5.6c8-5.6,13.6-14.4,13.6-24.8c0-16.8-13.6-30.4-30.4-30.4"
	/>
<g>
	<circle style="fill:#720404;" cx="235.6" cy="465.6" r="7.2"/>
	<circle style="fill:#720404;" cx="262.8" cy="465.6" r="7.2"/>
</g>
<g>
</g>
<g>
</g>
<g>
</g>
<g>
</g>
<g>
</g>
<g>
</g>
<g>
</g>
<g>
</g>
<g>
</g>
<g>
</g>
<g>
</g>
<g>
</g>
<g>
</g>
<g>
</g>
<g>
</g>
</svg>
