<?xml version="1.0" encoding="iso-8859-1"?>
<!-- Generator: Adobe Illustrator 19.0.0, SVG Export Plug-In . SVG Version: 6.00 Build 0)  -->
<svg version="1.1" id="Layer_1" xmlns="http://www.w3.org/2000/svg" xmlns:xlink="http://www.w3.org/1999/xlink" x="0px" y="0px"
	 viewBox="0 0 493.384 493.384" style="enable-background:new 0 0 493.384 493.384;" xml:space="preserve">
<path style="fill:#CE1906;" d="M228.984,246.792c-6.4,0-12,5.6-12,12v43.2c-8,0.8-8,2.4-8,4v-30.4c0-6.4-4.8-12-12-12
	c-1.6,0-4,0-4,0.8v-11.2c0-6.4-5.6-12-12-12c-1.6,0-4,0-4,0.8v-12c0-6.4-5.6-12-12-12c-4,0-8,2.4-9.6,4.8c-2.4-2.4-4-4-7.2-4
	c-6.4,0-10.4,5.6-10.4,12v76.8c-8-1.6-6.4-2.4-9.6-2.4c-1.6,0-6.4,0-6.4,0.8v-44c0-6.4-4-12-11.2-12c-3.2,0.8-5.6,0.8-5.6,2.4v-28.8
	c0-6.4-5.6-12-12-12s-12,5.6-12,12l0,0c0-2.4-5.6-3.2-8.8-3.2c-2.4,0-7.2,0.8-7.2,2.4v-76.8c0-6.4-5.6-12-12-12s-12,4.8-12,11.2
	v37.6c0-4-6.4-6.4-11.2-6.4c-6.4,0-12.8,5.6-12.8,12v118.4c0,6.4,5.6,12,12,12s12-5.6,12-12v-37.6c8,4,5.6,6.4,9.6,6.4
	c2.4,0,6.4-0.8,6.4-2.4v76.8c0,6.4,5.6,12,12,12s12-5.6,12-12l0,0c8,2.4,5.6,3.2,9.6,3.2c2.4,0,6.4-0.8,6.4-1.6v28.8
	c0,6.4,4.8,12,12,12c1.6,0,4,0,4-0.8v44c0,6.4,5.6,12,12,12s12-5.6,12-12v-76.8c8,1.6,5.6,2.4,8,2.4c4,0,8-2.4,10.4-4.8
	c2.4,2.4,5.6,4,8.8,4c1.6,0,4,0,4-0.8v12c0,6.4,4.8,12,12,12c1.6,0,4,0,4-0.8v12c0,6.4,6.4,12,13.6,12c4,0,2.4-1.6,10.4-4.8v30.4
	c0,6.4,5.6,12,12,12s12-5.6,12-12v-43.2c0-1.6,8-6.4,8-11.2v-119.2C240.984,252.392,235.384,246.792,228.984,246.792z"/>
<path style="fill:#960E08;" d="M228.984,228.392c-6.4,0-12,5.6-12,12v43.2c-8,0.8-8,2.4-8,4v-30.4c0-6.4-4.8-12-12-12
	c-1.6,0-4,0-4,0.8v-11.2c0-6.4-5.6-12-12-12c-1.6,0-4,0-4,0.8v-12c0-6.4-5.6-12-12-12c-4,0-8,2.4-9.6,4.8c-2.4-2.4-4-4-7.2-4
	c-6.4,0-10.4,5.6-10.4,12v76.8c-8-1.6-6.4-2.4-9.6-2.4c-1.6,0-6.4,0-6.4,0.8v-44c0-6.4-4-12-11.2-12c-2.4,0-4.8,0.8-4.8,1.6v-28.8
	c0-6.4-5.6-12-12-12s-12.8,5.6-12.8,12.8l0,0c0-2.4-5.6-3.2-8.8-3.2c-2.4,0-7.2,0.8-7.2,2.4v-76.8c0-6.4-5.6-12-12-12
	s-12,4.8-12,11.2v37.6c0-4-6.4-6.4-11.2-6.4c-6.4-0.8-12.8,4.8-12.8,11.2v118.4c0,6.4,5.6,12,12,12s12-4.8,12-11.2v-37.6
	c8,4,5.6,6.4,9.6,6.4c2.4,0,6.4-0.8,6.4-2.4v76.8c0,6.4,5.6,12,12,12s12-4.8,12-11.2l0,0c8,2.4,5.6,3.2,9.6,3.2
	c2.4,0,6.4-0.8,6.4-1.6v28.8c0,6.4,4.8,12,12,12c1.6,0,4,0,4-0.8v44c0,6.4,5.6,12,12,12s12-5.6,12-12v-76.8c8,1.6,5.6,2.4,8,2.4
	c4,0,8-2.4,10.4-4.8c2.4,2.4,5.6,4,8.8,4c1.6,0,4,0,4-0.8v12c0,6.4,4.8,12,12,12c1.6,0,4,0,4-0.8v11.2c0,6.4,6.4,12,13.6,12
	c4,0,2.4-1.6,10.4-4.8v30.4c0,6.4,5.6,12,12,12s12-5.6,12-12v-43.2c0-1.6,8-6.4,8-11.2v-119.2
	C240.984,233.992,235.384,228.392,228.984,228.392z"/>
<path style="fill:#065177;" d="M482.584,397.992l-88-88l-8.8-8.8l-53.6-53.6l-24.8,24.8l28,28l0,0c-13.6,13.6-13.6,36,0,50.4
	l96.8,96.8c13.6,13.6,36,13.6,50.4,0C496.984,433.992,496.984,411.592,482.584,397.992z"/>
<path style="fill:#102D35;" d="M335.384,351.592l96.8,96.8c13.6,13.6,36,13.6,50.4,0c13.6-13.6,13.6-36,0-50.4l-88-88l-8.8-8.8"/>
<path style="fill:#0B8AA8;" d="M345.784,261.192l-226.4-226.4l-118.4,119.2l0.8,0.8c-8,12,33.6,69.6,94.4,130.4
	s119.2,102.4,130.4,94.4l0.8,0.8L345.784,261.192z"/>
<polyline style="fill:#097B8E;" points="226.584,379.592 227.384,379.592 345.784,261.192 119.384,34.792 "/>
<path style="fill:#ACE0E5;" d="M0.984,153.992L0.984,153.992c-8,12.8,33.6,70.4,95.2,131.2c60.8,60.8,119.2,102.4,130.4,94.4
	l0.8,0.8l45.6-45.6l-227.2-226.4L0.984,153.992z"/>
<polyline style="fill:#93C8D1;" points="226.584,379.592 227.384,379.592 272.184,334.792 45.784,108.392 "/>
<circle style="fill:#CEEAED;" cx="120.984" cy="74.792" r="12.8"/>
<g>
	<circle style="fill:#FF9C39;" cx="373.784" cy="338.792" r="9.6"/>
	<circle style="fill:#FF9C39;" cx="410.584" cy="376.392" r="9.6"/>
	<circle style="fill:#FF9C39;" cx="448.184" cy="413.192" r="9.6"/>
</g>
<g>
</g>
<g>
</g>
<g>
</g>
<g>
</g>
<g>
</g>
<g>
</g>
<g>
</g>
<g>
</g>
<g>
</g>
<g>
</g>
<g>
</g>
<g>
</g>
<g>
</g>
<g>
</g>
<g>
</g>
</svg>
