<?xml version="1.0" encoding="iso-8859-1"?>
<!-- Generator: Adobe Illustrator 19.0.0, SVG Export Plug-In . SVG Version: 6.00 Build 0)  -->
<svg version="1.1" id="Layer_1" xmlns="http://www.w3.org/2000/svg" xmlns:xlink="http://www.w3.org/1999/xlink" x="0px" y="0px"
	 viewBox="0 0 496 496" style="enable-background:new 0 0 496 496;" xml:space="preserve">
<g>
	<path style="fill:#CCCCCC;" d="M248.4,450.4c-1.6,0-3.2-0.8-4.8-1.6l-166.4-96c-3.2-1.6-4.8-4.8-4.8-8.8V152c0-3.2,1.6-7.2,4.8-8.8
		l166.4-96c3.2-1.6,7.2-1.6,9.6,0l166.4,96c3.2,1.6,4.8,4.8,4.8,8.8v192c0,3.2-1.6,7.2-4.8,8.8l-166.4,96
		C251.6,449.6,250,450.4,248.4,450.4z M91.6,338.4l156.8,90.4l156.8-90.4V157.6L248.4,67.2L91.6,157.6V338.4z"/>
	<path style="fill:#CCCCCC;" d="M248.4,388.8c-1.6,0-3.2-0.8-4.8-1.6l-112.8-65.6c-3.2-1.6-4.8-4.8-4.8-8.8V182.4
		c0-3.2,1.6-7.2,4.8-8.8L243.6,108c3.2-1.6,7.2-1.6,9.6,0L366,173.6c3.2,1.6,4.8,4.8,4.8,8.8v130.4c0,3.2-1.6,7.2-4.8,8.8
		l-112.8,65.6C251.6,388,250,388.8,248.4,388.8z M145.2,307.2l103.2,60L351.6,308V188.8l-103.2-60L145.2,188V307.2z"/>
	<path style="fill:#CCCCCC;" d="M248.4,322.4c-1.6,0-3.2-0.8-4.8-1.6l-59.2-33.6c-3.2-1.6-4.8-4.8-4.8-8.8v-68.8
		c0-3.2,1.6-7.2,4.8-8.8l59.2-34.4c3.2-1.6,7.2-1.6,9.6,0l59.2,34.4c3.2,1.6,4.8,4.8,4.8,8.8v68.8c0,3.2-1.6,7.2-4.8,8.8l-59.2,34.4
		C251.6,322.4,250,322.4,248.4,322.4z M198.8,272.8l49.6,28.8l49.6-28.8V216l-49.6-28.8L198.8,216V272.8z"/>
	<path style="fill:#CCCCCC;" d="M248.4,496c-4,0-6.4-3.2-6.4-6.4V6.4c0-3.2,2.4-6.4,6.4-6.4s6.4,3.2,6.4,6.4v483.2
		C254.8,492.8,252.4,496,248.4,496z"/>
	<path style="fill:#CCCCCC;" d="M490,254.4H6.8c-3.2,0-6.4-2.4-6.4-6.4s3.2-6.4,6.4-6.4h482.4c4,0,6.4,3.2,6.4,6.4
		C495.6,251.2,493.2,254.4,490,254.4z"/>
	<path style="fill:#CCCCCC;" d="M78,425.6c-1.6,0-3.2-0.8-4.8-1.6c-2.4-2.4-2.4-6.4,0-9.6L414.8,72.8c2.4-2.4,6.4-2.4,9.6,0
		c2.4,2.4,2.4,6.4,0,9.6L82,423.2C81.2,424.8,79.6,425.6,78,425.6z"/>
	<path style="fill:#CCCCCC;" d="M418.8,425.6c-1.6,0-3.2-0.8-4.8-1.6L73.2,81.6c-2.4-2.4-2.4-6.4,0-9.6c2.4-2.4,6.4-2.4,9.6,0
		l341.6,341.6c2.4,2.4,2.4,6.4,0,9.6C422.8,424.8,420.4,425.6,418.8,425.6z"/>
	<path style="fill:#CCCCCC;" d="M154,473.6c-0.8,0-0.8,0-1.6,0c-1.6-0.8-2.4-2.4-1.6-4L339.6,24.8c0.8-1.6,2.4-2.4,4-1.6
		c1.6,0.8,2.4,2.4,1.6,4l-188,444C156.4,472.8,154.8,473.6,154,473.6z"/>
	<path style="fill:#CCCCCC;" d="M470.8,345.6c-0.8,0-0.8,0-1.6,0l-444-188.8c-1.6-0.8-2.4-2.4-1.6-4s2.4-2.4,4-1.6l444,188.8
		c1.6,0.8,2.4,2.4,1.6,4C473.2,344.8,471.6,345.6,470.8,345.6z"/>
	<path style="fill:#CCCCCC;" d="M24.4,341.6c-1.6,0-2.4-0.8-3.2-2.4c-0.8-1.6,0-4,1.6-4l448-180c1.6-0.8,4,0,4,1.6
		c0.8,1.6,0,4-1.6,4l-448,180C25.2,341.6,25.2,341.6,24.4,341.6z"/>
	<path style="fill:#CCCCCC;" d="M338.8,475.2c-1.6,0-2.4-0.8-3.2-2.4l-180-448c-0.8-1.6,0-4,1.6-4c1.6-0.8,4,0,4,1.6l180,448
		c0.8,1.6,0,4-1.6,4C339.6,475.2,338.8,475.2,338.8,475.2z"/>
</g>
<g>
</g>
<g>
</g>
<g>
</g>
<g>
</g>
<g>
</g>
<g>
</g>
<g>
</g>
<g>
</g>
<g>
</g>
<g>
</g>
<g>
</g>
<g>
</g>
<g>
</g>
<g>
</g>
<g>
</g>
</svg>
