<?xml version="1.0" encoding="iso-8859-1"?>
<!-- Generator: Adobe Illustrator 19.0.0, SVG Export Plug-In . SVG Version: 6.00 Build 0)  -->
<svg version="1.1" id="Layer_1" xmlns="http://www.w3.org/2000/svg" xmlns:xlink="http://www.w3.org/1999/xlink" x="0px" y="0px"
	 viewBox="0 0 495.2 495.2" style="enable-background:new 0 0 495.2 495.2;" xml:space="preserve">
<path style="fill:#AF2E2E;" d="M427.6,200c-2.4-84.8-80-154.4-179.2-154.4s-179.2,68-180.8,153.6v0.8v186.4c0,9.6,10.4,17.6,20,17.6
	s20-8,20-17.6v-1.6c0-0.8,0-1.6,0-2.4v9.6c0,9.6,10.4,17.6,20,17.6s20-8,20-17.6v-30.4c0,0,3.2,0,4,0s-4,0,4,0v7.2
	c0,9.6,6.4,17.6,16,17.6c4,0,8-0.8,8-3.2v11.2c0,9.6,8.8,17.6,18.4,17.6c1.6,0,5.6,0,5.6-0.8v27.2c0,9.6,6.4,17.6,16,17.6
	c4,0,8-0.8,8-3.2v4.8c0,9.6,11.2,17.6,20.8,17.6c7.2,0,11.2-4,19.2-10.4v12.8c0,9.6,6.4,17.6,16,17.6s16-8,16-17.6V416
	c8-3.2,8-8,8-13.6v-8c0,4.8,8.8,8,15.2,8c2.4,0,5.6-0.8,7.2-1.6c2.4,7.2,8.8,12.8,17.6,12.8c9.6,0,17.6-7.2,17.6-16.8
	c0.8,0,3.2,0,4,0c9.6,0,18.4-8,18.4-17.6V368c0-1.6,8-4,8-7.2V384c0,9.6,6.4,17.6,16,17.6s16-8,16-17.6L427.6,200
	C427.6,200,427.6,200.8,427.6,200z"/>
<path style="fill:#891D1D;" d="M427.6,165.6c-2.4-84.8-80-154.4-179.2-154.4S69.2,79.2,67.6,164.8v0.8V352c0,9.6,10.4,17.6,20,17.6
	s20-8,20-17.6v-1.6c0-0.8,0-1.6,0-2.4v9.6c0,9.6,10.4,17.6,20,17.6s20-8,20-17.6v-30.4c0,0,3.2,0,4,0s-4,0,4,0v7.2
	c0,9.6,6.4,17.6,16,17.6c4,0,8-0.8,8-3.2v12c0,9.6,8.8,17.6,18.4,17.6c1.6,0,5.6,0,5.6-0.8v27.2c0,9.6,6.4,17.6,16,17.6
	c4,0,8-0.8,8-3.2v5.6c0,9.6,11.2,17.6,20.8,17.6c7.2,0,11.2-4,19.2-10.4v12.8c0,9.6,6.4,17.6,16,17.6s16-8,16-17.6v-61.6
	c8-3.2,8-8,8-13.6v-8c0,4.8,8.8,8,15.2,8c2.4,0,5.6-0.8,7.2-1.6c2.4,7.2,8.8,12.8,17.6,12.8c9.6,0,17.6-7.2,17.6-16.8
	c0.8,0,3.2,0,4,0c9.6,0,18.4-8,18.4-17.6v-11.2c0-1.6,8-4,8-7.2v23.2c0,9.6,6.4,17.6,16,17.6s16-8,16-17.6L427.6,165.6
	C427.6,165.6,427.6,165.6,427.6,165.6z"/>
<circle style="fill:#FFFFFF;" cx="249.2" cy="171.2" r="171.2"/>
<path style="fill:#E4EAE8;" d="M249.2,0c94.4,0,171.2,76.8,171.2,171.2s-76.8,171.2-171.2,171.2"/>
<path style="fill:#0AA06E;" d="M338.8,104.8c0,49.6-40,89.6-88.8,89.6c-49.6,0-89.6-40-89.6-89.6S200.4,16,250,16
	C298.8,16,338.8,55.2,338.8,104.8z"/>
<path style="fill:#007C56;" d="M249.2,16c49.6,0,88.8,40,88.8,88.8c0,49.6-40,89.6-88.8,89.6"/>
<path style="fill:#5E6664;" d="M288.4,104.8c0,21.6-17.6,39.2-39.2,39.2S210,126.4,210,104.8s17.6-39.2,39.2-39.2
	C270.8,65.6,288.4,83.2,288.4,104.8z"/>
<path style="fill:#2F423F;" d="M277.2,76.8c15.2,15.2,15.2,40,0,55.2s-40,15.2-55.2,0"/>
<g>
	<path style="fill:#FFFFFF;" d="M244.4,76c0,11.2-8.8,20-20,20s-20-8.8-20-20s8.8-20,20-20C235.6,56.8,244.4,65.6,244.4,76z"/>
	<path style="fill:#FFFFFF;" d="M286.8,131.2c0,4.8-4,8.8-8.8,8.8s-8.8-4-8.8-8.8s4-8.8,8.8-8.8
		C282.8,121.6,286.8,125.6,286.8,131.2z"/>
</g>
<g>
</g>
<g>
</g>
<g>
</g>
<g>
</g>
<g>
</g>
<g>
</g>
<g>
</g>
<g>
</g>
<g>
</g>
<g>
</g>
<g>
</g>
<g>
</g>
<g>
</g>
<g>
</g>
<g>
</g>
</svg>
