<?xml version="1.0" encoding="iso-8859-1"?>
<!-- Generator: Adobe Illustrator 19.0.0, SVG Export Plug-In . SVG Version: 6.00 Build 0)  -->
<svg version="1.1" id="Layer_1" xmlns="http://www.w3.org/2000/svg" xmlns:xlink="http://www.w3.org/1999/xlink" x="0px" y="0px"
	 viewBox="0 0 502.548 502.548" style="enable-background:new 0 0 502.548 502.548;" xml:space="preserve">
<g>
	<circle style="fill:#16A885;" cx="90.585" cy="189.834" r="50.412"/>
	<circle style="fill:#16A885;" cx="411.963" cy="189.834" r="50.412"/>
</g>
<g>
	<ellipse style="fill:#0A8968;" cx="90.585" cy="182.745" rx="50.412" ry="33.083"/>
	<ellipse style="fill:#0A8968;" cx="411.963" cy="182.745" rx="50.412" ry="33.083"/>
</g>
<path id="SVGCleanerId_0" style="fill:#3CD3A4;" d="M431.655,418.265c0,32.295-25.994,58.289-58.289,58.289H129.182
	c-32.295,0-58.289-25.994-58.289-58.289L98.462,58.289C98.462,25.994,124.455,0,156.751,0h189.834
	c32.295,0,58.289,25.994,58.289,58.289L431.655,418.265z"/>
<g>
	<path id="SVGCleanerId_0_1_" style="fill:#3CD3A4;" d="M431.655,418.265c0,32.295-25.994,58.289-58.289,58.289H129.182
		c-32.295,0-58.289-25.994-58.289-58.289L98.462,58.289C98.462,25.994,124.455,0,156.751,0h189.834
		c32.295,0,58.289,25.994,58.289,58.289L431.655,418.265z"/>
</g>
<path style="fill:#30BF9A;" d="M156.751,0.788h189.834c32.295,0,58.289,25.994,58.289,58.289l27.569,359.188
	c0,32.295-25.994,58.289-58.289,58.289"/>
<g>
	<path style="fill:#16A885;" d="M229.218,189.046c0,3.151-2.363,5.514-5.514,5.514h-92.948c-3.151,0-5.514-2.363-5.514-5.514l0,0
		c0-3.151,2.363-5.514,5.514-5.514h92.948C226.068,183.532,229.218,185.895,229.218,189.046L229.218,189.046z"/>
	<path style="fill:#16A885;" d="M135.483,188.258c6.302,25.206,22.055,43.323,40.96,43.323s34.658-18.117,40.96-43.323H135.483z"/>
</g>
<path style="fill:#680000;" d="M135.483,188.258c6.302,16.542,22.055,29.145,40.96,29.145s34.658-11.815,40.96-29.145H135.483z"/>
<path style="fill:#960E08;" d="M137.846,192.985c7.089,13.391,22.055,17.329,38.597,17.329s31.508-3.938,38.597-17.329H137.846z"/>
<circle style="fill:#3CD3A4;" cx="176.443" cy="199.286" r="4.726"/>
<circle style="fill:#ACEAD5;" cx="175.655" cy="199.286" r="3.151"/>
<g>
	<path style="fill:#16A885;" d="M378.092,189.046c0,3.151-2.363,5.514-5.514,5.514h-92.948c-3.151,0-5.514-2.363-5.514-5.514l0,0
		c0-3.151,2.363-5.514,5.514-5.514h92.948C375.729,183.532,378.092,185.895,378.092,189.046L378.092,189.046z"/>
	<path style="fill:#16A885;" d="M284.357,188.258c6.302,25.206,22.055,43.323,40.96,43.323s34.658-18.117,40.96-43.323H284.357z"/>
</g>
<path style="fill:#680000;" d="M284.357,188.258c6.302,16.542,22.055,29.145,40.96,29.145s34.658-11.815,40.96-29.145H284.357z"/>
<path style="fill:#960E08;" d="M286.72,192.985c7.089,13.391,22.055,17.329,38.597,17.329c17.329,0,31.508-3.938,38.597-17.329
	H286.72z"/>
<circle style="fill:#3CD3A4;" cx="326.105" cy="199.286" r="4.726"/>
<circle style="fill:#ACEAD5;" cx="324.529" cy="199.286" r="3.151"/>
<path style="fill:#065177;" d="M396.997,30.72c-10.24-18.117-29.145-29.932-50.412-29.932H156.751
	c-22.055,0-40.96,11.815-50.412,29.932c2.363,35.446,31.508,63.803,67.742,63.803h155.175
	C364.702,93.735,394.634,66.166,396.997,30.72z"/>
<path style="fill:#102D35;" d="M200.862,93.735h128.394c36.234,0,65.378-28.357,67.742-63.803C386.757,11.815,367.852,0,346.585,0
	H156.751"/>
<path style="fill:#16A885;" d="M134.695,286.72c0-26.782-21.268-48.049-48.049-48.049c-0.788,0-0.788,0-1.575,0L70.892,418.265
	c0,32.295,25.994,58.289,58.289,58.289h4.726c0-2.363,0.788-4.726,0.788-7.089V286.72z"/>
<path style="fill:#0A8968;" d="M129.182,476.554h4.726c0-2.363,0.788-4.726,0.788-7.089V286.72
	c0-26.782-21.268-48.049-48.049-48.049c-0.788,0-0.788,0-1.575,0"/>
<path style="fill:#16A885;" d="M367.852,286.72c0-26.782,21.268-48.049,48.049-48.049c0.788,0,0.788,0,1.575,0l13.391,178.806
	c0,32.295-25.994,58.289-58.289,58.289h-4.726c0-2.363-0.788-4.726-0.788-7.089V286.72H367.852z"/>
<path style="fill:#0A8968;" d="M373.366,476.554h-4.726c0-2.363-0.788-4.726-0.788-7.089V286.72
	c0-26.782,21.268-48.049,48.049-48.049c0.788,0,0.788,0,1.575,0"/>
<path style="fill:#16A885;" d="M243.397,111.852c3.151,0,6.302,1.575,7.089,4.726c0,0,0.788,0.788,0.788,0h0.788
	c0.788-2.363,3.938-4.726,7.089-4.726c3.938,0,7.089,3.151,7.089,6.302c0,1.575-0.788,2.363-1.575,3.938l0,0l0,0l-13.391,23.631
	l-13.391-23.631l0,0l0,0c-0.788-0.788-1.575-2.363-1.575-3.938C236.308,115.003,239.458,111.852,243.397,111.852z"/>
<path style="fill:#960E08;" d="M243.397,111.065c3.151,0,6.302,1.575,7.089,4.726c0,0,0.788,0.788,0.788,0h0.788
	c0.788-2.363,3.938-4.726,7.089-4.726c3.938,0,7.089,3.151,7.089,6.302c0,1.575-0.788,2.363-1.575,3.938l0,0l0,0l-13.391,15.754
	l-13.391-15.754l0,0l0,0c-0.788-0.788-1.575-2.363-1.575-3.938C236.308,113.428,239.458,111.065,243.397,111.065z"/>
<path style="fill:#660303;" d="M251.274,115.791C251.274,115.791,252.062,115.791,251.274,115.791
	c1.575-3.151,4.726-4.726,7.877-4.726c3.938,0,7.089,3.151,7.089,6.302c0,1.575-0.788,2.363-1.575,3.938l0,0l0,0l-13.391,15.754"/>
<path style="fill:#0A8968;" d="M285.145,254.425c0,4.726-3.938,7.877-7.877,24.418h-51.2c-4.726-16.542-7.877-20.48-7.877-24.418
	l0,0c0-4.726,3.938-7.877,7.877-7.877h51.2C281.994,246.548,285.145,249.698,285.145,254.425L285.145,254.425z"/>
<path style="fill:#066D63;" d="M217.403,254.425L217.403,254.425c0-4.726,3.938-7.877,7.877-7.877h51.2
	c4.726,0,7.877,3.938,7.877,7.877l0,0c0,4.726-3.938,7.877-7.877,24.418"/>
<path style="fill:#16A885;" d="M188.258,324.529v37.809c0,34.658,28.357,62.228,62.228,62.228c34.658,0,62.228-28.357,62.228-62.228
	v-37.809H188.258z"/>
<path style="fill:#680000;" d="M188.258,315.077v37.809c0,34.658,28.357,62.228,62.228,62.228c34.658,0,62.228-28.357,62.228-62.228
	v-37.809H188.258z"/>
<g>
	<path style="fill:#0A8968;" d="M171.717,245.76c0,2.363-1.575,3.938-3.938,3.938h-16.542c-2.363,0-3.938-1.575-3.938-3.938l0,0
		c0-2.363,1.575-3.938,3.938-3.938h16.542C169.354,241.822,171.717,243.397,171.717,245.76L171.717,245.76z"/>
	<path style="fill:#0A8968;" d="M171.717,263.089c0,2.363-1.575,3.938-3.938,3.938h-16.542c-2.363,0-3.938-1.575-3.938-3.938l0,0
		c0-2.363,1.575-3.938,3.938-3.938h16.542C169.354,259.938,171.717,261.514,171.717,263.089L171.717,263.089z"/>
	<path style="fill:#0A8968;" d="M171.717,281.206c0,2.363-1.575,3.938-3.938,3.938h-16.542c-2.363,0-3.938-1.575-3.938-3.938l0,0
		c0-2.363,1.575-3.938,3.938-3.938h16.542C169.354,277.268,171.717,279.631,171.717,281.206L171.717,281.206z"/>
	<path style="fill:#0A8968;" d="M171.717,299.323c0,2.363-1.575,3.938-3.938,3.938h-16.542c-2.363,0-3.938-1.575-3.938-3.938l0,0
		c0-2.363,1.575-3.938,3.938-3.938h16.542C169.354,295.385,171.717,296.96,171.717,299.323L171.717,299.323z"/>
	<path style="fill:#0A8968;" d="M171.717,317.44c0,2.363-1.575,3.938-3.938,3.938h-16.542c-2.363,0-3.938-1.575-3.938-3.938l0,0
		c0-2.363,1.575-3.938,3.938-3.938h16.542C169.354,313.502,171.717,315.077,171.717,317.44L171.717,317.44z"/>
	<path style="fill:#0A8968;" d="M159.114,334.769c-2.363,0-3.938-1.575-3.938-3.938v-98.462c0-2.363,1.575-3.938,3.938-3.938l0,0
		c2.363,0,3.938,1.575,3.938,3.938v99.249C163.052,333.194,161.477,334.769,159.114,334.769L159.114,334.769z"/>
</g>
<path style="fill:#AF2E2E;" d="M251.274,415.902c27.569,0,51.2-18.117,59.865-43.323c-7.089-7.877-17.329-12.603-29.145-12.603
	c-11.815,0-22.843,5.514-29.932,14.178c-7.089-8.665-18.117-14.178-29.932-14.178c-11.815,0-22.055,4.726-29.145,12.603
	C199.286,396.997,222.917,415.902,251.274,415.902z"/>
<g>
	<path style="fill:#3CD3A4;" d="M265.452,468.677c0,18.117-14.966,33.871-33.871,33.871h-64.591
		c-18.117,0-33.871-14.966-33.871-33.871l0,0c0-18.117,14.966-33.871,33.871-33.871h64.591
		C250.486,434.806,265.452,449.772,265.452,468.677L265.452,468.677z"/>
	<path style="fill:#3CD3A4;" d="M368.64,468.677c0,18.117-14.966,33.871-33.871,33.871h-64.591
		c-18.117,0-33.871-14.966-33.871-33.871l0,0c0-18.117,14.966-33.871,33.871-33.871h64.591
		C353.674,434.806,368.64,449.772,368.64,468.677L368.64,468.677z"/>
</g>
<path style="fill:#66EDC0;" d="M171.717,165.415c0,3.938-3.151,7.089-7.089,7.089h-29.932c-3.938,0-7.089-3.151-7.089-7.089l0,0
	c0-3.938,3.151-7.089,7.089-7.089h29.932C168.566,158.326,171.717,161.477,171.717,165.415L171.717,165.415z"/>
<path style="fill:#3CD3A4;" d="M317.44,165.415c0,3.938-3.151,7.089-7.089,7.089h-29.932c-3.938,0-7.089-3.151-7.089-7.089l0,0
	c0-3.938,3.151-7.089,7.089-7.089h29.932C314.289,158.326,317.44,161.477,317.44,165.415L317.44,165.415z"/>
<g>
	<path style="fill:#66EDC0;" d="M318.228,309.563c0,3.151-0.788,4.726-2.363,4.726H186.683c-1.575,0-2.363-2.363-2.363-4.726l0,0
		c0-3.151,0.788-4.726,2.363-4.726h129.182C317.44,304.837,318.228,306.412,318.228,309.563L318.228,309.563z"/>
	<path style="fill:#66EDC0;" d="M111.065,145.723c0,3.938-3.151,6.302-7.089,5.514l0,0c-3.151,0-6.302-3.151-5.514-7.089
		l5.514-63.015c0-3.938,3.151-6.302,7.089-5.514l0,0c3.151,0,6.302,3.151,5.514,7.089L111.065,145.723z"/>
	<path style="fill:#66EDC0;" d="M211.102,460.012c0,3.938-3.151,7.877-7.877,7.877h-33.083c-3.938,0-7.877-3.151-7.877-7.877l0,0
		c0-3.938,3.151-7.877,7.877-7.877h33.083C207.951,452.923,211.102,456.074,211.102,460.012L211.102,460.012z"/>
	<path style="fill:#66EDC0;" d="M275.692,460.012c0,3.938-3.151,7.877-7.877,7.877h-33.083c-3.938,0-7.877-3.151-7.877-7.877l0,0
		c0-3.938,3.151-7.877,7.877-7.877h33.083C271.754,452.923,275.692,456.074,275.692,460.012L275.692,460.012z"/>
	<path style="fill:#66EDC0;" d="M339.495,460.012c0,3.938-3.151,7.877-7.877,7.877h-33.083c-3.938,0-7.877-3.151-7.877-7.877l0,0
		c0-3.938,3.151-7.877,7.877-7.877h33.083C335.557,452.923,339.495,456.074,339.495,460.012L339.495,460.012z"/>
	<path style="fill:#66EDC0;" d="M285.145,251.274c0,3.938-3.151,6.302-6.302,6.302h-55.138c-3.938,0-6.302-3.151-6.302-6.302l0,0
		c0-3.938,3.151-6.302,6.302-6.302h55.138C281.994,244.185,285.145,247.335,285.145,251.274L285.145,251.274z"/>
</g>
<polygon style="fill:#E87B18;" points="421.415,35.446 392.271,92.948 421.415,92.948 400.148,139.422 456.862,81.92 427.717,81.92 
	457.649,34.658 "/>
<polygon style="fill:#E5971A;" points="65.378,28.357 82.708,62.228 65.378,62.228 77.982,89.797 44.898,55.926 61.44,55.926 
	44.111,28.357 "/>
<path style="fill:#036D4F;" d="M392.271,315.865c0,5.514-4.726,10.24-10.24,10.24l0,0c-5.514,0-10.24-4.726-10.24-10.24v-27.569
	c0-5.514,4.726-10.24,10.24-10.24l0,0c5.514,0,10.24,4.726,10.24,10.24V315.865z"/>
<path style="fill:#CCF2EE;" d="M444.258,332.406c9.452,0,17.329-7.089,17.329-17.329l0.788-25.206
	c0-9.452-7.877-17.329-17.329-17.329c-8.665,0-15.754,5.514-17.329,14.178l-43.323-0.788c-8.665,0-7.089,7.089-7.877,15.754
	c0,8.665-1.575,15.754,7.089,15.754l43.323,0.788C429.292,326.105,435.594,332.406,444.258,332.406z"/>
<path style="fill:#A6DDD6;" d="M377.305,301.686c0,8.665-1.575,15.754,7.089,15.754l43.323,0.788
	c1.575,7.877,8.665,14.178,16.542,14.178c9.452,0,17.329-7.089,17.329-17.329l0.788-25.206"/>
<path style="fill:#8DCCC3;" d="M377.305,301.686c0,8.665-1.575,15.754,7.089,15.754l43.323,0.788
	c1.575,7.877,8.665,14.178,16.542,14.178c9.452,0,17.329-7.089,17.329-17.329"/>
<path style="fill:#036D4F;" d="M110.277,315.865c0,5.514,4.726,10.24,10.24,10.24l0,0c5.514,0,10.24-4.726,10.24-10.24v-27.569
	c0-5.514-4.726-10.24-10.24-10.24l0,0c-5.514,0-10.24,4.726-10.24,10.24V315.865z"/>
<path style="fill:#CCF2EE;" d="M58.289,332.406c-9.452,0-17.329-7.089-17.329-17.329l-0.788-25.206
	c0-9.452,7.877-17.329,17.329-17.329c8.665,0,15.754,5.514,17.329,14.178l43.323-0.788c8.665,0,7.089,7.089,7.877,15.754
	c0,8.665,1.575,15.754-7.089,15.754l-44.111,0.788C73.255,326.105,66.954,332.406,58.289,332.406z"/>
<path style="fill:#A6DDD6;" d="M125.243,301.686c0,8.665,1.575,15.754-7.089,15.754l-43.323,0.788
	c-1.575,7.877-8.665,14.178-16.542,14.178c-9.452,0-17.329-7.089-17.329-17.329l-0.788-25.206"/>
<path style="fill:#8DCCC3;" d="M125.243,301.686c0,8.665,1.575,15.754-7.089,15.754l-43.323,0.788
	c-1.575,7.877-8.665,14.178-16.542,14.178c-9.452,0-17.329-7.089-17.329-17.329"/>
<path style="fill:#D4F9F3;" d="M198.498,317.44v2.363c0,7.089,6.302,13.391,13.391,13.391s13.391-6.302,13.391-13.391v-2.363
	H198.498z"/>
<g>
</g>
<g>
</g>
<g>
</g>
<g>
</g>
<g>
</g>
<g>
</g>
<g>
</g>
<g>
</g>
<g>
</g>
<g>
</g>
<g>
</g>
<g>
</g>
<g>
</g>
<g>
</g>
<g>
</g>
</svg>
