<?xml version="1.0" encoding="iso-8859-1"?>
<!-- Generator: Adobe Illustrator 19.0.0, SVG Export Plug-In . SVG Version: 6.00 Build 0)  -->
<svg version="1.1" id="Layer_1" xmlns="http://www.w3.org/2000/svg" xmlns:xlink="http://www.w3.org/1999/xlink" x="0px" y="0px"
	 viewBox="0 0 498.4 498.4" style="enable-background:new 0 0 498.4 498.4;" xml:space="preserve">
<circle style="fill:#E06E10;" cx="249.2" cy="268.8" r="229.6"/>
<path style="fill:#D1E5E4;" d="M391.6,364V141.6C391.6,63.2,328.4,0,250,0S107.6,63.2,107.6,141.6V364v0.8v66.4
	c0,9.6,8,17.6,17.6,17.6s17.6-8,17.6-17.6v-9.6h26.4v9.6c0,9.6,8,17.6,17.6,17.6s17.6-8,17.6-17.6v-9.6h26.4v9.6
	c0,9.6,8,17.6,17.6,17.6s17.6-8,17.6-17.6v-9.6h26.4v9.6c0,9.6,8,17.6,17.6,17.6s17.6-8,17.6-17.6v-9.6h28v9.6
	c0,9.6,8,17.6,17.6,17.6s17.6-8,17.6-17.6v-66.4C391.6,364,391.6,364,391.6,364z"/>
<path style="fill:#B8D1D1;" d="M143.6,430.4v-9.6H170v9.6c0,9.6,8,17.6,17.6,17.6s17.6-8,17.6-17.6v-9.6h26.4v9.6
	c0,9.6,8,17.6,17.6,17.6s17.6-8,17.6-17.6v-9.6h26.4v9.6c0,9.6,8,17.6,17.6,17.6s17.6-8,17.6-17.6v-9.6h27.2v9.6
	c0,9.6,8,17.6,17.6,17.6s17.6-8,17.6-17.6V364v-0.8V141.6C390.8,63.2,327.6,0,249.2,0"/>
<g>
	<path style="fill:#A7C1C0;" d="M329.2,430.4v-9.6h26.4v9.6c0,9.6,8,17.6,17.6,17.6s17.6-8,17.6-17.6V364v-0.8V141.6
		C390.8,63.2,327.6,0,249.2,0"/>
</g>
<g>
	<path style="fill:#B8D1D1;" d="M187.6,448.8c9.6,0,17.6-8,17.6-17.6"/>
</g>
<g>
	<path style="fill:#102D35;" d="M206,82.4c-4,0-7.2,0.8-10.4,3.2c4,0.8,7.2,4,7.2,8c0,4.8-4,8.8-8.8,8.8c-3.2,0-6.4-2.4-8-4.8
		c-0.8,1.6-0.8,3.2-0.8,5.6c0,11.2,8.8,20,20,20c11.2,0,20-8.8,20-20S217.2,82.4,206,82.4z"/>
	<path style="fill:#102D35;" d="M292.4,82.4c-4,0-7.2,0.8-10.4,3.2c4,0.8,7.2,4,7.2,8c0,4.8-4,8.8-8.8,8.8c-3.2,0-6.4-2.4-8-4.8
		c-0.8,1.6-0.8,3.2-0.8,5.6c0,11.2,8.8,20,20,20s20-8.8,20-20S303.6,82.4,292.4,82.4z"/>
</g>
<ellipse style="fill:#5B0404;" cx="249.2" cy="191.2" rx="18.4" ry="32"/>
<path style="fill:#960E08;" d="M267.6,191.2c0,17.6-8,32-18.4,32s-18.4-14.4-18.4-32"/>
<path style="fill:#DFF2F1;" d="M215.6,17.6c4.8,7.2-6.4,24-26.4,38.4c-20,13.6-40,19.2-44.8,12c-4.8-7.2,6.4-24,26.4-38.4
	C190.8,16,210.8,10.4,215.6,17.6z"/>
<g>
	<circle style="fill:#A7C1C0;" cx="62.8" cy="223.2" r="11.2"/>
	<circle style="fill:#A7C1C0;" cx="74" cy="179.2" r="4"/>
	<circle style="fill:#A7C1C0;" cx="93.2" cy="200" r="9.6"/>
	<circle style="fill:#A7C1C0;" cx="442" cy="254.4" r="11.2"/>
	<circle style="fill:#A7C1C0;" cx="428.4" cy="184" r="6.4"/>
	<circle style="fill:#A7C1C0;" cx="417.2" cy="229.6" r="4"/>
	<circle style="fill:#A7C1C0;" cx="80.4" cy="268" r="5.6"/>
	<circle style="fill:#A7C1C0;" cx="408.4" cy="283.2" r="1.6"/>
	<circle style="fill:#A7C1C0;" cx="403.6" cy="173.6" r="4.8"/>
	<circle style="fill:#A7C1C0;" cx="89.2" cy="118.4" r="6.4"/>
</g>
<g>
</g>
<g>
</g>
<g>
</g>
<g>
</g>
<g>
</g>
<g>
</g>
<g>
</g>
<g>
</g>
<g>
</g>
<g>
</g>
<g>
</g>
<g>
</g>
<g>
</g>
<g>
</g>
<g>
</g>
</svg>
