<?xml version="1.0" encoding="iso-8859-1"?>
<!-- Generator: Adobe Illustrator 19.0.0, SVG Export Plug-In . SVG Version: 6.00 Build 0)  -->
<svg version="1.1" id="Layer_1" xmlns="http://www.w3.org/2000/svg" xmlns:xlink="http://www.w3.org/1999/xlink" x="0px" y="0px"
	 viewBox="0 0 499.2 499.2" style="enable-background:new 0 0 499.2 499.2;" xml:space="preserve">
<path style="fill:#FCC772;" d="M486.4,276.8c1.6-11.2,2.4-22.4,2.4-34.4C488.8,110.4,381.6,4,249.6,4S10.4,110.4,10.4,242.4
	c0,11.2,0.8,23.2,2.4,34.4H486.4z"/>
<path style="fill:#FF9C39;" d="M488,239.2c-8-124.8-111.2-224-238.4-224C117.6,16,10.4,122.4,10.4,254.4c0,11.2,0.8,23.2,2.4,34.4
	h180.8v188h295.2L488,239.2L488,239.2z"/>
<polyline style="fill:#E57A1A;" points="12.8,288.8 193.6,288.8 193.6,477.6 488.8,477.6 488.8,239.2 488,239.2 "/>
<path style="fill:#065177;" d="M283.2,234.4c-11.2,0-20.8,8.8-20.8,20.8v16h-11.2v-14.4h-14.4v14.4h-9.6v-14.4h-14.4v14.4h-9.6
	v-14.4h-14.4v14.4h-16V132l8-8l-55.2-55.2V47.2h28c3.2,0,5.6-2.4,5.6-5.6s-2.4-6.4-5.6-6.4h-27.2V8c0-3.2-2.4-5.6-5.6-5.6
	s-5.6,2.4-5.6,5.6v27.2H88c-4,0-6.4,3.2-6.4,6.4s2.4,5.6,5.6,5.6h27.2V68l-55.2,55.2l8,8v120l-20-20l-26.4,26.4v-94.4
	c0-5.6-4.8-10.4-10.4-10.4S0,157.6,0,163.2v107.2v11.2v164h67.2v1.6h105.6v-1.6h88.8c0,11.2,9.6,20,20,20c11.2,0,20.8-8.8,20.8-20.8
	V254.4C303.2,243.2,294.4,234.4,283.2,234.4z"/>
<g>
	<rect y="438.4" style="fill:#102D35;" width="498.4" height="58.4"/>
	<rect x="24.8" y="254.4" style="fill:#102D35;" width="46.4" height="186.4"/>
	<polyline style="fill:#102D35;" points="203.2,256 189.6,256 189.6,270.4 	"/>
	<polyline style="fill:#102D35;" points="227.2,256 213.6,256 213.6,270.4 	"/>
	<polyline style="fill:#102D35;" points="251.2,256 237.6,256 237.6,270.4 	"/>
	<path style="fill:#102D35;" d="M126.4,68V47.2h27.2c3.2,0,5.6-2.4,5.6-5.6s-2.4-6.4-5.6-6.4h-27.2V8c0-3.2-2.4-5.6-5.6-5.6
		s-5.6,2.4-5.6,5.6v27.2H88c-4,0-6.4,3.2-6.4,6.4s2.4,5.6,5.6,5.6h27.2V68l-55.2,55.2l8,8v120l-20-20l-26.4,26.4v-94.4
		c0-5.6-4.8-10.4-10.4-10.4S0,157.6,0,163.2v107.2v11.2v164h67.2v1.6h105.6l47.2-1.6"/>
	<path style="fill:#102D35;" d="M160,184.8v-22.4c0-5.6-4.8-10.4-10.4-10.4s-10.4,4.8-10.4,10.4v22.4H160z"/>
</g>
<path style="fill:#FF9C39;" d="M154.4,184.8v-22.4c0-5.6-4.8-10.4-10.4-10.4s-10.4,4.8-10.4,10.4v22.4H154.4z"/>
<path style="fill:#102D35;" d="M160,250.4V228c0-5.6-4.8-10.4-10.4-10.4s-10.4,4.8-10.4,10.4v22.4H160z"/>
<path style="fill:#FF9C39;" d="M154.4,250.4V228c0-5.6-4.8-10.4-10.4-10.4s-10.4,4.8-10.4,10.4v22.4H154.4z"/>
<g>
	<path style="fill:#102D35;" d="M283.2,447.2v-61.6c0-16-12.8-29.6-29.6-29.6c-16,0-29.6,12.8-29.6,29.6v61.6H283.2z"/>
	<polygon style="fill:#102D35;" points="300.8,442.4 359.2,390.4 360,361.6 344,341.6 364.8,315.2 352,293.6 328,271.2 323.2,238.4 
		284,207.2 328,233.6 336,257.6 361.6,239.2 342.4,265.6 360,277.6 370.4,291.2 398.4,247.2 416,254.4 418.4,224.8 401.6,196.8 
		368,178.4 407.2,192 413.6,202.4 424,214.4 436,198.4 448,184.8 438.4,204.8 427.2,228.8 427.2,253.6 418.4,266.4 401.6,264.8 
		391.2,287.2 397.6,300.8 392,312.8 406.4,318.4 421.6,301.6 430.4,305.6 450.4,300.8 449.6,280.8 461.6,271.2 475.2,277.6 
		486.4,276.8 470.4,246.4 496,277.6 490.4,286.4 473.6,287.2 460,282.4 463.2,304.8 450.4,312.8 432,322.4 421.6,338.4 390.4,330.4 
		384.8,343.2 408,359.2 408,386.4 425.6,397.6 425.6,411.2 442.4,414.4 460,380.8 460,407.2 481.6,386.4 481.6,419.2 492,408.8 
		499.2,438.4 	"/>
</g>
<g>
	<polygon style="fill:#065177;" points="425.6,397.6 413.6,390.4 413.6,393.6 425.6,400.8 	"/>
	<polygon style="fill:#065177;" points="460,397.6 460,380.8 442.4,414.4 430.4,412.8 430.4,418.4 448,421.6 	"/>
	<polygon style="fill:#065177;" points="481.6,386.4 465.6,402.4 465.6,414.4 481.6,398.4 	"/>
	<polygon style="fill:#065177;" points="357.6,300 354.4,297.6 364.8,315.2 344,341.6 349.6,348 370.4,322.4 	"/>
	<polygon style="fill:#065177;" points="492,408.8 486.4,414.4 486.4,426.4 494.4,418.4 	"/>
	<polygon style="fill:#065177;" points="408,359.2 391.2,348 390.4,350.4 408,362.4 	"/>
	<polygon style="fill:#065177;" points="376,298.4 404,254.4 421.6,261.6 424,231.2 406.4,203.2 404.8,202.4 418.4,224.8 416,254.4 
		398.4,247.2 370.4,291.2 	"/>
	<polygon style="fill:#065177;" points="329.6,237.6 328,233.6 284,207.2 301.6,221.6 	"/>
	<polygon style="fill:#065177;" points="328,271.2 333.6,276 328.8,245.6 324,241.6 	"/>
	<polygon style="fill:#065177;" points="364,397.6 365.6,368 360,361.6 359.2,390.4 300.8,442.4 313.6,442.4 	"/>
	<polygon style="fill:#065177;" points="341.6,264 344.8,261.6 361.6,239.2 339.2,256 	"/>
	<polygon style="fill:#065177;" points="461.6,271.2 449.6,280.8 450.4,300.8 430.4,305.6 421.6,301.6 406.4,318.4 399.2,315.2 
		397.6,319.2 412,325.6 426.4,308 436,312 456,307.2 454.4,287.2 460.8,283.2 460,282.4 460.8,282.4 466.4,278.4 480.8,284 
		491.2,283.2 476,253.6 496,277.6 496,277.6 470.4,246.4 486.4,276.8 475.2,277.6 	"/>
	<polygon style="fill:#065177;" points="364.8,283.2 360,277.6 349.6,270.4 348,272 	"/>
	<polygon style="fill:#065177;" points="411.2,198.4 407.2,192 368,178.4 392.8,192 	"/>
	<polygon style="fill:#065177;" points="418.4,209.6 429.6,221.6 432,217.6 438.4,204.8 448,184.8 436,198.4 424,214.4 417.6,207.2 
			"/>
</g>
<g>
	<rect x="108.8" y="123.2" style="fill:#102D35;" width="72.8" height="8.8"/>
	<polygon style="fill:#102D35;" points="310.4,223.2 317.6,199.2 316,226.4 	"/>
	<polygon style="fill:#102D35;" points="393.6,188 400,164 399.2,190.4 	"/>
	<polygon style="fill:#102D35;" points="432,205.6 425.6,180.8 438.4,204.8 	"/>
	<polygon style="fill:#102D35;" points="481.6,264 491.2,240.8 488,266.4 	"/>
</g>
<g>
	<circle style="fill:#FCC772;" cx="229.6" cy="50.4" r="8"/>
	<circle style="fill:#FCC772;" cx="220" cy="103.2" r="8"/>
	<circle style="fill:#FCC772;" cx="261.6" cy="48" r="5.6"/>
	<circle style="fill:#FCC772;" cx="342.4" cy="75.2" r="29.6"/>
	<circle style="fill:#FCC772;" cx="156" cy="65.6" r="4"/>
	<circle style="fill:#FCC772;" cx="228" cy="174.4" r="19.2"/>
	<circle style="fill:#FCC772;" cx="269.6" cy="83.2" r="3.2"/>
	<circle style="fill:#FCC772;" cx="181.6" cy="36" r="9.6"/>
	<circle style="fill:#FCC772;" cx="51.2" cy="164.8" r="5.6"/>
	<circle style="fill:#FCC772;" cx="55.2" cy="189.6" r="0.8"/>
	<circle style="fill:#FCC772;" cx="190.4" cy="79.2" r="3.2"/>
</g>
<g>
	<path style="fill:#102D35;" d="M174.4,307.2c0,3.2-2.4,5.6-5.6,5.6h-22.4c-3.2,0-5.6-2.4-5.6-5.6l0,0c0-3.2,2.4-5.6,5.6-5.6h23.2
		C172,301.6,174.4,304,174.4,307.2L174.4,307.2z"/>
	<path style="fill:#102D35;" d="M217.6,307.2c0,3.2-2.4,5.6-5.6,5.6h-22.4c-3.2,0-5.6-2.4-5.6-5.6l0,0c0-3.2,2.4-5.6,5.6-5.6H212
		C215.2,301.6,217.6,304,217.6,307.2L217.6,307.2z"/>
	<path style="fill:#102D35;" d="M260,307.2c0,3.2-2.4,5.6-5.6,5.6H232c-3.2,0-5.6-2.4-5.6-5.6l0,0c0-3.2,2.4-5.6,5.6-5.6h22.4
		C257.6,301.6,260,304,260,307.2L260,307.2z"/>
	<path style="fill:#102D35;" d="M203.2,326.4c0,3.2-2.4,5.6-5.6,5.6h-22.4c-3.2,0-5.6-2.4-5.6-5.6l0,0c0-3.2,2.4-5.6,5.6-5.6h22.4
		C200.8,320.8,203.2,323.2,203.2,326.4L203.2,326.4z"/>
	<path style="fill:#102D35;" d="M246.4,326.4c0,3.2-2.4,5.6-5.6,5.6h-22.4c-3.2,0-5.6-2.4-5.6-5.6l0,0c0-3.2,2.4-5.6,5.6-5.6h22.4
		C244,320.8,246.4,323.2,246.4,326.4L246.4,326.4z"/>
	<path style="fill:#102D35;" d="M288.8,326.4c0,3.2-2.4,5.6-5.6,5.6h-22.4c-3.2,0-5.6-2.4-5.6-5.6l0,0c0-3.2,2.4-5.6,5.6-5.6h22.4
		C286.4,320.8,288.8,323.2,288.8,326.4L288.8,326.4z"/>
	<path style="fill:#102D35;" d="M128,347.2c0,3.2-2.4,5.6-5.6,5.6H100c-3.2,0-5.6-2.4-5.6-5.6l0,0c0-3.2,2.4-5.6,5.6-5.6h22.4
		C125.6,341.6,128,344,128,347.2L128,347.2z"/>
	<path style="fill:#102D35;" d="M170.4,347.2c0,3.2-2.4,5.6-5.6,5.6h-22.4c-3.2,0-5.6-2.4-5.6-5.6l0,0c0-3.2,2.4-5.6,5.6-5.6h22.4
		C168,341.6,170.4,344,170.4,347.2L170.4,347.2z"/>
	<path style="fill:#102D35;" d="M213.6,347.2c0,3.2-2.4,5.6-5.6,5.6h-22.4c-3.2,0-5.6-2.4-5.6-5.6l0,0c0-3.2,2.4-5.6,5.6-5.6H208
		C211.2,341.6,213.6,344,213.6,347.2L213.6,347.2z"/>
	<path style="fill:#102D35;" d="M184,368c0,3.2-2.4,5.6-5.6,5.6H156c-3.2,0-5.6-2.4-5.6-5.6l0,0c0-3.2,2.4-5.6,5.6-5.6h22.4
		C181.6,363.2,184,365.6,184,368L184,368z"/>
	<path style="fill:#102D35;" d="M269.6,368c0,3.2-2.4,5.6-5.6,5.6h-22.4c-3.2,0-5.6-2.4-5.6-5.6l0,0c0-3.2,2.4-5.6,5.6-5.6H264
		C267.2,363.2,269.6,365.6,269.6,368L269.6,368z"/>
	<circle style="fill:#102D35;" cx="429.6" cy="102.4" r="19.2"/>
	<path style="fill:#102D35;" d="M461.6,103.2c4.8-7.2,4-16.8-2.4-23.2c-3.2-3.2-7.2-4.8-11.2-5.6c-1.6-13.6-13.6-24-28-24
		c-8.8,0-16,4-21.6,10.4c-0.8,0-0.8,0-1.6,0c-14.4,0-26.4,11.2-28,25.6c-7.2,2.4-12,9.6-12,17.6l0,0c-8.8,1.6-15.2,8.8-15.2,18.4
		c0,2.4,0.8,4.8,1.6,7.2l-34.4,11.2H360h9.6h88c10.4,0,18.4-8,18.4-18.4S469.6,104.8,461.6,103.2z"/>
</g>
<g>
	<path style="fill:#065177;" d="M456.8,84c2.4,0,4.8,0.8,6.4,2.4c-0.8-2.4-2.4-4.8-4-6.4s-3.2-2.4-4.8-4
		C455.2,78.4,456,80.8,456.8,84z"/>
	<path style="fill:#065177;" d="M472,108.8c-0.8,1.6-0.8,2.4-1.6,4c1.6,0,4,0.8,5.6,1.6C474.4,112.8,473.6,110.4,472,108.8z"/>
	<path style="fill:#065177;" d="M349.6,139.2l3.2-0.8c-0.8-2.4-1.6-4.8-1.6-7.2c0-8.8,6.4-16.8,15.2-18.4l0,0c0-8,4.8-15.2,12-17.6
		c1.6-14.4,12.8-25.6,28-25.6c0.8,0,0.8,0,1.6,0c4.8-6.4,12.8-10.4,21.6-10.4c6.4,0,11.2,2.4,16,5.6c-4.8-8.8-14.4-15.2-25.6-15.2
		c-8.8,0-16,4-21.6,10.4c-0.8,0-0.8,0-1.6,0c-14.4,0-26.4,11.2-28,25.6c-7.2,2.4-12,9.6-12,17.6l0,0c-8.8,1.6-15.2,8.8-15.2,18.4
		c0,2.4,0.8,4.8,1.6,7.2L308.8,140h40.8V139.2z"/>
</g>
<g>
</g>
<g>
</g>
<g>
</g>
<g>
</g>
<g>
</g>
<g>
</g>
<g>
</g>
<g>
</g>
<g>
</g>
<g>
</g>
<g>
</g>
<g>
</g>
<g>
</g>
<g>
</g>
<g>
</g>
</svg>
