<?xml version="1.0" encoding="iso-8859-1"?>
<!-- Generator: Adobe Illustrator 19.0.0, SVG Export Plug-In . SVG Version: 6.00 Build 0)  -->
<svg version="1.1" id="Layer_1" xmlns="http://www.w3.org/2000/svg" xmlns:xlink="http://www.w3.org/1999/xlink" x="0px" y="0px"
	 viewBox="0 0 491.393 491.393" style="enable-background:new 0 0 491.393 491.393;" xml:space="preserve">
<path style="fill:#00233F;" d="M347.146,91.146c0,45.176-36.458,80.842-80.842,80.842h-39.628
	c-45.176,0-80.842-36.458-80.842-80.842l0,0c0-45.176,36.458-80.842,80.842-80.842h39.628
	C310.687,10.303,347.146,45.969,347.146,91.146L347.146,91.146z"/>
<rect x="178.328" y="210.031" style="fill:#F9BDA0;" width="134.737" height="111.752"/>
<polygon style="fill:#E28F71;" points="313.065,321.783 245.697,321.783 178.328,210.031 313.065,210.031 "/>
<path style="fill:#FCCCB9;" d="M345.56,120.471c0,79.257-49.139,150.588-99.864,150.588s-99.864-71.331-99.864-150.588
	s49.139-91.938,99.864-91.938C297.214,28.533,345.56,41.214,345.56,120.471z"/>
<path style="fill:#F9BDA0;" d="M245.697,28.533c50.724,0,99.864,13.474,99.864,91.938c0,79.257-49.139,150.588-99.864,150.588"/>
<path style="fill:#00233F;" d="M275.814,22.985c0,10.303-7.926,18.229-18.229,18.229h-23.777c-10.303,0-18.229-7.926-18.229-18.229
	l0,0c0-10.303,7.926-18.229,18.229-18.229h23.777C267.889,4.755,275.814,12.681,275.814,22.985L275.814,22.985z"/>
<polygon style="fill:#0C537A;" points="174.365,287.703 0,351.108 0,486.638 239.356,486.638 "/>
<polygon style="fill:#00233F;" points="174.365,287.703 32.495,369.337 0,486.638 239.356,486.638 "/>
<polygon style="fill:#D6D6D6;" points="175.158,276.607 133.944,294.043 163.269,371.715 239.356,486.638 239.356,322.576 "/>
<polygon style="fill:#FFFFFF;" points="175.158,276.607 244.111,322.576 163.269,365.375 "/>
<polygon style="fill:#0C537A;" points="317.028,287.703 491.393,351.108 491.393,486.638 252.83,486.638 "/>
<polygon style="fill:#00233F;" points="317.028,287.703 459.69,369.337 491.393,486.638 252.83,486.638 "/>
<polygon style="fill:#D6D6D6;" points="317.028,276.607 357.449,294.043 328.916,371.715 252.83,486.638 252.83,322.576 "/>
<polygon style="fill:#FFFFFF;" points="317.028,276.607 248.074,322.576 328.916,365.375 "/>
<polygon style="fill:#0C537A;" points="228.26,333.672 236.978,347.938 222.712,466.824 239.356,486.638 246.489,486.638 
	246.489,322.576 "/>
<polygon style="fill:#00233F;" points="263.926,333.672 254.415,347.938 269.474,466.824 252.83,486.638 245.697,486.638 
	245.697,322.576 "/>
<path style="fill:#E2997D;" d="M171.988,110.96L171.988,110.96c-4.755,15.851,0,42.006,15.851,46.762s36.458-14.266,41.214-30.118
	l0,0L171.988,110.96z"/>
<path style="fill:#BA2525;" d="M171.988,110.96L171.988,110.96c-4.755,15.851,4.755,31.703,20.607,36.458
	c15.851,4.755,31.703-4.755,36.458-20.607l0,0L171.988,110.96z"/>
<path style="fill:#E01E1E;" d="M171.988,110.96c-4.755,15.851,7.133,25.362,22.985,29.325c15.851,4.755,29.325,2.378,34.08-13.474"
	/>
<polygon style="fill:#00233F;" points="233.808,129.981 160.892,107.789 175.95,91.938 237.771,123.641 "/>
<circle style="fill:#FFFFFF;" cx="199.728" cy="129.189" r="5.548"/>
<path style="fill:#E2997D;" d="M319.406,110.96L319.406,110.96c4.755,15.851,0,42.006-15.851,46.762
	c-15.851,4.755-36.458-14.266-41.214-30.118l0,0L319.406,110.96z"/>
<path style="fill:#BA2525;" d="M319.406,110.96L319.406,110.96c4.755,15.851-4.755,31.703-20.607,36.458
	c-15.851,4.755-31.703-4.755-36.458-20.607l0,0L319.406,110.96z"/>
<path style="fill:#E01E1E;" d="M319.406,110.96c4.755,15.851-7.133,25.362-22.985,29.325c-15.851,4.755-29.325,2.378-34.081-13.474"
	/>
<polygon style="fill:#00233F;" points="257.585,129.981 330.502,107.789 316.235,91.938 253.622,123.641 "/>
<circle style="fill:#FFFFFF;" cx="291.666" cy="129.189" r="5.548"/>
<path style="fill:#E01E1E;" d="M282.947,219.542c0,21.399-16.644,22.985-37.251,22.985s-37.251-1.585-37.251-22.985
	s16.644-30.91,37.251-30.91C266.303,188.632,282.947,198.142,282.947,219.542z"/>
<path style="fill:#821212;" d="M209.238,219.542c0-21.399,16.644-30.91,37.251-30.91s37.251,9.511,37.251,30.91"/>
<polygon style="fill:#0C537A;" points="388.359,315.443 412.136,248.074 413.721,294.043 431.95,286.118 431.95,303.554 
	459.69,305.932 451.765,325.746 487.43,327.331 477.127,349.523 409.759,331.294 "/>
<g>
	<polygon style="fill:#E01E1E;" points="41.214,452.557 91.938,397.87 87.183,418.477 132.359,387.567 64.198,446.217 
		68.161,431.158 	"/>
	<polygon style="fill:#E01E1E;" points="53.102,473.957 103.827,419.269 99.071,440.669 144.248,409.759 76.087,468.409 
		80.05,453.35 	"/>
</g>
<polygon style="fill:#0C537A;" points="33.288,350.316 17.437,282.947 44.384,311.48 46.762,298.799 58.65,313.065 78.464,286.91 
	80.05,311.48 110.167,283.74 110.167,319.406 41.214,347.146 "/>
<g>
	<polygon style="fill:#FFFFFF;" points="344.768,421.647 400.248,418.477 393.115,424.817 453.35,428.78 360.619,434.328 
		366.167,426.402 320.991,429.573 324.954,424.817 	"/>
	<polygon style="fill:#FFFFFF;" points="344.768,450.972 400.248,448.594 393.115,454.142 453.35,458.105 360.619,464.446 
		366.167,456.52 320.991,458.898 324.954,454.142 	"/>
</g>
<g>
	<circle style="fill:#E01E1E;" cx="48.347" cy="63.406" r="19.814"/>
	<circle style="fill:#E01E1E;" cx="72.916" cy="154.551" r="5.548"/>
	<circle style="fill:#E01E1E;" cx="112.545" cy="217.957" r="2.378"/>
	<circle style="fill:#E01E1E;" cx="72.124" cy="237.771" r="25.362"/>
	<circle style="fill:#E01E1E;" cx="385.981" cy="179.913" r="17.437"/>
	<circle style="fill:#E01E1E;" cx="379.641" cy="228.26" r="2.378"/>
	<circle style="fill:#E01E1E;" cx="401.833" cy="95.108" r="6.341"/>
	<circle style="fill:#E01E1E;" cx="452.557" cy="156.136" r="9.511"/>
	<circle style="fill:#E01E1E;" cx="449.387" cy="216.372" r="3.963"/>
	<circle style="fill:#E01E1E;" cx="457.313" cy="73.709" r="14.266"/>
	<circle style="fill:#E01E1E;" cx="94.316" cy="99.071" r="7.926"/>
	<circle style="fill:#E01E1E;" cx="99.864" cy="49.139" r="5.548"/>
</g>
<g>
</g>
<g>
</g>
<g>
</g>
<g>
</g>
<g>
</g>
<g>
</g>
<g>
</g>
<g>
</g>
<g>
</g>
<g>
</g>
<g>
</g>
<g>
</g>
<g>
</g>
<g>
</g>
<g>
</g>
</svg>
