<?xml version="1.0" encoding="iso-8859-1"?>
<!-- Generator: Adobe Illustrator 19.0.0, SVG Export Plug-In . SVG Version: 6.00 Build 0)  -->
<svg version="1.1" id="Layer_1" xmlns="http://www.w3.org/2000/svg" xmlns:xlink="http://www.w3.org/1999/xlink" x="0px" y="0px"
	 viewBox="0 0 500.239 500.239" style="enable-background:new 0 0 500.239 500.239;" xml:space="preserve">
<ellipse style="fill:#E28F71;" cx="250.904" cy="342.789" rx="48.613" ry="48.613"/>
<g>
	<path style="fill:#00233F;" d="M143.485,149.123c0,0,11.761,73.703,0.784,98.793c0,0,25.09,38.42,56.453,36.067l31.363-36.067
		l-4.704-115.259L143.485,149.123z"/>
	<path style="fill:#00233F;" d="M356.753,149.123c0,0-11.761,73.703-0.784,98.793c0,0-25.09,38.42-56.453,36.067l-31.363-36.067
		l4.704-115.259L356.753,149.123z"/>
	<path style="fill:#00233F;" d="M352.833,97.375c0,67.43,27.443,82.328-82.328,82.328h-40.772
		c-45.476,0-82.328-36.851-82.328-82.328l0,0c0-45.476,36.851-82.328,82.328-82.328h40.772
		C315.982,15.047,352.833,51.898,352.833,97.375L352.833,97.375z"/>
</g>
<rect x="197.587" y="218.906" style="fill:#F9BDA0;" width="101.93" height="109.77"/>
<polygon style="fill:#E28F71;" points="299.516,329.46 245.415,339.653 197.587,218.906 299.516,218.906 "/>
<path style="fill:#FCCCB9;" d="M334.015,124.817c0,80.76-40.772,153.678-83.896,153.678s-83.896-72.919-83.896-153.678
	s41.556-94.089,83.896-94.089S334.015,44.058,334.015,124.817z"/>
<path style="fill:#F9BDA0;" d="M250.119,30.728c42.34,0,83.896,13.329,83.896,94.089s-40.772,153.678-83.896,153.678"/>
<polygon style="fill:#C61867;" points="192.098,319.267 44.692,371.8 0,485.491 244.631,485.491 "/>
<polygon style="fill:#750C41;" points="192.098,319.267 71.351,386.698 44.692,485.491 243.847,485.491 "/>
<polygon style="fill:#D6D6D6;" points="191.314,311.427 156.815,326.324 158.383,448.639 244.631,489.411 244.631,350.63 "/>
<polygon style="fill:#FFFFFF;" points="192.098,311.427 250.119,350.63 181.905,386.698 "/>
<polygon style="fill:#C61867;" points="308.141,319.267 455.547,371.8 500.239,485.491 254.04,485.491 "/>
<polygon style="fill:#750C41;" points="308.141,319.267 428.888,386.698 455.547,485.491 254.04,485.491 "/>
<polygon style="fill:#D6D6D6;" points="307.357,311.427 342.64,326.324 340.288,448.639 252.472,489.411 252.472,350.63 "/>
<polygon style="fill:#FFFFFF;" points="308.141,311.427 250.119,350.63 318.334,386.698 "/>
<g>
	<path style="fill:#00233F;" d="M289.323,15.047c0,0-34.499,138.781-151.326,147.406c0,0-13.329-84.68,21.17-120.747
		s95.657-30.579,95.657-30.579L289.323,15.047z"/>
	<path style="fill:#00233F;" d="M231.302,15.047c0,0,24.306,127.02,128.588,139.565c0,0,15.681-75.271-13.329-109.77
		c-29.011-34.499-84.68-32.147-84.68-32.147L231.302,15.047z"/>
</g>
<circle style="fill:#B5750F;" cx="250.119" cy="389.05" r="19.602"/>
<circle style="fill:#DD981D;" cx="250.119" cy="386.698" r="19.602"/>
<path style="fill:#CE8106;" d="M250.119,367.096c10.977,0,19.602,8.625,19.602,19.602s-8.625,19.602-19.602,19.602"/>
<circle style="fill:#EFB65B;" cx="250.119" cy="386.698" r="12.545"/>
<path style="fill:#E2A750;" d="M258.744,377.289c4.704,4.704,4.704,13.329,0,18.034c-4.704,4.704-13.329,4.704-18.034,0"/>
<circle style="fill:#B5750F;" cx="250.119" cy="449.423" r="19.602"/>
<circle style="fill:#DD981D;" cx="250.119" cy="447.071" r="19.602"/>
<path style="fill:#CE8106;" d="M250.119,427.469c10.977,0,19.602,8.625,19.602,19.602s-8.625,19.602-19.602,19.602"/>
<circle style="fill:#EFB65B;" cx="250.119" cy="447.071" r="12.545"/>
<path style="fill:#E2A750;" d="M258.744,437.662c4.704,4.704,4.704,13.329,0,18.034c-4.704,4.704-13.329,4.704-18.034,0"/>
<path style="fill:#E2997D;" d="M188.178,145.203L188.178,145.203c-3.92,10.193,0,27.443,13.329,30.579s30.579-9.409,34.499-19.602
	l0,0L188.178,145.203z"/>
<path style="fill:#BA2525;" d="M188.178,145.203L188.178,145.203c-3.92,10.193,3.92,21.17,17.25,23.522
	c13.329,3.136,26.658-3.136,30.579-13.329l0,0L188.178,145.203z"/>
<path style="fill:#E01E1E;" d="M188.178,145.203c-3.92,10.193,6.273,16.466,18.818,19.602c13.329,3.136,25.09,1.568,29.011-8.625"/>
<polygon style="fill:#00233F;" points="239.926,157.748 178.769,142.851 191.314,132.658 243.847,153.044 "/>
<path style="fill:#FFFFFF;" d="M215.62,156.964c0,1.568-2.352,3.136-4.704,3.136c-2.352,0-3.92-1.568-3.92-3.92
	c0-1.568,2.352-3.136,4.704-3.136C214.052,153.828,215.62,155.396,215.62,156.964z"/>
<path style="fill:#E2997D;" d="M312.061,145.203L312.061,145.203c3.92,10.193,0,27.443-13.329,30.579s-30.579-9.409-34.499-19.602
	l0,0L312.061,145.203z"/>
<path style="fill:#BA2525;" d="M312.061,145.203L312.061,145.203c3.92,10.193-3.92,21.17-17.25,23.522
	c-13.329,3.136-26.658-2.352-30.579-12.545l0,0L312.061,145.203z"/>
<path style="fill:#E01E1E;" d="M312.061,145.203c3.92,10.193-6.273,16.466-18.818,19.602c-13.329,3.136-25.09,1.568-29.011-8.625"/>
<polygon style="fill:#00233F;" points="260.312,157.748 321.47,142.851 308.925,132.658 256.392,153.044 "/>
<path style="fill:#FFFFFF;" d="M284.619,156.964c0,1.568,2.352,3.136,4.704,3.136c2.352,0,3.92-1.568,3.92-3.92
	c0-1.568-2.352-3.136-4.704-3.136C286.187,153.828,284.619,155.396,284.619,156.964z"/>
<path style="fill:#E01E1E;" d="M280.698,233.803c0,21.17-13.329,22.738-30.579,22.738s-30.579-1.568-30.579-22.738
	s13.329-30.579,30.579-30.579C267.369,203.224,280.698,212.633,280.698,233.803z"/>
<path style="fill:#821212;" d="M219.541,233.803c0-21.17,13.329-30.579,30.579-30.579s30.579,9.409,30.579,30.579"/>
<g>
	<circle style="fill:#E01E1E;" cx="455.547" cy="248.701" r="22.738"/>
	<circle style="fill:#E01E1E;" cx="390.469" cy="199.304" r="2.352"/>
	<circle style="fill:#E01E1E;" cx="395.957" cy="255.757" r="3.92"/>
	<circle style="fill:#E01E1E;" cx="105.85" cy="225.178" r="23.522"/>
	<circle style="fill:#E01E1E;" cx="42.34" cy="273.791" r="5.489"/>
	<circle style="fill:#E01E1E;" cx="124.668" cy="300.45" r="4.704"/>
	<circle style="fill:#E01E1E;" cx="79.191" cy="102.079" r="21.17"/>
	<circle style="fill:#E01E1E;" cx="45.476" cy="162.453" r="5.489"/>
	<circle style="fill:#E01E1E;" cx="430.456" cy="149.907" r="12.545"/>
	<circle style="fill:#E01E1E;" cx="431.24" cy="206.361" r="6.273"/>
	<circle style="fill:#E01E1E;" cx="384.98" cy="149.123" r="3.136"/>
	<circle style="fill:#E01E1E;" cx="388.116" cy="90.318" r="4.704"/>
	<polygon style="fill:#E01E1E;" points="75.271,459.616 127.02,415.708 122.315,432.958 146.622,412.572 113.691,450.992 
		108.986,441.583 98.009,451.776 	"/>
	<polygon style="fill:#E01E1E;" points="64.294,429.038 116.827,385.129 111.338,402.379 136.429,381.993 102.714,420.413 
		98.009,411.788 87.032,421.197 	"/>
</g>
<g>
	<polygon style="fill:#C61867;" points="388.9,358.471 392.821,324.756 401.446,340.437 424.968,303.586 424.968,348.278 
		462.603,318.483 436.729,354.551 464.171,344.358 439.865,378.073 	"/>
	<path style="fill:#C61867;" d="M131.724,342.005l-40.772-40.772l9.409,29.795c0,0-39.204-3.92-31.363-1.568
		c7.841,2.352,17.25,13.329,17.25,13.329l-17.25,6.273l13.329,11.761l17.25,3.92l25.874-13.329L131.724,342.005z"/>
</g>
<polygon style="fill:#E01E1E;" points="283.835,428.254 317.55,421.981 308.141,433.742 335.583,434.526 299.516,445.503 
	294.812,432.174 273.642,431.39 "/>
<g>
</g>
<g>
</g>
<g>
</g>
<g>
</g>
<g>
</g>
<g>
</g>
<g>
</g>
<g>
</g>
<g>
</g>
<g>
</g>
<g>
</g>
<g>
</g>
<g>
</g>
<g>
</g>
<g>
</g>
</svg>
