<?xml version="1.0" encoding="iso-8859-1"?>
<!-- Generator: Adobe Illustrator 19.0.0, SVG Export Plug-In . SVG Version: 6.00 Build 0)  -->
<svg version="1.1" id="Layer_1" xmlns="http://www.w3.org/2000/svg" xmlns:xlink="http://www.w3.org/1999/xlink" x="0px" y="0px"
	 viewBox="0 0 499.2 499.2" style="enable-background:new 0 0 499.2 499.2;" xml:space="preserve">
<polygon style="fill:#1A0D44;" points="211.6,489.6 137.2,104 211.6,1.6 329.2,1.6 403.6,104 329.2,489.6 "/>
<polyline style="fill:#0D062B;" points="329.2,3.2 403.6,104.8 329.2,489.6 211.6,489.6 "/>
<g>
	<polygon style="fill:#1A0D44;" points="240.4,423.2 132.4,113.6 202,17.6 310.8,17.6 380.4,113.6 310.8,472.8 	"/>
	<polygon style="fill:#1A0D44;" points="410.8,214.4 429.2,231.2 422,250.4 393.2,268.8 390,243.2 	"/>
	<polygon style="fill:#1A0D44;" points="366.8,116.8 417.2,211.2 402.8,259.2 390,255.2 321.2,174.4 	"/>
	<polygon style="fill:#1A0D44;" points="403.6,254.4 402,276.8 393.2,300 406.8,315.2 404.4,300.8 415.6,285.6 436.4,296.8 
		440.4,317.6 434.8,334.4 448.4,319.2 450,288 463.6,306.4 459.6,328 474.8,304.8 462.8,282.4 481.2,288 484.4,302.4 488.4,282.4 
		467.6,270.4 482.8,266.4 487.6,273.6 486,257.6 462,255.2 417.2,233.6 	"/>
	<polygon style="fill:#1A0D44;" points="77.2,312 62,332 72.4,348.8 103.6,362.4 102.8,336.8 	"/>
	<polygon style="fill:#1A0D44;" points="103.6,208 70,309.6 93.2,354.4 105.2,348 158.8,257.6 	"/>
	<polygon style="fill:#1A0D44;" points="91.6,350.4 96.4,372 109.2,392.8 98.8,411.2 98.8,396 84.4,383.2 66,397.6 65.2,418.4 
		74.8,433.6 58,422.4 50.8,391.2 41.2,412 48.4,432 29.2,412 37.2,388 20.4,396.8 19.6,411.2 12.4,392 30.8,376.8 14.8,375.2 
		11.6,383.2 10.8,367.2 34,360.8 74,332 	"/>
</g>
<polygon style="fill:#673BAD;" points="203.6,499.2 62.8,133.6 118,20.8 234,0 325.2,86.4 318.8,478.4 "/>
<polyline style="fill:#502F8E;" points="118,20.8 234,0 325.2,86.4 318.8,478.4 203.6,499.2 "/>
<path style="fill:#3C2575;" d="M299.6,446.4l-89.6,16c-1.6,0-4-0.8-4.8-2.4l-116-320c0-0.8,0-1.6,0-3.2l42.4-97.6
	c0.8-1.6,1.6-2.4,3.2-2.4l89.6-16c1.6,0,2.4,0,4,0.8l72.8,76.8c0.8,0.8,0.8,1.6,0.8,2.4l2.4,340.8
	C303.6,444.8,302,446.4,299.6,446.4z M212.4,454.4l82.4-14.4l-1.6-336l-69.6-74.4L138,44l-40,93.6L212.4,454.4z"/>
<polygon style="fill:#FF9C39;" points="240.4,80 210,85.6 204.4,54.4 165.2,61.6 170,92 139.6,97.6 146,137.6 177.2,132 187.6,188 
	226.8,181.6 216.4,124.8 247.6,119.2 "/>
<g>
	<polygon style="fill:#EA801F;" points="240.4,80 210,85.6 204.4,54.4 172.4,60 179.6,99.2 140.4,105.6 146,137.6 185.2,130.4 
		195.6,187.2 226.8,181.6 216.4,124.8 247.6,119.2 	"/>
	<path style="fill:#EA801F;" d="M253.2,412c0.8,2.4-1.6,5.6-4,5.6l0,0c-2.4,0.8-5.6-1.6-5.6-4l-32.8-183.2c-0.8-2.4,0.8-4.8,3.2-4.8
		l0,0c2.4-0.8,5.6,1.6,5.6,4L253.2,412z"/>
</g>
<g>
</g>
<g>
</g>
<g>
</g>
<g>
</g>
<g>
</g>
<g>
</g>
<g>
</g>
<g>
</g>
<g>
</g>
<g>
</g>
<g>
</g>
<g>
</g>
<g>
</g>
<g>
</g>
<g>
</g>
</svg>
