<?xml version="1.0" encoding="iso-8859-1"?>
<!-- Generator: Adobe Illustrator 19.0.0, SVG Export Plug-In . SVG Version: 6.00 Build 0)  -->
<svg version="1.1" id="Layer_1" xmlns="http://www.w3.org/2000/svg" xmlns:xlink="http://www.w3.org/1999/xlink" x="0px" y="0px"
	 viewBox="0 0 491.2 491.2" style="enable-background:new 0 0 491.2 491.2;" xml:space="preserve">
<polygon style="fill:#D69F32;" points="44.8,41.6 38.4,184 52,210.4 41.6,224 51.2,235.2 41.6,248.8 52.8,258.4 97.6,224.8 
	93.6,122.4 "/>
<polygon style="fill:#B55106;" points="160.8,155.2 44.8,40 57.6,138.4 76.8,151.2 64.8,169.6 68,197.6 62.4,213.6 76,223.2 
	64.8,249.6 168,171.2 "/>
<polygon style="fill:#D69F32;" points="446.4,41.6 452.8,184 439.2,210.4 449.6,224 440,235.2 449.6,248.8 438.4,258.4 393.6,224.8 
	397.6,122.4 "/>
<polygon style="fill:#B55106;" points="330.4,155.2 446.4,40 433.6,138.4 414.4,151.2 426.4,169.6 424,197.6 428.8,213.6 416,223.2 
	426.4,249.6 324,171.2 "/>
<path style="fill:#E87B18;" d="M44.8,293.6L44.8,293.6c0,52,42.4,94.4,94.4,94.4s94.4-42.4,94.4-94.4l0,0H44.8z"/>
<path style="fill:#CC6109;" d="M70.4,293.6L70.4,293.6c0,38.4,31.2,69.6,69.6,69.6s69.6-31.2,69.6-69.6l0,0H70.4z"/>
<path style="fill:#A04604;" d="M98.4,293.6L98.4,293.6c0,23.2,18.4,41.6,41.6,41.6s41.6-18.4,41.6-41.6l0,0H98.4z"/>
<path style="fill:#CC6109;" d="M491.2,450.4L491.2,450.4c0-178.4-109.6-323.2-245.6-323.2C110.4,127.2,0,272,0,450.4l0,0H491.2z"/>
<path style="fill:#B55106;" d="M0,450.4L0,450.4h490.4l0,0c0-178.4-109.6-323.2-245.6-323.2"/>
<path style="fill:#9B4607;" d="M95.2,262.4L95.2,262.4c-12.8,33.6,0,84.8,33.6,97.6s76.8-18.4,88.8-52l0,0L95.2,262.4z"/>
<path style="fill:#F2F2E7;" d="M95.2,262.4L95.2,262.4c-12.8,33.6,4.8,71.2,38.4,84c33.6,12.8,71.2-4.8,84-38.4l0,0L95.2,262.4z"/>
<path style="fill:#DDC9BA;" d="M112,268.8L112,268.8c-8.8,24.8,3.2,52,28,61.6c24.8,8.8,52-3.2,61.6-28l0,0L112,268.8z"/>
<path style="fill:#3D1C06;" d="M129.6,275.2L129.6,275.2c-5.6,14.4,2.4,31.2,16.8,36.8c14.4,5.6,31.2-2.4,36.8-16.8l0,0L129.6,275.2
	z"/>
<path style="fill:#9B4607;" d="M396,262.4L396,262.4c12.8,33.6,0,84.8-33.6,97.6s-76.8-18.4-88.8-52l0,0L396,262.4z"/>
<path style="fill:#F2F2E7;" d="M396,262.4L396,262.4c12.8,33.6-4.8,71.2-38.4,84c-33.6,12.8-71.2-4.8-84-38.4l0,0L396,262.4z"/>
<path style="fill:#DDC9BA;" d="M379.2,268.8L379.2,268.8c8.8,24.8-3.2,52-28,61.6c-24.8,8.8-52-3.2-61.6-28l0,0L379.2,268.8z"/>
<path style="fill:#3D1C06;" d="M361.6,275.2L361.6,275.2c5.6,14.4-2.4,31.2-16.8,36.8c-14.4,5.6-31.2-2.4-36.8-16.8l0,0L361.6,275.2
	z"/>
<polygon style="fill:#9B4607;" points="284.8,361.6 245.6,450.4 206.4,361.6 245.6,323.2 "/>
<polygon style="fill:#EFD259;" points="284.8,361.6 245.6,424.8 206.4,361.6 245.6,323.2 "/>
<polyline style="fill:#D69F32;" points="245.6,323.2 284.8,361.6 245.6,424.8 "/>
<rect x="144.605" y="163.629" transform="matrix(-0.7075 0.7067 -0.7067 -0.7075 387.6595 187.6126)" style="fill:#9B450A;" width="20.8" height="20.8"/>
<rect x="190.027" y="163.164" transform="matrix(-0.7075 0.7067 -0.7067 -0.7075 464.8888 154.7177)" style="fill:#D86916;" width="20.8" height="20.8"/>
<rect x="234.891" y="163.343" transform="matrix(-0.7075 0.7067 -0.7067 -0.7075 541.6215 123.3191)" style="fill:#9B450A;" width="20.8" height="20.8"/>
<rect x="279.747" y="163.523" transform="matrix(-0.7075 0.7067 -0.7067 -0.7075 618.3405 91.9261)" style="fill:#D86916;" width="20.8" height="20.8"/>
<g>
	
		<rect x="324.603" y="163.631" transform="matrix(-0.7075 0.7067 -0.7067 -0.7075 695.0086 60.4102)" style="fill:#9B450A;" width="20.8" height="20.8"/>
	
		<rect x="100.127" y="206.525" transform="matrix(-0.7075 0.7067 -0.7067 -0.7075 342.027 292.2914)" style="fill:#9B450A;" width="20.8" height="20.8"/>
</g>
<rect x="144.983" y="206.665" transform="matrix(-0.7075 0.7067 -0.7067 -0.7075 418.7178 260.8301)" style="fill:#D86916;" width="20.8" height="20.8"/>
<rect x="190.413" y="206.24" transform="matrix(-0.7075 0.7067 -0.7067 -0.7075 495.9891 227.9979)" style="fill:#9B450A;" width="20.8" height="20.8"/>
<rect x="235.269" y="206.387" transform="matrix(-0.7075 0.7067 -0.7067 -0.7075 572.6855 196.5502)" style="fill:#D86916;" width="20.8" height="20.8"/>
<rect x="280.133" y="206.527" transform="matrix(-0.7075 0.7067 -0.7067 -0.7075 649.3899 165.0833)" style="fill:#9B450A;" width="20.8" height="20.8"/>
<rect x="324.988" y="206.675" transform="matrix(-0.7075 0.7067 -0.7067 -0.7075 726.0862 133.6358)" style="fill:#D86916;" width="20.8" height="20.8"/>
<g>
	
		<rect x="370.418" y="206.25" transform="matrix(-0.7075 0.7067 -0.7067 -0.7075 803.3575 100.8035)" style="fill:#9B450A;" width="20.8" height="20.8"/>
	
		<rect x="144.795" y="249.151" transform="matrix(-0.7075 0.7067 -0.7067 -0.7075 448.422 333.508)" style="fill:#9B450A;" width="20.8" height="20.8"/>
</g>
<rect x="190.217" y="248.686" transform="matrix(-0.7075 0.7067 -0.7067 -0.7075 525.6514 300.6131)" style="fill:#D86916;" width="20.8" height="20.8"/>
<rect x="235.073" y="248.865" transform="matrix(-0.7075 0.7067 -0.7067 -0.7075 602.3704 269.2202)" style="fill:#9B450A;" width="20.8" height="20.8"/>
<rect x="279.897" y="249.045" transform="matrix(-0.7075 0.7067 -0.7067 -0.7075 679.0348 237.8498)" style="fill:#D86916;" width="20.8" height="20.8"/>
<rect x="324.793" y="249.145" transform="matrix(-0.7075 0.7067 -0.7067 -0.7075 755.7655 206.292)" style="fill:#9B450A;" width="20.8" height="20.8"/>
<path style="fill:#E8853A;" d="M28.8,325.6c-3.2,0-6.4,0-9.6,0.8c-12,38.4-19.2,80-19.2,124l0,0h137.6
	C124.8,378.4,80.8,325.6,28.8,325.6z"/>
<path style="fill:#D86313;" d="M23.2,348.8c-2.4,0-4.8,0-8,0.8C5.6,380.8,0,415.2,0,450.4l0,0h112C101.6,392,65.6,348.8,23.2,348.8z
	"/>
<path style="fill:#E0AB05;" d="M15.2,384.8c-1.6,0-3.2,0-4.8,0C4,405.6,0,427.2,0,450.4l0,0h72.8C65.6,412.8,43.2,384.8,15.2,384.8z
	"/>
<path style="fill:#E8853A;" d="M462.4,325.6c3.2,0,6.4,0,9.6,0.8c12,38.4,19.2,80.8,19.2,124.8l0,0H353.6
	C366.4,378.4,410.4,325.6,462.4,325.6z"/>
<path style="fill:#D86313;" d="M468,348.8c2.4,0,4.8,0,8,0.8c9.6,31.2,15.2,65.6,15.2,100.8l0,0h-112
	C389.6,392,425.6,348.8,468,348.8z"/>
<path style="fill:#E0AB05;" d="M476,384.8c1.6,0,3.2,0,4.8,0c6.4,20,9.6,42.4,9.6,65.6l0,0h-72.8C425.6,412.8,448,384.8,476,384.8z"
	/>
<g>
</g>
<g>
</g>
<g>
</g>
<g>
</g>
<g>
</g>
<g>
</g>
<g>
</g>
<g>
</g>
<g>
</g>
<g>
</g>
<g>
</g>
<g>
</g>
<g>
</g>
<g>
</g>
<g>
</g>
</svg>
