<?xml version="1.0" encoding="iso-8859-1"?>
<!-- Generator: Adobe Illustrator 19.0.0, SVG Export Plug-In . SVG Version: 6.00 Build 0)  -->
<svg version="1.1" id="Layer_1" xmlns="http://www.w3.org/2000/svg" xmlns:xlink="http://www.w3.org/1999/xlink" x="0px" y="0px"
	 viewBox="0 0 491.898 491.898" style="enable-background:new 0 0 491.898 491.898;" xml:space="preserve">
<path style="fill:#8461C9;" d="M195.549,258.498c3.2,10.4-2.4,21.6-12.8,24.8l0,0c-10.4,3.2-21.6-2.4-24.8-12.8l-77.6-244
	c-3.2-10.4,2.4-21.6,12.8-24.8l0,0c10.4-3.2,21.6,2.4,24.8,12.8L195.549,258.498z"/>
<path style="fill:#673BAD;" d="M93.149,0.898L93.149,0.898c10.4-3.2,21.6,2.4,24.8,12.8l76.8,244c3.2,10.4-2.4,21.6-12.8,24.8l0,0
	c-10.4,3.2-21.6-2.4-24.8-12.8"/>
<path style="fill:#3CD3A4;" d="M437.149,135.298c-6.4,0-12.8,2.4-18.4,5.6c-9.6-15.2-27.2-25.6-47.2-25.6c0,0,0,0-0.8,0
	c-8-9.6-20.8-16-34.4-16c-11.2,0-22.4,4-30.4,11.2c-8-7.2-18.4-11.2-30.4-11.2c-20.8,0-38.4,14.4-43.2,33.6
	c-6.4-2.4-12.8-3.2-19.2-3.2c-22.4,0-41.6,12.8-50.4,32c-4.8-1.6-10.4-2.4-15.2-2.4c-6.4,0-12.8,1.6-19.2,3.2
	c-8.8-20-28-33.6-51.2-33.6c-31.2,0-56,24.8-56,56s24.8,56,56,56c6.4,0,12.8-1.6,19.2-3.2c8.8,20,28,33.6,51.2,33.6
	c22.4,0,41.6-12.8,50.4-32c4.8,1.6,10.4,2.4,15.2,2.4c21.6,0,40.8-12.8,49.6-30.4c8,6.4,17.6,10.4,28.8,10.4
	c13.6,0,26.4-6.4,34.4-16c10.4,13.6,26.4,22.4,44.8,22.4c21.6,0,40-12,49.6-29.6c4.8,2.4,9.6,4,15.2,4c18.4,0,32.8-14.4,32.8-32.8
	S455.549,135.298,437.149,135.298z"/>
<path style="fill:#20B79A;" d="M437.149,148.898c-6.4,0-12.8,2.4-18.4,5.6c-9.6-15.2-27.2-25.6-47.2-25.6c0,0,0,0-0.8,0
	c-8-9.6-20.8-16-34.4-16c-11.2,0-22.4,4-30.4,11.2c-8-7.2-18.4-11.2-30.4-11.2c-20.8,0-38.4,14.4-43.2,33.6
	c-6.4-2.4-12.8-3.2-19.2-3.2c-22.4,0-41.6,12.8-50.4,32c-4.8-1.6-10.4-2.4-15.2-2.4c-6.4,0-12.8,1.6-19.2,3.2
	c-8.8-20-28-33.6-51.2-33.6c-31.2,0-56,24.8-56,56s24.8,56,56,56c6.4,0,12.8-1.6,19.2-3.2c8.8,20,28,33.6,51.2,33.6
	c22.4,0,41.6-12.8,50.4-32c4.8,1.6,10.4,2.4,15.2,2.4c21.6,0,40.8-12.8,49.6-30.4c8,6.4,17.6,10.4,28.8,10.4
	c13.6,0,26.4-6.4,34.4-16c10.4,13.6,26.4,22.4,44.8,22.4c21.6,0,40-12,49.6-29.6c4.8,2.4,9.6,4,15.2,4c18.4,0,32.8-14.4,32.8-32.8
	S455.549,148.898,437.149,148.898z"/>
<g>
	<circle style="fill:#3CD3A4;" cx="361.149" cy="66.498" r="24.8"/>
	<circle style="fill:#3CD3A4;" cx="254.749" cy="57.698" r="16"/>
</g>
<g>
	<path style="fill:#5B0202;" d="M144.349,439.298c7.2,7.2,7.2,19.2,0,27.2l-20,20c-7.2,7.2-19.2,7.2-27.2,0l0,0
		c-7.2-7.2-7.2-19.2,0-27.2l20-20C125.149,431.298,137.149,431.298,144.349,439.298L144.349,439.298z"/>
	<path style="fill:#5B0202;" d="M347.549,439.298c-7.2,7.2-7.2,19.2,0,27.2l20,20c7.2,7.2,19.2,7.2,27.2,0l0,0
		c7.2-7.2,7.2-19.2,0-27.2l-20-20C366.749,431.298,354.749,431.298,347.549,439.298L347.549,439.298z"/>
</g>
<path style="fill:#960E08;" d="M19.549,194.498c-7.2,21.6-11.2,43.2-11.2,66.4c0,123.2,106.4,222.4,237.6,222.4
	s237.6-100,237.6-222.4c0-23.2-4-45.6-10.4-66.4L19.549,194.498L19.549,194.498z"/>
<path style="fill:#720404;" d="M245.949,483.298c131.2,0,237.6-100,237.6-222.4c0-23.2-4-45.6-10.4-66.4h-453.6"/>
<path style="fill:#5B0202;" d="M483.549,260.898c0-23.2-4-45.6-10.4-66.4h-453.6"/>
<path style="fill:#960E08;" d="M490.749,205.698c0,10.4-8.8,19.2-19.2,19.2h-451.2c-10.4,0-19.2-8.8-19.2-19.2l0,0
	c0-10.4,8.8-19.2,19.2-19.2h452C482.749,186.498,490.749,195.298,490.749,205.698L490.749,205.698z"/>
<path style="fill:#720404;" d="M490.749,205.698L490.749,205.698c0,10.4-8.8,19.2-19.2,19.2h-451.2c-10.4,0-19.2-8.8-19.2-19.2l0,0"
	/>
<g>
	<circle style="fill:#20B79A;" cx="284.349" cy="188.098" r="27.2"/>
	<circle style="fill:#20B79A;" cx="249.949" cy="176.898" r="27.2"/>
	<circle style="fill:#20B79A;" cx="196.349" cy="194.498" r="33.6"/>
	<circle style="fill:#20B79A;" cx="249.949" cy="264.898" r="18.4"/>
	<circle style="fill:#20B79A;" cx="295.549" cy="256.098" r="10.4"/>
</g>
<g>
	<path style="fill:#E9EADF;" d="M289.149,339.298c0-24-19.2-43.2-43.2-43.2s-43.2,19.2-43.2,43.2c0,14.4,7.2,28,18.4,35.2v7.2
		c0,8,6.4,14.4,14.4,14.4h20.8c8,0,14.4-6.4,14.4-14.4v-7.2C281.149,367.298,289.149,353.698,289.149,339.298z"/>
	<circle style="fill:#E9EADF;" cx="173.149" cy="288.098" r="7.2"/>
	<circle style="fill:#E9EADF;" cx="181.949" cy="279.298" r="7.2"/>
	<path style="fill:#E9EADF;" d="M203.549,298.498c3.2,3.2,3.2,8,0,11.2l0,0c-3.2,3.2-8,3.2-11.2,0l-14.4-14.4c-3.2-3.2-3.2-8,0-11.2
		l0,0c3.2-3.2,8-3.2,11.2,0L203.549,298.498z"/>
	<circle style="fill:#E9EADF;" cx="318.749" cy="288.098" r="7.2"/>
	<circle style="fill:#E9EADF;" cx="309.949" cy="279.298" r="7.2"/>
	<path style="fill:#E9EADF;" d="M288.349,298.498c-3.2,3.2-3.2,8,0,11.2l0,0c3.2,3.2,8,3.2,11.2,0l14.4-14.4c3.2-3.2,3.2-8,0-11.2
		l0,0c-3.2-3.2-8-3.2-11.2,0L288.349,298.498z"/>
	<circle style="fill:#E9EADF;" cx="318.749" cy="390.498" r="7.2"/>
	<circle style="fill:#E9EADF;" cx="309.949" cy="399.298" r="7.2"/>
	<path style="fill:#E9EADF;" d="M288.349,380.098c-3.2-3.2-3.2-8,0-11.2l0,0c3.2-3.2,8-3.2,11.2,0l14.4,14.4c3.2,3.2,3.2,8,0,11.2
		l0,0c-3.2,3.2-8,3.2-11.2,0L288.349,380.098z"/>
	<circle style="fill:#E9EADF;" cx="172.349" cy="390.498" r="7.2"/>
	<path style="fill:#E9EADF;" d="M186.749,404.898c3.2-3.2,3.2-7.2,0-10.4c-3.2-3.2-7.2-3.2-10.4,0s-3.2,7.2,0,10.4
		C179.549,407.298,184.349,407.298,186.749,404.898z"/>
	<path style="fill:#E9EADF;" d="M203.549,380.098c3.2-3.2,3.2-8,0-11.2l0,0c-3.2-3.2-8-3.2-11.2,0l-14.4,14.4c-3.2,3.2-3.2,8,0,11.2
		l0,0c3.2,3.2,8,3.2,11.2,0L203.549,380.098z"/>
</g>
<g>
	<circle style="fill:#720404;" cx="226.749" cy="349.698" r="9.6"/>
	<circle style="fill:#720404;" cx="265.149" cy="349.698" r="9.6"/>
</g>
<g>
</g>
<g>
</g>
<g>
</g>
<g>
</g>
<g>
</g>
<g>
</g>
<g>
</g>
<g>
</g>
<g>
</g>
<g>
</g>
<g>
</g>
<g>
</g>
<g>
</g>
<g>
</g>
<g>
</g>
</svg>
