<?xml version="1.0" encoding="iso-8859-1"?>
<!-- Generator: Adobe Illustrator 19.0.0, SVG Export Plug-In . SVG Version: 6.00 Build 0)  -->
<svg version="1.1" id="Layer_1" xmlns="http://www.w3.org/2000/svg" xmlns:xlink="http://www.w3.org/1999/xlink" x="0px" y="0px"
	 viewBox="0 0 498.4 498.4" style="enable-background:new 0 0 498.4 498.4;" xml:space="preserve">
<polygon style="fill:#0F913D;" points="258,40 240.4,40 232.4,0 266,0 "/>
<ellipse style="fill:#3AAF19;" cx="249.2" cy="133.6" rx="119.2" ry="98.4"/>
<path style="fill:#0F913D;" d="M249.2,34.4c65.6,0,119.2,44,119.2,98.4c0,55.2-53.6,99.2-119.2,99.2"/>
<path style="fill:#E87B18;" d="M406,123.2c-0.8,0-2.4,0-3.2,0c-20.8-28-45.6-44.8-69.6-44.8c-9.6,0-19.2,3.2-27.2,8.8
	c-16.8-15.2-36.8-24-56.8-24c-20.8,0-40,8.8-56.8,24c-8-5.6-17.6-8.8-27.2-8.8c-24,0-48.8,16.8-69.6,44.8c-0.8,0-1.6,0-3.2,0
	C49.2,123.2,2,193.6,2,280.8s48,157.6,90.4,157.6c0.8,0,1.6,0,3.2,0c20.8,28,45.6,44.8,69.6,44.8c10.4,0,19.2-3.2,27.2-8.8
	c16.8,15.2,36.8,24,56.8,24c20.8,0,40-8.8,56.8-24c8,5.6,17.6,8.8,27.2,8.8c24,0,48.8-16.8,69.6-44.8c0.8,0,1.6,0,3.2,0
	c43.2,0,90.4-70.4,90.4-157.6S448.4,123.2,406,123.2z"/>
<path style="fill:#D1640B;" d="M406,397.6c-0.8,0-2.4,0-3.2,0c-20.8,28-45.6,44.8-69.6,44.8c-9.6,0-19.2-3.2-27.2-8.8
	c-16.8,15.2-36.8,24-56.8,24c-20.8,0-40-8.8-56.8-24c-8,5.6-17.6,8.8-27.2,8.8c-24,0-48.8-16.8-69.6-44.8c-0.8,0-1.6,0-3.2,0
	c-39.2,0-83.2-60-89.6-136.8C2,267.2,2,274.4,2,280.8C2,368,50,438.4,92.4,438.4c0.8,0,1.6,0,3.2,0c20.8,28,45.6,44.8,69.6,44.8
	c10.4,0,19.2-3.2,27.2-8.8c16.8,15.2,36.8,24,56.8,24c20.8,0,40-8.8,56.8-24c8,5.6,17.6,8.8,27.2,8.8c24,0,48.8-16.8,69.6-44.8
	c0.8,0,1.6,0,3.2,0c43.2,0,90.4-70.4,90.4-157.6c0-7.2,0-13.6-0.8-20C489.2,337.6,445.2,397.6,406,397.6z"/>
<polygon style="fill:#FF9C39;" points="97.2,248 147.6,144.8 197.2,248 "/>
<polygon style="fill:#B74E06;" points="97.2,248 147.6,161.6 197.2,248 "/>
<polygon style="fill:#490101;" points="118,240 147.6,189.6 177.2,240 "/>
<polygon style="fill:#960E08;" points="146.8,240 147.6,189.6 177.2,240 "/>
<polygon style="fill:#FF9C39;" points="300.4,248 350.8,144.8 401.2,248 "/>
<polygon style="fill:#B74E06;" points="300.4,248 350.8,161.6 401.2,248 "/>
<polygon style="fill:#490101;" points="321.2,240 350.8,189.6 380.4,240 "/>
<polygon style="fill:#960E08;" points="350,240 350.8,189.6 380.4,240 "/>
<polygon style="fill:#FF9C39;" points="394.8,301.6 348.4,308.8 328.4,324 308.4,308.8 288.4,324 269.2,308.8 249.2,324 
	229.2,308.8 210,324 190,308.8 170,324 150,308.8 103.6,301.6 150,397.6 170,382.4 190,397.6 210,382.4 229.2,397.6 249.2,382.4 
	269.2,397.6 288.4,382.4 308.4,397.6 328.4,382.4 348.4,397.6 "/>
<polygon style="fill:#960E08;" points="394.8,301.6 348.4,316.8 328.4,332 308.4,316.8 288.4,332 269.2,316.8 249.2,332 
	229.2,316.8 210,332 190,316.8 170,332 150,316.8 103.6,301.6 150,389.6 170,373.6 190,389.6 210,373.6 229.2,389.6 249.2,373.6 
	269.2,389.6 288.4,373.6 308.4,389.6 328.4,373.6 348.4,389.6 "/>
<polygon style="fill:#490101;" points="150,344.8 170,360.8 190,344.8 210,360.8 229.2,344.8 249.2,360.8 269.2,344.8 288.4,360.8 
	308.4,344.8 328.4,360.8 348.4,344.8 376.4,336 394.8,301.6 348.4,316.8 328.4,332 308.4,316.8 288.4,332 269.2,316.8 249.2,332 
	229.2,316.8 210,332 190,316.8 170,332 150,316.8 103.6,301.6 122,336 "/>
<g>
	<path style="fill:#FF9C39;" d="M283.6,88c0,6.4-15.2,12-34.4,12s-34.4-5.6-34.4-12s15.2-14.4,34.4-14.4S283.6,81.6,283.6,88z"/>
	<path style="fill:#FF9C39;" d="M170,89.6c2.4,4-8.8,16-24.8,25.6s-31.2,14.4-33.6,9.6c-2.4-4,8-16.8,24-26.4S167.6,85.6,170,89.6z"
		/>
	<path style="fill:#FF9C39;" d="M92.4,133.6c3.2,4-4.8,16.8-19.2,29.6c-13.6,12.8-28,20-31.2,16.8c-3.2-4,4-18.4,17.6-31.2
		C74,136.8,89.2,130.4,92.4,133.6z"/>
	<path style="fill:#FF9C39;" d="M406,133.6c-3.2,4,4.8,16.8,19.2,29.6c13.6,12.8,28,20,31.2,16.8c3.2-4-4-18.4-17.6-31.2
		C424.4,136.8,409.2,130.4,406,133.6z"/>
	<path style="fill:#FF9C39;" d="M326.8,89.6c-2.4,4,8.8,16,24.8,25.6s31.2,14.4,33.6,9.6s-8-16.8-24-26.4
		C346,88.8,330,85.6,326.8,89.6z"/>
	<path style="fill:#FF9C39;" d="M214.8,257.6c0,4-32,5.6-71.2,2.4c-39.2-2.4-70.4-8-70.4-12.8c0-4,32-5.6,71.2-2.4
		C183.6,248,214.8,253.6,214.8,257.6z"/>
	<path style="fill:#FF9C39;" d="M283.6,257.6c0,4,32,5.6,71.2,2.4c39.2-2.4,70.4-8,70.4-12.8c0-4-32-5.6-71.2-2.4
		C314.8,248,283.6,253.6,283.6,257.6z"/>
	<path style="fill:#FF9C39;" d="M255.6,131.2c0,3.2-2.4,6.4-6.4,6.4l0,0c-3.2,0-6.4-2.4-6.4-6.4l0,0c0-3.2,2.4-6.4,6.4-6.4l0,0
		C252.4,125.6,255.6,128,255.6,131.2L255.6,131.2z"/>
	<path style="fill:#FF9C39;" d="M255.6,172c0,3.2-2.4,6.4-6.4,6.4l0,0c-3.2,0-6.4-2.4-6.4-6.4l0,0c0-3.2,2.4-6.4,6.4-6.4l0,0
		C252.4,165.6,255.6,168.8,255.6,172L255.6,172z"/>
	<path style="fill:#FF9C39;" d="M255.6,212.8c0,3.2-2.4,6.4-6.4,6.4l0,0c-3.2,0-6.4-2.4-6.4-6.4l0,0c0-3.2,2.4-6.4,6.4-6.4l0,0
		C252.4,206.4,255.6,209.6,255.6,212.8L255.6,212.8z"/>
	<path style="fill:#FF9C39;" d="M255.6,252.8c0,3.2-2.4,6.4-6.4,6.4l0,0c-3.2,0-6.4-2.4-6.4-6.4l0,0c0-3.2,2.4-6.4,6.4-6.4l0,0
		C252.4,247.2,255.6,249.6,255.6,252.8L255.6,252.8z"/>
	<ellipse style="fill:#FF9C39;" cx="53.2" cy="268.8" rx="9.6" ry="5.6"/>
	<ellipse style="fill:#FF9C39;" cx="70.8" cy="286.4" rx="7.2" ry="4"/>
	<ellipse style="fill:#FF9C39;" cx="426" cy="276" rx="7.2" ry="4"/>
	<ellipse style="fill:#FF9C39;" cx="463.6" cy="263.2" rx="7.2" ry="4"/>
	<ellipse style="fill:#FF9C39;" cx="47.6" cy="303.2" rx="9.6" ry="5.6"/>
	<ellipse style="fill:#FF9C39;" cx="446.8" cy="296" rx="8" ry="4.8"/>
</g>
<g>
	<circle style="fill:#E87B18;" cx="57.2" cy="65.6" r="22.4"/>
	<polygon style="fill:#E87B18;" points="82.8,32 94,12.8 104.4,32 	"/>
	<rect x="104.4" y="62.4" style="fill:#E87B18;" width="16" height="16"/>
</g>
<g>
</g>
<g>
</g>
<g>
</g>
<g>
</g>
<g>
</g>
<g>
</g>
<g>
</g>
<g>
</g>
<g>
</g>
<g>
</g>
<g>
</g>
<g>
</g>
<g>
</g>
<g>
</g>
<g>
</g>
</svg>
