<?xml version="1.0" encoding="iso-8859-1"?>
<!-- Generator: Adobe Illustrator 19.0.0, SVG Export Plug-In . SVG Version: 6.00 Build 0)  -->
<svg version="1.1" id="Layer_1" xmlns="http://www.w3.org/2000/svg" xmlns:xlink="http://www.w3.org/1999/xlink" x="0px" y="0px"
	 viewBox="0 0 496.8 496.8" style="enable-background:new 0 0 496.8 496.8;" xml:space="preserve">
<path style="fill:#065177;" d="M382.8,312c5.6-24.8,8.8-52.8,8.8-80.8c0-128-64-231.2-143.2-231.2S105.2,104,105.2,231.2
	c0,28.8,3.2,56,8.8,80.8c-42.4,24-68.8,59.2-68.8,97.6c0,72,91.2,86.4,203.2,86.4s203.2-14.4,203.2-86.4
	C451.6,370.4,425.2,336,382.8,312z"/>
<path style="fill:#102D35;" d="M248.4,496.8c112,0,203.2-14.4,203.2-86.4c0-39.2-26.4-74.4-68.8-97.6c5.6-24.8,8.8-52.8,8.8-80.8
	c0-128-64-231.2-143.2-231.2"/>
<path style="fill:#FFFFFF;" d="M358,175.2c0-88.8-49.6-116-109.6-116s-109.6,28-109.6,116c0,64,25.6,119.2,63.2,144.8
	c8.8,58.4,26.4,112.8,46.4,112.8S286,378.4,294.8,320C332.4,295.2,358,240,358,175.2z"/>
<path style="fill:#D3EDEB;" d="M248.4,433.6c20,0,37.6-54.4,46.4-112.8C332.4,295.2,358,240,358,176c0-88.8-49.6-116-109.6-116"/>
<path style="fill:#B8D1D1;" d="M272.4,304c0,51.2-10.4,107.2-24,107.2c-12.8,0-24-55.2-24-107.2s10.4-42.4,24-42.4
	C261.2,261.6,272.4,252,272.4,304z"/>
<path style="fill:#065177;" d="M272.4,296c0,51.2-10.4,93.6-24,93.6c-12.8,0-24-41.6-24-93.6s10.4-42.4,24-42.4
	C261.2,252.8,272.4,244,272.4,296z"/>
<g>
	<path style="fill:#102D35;" d="M248.4,252.8c12.8,0,24-8.8,24,42.4s-10.4,93.6-24,93.6"/>
	<path style="fill:#102D35;" d="M226,126.4c11.2,11.2,4.8,35.2-13.6,53.6c-18.4,18.4-42.4,24-53.6,12.8c-11.2-11.2,13.6-16,32-34.4
		C209.2,139.2,214.8,115.2,226,126.4z"/>
</g>
<path style="fill:#065177;" d="M158.8,192c-11.2-11.2,13.6-16,32-34.4s24-42.4,35.2-31.2"/>
<path style="fill:#102D35;" d="M270.8,126.4c-11.2,11.2-4.8,35.2,13.6,53.6s42.4,24,53.6,12.8s-13.6-16-32-34.4
	C287.6,139.2,282,115.2,270.8,126.4z"/>
<path style="fill:#065177;" d="M338,192c11.2-11.2-13.6-16-32-34.4s-24-42.4-35.2-31.2"/>
<g>
	<path style="fill:#B8D1D1;" d="M148.4,240.8c10.4,35.2,29.6,63.2,53.6,80c-0.8-13.6-6.4-28.8-15.2-43.2
		C175.6,260,162,247.2,148.4,240.8z"/>
	<path style="fill:#B8D1D1;" d="M295.6,320.8c24-16,42.4-44.8,53.6-80c-13.6,6.4-28,19.2-38.4,36.8
		C301.2,292,296.4,307.2,295.6,320.8z"/>
	<path style="fill:#B8D1D1;" d="M257.2,212c-3.2,0-6.4-1.6-8-4.8c0,0-0.8-0.8-0.8,0h-0.8c-0.8,3.2-4,4.8-8,4.8c-4.8,0-8-3.2-8-7.2
		c0-1.6,0.8-2.4,1.6-4l0,0l0,0l15.2-25.6l16.8,25.6l0,0l0,0c0,1.6,0,1.6,0,3.2C265.2,208,261.2,212,257.2,212z"/>
</g>
<path style="fill:#102D35;" d="M257.2,213.6c-3.2,0-6.4-1.6-8-4.8c0,0-0.8-0.8-0.8,0h-0.8c-0.8,3.2-4,4.8-8,4.8c-4.8,0-8-3.2-8-7.2
	c0-1.6,0.8-2.4,1.6-4l0,0l0,0l15.2-17.6l16,16.8l0,0l0,0c0.8,1.6,0.8,3.2,0.8,4.8C265.2,210.4,261.2,213.6,257.2,213.6z"/>
<path style="fill:#065177;" d="M248.4,208C248.4,208,247.6,208.8,248.4,208c-1.6,3.2-4.8,5.6-8.8,5.6c-4.8,0-8-3.2-8-7.2
	c0-1.6,0.8-2.4,1.6-4l0,0l0,0l15.2-17.6"/>
<g>
</g>
<g>
</g>
<g>
</g>
<g>
</g>
<g>
</g>
<g>
</g>
<g>
</g>
<g>
</g>
<g>
</g>
<g>
</g>
<g>
</g>
<g>
</g>
<g>
</g>
<g>
</g>
<g>
</g>
</svg>
