<?xml version="1.0" encoding="iso-8859-1"?>
<!-- Generator: Adobe Illustrator 19.0.0, SVG Export Plug-In . SVG Version: 6.00 Build 0)  -->
<svg version="1.1" id="Layer_1" xmlns="http://www.w3.org/2000/svg" xmlns:xlink="http://www.w3.org/1999/xlink" x="0px" y="0px"
	 viewBox="0 0 499.2 499.2" style="enable-background:new 0 0 499.2 499.2;" xml:space="preserve">
<circle style="fill:#DD4343;" cx="249.6" cy="251.2" r="248"/>
<path style="fill:#617F79;" d="M140.8,363.2l-24,92.8c0,39.2,31.2,43.2,70.4,43.2H312c39.2,0,70.4-4.8,70.4-43.2l-24-92.8H140.8z"/>
<path style="fill:#FFFFFF;" d="M465.6,215.2C465.6,96,368.8,0,249.6,0S32,96,32,215.2c0,77.6,44,144.8,100,183.2v66.4
	c0,13.6,16.8,27.2,32.8,27.2h169.6c16,0,29.6-13.6,29.6-27.2v-66.4C428,360,465.6,292,465.6,215.2z"/>
<path style="fill:#E2F2EF;" d="M465.6,215.2c0-119.2-96.8-197.6-216-197.6S32,96,32,215.2c0,77.6,44,144.8,100,183.2v66.4
	c0,13.6,16.8,27.2,32.8,27.2h169.6c16,0,29.6-13.6,29.6-27.2v-66.4C428,360,465.6,292,465.6,215.2z"/>
<path style="fill:#C7E2DD;" d="M248.8,488.8h85.6c16,0,29.6-11.2,29.6-24.8v-66.4c64-38.4,101.6-105.6,101.6-183.2
	c0-119.2-96.8-198.4-216-198.4"/>
<g>
	<path style="fill:#617F79;" d="M204,475.2v-89.6c0-4.8-3.2-8-8-8c-4.8,0-8,3.2-8,8v89.6H204z"/>
	<path style="fill:#617F79;" d="M260,475.2v-89.6c0-4.8-3.2-8-8-8s-8,3.2-8,8v89.6H260z"/>
	<path style="fill:#617F79;" d="M316,475.2v-89.6c0-4.8-3.2-8-8-8s-8,3.2-8,8v89.6H316z"/>
</g>
<path style="fill:#9CBCB6;" d="M192.8,229.6c0,32.8-26.4,84-60,84c-32.8,0-60-50.4-60-84s26.4-68,60-68
	C166.4,162.4,192.8,196.8,192.8,229.6z"/>
<path style="fill:#7FA39C;" d="M425.6,229.6c0,32.8-26.4,84-60,84c-32.8,0-60-50.4-60-84s26.4-68,60-68
	C399.2,162.4,425.6,196.8,425.6,229.6z"/>
<circle style="fill:#660303;" cx="133.6" cy="240" r="60"/>
<path style="fill:#960E08;" d="M175.2,197.6c23.2,23.2,23.2,60.8,0,84.8c-23.2,24-60.8,23.2-84.8,0"/>
<circle style="fill:#660303;" cx="365.6" cy="240" r="60"/>
<path style="fill:#960E08;" d="M408,197.6c23.2,23.2,23.2,60.8,0,84.8c-23.2,23.2-60.8,23.2-84.8,0"/>
<path style="fill:#8FA8A3;" d="M84,312c-8.8,0-18.4,2.4-25.6,6.4c17.6,32,49.6,59.2,73.6,79.2v-35.2C132,334.4,111.2,312,84,312z"/>
<path style="fill:#617F79;" d="M132,395.2v-32.8c0-28-22.4-51.2-49.6-51.2"/>
<path style="fill:#8FA8A3;" d="M438.4,318.4c-7.2-4-16-6.4-24.8-6.4c-28,0-49.6,22.4-49.6,49.6v35.2
	C396,378.4,420.8,351.2,438.4,318.4z"/>
<path style="fill:#617F79;" d="M413.6,311.2c-28,0-49.6,24-49.6,51.2v32.8"/>
<path style="fill:#E2F2EF;" d="M64,307.2c0,8.8-7.2,16-16,16l0,0c-8.8,0-16-7.2-16-16v-89.6c0-8.8,7.2-16,16-16l0,0
	c8.8,0,16,7.2,16,16V307.2z"/>
<path style="fill:#C7E2DD;" d="M465.6,306.4c0,8.8-7.2,16-16,16l0,0c-8.8,0-16-7.2-16-16v-89.6c0-8.8,7.2-16,16-16l0,0
	c8.8,0,16,7.2,16,16V306.4z"/>
<path style="fill:#9CBCB6;" d="M270.4,327.2c-8.8,0-16-4.8-18.4-12c0-0.8-0.8-0.8-1.6-0.8c-0.8,0-1.6,0-1.6,0.8
	c-2.4,7.2-10.4,12-18.4,12c-11.2,0-20-8-20-17.6c0-3.2,0.8-7.2,3.2-9.6l0,0l0,0l36.8-63.2l36.8,63.2l0,0l0,0
	c2.4,3.2,3.2,6.4,3.2,9.6C289.6,319.2,280.8,327.2,270.4,327.2z"/>
<path style="fill:#960E08;" d="M270.4,330.4c-8.8,0-16-4.8-18.4-12c0-0.8-0.8-0.8-1.6-0.8c-0.8,0-1.6,0-1.6,0.8
	c-2.4,7.2-10.4,12-18.4,12c-11.2,0-20-8-20-17.6c0-3.2,0.8-7.2,3.2-9.6l0,0l0,0l36.8-43.2l36.8,43.2l0,0l0,0
	c2.4,3.2,3.2,6.4,3.2,9.6C289.6,322.4,280.8,330.4,270.4,330.4z"/>
<path style="fill:#660303;" d="M249.6,317.6c-0.8,0-1.6,0-1.6,0.8c-2.4,7.2-10.4,12-18.4,12c-11.2,0-20-8-20-17.6
	c0-3.2,0.8-7.2,3.2-9.6l0,0l0,0l36.8-43.2"/>
<path style="fill:#9CBCB6;" d="M252,247.2c0,2.4-1.6,4-4,4l0,0c-2.4,0-4-1.6-4-4v-56c0-2.4,1.6-4,4-4l0,0c2.4,0,4,1.6,4,4V247.2z"/>
<g>
	<path style="fill:#FFFFFF;" d="M52,294.4c0,2.4-0.8,4.8-4,4.8l0,0c-3.2,0-4-2.4-4-4.8v-64.8c0-3.2,0.8-5.6,4-5.6l0,0
		c3.2,0,4,2.4,4,5.6V294.4z"/>
	<circle style="fill:#FFFFFF;" cx="47.2" cy="207.2" r="6.4"/>
</g>
<circle style="fill:#9CBCB6;" cx="249.6" cy="61.6" r="9.6"/>
<path style="fill:#E2F2EF;" d="M249.6,52c4.8,0,9.6,4,9.6,9.6c0,4.8-4,9.6-9.6,9.6"/>
<circle style="fill:#9CBCB6;" cx="249.6" cy="105.6" r="9.6"/>
<path style="fill:#E2F2EF;" d="M249.6,96.8c4.8,0,9.6,4,9.6,9.6c0,4.8-4,9.6-9.6,9.6"/>
<circle style="fill:#9CBCB6;" cx="249.6" cy="150.4" r="9.6"/>
<path style="fill:#E2F2EF;" d="M249.6,140.8c4.8,0,9.6,4,9.6,9.6c0,4.8-4,9.6-9.6,9.6"/>
<path style="fill:#8FA8A3;" d="M204,491.2v-96c0-4.8-3.2-8-8-8c-4.8,0-8,3.2-8,8v96H204z"/>
<path style="fill:#76938D;" d="M204,491.2v-96c0-4.8-4.8-8-9.6-8c-4.8,0-7.2,4.8-7.2,9.6"/>
<path style="fill:#8FA8A3;" d="M260,491.2v-96c0-4.8-3.2-8-8-8s-8,3.2-8,8v96H260z"/>
<path style="fill:#76938D;" d="M260,491.2v-96c0-4.8-4.8-8-8.8-8s-7.2,4.8-7.2,9.6"/>
<path style="fill:#8FA8A3;" d="M316,491.2v-96c0-4.8-3.2-8-8-8s-8,3.2-8,8v96H316z"/>
<path style="fill:#76938D;" d="M316,491.2v-96c0-4.8-4.8-8-8.8-8s-7.2,4.8-7.2,9.6"/>
<g>
	<polygon style="fill:#DD4343;" points="129.6,111.2 121.6,120 136.8,136 152.8,120 144,111.2 136.8,118.4 	"/>
	<polygon style="fill:#DD4343;" points="144,94.4 136.8,101.6 129.6,94.4 121.6,103.2 129.6,111.2 136.8,104 144,111.2 152.8,103.2 
			"/>
	<polygon style="fill:#DD4343;" points="144,94.4 152.8,85.6 136.8,70.4 121.6,85.6 129.6,94.4 136.8,87.2 	"/>
</g>
<g>
</g>
<g>
</g>
<g>
</g>
<g>
</g>
<g>
</g>
<g>
</g>
<g>
</g>
<g>
</g>
<g>
</g>
<g>
</g>
<g>
</g>
<g>
</g>
<g>
</g>
<g>
</g>
<g>
</g>
</svg>
