<?xml version="1.0" encoding="iso-8859-1"?>
<!-- Generator: Adobe Illustrator 19.0.0, SVG Export Plug-In . SVG Version: 6.00 Build 0)  -->
<svg version="1.1" id="Layer_1" xmlns="http://www.w3.org/2000/svg" xmlns:xlink="http://www.w3.org/1999/xlink" x="0px" y="0px"
	 viewBox="0 0 505.2 505.2" style="enable-background:new 0 0 505.2 505.2;" xml:space="preserve">
<g>
	<path style="fill:#102D35;" d="M248.6,328.6c0,5.6-4.8,12-10.4,12h-80.8c-5.6,0-10.4-6.4-10.4-12l0,0c0-5.6,4.8-12,10.4-12h80.8
		C243.8,316.6,248.6,323,248.6,328.6L248.6,328.6z"/>
	<path style="fill:#102D35;" d="M163,322.2c4,4,4,10.4,0,14.4l-57.6,57.6c-4,4-10.4,4-14.4,0l0,0c-4-4-4-10.4,0-14.4l57.6-57.6
		C152.6,318.2,159,318.2,163,322.2L163,322.2z"/>
	<path style="fill:#102D35;" d="M163,451c-4,4-10.4,4-14.4,0L91,393.4c-4-4-4-10.4,0-14.4l0,0c4-4,10.4-4,14.4,0l57.6,57.6
		C167,439.8,167,447,163,451L163,451z"/>
</g>
<g>
	<path style="fill:#065177;" d="M179.8,328.6c0,5.6-4.8,12-10.4,12H88.6c-5.6,0-10.4-6.4-10.4-12l0,0c0-5.6,4.8-12,10.4-12h80.8
		C175,316.6,179.8,323,179.8,328.6L179.8,328.6z"/>
	<path style="fill:#065177;" d="M94.2,322.2c4,4,4,10.4,0,14.4l-57.6,57.6c-4,4-10.4,4-14.4,0l0,0c-4-4-4-10.4,0-14.4l57.6-57.6
		C83.8,318.2,90.2,318.2,94.2,322.2L94.2,322.2z"/>
	<path style="fill:#065177;" d="M94.2,451c-4,4-10.4,4-14.4,0l-57.6-57.6c-4-4-4-10.4,0-14.4l0,0c4-4,10.4-4,14.4,0l57.6,57.6
		C98.2,439.8,98.2,447,94.2,451L94.2,451z"/>
</g>
<g>
	<path style="fill:#102D35;" d="M229.4,288.6c0-5.6-4.8-12-10.4-12h-80.8c-5.6,0-10.4,6.4-10.4,12l0,0c0,5.6,4.8,12,10.4,12H219
		C224.6,300.6,229.4,294.2,229.4,288.6L229.4,288.6z"/>
	<path style="fill:#102D35;" d="M143.8,297.4c4-4,4-10.4,0-14.4l-57.6-57.6c-4-4-10.4-4-14.4,0l0,0c-4,4-4,10.4,0,14.4l57.6,57.6
		C133.4,301.4,139.8,301.4,143.8,297.4L143.8,297.4z"/>
	<path style="fill:#102D35;" d="M143.8,168.6c-4-4-10.4-4-14.4,0l-57.6,57.6c-4,4-4,10.4,0,14.4l0,0c4,4,10.4,4,14.4,0l57.6-57.6
		C147.8,179.8,147.8,172.6,143.8,168.6L143.8,168.6z"/>
</g>
<g>
	<path style="fill:#065177;" d="M160.6,288.6c0-5.6-4.8-12-10.4-12H69.4c-5.6,0-10.4,6.4-10.4,12l0,0c0,5.6,4.8,12,10.4,12h80.8
		C155.8,300.6,160.6,294.2,160.6,288.6L160.6,288.6z"/>
	<path style="fill:#065177;" d="M75,297.4c4-4,4-10.4,0-14.4l-57.6-57.6c-4-4-10.4-4-14.4,0l0,0c-4,4-4,10.4,0,14.4l57.6,57.6
		C64.6,301.4,71,301.4,75,297.4L75,297.4z"/>
	<path style="fill:#065177;" d="M75,168.6c-4-4-10.4-4-14.4,0L3,226.2c-4,4-4,10.4,0,14.4l0,0c4,4,10.4,4,14.4,0L75,183
		C79,179.8,79,172.6,75,168.6L75,168.6z"/>
</g>
<g>
	<path style="fill:#102D35;" d="M161.4,235c4-4,4-10.4,0-14.4L103.8,163c-4-4-10.4-4-14.4,0l0,0c-4,4-4,10.4,0,14.4L147,235
		C151,239,157.4,239,161.4,235L161.4,235z"/>
	<path style="fill:#102D35;" d="M96.6,179c5.6,0,12-4.8,12-10.4V87.8c0-5.6-6.4-10.4-12-10.4l0,0c-5.6,0-12,4.8-12,10.4v80.8
		C84.6,174.2,91,179,96.6,179L96.6,179z"/>
	<path style="fill:#102D35;" d="M187,89.4c0-5.6-4.8-11.2-10.4-11.2H95.8c-5.6,0-10.4,5.6-10.4,11.2l0,0c0,5.6,4.8,11.2,10.4,11.2
		h80.8C182.2,100.6,187,95,187,89.4L187,89.4z"/>
</g>
<g>
	<path style="fill:#065177;" d="M112.6,185.4c4-4,4-10.4,0-14.4L55,113.4c-4-4-10.4-4-14.4,0l0,0c-4,4.8-4,11.2,0,15.2l57.6,57.6
		C102.2,189.4,108.6,189.4,112.6,185.4L112.6,185.4z"/>
	<path style="fill:#065177;" d="M48.6,130.2c5.6,0,12-4.8,12-10.4V39c0-5.6-6.4-10.4-12-10.4l0,0c-5.6,0-12,4.8-12,10.4v80.8
		C36.6,125.4,43,130.2,48.6,130.2L48.6,130.2z"/>
	<path style="fill:#065177;" d="M138.2,40.6c0-5.6-4.8-11.2-10.4-11.2H47c-6.4,0-10.4,5.6-10.4,12l0,0c0,5.6,4,11.2,10.4,11.2h80.8
		C133.4,52.6,138.2,46.2,138.2,40.6L138.2,40.6z"/>
</g>
<g>
	<path style="fill:#102D35;" d="M256.6,328.6c0,5.6,4.8,12,10.4,12h80.8c5.6,0,10.4-6.4,10.4-12l0,0c0-5.6-4.8-12-10.4-12H267
		C261.4,316.6,256.6,323,256.6,328.6L256.6,328.6z"/>
	<path style="fill:#102D35;" d="M342.2,322.2c-4,4-4,10.4,0,14.4l57.6,57.6c4,4,10.4,4,14.4,0l0,0c4-4,4-10.4,0-14.4l-57.6-57.6
		C352.6,318.2,346.2,318.2,342.2,322.2L342.2,322.2z"/>
	<path style="fill:#102D35;" d="M342.2,451c4,4,10.4,4,14.4,0l57.6-57.6c4-4,4-10.4,0-14.4l0,0c-4-4-10.4-4-14.4,0l-57.6,57.6
		C338.2,439.8,338.2,447,342.2,451L342.2,451z"/>
</g>
<g>
	<path style="fill:#065177;" d="M325.4,328.6c0,5.6,4.8,12,10.4,12h80.8c5.6,0,10.4-6.4,10.4-12l0,0c0-5.6-4.8-12-10.4-12h-80.8
		C330.2,316.6,325.4,323,325.4,328.6L325.4,328.6z"/>
	<path style="fill:#065177;" d="M411,322.2c-4,4-4,10.4,0,14.4l57.6,57.6c4,4,10.4,4,14.4,0l0,0c4-4,4-10.4,0-14.4l-57.6-57.6
		C421.4,318.2,415,318.2,411,322.2L411,322.2z"/>
	<path style="fill:#065177;" d="M411,451c4,4,10.4,4,14.4,0l57.6-57.6c4-4,4-10.4,0-14.4l0,0c-4-4-10.4-4-14.4,0L411,436.6
		C407,439.8,407,447,411,451L411,451z"/>
</g>
<g>
	<path style="fill:#102D35;" d="M275.8,288.6c0-5.6,4.8-12,10.4-12H367c5.6,0,10.4,6.4,10.4,12l0,0c0,5.6-4.8,12-10.4,12h-80.8
		C280.6,300.6,275.8,294.2,275.8,288.6L275.8,288.6z"/>
	<path style="fill:#102D35;" d="M361.4,297.4c-4-4-4-10.4,0-14.4l57.6-57.6c4-4,10.4-4,14.4,0l0,0c4,4,4,10.4,0,14.4l-57.6,57.6
		C371.8,301.4,365.4,301.4,361.4,297.4L361.4,297.4z"/>
	<path style="fill:#102D35;" d="M361.4,168.6c4-4,10.4-4,14.4,0l57.6,57.6c4,4,4,10.4,0,14.4l0,0c-4,4-10.4,4-14.4,0L361.4,183
		C357.4,179.8,357.4,172.6,361.4,168.6L361.4,168.6z"/>
</g>
<g>
	<path style="fill:#065177;" d="M344.6,288.6c0-5.6,4.8-12,10.4-12h80.8c5.6,0,10.4,6.4,10.4,12l0,0c0,5.6-4.8,12-10.4,12H355
		C349.4,300.6,344.6,294.2,344.6,288.6L344.6,288.6z"/>
	<path style="fill:#065177;" d="M430.2,297.4c-4-4-4-10.4,0-14.4l57.6-57.6c4-4,10.4-4,14.4,0l0,0c4,4,4,10.4,0,14.4l-57.6,57.6
		C440.6,301.4,434.2,301.4,430.2,297.4L430.2,297.4z"/>
	<path style="fill:#065177;" d="M430.2,168.6c4-4,10.4-4,14.4,0l57.6,57.6c4,4,4,10.4,0,14.4l0,0c-4,4-10.4,4-14.4,0L430.2,183
		C426.2,179.8,426.2,172.6,430.2,168.6L430.2,168.6z"/>
</g>
<g>
	<path style="fill:#102D35;" d="M343.8,235c-4-4-4-10.4,0-14.4l57.6-57.6c4-4,10.4-4,14.4,0l0,0c4,4,4,10.4,0,14.4L358.2,235
		C354.2,239,347.8,239,343.8,235L343.8,235z"/>
	<path style="fill:#102D35;" d="M408.6,179c-5.6,0-12-4.8-12-10.4V87.8c0-5.6,6.4-10.4,12-10.4l0,0c5.6,0,12,4.8,12,10.4v80.8
		C420.6,174.2,414.2,179,408.6,179L408.6,179z"/>
	<path style="fill:#102D35;" d="M318.2,89.4c0-5.6,4.8-11.2,10.4-11.2h80.8c5.6,0,10.4,5.6,10.4,11.2l0,0c0,5.6-4.8,11.2-10.4,11.2
		h-80.8C323,100.6,318.2,95,318.2,89.4L318.2,89.4z"/>
</g>
<g>
	<path style="fill:#065177;" d="M392.6,185.4c-4-4-4-10.4,0-14.4l57.6-57.6c4-4,10.4-4,14.4,0l0,0c4,4,4,10.4,0,14.4L407,185.4
		C403,189.4,396.6,189.4,392.6,185.4L392.6,185.4z"/>
	<path style="fill:#065177;" d="M456.6,130.2c-5.6,0-12-4.8-12-10.4V39c0-5.6,6.4-10.4,12-10.4l0,0c5.6,0,12,4.8,12,10.4v80.8
		C468.6,125.4,462.2,130.2,456.6,130.2L456.6,130.2z"/>
	<path style="fill:#065177;" d="M367,40.6c0-5.6,4.8-11.2,10.4-11.2h80.8c5.6,0,10.4,5.6,10.4,12l0,0c0,5.6-4,11.2-10.4,11.2h-80.8
		C371.8,52.6,367,46.2,367,40.6L367,40.6z"/>
	<path style="fill:#065177;" d="M385.4,202.2c0,77.6-59.2,157.6-132.8,157.6s-132.8-79.2-132.8-157.6S179,61.4,252.6,61.4
		S385.4,124.6,385.4,202.2z"/>
</g>
<g>
	<path style="fill:#102D35;" d="M252.6,61.4c73.6,0,132.8,63.2,132.8,140.8S326.2,359,252.6,359"/>
	<path style="fill:#102D35;" d="M188.6,408.6c0-37.6,28.8-76,64-76s64,38.4,64,76s-28.8,68-64,68S188.6,446.2,188.6,408.6z"/>
</g>
<path style="fill:#065177;" d="M252.6,476.6c-35.2,0-64-30.4-64-68s28.8-76,64-76"/>
<circle style="fill:#DD4343;" cx="252.6" cy="118.2" r="23.2"/>
<path style="fill:#AF2E2E;" d="M252.6,95c12.8,0,23.2,10.4,23.2,23.2s-10.4,23.2-23.2,23.2"/>
<circle style="fill:#DD4343;" cx="252.6" cy="187" r="12"/>
<path style="fill:#AF2E2E;" d="M252.6,175c6.4,0,12,5.6,12,12s-5.6,12-12,12"/>
<circle style="fill:#DD4343;" cx="252.6" cy="244.6" r="6.4"/>
<path style="fill:#AF2E2E;" d="M252.6,238.2c3.2,0,6.4,2.4,6.4,6.4s-2.4,6.4-6.4,6.4"/>
<circle style="fill:#DD4343;" cx="252.6" cy="273.4" r="6.4"/>
<path style="fill:#AF2E2E;" d="M252.6,267c3.2,0,6.4,2.4,6.4,6.4s-2.4,6.4-6.4,6.4"/>
<circle style="fill:#DD4343;" cx="252.6" cy="302.2" r="6.4"/>
<path style="fill:#AF2E2E;" d="M252.6,296.6c3.2,0,6.4,2.4,6.4,6.4s-3.2,5.6-6.4,5.6"/>
<path style="fill:#EAEAEA;" d="M305.4,412.6c-8-16-28-30.4-52-30.4s-44,14.4-52,30.4H305.4z"/>
<path style="fill:#C4C4C4;" d="M201.4,412.6c8,16,28,30.4,52,30.4s44-14.4,52-30.4H201.4z"/>
<circle style="fill:#0AA06E;" cx="253.4" cy="413.4" r="27.2"/>
<path style="fill:#007C56;" d="M253.4,386.2c15.2,0,27.2,12,27.2,27.2s-12,27.2-27.2,27.2"/>
<circle style="fill:#5E6664;" cx="253.4" cy="413.4" r="12"/>
<path style="fill:#2F423F;" d="M261.4,404.6c4.8,4.8,4.8,12,0,16.8s-12,4.8-16.8,0"/>
<g>
	<circle style="fill:#FFFFFF;" cx="246.2" cy="404.6" r="6.4"/>
	<circle style="fill:#FFFFFF;" cx="262.2" cy="420.6" r="2.4"/>
</g>
<ellipse transform="matrix(-0.4762 0.8793 -0.8793 -0.4762 397.4564 74.0134)" style="fill:#227CA0;" cx="176.685" cy="155.382" rx="58.398" ry="27.199"/>
<g>
</g>
<g>
</g>
<g>
</g>
<g>
</g>
<g>
</g>
<g>
</g>
<g>
</g>
<g>
</g>
<g>
</g>
<g>
</g>
<g>
</g>
<g>
</g>
<g>
</g>
<g>
</g>
<g>
</g>
</svg>
