<?xml version="1.0" encoding="iso-8859-1"?>
<!-- Generator: Adobe Illustrator 19.0.0, SVG Export Plug-In . SVG Version: 6.00 Build 0)  -->
<svg version="1.1" id="Layer_1" xmlns="http://www.w3.org/2000/svg" xmlns:xlink="http://www.w3.org/1999/xlink" x="0px" y="0px"
	 viewBox="0 0 484 484" style="enable-background:new 0 0 484 484;" xml:space="preserve">
<path style="fill:#960E08;" d="M0.8,130C8,210,113.6,317.2,242.4,317.2c128,0,233.6-107.2,240.8-187.2H0.8z"/>
<path style="fill:#770606;" d="M242.4,317.2C371.2,317.2,476,210,483.2,130H244"/>
<path style="fill:#CE1906;" d="M316.8,5.2c-30.4,0-56,12.8-75.2,32c-19.2-20-44.8-32.8-75.2-32.8C100.8,4.4,28,58,0,130h196.8h90.4
	H484C455.2,58,383.2,5.2,316.8,5.2z"/>
<path style="fill:#B51104;" d="M284,130h200C455.2,58,383.2,5.2,316.8,5.2c-30.4,0-57.6,10.4-76.8,30.4"/>
<path style="fill:#E55145;" d="M146.4,26c5.6,7.2-9.6,24.8-32.8,40c-24,15.2-47.2,21.6-52.8,14.4c-5.6-7.2,9.6-24.8,32.8-40
	C117.6,25.2,140.8,18.8,146.4,26z"/>
<path style="fill:#CE1906;" d="M62.4,186.8c8.8-7.2,35.2,6.4,59.2,30.4s36.8,49.6,28,56.8s-35.2-6.4-59.2-30.4S53.6,194,62.4,186.8z
	"/>
<path style="fill:#540200;" d="M382.4,130c-16.8-8-58.4-24.8-96.8-24.8c-17.6,0-32.8,3.2-44,7.2c-11.2-4-25.6-8-44-8
	c-38.4,0-80.8,16.8-96.8,24.8h0.8c4.8,24,65.6,39.2,140.8,39.2C316.8,169.2,377.6,154,382.4,130L382.4,130z"/>
<path style="fill:#300101;" d="M380,130h2.4c-16.8-8-58.4-24.8-96.8-24.8c-17.6,0-32.8,3.2-44,7.2c-11.2-4-25.6-8-44-8
	c-38.4,0-80.8,16.8-96.8,24.8H100"/>
<polygon style="fill:#E2F2EF;" points="36,130 68,193.2 100,130 "/>
<polygon style="fill:#9AB2AC;" points="62.4,130 68,193.2 100,130 "/>
<polygon style="fill:#E2F2EF;" points="383.2,130 415.2,193.2 447.2,130 "/>
<polygon style="fill:#9AB2AC;" points="409.6,130 415.2,193.2 447.2,130 "/>
<path style="fill:#B51D1D;" d="M452.8,446.8L452.8,446.8l-21.6-51.2l-21.6,51.2l0,0c-1.6,3.2-2.4,6.4-2.4,9.6
	c0,12.8,10.4,23.2,23.2,23.2c12.8,0,23.2-10.4,23.2-23.2C454.4,452.4,453.6,449.2,452.8,446.8z"/>
<path style="fill:#770606;" d="M431.2,479.6c12.8,0,23.2-10.4,23.2-23.2c0-3.2-0.8-6.4-2.4-9.6l0,0l-21.6-51.2"/>
<path style="fill:#B51D1D;" d="M452.8,358.8L452.8,358.8l-21.6-51.2l-21.6,51.2l0,0c-1.6,3.2-2.4,6.4-2.4,9.6
	c0,12.8,10.4,23.2,23.2,23.2c12.8,0,23.2-10.4,23.2-23.2C454.4,364.4,453.6,361.2,452.8,358.8z"/>
<path style="fill:#770606;" d="M431.2,391.6c12.8,0,23.2-10.4,23.2-23.2c0-3.2-0.8-6.4-2.4-9.6l0,0l-21.6-51.2"/>
<path style="fill:#B51D1D;" d="M452.8,270.8L452.8,270.8l-21.6-51.2l-21.6,51.2l0,0c-1.6,3.2-2.4,6.4-2.4,9.6
	c0,12.8,10.4,23.2,23.2,23.2c12.8,0,23.2-10.4,23.2-23.2C454.4,276.4,453.6,273.2,452.8,270.8z"/>
<path style="fill:#770606;" d="M431.2,303.6c12.8,0,23.2-10.4,23.2-23.2c0-3.2-0.8-6.4-2.4-9.6l0,0l-21.6-51.2"/>
<g>
</g>
<g>
</g>
<g>
</g>
<g>
</g>
<g>
</g>
<g>
</g>
<g>
</g>
<g>
</g>
<g>
</g>
<g>
</g>
<g>
</g>
<g>
</g>
<g>
</g>
<g>
</g>
<g>
</g>
</svg>
