<?xml version="1.0" encoding="iso-8859-1"?>
<!-- Generator: Adobe Illustrator 19.0.0, SVG Export Plug-In . SVG Version: 6.00 Build 0)  -->
<svg version="1.1" id="Layer_1" xmlns="http://www.w3.org/2000/svg" xmlns:xlink="http://www.w3.org/1999/xlink" x="0px" y="0px"
	 viewBox="0 0 502.4 502.4" style="enable-background:new 0 0 502.4 502.4;" xml:space="preserve">
<circle style="fill:#3B1F7F;" cx="251.2" cy="252.8" r="215.2"/>
<path style="fill:#211156;" d="M251.2,37.6c118.4,0,215.2,96,215.2,215.2c0,118.4-96,215.2-215.2,215.2"/>
<path style="fill:#E87B18;" d="M268.8,343.2l-15.2-0.8l0,0l0,0l0,0l0,0l-17.6,0.8c0,0-27.2,32-26.4,79.2s28,71.2,28,71.2v-18.4
	c0,0,0,8.8,16,26.4l0,0l0,0l0,0l0,0c16-16.8,16-26.4,16-26.4v18.4c0,0,25.6-24,27.2-71.2C297.6,376,268.8,343.2,268.8,343.2z"/>
<path style="fill:#CC6109;" d="M253.6,502.4L253.6,502.4C253.6,501.6,252.8,501.6,253.6,502.4C253.6,501.6,253.6,501.6,253.6,502.4
	L253.6,502.4c16-16.8,16-26.4,16-26.4v18.4c0,0,25.6-24,26.4-71.2S269.6,344,269.6,344l-16-0.8l0,0l0,0l0,0v-2.4"/>
<path style="fill:#749996;" d="M262.4,280.8c0,14.4,2.4,25.6-11.2,25.6l0,0c-13.6,0-11.2-12-11.2-25.6L227.2,25.6
	c0-14.4,10.4-25.6,24-25.6l0,0c13.6,0,24,12,24,25.6L262.4,280.8z"/>
<path style="fill:#607F7C;" d="M251.2,0L251.2,0c13.6,0,24,12,24,25.6L262.4,280c0,14.4,2.4,25.6-11.2,25.6l0,0"/>
<path style="fill:#20B79A;" d="M269.6,332.8c0,3.2-2.4,6.4-6.4,6.4h-24c-3.2,0-6.4-2.4-6.4-6.4l0,0c0-3.2,2.4-6.4,6.4-6.4h24
	C266.4,327.2,269.6,329.6,269.6,332.8L269.6,332.8z"/>
<path style="fill:#10A084;" d="M269.6,342.4c0,3.2-2.4,6.4-6.4,6.4h-24c-3.2,0-6.4-2.4-6.4-6.4l0,0c0-3.2,2.4-6.4,6.4-6.4h24
	C266.4,336,269.6,339.2,269.6,342.4L269.6,342.4z"/>
<path style="fill:#E87B18;" d="M290.4,307.2c0,12-9.6,21.6-21.6,21.6h-36c-12,0-21.6-9.6-21.6-21.6l0,0c0-12,9.6-21.6,21.6-21.6h36
	C280.8,285.6,290.4,295.2,290.4,307.2L290.4,307.2z"/>
<path style="fill:#CC6109;" d="M233.6,285.6h36c12,0,21.6,9.6,21.6,21.6l0,0c0,12-9.6,21.6-21.6,21.6"/>
<path style="fill:#FFF7E6;" d="M399.2,248.8c-34.4,0-62.4-28-62.4-62.4c0-20.8,10.4-39.2,26.4-51.2c-36,5.6-63.2,36.8-63.2,75.2
	c0,41.6,34.4,76,76,76c37.6,0,68.8-27.2,75.2-63.2C438.4,238.4,420,248.8,399.2,248.8z"/>
<g>
	<ellipse style="fill:#E5A21A;" cx="128" cy="206.4" rx="4.8" ry="40.8"/>
	<ellipse style="fill:#E5A21A;" cx="128" cy="206.4" rx="40.8" ry="4.8"/>
	<ellipse style="fill:#E5A21A;" cx="155.2" cy="307.2" rx="4.8" ry="40.8"/>
	<ellipse style="fill:#E5A21A;" cx="155.2" cy="307.2" rx="40.8" ry="4.8"/>
	
		<ellipse transform="matrix(0.7071 0.7071 -0.7071 0.7071 131.8367 -95.5275)" style="fill:#E5A21A;" cx="181.23" cy="111.377" rx="24" ry="3.2"/>
	
		<ellipse transform="matrix(0.7071 -0.7071 0.7071 0.7071 -25.583 160.4968)" style="fill:#E5A21A;" cx="180.945" cy="111.13" rx="24" ry="3.2"/>
</g>
<g>
</g>
<g>
</g>
<g>
</g>
<g>
</g>
<g>
</g>
<g>
</g>
<g>
</g>
<g>
</g>
<g>
</g>
<g>
</g>
<g>
</g>
<g>
</g>
<g>
</g>
<g>
</g>
<g>
</g>
</svg>
