<?xml version="1.0" encoding="iso-8859-1"?>
<!-- Generator: Adobe Illustrator 19.0.0, SVG Export Plug-In . SVG Version: 6.00 Build 0)  -->
<svg version="1.1" id="Layer_1" xmlns="http://www.w3.org/2000/svg" xmlns:xlink="http://www.w3.org/1999/xlink" x="0px" y="0px"
	 viewBox="0 0 494.617 494.617" style="enable-background:new 0 0 494.617 494.617;" xml:space="preserve">
<polygon style="fill:#673BAD;" points="194.37,105.086 155.654,96.395 123.259,73.481 199.111,0 "/>
<polygon style="fill:#4C2991;" points="249.679,60.84 245.728,108.247 225.185,150.914 123.259,74.272 "/>
<ellipse style="fill:#673BAD;" cx="247.309" cy="428.247" rx="240.988" ry="66.37"/>
<path style="fill:#8E6DCC;" d="M36.346,428.247c0-35.556,100.346-64,225.975-66.37c-4.741,0-10.272,0-15.012,0
	c-133.531,0-240.988,30.025-240.988,66.37c0,37.136,108.247,66.37,240.988,66.37c4.741,0,10.272,0,15.012,0
	C136.691,492.247,36.346,463.012,36.346,428.247z"/>
<path style="fill:#3B1F7F;" d="M247.309,361.086c133.531,0,240.988,30.025,240.988,66.37c0,37.136-108.247,66.37-240.988,66.37"/>
<polygon style="fill:#673BAD;" points="379.259,392.691 247.309,417.975 115.358,394.272 249.679,60.84 "/>
<polyline style="fill:#3B1F7F;" points="249.679,60.84 379.259,392.691 247.309,417.975 "/>
<polygon style="fill:#FF9C39;" points="247.309,353.975 139.852,334.222 115.358,394.272 247.309,417.975 379.259,392.691 
	355.556,332.642 "/>
<polyline style="fill:#E06E10;" points="247.309,417.975 379.259,392.691 355.556,332.642 247.309,353.975 "/>
<path style="fill:#E9EADF;" d="M292.346,372.148c0-24.494-19.753-45.037-45.037-45.037c-24.494,0-45.037,19.753-45.037,45.037
	c0,15.012,7.901,28.444,19.753,37.136v7.901c0,7.901,6.321,15.012,15.012,15.012h21.333c7.901,0,15.012-6.321,15.012-15.012v-7.901
	C284.444,400.593,292.346,387.16,292.346,372.148z"/>
<path style="fill:#D0D1C5;" d="M237.037,431.407h21.333c7.901,0,15.012-6.321,15.012-15.012v-7.901
	c11.852-7.901,19.753-21.333,19.753-37.136c0-24.494-19.753-45.037-45.037-45.037"/>
<g>
	<circle style="fill:#720404;" cx="227.556" cy="382.42" r="10.272"/>
	<circle style="fill:#720404;" cx="267.062" cy="382.42" r="10.272"/>
</g>
<polygon style="fill:#8E6DCC;" points="161.185,320.79 226.765,139.852 193.58,278.123 "/>
<polygon style="fill:#FFC28A;" points="134.321,386.37 149.333,342.123 161.975,365.037 "/>
<g>
	<path style="fill:#A0207F;" d="M418.765,145.383c-33.975,0-61.63-27.654-61.63-61.63c0-20.543,10.272-38.716,26.074-50.568
		c-35.556,5.531-62.42,36.346-62.42,74.272c0,41.086,33.975,75.062,75.062,75.062c37.136,0,67.951-26.864,74.272-62.42
		C458.272,135.111,440.099,145.383,418.765,145.383z"/>
	<ellipse style="fill:#A0207F;" cx="54.519" cy="178.568" rx="4.741" ry="40.296"/>
	<ellipse style="fill:#A0207F;" cx="54.519" cy="178.568" rx="40.296" ry="4.741"/>
	<ellipse style="fill:#A0207F;" cx="54.519" cy="56.889" rx="4.741" ry="40.296"/>
	<ellipse style="fill:#A0207F;" cx="54.519" cy="56.889" rx="40.296" ry="4.741"/>
	
		<ellipse transform="matrix(0.7071 0.7071 -0.7071 0.7071 115.1445 -47.1929)" style="fill:#A0207F;" cx="114.539" cy="115.395" rx="23.703" ry="3.16"/>
	
		<ellipse transform="matrix(0.7071 -0.7071 0.7071 0.7071 -48.0241 114.3433)" style="fill:#A0207F;" cx="114.013" cy="115.142" rx="23.703" ry="3.16"/>
</g>
<g>
</g>
<g>
</g>
<g>
</g>
<g>
</g>
<g>
</g>
<g>
</g>
<g>
</g>
<g>
</g>
<g>
</g>
<g>
</g>
<g>
</g>
<g>
</g>
<g>
</g>
<g>
</g>
<g>
</g>
</svg>
