<svg height="512pt" viewBox="-47 0 512 512.00156" width="512pt" xmlns="http://www.w3.org/2000/svg"><path d="m371.378906 230.453125c17.332032-1.148437 52.785156-24.15625 45.285156-62.695313-5.785156 4.324219-14.605468 3.644532-20.917968.984376-.351563-.148438 24.296875-31.835938 5.574218-56.855469-7.308593 10.78125-13.652343 19.695312-28.261718 20.128906-12.972656.386719-25.207032-5.503906-36.773438-11.367187-11.566406-5.863282-23.617187-11.984376-36.59375-12.121094-9.863281-.105469-17.414062 2.257812-19.550781 11.695312-1.132813 5.011719-15.800781 104.410156-19.09375 126.191406 13.785156 25.921876 42.9375 42.949219 72.375 42.273438 29.433594-.675781 57.769531-19.023438 70.34375-45.550781-11.511719 3.28125-24.640625-3.589844-32.386719-12.683594zm0 0" fill="#ffa436"/><path d="m371.378906 230.453125c17.332032-1.148437 52.785156-24.15625 45.285156-62.695313-5.785156 4.324219-14.605468 3.644532-20.917968.984376-.351563-.148438 24.296875-31.835938 5.574218-56.855469-5.613281 8.28125-10.671874 15.441406-19.328124 18.523437 1.199218 19.820313-10.476563 38.21875-10.253907 38.332032 5.183594 2.660156 12.433594 3.339843 17.1875-.984376 6.160157 38.539063-22.96875 61.546876-37.210937 62.695313 6.363281 9.09375 17.148437 15.960937 26.609375 12.683594-9.71875 24.960937-30.90625 42.671875-53.527344 45.242187 2.863281.265625 5.742187.375 8.625.308594 29.433594-.675781 57.769531-19.023438 70.34375-45.550781-11.511719 3.28125-24.640625-3.589844-32.386719-12.683594zm0 0" fill="#cc6d0e"/><path d="m46.3125 230.453125c-17.332031-1.148437-52.785156-24.15625-45.285156-62.695313 5.785156 4.324219 14.605468 3.644532 20.917968.984376.351563-.148438-24.296874-31.835938-5.574218-56.855469 7.308594 10.78125 13.652344 19.695312 28.261718 20.128906 12.972657.386719 25.207032-5.503906 36.773438-11.367187 11.566406-5.863282 23.617188-11.984376 36.59375-12.121094 9.863281-.105469 17.414062 2.257812 19.550781 11.695312 1.132813 5.011719 15.800781 104.410156 19.09375 126.191406-13.785156 25.921876-42.9375 42.949219-72.375 42.273438-29.433593-.675781-57.769531-19.023438-70.34375-45.550781 11.511719 3.28125 24.640625-3.589844 32.386719-12.683594zm0 0" fill="#ffa436"/><path d="m150.792969 67.492188c2.816406-5.90625 6.878906-11.359376 11.257812-15.902344 9.992188-10.371094 22.40625-18.992188 29.535157-32.117188.863281-1.59375 3.230468-1.355468 3.710937.390625 1.582031 5.75 2.160156 11.820313 1.667969 17.785157 18.078125-1.914063 34.144531-17.140626 38.757812-36.125.382813-1.570313 2.378906-2.054688 3.449219-.84375 21.273437 24.140624 42.59375 59.476562 27.425781 92.980468-17.566406 38.808594-64.125 36.007813-95.523437 20.835938-10.023438-4.84375-20.070313-12.347656-23.195313-23.761719-2.148437-7.867187-.582031-15.902344 2.914063-23.242187zm0 0" fill="#ffa436"/><path d="m347.246094 415.476562v92.355469c0 2.300781-1.867188 4.167969-4.167969 4.167969h-268.464844c-2.300781 0-4.167969-1.867188-4.167969-4.167969v-92.355469c0-21.976562 13.648438-41.65625 34.242188-49.359374l104.160156-38.976563 104.15625 38.976563c20.59375 7.703124 34.242188 27.382812 34.242188 49.359374zm0 0" fill="#80b9f9"/><path d="m347.246094 415.476562v92.355469c0 2.300781-1.867188 4.167969-4.167969 4.167969h-134.230469v-184.859375l104.15625 38.976563c20.59375 7.703124 34.242188 27.382812 34.242188 49.359374zm0 0" fill="#81ebc7"/><path d="m313.003906 366.113281-104.15625-38.976562v8.753906l80.761719 30.222656c20.589844 7.703125 34.238281 27.382813 34.238281 49.367188v92.355469c0 2.300781-1.867187 4.164062-4.164062 4.164062h23.394531c2.300781 0 4.164063-1.863281 4.164063-4.164062v-92.355469c0-21.984375-13.644532-41.664063-34.238282-49.367188zm0 0" fill="#50b596"/><path d="m331.210938 252.738281h-37.535157v-65.304687h37.535157c10.800781 0 19.558593 8.753906 19.558593 19.554687v26.195313c0 10.800781-8.757812 19.554687-19.558593 19.554687zm0 0" fill="#c5d3d6"/><path d="m86.480469 252.738281h37.535156v-65.304687h-37.535156c-10.800781 0-19.558594 8.753906-19.558594 19.554687v26.195313c0 10.800781 8.757813 19.554687 19.558594 19.554687zm0 0" fill="#c5d3d6"/><path d="m306.527344 343.855469c0-10.519531-9.257813-19.359375-21.800782-21.902344-2.25-.457031-3.351562-2.695313-2.109374-4.375 6.394531-8.652344 4.832031-19.871094-4.699219-27.257813-9.75-7.558593-24.671875-8.652343-35.925781-3.292968-1.90625.902344-4.246094-.039063-4.839844-1.84375-3.21875-9.796875-14.667969-17.039063-28.304688-17.039063-13.640625 0-25.089844 7.242188-28.308594 17.039063-.59375 1.804687-2.933593 2.75-4.839843 1.84375-11.253907-5.359375-26.175781-4.265625-35.925781 3.292968-9.53125 7.386719-11.09375 18.605469-4.699219 27.257813 1.242187 1.679687.140625 3.917969-2.109375 4.375-12.542969 2.542969-21.800782 11.382813-21.800782 21.902344 0 10.523437 9.257813 19.363281 21.800782 21.90625 2.25.453125 3.351562 2.691406 2.109375 4.375-6.394531 8.648437-4.832031 19.867187 4.699219 27.257812 9.75 7.554688 24.671874 8.652344 35.925781 3.292969 1.90625-.90625 4.246093.035156 4.839843 1.84375 3.21875 9.792969 14.667969 17.039062 28.308594 17.039062 13.636719 0 25.085938-7.246093 28.304688-17.039062.59375-1.808594 2.933594-2.75 4.839844-1.84375 11.253906 5.359375 26.175781 4.261719 35.925781-3.292969 9.53125-7.390625 11.09375-18.609375 4.699219-27.257812-1.242188-1.683594-.140626-3.921875 2.109374-4.375 12.542969-2.542969 21.800782-11.386719 21.800782-21.90625zm0 0" fill="#ed6161"/><path d="m284.726562 365.757812c12.542969-2.542968 21.800782-11.382812 21.800782-21.902343s-9.257813-19.359375-21.800782-21.902344c-2.25-.457031-3.351562-2.695313-2.109374-4.378906 6.394531-8.648438 4.832031-19.867188-4.699219-27.253907-8.09375-6.277343-19.75-8.078124-29.917969-5.449218 3.667969 1.074218 7.121094 2.878906 10.042969 5.449218 8.394531 7.386719 9.773437 18.605469 4.140625 27.253907-1.097656 1.683593-.125 3.921875 1.855468 4.378906 11.050782 2.542969 19.203126 11.382813 19.203126 21.902344s-8.152344 19.359375-19.203126 21.902343c-1.980468.457032-2.953124 2.695313-1.855468 4.378907 5.632812 8.648437 4.253906 19.867187-4.140625 27.253906-2.921875 2.570313-6.375 4.375-10.042969 5.449219 10.167969 2.628906 21.824219.824218 29.917969-5.449219 9.53125-7.386719 11.09375-18.605469 4.699219-27.253906-1.246094-1.683594-.140626-3.921875 2.109374-4.378907zm0 0" fill="#ce4545"/><path d="m167.554688 276.121094v60.738281c0 22.804687 18.484374 41.292969 41.292968 41.292969 22.804688 0 41.292969-18.488282 41.292969-41.292969v-60.738281zm0 0" fill="#e6eff5"/><path d="m167.554688 333.089844c16.039062 10.191406 34.558593 16.015625 54.292968 16.015625 9.46875 0 18.664063-1.34375 27.4375-3.863281.558594-2.707032.855469-5.511719.855469-8.382813v-60.738281h-82.585937zm0 0" fill="#c5d3d6"/><path d="m319.527344 202.445312c0-68.867187-49.554688-124.695312-110.679688-124.695312-61.128906 0-110.683594 55.828125-110.683594 124.695312 0 68.863282 49.554688 124.691407 110.683594 124.691407 61.125 0 110.679688-55.828125 110.679688-124.691407zm0 0" fill="#e6eff5"/><path d="m260.191406 91.960938c24.144532 22.875 39.492188 57.152343 39.492188 95.472656 0 68.863281-49.554688 124.691406-110.679688 124.691406-18.53125 0-36-5.140625-51.347656-14.210938 19.246094 18.230469 44.078125 29.21875 71.191406 29.21875 61.125 0 110.679688-55.824218 110.679688-124.691406 0-47.984375-24.066406-89.632812-59.335938-110.480468zm0 0" fill="#c5d3d6"/><path d="m232.3125 220.085938c0 12.960937-10.507812 23.464843-23.464844 23.464843-12.960937 0-23.46875-10.503906-23.46875-23.464843 0-12.960938 10.507813-23.46875 23.46875-23.46875 12.957032 0 23.464844 10.507812 23.464844 23.46875zm0 0" fill="#ed6161"/><path d="m224.429688 275.089844-3.527344 23.890625c-.449219 3-3.03125 5.226562-6.070313 5.226562h-11.972656c-3.039063 0-5.621094-2.226562-6.066406-5.226562l-3.53125-23.890625c5.050781 1.0625 10.265625 1.613281 15.585937 1.613281 5.316406 0 10.53125-.550781 15.582032-1.613281zm0 0" fill="#f9c295"/><path d="m226.953125 472.964844c0 10-8.105469 18.109375-18.105469 18.109375-10.003906 0-18.109375-8.109375-18.109375-18.109375 0-10.003906 8.105469-18.109375 18.109375-18.109375 10 0 18.105469 8.105469 18.105469 18.109375zm0 0" fill="#ef3f61"/><path d="m208.847656 284.238281c-5.773437 0-11.535156-.597656-17.136718-1.773437-14.023438-2.949219-27.433594-9.632813-38.773438-19.335938-3.160156-2.703125-3.53125-7.460937-.824219-10.621094 2.703125-3.164062 7.457031-3.53125 10.621094-.828124 9.425781 8.0625 20.515625 13.609374 32.078125 16.039062 9.164062 1.929688 18.902344 1.929688 28.066406 0 11.5625-2.429688 22.652344-7.976562 32.078125-16.039062 3.160157-2.703126 7.917969-2.335938 10.621094.828124 2.707031 3.160157 2.335937 7.917969-.828125 10.621094-11.335938 9.703125-24.746094 16.386719-38.769531 19.335938-5.601563 1.175781-11.363281 1.773437-17.132813 1.773437zm0 0" fill="#6e7093"/><path d="m303.820312 451.621094v60.378906h-15.066406v-60.378906c0-4.160156 3.375-7.535156 7.535156-7.535156 4.15625 0 7.53125 3.375 7.53125 7.535156zm0 0" fill="#50b596"/><path d="m128.9375 451.621094v60.378906h-15.070312v-60.378906c0-4.160156 3.375-7.535156 7.535156-7.535156s7.535156 3.375 7.535156 7.535156zm0 0" fill="#3185db"/><g fill="#363b51"><path d="m262.511719 200.167969c-4.140625 0-7.5-3.359375-7.5-7.5v-1c0-4.140625 3.359375-7.5 7.5-7.5 4.144531 0 7.5 3.359375 7.5 7.5v1c0 4.140625-3.355469 7.5-7.5 7.5zm0 0"/><path d="m155.179688 200.167969c-4.144532 0-7.5-3.359375-7.5-7.5v-1c0-4.140625 3.355468-7.5 7.5-7.5 4.140624 0 7.5 3.359375 7.5 7.5v1c0 4.140625-3.359376 7.5-7.5 7.5zm0 0"/></g></svg>