<svg height="512pt" viewBox="-86 0 512 512.001" width="512pt" xmlns="http://www.w3.org/2000/svg"><path d="m169.65625 0c-122.398438 0-148.589844 150.9375-139.066406 202.636719h278.132812c9.523438-51.699219-16.671875-202.636719-139.066406-202.636719zm0 0" fill="#6e7093"/><path d="m169.65625 0c-2.921875 0-5.765625.113281-8.578125.28125 101.828125 6.886719 123.742187 151.890625 115.511719 202.359375h32.128906c9.527344-51.703125-16.667969-202.640625-139.0625-202.640625zm0 0" fill="#4e5173"/><path d="m306.265625 512h-273.21875c-2.339844 0-4.238281-1.898438-4.238281-4.238281v-83.457031c0-22.375 13.886718-42.402344 34.84375-50.242188l106.003906-39.667969 106.003906 39.667969c20.953125 7.839844 34.84375 27.867188 34.84375 50.242188v83.457031c0 2.339843-1.898437 4.238281-4.238281 4.238281zm0 0" fill="#c94343"/><g fill="#a02727"><path d="m275.660156 374.0625-106.003906-39.667969v8.910157l82.191406 30.757812c20.953125 7.839844 34.84375 27.867188 34.84375 50.242188v83.457031c0 2.339843-1.898437 4.238281-4.238281 4.238281h23.8125c2.339844 0 4.238281-1.894531 4.238281-4.238281v-83.457031c0-22.375-13.890625-42.402344-34.84375-50.242188zm0 0"/><path d="m80.664062 453.359375c-4.269531 0-7.726562 3.457031-7.726562 7.726563v50.914062h15.453125v-50.914062c0-4.269532-3.457031-7.726563-7.726563-7.726563zm0 0"/><path d="m258.644531 453.359375c-4.265625 0-7.722656 3.457031-7.722656 7.726563v50.914062h15.453125v-50.914062c-.003906-4.269532-3.460938-7.726563-7.730469-7.726563zm0 0"/></g><path d="m212.75 446.976562 14.171875 20.046876-40.207031 44.976562h-33.707032l-40.382812-44.648438 14.0625-20.128906-36.964844-10.703125 6.832032-57.144531c3.058593-25.570312 24.703124-44.835938 50.449218-44.917969l44.757813-.132812c25.746093-.070313 47.503906 19.070312 50.707031 44.617187l7.171875 57.101563zm0 0" fill="#4e5173"/><path d="m122.023438 281.867188v70.0625c0 26.304687 47.632812 144.617187 47.632812 144.617187s47.628906-118.3125 47.628906-144.617187v-70.0625zm0 0" fill="#ff9292"/><path d="m122.023438 326.761719c21.523437 15.171875 44.492187 22.171875 58.621093 22.171875 9.339844 0 22.546875-3.0625 36.640625-9.519532v-57.546874h-95.261718zm0 0" fill="#ed6161"/><path d="m281.515625 183.066406c-15.425781 15.421875-21.277344 36.785156-17.578125 56.722656 19.9375 3.695313 41.296875-2.15625 56.722656-17.578124 15.421875-15.421876 21.273438-36.785157 17.574219-56.722657-19.9375-3.699219-41.296875 2.15625-56.71875 17.578125zm0 0" fill="#ff9292"/><path d="m57.796875 183.066406c15.421875 15.421875 21.273437 36.785156 17.578125 56.722656-19.941406 3.695313-41.300781-2.15625-56.722656-17.578124-15.425782-15.421876-21.277344-36.785157-17.578125-56.722657 19.9375-3.699219 41.300781 2.15625 56.722656 17.578125zm0 0" fill="#ff9292"/><path d="m282.296875 196.964844c0 89.484375-79.964844 126.902344-112.640625 126.902344-32.679688 0-112.644531-37.417969-112.644531-126.902344 0-26.9375 4.78125-73.816406 20.148437-92.453125 4.886719-5.929688 13.058594-8.5 22.988282-8.5 30.804687 0 26.59375 45.285156 69.507812 45.285156s38.703125-45.285156 69.507812-45.285156c9.929688 0 18.101563 2.570312 22.988282 8.5 15.363281 18.636719 20.144531 65.511719 20.144531 92.453125zm0 0" fill="#ff9292"/><path d="m262.152344 104.511719c-4.886719-5.929688-13.058594-8.5-22.988282-8.5-3.21875 0-6.050781.5-8.597656 1.382812 4.320313 1.328125 7.910156 3.640625 10.480469 7.117188 13.785156 18.636719 18.074219 65.515625 18.074219 92.453125 0 84.324218-63.695313 122.40625-95.574219 126.519531 2.175781.253906 4.222656.382813 6.109375.382813 32.679688 0 112.640625-37.417969 112.640625-126.902344 0-26.941406-4.78125-73.816406-20.144531-92.453125zm0 0" fill="#ed6161"/><path d="m169.65625 288.050781s-14.769531 8.972657-24.328125 22.265625c-2.511719 3.496094-3.195313 7.976563-1.855469 12.066406 4.492188 13.714844 16.144532 46.035157 26.183594 46.035157 10.035156 0 21.6875-32.320313 26.179688-46.035157 1.339843-4.089843.65625-8.574218-1.855469-12.066406-9.554688-13.292968-24.324219-22.265625-24.324219-22.265625zm0 0" fill="#4e5173"/><path d="m330.011719 39.800781c-.175781-3.777343-5.261719-4.796875-6.886719-1.382812-17.667969 37.183593-56.589844 67.972656-83.632812 83.554687-14.210938 8.1875.023437 32.820313 11.84375 35.535156 27.417968 6.289063 58.21875-24.210937 69.949218-50.292968 9.429688-20.972656 9.8125-44.277344 8.726563-67.414063zm0 0" fill="#ed6161"/><path d="m9.296875 39.800781c.179687-3.777343 5.265625-4.796875 6.886719-1.382812 17.667968 37.183593 56.59375 67.972656 83.632812 83.554687 14.214844 8.1875-.019531 32.820313-11.84375 35.535156-27.417968 6.289063-58.21875-24.210937-69.945312-50.292968-9.429688-20.972656-9.8125-44.277344-8.730469-67.414063zm0 0" fill="#ed6161"/><path d="m119.90625 201.75c-4.144531 0-7.5-3.359375-7.5-7.5v-2c0-4.140625 3.355469-7.5 7.5-7.5 4.140625 0 7.5 3.359375 7.5 7.5v2c0 4.140625-3.359375 7.5-7.5 7.5zm0 0" fill="#363b51"/><path d="m219.40625 201.75c-4.144531 0-7.5-3.359375-7.5-7.5v-2c0-4.140625 3.355469-7.5 7.5-7.5 4.140625 0 7.5 3.359375 7.5 7.5v2c0 4.140625-3.359375 7.5-7.5 7.5zm0 0" fill="#363b51"/><path d="m216.90625 237.210938c0 18.230468-20.480469 33.007812-45.75 33.007812-25.261719 0-45.742188-14.777344-45.742188-33.007812 0-.972657.0625-1.921876.171876-2.871094 7.109374 2.128906 15.097656 3.761718 23.679687 4.761718 6.5.757813 13.328125 1.167969 20.390625 1.167969 7.058594 0 13.890625-.410156 20.390625-1.167969 9.757813-1.140624 18.75-3.089843 26.558594-5.671874.199219 1.242187.300781 2.5.300781 3.78125zm0 0" fill="#a02727"/><path d="m219.394531 232.472656c1.660157-.605468 3.398438.636719 3.347657 2.402344l-.507813 18.714844c-.148437 5.28125-6.367187 8.011718-10.347656 4.542968l-21.839844-19.03125c10.945313-1.28125 20.921875-3.570312 29.347656-6.628906zm0 0" fill="#e6eff5"/><path d="m149.265625 239.101562-21.839844 19.027344c-3.980469 3.472656-10.199219.742188-10.351562-4.539062l-.507813-18.71875c-.046875-1.761719 1.691406-3.003906 3.347656-2.402344 8.425782 3.0625 18.402344 5.351562 29.351563 6.632812zm0 0" fill="#e6eff5"/></svg>