<svg height="512pt" viewBox="-39 0 512 512.00094" width="512pt" xmlns="http://www.w3.org/2000/svg"><path d="m366.015625 158.355469c-.328125-56.125 1.722656-146.386719-79.175781-128.308594-32.046875-51.5-217.277344-51.5-218.324219 128.308594-.40625 69.308593-3.160156 270.667969 13.96875 276.886719 63.34375 23 206.21875 23 269.5625 0 17.125-6.21875 14.371094-207.578126 13.96875-276.886719zm0 0" fill="#f9dc6a"/><path d="m261.847656 30.046875c8.761719-1.960937 16.550782-2.640625 23.476563-2.238281-13.722657-18.792969-48.417969-30.03125-86.132813-26.882813 28.769532 2.457031 52.863282 13.382813 62.65625 29.121094zm0 0" fill="#e5ac51"/><path d="m366.015625 158.355469c-.316406-54.59375 1.601563-141.480469-72.753906-129.535157 48.902343 9.796876 47.480469 81.9375 47.761719 129.535157.402343 69.308593 3.15625 270.667969-13.96875 276.886719-29.113282 10.570312-75.019532 16.277343-122.285157 17.132812 55.582031 1.007812 113.042969-4.703125 147.277344-17.132812 17.125-6.21875 14.371094-207.578126 13.96875-276.886719zm0 0" fill="#e5ac51"/><path d="m258.578125 107.183594c-12.8125-2.152344-26.742187-2.980469-41.3125-2.980469-18.550781 0-36.070313 1.339844-51.566406 5.039063 7.378906-16.113282 17.511719-32.175782 33.710937-39.144532 14.519532-6.242187 32.480469-3.496094 44.480469 6.785156 8.757813 7.515626 14.035156 18.808594 14.6875 30.300782zm0 0" fill="#e5ac51"/><path d="m380.589844 316.191406c34.15625 18.152344 73.398437 98.496094 43.070312 166.148438-1.875 4.179687-7.972656 3.84375-9.292968-.539063-6.878907-22.824219-29.503907-43.679687-79.792969-8.699219l-28.015625-64.773437c17.269531-8.066406 62.671875-42.816406 64.398437-86.488281.191407-4.847656 5.351563-7.921875 9.632813-5.648438zm-326.648438 0c-34.160156 18.152344-73.402344 98.496094-43.070312 166.148438 1.871094 4.179687 7.972656 3.84375 9.292968-.539063 6.878907-22.824219 29.5-43.679687 79.789063-8.699219l28.019531-64.773437c-17.273437-8.066406-62.671875-42.816406-64.402344-86.488281-.191406-4.847656-5.347656-7.921875-9.628906-5.648438zm0 0" fill="#ed6161"/><path d="m400.609375 460.695312c5.261719-10.140624 4.964844-23.171874 4.15625-30.777343-1.542969-14.496094-6.683594-28.648438-14.097656-38.828125-2.515625-3.449219-7.347657-4.207032-10.796875-1.695313-3.449219 2.515625-4.207032 7.347657-1.691406 10.796875 5.777343 7.933594 9.972656 19.65625 11.21875 31.359375 1.054687 9.925781-.171876 18.609375-3.210938 23.261719 5.691406.800781 10.46875 2.910156 14.421875 5.882812zm0 0" fill="#ce4545"/><path d="m56.351562 400.191406c2.511719-3.449218 1.753907-8.28125-1.695312-10.796875-3.449219-2.511719-8.28125-1.75-10.792969 1.695313-7.417969 10.179687-12.554687 24.332031-14.097656 38.828125-.8125 7.605469-1.109375 20.636719 4.152344 30.777343 3.957031-2.972656 8.730469-5.082031 14.421875-5.882812-3.035156-4.652344-4.265625-13.335938-3.210938-23.261719 1.246094-11.703125 5.441406-23.425781 11.222656-31.359375zm0 0" fill="#ce4545"/><path d="m356.351562 512h-278.175781c-2.382812 0-4.3125-1.929688-4.3125-4.3125v-84.972656c0-22.78125 14.136719-43.171875 35.472657-51.15625l107.929687-40.382813 107.925781 40.382813c21.335938 7.984375 35.476563 28.375 35.476563 51.15625v84.972656c0 2.382812-1.933594 4.3125-4.316407 4.3125zm0 0" fill="#6e7093"/><path d="m325.191406 371.558594-107.925781-40.382813-12.0625 4.511719 95.863281 35.871094c21.335938 7.984375 35.476563 28.375 35.476563 51.15625v84.972656c0 2.382812-1.933594 4.3125-4.316407 4.3125h24.125c2.382813 0 4.316407-1.929688 4.316407-4.3125v-84.972656c0-22.78125-14.140625-43.171875-35.476563-51.15625zm0 0" fill="#4e5173"/><path d="m134.277344 512v-51.839844c0-4.207031-3.410156-7.617187-7.617188-7.617187-4.210937 0-7.621094 3.410156-7.621094 7.617187v51.839844zm0 0" fill="#4e5173"/><path d="m315.488281 512v-51.839844c0-4.207031-3.410156-7.617187-7.617187-7.617187-4.207032 0-7.621094 3.410156-7.621094 7.617187v51.839844zm0 0" fill="#4e5173"/><path d="m260.050781 347.183594v-62.4375h-85.570312v62.4375l-50.632813 18.945312c7.640625 44.683594 46.554688 78.695313 93.417969 78.695313s85.777344-34.011719 93.417969-78.695313zm0 0" fill="#f9c295"/><path d="m174.480469 328.097656c16.792969 10.863282 36.261719 17.082032 57.015625 17.082032 9.859375 0 19.425781-1.414063 28.554687-4.050782v-56.382812h-85.570312zm0 0" fill="#e59f6a"/><path d="m326.675781 230.074219c-14.625 52.378906-58.082031 90.378906-109.410156 90.378906-54.695313 0-100.449219-43.136719-111.910156-100.855469.34375-.265625.683593-.546875 1.019531-.824218 15.933594-13.125 26.890625-31.332032 35.351562-50.148438 8.449219-18.828125 14.710938-38.570312 23.09375-57.429688.289063-.65625.582032-1.296874.878907-1.953124 15.496093-3.699219 33.015625-5.039063 51.566406-5.039063 14.570313 0 28.5.824219 41.3125 2.980469 7.96875 1.332031 15.496094 3.164062 22.484375 5.640625 1.460938 22.367187 4.183594 44.746093 13.234375 65.097656 6.9375 15.621094 17.335937 29.410156 26.859375 43.605469 1.875 2.8125 3.730469 5.652344 5.519531 8.546875zm0 0" fill="#f9c295"/><path d="m311.441406 207.296875c-2.359375 4-4.238281 7.390625-4.882812 9.292969-14.625 52.378906-58.082032 90.378906-109.410156 90.378906-17.222657 0-33.554688-4.28125-48.210938-11.941406 19.082031 15.972656 42.726562 25.425781 68.328125 25.425781 51.328125 0 94.785156-38 109.410156-90.378906-1.789062-2.894531-3.644531-5.734375-5.519531-8.546875-3.195312-4.761719-6.488281-9.476563-9.714844-14.230469zm0 0" fill="#e59f6a"/><path d="m348.703125 48.984375c-2.191406 17.9375-12.089844 33.046875-25.964844 42.429687-11.230469-14.425781-25.347656-26.5-41.488281-35.320312 24.667969-4.96875 44.511719-25.21875 47.730469-51.558594.101562-.847656.183593-1.695312.246093-2.539062.144532-1.867188 2.429688-2.679688 3.707032-1.3125 11.714844 12.53125 18.011718 29.953125 15.769531 48.300781zm0 0" fill="#ed6161"/><path d="m153.277344 56.09375c-16.136719 8.820312-30.253906 20.894531-41.488282 35.320312-13.875-9.382812-23.769531-24.492187-25.960937-42.429687-2.242187-18.347656 4.054687-35.769531 15.765625-48.300781 1.277344-1.367188 3.566406-.554688 3.707031 1.3125.066407.84375.148438 1.691406.25 2.539062 3.21875 26.34375 23.0625 46.589844 47.726563 51.558594zm0 0" fill="#ed6161"/><path d="m217.265625 444.824219c2.601563 0 5.175781-.121094 7.726563-.324219v-17.027344c0-4.269531-3.460938-7.726562-7.726563-7.726562-4.269531 0-7.726563 3.457031-7.726563 7.726562v17.027344c2.546876.203125 5.121094.324219 7.726563.324219zm0 0" fill="#e59f6a"/><g fill="#363b51"><path d="m328.570312 107.132812c-2.464843 0-4.882812-1.191406-6.347656-3.398437-1.75-2.628906-3.601562-5.203125-5.5-7.644531-10.722656-13.773438-23.886718-24.980469-39.125-33.3125-18.394531-10.050782-39.261718-15.363282-60.332031-15.363282-21.066406 0-41.925781 5.3125-60.324219 15.363282-.082031.046875-.171875.09375-.257812.136718-15.128906 8.3125-28.210938 19.476563-38.878906 33.179688-1.894532 2.4375-3.746094 5.011719-5.496094 7.640625-2.328125 3.5-7.058594 4.453125-10.5625 2.121094-3.503906-2.328125-4.453125-7.058594-2.121094-10.5625 1.953125-2.9375 4.023438-5.816407 6.148438-8.554688 12.023437-15.4375 26.773437-27.996093 43.851562-37.332031.089844-.050781.183594-.097656.273438-.140625 20.566406-11.179687 43.855468-17.085937 67.367187-17.085937 23.617187 0 47.007813 5.957031 67.640625 17.226562 17.078125 9.335938 31.828125 21.894531 43.84375 37.328125 2.132812 2.746094 4.203125 5.621094 6.15625 8.558594 2.332031 3.503906 1.378906 8.234375-2.121094 10.5625-1.296875.867187-2.765625 1.277343-4.214844 1.277343zm0 0"/><path d="m167.515625 201.75c-4.144531 0-7.5-3.355469-7.5-7.5v-2c0-4.140625 3.355469-7.5 7.5-7.5 4.140625 0 7.5 3.359375 7.5 7.5v2c0 4.144531-3.359375 7.5-7.5 7.5zm0 0"/><path d="m267.015625 201.75c-4.144531 0-7.5-3.355469-7.5-7.5v-2c0-4.140625 3.355469-7.5 7.5-7.5 4.140625 0 7.5 3.359375 7.5 7.5v2c0 4.144531-3.359375 7.5-7.5 7.5zm0 0"/><path d="m217.261719 263.554688c-12.878907 0-25.320313-5.390626-34.132813-14.785157-2.832031-3.023437-2.683594-7.769531.339844-10.601562 3.019531-2.835938 7.765625-2.683594 10.601562.339843 6.078126 6.476563 14.3125 10.046876 23.191407 10.046876 8.882812 0 17.121093-3.570313 23.199219-10.046876 2.835937-3.023437 7.582031-3.175781 10.601562-.339843 3.019531 2.832031 3.171875 7.578125.339844 10.601562-8.816406 9.394531-21.257813 14.785157-34.140625 14.785157zm0 0"/></g></svg>