<svg height="512pt" viewBox="-101 0 512 512.001" width="512pt" xmlns="http://www.w3.org/2000/svg"><path d="m155.359375 0c72.449219 0 132.683594 55.789062 138.226563 128.027344l17.035156 221.996094c1.402344 18.269531-13.042969 33.863281-31.363282 33.863281h-247.800781c-18.320312 0-32.765625-15.59375-31.363281-33.863281l17.035156-221.996094c5.546875-72.238282 65.777344-128.027344 138.230469-128.027344zm0 0" fill="#6e7093"/><path d="m310.621094 350.023438-17.035156-221.996094c-5.546876-72.242188-65.777344-128.027344-138.226563-128.027344-3.972656 0-7.902344.175781-11.789063.507812 67.09375 5.664063 121.195313 59.238282 126.4375 127.519532l17.035157 221.996094c1.402343 18.269531-13.042969 33.863281-31.363281 33.863281h23.578124c18.320313 0 32.765626-15.59375 31.363282-33.863281zm0 0" fill="#4e5173"/><path d="m263.164062 374.949219c-1.9375-.8125-2.210937-.851563-65.824218-24.671875v-61.265625h-83.964844v61.265625c-68.585938 25.667968-64.996094 24.25-67.667969 25.484375-18.828125 8.71875-31.0625 27.636719-31.0625 48.625v83.378906c0 2.339844 1.894531 4.234375 4.234375 4.234375h272.957032c2.339843 0 4.234374-1.894531 4.234374-4.234375v-83.378906c0-21.378907-12.78125-41.027344-32.90625-49.4375zm0 0" fill="#6e7093"/><g fill="#4e5173"><path d="m263.164062 374.949219c-1.9375-.8125-2.210937-.851563-65.824218-24.671875v-61.265625h-22.96875v53.289062c0 4.796875 2.980468 9.089844 7.472656 10.773438 56.164062 21.027343 56.492188 21.097656 58.351562 21.875 20.125 8.410156 32.90625 28.058593 32.90625 49.4375v83.378906c0 2.339844-1.894531 4.234375-4.234374 4.234375h22.96875c2.339843 0 4.234374-1.894531 4.234374-4.234375v-83.378906c0-21.378907-12.78125-41.027344-32.90625-49.4375zm0 0"/><path d="m74.179688 512v-50.867188c0-4.265624-3.460938-7.726562-7.726563-7.726562s-7.726563 3.460938-7.726563 7.726562v50.867188zm0 0"/><path d="m251.988281 461.132812c0-4.265624-3.457031-7.726562-7.726562-7.726562-4.265625 0-7.722657 3.460938-7.722657 7.726562v50.867188h15.453126v-50.867188zm0 0"/></g><path d="m261.257812 374.195312-63.917968-23.917968v-61.265625h-83.964844v61.265625l-63.921875 23.917968c-2.550781.953126-4.996094 2.089844-7.324219 3.390626 20.074219 42.375 63.226563 71.683593 113.226563 71.683593 50.003906 0 93.15625-29.308593 113.230469-71.683593-2.328126-1.300782-4.773438-2.4375-7.328126-3.390626zm0 0" fill="#e6eff5"/><path d="m181.839844 353.074219c56.167968 21.027343 56.496094 21.097656 58.355468 21.875 8.464844 3.539062 15.625 9.070312 21.085938 15.875 2.6875-4.25 5.136719-8.664063 7.304688-13.238281-1.703126-.949219-3.46875-1.8125-5.292969-2.582032-.042969-.015625-.082031-.035156-.128907-.054687-.007812-.003907-.015624-.007813-.023437-.011719-.554687-.230469-1.113281-.453125-1.679687-.664062-.222657-.085938-.484376-.1875-.789063-.300782l-20.640625-7.722656c-9.476562-3.542969-23.066406-8.628906-42.691406-15.976562v-61.261719h-22.96875v53.289062c0 4.796875 2.976562 9.089844 7.46875 10.773438zm0 0" fill="#c5d3d6"/><path d="m42.128906 377.585938c2.332032-1.300782 4.777344-2.4375 7.328125-3.390626l30.453125-11.398437c.691406.136719 1.386719.257813 2.074219.410156 5.34375 1.175781 11.714844 4.222657 11.546875 9.691407-.257812 8.285156-15.097656 10.402343-14.671875 18.679687.207031 4.019531 4.335937 6.789063 8.304687 7.464844s8.054688-.058594 12.054688.40625c10.09375 1.175781 18.175781 10.328125 19.816406 20.359375 1.269532 7.753906-.828125 15.710937-4.875 22.511718-31.792968-11.078124-57.753906-34.59375-72.03125-64.734374zm0 0" fill="#ed6161"/><path d="m155.359375 112.519531c-62.152344 0-112.53125 17.132813-112.53125 87.152344 0 70.015625 50.378906 126.777344 112.53125 126.777344 62.148437 0 112.527344-56.761719 112.527344-126.777344 0-70.019531-50.378907-87.152344-112.527344-87.152344zm0 0" fill="#f9c295"/><path d="m207.390625 118.199219c23.40625 12.582031 38.179687 34.980469 38.179687 72.886719 0 70.015624-50.382812 126.777343-112.53125 126.777343-8.59375 0-16.960937-1.089843-25-3.144531 14.386719 7.519531 30.414063 11.726562 47.320313 11.726562 62.148437 0 112.527344-56.757812 112.527344-126.773437 0-48.867187-24.542969-71.96875-60.496094-81.472656zm0 0" fill="#e59f6a"/><path d="m42.828125 161.589844v35.675781c75.019531-94.960937 150.039063-94.960937 225.058594 0v-35.675781c0-10.625-3.835938-20.910156-10.828125-28.910156-67.800782-77.566407-135.601563-77.566407-203.402344 0-6.992188 8-10.828125 18.285156-10.828125 28.910156zm0 0" fill="#e6eff5"/><path d="m257.058594 132.679688c-9.566406-10.941407-19.128906-20.339844-28.695313-28.195313 2.40625 3.566406 4.8125 7.261719 7.21875 11.128906 6.292969 10.113281 9.746094 23.117188 9.746094 36.550781v19.421876c7.519531 7.613281 15.039063 16.160156 22.558594 25.679687v-35.675781c0-10.625-3.835938-20.910156-10.828125-28.910156zm0 0" fill="#c5d3d6"/><path d="m192.445312 438.949219h-23.695312v-23.785157h-26.785156v23.785157h-23.695313v25.703125h23.695313v47.347656h26.785156v-47.347656h23.695312zm0 0" fill="#f9dc6a"/><path d="m105.609375 208.488281c-4.144531 0-7.5-3.359375-7.5-7.5v-2c0-4.140625 3.355469-7.5 7.5-7.5 4.140625 0 7.5 3.359375 7.5 7.5v2c0 4.140625-3.359375 7.5-7.5 7.5zm0 0" fill="#363b51"/><path d="m205.109375 208.488281c-4.144531 0-7.5-3.359375-7.5-7.5v-2c0-4.140625 3.355469-7.5 7.5-7.5 4.140625 0 7.5 3.359375 7.5 7.5v2c0 4.140625-3.359375 7.5-7.5 7.5zm0 0" fill="#363b51"/><path d="m155.355469 270.289062c-12.878907 0-25.320313-5.386718-34.132813-14.785156-2.835937-3.019531-2.683594-7.765625.339844-10.601562 3.019531-2.832032 7.765625-2.679688 10.597656.339844 6.078125 6.480468 14.316406 10.046874 23.195313 10.046874 8.882812 0 17.121093-3.566406 23.199219-10.046874 2.832031-3.019532 7.582031-3.171876 10.601562-.339844 3.019531 2.835937 3.171875 7.582031.339844 10.601562-8.816406 9.398438-21.261719 14.785156-34.140625 14.785156zm0 0" fill="#363b51"/></svg>