<svg height="511pt" viewBox="-99 0 511 511.99862" width="511pt" xmlns="http://www.w3.org/2000/svg"><path d="m312.820312 144.3125c-3-18.039062-22.824218-27.609375-33.164062-41.621094-11.203125-15.1875-12.410156-36.398437-19.410156-54.425781-12.375-31.886719-45.132813-52.355469-76.117188-47.574219-28.5625 4.410156-53.378906 27.484375-82.207031 28.214844-19.109375.484375-44.917969-10.503906-59.550781 8.636719-8.003906 10.46875-7.085938 25.507812-6.109375 38.996093.980469 13.492188.984375 28.832032-8.0625 38.277344-7.121094 7.429688-18.503907 9.480469-24.238281 18.175782-4.421876 6.703124-4.25 15.921874-1.492188 23.574218 2.761719 7.65625 7.757812 14.101563 12.671875 20.394532 7.898437 10.121093 15.796875 20.238281 23.695313 30.355468 11.507812 14.742188 24.550781 12.167969 40.699218 12.628906 14.289063.410157 28.582032.816407 42.871094 1.226563 31.324219.894531 62.644531 1.792969 93.96875 2.6875 11.964844.34375 23.933594.710937 35.898438 1.085937 1.085937.03125 2.261718.039063 3.148437-.640624.96875-.742188 1.308594-2.085938 1.65625-3.308594 4.105469-14.429688 16.777344-23.742188 28.453125-32.175782 11.679688-8.4375 24.074219-18.523437 27.003906-33.277343.816406-4.105469.851563-7.820313.285156-11.230469zm0 0" fill="#6e7093"/><path d="m312.820312 144.3125c-3-18.039062-22.824218-27.609375-33.160156-41.621094-11.207031-15.1875-12.414062-36.398437-19.410156-54.425781-12.214844-31.464844-44.269531-51.796875-74.886719-47.734375 23.226563 3.285156 45.042969 21.703125 54.347657 47.734375 6.445312 18.027344 7.558593 39.234375 17.875 54.425781 9.519531 14.011719 27.777343 23.582032 30.539062 41.617188.523438 3.414062.492188 7.128906-.257812 11.230468-2.699219 14.757813-14.113282 24.84375-24.867188 33.277344s-22.425781 17.746094-26.207031 32.175782c-.320313 1.222656-.632813 2.566406-1.527344 3.308593-.050781.046875-.113281.082031-.167969.121094 5.726563.175781 11.449219.339844 17.175782.519531 1.089843.035156 2.265624.039063 3.148437-.640625.96875-.742187 1.3125-2.085937 1.65625-3.308593 4.105469-14.429688 16.78125-23.742188 28.457031-32.175782 11.675782-8.433594 24.070313-18.519531 27-33.277344.816406-4.101562.851563-7.816406.285156-11.226562zm0 0" fill="#4e5173"/><path d="m253.613281 365.023438-60.75-22.734376v-58.230468h-79.804687v58.230468l-60.75 22.734376c-19.898438 7.445312-33.085938 26.457031-33.085938 47.703124v95.25c0 2.21875 1.800782 4.023438 4.023438 4.023438h259.433594c2.21875 0 4.023437-1.800781 4.023437-4.023438v-95.25c-.003906-21.246093-13.191406-40.257812-33.089844-47.703124zm0 0" fill="#80b9f9"/><path d="m253.613281 365.023438-60.75-22.734376v-58.230468h-23.179687v58.050781c0 6.097656 3.785156 11.554687 9.496094 13.691406l51.257812 19.179688c19.898438 7.445312 33.082031 26.460937 33.082031 47.707031v89.3125h19.15625c2.222657 0 4.023438-1.804688 4.023438-4.023438v-95.25c0-21.246093-13.1875-40.257812-33.085938-47.703124zm0 0" fill="#3185db"/><path d="m237.460938 473.164062v38.835938h45.214843c2.222657 0 4.023438-1.800781 4.023438-4.023438v-34.8125l-19.238281 14.835938-14.5-24.5zm0 0" fill="#f9c295"/><path d="m263.519531 481.34375v30.65625h19.15625c2.222657 0 4.023438-1.804688 4.023438-4.023438v-34.8125l-19.238281 14.835938zm0 0" fill="#e59f6a"/><path d="m68.460938 473.164062v38.835938h-45.214844c-2.222656 0-4.023438-1.800781-4.023438-4.023438v-34.8125l19.238282 14.835938 14.5-24.5zm0 0" fill="#f9c295"/><path d="m192.859375 342.289062v-58.226562h-79.796875v58.226562l-43.460938 16.261719c6.597657 20.234375 17.777344 38.394531 32.304688 53.273438l-1.609375 13.34375-12.988281 9.441406c-.925782.675781-1.125 1.972656-.445313 2.894531l21.082031 28.46875c1.140626 1.542969 3.585938.824219 3.710938-1.09375l1.304688-20.300781 20.507812-8.628906c5.964844 3.320312 12.199219 6.21875 18.671875 8.628906 39.167969-14.609375 69.867187-46.589844 82.71875-86.578125zm0 0" fill="#f9c295"/><g fill="#e59f6a"><path d="m234.859375 358.003906-25.140625-9.40625-16.859375-6.308594v-58.226562h-23.175781v58.046875c0 6.097656 3.785156 11.554687 9.496094 13.691406l49.273437 18.4375c2.460937-5.242187 4.613281-10.65625 6.40625-16.234375zm0 0"/><path d="m192.859375 333.644531v-49.582031h-79.796875v42.019531c14.484375 8.253907 30.859375 12.910157 48.199219 12.910157 11 0 21.613281-1.875 31.597656-5.347657zm0 0"/><path d="m271.207031 245.464844h-36.269531v-63.105469h36.269531c10.4375 0 18.898438 8.460937 18.898438 18.894531v25.3125c0 10.4375-8.460938 18.898438-18.898438 18.898438zm0 0"/><path d="m34.714844 245.464844h36.269531v-63.105469h-36.269531c-10.4375 0-18.898438 8.460937-18.898438 18.894531v25.3125c0 10.4375 8.460938 18.898438 18.898438 18.898438zm0 0"/></g><path d="m152.960938 76.367188c-59.070313 0-106.953126 35.636718-106.953126 120.496093 0 66.546875 47.882813 120.496094 106.953126 120.496094 59.070312 0 106.953124-53.949219 106.953124-120.496094 0-84.859375-47.882812-120.496093-106.953124-120.496093zm0 0" fill="#f9c295"/><path d="m152.960938 76.367188c-2.234376 0-4.453126.058593-6.652344.160156 49.414062 2.613281 88.550781 38.6875 88.550781 120.335937 0 64.027344-39.136719 116.382813-88.550781 120.253907 2.199218.152343 4.417968.242187 6.652344.242187 59.070312 0 106.953124-53.949219 106.953124-120.496094 0-84.859375-47.882812-120.496093-106.953124-120.496093zm0 0" fill="#e59f6a"/><path d="m189.292969 263.402344c0-13.734375-16.265625-24.871094-36.332031-24.871094-20.066407 0-36.332032 11.136719-36.332032 24.871094s16.265625 24.871094 36.332032 24.871094c20.066406 0 36.332031-11.136719 36.332031-24.871094zm0 0" fill="#ce4545"/><path d="m152.960938 238.53125c-.246094 0-.484376.007812-.730469.011719v18.894531c0 3.292969 2.671875 5.964844 5.964843 5.964844h6.132813c3.296875 0 5.964844-2.671875 5.964844-5.964844v-15.898438c-5.148438-1.917968-11.054688-3.007812-17.332031-3.007812zm0 0" fill="#e6eff5"/><path d="m257.148438 163.820312c-2.328126.820313-4.738282 1.359376-7.179688 1.582032-9.808594.890625-19.660156-2.722656-27.628906-8.511719-2.570313-1.859375-5.167969-4.027344-8.320313-4.367187-4.300781-.472657-8.078125 2.539062-11.738281 4.847656-3.53125 2.242187-7.480469 3.960937-11.652344 4.269531-4.160156.320313-8.570312-.910156-11.5-3.890625-3.769531-3.796875-4.519531-9.578125-4.898437-14.917969-1.53125-21.492187-.28125-43.050781 1.878906-64.488281h.03125c16.757813-5.28125 43.320313-1.980469 56.789063 28.359375 23.140624-2.25 35.53125 43.96875 24.21875 57.117187zm0 0" fill="#fa7ec1"/><path d="m224.519531 92.863281c-3.054687.6875-5.898437 1.566407-8.492187 2.601563-1.894532-3.171875-4.761719-5.761719-8.519532-7.589844-4.414062-2.148438-9.941406-3.234375-16.433593-3.234375-4.140625 0-7.5 3.355469-7.5 7.5 0 4.140625 3.359375 7.5 7.5 7.5 4.078125 0 7.585937.609375 9.867187 1.722656 1.128906.550781 1.808594 1.125 2.207032 1.785157-.851563.75-1.636719 1.507812-2.324219 2.257812-5.046875 5.53125-7.371094 12.246094-6.71875 19.410156.355469 3.894532 3.625 6.820313 7.460937 6.820313.226563 0 .457032-.007813.6875-.027344 4.125-.375 7.164063-4.023437 6.789063-8.148437-.269531-2.980469.640625-5.503907 2.863281-7.941407 4.082031-4.472656 12.257812-7.824219 21.007812-8.847656-2.417968-5.441406-5.261718-10.003906-8.394531-13.808594zm0 0" fill="#cf579c"/><path d="m29.230469 156.015625c5.792969-8.621094 16.105469-13.179687 26.308593-15.105469 10.207032-1.925781 20.699219-1.648437 31.003907-2.941406 10.308593-1.289062 20.902343-4.4375 28.183593-11.84375 8.652344-8.800781 11.035157-21.761719 14.136719-33.703125 3.105469-11.941406 8.367188-24.808594 19.605469-29.910156h-89.507812zm0 0" fill="#6e7093"/><path d="m126.539062 198.59375c0 10.492188-8.503906 18.996094-18.996093 18.996094-10.488281 0-18.996094-8.503906-18.996094-18.996094s8.507813-18.996094 18.996094-18.996094c10.492187 0 18.996093 8.503906 18.996093 18.996094zm0 0" fill="#e6eff5"/><path d="m217.601562 198.59375c0 10.492188-8.503906 18.996094-18.996093 18.996094-10.492188 0-18.996094-8.503906-18.996094-18.996094s8.503906-18.996094 18.996094-18.996094c10.492187 0 18.996093 8.503906 18.996093 18.996094zm0 0" fill="#e6eff5"/><path d="m107.542969 222.589844c-13.230469 0-23.996094-10.765625-23.996094-23.996094s10.765625-23.996094 23.996094-23.996094 23.996093 10.765625 23.996093 23.996094-10.761718 23.996094-23.996093 23.996094zm0-37.992188c-7.714844 0-13.996094 6.28125-13.996094 13.996094 0 7.71875 6.28125 13.996094 13.996094 13.996094 7.71875 0 13.996093-6.277344 13.996093-13.996094 0-7.714844-6.277343-13.996094-13.996093-13.996094zm0 0" fill="#e59f6a"/><path d="m198.605469 222.589844c-13.230469 0-23.996094-10.765625-23.996094-23.996094s10.765625-23.996094 23.996094-23.996094 23.996093 10.765625 23.996093 23.996094-10.765624 23.996094-23.996093 23.996094zm0-37.992188c-7.71875 0-13.996094 6.28125-13.996094 13.996094 0 7.71875 6.277344 13.996094 13.996094 13.996094s13.996093-6.277344 13.996093-13.996094c0-7.714844-6.277343-13.996094-13.996093-13.996094zm0 0" fill="#e59f6a"/></svg>