<svg height="512pt" viewBox="-65 0 512 512.00015" width="512pt" xmlns="http://www.w3.org/2000/svg"><path d="m315.617188 356.097656-62.066407-23.222656v-74.085938h-125.40625v74.085938l-62.0625 23.222656c-24.667969 9.230469-41.011719 32.800782-41.011719 59.136719v91.777344c0 2.753906 2.230469 4.988281 4.988282 4.988281h321.582031c2.753906 0 4.988281-2.234375 4.988281-4.988281v-91.777344c-.003906-26.335937-16.347656-49.90625-41.011718-59.136719zm0 0" fill="#b78358"/><path d="m315.617188 356.097656-62.066407-23.222656v-74.085938h-23.179687v84.386719l62.066406 23.222657c24.664062 9.230468 41.011719 32.800781 41.011719 59.136718v86.464844h18.191406c2.753906 0 4.988281-2.234375 4.988281-4.988281v-91.777344c-.003906-26.335937-16.347656-49.90625-41.011718-59.136719zm0 0" fill="#935d38"/><path d="m190.847656 289.433594c-54.632812-.5625-80.371094-31.089844-93.746094-54.835938-1.03125-1.828125-3.566406-2.101562-4.972656-.539062-8.734375 9.71875-24.949218 30.761718-32.277344 46.914062-1.082031 2.382813-4.464843 2.40625-5.59375.042969-14.105468-29.46875-20.507812-81.722656-19.292968-105.394531.132812-2.558594-2.730469-4.136719-4.84375-2.6875-8.140625 5.578125-17.214844 14.425781-24.839844 22.074218-2.039062 2.042969-5.527344.421876-5.265625-2.449218 14.53125-160.925782 145.265625-218.003906 190.832031-182.359375 45.566406-35.644531 176.300782 21.433593 190.835938 182.359375.257812 2.871094-3.230469 4.492187-5.265625 2.453125-7.628907-7.652344-16.703125-16.5-24.839844-22.078125-2.113281-1.449219-4.976563.128906-4.847656 2.6875 1.21875 23.675781-5.183594 75.925781-19.292969 105.398437-1.128906 2.359375-4.511719 2.339844-5.589844-.042969-7.332031-16.15625-23.546875-37.199218-32.28125-46.917968-1.402344-1.5625-3.941406-1.289063-4.972656.539062-13.375 23.746094-39.113281 54.273438-93.746094 54.835938zm0 0" fill="#b78358"/><path d="m319.261719 168.835938c1.3125-38.800782-30.519531-71.839844-69.339844-71.921876-24.902344-.050781-46.765625 13.007813-59.074219 32.667969-12.308594-19.660156-34.171875-32.71875-59.074218-32.667969-38.820313.082032-70.648438 33.121094-69.339844 71.921876.363281 10.761718 3.171875 20.90625 7.886718 29.875h9.03125c30.652344 0 56.425782 23.003906 59.898438 53.457031l3.449219 30.226562c2.792969 24.484375 23.507812 42.972657 48.148437 42.972657s45.355469-18.488282 48.148438-42.972657l3.449218-30.226562c3.472657-30.453125 29.246094-53.457031 59.898438-53.457031h9.03125c4.714844-8.96875 7.523438-19.113282 7.886719-29.875zm0 0" fill="#fdeaaf"/><path d="m249.921875 96.914062c-3.449219-.007812-6.839844.246094-10.15625.726563 30.855469 4.984375 54.777344 35.664063 53.699219 71.195313-.328125 10.761718-2.851563 20.90625-7.097656 29.875h-8.121094c-27.574219 0-50.761719 23.003906-53.886719 53.457031l-3.101563 30.226562c-2.273437 22.195313-17.804687 39.464844-37.203124 42.496094 2.222656.316406 4.488281.476563 6.792968.476563 24.640625 0 45.355469-18.488282 48.148438-42.972657l3.445312-30.226562c3.472656-30.453125 29.25-53.457031 59.902344-53.457031h9.027344c4.71875-8.972657 7.523437-19.113282 7.886718-29.875 1.3125-38.796876-30.515624-71.839844-69.335937-71.921876zm0 0" fill="#f8cc7c"/><path d="m210.15625 245.917969c0 10.664062-8.644531 21.757812-19.308594 21.757812-10.664062 0-19.308594-11.09375-19.308594-21.757812 0-10.660157 8.644532-13.324219 19.308594-13.324219 10.664063 0 19.308594 2.660156 19.308594 13.324219zm0 0" fill="#6e7093"/><path d="m348.1875 58.777344c0 19.992187-6.832031 38.378906-18.285156 52.988281-11.929688-26.203125-35.394532-46.050781-63.898438-53.046875 15.273438-23.84375 41.996094-39.652344 72.410156-39.652344h.058594c6.203125 11.871094 9.714844 25.386719 9.714844 39.710938zm0 0" fill="#f8cc7c"/><path d="m338.476562 19.066406h-.0625c-3.453124 0-6.855468.214844-10.203124.613282 2.550781 8.125 3.925781 16.773437 3.925781 25.738281 0 17.355469-5.152344 33.503906-14.007813 47.019531 4.648438 5.917969 8.617188 12.398438 11.773438 19.328125 11.453125-14.609375 18.285156-32.996094 18.285156-52.988281 0-14.324219-3.511719-27.839844-9.710938-39.710938zm0 0" fill="#d3a159"/><path d="m33.507812 58.777344c0 19.992187 6.832032 38.378906 18.285157 52.988281 11.929687-26.203125 35.394531-46.050781 63.898437-53.046875-15.273437-23.84375-41.996094-39.652344-72.410156-39.652344h-.058594c-6.203125 11.871094-9.714844 25.386719-9.714844 39.710938zm0 0" fill="#f8cc7c"/><path d="m273.847656 340.46875v13.214844c0 21.332031-8.0625 40.777344-21.289062 55.476562-1.03125 1.144532-.5625 2.96875.894531 3.46875l18.230469 6.265625c1.6875.578125 1.972656 2.851563.480468 3.832031l-18.679687 12.257813c-1.015625.667969-1.277344 2.042969-.578125 3.039063l13.34375 18.964843c1.335938 1.898438-.867188 4.273438-2.863281 3.085938l-45.492188-27.148438c-.53125-.316406-1.164062-.382812-1.75-.195312-9.070312 2.902343-18.808593 4.3125-28.941406 3.871093-44.558594-1.9375-79.355469-39.351562-79.355469-83.953124v-12.179688l-29.75 11.132812v160.398438h225.5v-160.398438zm0 0" fill="#e6eff5"/><g fill="#363b51"><path d="m138.179688 183.832031c-4.140626 0-7.5-3.355469-7.5-7.5v-6.332031c0-4.140625 3.359374-7.5 7.5-7.5 4.144531 0 7.5 3.359375 7.5 7.5v6.332031c0 4.144531-3.355469 7.5-7.5 7.5zm0 0"/><path d="m243.515625 183.832031c-4.144531 0-7.5-3.355469-7.5-7.5v-6.332031c0-4.140625 3.355469-7.5 7.5-7.5 4.140625 0 7.5 3.359375 7.5 7.5v6.332031c0 4.144531-3.359375 7.5-7.5 7.5zm0 0"/></g></svg>