<svg height="511pt" viewBox="-30 0 511 511.99989" width="511pt" xmlns="http://www.w3.org/2000/svg"><path d="m360.660156 512h-269.414062c-2.308594 0-4.179688-1.871094-4.179688-4.179688v-82.296874c0-22.0625 13.695313-41.808594 34.359375-49.539063l104.527344-39.113281 104.527344 39.113281c20.664062 7.730469 34.355469 27.476563 34.355469 49.539063v82.296874c0 2.308594-1.867188 4.179688-4.175782 4.179688zm0 0" fill="#9e71d3"/><path d="m225.953125 336.871094-104.527344 39.113281c-20.664062 7.730469-34.355469 27.476563-34.355469 49.539063v82.296874c0 2.308594 1.871094 4.179688 4.175782 4.179688h134.707031zm0 0" fill="#f9dc6a"/><path d="m330.480469 375.984375-104.527344-39.113281v8.785156l81.046875 30.328125c20.664062 7.730469 34.355469 27.476563 34.355469 49.539063v82.296874c0 2.308594-1.871094 4.179688-4.175781 4.179688h23.476562c2.308594 0 4.179688-1.871094 4.179688-4.179688v-82.296874c0-22.0625-13.691407-41.808594-34.355469-49.539063zm0 0" fill="#7f56af"/><path d="m145.703125 512v-49.207031c0-4.140625-3.359375-7.5-7.5-7.5-4.144531 0-7.5 3.359375-7.5 7.5v49.207031zm0 0" fill="#e5ac51"/><path d="m321.203125 512v-49.207031c0-4.140625-3.355469-7.5-7.5-7.5-4.140625 0-7.5 3.359375-7.5 7.5v49.207031zm0 0" fill="#7f56af"/><path d="m225.953125 479.636719-35.289063-54.101563c-1.21875-1.863281-3.585937-2.601562-5.644531-1.757812l-36.859375 15.089844c-3.765625 1.539062-7.550781-2.167969-6.085937-5.964844l17.210937-44.617188c1.128906-2.929687-.917968-6.113281-4.050781-6.300781l-44.304687-2.65625c-4.847657-.292969-6.054688-6.890625-1.617188-8.867187 29.699219-13.234376 90.429688-38.78125 116.640625-38.78125s86.941406 25.546874 116.640625 38.78125c4.4375 1.976562 3.230469 8.574218-1.617188 8.867187l-44.304687 2.65625c-3.136719.1875-5.179687 3.371094-4.050781 6.300781l17.210937 44.617188c1.464844 3.796875-2.320312 7.503906-6.085937 5.964844l-36.859375-15.089844c-2.058594-.84375-4.425781-.105469-5.644531 1.757812zm0 0" fill="#6e7093"/><path d="m261.242188 425.535156c1.21875-1.863281 3.582031-2.601562 5.644531-1.757812l36.859375 15.089844c3.765625 1.539062 7.550781-2.167969 6.085937-5.964844l-17.210937-44.617188c-1.128906-2.929687.914062-6.113281 4.050781-6.300781l44.304687-2.65625c4.84375-.292969 6.054688-6.890625 1.617188-8.867187-29.699219-13.234376-90.429688-38.78125-116.640625-38.78125v147.953124zm0 0" fill="#81ebc7"/><path d="m184.515625 291.90625v60.953125c0 22.882813 18.550781 41.4375 41.4375 41.4375s41.4375-18.554687 41.4375-41.4375v-60.953125zm0 0" fill="#f9c295"/><path d="m184.515625 333.039062c16.242187 10.476563 35.054687 16.464844 55.109375 16.464844 9.589844 0 18.890625-1.367187 27.765625-3.941406v-53.65625h-82.875zm0 0" fill="#e59f6a"/><path d="m337.023438 201.355469c0-69.109375-49.730469-125.132813-111.070313-125.132813-61.34375 0-111.070313 56.023438-111.070313 125.132813 0 69.105469 49.726563 125.128906 111.070313 125.128906 61.339844 0 111.070313-56.023437 111.070313-125.128906zm0 0" fill="#f9c295"/><path d="m277.480469 90.484375c24.226562 22.953125 39.628906 57.351563 39.628906 95.808594 0 69.105469-49.726563 125.128906-111.066406 125.128906-18.597657 0-36.125-5.15625-51.527344-14.261719 19.3125 18.296875 44.230469 29.324219 71.4375 29.324219 61.34375 0 111.070313-56.023437 111.070313-125.128906 0-48.15625-24.152344-89.949219-59.542969-110.871094zm0 0" fill="#e59f6a"/><path d="m437.207031 75.617188-78.664062-66.066407c-12.710938-10.675781-30.621094-12.574219-45.296875-4.820312l-87.292969 46.191406-87.292969-46.191406c-14.671875-7.753907-32.585937-5.855469-45.296875 4.820312l-78.664062 66.066407c-10.945313 9.191406-16.117188 23.550781-13.550781 37.601562l19.800781 108.386719 19.660156-1.933594-3.40625-32.515625c-1.839844-17.546875 10.996094-33.21875 28.558594-34.871094 13.894531-1.296875 27.007812 6.636719 32.296875 19.554688l17.414062 42.546875c-.394531-4.277344-.59375-8.628907-.59375-13.035157 0-14.257812 2.117188-27.945312 6.015625-40.707031v-.003906c0-.003906.003907-.007813.007813-.007813 2.734375-5.460937 6.335937-10.402343 10.613281-14.683593 10.269531-10.269531 24.46875-16.625 40.148437-16.625 25.558594 0 47.175782 16.894531 54.289063 40.125 7.117187-23.230469 28.734375-40.125 54.292969-40.125 22.214844 0 41.425781 12.742187 50.761718 31.308593.003907 0 .003907.003907.007813.007813v.003906c3.894531 12.761719 6.015625 26.449219 6.015625 40.707031 0 4.40625-.199219 8.753907-.59375 13.035157l17.414062-42.546875c5.289063-12.917969 18.402344-20.851563 32.296876-19.554688 17.5625 1.652344 30.398437 17.324219 28.558593 34.871094l-3.40625 32.515625 19.660157 1.933594 19.800781-108.386719c2.5625-14.050781-2.609375-28.410156-13.554688-37.601562zm0 0" fill="#9e71d3"/><path d="m450.757812 113.21875-19.804687 108.386719-19.65625-1.933594 3.40625-32.515625c1.839844-17.546875-10.996094-33.21875-28.558594-34.871094-13.894531-1.296875-27.007812 6.636719-32.296875 19.554688l-17.414062 42.546875c.394531-4.277344.59375-8.628907.59375-13.035157 0-14.257812-2.121094-27.945312-6.015625-40.707031 0 0 0 0 0-.007812h-.007813c-9.335937-18.570313-28.546875-31.3125-50.761718-31.3125-25.554688 0-47.175782 16.898437-54.289063 40.125v-118.527344l87.292969-46.191406c14.671875-7.753907 32.585937-5.855469 45.296875 4.820312l78.664062 66.066407c10.945313 9.191406 16.117188 23.550781 13.550781 37.601562zm0 0" fill="#f9dc6a"/><path d="m437.207031 75.617188-78.664062-66.066407c-12.710938-10.675781-30.621094-12.574219-45.296875-4.820312l-.492188.261719c8.203125.699218 16.183594 3.871093 22.769532 9.402343l78.664062 66.066407c10.945312 9.191406 16.117188 23.554687 13.550781 37.605468l-13.585937 74.359375-2.855469 27.246094 19.660156 1.933594 19.804688-108.382813c2.5625-14.054687-2.609375-28.414062-13.554688-37.605468zm0 0" fill="#e5ac51"/><path d="m444.070312 221.605469c0 12.273437-9.949218 22.226562-22.226562 22.226562-12.273438 0-22.226562-9.953125-22.226562-22.226562 0-12.277344 9.953124-22.230469 22.226562-22.230469 12.277344 0 22.226562 9.953125 22.226562 22.230469zm0 0" fill="#9e71d3"/><path d="m52.289062 221.605469c0 12.273437-9.953124 22.226562-22.226562 22.226562-12.277344 0-22.226562-9.953125-22.226562-22.226562 0-12.277344 9.949218-22.230469 22.226562-22.230469 12.273438 0 22.226562 9.953125 22.226562 22.230469zm0 0" fill="#f9dc6a"/><g fill="#363b51"><path d="m301.917969 238.605469c-4.21875-1.816407-8.800781-3.328125-13.585938-4.523438-.066406-.019531-.132812-.046875-.203125-.0625-.121094-.03125-.242187-.046875-.363281-.074219-4.234375-1.027343-8.617187-1.8125-13.074219-2.304687-4.128906-.464844-7.820312 2.515625-8.273437 6.632813-.457031 4.117187 2.515625 7.824218 6.632812 8.277343.835938.089844 1.664063.203125 2.496094.316407-8.832031 12.957031-30.789063 24.296874-49.59375 24.296874s-40.757813-11.339843-49.589844-24.296874c.828125-.113282 1.660157-.222657 2.496094-.316407 4.117187-.453125 7.085937-4.160156 6.632813-8.277343-.457032-4.117188-4.160157-7.101563-8.277344-6.632813-4.453125.492187-8.839844 1.277344-13.074219 2.304687-.121094.027344-.242187.042969-.363281.074219-.066406.015625-.132813.042969-.203125.0625-4.785157 1.191407-9.363281 2.707031-13.582031 4.523438-7.464844 3.210937-5.148438 14.390625 2.96875 14.390625 2.386718 0 2.671874-.742188 8.132812-2.585938 4.425781 8.820313 12.667969 17.046875 23.914062 23.695313 12.964844 7.664062 27.886719 12.058593 40.945313 12.058593 13.0625 0 27.984375-4.394531 40.949219-12.058593 11.246094-6.648438 19.488281-14.875 23.914062-23.695313 5.464844 1.84375 5.75 2.585938 8.132813 2.585938 8.101562 0 10.4375-11.175782 2.96875-14.390625zm0 0"/><path d="m185.730469 216.621094c4.140625 0 7.5-3.355469 7.5-7.5v-3.164063c0-4.144531-3.359375-7.5-7.5-7.5-4.144531 0-7.5 3.355469-7.5 7.5v3.164063c0 4.144531 3.355469 7.5 7.5 7.5zm0 0"/><path d="m266.175781 216.621094c4.144531 0 7.5-3.355469 7.5-7.5v-3.164063c0-4.144531-3.355469-7.5-7.5-7.5-4.140625 0-7.5 3.355469-7.5 7.5v3.164063c0 4.144531 3.359375 7.5 7.5 7.5zm0 0"/></g></svg>