<svg height="511pt" viewBox="-4 0 511 511.99772" width="511pt" xmlns="http://www.w3.org/2000/svg"><g fill="#e59f6a"><path d="m503.207031 341.917969-5.25-37.09375c-.390625-2.769531-2.292969-5.089844-4.929687-6.023438l-32.765625-11.546875c-4.125-14.625-11.238281-36.675781-19.335938-56.113281-12.347656-29.664063-22.105469-42.324219-32.625-42.324219-.003906 0-.015625.003906-.011719 0-7.492187.007813-37.949218 12.769532-55.433593 20.378906-2.050781.890626-3.597657 2.648438-4.214844 4.796876l-9.785156 33.886718c-.808594 2.792969.070312 5.796875 2.253906 7.714844s5.277344 2.402344 7.941406 1.242188c19.148438-8.328126 42.195313-17.515626 48.644531-18.957032 2.210938 1.964844 10.027344 11.351563 26.128907 53.90625l-14.765625 2.957032c-1.996094.402343-3.746094 1.597656-4.84375 3.316406-1.097656 1.714844-1.449219 3.804687-.976563 5.789062l11.695313 48.753906c.824218 3.4375 3.898437 5.75 7.289062 5.75.578125 0 1.167969-.066406 1.753906-.207031 4.027344-.96875 6.511719-5.015625 5.542969-9.042969l-9.875-41.179687 9.429688-1.890625c8.296875 23.078125 14.960937 44.179688 17.265625 51.609375l-5.390625 25.914063-8.960938 5.175781c-3.585937 2.070312-4.816406 6.65625-2.746093 10.242187 1.390624 2.40625 3.910156 3.753906 6.503906 3.753906 1.269531 0 2.5625-.324218 3.742187-1.007812l11.871094-6.855469c1.851563-1.066406 3.15625-2.875 3.59375-4.964843l6.464844-31.101563c.007812-.027344.007812-.058594.015625-.089844.03125-.15625.054687-.3125.074218-.472656.011719-.085937.023438-.171875.03125-.257813.003907-.023437.007813-.042968.007813-.0625.351563-4.074218 2.785156-33.621093 1.550781-53.753906l20.644532 7.277344 4.609374 32.582031c.53125 3.742188 3.738282 6.449219 7.417969 6.449219.347657 0 .703125-.023438 1.058594-.074219 4.105469-.582031 6.957031-4.375 6.378906-8.476562zm0 0"/><path d="m155.140625 213.992188c-.621094-2.148438-2.164063-3.90625-4.214844-4.796876-17.488281-7.609374-47.945312-20.371093-55.433593-20.375 0-.003906-.007813 0-.011719 0-10.519531 0-20.277344 12.65625-32.628907 42.320313-8.09375 19.4375-15.210937 41.488281-19.335937 56.113281l-32.761719 11.550782c-2.640625.929687-4.542968 3.25-4.933594 6.023437l-5.246093 37.089844c-.5820315 4.101562 2.273437 7.894531 6.375 8.476562.355469.050781.710937.074219 1.058593.074219 3.679688 0 6.890626-2.703125 7.417969-6.449219l4.609375-32.582031 20.644532-7.277344c-1.234376 20.132813 1.199218 49.679688 1.550781 53.753906 0 .023438.003906.042969.007812.0625.007813.085938.023438.171876.035157.261719.019531.15625.042968.3125.070312.46875.007812.03125.007812.0625.015625.09375l6.46875 31.097657c.433594 2.089843 1.742187 3.898437 3.589844 4.96875l11.871093 6.851562c1.183594.683594 2.472657 1.007812 3.746094 1.007812 2.589844 0 5.113282-1.347656 6.5-3.75 2.070313-3.589843.84375-8.175781-2.746094-10.246093l-8.960937-5.175781-5.390625-25.914063c2.304688-7.429687 8.96875-28.53125 17.265625-51.605469l9.433594 1.886719-9.878907 41.179687c-.964843 4.027344 1.515626 8.074219 5.542969 9.042969.589844.140625 1.175781.207031 1.757813.207031 3.386718 0 6.460937-2.3125 7.285156-5.75l11.695312-48.753906c.476563-1.980468.125-4.070312-.972656-5.789062-1.101562-1.71875-2.851562-2.914063-4.847656-3.316406l-14.765625-2.957032c16.105469-42.554687 23.917969-51.941406 26.128906-53.90625 6.449219 1.441406 29.496094 10.632813 48.644531 18.960938 2.664063 1.15625 5.757813.675781 7.941407-1.242188 2.183593-1.921875 3.0625-4.925781 2.253906-7.71875zm0 0"/><path d="m448.355469 482.589844c-35.777344-.203125-85.394531-16.027344-85.394531-54.992188 0-32.589844 0-116.722656 0-202.167968 0-90.605469 17.15625-182.683594 24.125-216.351563.945312-4.5625-4.296876-7.828125-7.984376-4.984375l-37.292968 28.742188-15.386719-29.480469c-1.78125-3.4140628-6.582031-3.636719-8.667969-.402344l-33.085937 51.195313c-3.042969 4.710937-8.265625 7.554687-13.875 7.554687-6.15625 0-11.800781-3.421875-14.648438-8.882813l-26.125-50.121093c-1.699219-3.253907-6.207031-3.648438-8.441406-.734375l-37.230469 48.574218-49.992187-45.660156c-3.4375-3.136718-8.925781-.320312-8.375 4.300782 4.191406 35.269531 14.84375 134.175781 14.84375 228.996093v189.421875c0 38.964844-49.617188 54.789063-85.398438 54.992188-35.074219.199218-29.019531 29.40625-15.011719 29.40625h422.953126c14.007812 0 20.0625-29.207032-15.011719-29.40625zm0 0"/></g><path d="m448.355469 482.589844c-35.777344-.203125-85.394531-16.027344-85.394531-54.992188v-202.167968c0-90.605469 17.15625-182.683594 24.125-216.351563.945312-4.5625-4.296876-7.832031-7.984376-4.988281l-25.613281 19.742187c-7.253906 41.269531-19.351562 122.003907-19.351562 201.597657v202.167968c0 38.964844 45.328125 54.789063 78.019531 54.992188 32.042969.199218 26.511719 29.40625 13.710938 29.40625h37.5c14.007812 0 20.0625-29.207032-15.011719-29.40625zm0 0" fill="#c98353"/><path d="m175.253906 216.613281 55.851563 29.851563c1.835937.980468 2.765625 3.085937 2.257812 5.101562l-1.585937 6.265625c-.542969 2.152344-2.574219 3.59375-4.785156 3.398438l-36.191407-3.207031c-12.570312-1.113282-22.207031-11.644532-22.207031-24.265626v-13.152343c-.003906-3.417969 3.644531-5.605469 6.660156-3.992188zm0 0" fill="#4e5173"/><path d="m328.527344 216.613281-55.851563 29.851563c-1.835937.980468-2.765625 3.085937-2.257812 5.101562l1.585937 6.265625c.542969 2.152344 2.574219 3.59375 4.785156 3.398438l36.191407-3.207031c12.570312-1.113282 22.207031-11.644532 22.207031-24.265626v-13.152343c.003906-3.417969-3.644531-5.605469-6.660156-3.992188zm0 0" fill="#4e5173"/><path d="m177.9375 44.683594c.386719.632812.871094 1.21875 1.457031 1.734375l13.664063 12.023437c2.691406 2.367188 4.234375 5.78125 4.234375 9.367188v40.910156c0 4.144531 3.355469 7.5 7.5 7.5 4.140625 0 7.5-3.355469 7.5-7.5v-40.910156c0-7.894532-3.398438-15.414063-9.324219-20.625l-9.585938-8.433594-9.035156 11.789062zm0 0" fill="#c98353"/><path d="m302.734375 132.199219c-4.140625 0-7.5-3.359375-7.5-7.5v-33.476563c0-4.140625 3.359375-7.5 7.5-7.5 4.144531 0 7.5 3.359375 7.5 7.5v33.476563c0 4.140625-3.355469 7.5-7.5 7.5zm0 0" fill="#c98353"/><path d="m249.890625 428.117188-26.71875-44.1875c-.964844-1.597657-3.320313-1.472657-4.113281.214843l-6.730469 14.332031c-.875 1.863282-3.558594 1.765626-4.296875-.160156-3.355469-8.785156-9.996094-27.035156-12.128906-39.21875-.378906-2.152344-3.261719-2.632812-4.335938-.730468-4.527344 8.042968-7.367187 16.714843-9.105468 22.628906-.605469 2.050781-3.421876 2.289062-4.34375.359375-6.949219-14.511719-21.957032-52.242188-11.601563-86.898438.515625-1.71875 2.710937-2.21875 3.9375-.914062 9.789063 10.441406 31.71875 26.910156 38.84375 31.550781.835937.546875 1.917969.507812 2.707031-.097656 7.5-5.777344 16.472656-18.144532 21.03125-24.277344 1.101563-1.480469 3.402344-1.160156 4.054688.566406 4.039062 10.667969 9.574218 26.199219 12.601562 34.757813.730469 2.074219 3.664063 2.074219 4.398438 0 3.027344-8.558594 8.558594-24.089844 12.597656-34.757813.652344-1.726562 2.953125-2.046875 4.054688-.566406 4.558593 6.132812 13.53125 18.5 21.035156 24.277344.789062.605468 1.867187.644531 2.703125.097656 7.128906-4.640625 29.054687-21.109375 38.847656-31.550781 1.226563-1.304688 3.417969-.804688 3.933594.914062 10.359375 34.65625-4.648438 72.386719-11.597657 86.898438-.925781 1.929687-3.742187 1.691406-4.34375-.359375-1.742187-5.914063-4.578124-14.585938-9.109374-22.628906-1.070313-1.902344-3.957032-1.421876-4.332032.730468-2.132812 12.183594-8.773437 30.433594-12.132812 39.21875-.734375 1.925782-3.417969 2.023438-4.296875.160156l-6.730469-14.332031c-.792969-1.6875-3.148438-1.8125-4.113281-.214843l-26.71875 44.1875c-.90625 1.503906-3.085938 1.503906-3.996094 0zm0 0" fill="#4e5173"/><path d="m200.855469 462.097656c.816406-4.0625-1.8125-8.015625-5.875-8.832031s-8.015625 1.8125-8.828125 5.875c-3.414063 16.980469-19.714844 41.128906-43.195313 52.433594-.261719.125-.515625.269531-.757812.421875h27.140625c17.101562-14.640625 28.378906-34.289063 31.515625-49.898438zm0 0" fill="#c98353"/><path d="m322.359375 475.867188c-.632813-4.09375-4.464844-6.902344-8.558594-6.265626-4.09375.632813-6.898437 4.464844-6.261719 8.558594 1.800782 11.640625 11.136719 24.402344 20.105469 33.835938h22.441407c-8.734376-5.835938-25.929688-24.527344-27.726563-36.128906zm0 0" fill="#c98353"/></svg>