<svg height="512pt" viewBox="-94 0 512 512.00071" width="512pt" xmlns="http://www.w3.org/2000/svg"><path d="m174.441406 51.203125c-3.550781-23.351563-10.6875-45.148437-21.515625-49.03125-27.039062-9.695313-51.195312 16.746094-72.472656 7.996094-4.535156-1.863281-9.507813 1.476562-9.507813 6.378906v12.347656c0 2.902344 1.824219 5.492188 4.546876 6.492188 23.160156 8.519531 42.597656-13.730469 55.910156-8.226563 7.660156 3.167969 10.863281 13.257813 12.183594 26.496094-11.667969 6.414062-19.574219 18.820312-19.574219 33.074219 0 20.835937 16.890625 37.722656 37.726562 37.722656 20.832031 0 37.722657-16.886719 37.722657-37.722656 0-16.375-10.4375-30.3125-25.019532-35.527344zm0 0" fill="#9bc66a"/><path d="m174.441406 51.203125c-3.550781-23.351563-10.6875-45.148437-21.515625-49.03125-9.269531-3.324219-18.207031-2.402344-26.800781-.101563 4.425781-.089843 8.9375.515626 13.53125 2.160157 10.648438 3.820312 17.722656 24.953125 21.332031 47.855469.113281.726562.613281 1.328124 1.296875 1.597656 13.996094 5.511718 23.90625 19.152344 23.90625 35.109375 0 16.503906-10.601562 30.535156-25.367187 35.652343 21.253906.5 38.636719-16.574218 38.636719-37.710937 0-16.378906-10.4375-30.316406-25.019532-35.53125zm0 0" fill="#7ea052"/><path d="m300.675781 512h-277.878906c-2.378906 0-4.308594-1.929688-4.308594-4.308594v-84.882812c0-22.757813 14.125-43.125 35.4375-51.101563l107.8125-40.339843 107.8125 40.34375c21.3125 7.972656 35.4375 28.339843 35.4375 51.097656v84.882812c0 2.378906-1.929687 4.308594-4.3125 4.308594zm0 0" fill="#6e7093"/><path d="m269.550781 371.710938-107.8125-40.34375v9.0625l83.59375 31.277343c21.3125 7.976563 35.4375 28.34375 35.4375 51.101563v84.882812c0 2.378906-1.929687 4.308594-4.3125 4.308594h24.21875c2.382813 0 4.3125-1.929688 4.3125-4.308594v-84.882812c0-22.757813-14.125-43.125-35.4375-51.097656zm0 0" fill="#4e5173"/><path d="m259.746094 512v-51.78125c0-4.144531-3.359375-7.5-7.5-7.5s-7.5 3.355469-7.5 7.5v51.78125zm0 0" fill="#4e5173"/><path d="m78.730469 512v-51.78125c0-4.144531-3.359375-7.5-7.5-7.5-4.144531 0-7.5 3.355469-7.5 7.5v51.78125zm0 0" fill="#4e5173"/><path d="m284.121094 362.472656-108.390625-52.582031h-27.984375l-108.390625 52.582031c-1.886719.914063-1.472657 3.710938.59375 4.042969l52.800781 8.464844c1.417969.226562 2.214844 1.753906 1.59375 3.042969l-19.835938 41.289062c-.933593 1.945312 1.273438 3.898438 3.089844 2.730469l38.101563-24.492188c1.425781-.917969 3.300781.105469 3.300781 1.800781v40.316407c0 2.15625 2.824219 2.960937 3.960938 1.128906l19.335937-31.136719c.992187-1.597656 3.414063-1.230468 3.890625.589844l13.476562 51.519531c.558594 2.132813 3.589844 2.132813 4.148438 0l13.476562-51.519531c.472657-1.820312 2.898438-2.1875 3.890626-.589844l19.335937 31.136719c1.136719 1.832031 3.960937 1.027344 3.960937-1.128906v-40.316407c0-1.695312 1.875-2.71875 3.300782-1.800781l38.101562 24.492188c1.816406 1.167969 4.027344-.785157 3.089844-2.730469l-19.835938-41.289062c-.621093-1.289063.175782-2.816407 1.59375-3.042969l52.800782-8.464844c2.066406-.332031 2.476562-3.128906.59375-4.042969zm0 0" fill="#878cad"/><path d="m284.121094 362.472656-108.390625-52.582031h-27.984375l-24.503906 11.886719h26.046874l102.660157 49.800781 31.578125-5.0625c2.066406-.332031 2.476562-3.128906.59375-4.042969zm0 0" fill="#6e7093"/><path d="m118.996094 284.988281v62.871094c0 23.601563 19.136718 42.738281 42.742187 42.738281s42.738281-19.136718 42.738281-42.738281v-62.871094zm0 0" fill="#f9c295"/><path d="m203.40625 357.402344c.703125-3.070313 1.070312-6.265625 1.070312-9.546875v-62.867188h-85.480468v62.867188c0 .988281.035156 1.96875.101562 2.9375 25.464844 6.628906 49.082032 7.773437 61.128906 7.773437 5.570313 0 13.617188-.246094 23.179688-1.164062zm0 0" fill="#e59f6a"/><path d="m180.980469 79.058594c-12.238281 5.582031-26.25 5.582031-38.488281 0-15.375-7.015625-36.90625-14.394532-52.765626-10.078125-60.097656 16.359375-104.109374 76.066406-85.351562 169.046875 18.144531 89.945312 126.28125 97.539062 157.363281 97.539062s139.21875-7.59375 157.363281-97.539062c18.753907-92.980469-25.253906-152.6875-85.351562-169.046875-15.859375-4.316407-37.390625 3.0625-52.769531 10.078125zm0 0" fill="#ffa436"/><g fill="#cc6d0e"><path d="m233.75 68.980469c-5.050781-1.375-10.675781-1.5625-16.496094-.953125 55.660156 16.464844 96.367188 76.128906 78.980469 168.972656-16.84375 89.941406-117.230469 97.535156-146.085937 97.535156-4.464844 0-10.640626-.179687-17.949219-.820312 12.347656 1.492187 22.769531 1.851562 29.539062 1.851562 31.082031 0 139.21875-7.59375 157.363281-97.539062 18.753907-92.980469-25.253906-152.6875-85.351562-169.046875zm0 0"/><path d="m239.140625 120.941406c1.066406 3.117188 3.976563 5.078125 7.097656 5.078125.804688 0 1.621094-.128906 2.425781-.40625 3.917969-1.335937 6.011719-5.601562 4.671876-9.519531-7.0625-20.667969-16.851563-37.066406-28.753907-48.375-6.675781-.171875-13.863281 1.027344-20.90625 2.941406 14.648438 8.34375 27.214844 26.136719 35.464844 50.28125zm0 0"/><path d="m180.15625 79.40625c4.246094 16.070312 7.398438 38.515625 9.179688 65.515625.257812 3.964844 3.558593 7.007813 7.476562 7.007813.164062 0 .332031-.007813.5-.015626 4.132812-.273437 7.261719-3.84375 6.988281-7.976562-1.902343-28.945312-5.402343-53.058594-10.160156-70.253906-4.667969 1.671875-9.125 3.53125-13.160156 5.375-.273438.125-.550781.230468-.824219.347656zm0 0"/><path d="m142.496094 79.058594c-4.035156-1.839844-8.492188-3.703125-13.160156-5.375-4.753907 17.199218-8.253907 41.3125-10.164063 70.253906-.269531 4.132812 2.859375 7.707031 6.992187 7.976562.167969.011719.335938.019532.5.019532 3.917969 0 7.214844-3.042969 7.476563-7.007813 1.78125-27.003906 4.933594-49.449219 9.179687-65.515625-.277343-.121094-.554687-.226562-.824218-.351562zm0 0"/><path d="m74.8125 125.613281c.804688.277344 1.621094.40625 2.425781.40625 3.121094 0 6.03125-1.960937 7.097657-5.078125 8.25-24.144531 20.816406-41.9375 35.464843-50.28125-7.042969-1.914062-14.226562-3.117187-20.902343-2.941406-11.90625 11.308594-21.695313 27.707031-28.757813 48.375-1.339844 3.917969.753906 8.183594 4.671875 9.519531zm0 0"/></g><path d="m270.914062 146.71875c1.398438-3.632812 6.769532-2.707031 6.882813 1.179688.589844 20.25-1.882813 48.183593-9.890625 52.511718-9.535156 5.152344-53.195312 15.773438-78.847656 13.039063-3.351563-.359375-4.382813-4.738281-1.539063-6.546875 12.179688-7.742188 27.824219-18.335938 28.101563-31.785156.054687-2.609376 2.8125-4.261719 5.144531-3.097657 10.113281 5.050781 15.746094 5.023438 20.953125 6.324219 9.328125 1.054688 19.628906-6.757812 29.195312-31.625zm0 0" fill="#4e5173"/><path d="m52.5625 146.71875c-1.398438-3.632812-6.769531-2.707031-6.882812 1.179688-.589844 20.25 1.882812 48.183593 9.890624 52.511718 9.535157 5.152344 53.191407 15.773438 78.847657 13.039063 3.351562-.359375 4.382812-4.738281 1.539062-6.546875-12.183593-7.742188-27.824219-18.335938-28.105469-31.785156-.054687-2.609376-2.808593-4.261719-5.140624-3.097657-10.117188 5.050781-15.75 5.023438-20.957032 6.324219-9.324218 1.054688-19.625-6.757812-29.191406-31.625zm0 0" fill="#4e5173"/><path d="m159.917969 290.273438-12.171875 19.617187c-.757813 1.222656-2.476563 1.371094-3.425782.289063-6.253906-7.125-25.824218-29.445313-26.378906-30.34375-.566406-.925782-15.257812 9.738281-19.3125 12.703124-.636718.46875-1.472656.539063-2.183594.199219l-49.023437-23.578125c-.535156-.253906-.9375-.722656-1.117187-1.289062l-12.957032-41.359375c-.679687-2.164063 2.03125-3.761719 3.597656-2.117188l25.871094 27.207031c.230469.238282.511719.425782.824219.539063l29.089844 10.535156c.632812.230469 1.339843.148438 1.902343-.21875l16.207032-10.59375c.789062-.515625 1.828125-.453125 2.554687.15625l22.449219 18.957031c.910156.765626 2.273438.644532 3.035156-.273437l21.207032-25.671875c.859374-1.035156 2.445312-1.035156 3.304687 0l21.207031 25.671875c.761719.917969 2.125 1.039063 3.035156.273437l22.449219-18.957031c.726563-.609375 1.761719-.671875 2.554688-.15625l16.207031 10.59375c.5625.367188 1.269531.449219 1.902344.21875l29.089844-10.535156c.3125-.113281.59375-.300781.824218-.539063l25.871094-27.207031c1.5625-1.644531 4.277344-.046875 3.597656 2.117188l-12.957031 41.359375c-.179687.566406-.582031 1.035156-1.117187 1.289062l-49.023438 23.578125c-.710938.339844-1.546875.269531-2.1875-.199219-4.050781-2.96875-18.742188-13.628906-19.308594-12.703124-.554687.898437-20.125 23.21875-26.378906 30.34375-.949219 1.082031-2.667969.933593-3.425781-.289063l-12.171875-19.617187c-.839844-1.351563-2.804688-1.351563-3.640625 0zm0 0" fill="#4e5173"/></svg>