<svg height="511pt" viewBox="-22 0 511 511.99973" width="511pt" xmlns="http://www.w3.org/2000/svg"><path d="m344.992188 355.789062-41.726563-15.613281c37.109375-32.433593 70.355469-66.042969 74.488281-116.402343 4.808594-58.628907-20-128.113282-46.554687-153.003907-26.554688-24.890625-89.949219-55.667969-106.25-61.347656-22.660157-8.863281-57.777344-17.519531-75.929688 4.234375-18.152343 21.753906-73.324219 73.570312-83.574219 76.75-10.246093 3.179688-51.109374-3.609375-60.097656-10.152344-8.660156-6.308594-15.589844 48.257813 71.410156 80.535156-4.351562 20.746094-6.289062 42.523438-4.609374 62.984376 4.132812 50.359374 37.375 83.96875 74.484374 116.402343l-41.726562 15.613281c-23.730469 8.882813-39.457031 31.558594-39.457031 56.898438v94.511719c0 2.652343 2.148437 4.800781 4.796875 4.800781h309.410156c2.648438 0 4.796875-2.148438 4.796875-4.800781v-94.511719c0-25.339844-15.730469-48.015625-39.460937-56.898438zm0 0" fill="#6e7093"/><g fill="#4e5173"><path d="m344.992188 355.789062-41.726563-15.613281c37.109375-32.433593 70.355469-66.042969 74.488281-116.402343 4.808594-58.628907-20-128.113282-46.554687-153.003907-26.554688-24.890625-89.949219-55.667969-106.25-61.347656-15.335938-6-36.375-11.890625-54.003907-8.332031 10.546876 1.65625 20.90625 4.976562 29.484376 8.332031 16.296874 5.679687 79.695312 36.457031 106.25 61.347656 26.554687 24.890625 51.363281 94.375 46.550781 153.003907-3.929688 47.90625-34.203125 80.65625-69.089844 111.652343-2.433594 2.164063-1.695313 6.132813 1.351563 7.273438l34.980468 13.089843c23.734375 8.882813 39.460938 31.558594 39.460938 56.898438v94.511719c0 2.652343-2.148438 4.800781-4.800782 4.800781h24.519532c2.652344 0 4.800781-2.148438 4.800781-4.800781v-94.511719c0-25.339844-15.730469-48.015625-39.460937-56.898438zm0 0"/><path d="m131.671875 454.339844c0-4.140625-3.359375-7.5-7.5-7.5-4.144531 0-7.5 3.359375-7.5 7.5v57.660156h15zm0 0"/><path d="m333.226562 454.339844c0-4.140625-3.355468-7.5-7.5-7.5-4.140624 0-7.5 3.359375-7.5 7.5v57.660156h15zm0 0"/><path d="m76.648438 160.746094c3.210937-15.902344 8.007812-31.742188 14.210937-46.441406 1.609375-3.816407-.179687-8.214844-3.996094-9.824219-3.816406-1.613281-8.214843.175781-9.824219 3.992187-6.210937 14.714844-11.089843 30.53125-14.484374 46.484375 4.402343 1.992188 9.085937 3.929688 14.09375 5.789063zm0 0"/></g><path d="m332.394531 178.808594c0-59.339844-48.105469-93.476563-107.445312-93.476563-59.339844 0-107.445313 34.136719-107.445313 93.476563 0 33.269531 15.136719 62.988281 38.882813 82.691406 3.691406 3.0625 5.855469 7.585938 5.855469 12.382812v22.851563c0 11.359375 8.832031 21.058594 20.1875 21.4375 10.113281.335937 18.6875-6.515625 21-15.835937.160156-.644532 1.070312-.65625 1.230468-.015626 2.253906 9.109376 10.484375 15.863282 20.289063 15.863282 9.804687 0 18.035156-6.753906 20.292969-15.863282.15625-.640624 1.066406-.628906 1.226562.015626 2.3125 9.320312 10.886719 16.171874 21 15.835937 11.355469-.378906 20.1875-10.078125 20.1875-21.4375v-22.851563c0-4.796874 2.164062-9.320312 5.855469-12.382812 23.746093-19.703125 38.882812-49.421875 38.882812-82.691406zm0 0" fill="#e6eff5"/><path d="m224.949219 85.332031c-3.527344 0-7.011719.125-10.449219.363281 54.433594 3.789063 96.996094 37.300782 96.996094 93.113282 0 33.3125-15.175782 63.066406-38.980469 82.773437-3.660156 3.03125-5.757813 7.546875-5.757813 12.300781v22.808594c0 7.832032-4.195312 14.894532-10.53125 18.648438 3.363282 1.964844 7.320313 3.019531 11.535157 2.820312 11.242187-.527344 19.894531-10.214844 19.894531-21.46875v-22.808594c0-4.753906 2.097656-9.269531 5.757812-12.300781 23.800782-19.707031 38.976563-49.460937 38.976563-82.773437.003906-59.339844-48.101563-93.476563-107.441406-93.476563zm0 0" fill="#c5d3d6"/><path d="m295.925781 197.40625c0 17.035156-11.074219 21.160156-24.730469 21.160156-13.660156 0-24.730468-4.125-24.730468-21.160156 0-17.039062 11.070312-35.441406 24.730468-35.441406 13.65625 0 24.730469 18.402344 24.730469 35.441406zm0 0" fill="#4e5173"/><path d="m203.433594 197.40625c0 17.035156-11.070313 21.160156-24.730469 21.160156s-24.730469-4.125-24.730469-21.160156c0-17.039062 11.070313-35.441406 24.730469-35.441406s24.730469 18.402344 24.730469 35.441406zm0 0" fill="#4e5173"/><path d="m237.632812 243.828125c-1.726562 0-3.460937-.59375-4.875-1.804687-5.621093-4.816407-10-4.816407-15.617187 0-3.144531 2.695312-7.882813 2.328124-10.578125-.816407s-2.332031-7.878906.816406-10.574219c11.328125-9.710937 23.808594-9.710937 35.140625 0 3.144531 2.695313 3.507813 7.429688.8125 10.574219-1.484375 1.730469-3.582031 2.621094-5.699219 2.621094zm0 0" fill="#4e5173"/><path d="m461.035156 451.796875c20.957032-70.875-10.957031-144.816406-72.761718-179.570313l-28.339844 49.089844c52.363281 26.601563 87.371094 77.269532 95.160156 133.867188.355469 2.570312 3.945312 2.933594 4.746094.464844.414062-1.277344.8125-2.558594 1.195312-3.851563zm0 0" fill="#d8e6f0"/><path d="m413.976562 290.367188c-7.847656-6.832032-16.433593-12.929688-25.699218-18.140626l-28.34375 49.089844c9.441406 4.796875 18.308594 10.386719 26.566406 16.640625zm0 0" fill="#97aeba"/><path d="m379.046875 282.859375-132.296875 229.140625h-30.542969l139.929688-242.378906zm0 0" fill="#e59f6a"/><path d="m360.621094 242.773438-41.226563 71.402343c-1.214843 2.101563-.492187 4.789063 1.609375 6l31.828125 18.378907c2.101563 1.214843 4.789063.492187 6-1.609376l41.226563-71.402343c1.210937-2.101563.492187-4.789063-1.609375-6l-31.828125-18.378907c-2.101563-1.210937-4.789063-.492187-6 1.609376zm0 0" fill="#bdcdd6"/></svg>