<svg height="512pt" viewBox="-106 0 512 512.00005" width="512pt" xmlns="http://www.w3.org/2000/svg"><path d="m256.003906 374.253906-27.320312-10.226562c-9.582032-3.585938-11.980469-16.082032-4.355469-22.90625 29.835937-26.703125 55.65625-57.75 66.085937-84.503906 18.851563-48.378907 9.457032-146.707032-17.386718-181.769532-27.078125-35.367187-105-56.175781-122.878906-62.003906-26.996094-9.335938-85.296876-18.675781-101.84375-8.273438-16.546876 10.402344 24.910156 30.253907-2.1875 52.648438v.003906c-7.492188 5.40625-13.992188 11.28125-18.851563 17.625-26.84375 35.0625-36.234375 133.390625-17.382813 181.769532 10.425782 26.753906 36.25 57.800781 66.085938 84.503906 7.625 6.824218 5.226562 19.320312-4.359375 22.90625l-27.316406 10.226562c-20.929688 7.828125-34.796875 27.824219-34.796875 50.171875v83.34375c0 2.335938 1.894531 4.230469 4.230468 4.230469h272.84375c2.335938 0 4.230469-1.894531 4.230469-4.230469v-83.34375c0-22.347656-13.871093-42.34375-34.796875-50.171875zm0 0" fill="#ed6161"/><path d="m256.003906 374.253906-27.320312-10.226562c-9.582032-3.585938-11.980469-16.082032-4.355469-22.90625 29.835937-26.703125 55.65625-57.75 66.085937-84.503906 18.851563-48.378907 9.457032-146.707032-17.386718-181.769532-27.078125-35.367187-105-56.175781-122.878906-62.003906-21.476563-7.425781-62.761719-14.855469-87.078126-12.347656 22.316407 1.625 48.140626 6.988281 63.640626 12.347656 17.878906 5.828125 95.804687 26.636719 122.882812 62.003906 26.84375 35.0625 36.234375 133.390625 17.382812 181.769532-10.425781 26.753906-36.25 57.800781-66.085937 84.503906-7.625 6.824218-5.226563 19.320312 4.359375 22.90625l27.316406 10.226562c20.929688 7.828125 34.796875 27.824219 34.796875 50.171875v83.34375c0 2.335938-1.894531 4.230469-4.230469 4.230469h23.4375c2.335938 0 4.230469-1.894531 4.230469-4.230469v-83.34375c0-22.347656-13.871093-42.34375-34.796875-50.171875zm0 0" fill="#ce4545"/><path d="m37.664062 197.398438c0 119.160156 77.777344 168.589843 112.484376 195.398437 34.703124-26.804687 112.484374-76.238281 112.484374-195.398437zm0 0" fill="#aa3535"/><path d="m192.109375 289.105469v75.394531c0 .90625-.03125 1.808594-.085937 2.691406-14.3125 10.359375-28.636719 19.171875-41.875 25.609375-13.242188-6.4375-27.566407-15.25-41.878907-25.609375-.054687-.882812-.085937-1.785156-.085937-2.691406v-75.394531zm0 0" fill="#f9c295"/><path d="m108.183594 327.761719c16.550781 10.789062 35.761718 16.964843 56.253906 16.964843 9.550781 0 18.820312-1.34375 27.671875-3.867187v-51.753906h-83.925781zm0 0" fill="#e59f6a"/><path d="m262.632812 197.398438c0-69.988282-50.363281-126.722657-112.484374-126.722657-62.125 0-112.484376 56.734375-112.484376 126.722657 0 69.988281 50.359376 126.722656 112.484376 126.722656 62.121093 0 112.484374-56.734375 112.484374-126.722656zm0 0" fill="#f9c295"/><path d="m202.328125 85.117188c24.539063 23.246093 40.136719 58.082031 40.136719 97.027343 0 69.988281-50.359375 126.722657-112.484375 126.722657-18.835938 0-36.585938-5.222657-52.179688-14.441407 19.554688 18.53125 44.792969 29.699219 72.347657 29.699219 62.121093 0 112.484374-56.738281 112.484374-126.726562 0-48.765626-24.457031-91.09375-60.304687-112.28125zm0 0" fill="#e59f6a"/><path d="m37.972656 187.980469c45.554688-8.082031 66.511719-52.457031 66.953125-75.621094v-31.015625c-37.183593 18.414062-63.835937 58.839844-66.953125 106.636719zm0 0" fill="#f9dc6a"/><path d="m48.125 55.4375c8.992188-6.199219 20.121094-12.273438 33.351562-18.179688 3.78125-1.6875 5.480469-6.125 3.792969-9.90625-1.691406-3.785156-6.128906-5.480468-9.90625-3.792968-7.5625 3.375-14.507812 6.839844-20.859375 10.375 2.101563 6.671875 1.632813 13.929687-6.378906 21.503906zm0 0" fill="#ce4545"/><path d="m215.082031 466.777344c-29.804687-6.835938-44.976562-35.757813-44.976562-64.152344h-39.917969c0 28.394531-15.171875 57.316406-44.976562 64.152344-29.804688 6.835937-43.890626 28.921875-43.890626 45.222656h217.652344c0-16.300781-14.085937-38.386719-43.890625-45.222656zm0 0" fill="#6e7093"/><path d="m170.105469 402.625h-39.917969c0 19.878906-7.445312 40.003906-22.128906 52.640625v56.734375h84.179687v-56.734375c-14.6875-12.636719-22.132812-32.761719-22.132812-52.640625zm0 0" fill="#e6eff5"/><path d="m192.234375 508.601562c-.992187 0-2-.199218-2.964844-.617187l-84.179687-36.28125c-3.804688-1.640625-5.5625-6.054687-3.921875-9.855469 1.640625-3.804687 6.050781-5.5625 9.855469-3.917968l84.183593 36.28125c3.800781 1.640624 5.558594 6.054687 3.917969 9.855468-1.222656 2.835938-3.988281 4.535156-6.890625 4.535156zm0 0" fill="#4e5173"/><path d="m108.0625 508.601562c-2.90625 0-5.671875-1.699218-6.894531-4.535156-1.640625-3.804687.117187-8.214844 3.921875-9.855468l84.179687-36.28125c3.804688-1.644532 8.214844.113281 9.855469 3.917968 1.636719 3.804688-.117188 8.214844-3.917969 9.855469l-84.183593 36.28125c-.964844.417969-1.972657.617187-2.960938.617187zm0 0" fill="#4e5173"/><path d="m200.488281 434.242188-42.230469-17.136719v-20.214844l42.230469-17.136719c8.800781-3.570312 18.414063 2.90625 18.414063 12.402344v29.6875c0 9.496094-9.617188 15.96875-18.414063 12.398438zm0 0" fill="#3185db"/><path d="m188.578125 414.5h-18.582031c-4.140625 0-7.5-3.359375-7.5-7.5 0-4.144531 3.359375-7.5 7.5-7.5h18.582031c4.144531 0 7.5 3.355469 7.5 7.5 0 4.140625-3.355469 7.5-7.5 7.5zm0 0" fill="#1f6ea3"/><path d="m99.804688 434.242188 42.234374-17.136719v-20.214844l-42.234374-17.136719c-8.796876-3.570312-18.410157 2.90625-18.410157 12.402344v29.6875c0 9.496094 9.613281 15.96875 18.410157 12.398438zm0 0" fill="#3185db"/><path d="m130.296875 414.5h-18.582031c-4.144532 0-7.5-3.359375-7.5-7.5 0-4.144531 3.355468-7.5 7.5-7.5h18.582031c4.144531 0 7.5 3.355469 7.5 7.5 0 4.140625-3.355469 7.5-7.5 7.5zm0 0" fill="#1f6ea3"/><path d="m152.96875 381.808594h-5.644531c-8.96875 0-16.242188 7.273437-16.242188 16.246094v17.886718c0 8.972656 7.273438 16.246094 16.242188 16.246094h5.644531c8.96875 0 16.242188-7.273438 16.242188-16.246094v-17.886718c0-8.972657-7.273438-16.246094-16.242188-16.246094zm0 0" fill="#80b9f9"/><path d="m94.632812 87.167969c5.558594-28.972657 64.253907-45.621094 119.039063-12.320313 52.683594 32.027344 71.449219 107.769532 54.246094 172.449219-.835938 3.140625-4.980469 3.824219-6.746094 1.09375-10.738281-16.578125-26.570313-44.160156-65.167969-60.746094-35.285156-15.164062-117.4375-16.78125-101.371094-100.476562zm0 0" fill="#ffcd34"/><path d="m213.671875 74.847656c-25.605469-15.566406-52.066406-20.214844-73.554687-17.796875 16.320312 1.722657 34.058593 7.253907 51.40625 17.796875 48.230468 29.320313 68.027343 95.273438 57.832031 155.839844 4.753906 6.511719 8.527343 12.625 11.816406 17.703125 1.765625 2.730469 5.910156 2.046875 6.746094-1.09375 17.203125-64.683594-1.558594-140.425781-54.246094-172.449219zm0 0" fill="#e69012"/><g fill="#363b51"><path d="m100.398438 210.488281c-4.144532 0-7.5-3.359375-7.5-7.5v-2c0-4.140625 3.355468-7.5 7.5-7.5 4.140624 0 7.5 3.359375 7.5 7.5v2c0 4.140625-3.359376 7.5-7.5 7.5zm0 0"/><path d="m199.898438 210.488281c-4.144532 0-7.5-3.359375-7.5-7.5v-2c0-4.140625 3.355468-7.5 7.5-7.5 4.140624 0 7.5 3.359375 7.5 7.5v2c0 4.140625-3.359376 7.5-7.5 7.5zm0 0"/><path d="m150.144531 272.292969c-12.878906 0-25.320312-5.390625-34.132812-14.789063-2.835938-3.019531-2.683594-7.765625.335937-10.601562 3.023438-2.832032 7.769532-2.679688 10.601563.339844 6.078125 6.480468 14.316406 10.046874 23.195312 10.046874 8.882813 0 17.121094-3.566406 23.199219-10.046874 2.832031-3.019532 7.582031-3.171876 10.601562-.339844 3.019532 2.835937 3.171876 7.582031.339844 10.601562-8.816406 9.398438-21.261718 14.789063-34.140625 14.789063zm0 0"/></g></svg>