<svg height="511pt" viewBox="0 -52 511.99841 511" width="511pt" xmlns="http://www.w3.org/2000/svg"><path d="m166.539062 191.515625c-2.296874-7.433594-10.191406-11.59375-17.617187-9.300781-8.566406 2.648437-18.71875 1.921875-27.851563-1.996094-8.90625-3.820312-17.027343-10.542969-23.488281-19.445312-3.039062-4.1875-7.960937-12.269532-6.78125-19.324219.367188-2.21875 1.433594-4.925781 2.5625-7.792969 1.191407-3.03125 2.539063-6.464844 3.480469-10.289062 2.949219-12.039063.753906-24.738282-5.328125-35.199219 2.691406-1.152344 5.355469-2.550781 7.898437-4.289063 10.355469-7.097656 16.296876-18.464844 15.5-29.660156-.484374-6.832031-6.410156-11.972656-13.242187-11.488281-6.828125.484375-11.972656 6.414062-11.488281 13.242187.109375 1.507813-.726563 3.367188-2.132813 5.039063-3.488281-5.164063-8.777343-8.984375-14.929687-10.589844-3.453125-10.433594-5.035156-21.632813-4.59375-32.808594.273437-6.839843-5.054688-12.605469-11.894532-12.875-6.820312-.273437-12.605468 5.054688-12.875 11.894531-.535156 13.5 1.28125 27.054688 5.265626 39.789063-3.355469 3.085937-5.882813 7.035156-7.246094 11.476563-7.773438-3.019532-15.207032-7.117188-21.972656-12.160157-5.488282-4.09375-13.253907-2.960937-17.34375 2.527344-4.09375 5.488281-2.960938 13.253906 2.527343 17.347656 13.789063 10.28125 29.800781 17.476563 46.347657 20.851563 4.273437 3.109375 9.527343 4.917968 15.164062 4.925781 2.929688 4.511719 4.210938 10.246094 2.980469 15.269531-.484375 1.980469-1.382813 4.265625-2.335938 6.6875-1.535156 3.902344-3.273437 8.328125-4.128906 13.460938-2.15625 12.914062 1.910156 26.921875 11.769531 40.507812 9.441406 13.011719 21.605469 22.96875 35.183594 28.789063 10.0625 4.316406 20.710938 6.273437 31.089844 5.8125 5.511718-.246094 10.953125-1.171875 16.1875-2.789063 7.429687-2.292968 11.589844-10.183594 9.292968-17.613281zm0 0" fill="#bfea92"/><path d="m345.457031 191.515625c2.300781-7.433594 10.191407-11.59375 17.621094-9.300781 8.5625 2.648437 18.714844 1.921875 27.851563-1.996094 8.90625-3.820312 17.027343-10.542969 23.484374-19.445312 3.039063-4.1875 7.964844-12.269532 6.785157-19.324219-.371094-2.21875-1.433594-4.925781-2.5625-7.792969-1.191407-3.03125-2.542969-6.464844-3.480469-10.289062-2.949219-12.039063-.757812-24.738282 5.324219-35.199219-2.6875-1.152344-5.355469-2.550781-7.894531-4.289063-10.355469-7.097656-16.296876-18.464844-15.5-29.660156.484374-6.832031 6.410156-11.972656 13.242187-11.488281 6.828125.484375 11.96875 6.414062 11.484375 13.242187-.105469 1.507813.730469 3.367188 2.132812 5.039063 3.488282-5.164063 8.78125-8.984375 14.929688-10.589844 3.457031-10.433594 5.039062-21.632813 4.59375-32.808594-.269531-6.839843 5.054688-12.605469 11.894531-12.875 6.824219-.273437 12.605469 5.054688 12.878907 11.894531.535156 13.5-1.28125 27.054688-5.265626 39.789063 3.351563 3.085937 5.878907 7.035156 7.242188 11.476563 7.777344-3.019532 15.207031-7.117188 21.972656-12.160157 5.492188-4.09375 13.253906-2.960937 17.347656 2.527344s2.960938 13.253906-2.527343 17.347656c-13.792969 10.28125-29.800781 17.476563-46.347657 20.851563-4.277343 3.109375-9.527343 4.917968-15.167968 4.925781-2.925782 4.511719-4.210938 10.246094-2.980469 15.269531.488281 1.980469 1.386719 4.265625 2.335937 6.6875 1.535157 3.902344 3.277344 8.328125 4.132813 13.460938 2.15625 12.914062-1.914063 26.921875-11.769531 40.507812-9.441406 13.011719-21.609375 22.96875-35.183594 28.789063-10.0625 4.316406-20.714844 6.273437-31.089844 5.8125-5.515625-.246094-10.957031-1.171875-16.1875-2.789063-7.429687-2.292968-11.59375-10.183594-9.296875-17.613281zm0 0" fill="#bfea92"/><path d="m415.3125 241.550781c5.925781-10.335937 9.332031-22.300781 9.332031-35.066406v-7.175781c0-33.449219-23.257812-61.445313-54.476562-68.75v-31.136719c0-54.632813-44.289063-98.921875-98.921875-98.921875h-30.492188c-54.632812 0-98.921875 44.289062-98.921875 98.921875v31.136719c-31.222656 7.304687-54.476562 35.300781-54.476562 68.75v7.175781c0 12.765625 3.40625 24.730469 9.332031 35.066406-35.703125 5.589844-63.015625 36.476563-63.015625 73.746094v8.046875c0 37.828125 28.300781 69.574219 65.851563 74.136719 104.316406 12.679687 208.632812 12.679687 312.949218 0 37.550782-4.5625 65.855469-36.308594 65.855469-74.136719v-8.046875c0-37.269531-27.316406-68.15625-63.015625-73.746094zm0 0" fill="#bfea92"/><path d="m415.3125 241.550781c5.925781-10.335937 9.332031-22.300781 9.332031-35.066406v-7.175781c0-33.449219-23.257812-61.445313-54.476562-68.75v-31.136719c0-54.632813-44.289063-98.921875-98.921875-98.921875h-24.726563c54.632813 0 98.925781 44.289062 98.925781 98.921875v31.136719c31.21875 7.304687 54.472657 35.300781 54.472657 68.75v7.175781c0 12.769531-3.402344 24.734375-9.328125 35.066406 35.699218 5.589844 63.015625 36.476563 63.015625 73.746094v8.046875c0 37.828125-28.304688 69.574219-65.855469 74.136719-48.035156 5.839843-96.074219 8.980469-144.113281 9.441406 56.28125.542969 112.558593-2.601563 168.835937-9.441406 37.550782-4.5625 65.855469-36.308594 65.855469-74.136719v-8.046875c0-37.269531-27.3125-68.15625-63.015625-73.746094zm0 0" fill="#9bc66a"/><path d="m297.144531 44.238281c-15.105469-1.117187-28.683593 5.699219-37.007812 16.710938-2.0625 2.726562-6.210938 2.726562-8.273438 0-8.324219-11.011719-21.902343-17.828125-37.007812-16.710938-20.773438 1.539063-37.539063 18.367188-39.007813 39.144531-1.753906 24.777344 17.828125 45.421876 42.234375 45.421876 13.757813 0 25.976563-6.566407 33.707031-16.730469 2.132813-2.800781 6.289063-2.800781 8.421876 0 7.730468 10.164062 19.953124 16.730469 33.710937 16.730469 24.402344 0 43.984375-20.644532 42.230469-45.421876-1.46875-20.777343-18.234375-37.605468-39.007813-39.144531zm0 0" fill="#e6eff5"/><path d="m236.960938 92.246094c0 10.425781-8.453126 18.878906-18.882813 18.878906-10.425781 0-18.878906-8.453125-18.878906-18.878906 0-10.429688 8.453125-18.882813 18.878906-18.882813 10.429687 0 18.882813 8.453125 18.882813 18.882813zm0 0" fill="#363b51"/><path d="m312.800781 81.496094c0 10.425781-8.453125 18.878906-18.882812 18.878906-10.425781 0-18.878907-8.453125-18.878907-18.878906 0-10.429688 8.453126-18.882813 18.878907-18.882813 10.429687 0 18.882812 8.453125 18.882812 18.882813zm0 0" fill="#363b51"/><g fill="#9bc66a"><path d="m420.929688 229.09375c-1.375-1.554688-3.378907-2.542969-5.617188-2.542969h-110.78125c-4.144531 0-7.5 3.359375-7.5 7.5s3.355469 7.5 7.5 7.5h110.78125c2.253906-3.929687 4.140625-8.101562 5.617188-12.457031zm0 0"/><path d="m139.050781 234.050781c0-4.140625-3.355469-7.5-7.5-7.5h-41.285156c1.570313 5.285157 3.730469 10.3125 6.421875 15h34.863281c4.140625 0 7.5-3.359375 7.5-7.5zm0 0"/><path d="m178.765625 306.773438c0 10.4375-8.464844 18.902343-18.902344 18.902343s-18.902343-8.464843-18.902343-18.902343 8.464843-18.902344 18.902343-18.902344 18.902344 8.464844 18.902344 18.902344zm0 0"/><path d="m188.351562 184.785156c0 8.699219-7.054687 15.757813-15.757812 15.757813s-15.757812-7.058594-15.757812-15.757813c0-8.703125 7.054687-15.761718 15.757812-15.761718s15.757812 7.058593 15.757812 15.761718zm0 0"/><path d="m385.925781 341.433594c0 8.703125-7.054687 15.757812-15.757812 15.757812s-15.757813-7.054687-15.757813-15.757812 7.054688-15.757813 15.757813-15.757813 15.757812 7.054688 15.757812 15.757813zm0 0"/></g></svg>