<svg height="512pt" viewBox="-30 0 512 512.00047" width="512pt" xmlns="http://www.w3.org/2000/svg"><path d="m1.042969 67.808594 35.894531 133.96875c4.339844 16.1875 20.976562 25.792968 37.164062 21.457031l110.484376-29.605469c16.1875-4.335937 25.792968-20.972656 21.457031-37.160156l-35.898438-133.972656c-4.335937-16.1875-20.976562-25.792969-37.164062-21.453125l-110.480469 29.601562c-16.1875 4.339844-25.796875 20.976563-21.457031 37.164063zm0 0" fill="#e6eff5"/><path d="m206.042969 156.46875-35.898438-133.972656c-4.335937-16.1875-20.976562-25.792969-37.164062-21.453125l-18.371094 4.921875c14.058594-3.765625 28.972656 6.300781 33.308594 22.488281l35.898437 133.96875c4.335938 16.183594-3.542968 32.359375-17.601562 36.128906l18.371094-4.921875c16.1875-4.335937 25.792968-20.972656 21.457031-37.160156zm0 0" fill="#c5d3d6"/><path d="m72.292969 89.417969-7.46875-4.3125 4.3125-7.46875c2.070312-3.585938.84375-8.175781-2.746094-10.246094-3.585937-2.070313-8.171875-.84375-10.242187 2.746094l-4.3125 7.46875-7.472657-4.3125c-3.585937-2.070313-8.171875-.839844-10.242187 2.746093-2.074219 3.585938-.84375 8.171876 2.742187 10.246094l7.472657 4.3125-4.3125 7.46875c-2.074219 3.585938-.84375 8.175782 2.742187 10.246094 1.183594.679688 2.472656 1.003906 3.742187 1.003906 2.59375 0 5.113282-1.34375 6.503907-3.75l4.3125-7.46875 7.46875 4.3125c1.183593.679688 2.472656 1.003906 3.746093 1.003906 2.589844 0 5.113282-1.34375 6.5-3.75 2.074219-3.585937.84375-8.171874-2.746093-10.246093zm0 0" fill="#4e5173"/><path d="m151.515625 68.191406-7.46875-4.3125 4.3125-7.46875c2.070313-3.585937.84375-8.175781-2.746094-10.246094-3.585937-2.070312-8.171875-.839843-10.242187 2.746094l-4.316406 7.46875-7.46875-4.3125c-3.585938-2.074218-8.171876-.84375-10.246094 2.746094-2.070313 3.585938-.839844 8.171875 2.746094 10.242188l7.472656 4.316406-4.3125 7.46875c-2.074219 3.585937-.84375 8.171875 2.742187 10.246094 1.183594.679687 2.472657 1.003906 3.746094 1.003906 2.589844 0 5.109375-1.34375 6.5-3.75l4.3125-7.46875 7.46875 4.3125c1.183594.679687 2.472656 1.003906 3.746094 1.003906 2.589843 0 5.113281-1.34375 6.5-3.75 2.070312-3.585938.84375-8.175781-2.746094-10.246094zm0 0" fill="#4e5173"/><path d="m120.140625 174.085938c-12.484375 3.355468-20.148437-8.636719-18.964844-16.449219.378907-6.636719-1.304687-12.917969-4.949219-18.472657-4.933593-6.175781-4.292968-20.394531 8.199219-23.730468 12.484375-3.355469 20.144531 8.636718 18.964844 16.453125-.378906 6.632812 1.304687 12.914062 4.949219 18.472656 4.929687 6.175781 4.292968 20.390625-8.199219 23.726563zm0 0" fill="#4e5173"/><path d="m113.773438 212.605469 52.980468 197.730469c.296875 1.101562 1.425782 1.753906 2.527344 1.460937l27.15625-7.277344c1.097656-.292969 1.753906-1.425781 1.457031-2.523437l-52.980469-197.734375zm0 0" fill="#f9dc6a"/><path d="m113.765625 212.601562 31.140625-8.34375 6.050781 22.589844-31.140625 8.339844zm0 0" fill="#e5ac51"/><path d="m286.722656 123.984375-47.4375 130.332031c-5.730468 15.746094 2.386719 33.160156 18.136719 38.890625l107.480469 39.121094c15.75 5.730469 33.160156-2.386719 38.894531-18.136719l47.4375-130.328125c5.730469-15.75-2.390625-33.160156-18.136719-38.894531l-107.484375-39.121094c-15.746093-5.730468-33.160156 2.390625-38.890625 18.136719zm0 0" fill="#ffa436"/><g fill="#cc6d0e"><path d="m433.097656 144.96875-17.671875-6.433594c13.699219 4.988282 20.160157 21.796875 14.429688 37.542969l-47.4375 130.332031c-5.730469 15.746094-21.480469 24.46875-35.183594 19.484375l17.671875 6.433594c15.746094 5.730469 33.160156-2.390625 38.890625-18.136719l47.4375-130.328125c5.730469-15.75-2.390625-33.164062-18.136719-38.894531zm0 0"/><path d="m358.292969 304.355469c-3.457031-2.273438-8.109375-1.316407-10.386719 2.144531-6.261719 9.53125-9.820312 13.613281-11.75 15.363281l15.246094 5.550781c3.035156-3.707031 6.03125-8.097656 9.039062-12.671874 2.277344-3.460938 1.316406-8.113282-2.148437-10.386719zm0 0"/><path d="m406.464844 178.902344c3.066406 0 5.945312-1.894532 7.050781-4.945313l1.222656-3.375c3.125-8.582031 5.722657-20.363281 5.355469-30.34375l-17.53125-6.382812c.507812.484375 1.085938.902343 1.730469 1.238281 1.585937 3.257812 1.4375 16.390625-3.652344 30.367188l-1.226563 3.382812c-1.410156 3.894531.601563 8.195312 4.496094 9.609375.839844.304687 1.707032.449219 2.554688.449219zm0 0"/><path d="m337.421875 113.078125c-5.808594 6.65625-11.121094 15.695313-14.214844 24.195313l-1.226562 3.382812c-1.414063 3.894531.597656 8.195312 4.492187 9.609375.847656.304687 1.707032.449219 2.558594.449219 3.066406 0 5.945312-1.894532 7.050781-4.941406l1.222657-3.375c4.757812-13.0625 14.394531-23.894532 18.039062-25.097657.765625.191407 1.535156.25 2.289062.203125l-18.1875-6.621094c-.664062.679688-1.335937 1.410157-2.023437 2.195313zm0 0"/><path d="m287.039062 284.347656c.480469-4.113281-2.464843-7.839844-6.578124-8.320312-4.121094-.484375-7.839844 2.464844-8.324219 6.578125-.605469 5.183593-.785157 10.851562-.535157 15.761719l15.785157 5.746093c-.878907-3.601562-1.347657-11.246093-.347657-19.765625zm0 0"/></g><path d="m296.015625 307.253906-70.015625 192.363282c-.386719 1.070312.164062 2.253906 1.234375 2.644531l13.390625 4.871093 13.027344 4.742188c1.070312.390625 2.253906-.160156 2.644531-1.234375l70.015625-192.359375zm0 0" fill="#81ebc7"/><path d="m296.015625 307.253906-7.875 21.636719 15.328125 5.578125 14.964844 5.449219 7.875-21.636719zm0 0" fill="#50b596"/><path d="m320.484375 209.582031-26.351563-9.589843c-4.742187-1.726563-5.882812-7.914063-2.070312-11.222657l21.796875-18.882812c3.917969-3.394531 10.046875-1.164063 10.867187 3.957031l4.558594 28.476562c.796875 4.984376-4.054687 8.988282-8.800781 7.261719zm0 0" fill="#4e5173"/><path d="m396.699219 237.324219-26.351563-9.59375c-4.746094-1.726563-5.886718-7.914063-2.070312-11.21875l21.792968-18.882813c3.921876-3.398437 10.050782-1.167968 10.871094 3.953125l4.554688 28.476563c.796875 4.984375-4.054688 8.992187-8.796875 7.265625zm0 0" fill="#4e5173"/><path d="m333.042969 255.867188-2.539063 6.96875c-.777344 2.144531-3.148437 3.25-5.292968 2.46875l-11.96875-4.355469c-2.144532-.78125-3.25-3.152344-2.46875-5.296875l2.535156-6.96875-29.179688-10.617188c-2.089844-.761718-4.207031 1.015625-3.851562 3.207032 3.421875 21.191406 17.90625 39.949218 39.507812 47.8125 21.609375 7.863281 44.773438 2.796874 61.015625-11.25 1.667969-1.445313 1.164063-4.160157-.910156-4.914063zm0 0" fill="#4e5173"/></svg>