<svg height="512pt" viewBox="0 -2 512.00033 512" width="512pt" xmlns="http://www.w3.org/2000/svg"><path d="m505.472656 215.757812c-7.78125-24.847656-26.015625-52.292968-49.765625-59.179687-4.230469-1.226563-7.964843 3.070313-6.28125 7.140625 2.191407 5.296875 2.378907 10.988281 1.347657 15.472656-2.476563 10.742188-10.960938 18.925782-20.96875 23.050782-8.113282 3.34375-36.09375 3.421874-51.40625-1.722657-12.714844-4.273437 11.445312 52.421875 11.445312 52.421875 22.140625-11.921875 49.957031-12.648437 72.6875-1.898437 19.4375 9.1875 35.804688 25.054687 43.164062 44.886719.8125 2.1875 4.039063 1.75 4.300782-.570313 2.992187-26.742187 3.476562-54.042969-4.523438-79.601563zm0 0" fill="#6e7093"/><path d="m434.3125 200.046875c-1.457031.824219-2.964844 1.558594-4.511719 2.195313-8.113281 3.34375-36.089843 3.421874-51.402343-1.722657-.402344-.136719-.765626-.210937-1.09375-.226562v18.15625c4.328124 15.226562 12.539062 34.488281 12.539062 34.488281 13.523438-7.28125 29.164062-10.386719 44.46875-9.25zm0 0" fill="#4e5173"/><path d="m6.527344 215.757812c7.78125-24.847656 26.015625-52.292968 49.769531-59.179687 4.226563-1.226563 7.960937 3.070313 6.277344 7.140625-2.191407 5.296875-2.378907 10.988281-1.347657 15.472656 2.476563 10.742188 10.960938 18.925782 20.96875 23.050782 8.113282 3.34375 36.09375 3.421874 51.40625-1.722657 12.714844-4.273437-11.445312 52.421875-11.445312 52.421875-22.140625-11.921875-49.957031-12.648437-72.6875-1.898437-19.4375 9.1875-35.804688 25.054687-43.164062 44.886719-.8125 2.1875-4.039063 1.75-4.300782-.570313-2.992187-26.742187-3.476562-54.042969 4.523438-79.601563zm0 0" fill="#6e7093"/><path d="m100.867188 144.289062v205.675782h310.265624v-205.675782c0-22.386718-18.148437-40.535156-40.535156-40.535156h-229.195312c-22.386719 0-40.535156 18.148438-40.535156 40.535156zm0 0" fill="#bfea92"/><path d="m370.597656 103.753906h-23.992187c22.390625 0 40.539062 18.148438 40.539062 40.535156v205.675782h23.988281v-205.675782c0-22.386718-18.148437-40.535156-40.535156-40.535156zm0 0" fill="#9bc66a"/><path d="m380.445312 54.140625c0 29.898437-24.238281 54.136719-54.136718 54.136719-29.902344 0-54.140625-24.238282-54.140625-54.136719 0-29.902344 24.238281-54.140625 54.140625-54.140625 29.898437 0 54.136718 24.238281 54.136718 54.140625zm0 0" fill="#e6eff5"/><path d="m239.832031 54.140625c0 29.898437-24.238281 54.136719-54.140625 54.136719-29.898437 0-54.136718-24.238282-54.136718-54.136719 0-29.902344 24.238281-54.140625 54.136718-54.140625 29.902344 0 54.140625 24.238281 54.140625 54.140625zm0 0" fill="#e6eff5"/><path d="m357.722656 40.738281c0 9.648438-7.824218 17.46875-17.472656 17.46875s-17.46875-7.820312-17.46875-17.46875c0-9.648437 7.820312-17.46875 17.46875-17.46875s17.472656 7.820313 17.472656 17.46875zm0 0" fill="#80b9f9"/><path d="m185.859375 61.824219c0 9.648437-7.820313 17.472656-17.46875 17.472656s-17.46875-7.824219-17.46875-17.472656c0-9.644531 7.820313-17.46875 17.46875-17.46875s17.46875 7.824219 17.46875 17.46875zm0 0" fill="#80b9f9"/><path d="m256 262.152344c-48.5625 0-87.929688-39.367188-87.929688-87.929688v-3.574218c0-11.859376 9.613282-21.472657 21.472657-21.472657h132.914062c11.859375 0 21.472657 9.613281 21.472657 21.472657v3.574218c0 48.5625-39.367188 87.929688-87.929688 87.929688zm0 0" fill="#ed6161"/><path d="m230.875 188.117188-15.753906-38.941407h42.625l-15.75 38.941407c-2.023438 5-9.101563 5-11.121094 0zm0 0" fill="#e6eff5"/><path d="m310.386719 243.320312-9.871094-37.847656c-1.695313-6.5-10.917969-6.5-12.613281 0l-14.324219 54.921875c13.695313-2.777343 26.230469-8.738281 36.808594-17.074219zm0 0" fill="#e6eff5"/><path d="m458.296875 383.84375v88.140625h-404.59375v-88.140625c0-18.707031 15.175781-33.882812 33.882813-33.882812h336.828124c18.707032 0 33.882813 15.175781 33.882813 33.882812zm0 0" fill="#f8cc7c"/><path d="m458.296875 383.84375v88.140625h-22.953125v-88.140625c0-18.707031-15.164062-33.882812-33.882812-33.882812h22.953124c18.707032 0 33.882813 15.175781 33.882813 33.882812zm0 0" fill="#d3a159"/><path d="m235.808594 409.222656-17.386719 29.953125c-7.503906 12.941407-24.09375 17.34375-37.035156 9.824219-12.941407-7.503906-17.34375-24.09375-9.839844-37.035156l7.324219-12.621094c10.773437-4.722656 21.242187-11.472656 32.144531-8.191406 9.867187 2.964844 15.804687 13.277344 24.792969 18.070312zm0 0" fill="#ed6161"/><path d="m198.082031 427.738281c-1.277343 0-2.574219-.324219-3.757812-1.015625-3.585938-2.078125-4.800781-6.667968-2.722657-10.25l16.140626-27.8125c2.078124-3.582031 6.671874-4.800781 10.253906-2.722656 3.582031 2.082031 4.800781 6.667969 2.71875 10.25l-16.140625 27.816406c-1.390625 2.394532-3.90625 3.734375-6.492188 3.734375zm0 0" fill="#aa3535"/><path d="m370.886719 349.964844c1.34375-4.417969 2.0625-9.105469 2.0625-13.964844 0-26.507812-21.484375-47.996094-47.992188-47.996094-26.507812 0-47.996093 21.488282-47.996093 47.996094 0 4.855469.71875 9.546875 2.0625 13.964844zm0 0" fill="#e6eff5"/><path d="m349.777344 349.964844c.609375-2.003906.9375-4.132813.9375-6.339844 0-12.035156-9.753906-21.789062-21.789063-21.789062-12.035156 0-21.792969 9.753906-21.792969 21.789062 0 2.207031.328126 4.335938.9375 6.339844zm0 0" fill="#4e5173"/><path d="m232.976562 349.964844c1.339844-4.417969 2.0625-9.105469 2.0625-13.964844 0-26.507812-21.488281-47.996094-47.996093-47.996094-26.503907 0-47.996094 21.488282-47.996094 47.996094 0 4.855469.722656 9.546875 2.066406 13.964844zm0 0" fill="#e6eff5"/><path d="m211.867188 349.964844c.609374-2.003906.9375-4.132813.9375-6.339844 0-12.035156-9.757813-21.789062-21.792969-21.789062-12.035157 0-21.789063 9.753906-21.789063 21.789062 0 2.207031.328125 4.335938.9375 6.339844zm0 0" fill="#4e5173"/><path d="m19.058594 477.097656v3.59375c0 14.535156 11.785156 26.320313 26.320312 26.320313h421.242188c14.535156 0 26.320312-11.785157 26.320312-26.320313v-3.59375c0-2.824218-2.289062-5.113281-5.113281-5.113281h-463.65625c-2.824219 0-5.113281 2.289063-5.113281 5.113281zm0 0" fill="#e6eff5"/><path d="m487.828125 471.984375h-27.816406c2.824219 0 5.117187 2.289063 5.117187 5.113281v3.59375c0 14.535156-11.785156 26.320313-26.324218 26.320313h27.816406c14.535156 0 26.320312-11.785157 26.320312-26.320313v-3.59375c0-2.824218-2.289062-5.113281-5.113281-5.113281zm0 0" fill="#c5d3d6"/><path d="m398.378906 392.738281c-4.15625-4.574219-8.882812-8.605469-14.027344-12-.128906-.085937-.257812-.167969-.390624-.25-4.917969-3.199219-10.207032-5.824219-15.757813-7.78125-3.902344-1.375-8.1875.671875-9.566406 4.578125-1.375 3.90625.671875 8.1875 4.578125 9.566406 2.371094.835938 4.679687 1.828126 6.917968 2.957032-8.515624 13.203125-25.945312 20.988281-41.085937 17.464844-4.871094-1.140626-9.714844-3.265626-14.839844-5.515626-8.671875-3.804687-17.628906-7.738281-28.015625-7.46875-8.0625.214844-15.429687 2.949219-22.554687 5.597657-8.582031 3.1875-15.992188 5.9375-22.402344 3.574219-.652344-.246094-1.277344-.527344-1.894531-.855469-3.007813-1.601563-5.871094-4.28125-8.902344-7.117188-4.675781-4.375-9.972656-9.332031-17.257812-11.515625-11.761719-3.542968-22.453126 1.519532-31.886719 5.992188-1.878907.886718-3.648438 1.726562-5.472657 2.523437-2.703124 1.207031-4.933593 2.027344-7.023437 2.597657-8.511719 2.332031-18.195313.230468-25.617187-5.035157.714843-.199219 1.4375-.382812 2.167968-.53125 4.0625-.808593 6.699219-4.761719 5.886719-8.824219-.8125-4.058593-4.757813-6.691406-8.824219-5.886718-5.597656 1.121094-10.972656 3.382812-15.785156 6.523437-.257812.144531-.511719.304688-.753906.484375-.03125.019532-.054688.042969-.082032.0625-5.203124 3.554688-9.695312 8.152344-12.992187 13.472656-2.183594 3.523438-1.097656 8.144532 2.421875 10.328126 1.230469.761718 2.597656 1.125 3.945312 1.125 2.507813 0 4.960938-1.257813 6.382813-3.546876 1.125-1.820312 2.464844-3.511718 3.96875-5.050781 11.425781 10.828125 28.214844 15.460938 43.230469 11.347657 2.835937-.769532 5.75-1.835938 9.136718-3.34375 1.984376-.871094 3.941407-1.796876 5.832032-2.691407 8-3.789062 14.910156-7.0625 21.144531-5.183593 3.925781 1.179687 7.523437 4.542968 11.332031 8.105468 3.609375 3.375 7.335938 6.863282 12.101563 9.40625 1.183593.628906 2.414062 1.183594 3.703125 1.667969 11.671875 4.304687 22.929687.125 32.867187-3.566406 6.25-2.324219 12.15625-4.519531 17.722657-4.664063 7.019531-.203125 14.101562 2.921875 21.59375 6.207032 5.523437 2.425781 11.234374 4.929687 17.460937 6.386718 3.597656.839844 7.257813 1.238282 10.921875 1.238282 18.035156 0 36.0625-9.71875 46-24.902344 1.652344 1.449218 3.234375 2.980468 4.71875 4.609375 1.480469 1.632812 3.511719 2.457031 5.550781 2.457031 1.800781 0 3.605469-.644531 5.042969-1.949219 3.0625-2.785156 3.289062-7.527343.503906-10.59375zm0 0" fill="#d3a159"/></svg>