<svg height="511pt" viewBox="-96 0 511 511.99899" width="511pt" xmlns="http://www.w3.org/2000/svg"><path d="m183.632812 107.132812c-4.140624 0-7.5-3.355468-7.5-7.5v-25.707031c0-4.144531 3.359376-7.5 7.5-7.5 4.144532 0 7.5 3.355469 7.5 7.5v25.707031c0 4.144532-3.355468 7.5-7.5 7.5zm0 0" fill="#d8e6f0"/><path d="m138.792969 111.421875v192.066406h89.679687v-192.066406c0-6.507813-5.273437-11.777344-11.777344-11.777344h-66.125c-6.503906 0-11.777343 5.269531-11.777343 11.777344zm0 0" fill="#80b9f9"/><path d="m216.695312 99.644531h-21.460937c6.503906 0 11.777344 5.269531 11.777344 11.777344v192.066406h21.464843v-192.066406c0-6.507813-5.273437-11.777344-11.78125-11.777344zm0 0" fill="#3185db"/><path d="m197.78125 190.1875c-79.199219-13.964844-153.855469 33.984375-166.75 107.097656l-30.089844 170.652344 137.859375 24.308594 5.789063-32.828125c.53125-3.027344 3.425781-5.011719 6.449218-4.476563.019532.003906.039063.007813.058594.011719 79.203125 13.964844 153.859375-33.984375 166.75-107.097656s-40.863281-143.703125-120.066406-157.667969zm0 0" fill="#e6eff5"/><path d="m211.566406 193.25c58.171875 26.039062 93.867188 85.324219 83.101563 146.367188-12.890625 73.113281-87.546875 121.058593-166.75 107.09375-.019531-.003907-.035157-.007813-.054688-.007813-3.027343-.535156-5.921875 1.449219-6.453125 4.476563l-5.789062 32.824218-113.96875-20.09375-.710938 4.027344 137.859375 24.308594 5.789063-32.828125c.53125-3.023438 3.425781-5.007813 6.453125-4.476563.019531.003906.035156.007813.054687.011719 79.203125 13.964844 153.859375-33.984375 166.75-107.097656 12.128906-68.785157-34.734375-135.339844-106.28125-154.605469zm0 0" fill="#c5d3d6"/><path d="m30.007812 437.460938c-12.691406-2.238282-24.792968 6.234374-27.03125 18.921874l-2.117187 12.023438c-2.238281 12.691406 6.234375 24.792969 18.921875 27.027344 12.691406 2.238281 24.792969-6.234375 27.03125-18.925782l2.117188-12.019531c2.238281-12.691406-6.234376-24.789062-18.921876-27.027343zm0 0" fill="#fdeaaf"/><path d="m75.960938 445.5625c-12.691407-2.238281-24.792969 6.234375-27.027344 18.925781l-2.121094 12.019531c-2.238281 12.691407 6.234375 24.792969 18.925781 27.03125 12.6875 2.234376 24.789063-6.234374 27.027344-18.925781l2.121094-12.023437c2.234375-12.6875-6.238281-24.789063-18.925781-27.027344zm0 0" fill="#f8cc7c"/><path d="m121.914062 453.664062c-12.691406-2.234374-24.792968 6.238282-27.027343 18.925782l-2.121094 12.023437c-2.238281 12.691407 6.234375 24.789063 18.925781 27.027344 12.6875 2.238281 24.789063-6.234375 27.027344-18.925781l2.121094-12.019532c2.234375-12.691406-6.238282-24.792968-18.925782-27.03125zm0 0" fill="#fdeaaf"/><g fill="#4e5173"><path d="m170.109375 304.019531c-24.824219-4.378906-48.496094 12.199219-52.871094 37.023438s12.199219 48.496093 37.023438 52.871093 48.496093-12.199218 52.875-37.023437c4.375-24.824219-12.203125-48.496094-37.027344-52.871094zm0 0"/><path d="m55.585938 330.183594c3.609374-20.484375-5.367188-39.882813-20.855469-48.203125-1.535157 4.960937-2.773438 10.066406-3.699219 15.300781l-12.550781 71.195312c17.828125-2.0625 33.421875-17.410156 37.105469-38.292968zm0 0"/><path d="m89.476562 393.613281c-2.128906 12.074219-9.140624 11.40625-17.671874 9.898438-8.53125-1.503907-15.351563-3.273438-13.222657-15.347657 2.128907-12.070312 11.964844-27.410156 20.496094-25.90625 8.53125 1.503907 12.527344 19.285157 10.398437 31.355469zm0 0"/></g><path d="m175 161.34375c-9.828125 0-17.820312-7.992188-17.820312-17.820312v-8.070313c0-4.144531 3.355468-7.5 7.5-7.5 4.140624 0 7.5 3.355469 7.5 7.5v8.070313c0 1.554687 1.265624 2.820312 2.820312 2.820312 1.558594 0 2.824219-1.265625 2.824219-2.820312v-7.949219c0-10.621094 8.636719-19.257813 19.253906-19.257813h5.511719c4.144531 0 7.5 3.355469 7.5 7.5 0 4.140625-3.355469 7.5-7.5 7.5h-5.511719c-2.347656 0-4.253906 1.910156-4.253906 4.257813v7.949219c0 9.828124-7.996094 17.820312-17.824219 17.820312zm0 0" fill="#3185db"/><path d="m199.691406 287.742188c8.867188 0 16.054688-7.1875 16.054688-16.054688v-36.085938c0-8.867187 7.191406-16.054687 16.058594-16.054687 8.867187 0 16.058593 7.1875 16.058593 16.054687v18.765626c0 8.867187 7.1875 16.054687 16.054688 16.054687 8.867187 0 16.058593-7.1875 16.058593-16.054687v-28.9375c0-3.089844-1.351562-6.03125-3.707031-8.027344-21.5-18.230469-47.964843-30.628906-76.980469-35.742188-1.195312-.210937-2.394531-.410156-3.597656-.59375-6.347656-.980468-12.054687 3.992188-12.054687 10.414063v80.203125c-.003907 8.871094 7.1875 16.058594 16.054687 16.058594zm0 0" fill="#80b9f9"/><path d="m213.390625 49.699219c0 16.433593-13.320313 24.226562-29.757813 24.226562-16.433593 0-29.757812-7.792969-29.757812-24.226562 0-21.84375 15.421875-39.351563 24.0625-47.445313 3.207031-3.003906 8.183594-3.003906 11.394531 0 8.640625 8.09375 24.058594 25.601563 24.058594 47.445313zm0 0" fill="#ffa436"/><path d="m189.332031 2.253906c-3.210937-3.003906-8.1875-3.003906-11.394531 0-.199219.1875-.402344.378906-.609375.574219 5.679687 8.328125 15.25 25.53125 15.25 46.871094 0 14.269531-6.53125 22.023437-15.25 23.820312 2.03125.269531 4.140625.40625 6.304687.40625 16.4375 0 29.757813-7.792969 29.757813-24.226562 0-21.84375-15.417969-39.351563-24.058594-47.445313zm0 0" fill="#cc6d0e"/></svg>