<svg height="512pt" viewBox="0 -10 512 512" width="512pt" xmlns="http://www.w3.org/2000/svg"><path d="m479.050781 287.164062c-4.144531 0-7.5-3.359374-7.5-7.5v-60.4375c0-112.613281-91.617187-204.226562-204.226562-204.226562h-22.648438c-112.609375 0-204.226562 91.613281-204.226562 204.226562v60.4375c0 4.140626-3.355469 7.5-7.5 7.5-4.140625 0-7.5-3.359374-7.5-7.5v-60.4375c0-58.558593 22.804687-113.609374 64.210937-155.015624s96.457032-64.210938 155.015625-64.210938h22.648438c58.558593 0 113.609375 22.804688 155.015625 64.210938s64.210937 96.457031 64.210937 155.015624v60.4375c0 4.140626-3.359375 7.5-7.5 7.5zm0 0" fill="#363b51"/><path d="m494.992188 293.277344h-70.628907v-34.015625h70.628907c9.394531 0 17.007812 7.617187 17.007812 17.007812 0 9.394531-7.613281 17.007813-17.007812 17.007813zm0 0" fill="#9bc66a"/><path d="m17.007812 293.277344h70.628907v-34.015625h-70.628907c-9.394531.003906-17.007812 7.617187-17.007812 17.007812 0 9.394531 7.613281 17.007813 17.007812 17.007813zm0 0" fill="#9bc66a"/><path d="m110.90625 164.992188c-6.144531 0-11.898438 2.933593-15.578125 7.855468-27.949219 37.417969-51.679687 87.757813-51.679687 150.949219 0 128.09375 95.074218 167.34375 212.351562 167.34375s212.351562-39.25 212.351562-167.34375c0-58.027344-27.476562-111.070313-60.613281-151.746094-3.65625-4.488281-9.167969-7.0625-14.957031-7.0625h-281.875zm0 0" fill="#ffb05a"/><path d="m407.738281 172.050781c-3.660156-4.488281-9.167969-7.058593-14.960937-7.058593h-65.753906c3.007812 0 5.871093 2.570312 7.769531 7.058593 17.203125 40.675781 31.472656 93.71875 31.472656 151.75 0 128.089844-49.367187 167.339844-110.265625 167.339844 117.277344 0 212.351562-39.25 212.351562-167.339844 0-58.03125-27.476562-111.074219-60.613281-151.75zm0 0" fill="#f79a34"/><path d="m407.738281 172.050781c-3.660156-4.488281-9.167969-7.058593-14.960937-7.058593h-17.371094c5.097656 0 9.949219 2.570312 13.171875 7.058593 29.175781 40.675781 53.367187 93.71875 53.367187 151.746094 0 127.054687-82.359374 166.691406-184.464843 167.328125-.496094.003906-.988281.015625-1.480469.015625 117.277344 0 212.351562-39.25 212.351562-167.34375 0-58.027344-27.476562-111.070313-60.613281-151.746094zm0 0" fill="#cc6d0e"/><path d="m145.734375 323.796875c0-63.191406 12.320313-113.53125 26.835937-150.949219 1.910157-4.921875 4.898438-7.855468 8.085938-7.855468h-69.75c-6.144531 0-11.898438 2.933593-15.578125 7.855468-27.945313 37.417969-51.675781 87.757813-51.675781 150.949219 0 128.09375 95.070312 167.34375 212.351562 167.34375-60.902344 0-110.269531-39.25-110.269531-167.34375zm0 0" fill="#ffce80"/><g fill="#4e5173"><path d="m384.261719 262.703125-29.796875-39.519531c-.710938-.949219-2.085938-1.070313-2.953125-.265625l-46.4375 42.996093c-1.132813 1.050782-.703125 2.925782.769531 3.382813l41.539062 12.800781c1.183594.363282 2.414063-.425781 2.570313-1.65625l2.191406-16.90625 30.363281 2.367188c1.71875.132812 2.789063-1.824219 1.753907-3.199219zm0 0"/><path d="m127.738281 262.703125 29.796875-39.519531c.710938-.949219 2.085938-1.070313 2.953125-.265625l46.4375 42.996093c1.132813 1.050782.703125 2.925782-.769531 3.382813l-41.539062 12.800781c-1.183594.363282-2.414063-.425781-2.570313-1.65625l-2.191406-16.90625-30.363281 2.367188c-1.71875.132812-2.789063-1.824219-1.753907-3.199219zm0 0"/><path d="m393.753906 332.128906c-16.71875 21.273438-42.980468 38.265625-74.683594 48.085938l-10.863281 21.726562c-2.722656 5.449219-10.5 5.449219-13.222656 0l-7.339844-14.679687c-10.222656 1.476562-20.804687 2.261719-31.644531 2.261719s-21.421875-.785157-31.644531-2.261719l-7.339844 14.679687c-2.726563 5.449219-10.5 5.449219-13.226563 0l-10.859374-21.726562c-31.703126-9.820313-57.964844-26.8125-74.6875-48.085938-1.800782 6.886719-2.753907 14.007813-2.753907 21.296875 0 59.464844 62.910157 107.671875 140.511719 107.671875s140.507812-48.207031 140.507812-107.671875c.003907-7.289062-.949218-14.410156-2.753906-21.296875zm0 0"/><path d="m278.796875 324.960938c0 14.808593-10.988281 2.078124-24.542969 2.078124-13.554687 0-24.542968 12.730469-24.542968-2.078124 0-14.8125 24.542968-31.683594 24.542968-31.683594s24.542969 16.871094 24.542969 31.683594zm0 0"/></g></svg>