<svg height="511pt" viewBox="0 -70 511.99926 511" width="511pt" xmlns="http://www.w3.org/2000/svg"><path d="m495.78125 132.96875c-5.269531 3.042969-11.457031 4.636719-17.988281 4.265625l-75.761719-4.265625c-10.902344-.613281-20.765625-6.683594-26.222656-16.140625-5.460938-9.457031-5.789063-21.03125-.867188-30.78125l34.183594-67.746094c8.058594-15.96875 27.53125-22.378906 43.503906-14.320312 15.964844 8.058593 22.378906 27.53125 14.320313 43.5l-4.753907 9.417969c-3.375 6.695312 1.222657 14.65625 8.707032 15.078124l10.53125.59375c17.859375 1.007813 31.519531 16.296876 30.511718 34.15625-.636718 11.324219-7.023437 20.960938-16.164062 26.242188zm0 0" fill="#ed6161"/><path d="m407.625 105.960938c-2.589844 0-5.109375-1.34375-6.5-3.75-2.070312-3.585938-.84375-8.171876 2.742188-10.246094l23.722656-13.695313c3.585937-2.070312 8.175781-.84375 10.246094 2.746094 2.070312 3.585937.84375 8.171875-2.746094 10.246094l-23.722656 13.695312c-1.179688.679688-2.46875 1.003907-3.742188 1.003907zm0 0" fill="#ce4545"/><path d="m501.933594 81.449219c.503906 2.625.597656 5.410156.214844 8.304687-1.335938 10.121094-8.097657 19.101563-17.242188 24.378906-5.269531 3.042969-11.332031 4.855469-17.597656 4.945313l-72.707032 1.023437c-8.558593.121094-16.207031-3.050781-21.261718-8.625.652344 1.835938 1.472656 3.628907 2.46875 5.351563 5.460937 9.460937 15.320312 15.527344 26.222656 16.140625l75.761719 4.269531c6.527343.367188 12.71875-1.226562 17.988281-4.269531 9.140625-5.277344 15.527344-14.917969 16.164062-26.242188.558594-9.871093-3.375-18.953124-10.011718-25.277343zm0 0" fill="#ce4545"/><path d="m418.261719 143.441406-13.070313 7.546875c-9.886718 5.710938-22.53125 2.324219-28.238281-7.5625l-23.605469-40.890625c-5.710937-9.886718-2.324218-22.527344 7.5625-28.234375l13.074219-7.546875c9.886719-5.710937 22.527344-2.324218 28.238281 7.5625l23.605469 40.890625c5.707031 9.886719 2.320313 22.527344-7.566406 28.234375zm0 0" fill="#ffcd34"/><path d="m425.828125 115.207031-10.996094-19.046875c4.941407 8.5625 2.011719 19.511719-6.550781 24.453125l-17.871094 10.316407c-8.5625 4.945312-19.511718 2.011718-24.453125-6.550782l10.996094 19.046875c5.707031 9.886719 18.351563 13.273438 28.238281 7.566407l13.070313-7.546876c9.886719-5.710937 13.273437-18.351562 7.566406-28.238281zm0 0" fill="#e69012"/><path d="m90.179688 367.140625c5.273437-3.042969 9.746093-7.605469 12.695312-13.445313l34.183594-67.742187c4.917968-9.75 4.59375-21.324219-.867188-30.78125-5.460937-9.460937-15.320312-15.527344-26.222656-16.144531l-75.761719-4.265625c-17.859375-1.003907-33.148437 12.65625-34.1562498 30.511719-1.0039062 17.859374 12.6562498 33.148437 30.5117188 34.15625l10.535156.59375c7.484375.421874 12.082032 8.382812 8.703125 15.078124l-4.75 9.417969c-8.058593 15.964844-1.648437 35.445313 14.320313 43.5 10.128906 5.109375 21.667968 4.398438 30.808594-.878906zm0 0" fill="#ed6161"/><path d="m80.664062 294.734375c-2.59375 0-5.113281-1.34375-6.503906-3.75-2.070312-3.589844-.839844-8.175781 2.746094-10.246094l23.722656-13.695312c3.585938-2.074219 8.171875-.84375 10.246094 2.746093 2.070312 3.585938.839844 8.171876-2.746094 10.242188l-23.722656 13.695312c-1.179688.683594-2.46875 1.007813-3.742188 1.007813zm0 0" fill="#ce4545"/><path d="m136.191406 255.171875c-1.105468-1.914063-2.398437-3.683594-3.835937-5.300781 2.019531 6.925781.839843 14.816406-3.472657 21.925781l-37.546874 61.917969c-3.234376 5.339844-7.847657 9.660156-13.117188 12.703125-9.144531 5.277343-20.265625 6.710937-29.628906 2.929687-2.375-.960937-4.488282-2.199218-6.332032-3.660156 1.941407 9.324219 7.949219 17.707031 17.113282 22.332031 10.128906 5.109375 21.667968 4.402344 30.808594-.878906 5.273437-3.042969 9.746093-7.601563 12.695312-13.445313l34.183594-67.742187c4.917968-9.75 4.59375-21.324219-.867188-30.78125zm0 0" fill="#ce4545"/><path d="m138.011719 305.246094 13.074219-7.546875c9.886718-5.710938 13.273437-18.351563 7.566406-28.238281l-23.609375-40.886719c-5.707031-9.886719-18.347657-13.273438-28.234375-7.566407l-13.074219 7.546876c-9.886719 5.707031-13.273437 18.347656-7.566406 28.238281l23.609375 40.886719c5.707031 9.886718 18.351562 13.273437 28.234375 7.566406zm0 0" fill="#ffcd34"/><path d="m158.652344 269.460938-10.71875-18.5625c4.960937 8.59375 2.015625 19.582031-6.574219 24.542968l-17.757813 10.25c-8.59375 4.960938-19.578124 2.019532-24.542968-6.574218l10.71875 18.5625c5.707031 9.886718 18.351562 13.273437 28.238281 7.566406l13.070313-7.550782c9.886718-5.707031 13.273437-18.347656 7.566406-28.234374zm0 0" fill="#e69012"/><path d="m381.621094 235.917969-145.203125 83.832031c-32.375 18.691406-73.773438 7.601562-92.464844-24.773438l-38.351563-66.429687c-18.691406-32.375-7.597656-73.773437 24.777344-92.464844l145.203125-83.832031c32.375-18.695312 73.773438-7.601562 92.464844 24.773438l38.351563 66.429687c18.691406 32.375 7.597656 73.773437-24.777344 92.464844zm0 0" fill="#ed6161"/><path d="m406.398438 143.453125-10.121094-17.53125c17.648437 30.570313 7.175781 69.660156-23.394532 87.308594l-151.742187 87.609375c-30.570313 17.648437-69.660156 7.175781-87.308594-23.394532l10.121094 17.53125c18.691406 32.375 60.089844 43.464844 92.464844 24.773438l145.203125-83.832031c32.375-18.691407 43.46875-60.089844 24.777344-92.464844zm0 0" fill="#ce4545"/><g fill="#363b51"><path d="m327.160156 130.542969c-3.761718 16.167969-12.890625 32.609375-26.402344 47.207031l.988282 16.488281c.246094 4.132813-4.332032 6.777344-7.789063 4.496094l-9.3125-6.148437c-5.515625 4.34375-11.480469 8.402343-17.863281 12.089843-6.386719 3.683594-12.882812 6.820313-19.402344 9.425781l.667969 11.136719c.246094 4.136719-4.332031 6.78125-7.789063 4.496094l-13.78125-9.097656c-19.402343 4.402343-38.207031 4.085937-54.089843-.738281-2.660157-.804688-5.054688 1.816406-4 4.390624.960937 2.355469 2.085937 4.65625 3.382812 6.902344 20.214844 35.015625 73.648438 42.015625 119.34375 15.632813 45.695313-26.382813 66.347657-76.15625 46.132813-111.171875-1.296875-2.242188-2.726563-4.371094-4.285156-6.382813-1.699219-2.199219-5.167969-1.433593-5.800782 1.273438zm0 0"/><path d="m183.226562 161.160156.777344 20.648438c.25 6.648437 7.886719 10.183594 13.164063 6.136718 4.558593-3.496093 9.488281-6.34375 14.792969-8.542968 6.144531-2.546875 6.902343-10.925782 1.269531-14.46875l-17.496094-10.996094c-5.554687-3.492188-12.753906.664062-12.507813 7.222656zm0 0"/><path d="m258.363281 117.777344.777344 20.652344c.25 6.648437 7.886719 10.183593 13.164063 6.132812 4.558593-3.492188 9.488281-6.339844 14.792968-8.539062 6.144532-2.546876 6.902344-10.929688 1.269532-14.46875l-17.492188-10.996094c-5.558594-3.492188-12.757812.664062-12.511719 7.21875zm0 0"/></g></svg>