<svg height="512pt" viewBox="-104 0 512 512" width="512pt" xmlns="http://www.w3.org/2000/svg"><path d="m255.355469 377.339844-62.460938-23.371094v-59.867188h-82.050781v59.867188l-62.457031 23.371094c-20.460938 7.652344-34.019531 27.203125-34.019531 49.046875v81.476562c0 2.285157 1.855468 4.136719 4.140624 4.136719h266.726563c2.285156 0 4.136719-1.851562 4.136719-4.136719v-81.476562c0-21.84375-13.558594-41.390625-34.015625-49.046875zm0 0" fill="#e6eff5"/><path d="m255.355469 377.339844-62.460938-23.371094v-59.867188h-15.015625v59.867188l57.207032 23.371094c18.734374 7.652344 31.152343 27.203125 31.152343 49.046875v81.476562c0 2.285157-1.695312 4.136719-3.789062 4.136719h22.785156c2.285156 0 4.136719-1.851562 4.136719-4.136719v-81.476562c0-21.84375-13.558594-41.390625-34.015625-49.046875zm0 0" fill="#c5d3d6"/><path d="m227.148438 366.785156-34.253907-12.816406v-59.867188h-82.050781v59.867188l-34.25 12.816406c-.007812.34375-.03125.679688-.03125 1.023438 0 34.777344 33.714844 62.96875 75.308594 62.96875 41.589844 0 75.308594-28.191406 75.308594-62.96875 0-.34375-.023438-.683594-.03125-1.023438zm0 0" fill="#bfea92"/><path d="m227.179688 367.808594c0-.34375-.023438-.683594-.03125-1.023438l-26.453126-9.898437-7.800781-2.917969v-59.867188h-82.050781v46.40625c17.4375 13.089844 38.378906 20.726563 60.902344 20.726563 6.566406 0 12.996094-.664063 19.242187-1.910156l35.828125 14.636719c.234375-2.023438.363282-4.074219.363282-6.152344zm0 0" fill="#9bc66a"/><path d="m280.261719 114.160156c-16.214844-15.851562 6.089843-55.285156-56.574219-77.984375-7.484375-2.710937-20.164062-36.175781-71.816406-36.175781s-64.335938 33.464844-71.820313 36.175781c-62.660156 22.699219-40.359375 62.132813-56.570312 77.984375-35.128907 34.347656-29.511719 91.464844 7.988281 130.0625h240.804688c37.5-38.597656 43.117187-95.714844 7.988281-130.0625zm0 0" fill="#6e7093"/><path d="m96.113281 244.222656c-26.332031-36.191406-35.8125-89.621094-18.667969-126.140625 8.457032-18.015625-12.136718-56.410156 26.191407-86.25 2.523437-1.964843 4.746093-13.738281 11.976562-24.792969-22.375 9.972657-30.277343 27.222657-35.5625 29.136719-6.003906 2.175781-11.21875 4.503907-15.773437 6.949219-35 29.753906-15.226563 63.785156-25.160156 80.867188-20.476563 35.214843-12.730469 84.886718 14.089843 120.230468zm0 0" fill="#e6eff5"/><path d="m280.261719 114.160156c-16.214844-15.851562 6.089843-55.285156-56.574219-77.984375-7.484375-2.710937-20.164062-36.175781-71.816406-36.175781-2.398438 0-4.6875.09375-6.917969.230469 41.875 2.832031 52.730469 33.359375 59.242187 35.945312 57.203126 22.699219 36.84375 62.132813 51.644532 77.984375 32.066406 34.347656 26.941406 91.464844-7.292969 130.0625h23.722656c37.503907-38.597656 43.121094-95.714844 7.992188-130.0625zm0 0" fill="#4e5173"/><path d="m250.53125 244.222656c26.820312-35.34375 34.566406-85.015625 14.089844-120.230468-9.933594-17.085938 9.839844-51.113282-25.160156-80.867188-4.554688-2.445312-9.769532-4.773438-15.773438-6.949219-5.285156-1.914062-13.1875-19.164062-35.5625-29.136719 7.234375 11.054688 9.453125 22.828126 11.976562 24.792969 38.328126 29.839844 17.738282 68.234375 26.195313 86.25 17.144531 36.519531 7.660156 89.949219-18.671875 126.140625zm0 0" fill="#e6eff5"/><path d="m188.132812 7.042969c-.003906 0-.003906-.003907-.007812-.003907 7.234375 11.054688 9.453125 22.828126 11.976562 24.792969 2.140626 1.664063 4.085938 3.359375 5.875 5.074219 54.980469 22.804688 35.21875 61.570312 49.863282 77.253906 6.808594 7.292969 11.921875 15.621094 15.457031 24.570313-1.746094-5.121094-3.953125-10.058594-6.675781-14.738281-9.933594-17.082032 9.839844-51.113282-25.160156-80.867188-7.167969-3.851562-16.371094-7.230469-16.417969-7.257812-.1875-.105469-13.4375-19.253907-34.910157-28.824219zm0 0" fill="#c5d3d6"/><path d="m248.546875 244.222656h1.984375c5.21875-6.875 9.699219-14.292968 13.40625-22.039062-4.191406 7.773437-9.324219 15.199218-15.390625 22.039062zm0 0" fill="#c5d3d6"/><path d="m273.441406 267.785156h-37.292968v-64.882812h37.292968c10.730469 0 19.429688 8.699218 19.429688 19.429687v26.023438c0 10.734375-8.699219 19.429687-19.429688 19.429687zm0 0" fill="#9bc66a"/><path d="m30.296875 267.785156h37.292969v-64.882812h-37.292969c-10.730469 0-19.429687 8.699218-19.429687 19.429687v26.023438c0 10.734375 8.699218 19.429687 19.429687 19.429687zm0 0" fill="#9bc66a"/><path d="m151.871094 157.117188c-60.730469 0-109.964844-47.46875-109.964844 60.699218 0 68.417969 49.234375 123.882813 109.964844 123.882813 60.730468 0 109.960937-55.464844 109.960937-123.882813 0-108.167968-49.230469-60.699218-109.960937-60.699218zm0 0" fill="#bfea92"/><path d="m212.753906 147.898438c14.441406 4.246093 23.164063 21.457031 23.164063 69.917968 0 65.8125-40.1875 119.632813-90.933594 123.636719 2.277344.15625 4.574219.246094 6.886719.246094 60.730468 0 109.960937-55.464844 109.960937-123.882813 0-68.0625-19.496093-74.5-49.078125-69.917968zm0 0" fill="#9bc66a"/><path d="m72.722656 512v-49.703125c0-4.269531-3.460937-7.726563-7.726562-7.726563-4.269532 0-7.726563 3.457032-7.726563 7.726563v49.703125zm0 0" fill="#c5d3d6"/><path d="m246.472656 462.296875c0-4.269531-3.457031-7.726563-7.722656-7.726563-4.269531 0-7.726562 3.457032-7.726562 7.726563v49.703125h15.453124v-49.703125zm0 0" fill="#c5d3d6"/><g fill="#363b51"><path d="m102.121094 225.78125c-4.144532 0-7.5-3.355469-7.5-7.5v-2c0-4.140625 3.355468-7.5 7.5-7.5 4.140625 0 7.5 3.359375 7.5 7.5v2c0 4.144531-3.359375 7.5-7.5 7.5zm0 0"/><path d="m201.621094 225.78125c-4.144532 0-7.5-3.355469-7.5-7.5v-2c0-4.140625 3.355468-7.5 7.5-7.5 4.140625 0 7.5 3.359375 7.5 7.5v2c0 4.144531-3.359375 7.5-7.5 7.5zm0 0"/><path d="m151.867188 278.046875c-12.183594 0-23.613282-2.519531-32.191407-7.09375-3.65625-1.945313-5.039062-6.488281-3.089843-10.144531 1.949218-3.65625 6.492187-5.039063 10.144531-3.089844 6.351562 3.382812 15.511719 5.324219 25.132812 5.324219 9.628907 0 18.792969-1.941407 25.144531-5.324219 3.65625-1.953125 8.199219-.566406 10.144532 3.089844 1.949218 3.65625.566406 8.199218-3.089844 10.144531-8.574219 4.574219-20.011719 7.09375-32.195312 7.09375zm0 0"/></g></svg>