<svg height="512pt" viewBox="-83 0 512 512.001" width="512pt" xmlns="http://www.w3.org/2000/svg"><path d="m303.792969 342.242188-78.738281-29.460938v-75.472656h-103.433594v75.472656l-78.738282 29.460938c-25.792968 9.652343-42.882812 34.296874-42.882812 61.832031v102.710937c0 2.878906 2.335938 5.214844 5.214844 5.214844h336.242187c2.878907 0 5.214844-2.335938 5.214844-5.214844v-102.710937c0-27.535157-17.089844-52.179688-42.878906-61.832031zm0 0" fill="#f8cc7c"/><path d="m303.792969 342.242188-78.738281-29.460938v-75.472656h-23.429688v75.472656l78.738281 29.460938c25.792969 9.652343 42.882813 34.296874 42.882813 61.832031v102.710937c0 2.878906-2.335938 5.214844-5.214844 5.214844h23.425781c2.878907 0 5.214844-2.335938 5.214844-5.214844v-102.710937c0-27.535157-17.089844-52.179688-42.878906-61.832031zm0 0" fill="#d3a159"/><path d="m247.992188 333.53125c-12.503907 28.851562-41.207032 49.046875-74.65625 49.046875-33.449219 0-62.152344-20.195313-74.65625-49.046875-13.210938 43.890625-16.035157 118.769531 13.21875 178.46875h122.878906c29.25-59.699219 26.425781-134.578125 13.214844-178.46875zm0 0" fill="#935d38"/><path d="m253.921875 359.617188c-1.570313-9.496094-3.582031-18.289063-5.929687-26.085938-12.503907 28.851562-41.207032 49.046875-74.65625 49.046875-33.449219 0-62.152344-20.195313-74.65625-49.046875-6.105469 20.289062-9.984376 47.203125-9.511719 76.171875 15.988281 6.628906 33.511719 10.292969 51.898437 10.292969 47.066406 0 88.53125-23.976563 112.855469-60.378906zm0 0" fill="#4e5173"/><path d="m173.335938 382.574219c37.464843 0 68.996093-25.328125 78.457031-59.789063l-26.738281-10.003906v-74.402344c-.445313-.367187-.910157-.710937-1.363282-1.070312h-100.710937c-.453125.359375-.914063.703125-1.359375 1.070312v74.402344l-26.742188 10.003906c9.460938 34.460938 40.992188 59.789063 78.457032 59.789063zm0 0" fill="#f9c295"/><path d="m223.691406 237.308594h-100.710937c-.453125.359375-.914063.703125-1.359375 1.070312v56c20.042968 15.816406 44.445312 25.105469 70.773437 25.105469 12.238281 0 24.054688-2.011719 35.214844-5.746094l-2.554687-.957031v-74.402344c-.445313-.367187-.910157-.710937-1.363282-1.070312zm0 0" fill="#e59f6a"/><path d="m303.191406 218.757812h-37.308594v-64.910156h37.308594c10.734375 0 19.4375 8.703125 19.4375 19.4375v26.035156c0 10.734376-8.703125 19.4375-19.4375 19.4375zm0 0" fill="#e59f6a"/><path d="m43.480469 218.757812h37.308593v-64.910156h-37.308593c-10.734375 0-19.4375 8.703125-19.4375 19.4375v26.035156c0 10.734376 8.703125 19.4375 19.4375 19.4375zm0 0" fill="#e59f6a"/><path d="m296.839844 158.023438c0-76.847657-55.292969-139.140626-123.503906-139.140626-68.207032 0-123.503907 62.292969-123.503907 139.140626 0 76.84375 55.296875 139.136718 123.503907 139.136718 68.210937 0 123.503906-62.292968 123.503906-139.136718zm0 0" fill="#e6eff5"/><path d="m173.335938 18.882812c-2.140626 0-4.265626.0625-6.378907.183594 58.835938 3.738282 105.621094 64.523438 105.621094 138.957032 0 74.433593-46.785156 135.214843-105.621094 138.957031 2.113281.121093 4.242188.179687 6.378907.179687 68.210937 0 123.503906-62.292968 123.503906-139.136718 0-76.847657-55.292969-139.140626-123.503906-139.140626zm0 0" fill="#c5d3d6"/><path d="m154.726562 10.386719v31.984375c0 7.230468 5.859376 13.089844 13.089844 13.089844h11.039063c7.230469 0 13.089843-5.859376 13.089843-13.089844v-31.984375c0-5.738281-4.648437-10.386719-10.386718-10.386719h-16.445313c-5.734375 0-10.386719 4.648438-10.386719 10.386719zm0 0" fill="#935d38"/><path d="m301.777344 103.988281h-8.523438c-7.214844 0-13.0625 5.851563-13.0625 13.066407v11.089843c0 7.214844 5.847656 13.0625 13.0625 13.0625h8.523438c6.804687 0 12.320312-5.515625 12.320312-12.320312v-12.578125c0-6.800782-5.515625-12.320313-12.320312-12.320313zm0 0" fill="#935d38"/><path d="m44.894531 103.988281h8.523438c7.214843 0 13.066406 5.851563 13.066406 13.066407v11.089843c0 7.214844-5.851563 13.0625-13.066406 13.0625h-8.523438c-6.804687 0-12.320312-5.515625-12.320312-12.320312v-12.578125c0-6.800782 5.515625-12.320313 12.320312-12.320313zm0 0" fill="#935d38"/><path d="m254.707031 155.886719c0-13.300781-12.496093-24.082031-27.910156-24.082031-15.417969 0-27.914063 10.78125-27.914063 24.082031s12.496094 24.082031 27.914063 24.082031c15.414063 0 27.910156-10.78125 27.910156-24.082031zm0 0" fill="#4e5173"/><path d="m147.789062 155.886719c0-13.300781-12.496093-24.082031-27.910156-24.082031-15.417968 0-27.914062 10.78125-27.914062 24.082031s12.496094 24.082031 27.914062 24.082031c15.414063 0 27.910156-10.78125 27.910156-24.082031zm0 0" fill="#4e5173"/><path d="m186.699219 201.691406c-1.339844 0-2.695313-.359375-3.921875-1.113281-6.527344-4.019531-12.355469-4.019531-18.882813 0-3.527343 2.167969-8.148437 1.070313-10.316406-2.457031-2.171875-3.527344-1.070313-8.148438 2.457031-10.320313 11.316406-6.964843 23.285156-6.964843 34.601563 0 3.527343 2.171875 4.628906 6.792969 2.457031 10.320313-1.414062 2.300781-3.875 3.570312-6.394531 3.570312zm0 0" fill="#b1bfc4"/><path d="m171.859375 122.621094-33.890625-34.808594c-2.207031-2.269531.015625-5.996094 3.058594-5.128906l31.746094 9.015625c.367187.105469.757812.105469 1.125 0l31.746093-9.015625c3.046875-.867188 5.265625 2.859375 3.058594 5.128906l-33.890625 34.808594c-.808594.828125-2.144531.828125-2.953125 0zm0 0" fill="#ed6161"/><g fill="#b1bfc4"><path d="m197.792969 238.773438h-1.027344c-4.144531 0-7.5-3.355469-7.5-7.5 0-4.140626 3.355469-7.5 7.5-7.5h1.027344c4.144531 0 7.5 3.359374 7.5 7.5 0 4.144531-3.355469 7.5-7.5 7.5zm0 0"/><path d="m197.792969 271.226562h-1.027344c-4.144531 0-7.5-3.355468-7.5-7.5 0-4.140624 3.355469-7.5 7.5-7.5h1.027344c4.144531 0 7.5 3.359376 7.5 7.5 0 4.144532-3.355469 7.5-7.5 7.5zm0 0"/><path d="m149.910156 238.773438h-1.03125c-4.140625 0-7.5-3.355469-7.5-7.5 0-4.140626 3.359375-7.5 7.5-7.5h1.03125c4.140625 0 7.5 3.359374 7.5 7.5 0 4.144531-3.359375 7.5-7.5 7.5zm0 0"/><path d="m149.910156 271.226562h-1.03125c-4.140625 0-7.5-3.355468-7.5-7.5 0-4.140624 3.359375-7.5 7.5-7.5h1.03125c4.140625 0 7.5 3.359376 7.5 7.5 0 4.144532-3.359375 7.5-7.5 7.5zm0 0"/><path d="m231.660156 215.339844h-1.03125c-4.140625 0-7.5-3.359375-7.5-7.5 0-4.144532 3.359375-7.5 7.5-7.5h1.03125c4.140625 0 7.5 3.355468 7.5 7.5 0 4.140625-3.359375 7.5-7.5 7.5zm0 0"/><path d="m248.484375 233.28125h-1.03125c-4.140625 0-7.5-3.355469-7.5-7.5s3.359375-7.5 7.5-7.5h1.03125c4.140625 0 7.5 3.355469 7.5 7.5s-3.359375 7.5-7.5 7.5zm0 0"/><path d="m116.042969 215.339844h-1.027344c-4.144531 0-7.5-3.359375-7.5-7.5 0-4.144532 3.355469-7.5 7.5-7.5h1.027344c4.144531 0 7.5 3.355468 7.5 7.5 0 4.140625-3.355469 7.5-7.5 7.5zm0 0"/><path d="m99.21875 233.28125h-1.03125c-4.140625 0-7.5-3.355469-7.5-7.5s3.359375-7.5 7.5-7.5h1.03125c4.140625 0 7.5 3.355469 7.5 7.5s-3.359375 7.5-7.5 7.5zm0 0"/></g><path d="m103.699219 319.488281-35.488281 13.277344-20.015626 37.816406 23.917969 13.507813-23.917969 35.824218s21.238282 64.550782 48.117188 92.085938h15.585938c-32.667969-66.671875-25.339844-152.277344-8.199219-192.511719zm0 0" fill="#d3a159"/><path d="m250.359375 512c26.882813-27.539062 48.117187-92.089844 48.117187-92.089844l-23.914062-35.824218 23.914062-13.503907-20.015624-37.816406-35.484376-13.28125c17.136719 40.238281 24.464844 125.84375-8.199218 192.515625zm0 0" fill="#d3a159"/><path d="m50.757812 483.894531c-4.140624 0-7.5 3.359375-7.5 7.5v20.605469h15v-20.605469c0-4.140625-3.355468-7.5-7.5-7.5zm0 0" fill="#d3a159"/><path d="m295.914062 483.894531c-4.140624 0-7.5 3.359375-7.5 7.5v20.605469h15v-20.605469c0-4.140625-3.359374-7.5-7.5-7.5zm0 0" fill="#d3a159"/></svg>