<svg height="512pt" viewBox="-63 0 512 512.00042" width="512pt" xmlns="http://www.w3.org/2000/svg"><path d="m295.128906 457.542969 12.328125-69.921875-50.910156-8.976563-12.328125 69.921875c-14.183594-1.289062-27.226562 8.488282-29.746094 22.769532-2.65625 15.058593 7.402344 29.425781 22.464844 32.082031 9.761719 1.71875 19.222656-1.902344 25.398438-8.761719 3.460937 8.558594 11.113281 15.199219 20.875 16.917969 15.0625 2.65625 29.425781-7.402344 32.082031-22.464844 2.515625-14.28125-6.394531-27.925781-20.164063-31.566406zm0 0" fill="#d8e6f0"/><path d="m247.40625 430.375 9.121094-51.746094 50.910156 8.972656-9.125 51.746094zm0 0" fill="#bdcdd6"/><path d="m329.820312 420.519531-105.539062-18.609375c-8.117188-1.429687-13.535156-9.167968-12.101562-17.28125l38-215.511718c4.144531-23.511719 26.566406-39.210938 50.078124-35.066407l49.777344 8.777344c23.515625 4.148437 39.214844 26.570313 35.070313 50.082031l-38 215.507813c-1.433594 8.113281-9.167969 13.53125-17.285157 12.101562zm0 0" fill="#bfea92"/><g fill="#9bc66a"><path d="m350.035156 142.828125-19.480468-3.433594c21.40625 3.777344 35.703124 24.191407 31.929687 45.601563l-38.902344 220.628906c-1.304687 7.390625-8.351562 12.320312-15.738281 11.019531l21.976562 3.875c8.117188 1.429688 15.851563-3.988281 17.285157-12.101562l38-215.507813c4.144531-23.511718-11.554688-45.933594-35.070313-50.082031zm0 0"/><path d="m317.117188 265.96875c-.433594 0-.871094-.039062-1.3125-.117188l-25.457032-4.488281c-4.078125-.71875-6.800781-4.609375-6.082031-8.6875.722656-4.078125 4.605469-6.804687 8.6875-6.082031l25.457031 4.488281c4.078125.71875 6.800782 4.609375 6.082032 8.6875-.640626 3.636719-3.804688 6.199219-7.375 6.199219zm0 0"/><path d="m325.351562 302.664062c-.433593 0-.871093-.039062-1.3125-.117187l-53.976562-9.515625c-4.082031-.71875-6.804688-4.609375-6.085938-8.6875.722657-4.078125 4.605469-6.804688 8.6875-6.085938l53.980469 9.519532c4.078125.71875 6.800781 4.609375 6.082031 8.6875-.640624 3.636718-3.804687 6.199218-7.375 6.199218zm0 0"/></g><path d="m342.453125 190.492188-51.371094-9.058594c-6.75-1.1875-11.253906-7.625-10.066406-14.375l7.921875-44.917969c3.691406-20.9375 23.65625-34.914063 44.589844-31.222656 20.9375 3.691406 34.914062 23.65625 31.222656 44.589843l-7.917969 44.917969c-1.191406 6.75-7.628906 11.257813-14.378906 10.066407zm0 0" fill="#fdeaaf"/><path d="m333.527344 90.917969c-1.929688-.34375-3.851563-.53125-5.753906-.578125 12.46875 4.535156 20.269531 17.488281 17.886718 31.007812l-10.363281 58.761719c-.859375 4.886719-5.519531 8.148437-10.40625 7.289063l17.5625 3.09375c6.75 1.191406 13.1875-3.316407 14.378906-10.066407l7.921875-44.917969c3.6875-20.9375-10.289062-40.898437-31.226562-44.589843zm0 0" fill="#f8cc7c"/><path d="m139.5 297.351562-15.621094-58.292968-42.441406 11.371094 15.617188 58.296874c-11.386719 4.101563-17.925782 16.320313-14.734376 28.222657 3.363282 12.558593 16.269532 20.011719 28.828126 16.648437 8.136718-2.179687 14.125-8.371094 16.421874-15.871094 5.738282 5.347657 14.019532 7.710938 22.15625 5.53125 12.558594-3.363281 20.011719-16.269531 16.644532-28.828124-3.1875-11.90625-14.957032-19.21875-26.871094-17.078126zm0 0" fill="#d8e6f0"/><path d="m81.425781 250.425781 42.445313-11.371093 12.195312 45.519531-42.441406 11.371093zm0 0" fill="#bdcdd6"/><path d="m152.925781 256.367188-87.988281 23.578124c-6.765625 1.8125-13.722656-2.203124-15.53125-8.964843l-48.144531-179.671875c-5.253907-19.601563 6.378906-39.753906 25.984375-45.003906l41.5-11.121094c19.601562-5.253906 39.75 6.382812 45.003906 25.984375l48.140625 179.671875c1.816406 6.761718-2.199219 13.714844-8.964844 15.527344zm0 0" fill="#bfea92"/><path d="m161.890625 240.835938-48.140625-179.667969c-5.253906-19.605469-25.402344-31.238281-45.003906-25.984375l-18.828125 5.042968.453125-.121093c17.640625-4.726563 35.777344 5.742187 40.503906 23.382812l49.421875 184.449219c1.628906 6.085938-1.980469 12.34375-8.070313 13.976562l20.699219-5.546874c6.765625-1.8125 10.78125-8.765626 8.964844-15.53125zm0 0" fill="#9bc66a"/><path d="m63.691406 149.28125c-3.3125 0-6.34375-2.207031-7.238281-5.558594-1.074219-4.003906 1.300781-8.113281 5.304687-9.1875l21.222657-5.683594c3.992187-1.078124 8.109375 1.300782 9.183593 5.300782 1.070313 4.003906-1.300781 8.113281-5.304687 9.1875l-21.222656 5.683594c-.648438.175781-1.304688.257812-1.945313.257812zm0 0" fill="#9bc66a"/><path d="m59.4375 180.96875c-3.3125 0-6.34375-2.210938-7.238281-5.5625-1.074219-4 1.300781-8.113281 5.300781-9.1875l45.003906-12.058594c4-1.074218 8.113282 1.304688 9.183594 5.304688 1.074219 4-1.300781 8.113281-5.300781 9.1875l-45.003907 12.058594c-.648437.171874-1.304687.257812-1.945312.257812zm0 0" fill="#9bc66a"/><path d="m80.027344 74.628906-42.828125 11.472656c-5.628907 1.507813-11.414063-1.832031-12.921875-7.457031l-10.035156-37.449219c-4.675782-17.457031 5.683593-35.394531 23.136718-40.070312 17.453125-4.679688 35.394532 5.679688 40.070313 23.132812l10.035156 37.449219c1.507813 5.628907-1.832031 11.410157-7.457031 12.921875zm0 0" fill="#fdeaaf"/><path d="m87.484375 61.707031-10.035156-37.449219c-4.675781-17.453124-22.617188-27.8125-40.070313-23.132812-1.828125.488281-3.574218 1.132812-5.238281 1.898438 10.425781-.582032 20.1875 6.183593 22.996094 16.671874l13.523437 50.457032c1.035156 3.875-1.261718 7.859375-5.136718 8.898437l16.503906-4.421875c5.625-1.511718 8.964844-7.292968 7.457031-12.921875zm0 0" fill="#f8cc7c"/></svg>