<svg height="512pt" viewBox="-88 0 512 512" width="512pt" xmlns="http://www.w3.org/2000/svg"><path d="m309.632812 183.597656h-24.582031c-15.105469-11.074218-28.875-26.34375-29.164062-34.515625-.179688-4.914062 4.019531-18.59375 7.1875-32.824219 3.582031-16.039062 5.875-32.800781-.851563-38.507812-5.488281-4.65625-15.101562.546875-28.042968 7.945312-16.972657 9.71875-39.6875 23.207032-66.363282 23.207032-26.675781 0-49.390625-13.488282-66.363281-23.207032-12.941406-7.398437-22.558594-12.601562-28.042969-7.945312-6.726562 5.707031-4.433594 22.46875-.851562 38.507812 3.167968 14.230469 7.367187 27.910157 7.1875 32.824219-.292969 8.171875-14.0625 23.441407-29.164063 34.515625h-24.582031c-6.71875-36.382812 7.128906-120.503906 40.300781-153.515625 25.03125-24.910156 77.367188-30.082031 98.515625-30.082031h6c21.148438 0 73.484375 5.171875 98.515625 30.082031 33.171875 33.011719 47.019531 117.132813 40.300781 153.515625zm0 0" fill="#6e7093"/><path d="m269.332031 30.082031c-25.03125-24.910156-77.367187-30.082031-98.515625-30.082031h-6c-1.292968 0-2.707031.0195312-4.21875.0625 20.949219.664062 64.269532 7.183594 85.632813 32.933594 26.046875 31.398437 38.933593 104.929687 37.941406 149.945312.292969.21875.585937.441406.878906.65625h24.582031c6.714844-36.382812-7.128906-120.503906-40.300781-153.515625zm0 0" fill="#4e5173"/><path d="m261.726562 204.570312c12.566407-12.34375 45.234376-42.433593 60.078126-56.066406 2.9375-2.695312 7.558593-.496094 7.492187 3.566406-.390625 23.464844-2.925781 79.566407-18.042969 97.738282-19.300781 23.199218-61.28125 4.640625-60.722656 0 .5625-4.640625-8.476562-25.90625 11.195312-45.238282zm0 0" fill="#e59f6a"/><path d="m73.902344 204.570312c-12.5625-12.34375-45.230469-42.433593-60.078125-56.066406-2.933594-2.695312-7.558594-.496094-7.488281 3.566406.386718 23.464844 2.925781 79.566407 18.042968 97.738282 19.300782 23.199218 61.28125 4.640625 60.71875 0-.558594-4.640625 8.480469-25.90625-11.195312-45.238282zm0 0" fill="#e59f6a"/><path d="m317.53125 418.777344v88.71875c0 2.484375-2.007812 4.503906-4.5 4.503906h-290.429688c-2.492187 0-4.5-2.019531-4.5-4.503906v-88.71875c0-23.785156 14.761719-45.066406 37.035157-53.402344l112.679687-42.164062 112.679688 42.164062c22.273437 8.332031 37.035156 29.617188 37.035156 53.402344zm0 0" fill="#6e7093"/><g fill="#4e5173"><path d="m280.496094 365.371094-112.679688-42.164063-7.457031 2.789063 95.238281 39.375c20.160156 8.335937 33.523438 29.621094 33.523438 53.40625v88.71875c0 2.488281-1.824219 4.503906-4.078125 4.503906h27.988281c2.488281 0 4.507812-2.015625 4.507812-4.503906v-88.71875c-.003906-23.785156-14.765624-45.070313-37.042968-53.40625zm0 0"/><path d="m279.097656 468.898438v43.101562h-15.453125v-43.101562c0-4.265626 3.460938-7.726563 7.722657-7.726563 4.269531 0 7.730468 3.460937 7.730468 7.726563zm0 0"/><path d="m71.988281 468.898438v43.101562h-15.453125v-43.101562c0-4.265626 3.460938-7.726563 7.726563-7.726563s7.726562 3.460937 7.726562 7.726563zm0 0"/></g><path d="m168.652344 276.910156-.550782-.003906c-.015624 0-.011718 0-.019531 0-.089843 0-.175781 0-.265625.003906-.089844 0-.175781-.003906-.265625-.003906-.007812 0-.003906 0-.019531 0l-.550781.003906c-69.152344.136719-147.234375 13.195313-166.980469 34.097656 79.847656 39.570313 168.082031 128.257813 168.082031 132.144532 0-3.886719 87.703125-92.574219 167.550781-132.144532-19.746093-20.902343-97.832031-33.960937-166.980468-34.097656zm-1.101563-.003906c-.007812.003906-.015625.003906-.019531.003906-.109375 0-.027344 0 .019531-.003906zm.550781.003906c-.007812 0-.011718 0-.019531 0v-.003906c.046875.003906.128907.003906.019531.003906zm0 0" fill="#ed6161"/><path d="m335.632812 311.007812c-19.746093-20.902343-97.832031-33.960937-166.980468-34.097656l-.550782-.003906c-.015624 0-.011718 0-.019531 0-.089843 0-.175781 0-.265625.003906-.089844 0-.175781-.003906-.265625-.003906-.007812 0-.003906 0-.019531 0l-.550781.003906c-16.050781.03125-32.585938.761719-48.757813 2.121094.695313.078125 1.214844.144531 1.46875.195312 6.417969 1.292969 12.730469 3.085938 18.910156 5.234376 24.164063 8.390624 49.296876 19.492187 68.285157 37.339843 19.308593 18.148438 24.664062 39.230469 21.574219 63.058594 30.964843-26.242187 69.921874-55.390625 107.171874-73.851563zm-168.082031-34.097656c-.007812 0-.015625 0-.019531 0-.109375 0-.027344-.003906.019531-.003906zm.550781 0c-.007812 0-.011718 0-.019531 0v-.003906c.046875.003906.128907.003906.019531.003906zm0 0" fill="#ce4545"/><path d="m123.144531 276.226562v65.707032c0 24.671875 20 44.671875 44.671875 44.671875s44.671875-20 44.671875-44.671875v-65.707032zm0 0" fill="#c5d3d6"/><path d="m287.554688 197.992188c0 74.503906-53.609376 134.898437-119.738282 134.898437s-119.742187-60.394531-119.742187-134.898437c0-4.375.191406-8.71875.550781-12.984376.660156-.460937 1.308594-.929687 1.960938-1.410156 15.101562-11.074218 28.871093-26.34375 29.160156-34.515625.179687-4.914062-4.019532-18.59375-7.1875-32.824219-3.582032-16.039062-5.875-32.800781.851562-38.507812 5.488282-4.65625 15.101563.546875 28.042969 7.945312 16.972656 9.71875 39.6875 23.207032 66.363281 23.207032 26.675782 0 49.394532-13.488282 66.363282-23.207032 12.941406-7.398437 22.558593-12.601562 28.042968-7.945312 6.726563 5.707031 4.433594 22.46875.851563 38.507812-3.167969 14.230469-7.367188 27.910157-7.1875 32.824219.292969 8.171875 14.0625 23.441407 29.164062 34.515625.648438.480469 1.296875.949219 1.957031 1.410156.359376 4.265626.546876 8.605469.546876 12.984376zm0 0" fill="#f9c295"/><path d="m287.007812 185.007812c-.660156-.460937-1.308593-.929687-1.957031-1.410156-15.105469-11.074218-28.871093-26.34375-29.164062-34.515625-.179688-4.914062 4.019531-18.59375 7.1875-32.824219 3.582031-16.039062 5.875-32.800781-.851563-38.507812-4.390625-3.726562-11.429687-1.132812-20.695312 3.839844 2.863281 7.582031 1.007812 21.367187-1.640625 34.667968-2.828125 14.230469-6.574219 27.910157-6.414063 32.824219.261719 8.171875 12.546875 23.441407 26.019532 34.515625.578124.480469 1.15625.949219 1.746093 1.410156.320313 4.265626.488281 8.609376.488281 12.984376 0 71.921874-44.574218 130.691406-100.734374 134.675781 2.257812.144531 4.53125.222656 6.824218.222656 66.128906 0 119.738282-60.394531 119.738282-134.898437 0-4.378907-.1875-8.71875-.546876-12.984376zm0 0" fill="#e59f6a"/><path d="m209.164062 358.847656c-29.523437.175782-59.089843-6.039062-86.019531-18.140625v1.226563c0 24.671875 20 44.671875 44.671875 44.671875 18.683594 0 34.679688-11.476563 41.347656-27.757813zm0 0" fill="#e6eff5"/><path d="m238.039062 461.578125c0 10.167969-5.542968 19.179687-14.074218 24.769531-9.347656-11.425781-24.472656-18.835937-41.542969-18.835937-4.21875 0-8.328125.449219-12.257813 1.316406-.636718-2.324219-.972656-4.753906-.972656-7.25 0-4.15625.925782-8.113281 2.605469-11.726563 3.203125 1.4375 6.808594 2.238282 10.625 2.238282 13.109375 0 23.734375-9.449219 23.789063-21.136719 17.800781 1.179687 31.828124 14.441406 31.828124 30.625zm0 0" fill="#e69012"/><path d="m97.59375 461.578125c0 10.167969 5.542969 19.179687 14.070312 24.769531 9.351563-11.425781 24.472657-18.835937 41.546876-18.835937 4.21875 0 8.328124.449219 12.257812 1.316406.636719-2.324219.972656-4.753906.972656-7.25 0-4.15625-.929687-8.113281-2.605468-11.726563-3.203126 1.4375-6.808594 2.238282-10.625 2.238282-13.109376 0-23.734376-9.449219-23.789063-21.136719-17.800781 1.179687-31.828125 14.441406-31.828125 30.625zm0 0" fill="#e69012"/><path d="m188.246094 458.652344c0 11.28125-9.144532 20.429687-20.429688 20.429687s-20.429687-9.148437-20.429687-20.429687c0-11.285156 9.144531-20.433594 20.429687-20.433594s20.429688 9.148438 20.429688 20.433594zm0 0" fill="#ffcd34"/><path d="m218.4375 292.824219-32.070312-27.125c10.34375-2.394531 20.058593-6.773438 28.804687-12.773438l8.417969 36.765625c.683594 2.976563-2.820313 5.105469-5.152344 3.132813zm0 0" fill="#e6eff5"/><path d="m149.265625 265.699219-32.074219 27.125c-2.328125 1.96875-5.832031-.15625-5.148437-3.136719l8.417969-36.761719c8.742187 6 18.460937 10.378907 28.804687 12.773438zm0 0" fill="#e6eff5"/><path d="m167.816406 275.550781c-6.230468 0-12.441406-.640625-18.457031-1.910156l-.332031-.074219c-.519532-.113281-1.046875-.230468-1.5625-.355468-11.09375-2.566407-21.667969-7.253907-31.375-13.914063-2.875-1.945313-5.742188-4.136719-8.480469-6.484375-3.242187-2.777344-3.617187-7.652344-.839844-10.890625 2.777344-3.242187 7.65625-3.617187 10.894531-.839844 2.296876 1.964844 4.691407 3.796875 7.125 5.445313 8.152344 5.589844 16.957032 9.5 26.222657 11.644531.476562.117187.90625.210937 1.328125.300781l.277344.0625c9.800781 2.066406 20.53125 2.082032 30.460937-.015625l.183594-.039062c.433593-.09375.871093-.191407 1.304687-.296875 9.320313-2.15625 18.125-6.066406 26.234375-11.628906 2.476563-1.675782 4.875-3.507813 7.164063-5.472657 3.242187-2.777343 8.117187-2.402343 10.894531.835938 2.777344 3.242187 2.402344 8.117187-.835937 10.894531-2.738282 2.347656-5.605469 4.539062-8.523438 6.515625-9.664062 6.628906-20.238281 11.316406-31.390625 13.898437-.46875.113282-1.007813.230469-1.539063.347657l-.234374.054687c-6.078126 1.28125-12.289063 1.921875-18.519532 1.921875zm0 0" fill="#6e7093"/><path d="m221.484375 200.167969c-4.144531 0-7.5-3.359375-7.5-7.5v-1c0-4.144531 3.355469-7.5 7.5-7.5 4.140625 0 7.5 3.355469 7.5 7.5v1c0 4.140625-3.359375 7.5-7.5 7.5zm0 0" fill="#363b51"/><path d="m114.148438 200.167969c-4.140626 0-7.5-3.359375-7.5-7.5v-1c0-4.144531 3.359374-7.5 7.5-7.5 4.140624 0 7.5 3.355469 7.5 7.5v1c0 4.140625-3.355469 7.5-7.5 7.5zm0 0" fill="#363b51"/></svg>