<svg height="512pt" viewBox="-63 0 512 512" width="512pt" xmlns="http://www.w3.org/2000/svg"><path d="m58.503906 158.402344c-2.183594 18.109375-3.34375 36.941406-3.34375 56.273437 0 141.664063 61.824219 256.503907 138.089844 256.503907s138.085938-114.839844 138.085938-256.503907c0-19.332031-1.160157-38.164062-3.339844-56.273437zm0 0" fill="#f9dc6a"/><path d="m327.992188 158.402344h-22.898438c2 18.109375 3.0625 36.941406 3.0625 56.273437 0 137.898438-53.667969 250.363281-120.957031 256.246094 2.003906.160156 4.019531.257813 6.046875.257813 76.265625 0 138.089844-114.839844 138.089844-256.503907 0-19.332031-1.160157-38.164062-3.34375-56.273437zm0 0" fill="#e5ac51"/><path d="m213.742188 0 55.816406 77.277344 58.039062-45.578125c13.253906-10.410157 5.894532-31.699219-10.960937-31.699219zm0 0" fill="#6e7093"/><path d="m327.300781 512h-268.105469c-2.296874 0-4.15625-1.863281-4.15625-4.15625v-81.898438c0-21.957031 13.628907-41.605468 34.191407-49.300781l104.015625-38.921875 104.019531 38.921875c20.5625 7.695313 34.191406 27.34375 34.191406 49.300781v81.898438c0 2.292969-1.863281 4.15625-4.15625 4.15625zm0 0" fill="#6e7093"/><g fill="#4e5173"><path d="m297.265625 376.644531-104.019531-38.921875-12.265625 4.589844 91.75 34.332031c20.566406 7.695313 34.191406 27.34375 34.191406 49.300781v81.898438c0 2.296875-1.859375 4.15625-4.15625 4.15625h24.53125c2.296875 0 4.160156-1.863281 4.160156-4.15625v-81.898438c0-21.957031-13.628906-41.605468-34.191406-49.300781zm0 0"/><path d="m113.648438 512v-49.960938c0-4.269531-3.457032-7.726562-7.722657-7.726562-4.269531 0-7.726562 3.460938-7.726562 7.726562v49.960938zm0 0"/><path d="m288.296875 512v-49.960938c0-4.269531-3.457031-7.726562-7.726563-7.726562-4.265624 0-7.722656 3.460938-7.722656 7.726562v49.960938zm0 0"/></g><path d="m152.011719 292.976562v60.65625c0 22.773438 18.460937 41.234376 41.234375 41.234376 22.777344 0 41.238281-18.460938 41.238281-41.234376v-60.65625zm0 0" fill="#f9c295"/><path d="m152.011719 335.972656c15.554687 9.414063 33.335937 14.769532 52.226562 14.769532 10.488281 0 20.632813-1.652344 30.246094-4.726563v-53.039063h-82.472656zm0 0" fill="#e59f6a"/><path d="m291.113281 260.796875c-18.5 39.601563-55.390625 66.59375-97.867187 66.59375-42.066406 0-78.660156-26.484375-97.335938-65.464844 16.628906-19.644531 22.199219-45.59375 23.863282-78.777343h53.261718c10.269532 32.078124 51.804688 60.765624 118.078125 77.648437zm0 0" fill="#f9c295"/><path d="m383.949219 172.925781-63.507813-41.148437-64.070312-118.125c-4.5625-8.414063-13.363282-13.652344-22.933594-13.652344h-80.378906c-9.570313 0-18.371094 5.238281-22.933594 13.652344l-64.070312 118.125-63.507813 41.148437c-4.648437 3.007813-2.515625 10.222657 3.023437 10.222657h375.355469c5.539063 0 7.671875-7.214844 3.023438-10.222657zm0 0" fill="#6e7093"/><path d="m383.949219 172.925781-63.507813-41.148437-64.070312-118.125c-4.5625-8.414063-13.363282-13.652344-22.933594-13.652344h-26.785156c8.46875 0 16.261718 5.238281 20.300781 13.652344l56.714844 118.125 56.222656 41.148437c4.113281 3.007813 2.222656 10.222657-2.675781 10.222657h43.710937c5.539063 0 7.671875-7.214844 3.023438-10.222657zm0 0" fill="#4e5173"/><path d="m81.398438 103.484375-15.34375 28.292969h254.386718l-15.34375-28.292969zm0 0" fill="#b78358"/><path d="m305.097656 103.484375h-35.011718l13.582031 28.292969h36.773437zm0 0" fill="#935d38"/><path d="m208.359375 144.898438h-30.222656c-9.695313 0-17.550781-7.859376-17.550781-17.554688v-19.425781c0-9.695313 7.855468-17.554688 17.550781-17.554688h30.222656c9.695313 0 17.554687 7.859375 17.554687 17.554688v19.425781c0 9.695312-7.859374 17.554688-17.554687 17.554688zm0 0" fill="#ffcd34"/><path d="m258.628906 512c-7.921875-40.738281-38.019531-96.121094-65.382812-117.132812-27.359375 21.011718-57.457032 76.394531-65.378906 117.132812zm0 0" fill="#b1bfc4"/><path d="m210.128906 394.867188c0 9.324218-7.558594 16.878906-16.882812 16.878906-9.320313 0-16.878906-7.554688-16.878906-16.878906 0-9.320313 7.558593-16.878907 16.878906-16.878907 9.324218 0 16.882812 7.558594 16.882812 16.878907zm0 0" fill="#bfea92"/><path d="m143.496094 225.78125c-4.140625 0-7.5-3.355469-7.5-7.5v-2c0-4.140625 3.359375-7.5 7.5-7.5 4.144531 0 7.5 3.359375 7.5 7.5v2c0 4.144531-3.355469 7.5-7.5 7.5zm0 0" fill="#363b51"/><path d="m193.242188 278.046875c-12.179688 0-23.609376-2.519531-32.1875-7.09375-3.65625-1.945313-5.039063-6.488281-3.089844-10.144531 1.945312-3.65625 6.488281-5.042969 10.144531-3.089844 6.351563 3.382812 15.511719 5.324219 25.136719 5.324219s18.789062-1.941407 25.144531-5.324219c3.652344-1.953125 8.195313-.566406 10.144531 3.089844 1.949219 3.65625.5625 8.199218-3.089844 10.144531-8.582031 4.574219-20.015624 7.09375-32.203124 7.09375zm0 0" fill="#363b51"/></svg>