<svg height="512pt" viewBox="-83 0 512 512" width="512pt" xmlns="http://www.w3.org/2000/svg"><path d="m279.0625 67.339844h-212.378906c-27.089844 64.273437-66.683594 94.714844-66.683594 174.707031 0 54.996094 39.898438 85.851563 84.609375 102.695313 44.707031 16.84375 78.863281 19.976562 88.261719 19.976562 9.402344 0 43.554687-3.132812 88.265625-19.976562 44.707031-16.84375 84.605469-47.699219 84.605469-102.695313 0-79.992187-39.59375-110.433594-66.679688-174.707031zm0 0" fill="#f9dc6a"/><path d="m279.0625 67.339844h-21.78125c26.667969 56.597656 61.46875 88.039062 61.46875 163.03125 0 54.996094-39.898438 85.851562-84.605469 102.695312-44.710937 16.84375-78.863281 19.976563-88.265625 19.976563-9.082031 0-41.265625-2.925781-83.746094-18.308594 7.230469 3.78125 14.777344 7.109375 22.476563 10.007813 44.707031 16.84375 78.863281 19.976562 88.261719 19.976562 9.402344 0 43.554687-3.132812 88.265625-19.976562 44.707031-16.84375 84.605469-47.699219 84.605469-102.695313 0-79.992187-39.59375-110.433594-66.679688-174.707031zm0 0" fill="#e5ac51"/><path d="m308.367188 512h-270.988282c-2.320312 0-4.203125-1.882812-4.203125-4.203125v-82.777344c0-22.191406 13.773438-42.054687 34.558594-49.832031l105.136719-39.34375 105.140625 39.34375c20.785156 7.777344 34.558593 27.636719 34.558593 49.832031v82.777344c0 2.320313-1.882812 4.203125-4.203124 4.203125zm0 0" fill="#c8e7f7"/><g fill="#accfdd"><path d="m278.011719 375.1875-105.140625-39.34375-11.589844 4.339844 93.550781 35.003906c20.785157 7.777344 34.558594 27.640625 34.558594 49.832031v82.777344c0 2.320313-1.882813 4.203125-4.203125 4.203125h23.179688c2.320312 0 4.203124-1.882812 4.203124-4.203125v-82.777344c0-22.191406-13.773437-42.054687-34.558593-49.832031zm0 0"/><path d="m93.320312 512v-49.671875c0-4.144531-3.355468-7.5-7.5-7.5-4.140624 0-7.5 3.355469-7.5 7.5v49.671875zm0 0"/><path d="m268.636719 512v-50.5c0-4.140625-3.359375-7.5-7.5-7.5s-7.5 3.359375-7.5 7.5v50.5zm0 0"/></g><path d="m276.667969 246.183594c-11.300781 31.890625-33.855469 57.355468-62.117188 70.171875-12.878906 5.839843-26.941406 9.046875-41.679687 9.046875-14.738282 0-28.796875-3.214844-41.675782-9.054688-27.648437-12.523437-49.824218-37.15625-61.367187-68.074218 2.371094-19.125 8.179687-37.039063 14.78125-48.738282 12.492187-22.175781 47.253906-24.246094 84.304687-24.246094 36.902344 0 43.304688-33.234374 45.636719-53.101562 15.988281 9.671875 59.097657 63.550781 62.117188 123.996094zm0 0" fill="#bdcdd6"/><path d="m256.84375 176.714844c.636719 5.398437.972656 10.90625.972656 16.503906 0 68.554688-49.332031 124.132812-110.183594 124.132812-6.035156 0-11.953124-.554687-17.722656-1.609374.429688.203124.855469.410156 1.285156.605468 12.878907 5.839844 26.9375 9.054688 41.675782 9.054688 14.738281 0 28.800781-3.207032 41.679687-9.046875 28.261719-12.816407 50.816407-38.28125 62.117188-70.171875-1.257813-25.210938-9.492188-49.273438-19.824219-69.46875zm0 0" fill="#97aeba"/><path d="m276.671875 246.183594c-1.410156 3.976562-2.996094 7.847656-4.746094 11.617187-17.761719 5.644531-36.347656 9.109375-54.816406 11.828125-43.621094 6.417969-87.792969 9.097656-131.863281 7.992188-6.242188-8.890625-11.457032-18.75-15.421875-29.347656.679687-5.484376 1.648437-10.871094 2.832031-16.042969 13.730469 1.351562 27.597656 1.617187 41.382812 1.125 29.90625-1.082031 59.5625-5.6875 89.128907-10.292969 22.480469-3.503906 45.277343-7.097656 66.652343-14.578125 3.699219 12.015625 6.203126 24.707031 6.851563 37.699219zm0 0" fill="#d8e6f0"/><path d="m269.820312 208.488281c-4.394531 1.539063-8.851562 2.902344-13.347656 4.144531-2.773437 19.890626-9.742187 38.207032-19.847656 53.773438 11.941406-2.214844 23.792969-4.945312 35.300781-8.601562.871094-1.882813 1.703125-3.785157 2.492188-5.71875.792969-1.941407 1.542969-3.90625 2.25-5.902344-.632813-12.675782-3.054688-25.316406-6.847657-37.695313zm0 0" fill="#bdcdd6"/><path d="m226.523438 219.234375c-7.777344 1.398437-15.585938 2.617187-23.351563 3.832031-29.566406 4.605469-59.226563 9.207032-89.132813 10.289063-13.785156.496093-27.648437.230469-41.382812-1.121094 2.9375-12.847656 7.242188-24.351563 11.949219-32.699219 8.398437-14.90625 26.867187-20.726562 49.328125-22.929687 17.984375 14.976562 39.09375 26.382812 61.242187 34.085937 10.25 3.574219 20.726563 6.386719 31.347657 8.542969zm0 0" fill="#6e7093"/><path d="m75.460938 117.9375c.660156 1.125 2.179687 1.359375 3.171874.511719 24.039063-20.539063 57.378907-33.269531 94.238282-33.269531s70.203125 12.730468 94.238281 33.269531c.996094.847656 2.511719.613281 3.175781-.511719 8.953125-15.277344 16.683594-31.308594 22.441406-47.492188 1.144532-3.214843.707032-6.800781-1.238281-9.605468-25.382812-36.648438-69.027343-60.839844-118.617187-60.839844-49.585938 0-93.230469 24.191406-118.613282 60.839844-1.945312 2.804687-2.382812 6.390625-1.238281 9.605468 5.757813 16.183594 13.484375 32.214844 22.441407 47.492188zm0 0" fill="#e6eff5"/><path d="m291.488281 60.839844c-7.882812-11.382813-17.53125-21.558594-28.566406-30.1875 3.511719 4.070312 6.820313 8.304687 9.875 12.714844 2.152344 3.109374 2.636719 7.078124 1.371094 10.640624-6.292969 17.683594-14.71875 35.203126-24.46875 51.921876 6.222656 3.75 12.046875 7.9375 17.410156 12.519531.992187.847656 2.511719.613281 3.171875-.511719 8.957031-15.277344 16.683594-31.308594 22.441406-47.492188 1.148438-3.214843.707032-6.800781-1.234375-9.605468zm0 0" fill="#c5d3d6"/><path d="m185.203125 34.363281h-7.964844v-7.96875c0-4.140625-3.359375-7.5-7.5-7.5s-7.5 3.359375-7.5 7.5v7.96875h-7.96875c-4.140625 0-7.5 3.355469-7.5 7.5s3.359375 7.5 7.5 7.5h7.96875v7.964844c0 4.144531 3.359375 7.5 7.5 7.5s7.5-3.355469 7.5-7.5v-7.964844h7.964844c4.144531 0 7.5-3.355469 7.5-7.5s-3.355469-7.5-7.5-7.5zm0 0" fill="#ed6161"/><path d="m214.632812 332.164062h-83.457031c-13.597656 0-26 7.761719-31.941406 19.992188l-40.515625 83.367188h47.980469l51.863281 24.707031h28.679688l51.863281-24.707031h47.980469l-40.515626-83.367188c-5.9375-12.230469-18.339843-19.992188-31.9375-19.992188zm0 0" fill="#e6eff5"/><path d="m214.550781 351.441406v-35.082031c-12.878906 5.835937-26.941406 9.042969-41.679687 9.042969-14.738282 0-28.796875-3.214844-41.675782-9.054688v35.09375l-4.699218 1.757813c-10.800782 4.042969-17.253906 15.082031-15.585938 26.492187 4.339844 29.632813 20.652344 64.9375 61.960938 96.769532 41.3125-31.832032 57.625-67.136719 61.960937-96.769532 1.671875-11.410156-4.78125-22.449218-15.582031-26.492187zm0 0" fill="#f9c295"/><path d="m214.550781 343.019531v-26.664062c-12.878906 5.839843-26.941406 9.046875-41.679687 9.046875-14.738282 0-28.796875-3.214844-41.675782-9.054688v13.121094c4.710938 3.109375 9.644532 5.847656 14.765626 8.167969 12.878906 5.839843 26.9375 9.054687 41.675781 9.054687 9.285156 0 18.292969-1.273437 26.914062-3.671875zm0 0" fill="#e59f6a"/><path d="m273.996094 224.910156c-26.828125-1.175781-53.5-5.398437-78.820313-14.21875-22.148437-7.707031-43.257812-19.109375-61.242187-34.089844 10.949218-1.089843 22.847656-1.304687 34.984375-1.304687 36.898437 0 43.308593-33.246094 45.636719-53.109375 14.082031 8.523438 49.199218 51.335938 59.441406 102.722656zm0 0" fill="#bdcdd6"/><path d="m257.816406 193.21875c0 10.441406-1.152344 20.582031-3.304687 30.269531 6.464843.667969 12.960937 1.132813 19.464843 1.417969-3.285156-16.492188-9.285156-32.84375-17.128906-48.175781.632813 5.394531.96875 10.894531.96875 16.488281zm0 0" fill="#97aeba"/><path d="m135.277344 205.378906c0 7.699219-6.242188 13.941406-13.941406 13.941406-7.699219 0-13.941407-6.242187-13.941407-13.941406 0-7.699218 6.242188-13.941406 13.941407-13.941406 7.699218 0 13.941406 6.242188 13.941406 13.941406zm0 0" fill="#bfea92"/></svg>