<svg height="512pt" viewBox="-49 0 512 512.00044" width="512pt" xmlns="http://www.w3.org/2000/svg"><path d="m207.289062 441.285156c-138.082031 0-173.78125-48.152344-179.402343-79.265625-.5-2.777343 1.320312-5.453125 4.085937-6.015625 30.921875-6.3125 30.621094-55.597656 20.449219-95.539062-10.671875-41.902344-23.863281-113.320313 8.417969-179.25 32.277344-65.929688 113.652344-70.570313 146.449218-41.675782 32.792969-28.894531 114.167969-24.257812 146.449219 41.671876 32.277344 65.933593 19.085938 137.347656 8.414063 179.253906-10.171875 39.941406-10.472656 89.222656 20.449218 95.535156 2.765626.5625 4.585938 3.242188 4.085938 6.015625-5.617188 31.117187-41.320312 79.269531-179.398438 79.269531zm0 0" fill="#6e7093"/><path d="m362.152344 260.464844c10.671875-41.90625 23.863281-113.320313-8.414063-179.25-22.105469-45.148438-67.230469-61.550782-104.015625-58.128906 29.71875 2.953124 61.429688 21.179687 78.40625 60.023437 29.746094 68.0625 17.589844 141.789063 7.757813 185.046875-9.304688 40.917969-9.648438 91.328125 18.191406 98.46875 2.933594.753906 4.878906 3.542969 4.390625 6.535156-2.519531 15.367188-11.398438 34.726563-33.882812 50.734375 43.621093-16.851562 58.617187-42.613281 62.097656-61.863281.503906-2.78125-1.308594-5.464844-4.078125-6.03125-30.925781-6.3125-30.625-55.59375-20.453125-95.535156zm0 0" fill="#4e5173"/><path d="m310.980469 377.070312-62.585938-23.417968v-59.988282h-82.214843v59.988282l-62.585938 23.417968c-20.496094 7.671876-34.082031 27.257813-34.082031 49.144532v81.640625c0 2.289062 1.855469 4.144531 4.144531 4.144531h267.261719c2.289062 0 4.144531-1.855469 4.144531-4.144531v-81.640625c0-21.886719-13.582031-41.476563-34.082031-49.144532zm0 0" fill="#f9c295"/><path d="m310.980469 377.070312-62.585938-23.417968v-59.988282h-15.542969v47.476563c0 7.566406 4.574219 14.382813 11.574219 17.253906l45.574219 18.675781c18.71875 7.671876 31.121094 27.257813 31.121094 49.144532v81.640625c0 2.289062-1.695313 4.144531-3.785156 4.144531h23.582031c2.289062 0 4.144531-1.855469 4.144531-4.144531v-81.640625c0-21.886719-13.582031-41.476563-34.082031-49.144532zm0 0" fill="#e59f6a"/><path d="m166.179688 333.25c16.796874 11.667969 36.578124 18.414062 57.761718 18.414062 8.40625 0 16.589844-1.070312 24.453125-3.078124v-54.925782h-82.214843zm0 0" fill="#e59f6a"/><path d="m297.066406 275.820312c-19.972656 31.566407-52.742187 52.148438-89.777344 52.148438-37.035156 0-69.808593-20.582031-89.78125-52.148438 35.808594-34.109374 18.078126-106.5 14.0625-127-12.34375-62.933593 59.75-54.96875 75.71875-20.5625 15.964844-34.40625 88.058594-42.371093 75.714844 20.5625-4.015625 20.5-21.746094 92.890626 14.0625 127zm0 0" fill="#f9c295"/><path d="m277.28125 236.171875c-9.808594 49.355469-41.519531 86.542969-80.152344 91.273437 3.347656.34375 6.734375.523438 10.160156.523438 37.035157 0 69.804688-20.582031 89.777344-52.148438-10.996094-10.476562-16.9375-24.5625-19.785156-39.648437zm0 0" fill="#e59f6a"/><path d="m397.585938 44.746094c-11.753907 24.167968-23.589844 41.488281-35.027344 53.992187-16.820313 18.390625-32.757813 26.351563-46.261719 30.328125-10.519531-21.457031-30.238281-47.851562-57.878906-65.394531 15.628906-19.089844 33.851562-36.046875 51.675781-47.65625 20.511719-13.351563 40.496094-19.613281 55.402344-13.898437 12.011718 4.605468 23.355468 22.429687 32.089844 42.628906zm0 0" fill="#cf579c"/><path d="m322.78125 99.253906c-7.1875-10.773437-17.167969-23.449218-30.335938-35.40625-1.988281-1.804687-2.0625-4.914062-.148437-6.796875 9.558594-9.398437 19.46875-17.535156 29.042969-23.769531 16.941406-11.027344 27.332031-12.675781 32.015625-12.675781 1.859375 0 3.460937.253906 4.761719.753906 1.882812.785156 8.457031 6.679687 16.585937 22.996094-8.683594 16.511719-17.859375 30.105469-27.347656 40.484375-5.921875 6.46875-11.867188 11.664062-18.066407 15.726562-2.171874 1.425782-5.070312.847656-6.507812-1.3125zm0 0" fill="#fdeaaf"/><path d="m323.9375 156.9375c-3.398438 0-6.476562-2.324219-7.292969-5.777344-5.675781-24.039062-33.722656-68.851562-75.902343-88.683594-3.746094-1.761718-5.359376-6.226562-3.59375-9.976562 1.761718-3.75 6.230468-5.359375 9.976562-3.597656 47.167969 22.175781 77.585938 71.132812 84.121094 98.8125.949218 4.03125-1.546875 8.070312-5.578125 9.019531-.578125.140625-1.160157.203125-1.730469.203125zm0 0" fill="#363b51"/><path d="m413.398438 114.757812c-9.148438 13.332032-63.179688.371094-103.304688-98.742187 20.507812-13.351563 40.496094-19.613281 55.402344-13.898437 29.535156 11.332031 54.910156 102.433593 47.902344 112.640624zm0 0" fill="#fa7ec1"/><path d="m365.496094 2.117188c-2.984375-1.144532-6.175782-1.800782-9.53125-2.023438 22.894531 27.765625 39.640625 92.742188 33.789062 101.273438-2.972656 4.328124-10.683594 5.878906-21.113281 2.609374 21.828125 17.503907 39.824219 17.972657 44.757813 10.78125 7.007812-10.207031-18.367188-101.308593-47.902344-112.640624zm0 0" fill="#cf579c"/><path d="m16.988281 44.746094c11.753907 24.167968 23.589844 41.488281 35.027344 53.992187 16.820313 18.390625 32.757813 26.351563 46.265625 30.328125 10.515625-21.457031 30.234375-47.851562 57.875-65.394531-15.628906-19.089844-33.851562-36.046875-51.675781-47.65625-20.507813-13.351563-40.496094-19.613281-55.402344-13.898437-12.011719 4.605468-23.355469 22.429687-32.089844 42.628906zm0 0" fill="#cf579c"/><path d="m91.796875 99.253906c7.183594-10.773437 17.164063-23.449218 30.332031-35.40625 1.988282-1.804687 2.0625-4.914062.148438-6.796875-9.558594-9.398437-19.46875-17.535156-29.042969-23.769531-16.941406-11.027344-27.332031-12.675781-32.015625-12.675781-1.859375 0-3.460938.253906-4.761719.753906-1.882812.785156-8.457031 6.679687-16.585937 22.996094 8.683594 16.511719 17.859375 30.105469 27.347656 40.484375 5.921875 6.46875 11.867188 11.664062 18.066406 15.726562 2.171875 1.425782 5.070313.847656 6.511719-1.3125zm0 0" fill="#fdeaaf"/><path d="m90.636719 156.9375c-.570313 0-1.148438-.0625-1.730469-.199219-4.03125-.953125-6.527344-4.992187-5.574219-9.023437 6.535157-27.679688 36.953125-76.636719 84.117188-98.808594 3.75-1.765625 8.214843-.152344 9.980469 3.59375 1.761718 3.75.152343 8.21875-3.597657 9.980469-42.175781 19.828125-70.226562 64.640625-75.902343 88.683593-.816407 3.449219-3.894532 5.773438-7.292969 5.773438zm0 0" fill="#363b51"/><path d="m1.175781 114.757812c9.148438 13.332032 63.179688.371094 103.304688-98.742187-20.507813-13.351563-40.496094-19.613281-55.402344-13.898437-29.535156 11.332031-54.90625 102.433593-47.902344 112.640624zm0 0" fill="#fa7ec1"/><path d="m152.0625 378.789062c3.582031-1.75 3.582031-4.644531 0-6.394531s-6.835938-4.667969-8.234375-8.589843c-1.402344-3.921876-.550781-8.882813 2.613281-11.386719 3.347656-2.648438 8.011719-1.964844 12.0625-.898438 14.746094 3.878907 28.675782 11.226563 40.507813 21.359375v5.425782c-11.832031 10.132812-25.761719 17.480468-40.507813 21.359374-4.050781 1.066407-8.714844 1.753907-12.0625-.898437-3.164062-2.503906-4.015625-7.464844-2.613281-11.386719 1.398437-3.921875 4.652344-6.839844 8.234375-8.589844zm0 0" fill="#cf579c"/><path d="m262.511719 378.789062c-3.582031-1.75-3.582031-4.644531 0-6.394531s6.835937-4.667969 8.238281-8.589843c1.398438-3.921876.546875-8.882813-2.617188-11.386719-3.34375-2.648438-8.011718-1.964844-12.0625-.898438-14.742187 3.878907-28.675781 11.226563-40.507812 21.359375v5.425782c11.832031 10.132812 25.765625 17.480468 40.507812 21.359374 4.050782 1.066407 8.714844 1.753907 12.0625-.898437 3.164063-2.503906 4.015626-7.464844 2.617188-11.386719-1.402344-3.921875-4.65625-6.839844-8.238281-8.589844zm0 0" fill="#cf579c"/><path d="m188.746094 365.972656v19.242188c0 10.238281 8.300781 18.542968 18.542968 18.542968 10.238282 0 18.542969-8.304687 18.542969-18.542968v-19.242188c0-10.242187-8.304687-18.542968-18.542969-18.542968-10.242187 0-18.542968 8.300781-18.542968 18.542968zm0 0" fill="#fa7ec1"/><path d="m207.289062 467.703125c-32.472656 0-94.777343-55.117187-94.777343 4.121094v40.175781h189.550781c0-31.421875 0-23 0-40.175781 0-59.234375-62.304688-4.121094-94.773438-4.121094zm0 0" fill="#4e5173"/><g fill="#363b51"><path d="m162.289062 213.289062c-4.144531 0-7.5-3.355468-7.5-7.5v-1.808593c0-4.144531 3.355469-7.5 7.5-7.5 4.140626 0 7.5 3.355469 7.5 7.5v1.808593c0 4.144532-3.359374 7.5-7.5 7.5zm0 0"/><path d="m252.289062 213.289062c-4.144531 0-7.5-3.355468-7.5-7.5v-1.808593c0-4.144531 3.355469-7.5 7.5-7.5 4.140626 0 7.5 3.355469 7.5 7.5v1.808593c0 4.144532-3.359374 7.5-7.5 7.5zm0 0"/><path d="m207.285156 263.171875c-10.464844 0-20.574218-4.378906-27.734375-12.015625-2.835937-3.019531-2.683593-7.765625.335938-10.601562 3.023437-2.832032 7.769531-2.683594 10.605469.339843 4.398437 4.691407 10.363281 7.273438 16.792968 7.273438 6.433594 0 12.398438-2.582031 16.800782-7.273438 2.835937-3.019531 7.582031-3.171875 10.601562-.339843 3.019531 2.835937 3.171875 7.582031.339844 10.601562-7.164063 7.636719-17.273438 12.015625-27.742188 12.015625zm0 0"/></g></svg>