<svg height="512pt" viewBox="-89 0 511 512" width="512pt" xmlns="http://www.w3.org/2000/svg"><path d="m333.105469 210.90625c-5.320313-178.71875-111.097657-209.183594-166.195313-169.277344-55.097656-39.90625-160.875-9.441406-166.195312 169.277344-3.429688 115.132812 34.859375 184.261719 76.835937 222.675781 20.300781 18.578125 46.988281 28.613281 74.511719 28.613281h29.695312c27.519532 0 54.210938-10.035156 74.511719-28.613281 41.972657-38.414062 80.265625-107.542969 76.835938-222.675781zm0 0" fill="#6e7093"/><path d="m333.105469 210.90625c-4.347657-146.078125-75.804688-193.097656-131.851563-183.613281 49.367188 8.28125 100.203125 61.121093 103.851563 183.613281 3.429687 115.132812-34.863281 184.261719-76.835938 222.675781-20.300781 18.578125-46.992187 28.613281-74.511719 28.613281h28c27.519532 0 54.210938-10.035156 74.511719-28.613281 41.972657-38.414062 80.265625-107.542969 76.835938-222.675781zm0 0" fill="#4e5173"/><path d="m270.601562 377.070312-62.582031-23.421874v-59.988282h-82.214843v59.988282l-62.585938 23.421874c-20.5 7.667969-34.085938 27.257813-34.085938 49.144532v81.640625c0 2.289062 1.855469 4.144531 4.144532 4.144531h267.265625c2.289062 0 4.144531-1.855469 4.144531-4.144531v-81.640625c0-21.886719-13.585938-41.476563-34.085938-49.144532zm0 0" fill="#80b9f9"/><path d="m270.601562 377.070312-62.582031-23.421874v-59.988282h-24.519531v59.988282l62.582031 23.421874c20.5 7.667969 34.085938 27.257813 34.085938 49.144532v81.640625c0 2.289062-1.855469 4.144531-4.144531 4.144531h24.519531c2.289062 0 4.144531-1.855469 4.144531-4.144531v-81.640625c0-21.886719-13.585938-41.476563-34.085938-49.144532zm0 0" fill="#3185db"/><path d="m190.808594 432.746094c-4.210938.289062-43.585938.289062-47.796875 0-66.210938-4.542969-66.140625-34.191406-54.332031-65.210938l37.125-13.886718v-34.625c12.703124 5.761718 26.570312 8.945312 41.105468 8.945312s28.402344-3.183594 41.105469-8.945312v34.625l37.125 13.886718c11.808594 31.019532 11.878906 60.667969-54.332031 65.210938zm0 0" fill="#f9c295"/><path d="m261.6875 462.195312c0-4.269531-3.457031-7.726562-7.726562-7.726562-4.265626 0-7.726563 3.460938-7.726563 7.726562v49.804688h15.453125zm0 0" fill="#3185db"/><path d="m87.585938 512v-49.804688c0-4.269531-3.457032-7.726562-7.726563-7.726562-4.265625 0-7.726563 3.460938-7.726563 7.726562v49.804688zm0 0" fill="#3185db"/><path d="m125.804688 319.027344v17.664062c15.25 8.988282 32.597656 14.085938 51.003906 14.085938 10.839844 0 21.3125-1.773438 31.210937-5.0625v-26.6875c-12.703125 5.757812-26.574219 8.941406-41.109375 8.941406-14.53125 0-28.402344-3.183594-41.105468-8.941406zm0 0" fill="#e59f6a"/><path d="m267.402344 147.6875c-7.929688 51.191406-22.414063 97.867188-9.828125 126.703125-19.882813 32.367187-53.074219 53.578125-90.664063 53.578125s-70.785156-21.210938-90.667968-53.578125c12.589843-28.835937-1.894532-75.511719-9.824219-126.703125-10.828125-69.949219 60.179687-52.394531 83-37.972656h34.984375c22.820312-14.421875 93.828125-31.976563 83 37.972656zm0 0" fill="#f9c295"/><path d="m254.242188 223.550781h-1.261719c-13.3125 51.6875-55.648438 89.472657-105.824219 89.472657-18.449219 0-35.835938-5.117188-51.113281-14.148438 50.988281 48.304688 125.371093 34.386719 161.527343-24.496094-5.886718-13.492187-5.847656-30.890625-3.328124-50.828125zm0 0" fill="#e59f6a"/><path d="m166.910156 0c-10.691406 0-29.53125 105.6875-29.53125 137.105469 0 16.308593 13.222656 29.53125 29.53125 29.53125s29.53125-13.222657 29.53125-29.53125c0-31.417969-18.839844-137.105469-29.53125-137.105469zm0 0" fill="#d8e6f0"/><path d="m194.550781 121.964844c-9.320312 1.757812-19.078125 1.613281-28.222656-.414063-8.207031-1.820312-16.011719-5.121093-23.199219-9.808593-1.140625-.742188-2.402344-1.144532-3.671875-1.230469-.710937 5.910156-1.261719 11.363281-1.617187 16.132812 7.867187 4.671875 16.304687 8.03125 25.140625 9.992188 6.003906 1.332031 12.21875 1.996093 18.445312 1.996093 5.03125 0 10.066407-.453124 15.011719-1.324218 0-.066406.003906-.132813.003906-.203125 0-4-.308594-9.214844-.863281-15.257813-.339844.015625-.683594.050782-1.027344.117188zm0 0" fill="#97aeba"/><path d="m162.980469 49.171875c5.988281 1.328125 12.171875 2 18.394531 2 .304688 0 .609375 0 .914062-.003906.757813-.007813 1.492188-.128907 2.183594-.339844-1.097656-5.25-2.226562-10.324219-3.375-15.113281-5.015625-.003906-9.96875-.5625-14.78125-1.628906-3.527344-.777344-7.089844-1.875-10.59375-3.265626-.554687-.21875-1.121094-.367187-1.6875-.453124-1.1875 4.6875-2.371094 9.730468-3.523437 15 4.117187 1.601562 8.308593 2.886718 12.46875 3.804687zm0 0" fill="#97aeba"/><path d="m162.976562 92.902344c6.027344 1.339844 12.171876 2.011718 18.363282 2.011718 3.351562 0 6.722656-.195312 10.09375-.59375.25-.027343.492187-.070312.734375-.121093-.734375-4.96875-1.542969-10.082031-2.410157-15.234375-.042968.003906-.082031.003906-.125.007812-7.863281.925782-15.707031.535156-23.308593-1.15625-6.214844-1.375-12.238281-3.621094-17.90625-6.675781-.910157-.488281-1.871094-.773437-2.835938-.878906-.929687 5.167969-1.8125 10.351562-2.625 15.449219 6.375 3.238281 13.101563 5.660156 20.019531 7.191406zm0 0" fill="#97aeba"/><path d="m296.726562 139.261719c-3.464843-31.8125-23.714843-54.808594-48.769531-64.027344 24.25-29.628906 72.441407-36.128906 82.144531-23.898437 9.261719 11.691406-8.589843 66.085937-33.375 87.925781zm0 0" fill="#fa7ec1"/><path d="m311.105469 69.238281c-1.378907 7.078125-4.4375 17.285157-9.921875 28.585938-3.511719 7.210937-7.179688 13.15625-10.660156 17.78125-5.429688-12.472657-13.824219-22.746094-23.960938-30.285157 11.671875-12.03125 29.542969-18.203124 41.84375-19.109374 1.679688-.125 3.019531 1.378906 2.699219 3.027343zm0 0" fill="#fdeaaf"/><path d="m37.09375 139.261719c3.464844-31.8125 23.714844-54.808594 48.769531-64.027344-24.25-29.628906-72.441406-36.128906-82.144531-23.898437-9.261719 11.691406 8.589844 66.085937 33.375 87.925781zm0 0" fill="#fa7ec1"/><path d="m22.714844 69.238281c1.378906 7.078125 4.4375 17.285157 9.921875 28.585938 3.511719 7.210937 7.179687 13.15625 10.660156 17.78125 5.429687-12.472657 13.824219-22.746094 23.960937-30.285157-11.671874-12.03125-29.542968-18.203124-41.84375-19.109374-1.679687-.125-3.019531 1.378906-2.699218 3.027343zm0 0" fill="#fdeaaf"/><path d="m193.375 512h-52.929688c-3.101562-25.671875-3.296874-53.539062-.597656-79.5 1.039063.09375 2.089844.175781 3.160156.246094 4.214844.289062 43.589844.289062 47.800782 0 1.070312-.070313 2.121094-.152344 3.164062-.246094 2.699219 25.960938 2.503906 53.828125-.597656 79.5zm0 0" fill="#e6eff5"/><path d="m203.726562 487.53125-22.679687-14.800781 23.054687-15.042969c3.570313-2.332031 4.578126-7.117188 2.246094-10.691406-2.332031-3.574219-7.121094-4.582032-10.695312-2.246094l-28.742188 18.757812-28.742187-18.757812c-3.570313-2.332031-8.359375-1.324219-10.695313 2.246094-2.332031 3.574218-1.324218 8.359375 2.25 10.691406l23.050782 15.042969-22.683594 14.800781c-3.574219 2.332031-4.578125 7.121094-2.246094 10.691406 1.480469 2.273438 3.953125 3.507813 6.476562 3.507813 1.449219 0 2.910157-.40625 4.214844-1.257813l28.375-18.515625 28.375 18.515625c1.304688.851563 2.765625 1.257813 4.214844 1.257813 2.523438 0 4.996094-1.234375 6.476562-3.503907 2.332032-3.574218 1.324219-8.363281-2.25-10.695312zm0 0" fill="#4e5173"/><g fill="#363b51"><path d="m297.125 161.757812c-.140625 0-.277344 0-.414062-.011718-4.261719-.21875-7.53125-3.855469-7.308594-8.117188.238281-4.597656.121094-9.152344-.359375-13.53125-.816407-7.527344-2.703125-14.730468-5.605469-21.410156-4.707031-10.816406-12.140625-20.210938-21.488281-27.167969-5.105469-3.808593-10.707031-6.84375-16.65625-9.03125-4.109375-1.5-8.328125-2.589843-12.535157-3.230469-4.21875-.644531-7.117187-4.589843-6.472656-8.808593.648438-4.214844 4.59375-7.105469 8.808594-6.46875 5.214844.796875 10.433594 2.140625 15.511719 3.996093 7.367187 2.707032 14.285156 6.457032 20.574219 11.152344 11.503906 8.554688 20.644531 20.105469 26.425781 33.394532 3.527343 8.117187 5.816406 16.828124 6.800781 25.902343.566406 5.199219.710938 10.589844.425781 16.011719-.214843 4.121094-3.625 7.320312-7.707031 7.320312zm0 0"/><path d="m36.695312 161.757812c-4.082031 0-7.492187-3.195312-7.707031-7.320312-.285156-5.421875-.140625-10.808594.425781-16.015625.984376-9.066406 3.269532-17.78125 6.796876-25.894531 5.785156-13.292969 14.925781-24.84375 26.4375-33.40625 6.28125-4.6875 13.199218-8.4375 20.550781-11.136719 5.09375-1.863281 10.3125-3.207031 15.527343-4.003906 4.214844-.640625 8.160157 2.253906 8.804688 6.46875.648438 4.21875-2.25 8.164062-6.46875 8.808593-4.207031.640626-8.425781 1.730469-12.546875 3.234376-5.9375 2.183593-11.539063 5.21875-16.636719 9.023437-9.355468 6.957031-16.785156 16.351563-21.496094 27.175781-2.902343 6.679688-4.789062 13.878906-5.605468 21.402344-.476563 4.386719-.597656 8.941406-.355469 13.535156.222656 4.261719-3.050781 7.894532-7.3125 8.117188-.136719.011718-.273437.011718-.414063.011718zm0 0"/><path d="m115.410156 213.289062c-4.140625 0-7.5-3.355468-7.5-7.5v-1.808593c0-4.144531 3.359375-7.5 7.5-7.5s7.5 3.355469 7.5 7.5v1.808593c0 4.144532-3.359375 7.5-7.5 7.5zm0 0"/><path d="m218.410156 213.289062c-4.144531 0-7.5-3.355468-7.5-7.5v-1.808593c0-4.144531 3.355469-7.5 7.5-7.5 4.144532 0 7.5 3.355469 7.5 7.5v1.808593c0 4.144532-3.355468 7.5-7.5 7.5zm0 0"/><path d="m166.90625 263.171875c-11.65625 0-22.523438-4.140625-30.59375-11.65625-3.03125-2.824219-3.199219-7.570313-.375-10.601563s7.570312-3.199218 10.601562-.378906c5.207032 4.851563 12.628907 7.636719 20.367188 7.636719 7.742188 0 15.167969-2.785156 20.375-7.636719 3.035156-2.820312 7.777344-2.652344 10.601562.378906 2.824219 3.03125 2.65625 7.777344-.375 10.601563-8.070312 7.515625-18.9375 11.65625-30.601562 11.65625zm0 0"/></g></svg>