<svg height="512pt" viewBox="-104 0 512 512.00129" width="512pt" xmlns="http://www.w3.org/2000/svg"><path d="m295.429688 147.714844c0 81.578125-66.136719 147.714844-147.714844 147.714844-81.582032 0-147.714844-66.136719-147.714844-147.714844 0-81.582032 66.132812-147.714844 147.714844-147.714844 81.578125 0 147.714844 66.132812 147.714844 147.714844zm0 0" fill="#e6eff5"/><path d="m162.847656.765625c61.367188 17.941406 106.191406 74.632813 106.191406 141.796875 0 81.582031-66.132812 147.714844-147.714843 147.714844-5.109375 0-10.15625-.257813-15.132813-.765625 13.171875 3.851562 27.105469 5.917969 41.523438 5.917969 81.582031 0 147.714844-66.136719 147.714844-147.714844 0-76.472656-58.109376-139.371094-132.582032-146.949219zm0 0" fill="#c5d3d6"/><path d="m159.796875 119.453125c0 34.660156-28.097656 62.761719-62.757813 62.761719-34.664062 0-62.761718-28.101563-62.761718-62.761719s28.097656-62.761719 62.761718-62.761719c34.660157 0 62.757813 28.101563 62.757813 62.761719zm0 0" fill="#9bc66a"/><path d="m121.324219 115.808594c0 15.609375-12.652344 28.261718-28.257813 28.261718-15.609375 0-28.261718-12.652343-28.261718-28.261718s12.652343-28.261719 28.261718-28.261719c15.605469 0 28.257813 12.652344 28.257813 28.261719zm0 0" fill="#363b51"/><path d="m284.628906 154.886719c-24.226562 0-30.28125 36.332031-31.933594 55.050781-1.648437 18.71875-12.109374 47.347656-34.683593 50.652344-22.570313 3.300781-43.148438-19.988282-70.296875-19.988282-27.148438 0-24.875 23.289063-57.425782 23.289063-32.554687 0-35.234374-50.648437-66.617187-50.648437-25.597656 0-14.039063 48.171874 5.503906 71.570312 17.308594 20.71875 24.960938 37.988281 24.960938 75.972656v127.050782c0 12.796874 9.949219 23.695312 22.738281 24.148437 13.425781.476563 24.460938-10.265625 24.460938-23.585937v-79.417969c0-8.902344 6.839843-16.558594 15.734374-16.976563 9.492188-.449218 17.328126 7.113282 17.328126 16.511719v50.988281c0 10.832032 8.863281 20.03125 19.695312 19.828125 10.503906-.195312 18.957031-8.773437 18.957031-19.324219v-109.644531c0-15.730469 12.753907-28.480469 28.484375-28.480469 15.726563 0 28.480469 12.75 28.480469 28.480469v70.460938c0 10.671875 8.652344 19.328125 19.328125 19.328125 10.671875 0 19.324219-8.65625 19.324219-19.328125v-113.441407c0-33.304687 10.707031-46.269531 23.667969-64.410156 16.515624-23.125 16.515624-88.085937-7.707032-88.085937zm-153.875 192.6875c0 8.207031-6.65625 14.863281-14.867187 14.863281-8.207031 0-14.863281-6.65625-14.863281-14.863281v-16.242188c0-8.210937 6.65625-14.863281 14.863281-14.863281 8.210937 0 14.867187 6.652344 14.867187 14.863281zm0 0" fill="#ed6161"/><g fill="#ce4545"><path d="m111.511719 317.121094c-1.273438-.425782-2.625-.652344-4.027344-.652344-7.566406 0-13.699219 6.652344-13.699219 14.863281v16.242188c0 8.207031 6.132813 14.863281 13.699219 14.863281 1.402344 0 2.753906-.230469 4.027344-.65625-6.070313-1.867188-10.488281-7.519531-10.488281-14.207031v-16.242188c0-6.6875 4.414062-12.34375 10.488281-14.210937zm0 0"/><path d="m201.582031 260.589844c1.128907-.179688 2.226563-.433594 3.289063-.757813-17.773438-4.195312-35.34375-19.230469-57.15625-19.230469-1.984375 0-3.808594.125-5.503906.355469 22.398437 2.914063 40.097656 22.691407 59.371093 19.632813zm0 0"/><path d="m83.894531 263.890625c1.277344 0 2.496094-.042969 3.664063-.121094-30-2.746093-33.40625-50.527343-63.886719-50.527343-.183594 0-.367187.003906-.550781.007812 28.34375.703125 30.988281 50.640625 60.773437 50.640625zm0 0"/><path d="m284.628906 154.886719c-5.050781 0-9.308594 1.578125-12.902344 4.246093 13.191407 14.800782 11.207032 64.28125-1.660156 83.839844-11.941406 18.140625-21.808594 31.101563-21.808594 64.410156v113.441407c0 7.082031-3.507812 13.277343-8.746093 16.640625 2.882812 1.707031 6.242187 2.6875 9.832031 2.6875 10.675781 0 19.328125-8.65625 19.328125-19.328125v-113.441407c0-33.304687 10.707031-46.269531 23.664063-64.410156 16.515624-23.125 16.515624-88.085937-7.707032-88.085937zm0 0"/><path d="m186.398438 321.882812c-14.492188 0-26.242188 12.75-26.242188 28.480469v109.644531c0 8.578126-5.152344 15.847657-12.277344 18.375 1.957032.652344 4.046875.988282 6.214844.945313 10.507812-.195313 18.957031-8.769531 18.957031-19.320313v-109.644531c0-12.996093 8.707031-23.960937 20.605469-27.378906-2.304688-.71875-4.738281-1.101563-7.257812-1.101563zm0 0"/><path d="m108.570312 392.003906c-8.191406.417969-14.496093 8.074219-14.496093 16.976563v79.417969c0 12.082031-8.359375 22.039062-19.144531 23.4375.640624.074218 1.289062.128906 1.945312.148437 13.429688.480469 24.460938-10.261719 24.460938-23.585937v-79.417969c0-7.640625 5.042968-14.367188 12.097656-16.382813-1.535156-.46875-3.171875-.683594-4.863282-.59375zm0 0"/></g></svg>