<svg height="512pt" viewBox="-81 0 512 512" width="512pt" xmlns="http://www.w3.org/2000/svg"><path d="m119.722656 16.210938 16.660156 69.730468h78.125l16.664063-69.730468c1.976563-8.269532-4.292969-16.210938-12.796875-16.210938h-85.859375c-8.503906 0-14.769531 7.941406-12.792969 16.210938zm0 0" fill="#ffcd34"/><path d="m218.375 0h-24.464844c8.5 0 14.769532 7.941406 12.792969 16.210938l-16.664063 69.730468h24.46875l16.664063-69.730468c1.976563-8.269532-4.292969-16.210938-12.796875-16.210938zm0 0" fill="#e69012"/><path d="m350.621094 369.023438c-3.417969-30.085938-70.746094-92.71875-103.375-121.472657-11.089844-9.773437-17.433594-23.835937-17.433594-38.617187v-61.777344h4.429688c16.902343 0 30.605468-13.703125 30.605468-30.605469 0-16.902343-13.703125-30.605469-30.605468-30.605469h-117.589844c-16.902344 0-30.605469 13.703126-30.605469 30.605469 0 16.902344 13.703125 30.605469 30.605469 30.605469h4.429687v61.777344c0 14.78125-6.347656 28.84375-17.4375 38.617187-32.628906 28.753907-99.957031 91.390625-103.371093 121.472657-4.988282 43.902343 59.710937 142.976562 103.894531 142.976562h142.554687c44.1875 0 108.882813-99.074219 103.898438-142.976562zm0 0" fill="#d8e6f0"/><path d="m350.621094 369.023438c-3.417969-30.085938-70.746094-92.71875-103.375-121.472657-11.089844-9.773437-17.433594-23.835937-17.433594-38.617187v-61.777344h4.429688c16.902343 0 30.605468-13.703125 30.605468-30.605469 0-16.902343-13.703125-30.605469-30.605468-30.605469h-23.347657c16.902344 0 30.601563 13.703126 30.601563 30.605469 0 16.902344-13.699219 30.605469-30.601563 30.605469h-4.433593v61.777344c0 14.78125 6.347656 28.84375 17.4375 38.617187 32.628906 28.753907 99.957031 91.390625 103.375 121.472657 4.984374 43.902343-59.714844 142.976562-103.898438 142.976562h23.347656c44.1875 0 108.882813-99.074219 103.898438-142.976562zm0 0" fill="#bdcdd6"/><path d="m175.445312 147.152344c-4.140624 0-7.5 3.359375-7.5 7.5 0 4.144531 3.359376 7.5 7.5 7.5h54.367188v-15zm0 0" fill="#bdcdd6"/><path d="m322.996094 372.292969c-.230469-1.066407-3.488282-13.453125-34.738282-46.917969-2.914062-3.121094-5.898437-6.242188-8.917968-9.335938 1.347656 9.816407 1.023437 19.839844-5.273438 27.050782-7.441406 8.523437-20.226562 9.457031-31.523437 8.835937-37.910157-2.078125-74.957031-11.875-111.851563-20.816406-24.0625-5.832031-58.34375-15.070313-73.21875-.125-27.820312 27.957031-29.359375 40.300781-29.578125 41.304687-.59375 5.75 1.816407 18.976563 10.574219 37.597657 8.3125 17.660156 20.328125 35.910156 32.972656 50.070312 17.746094 19.875 29.640625 24.226563 32.726563 24.226563h142.554687c3.085938 0 14.980469-4.351563 32.726563-24.226563 12.644531-14.160156 24.660156-32.410156 32.972656-50.070312 8.761719-18.621094 11.167969-31.847657 10.574219-37.59375zm0 0" fill="#7f56af"/><path d="m322.996094 372.292969c-.230469-1.066407-3.488282-13.453125-34.738282-46.917969-2.914062-3.121094-5.898437-6.242188-8.917968-9.335938 1.226562 8.941407 1.066406 18.050782-3.726563 25.054688 18.300781 21.742188 20.546875 30.320312 20.738281 31.195312.59375 5.75-1.816406 18.976563-10.574218 37.597657-8.3125 17.660156-20.328125 35.910156-32.972656 50.074219-17.746094 19.871093-29.640626 24.222656-32.726563 24.222656h26.644531c3.085938 0 14.980469-4.351563 32.726563-24.222656 12.644531-14.164063 24.664062-32.414063 32.972656-50.074219 8.761719-18.621094 11.167969-31.847657 10.574219-37.59375zm0 0" fill="#5e4487"/><path d="m242.542969 351.929688c11.296875.617187 24.082031-.316407 31.519531-8.835938 6.296875-7.214844 6.625-17.238281 5.277344-27.054688-8.222656-8.222656-39.703125-38.453124-130.539063 19.488282 30.921875 7.519531 62.03125 14.660156 93.742188 16.402344zm0 0" fill="#9e71d3"/><g fill="#e69012"><path d="m156.558594 32.097656c-4.144532 0-7.5-3.359375-7.5-7.5v-4.121094c0-4.144531 3.355468-7.5 7.5-7.5 4.144531 0 7.5 3.355469 7.5 7.5v4.121094c0 4.140625-3.355469 7.5-7.5 7.5zm0 0"/><path d="m194.332031 44.152344c-4.140625 0-7.5-3.355469-7.5-7.5v-4.121094c0-4.144531 3.359375-7.5 7.5-7.5 4.144531 0 7.5 3.355469 7.5 7.5v4.121094c0 4.144531-3.355469 7.5-7.5 7.5zm0 0"/><path d="m180.253906 73.945312c-4.144531 0-7.5-3.355468-7.5-7.5v-4.121093c0-4.140625 3.355469-7.5 7.5-7.5 4.144532 0 7.5 3.359375 7.5 7.5v4.121093c0 4.144532-3.359375 7.5-7.5 7.5zm0 0"/></g><path d="m118.785156 378.421875c0 7.488281-6.070312 13.5625-13.5625 13.5625-7.492187 0-13.566406-6.074219-13.566406-13.5625 0-7.492187 6.074219-13.566406 13.566406-13.566406 7.492188 0 13.5625 6.074219 13.5625 13.566406zm0 0" fill="#9e71d3"/><path d="m196.804688 439.238281c0 8.960938-7.261719 16.222657-16.222657 16.222657-8.960937 0-16.226562-7.261719-16.226562-16.222657 0-8.960937 7.265625-16.226562 16.226562-16.226562 8.960938 0 16.222657 7.265625 16.222657 16.226562zm0 0" fill="#9e71d3"/></svg>