<svg height="512pt" viewBox="-36 0 512 512.0007" width="512pt" xmlns="http://www.w3.org/2000/svg"><path d="m129.402344 210.007812c-4.660156-2.363281-7.6875-.078124-6.6875 5.050782.996094 5.128906.511718 10.828125-2.480469 15.390625-2.996094 4.5625-8.859375 7.589843-13.976563 6.257812-5.410156-1.410156-8.378906-6.832031-10.460937-11.90625-7.582031-18.484375-10.894531-38.851562-9.636719-59.226562l5.675782-4.285157c19.9375 4.378907 38.617187 13.148438 54.3125 25.507813 4.3125 3.390625 8.714843 7.730469 8.585937 13.320313-.121094 5.285156-4.640625 10.097656-9.847656 11.726562-5.210938 1.628906-10.824219.53125-15.484375-1.835938zm0 0" fill="#3185db"/><path d="m34.898438 84.804688c1 5.128906-2.027344 7.414062-6.6875 5.046874-4.65625-2.367187-10.273438-3.464843-15.480469-1.835937-5.210938 1.632813-9.726563 6.441406-9.847657 11.726563-.128906 5.589843 4.273438 9.929687 8.582032 13.320312 15.699218 12.359375 34.375 21.128906 54.316406 25.507812l5.675781-4.285156c1.253907-20.375-2.058593-40.742187-9.640625-59.226562-2.082031-5.074219-5.046875-10.496094-10.460937-11.90625-5.113281-1.332032-10.980469 1.695312-13.972657 6.257812-2.996093 4.5625-3.480468 10.265625-2.484374 15.394532zm0 0" fill="#3185db"/><path d="m113.421875 123.8125c-16.085937-21.3125-44.625-26.894531-63.742187-12.464844-19.121094 14.425782-21.578126 43.402344-5.492188 64.71875 16.085938 21.3125 44.625 26.894532 63.746094 12.46875 19.117187-14.429687 21.574218-43.40625 5.488281-64.722656zm0 0" fill="#80b9f9"/><path d="m229.632812 203.5625c3.308594-4.046875 1.726563-7.492188-3.496093-7.617188-5.222657-.125-10.691407-1.816406-14.503907-5.722656-3.8125-3.902344-5.511718-10.277344-3.117187-14.988281 2.539063-4.984375 8.472656-6.71875 13.875-7.664063 19.675781-3.445312 40.28125-2.316406 59.914063 3.277344l2.96875 6.460938c-8.550782 18.539062-21.121094 34.902344-36.554688 47.585937-4.238281 3.484375-9.421875 6.851563-14.855469 5.53125-5.136719-1.253906-8.863281-6.699219-9.339843-12.132812-.476563-5.4375 1.800781-10.6875 5.109374-14.730469zm0 0" fill="#9bc66a"/><path d="m372.183594 138.09375c-5.222656-.125-6.804688-3.574219-3.496094-7.617188 3.308594-4.042968 5.585938-9.292968 5.109375-14.730468-.476563-5.433594-4.203125-10.878906-9.339844-12.132813-5.433593-1.320312-10.617187 2.046875-14.855469 5.53125-15.433593 12.683594-28.003906 29.046875-36.554687 47.585938l2.96875 6.460937c19.632813 5.59375 40.238281 6.722656 59.914063 3.277344 5.40625-.945312 11.335937-2.679688 13.875-7.664062 2.398437-4.710938.695312-11.085938-3.117188-14.988282-3.8125-3.90625-9.277344-5.597656-14.503906-5.722656zm0 0" fill="#9bc66a"/><path d="m343.089844 146.816406c-9.996094-21.765625-37.773438-30.375-62.039063-19.230468-24.265625 11.148437-35.832031 37.828124-25.835937 59.59375 10 21.765624 37.777344 30.375 62.042968 19.226562 24.261719-11.144531 35.828126-37.824219 25.832032-59.589844zm0 0" fill="#bfea92"/><path d="m0 227.253906c0 12.582032 10.199219 22.78125 22.78125 22.78125h365.898438c12.582031 0 22.785156-10.199218 22.785156-22.78125 0-12.582031-10.203125-22.78125-22.785156-22.78125h-365.898438c-12.582031 0-22.78125 10.199219-22.78125 22.78125zm0 0" fill="#878cad"/><path d="m388.679688 204.472656h-24.015626c12.582032 0 22.78125 10.199219 22.78125 22.78125 0 12.582032-10.199218 22.78125-22.78125 22.78125h24.015626c12.582031 0 22.785156-10.199218 22.785156-22.78125 0-12.582031-10.203125-22.78125-22.785156-22.78125zm0 0" fill="#6e7093"/><path d="m395.171875 329.710938c0-28.464844-6.289063-55.453126-17.53125-79.671876h-343.816406c-11.246094 24.21875-17.535157 51.207032-17.535157 79.671876 0 48.011718 17.871094 87.074218 47.3125 115.300781-13.328124 31.648437-14.671874 61.070312-2.835937 66.214843 10.664063 4.636719 28.449219-12.003906 42.148437-38.273437 29.613282 15.382813 64.914063 23.550781 102.816407 23.550781 37.902343 0 73.203125-8.167968 102.816406-23.550781 13.699219 26.269531 31.484375 42.910156 42.148437 38.273437 11.835938-5.144531 10.492188-34.566406-2.835937-66.214843 29.441406-28.226563 47.3125-67.289063 47.3125-115.300781zm0 0" fill="#6e7093"/><path d="m395.171875 329.710938c0-28.464844-6.289063-55.453126-17.53125-79.671876h-25.511719c10.449219 24.21875 16.292969 51.207032 16.292969 79.671876 0 48.011718-16.609375 87.074218-43.96875 115.300781 9.816406 25.085937 12.628906 48.761719 7.898437 60.066406 6.902344 5.859375 13.394532 8.304687 18.347657 6.148437 11.832031-5.144531 10.492187-34.566406-2.835938-66.214843 29.4375-28.226563 47.308594-67.289063 47.308594-115.300781zm0 0" fill="#4e5173"/><path d="m107.894531 33.800781c4.734375-1.097656 5.53125-4.53125 1.753907-7.59375-3.773438-3.058593-6.832032-7.414062-7.421876-12.453125-.589843-5.042968 1.785157-10.703125 6.226563-12.808594 4.703125-2.226562 10.054687-.132812 14.570313 2.246094 16.441406 8.648438 30.964843 21.191406 42.238281 36.46875l-1.492188 6.441406c-16.828125 8.789063-35.382812 13.6875-53.953125 14.25-5.097656.152344-10.828125-.3125-14.074218-4.375-3.070313-3.839843-2.722657-9.964843.019531-14.238281 2.742187-4.269531 7.402343-6.839843 12.132812-7.9375zm0 0" fill="#cc6d0e"/><path d="m250.039062 66.640625c-3.777343-3.0625-2.980468-6.5 1.753907-7.59375 4.730469-1.097656 9.390625-3.667969 12.132812-7.9375 2.738281-4.273437 3.089844-10.398437.019531-14.242187-3.246093-4.0625-8.976562-4.527344-14.074218-4.371094-18.570313.5625-37.125 5.460937-53.957032 14.246094l-1.488281 6.445312c11.269531 15.277344 25.796875 27.820312 42.238281 36.46875 4.515626 2.375 9.867188 4.46875 14.566407 2.242188 4.445312-2.101563 6.816406-7.761719 6.230469-12.804688-.589844-5.039062-3.648438-9.394531-7.421876-12.453125zm0 0" fill="#cc6d0e"/><path d="m188.921875 7.132812c-24.195313-5.589843-47.875 7.472657-52.886719 29.175782-5.015625 21.703125 10.535156 43.832031 34.730469 49.421875 24.195313 5.589843 47.875-7.472657 52.890625-29.175781 5.011719-21.703126-10.535156-43.832032-34.734375-49.421876zm0 0" fill="#ffa436"/><path d="m388.40625 279.4375c2.347656 8.546875 4.109375 17.335938 5.25 26.324219 9.585938 10.046875 17.15625 19.179687 22.605469 27.300781 8.003906 11.914062 11.113281 21.414062 8.53125 26.0625-3.804688 6.847656-16.542969 9.992188-34.964844 8.632812-37.09375-2.734374-91.53125-22.289062-145.621094-52.304687-39.019531-21.648437-74.199219-46.800781-99.054687-70.8125-7.261719-7.019531-13.554688-13.84375-18.699219-20.292969-2.582031-3.238281-7.300781-3.769531-10.539063-1.183594-3.238281 2.582032-3.769531 7.300782-1.183593 10.539063 5.542969 6.949219 12.273437 14.257813 19.996093 21.722656 25.773438 24.898438 62.070313 50.875 102.203126 73.144531 55.894531 31.015626 112.640624 51.257813 151.792968 54.148438 2.871094.210938 5.882813.339844 8.949219.339844 15.703125 0 32.871094-3.40625 40.234375-16.648438 9.847656-17.738281-6.351562-46.214844-49.5-86.972656zm0 0" fill="#363b51"/></svg>