<svg height="512pt" viewBox="-141 0 512 512.001" width="512pt" xmlns="http://www.w3.org/2000/svg"><path d="m175.664062 175.222656c2.058594-60.84375-7.894531-101.730468-20.890624-162.40625h-80.484376c-12.996093 60.675782-22.949218 101.5625-20.890624 162.40625-30.597657 7.136719-53.398438 34.566406-53.398438 67.339844v233.273438c0 19.972656 16.191406 36.164062 36.167969 36.164062h156.726562c19.972657 0 36.164063-16.191406 36.164063-36.164062v-233.273438c.003906-32.773438-22.796875-60.203125-53.394532-67.339844zm0 0" fill="#9e71d3"/><path d="m175.664062 175.222656c2.058594-60.84375-7.894531-101.730468-20.890624-162.40625h-23.179688c12.503906 58.375 22.191406 98.4375 21.074219 155.574219-.078125 3.863281 2.335937 7.355469 5.996093 8.582031 27.4375 9.175782 47.21875 35.066406 47.21875 65.589844v233.273438c0 19.972656-16.191406 36.164062-36.167968 36.164062h23.179687c19.976563 0 36.167969-16.191406 36.167969-36.164062v-233.273438c0-32.773438-22.800781-60.203125-53.398438-67.339844zm0 0" fill="#7f56af"/><path d="m0 242.5625v211.199219h229.0625v-211.199219c0-.199219-.011719-.398438-.015625-.597656h-229.03125c-.0039062.199218-.015625.398437-.015625.597656zm0 0" fill="#ffa436"/><path d="m205.871094 241.964844c0 .199218.011718.398437.011718.597656v211.199219h23.179688v-211.199219c0-.199219-.011719-.398438-.015625-.597656zm0 0" fill="#cc6d0e"/><path d="m167.171875 41.894531h-105.28125c-4.558594 0-8.25-3.691406-8.25-8.246093v-12.847657c0-11.488281 9.3125-20.800781 20.800781-20.800781h80.179688c11.488281 0 20.800781 9.3125 20.800781 20.800781v12.84375c0 4.558594-3.691406 8.25-8.25 8.25zm0 0" fill="#ed6161"/><path d="m154.621094 0h-24.320313c11.488281 0 20.800781 9.3125 20.800781 20.800781v12.84375c0 4.558594-3.691406 8.25-8.25 8.25h24.320313c4.558594 0 8.25-3.691406 8.25-8.25v-12.84375c0-11.488281-9.3125-20.800781-20.800781-20.800781zm0 0" fill="#ce4545"/><g fill="#4e5173"><path d="m191.929688 284.085938c.992187-2.570313 4.800781-1.917969 4.878906.839843.417968 14.355469-1.332032 34.160157-7.007813 37.226563-6.761719 3.652344-37.710937 11.183594-55.902343 9.242187-2.375-.253906-3.105469-3.359375-1.089844-4.640625 8.636718-5.488281 19.726562-13 19.925781-22.535156.039063-1.847656 1.992187-3.019531 3.644531-2.195312 7.167969 3.578124 11.164063 3.5625 14.855469 4.484374 6.609375.75 13.914063-4.792968 20.695313-22.421874zm0 0"/><path d="m37.132812 284.085938c-.992187-2.570313-4.800781-1.917969-4.878906.839843-.417968 14.355469 1.332032 34.160157 7.007813 37.226563 6.761719 3.652344 37.710937 11.183594 55.902343 9.242187 2.375-.253906 3.109376-3.359375 1.089844-4.640625-8.636718-5.488281-19.726562-13-19.921875-22.535156-.039062-1.847656-1.996093-3.019531-3.648437-2.195312-7.167969 3.578124-11.164063 3.5625-14.855469 4.484374-6.609375.75-13.914063-4.792968-20.695313-22.421874zm0 0"/><path d="m112.789062 402.851562-7.816406 14.019532c-.6875 1.234375-2.40625 1.382812-3.292968.28125-4.894532-6.074219-17.820313-22.128906-18.195313-22.742188-.390625-.636718-10.167969 6.429688-13.398437 8.789063-.628907.457031-1.460938.507812-2.140626.128906l-29.375-16.386719c-.445312-.246094-.777343-.65625-.929687-1.144531l-13.523437-43.195313c-.632813-2.015624 1.890624-3.5 3.347656-1.96875l16.9375 17.808594c.160156.171875.359375.300782.582031.382813l20.625 7.472656c.445313.160156.945313.101563 1.347656-.160156l11.488281-7.507813c.5625-.367187 1.296876-.320312 1.808594.109375l15.917969 13.441407c.648437.542968 1.613281.457031 2.152344-.195313l15.035156-18.199219c.605469-.734375 1.734375-.734375 2.339844 0l15.039062 18.199219c.535157.652344 1.503907.738281 2.148438.195313l15.917969-13.441407c.511718-.429687 1.246093-.476562 1.808593-.109375l11.488281 7.507813c.402344.261719.902344.320312 1.351563.160156l20.621094-7.472656c.222656-.082031.421875-.210938.582031-.382813l16.9375-17.808594c1.457031-1.53125 3.980469-.046874 3.347656 1.96875l-13.523437 43.195313c-.152344.488281-.484375.898437-.929688 1.144531l-29.375 16.386719c-.679687.378906-1.511719.328125-2.140625-.128906-3.230468-2.359375-13.007812-9.425781-13.394531-8.789063-.378906.613282-13.304687 16.667969-18.199219 22.742188-.886718 1.101562-2.601562.953125-3.292968-.28125l-7.816407-14.019532c-.757812-1.367187-2.71875-1.367187-3.480469 0zm0 0"/></g></svg>