<svg height="512pt" viewBox="-110 0 512 512" width="512pt" xmlns="http://www.w3.org/2000/svg"><path d="m124.777344 275.191406h42.34375v236.808594h-42.34375zm0 0" fill="#d8e6f0"/><path d="m124.773438 314.109375c6.914062 1.003906 13.984374 1.535156 21.175781 1.535156 7.195312 0 14.261719-.53125 21.179687-1.535156v-44.078125h-42.351562v44.078125zm0 0" fill="#bdcdd6"/><path d="m148.851562 275.191406h18.269532v236.808594h-18.269532zm0 0" fill="#bdcdd6"/><path d="m291.902344 145.949219c0 80.609375-65.34375 145.953125-145.953125 145.953125-80.605469 0-145.949219-65.34375-145.949219-145.953125 0-80.605469 65.34375-145.949219 145.949219-145.949219 80.609375 0 145.953125 65.34375 145.953125 145.949219zm0 0" fill="#ffa436"/><path d="m191.8125 7.359375c45.851562 24.609375 77.035156 73 77.035156 128.679687 0 80.609376-65.34375 145.953126-145.949218 145.953126-16.023438 0-31.441407-2.589844-45.863282-7.359376 20.527344 11.015626 43.988282 17.269532 68.914063 17.269532 80.609375 0 145.953125-65.34375 145.953125-145.949219 0-64.585937-41.953125-119.363281-100.089844-138.59375zm0 0" fill="#cc6d0e"/><path d="m246.203125 109.199219-78.785156-66.933594c-12.148438-10.320313-29.800781-10.921875-42.625-1.457031l-70.4375 51.984375c-13.28125 9.800781-18.089844 27.441406-11.628907 42.628906l34.199219 80.355469c6.273438 14.746094 23.753907 21.054687 38.003907 13.71875l50.105468-25.804688c11.984375-6.171875 17.65625-20.179687 13.34375-32.953125l-17.539062-51.90625c-2.042969-6.042969-8.253906-9.632812-14.511719-8.390625l-38.640625 7.695313c-7.507812 1.496093-11.996094 9.246093-9.554688 16.5l11.230469 33.410156c.820313 2.441406 4.402344 1.96875 4.566407-.597656l1.210937-19.027344c.390625-6.148437 5.285156-11.050781 11.429687-11.457031l9.832032-.648438c5.613281-.367187 10.757812 3.128906 12.480468 8.480469l5.359376 16.660156c2.691406 8.367188-.511719 17.507813-7.839844 22.363281l-26.207032 17.367188c-9.789062 6.488281-23.070312 2.292969-27.359374-8.640625l-23.765626-60.601563c-4.171874-10.644531-.542968-22.765624 8.792969-29.367187l48.910157-34.566406c11.238281-7.941407 26.460937-7.109375 36.765624 2.011719l54.625 48.339843c9.195313 8.136719 12.425782 21.097657 8.125 32.597657l-19.679687 52.601562c-3.027344 8.089844-8.671875 14.933594-16.039063 19.445312l-96.804687 59.277344c14.589844 5.589844 30.304687 8.898438 46.714844 9.503906l76.257812-54.15625c6.570313-4.667968 11.546875-11.25 14.246094-18.84375l25.4375-71.585937c4.816406-13.558594.75-28.6875-10.21875-38.003906zm0 0" fill="#6e7093"/><path d="m122.898438 281.992188c-8.566407 0-16.957032-.746094-25.117188-2.164063l-4.007812 2.453125c14.945312 5.726562 30.695312 8.917969 46.703124 9.507812l21.113282-14.992187c-12.324219 3.382813-25.296875 5.195313-38.691406 5.195313zm0 0" fill="#4e5173"/><path d="m245.261719 467.339844c-.71875 0-1.453125-.105469-2.179688-.316406-4.09375-1.203126-6.4375-5.496094-5.234375-9.589844 1.425782-4.867188.367188-11.730469-2.523437-16.316406-2.351563-3.730469-5.796875-6.324219-10.535157-7.921876-2.683593-.90625-5.574218-1.46875-8.636718-2.0625-2.382813-.464843-4.847656-.941406-7.378906-1.617187-8.253907-2.191406-14.554688-5.996094-19.261719-11.628906-7.570313-9.066407-10.253907-21.898438-11.171875-31.0625-1.089844-10.902344-.34375-21.691407.378906-32.128907.296875-4.257812 3.996094-7.453124 8.242188-7.171874 4.257812.292968 7.46875 3.984374 7.175781 8.242187-.679688 9.792969-1.378907 19.917969-.421875 29.519531.976562 9.765625 3.769531 18.035156 7.65625 22.691406 2.660156 3.183594 6.167968 5.222657 11.371094 6.605469 2.023437.539063 4.125.949219 6.355468 1.378907 3.425782.667968 6.96875 1.355468 10.628906 2.589843 8.128907 2.742188 14.410157 7.5625 18.671876 14.332031 5.289062 8.390626 6.964843 19.734376 4.273437 28.902344-.988281 3.367188-4.070313 5.554688-7.410156 5.554688zm0 0" fill="#9e71d3"/><path d="m93.148438 495.46875c-4.082032 0-7.492188-3.195312-7.710938-7.320312-.464844-8.792969-5.398438-16.589844-10.621094-24.84375-.546875-.859376-1.089844-1.714844-1.621094-2.570313-5.835937-9.324219-13.21875-23.449219-9.960937-38.386719 1.765625-8.082031 6.488281-15.421875 14.035156-21.808594 2.71875-2.304687 5.5-4.265624 8.191407-6.164062 2.75-1.945312 5.347656-3.777344 7.707031-5.84375 8.640625-7.566406 14.902343-19.277344 17.179687-32.132812.746094-4.199219 4.761719-7.007813 8.957032-6.257813 4.203124.742187 7.003906 4.753906 6.261718 8.957031-2.878906 16.25-10.976562 31.214844-22.21875 41.058594-2.964844 2.597656-6.019531 4.753906-8.976562 6.839844-2.527344 1.785156-4.914063 3.472656-7.117188 5.335937-4.898437 4.144531-7.898437 8.621094-8.921875 13.308594-1.5625 7.171875.964844 15.71875 7.960938 26.894531.519531.832032 1.050781 1.667969 1.578125 2.507813 5.773437 9.121093 12.316406 19.464843 12.996094 32.289062.226562 4.261719-3.042969 7.898438-7.304688 8.125-.136719.007813-.277344.011719-.414062.011719zm0 0" fill="#9e71d3"/><path d="m232.589844 352.636719c-5.488282-2.519531-5.488282-6.6875 0-9.207031 5.492187-2.519532 10.472656-6.71875 12.621094-12.367188 2.148437-5.644531.84375-12.792969-4.003907-16.398438-5.128906-3.8125-12.28125-2.824218-18.484375-1.289062-22.59375 5.585938-43.941406 16.160156-62.074218 30.753906v7.8125c18.132812 14.589844 39.480468 25.164063 62.074218 30.75 6.203125 1.535156 13.355469 2.523438 18.484375-1.289062 4.847657-3.605469 6.152344-10.753906 4.003907-16.398438-2.148438-5.648437-7.128907-9.847656-12.621094-12.367187zm0 0" fill="#50b596"/><path d="m59.3125 352.636719c5.488281-2.519531 5.488281-6.6875 0-9.207031-5.492188-2.519532-10.472656-6.71875-12.621094-12.367188-2.148437-5.644531-.84375-12.792969 4.003906-16.398438 5.128907-3.8125 12.28125-2.824218 18.484376-1.289062 22.59375 5.585938 43.9375 16.160156 62.074218 30.753906v7.8125c-18.136718 14.589844-39.480468 25.164063-62.074218 30.75-6.203126 1.535156-13.355469 2.523438-18.484376-1.289062-4.847656-3.605469-6.152343-10.753906-4.003906-16.398438 2.148438-5.648437 7.128906-9.847656 12.621094-12.367187zm0 0" fill="#50b596"/><path d="m169.953125 330.914062h-48.003906c-9.453125 0-17.117188 7.664063-17.117188 17.117188s7.664063 17.117188 17.117188 17.117188h48.003906c9.453125 0 17.117187-7.664063 17.117187-17.117188s-7.664062-17.117188-17.117187-17.117188zm0 0" fill="#81ebc7"/></svg>