<svg height="512pt" viewBox="-43 0 512 512" width="512pt" xmlns="http://www.w3.org/2000/svg"><path d="m369.730469 135.363281h-20.382813c-4.144531 0-7.5-3.359375-7.5-7.5 0-4.144531 3.355469-7.5 7.5-7.5h20.382813c4.144531 0 7.5 3.355469 7.5 7.5 0 4.140625-3.355469 7.5-7.5 7.5zm0 0" fill="#90b2ba"/><path d="m77.640625 135.363281h-20.382813c-4.144531 0-7.5-3.359375-7.5-7.5 0-4.144531 3.355469-7.5 7.5-7.5h20.382813c4.144531 0 7.5 3.355469 7.5 7.5 0 4.140625-3.359375 7.5-7.5 7.5zm0 0" fill="#90b2ba"/><path d="m426.988281 512h-426.988281v-197.628906c0-63.804688 51.722656-115.527344 115.527344-115.527344h195.933594c63.804687 0 115.527343 51.722656 115.527343 115.527344zm0 0" fill="#6e7093"/><path d="m311.460938 198.84375h-24.722657c63.800781 0 115.527344 51.722656 115.527344 115.527344v197.628906h24.722656v-197.628906c0-63.804688-51.722656-115.527344-115.527343-115.527344zm0 0" fill="#4e5173"/><path d="m125.84375 0h175.300781c26.621094 0 48.203125 21.582031 48.203125 48.203125v141.9375h-271.707031v-141.9375c0-26.621094 21.582031-48.203125 48.203125-48.203125zm0 0" fill="#6e7093"/><path d="m301.144531 0h-24.503906c26.621094 0 48.199219 21.582031 48.199219 48.203125v141.9375h24.507812v-141.9375c0-26.621094-21.582031-48.203125-48.203125-48.203125zm0 0" fill="#4e5173"/><path d="m350.449219 227.914062h-39.984375v-55.234374h39.984375c11.503906 0 20.828125 9.328124 20.828125 20.832031v13.570312c0 11.503907-9.324219 20.832031-20.828125 20.832031zm0 0" fill="#9bc66a"/><path d="m76.539062 227.914062h39.984376v-55.234374h-39.984376c-11.503906 0-20.828124 9.328124-20.828124 20.832031v13.570312c0 11.503907 9.324218 20.832031 20.828124 20.832031zm0 0" fill="#9bc66a"/><path d="m323.421875 83.496094v145.398437c0 12.886719-10.445313 23.335938-23.335937 23.335938h-3.800782c-4.613281 0-8.355468 3.742187-8.355468 8.355469v20.734374c0 25.675782-20.816407 46.492188-46.492188 46.492188h-55.886719c-25.679687 0-46.492187-20.816406-46.492187-46.492188v-20.734374c0-4.613282-3.742188-8.355469-8.355469-8.355469h-3.804687c-12.886719 0-23.332032-10.445313-23.332032-23.332031v-145.398438c0-2.777344 3.210938-4.316406 5.375-2.578125l20.035156 16.070313c1.207032.96875 2.929688.96875 4.136719 0l23.339844-18.726563c1.210937-.96875 2.933594-.96875 4.140625 0l23.339844 18.726563c1.210937.96875 2.929687.96875 4.140625 0l23.339843-18.726563c1.210938-.96875 2.929688-.96875 4.140626 0l23.339843 18.726563c1.210938.96875 2.929688.96875 4.136719 0l23.355469-18.726563c1.207031-.96875 2.925781-.96875 4.136719 0l23.339843 18.726563c1.210938.96875 2.929688.96875 4.140625 0l20.046875-16.078126c2.160157-1.730468 5.371094-.191406 5.371094 2.582032zm0 0" fill="#bfea92"/><path d="m391.867188 150.460938h-17.726563c-2.433594 0-4.410156-1.976563-4.410156-4.410157v-36.375c0-2.4375 1.976562-4.410156 4.410156-4.410156h17.726563c2.4375 0 4.410156 1.972656 4.410156 4.410156v36.375c0 2.433594-1.972656 4.410157-4.410156 4.410157zm0 0" fill="#accfdd"/><path d="m35.117188 150.460938h17.730468c2.433594 0 4.410156-1.976563 4.410156-4.410157v-36.375c0-2.4375-1.976562-4.410156-4.410156-4.410156h-17.730468c-2.433594 0-4.40625 1.972656-4.40625 4.410156v36.375c0 2.433594 1.972656 4.410157 4.40625 4.410157zm0 0" fill="#accfdd"/><path d="m269.15625 240.078125h-111.328125c-4.140625 0-7.5-3.359375-7.5-7.5 0-4.144531 3.359375-7.5 7.5-7.5h111.328125c4.144531 0 7.5 3.355469 7.5 7.5 0 4.140625-3.355469 7.5-7.5 7.5zm0 0" fill="#7ea052"/><g fill="#e6eff5"><path d="m172.710938 251.566406c-4.144532 0-7.5-3.355468-7.5-7.5v-22.980468c0-4.140626 3.355468-7.5 7.5-7.5 4.144531 0 7.5 3.359374 7.5 7.5v22.980468c0 4.144532-3.359376 7.5-7.5 7.5zm0 0"/><path d="m199.898438 251.566406c-4.140626 0-7.5-3.355468-7.5-7.5v-22.980468c0-4.140626 3.359374-7.5 7.5-7.5 4.144531 0 7.5 3.359374 7.5 7.5v22.980468c0 4.144532-3.355469 7.5-7.5 7.5zm0 0"/><path d="m227.089844 251.566406c-4.144532 0-7.5-3.355468-7.5-7.5v-22.980468c0-4.140626 3.355468-7.5 7.5-7.5 4.140625 0 7.5 3.359374 7.5 7.5v22.980468c0 4.144532-3.359375 7.5-7.5 7.5zm0 0"/><path d="m254.277344 251.566406c-4.144532 0-7.5-3.355468-7.5-7.5v-22.980468c0-4.140626 3.355468-7.5 7.5-7.5 4.144531 0 7.5 3.359374 7.5 7.5v22.980468c0 4.144532-3.355469 7.5-7.5 7.5zm0 0"/></g><path d="m426.988281 377.46875-14.621093-18.710938c-1.324219-1.695312-3.886719-1.695312-5.210938 0l-12.015625 15.375c-1.324219 1.691407-3.886719 1.691407-5.210937 0l-12.011719-15.375c-1.324219-1.695312-3.886719-1.695312-5.210938 0l-12.011719 15.375c-1.324218 1.691407-3.886718 1.691407-5.210937 0l-8.699219-11.140624c-1.9375-2.476563-5.914062-1.109376-5.914062 2.035156v146.972656h86.117187zm0 0" fill="#bfea92"/><path d="m412.367188 358.757812c-1.324219-1.695312-3.886719-1.695312-5.210938 0l-4.890625 6.257813v146.984375h24.722656v-134.53125zm0 0" fill="#9bc66a"/><path d="m0 377.46875 14.621094-18.710938c1.324218-1.695312 3.886718-1.695312 5.210937 0l12.015625 15.375c1.324219 1.691407 3.886719 1.691407 5.210938 0l12.011718-15.375c1.324219-1.695312 3.886719-1.695312 5.210938 0l12.011719 15.375c1.324219 1.691407 3.886719 1.691407 5.210937 0l8.699219-11.140624c1.9375-2.476563 5.914063-1.109376 5.914063 2.035156v146.972656h-86.117188zm0 0" fill="#bfea92"/><path d="m283.855469 158.089844c0 13.121094-10.636719 23.761718-23.757813 23.761718s-23.761718-10.640624-23.761718-23.761718c0-1.550782.152343-3.070313.441406-4.539063h46.640625c.289062 1.46875.4375 2.988281.4375 4.539063zm0 0" fill="#e6eff5"/><path d="m143.132812 158.089844c0 13.121094 10.636719 23.761718 23.757813 23.761718s23.761719-10.640624 23.761719-23.761718c0-1.550782-.152344-3.070313-.441406-4.539063h-46.640626c-.289062 1.46875-.4375 2.988281-.4375 4.539063zm0 0" fill="#e6eff5"/><path d="m283.757812 161.050781h-56.328124c-4.144532 0-7.5-3.359375-7.5-7.5 0-4.144531 3.355468-7.5 7.5-7.5h56.328124c.09375 0 .171876-.078125.171876-.171875v-3.878906c0-.085938-.085938-.171875-.171876-.171875h-8.328124c-4.144532 0-7.5-3.355469-7.5-7.5 0-4.140625 3.355468-7.5 7.5-7.5h8.328124c8.363282 0 15.171876 6.808594 15.171876 15.171875v3.878906c0 8.367188-6.808594 15.171875-15.171876 15.171875zm0 0" fill="#7ea052"/><path d="m199.558594 161.050781h-56.328125c-8.363281 0-15.171875-6.804687-15.171875-15.171875v-3.878906c0-8.363281 6.808594-15.171875 15.171875-15.171875h8.328125c4.144531 0 7.5 3.359375 7.5 7.5 0 4.144531-3.355469 7.5-7.5 7.5h-8.328125c-.085938 0-.171875.085937-.171875.171875v3.878906c0 .09375.078125.171875.171875.171875h56.328125c4.144531 0 7.5 3.355469 7.5 7.5 0 4.140625-3.355469 7.5-7.5 7.5zm0 0" fill="#7ea052"/></svg>