<svg height="511pt" viewBox="-37 0 511 511.9998" width="511pt" xmlns="http://www.w3.org/2000/svg"><path d="m403.550781 137.191406h-72.179687v-110.988281c0-7.230469 2.933594-13.785156 7.667968-18.535156 4.75-4.734375 11.292969-7.667969 18.535157-7.667969 11.460937 0 21.59375 7.441406 25.007812 18.378906l32.324219 103.363282c2.394531 7.660156-3.328125 15.449218-11.355469 15.449218zm0 0" fill="#f8cc7c"/><path d="m331.371094 26.203125v110.988281h24.882812v-110.988281c0-7.230469 2.929688-13.785156 7.667969-18.535156 1.789063-1.785157 3.835937-3.3125 6.074219-4.523438-3.734375-2.011719-7.972656-3.144531-12.421875-3.144531-7.242188 0-13.785157 2.933594-18.535157 7.667969-4.734374 4.75-7.667968 11.304687-7.667968 18.535156zm0 0" fill="#d3a159"/><path d="m357.574219 0c-7.242188 0-13.785157 2.933594-18.535157 7.667969-4.734374 4.75-7.667968 11.304687-7.667968 18.535156v384.378906c0 12.679688-10.277344 22.960938-22.957032 22.960938h-284.957031c-12.679687 0-22.957031-10.28125-22.957031-22.960938v-384.378906c0-7.230469 2.933594-13.785156 7.667969-18.535156 4.75-4.734375 11.289062-7.667969 18.535156-7.667969zm0 0" fill="#fdeaaf"/><path d="m220.722656 113.703125c0 30.257813-24.527344 54.785156-54.785156 54.785156s-54.789062-24.527343-54.789062-54.785156 24.53125-54.789063 54.789062-54.789063 54.785156 24.53125 54.785156 54.789063zm0 0" fill="#b78358"/><path d="m238.292969 218.617188h-144.714844c-4.140625 0-7.5-3.355469-7.5-7.5 0-4.140626 3.359375-7.5 7.5-7.5h144.714844c4.140625 0 7.5 3.359374 7.5 7.5 0 4.144531-3.359375 7.5-7.5 7.5zm0 0" fill="#d3a159"/><path d="m238.292969 282.257812h-144.714844c-4.140625 0-7.5-3.355468-7.5-7.5 0-4.144531 3.359375-7.5 7.5-7.5h144.714844c4.140625 0 7.5 3.355469 7.5 7.5 0 4.144532-3.359375 7.5-7.5 7.5zm0 0" fill="#d3a159"/><path d="m362.429688 346.671875c-.890626-.191406-1.765626.46875-1.664063 1.257813 1.574219 12.1875-11.25 38.839843-18.195313 42.75-1.546874.121093-3.714843.089843-6.21875-.042969.257813-4.171875.046876-8.4375-.710937-12.734375-.878906-4.988282-2.421875-9.695313-4.515625-14.046875.644531-1.058594 1.242188-2.148438 1.78125-3.277344 6.449219-13.480469 3.871094-29.351563-6.414062-39.5l-4.550782-4.488281c-.238281-.234375-.582031-.320313-.902344-.21875l-6.101562 1.898437c-8.742188 2.71875-16.191406 8.5625-20.917969 16.292969-6.667969-1.457031-13.722656-1.667969-20.863281-.410156-7.136719 1.257812-13.691406 3.871094-19.460938 7.519531-7.085937-5.644531-16.082031-8.589844-25.226562-8.15625l-6.386719.304687c-.332031.015626-.632812.210938-.773437.515626l-2.742188 5.773437c-6.191406 13.050781-3.183594 28.847656 7.484375 39.3125.890625.875 1.824219 1.695313 2.792969 2.472656-.503906 5.039063-.300781 10.242188.699219 15.480469.765625 4.023438 1.984375 7.851562 3.5625 11.460938-2.308594.988281-4.339844 1.757812-5.84375 2.175781-7.859375-1.296875-29.027344-21.960938-31.71875-33.949219-.171875-.777344-1.222657-1.09375-1.992188-.613281-48.132812 30.148437-46.070312 93.21875-30.375 134.835937.386719 1.023438 2.117188.921875 2.464844-.144531 5.1875-15.996094 24.164063-61.550781 51.878906-38.707031.75.621094 2.050781.191406 2.183594-.722656 1.480469-10.25 10.261719-36.46875 36.15625-34.722657 7.429687 20.273438 28.878906 32.933594 40.863281 30.820313 11.984375-2.113282 27.8125-21.34375 27.855469-42.9375 23.738281-10.496094 40.957031 11.136718 45.855469 20.265625.433594.8125 1.804687.769531 2.300781-.070313 18.226563-30.945312 51.640625 5.371094 61.988281 18.628906.6875.882813 2.351563.390626 2.363282-.703124.515624-44.480469-19.117188-104.457032-74.65625-116.320313zm0 0" fill="#6e7093"/></svg>