<svg height="512pt" viewBox="0 -30 512.00078 512" width="512pt" xmlns="http://www.w3.org/2000/svg"><path d="m415.433594 182.304688c92.878906 46.453124 106.847656 177.363281 90.90625 268.453124-.390625 2.238282-3.457032 2.59375-4.363282.507813-13.566406-31.328125-59.574218-119.167969-101.839843-62.902344-1.144531 1.527344-3.550781 1.070313-4.039063-.773437-6.460937-24.507813-37.160156-91.910156-100.359375-46.058594l12.460938-97.433594c9.15625 4.824219 44.769531 18.914063 57.707031 20.632813 13.4375-5.257813 44.824219-54.867188 46.199219-80.5.089843-1.664063 1.839843-2.667969 3.328125-1.925781zm-318.867188 0c-92.878906 46.453124-106.847656 177.363281-90.90625 268.453124.390625 2.238282 3.460938 2.59375 4.363282.507813 13.566406-31.332031 59.574218-119.167969 101.839843-62.902344 1.144531 1.527344 3.550781 1.070313 4.039063-.777343 6.460937-24.503907 37.160156-91.90625 100.359375-46.054688l-12.460938-97.433594c-9.15625 4.824219-44.769531 18.914063-57.707031 20.632813-13.4375-5.257813-44.824219-54.867188-46.199219-80.503907-.089843-1.660156-1.839843-2.664062-3.328125-1.921874zm0 0" fill="#6e7093"/><g fill="#4e5173"><path d="m415.433594 182.304688c-1.488282-.742188-3.238282.261718-3.328125 1.921874-.089844 1.695313-.316407 3.5-.65625 5.382813 61.734375 45 77.613281 143.855469 71.953125 225.894531 8.253906 13.414063 14.726562 26.863282 18.574218 35.761719.90625 2.085937 3.972657 1.730469 4.363282-.507813 15.941406-91.089843 1.972656-222-90.90625-268.453124zm0 0"/><path d="m356.6875 262.636719c-16.015625-4.53125-41.03125-14.609375-48.488281-18.539063l-12.460938 97.433594c24.90625-18.070312 44.757813-18.546875 60.074219-10.996094 3.789062-10.636718 6.011719-22.066406 6.011719-33.976562 0-12.65625-1.824219-23.96875-5.136719-33.921875zm0 0"/><path d="m155.3125 262.636719c16.015625-4.53125 41.03125-14.609375 48.488281-18.539063l12.460938 97.433594c-24.90625-18.070312-44.757813-18.546875-60.074219-10.996094-3.789062-10.636718-6.011719-22.066406-6.011719-33.976562 0-12.65625 1.824219-23.96875 5.136719-33.921875zm0 0"/><path d="m400.136719 388.363281c3.738281-4.976562 7.503906-8.804687 11.277343-11.664062 1.761719-10.359375 1.894532-21.222657 1.824219-26.714844-.113281-8.242187-.980469-28.339844-6.660156-36.902344-2.359375-3.554687-7.15625-4.527343-10.710937-2.167969-3.554688 2.359376-4.527344 7.152344-2.167969 10.707032 4.058593 6.117187 6.355469 42.910156.6875 60.261718.6875 2.070313 1.261719 3.996094 1.710937 5.703126.488282 1.847656 2.894532 2.304687 4.039063.777343zm0 0"/><path d="m118.300781 321.621094c2.359375-3.554688 1.386719-8.347656-2.167969-10.707032-3.558593-2.359374-8.351562-1.390624-10.710937 2.167969-5.675781 8.5625-6.546875 28.660157-6.660156 36.902344-.070313 5.492187.0625 16.355469 1.824219 26.714844 3.773437 2.863281 7.539062 6.691406 11.277343 11.664062 1.144531 1.527344 3.550781 1.070313 4.039063-.777343.449218-1.710938 1.023437-3.632813 1.710937-5.703126-5.667969-17.351562-3.367187-54.144531.6875-60.261718zm0 0"/></g><path d="m337.097656 296.558594c0 56.65625-50.148437 102.585937-81.097656 102.585937s-81.097656-45.929687-81.097656-102.585937 36.308594-86.578125 81.097656-86.578125 81.097656 29.921875 81.097656 86.578125zm0 0" fill="#6e7093"/><path d="m333.921875 269.4375c-9.746094-39.027344-40.929687-59.457031-77.921875-59.457031-32.539062 0-60.585938 15.804687-73.503906 46.167969 21.996094 20.660156 51.59375 33.320312 84.152344 33.320312 24.832031 0 47.941406-7.371094 67.273437-20.03125zm0 0" fill="#4e5173"/><path d="m380.910156 12.75-8.4375-11.882812c-.441406-.621094-1.1875-.945313-1.941406-.851563l-14.457031 1.847656c-20.699219 2.644531-39.734375 12.816407-53.402344 28.292969-14.394531-5.90625-30.148437-9.175781-46.671875-9.175781s-32.277344 3.269531-46.667969 9.175781c-13.671875-15.476562-32.707031-25.648438-53.40625-28.292969l-14.457031-1.847656c-.753906-.09375-1.5.230469-1.941406.851563l-8.4375 11.882812c-19.070313 26.84375-18.574219 63.5 1.238281 91.214844 1.652344 2.316406 3.425781 4.53125 5.292969 6.652344-3.125 11.121093-4.726563 22.878906-4.5625 35.035156.921875 67.464844 56.917968 122.003906 124.382812 121.226562 67.238282-.773437 121.511719-55.519531 121.511719-122.941406 0-11.546875-1.597656-22.722656-4.574219-33.320312 1.867188-2.121094 3.636719-4.335938 5.292969-6.652344 19.8125-27.714844 20.308594-64.371094 1.238281-91.214844zm0 0" fill="#6e7093"/><path d="m380.910156 12.75-8.4375-11.882812c-.441406-.621094-1.1875-.945313-1.941406-.851563l-11.65625 1.492187.300781.421876c19.070313 26.847656 18.574219 63.503906-1.238281 91.214843-1.652344 2.316407-3.425781 4.53125-5.289062 6.65625 2.976562 10.59375 4.570312 21.769531 4.570312 33.316407 0 67.90625-55.046875 122.953124-122.953125 122.953124-15.34375 0-30.03125-2.820312-43.578125-7.957031 19.28125 12.117188 42.164062 19.03125 66.679688 18.765625 65.230468-.707031 119.023437-52.984375 121.496093-118.171875.503907-13.242187-1.097656-26.039062-4.480469-38.089843 1.867188-2.121094 3.636719-4.339844 5.292969-6.652344 19.808594-27.714844 20.304688-64.371094 1.234375-91.214844zm0 0" fill="#4e5173"/><path d="m341.957031 135.539062c-1.234375-3.347656-5.496093-4.320312-8.035156-1.816406-11.449219 11.285156-28.035156 17.714844-45.890625 16.199219-1.570312-.132813-3.121094-.328125-4.648438-.578125-3.449218-.5625-6.355468 2.628906-5.496093 6.015625 3.503906 13.835937 15.664062 24.496094 30.84375 25.28125 17.496093.90625 32.941406-12.09375 35.035156-29.492187.660156-5.480469-.035156-10.792969-1.808594-15.609376zm0 0" fill="#fdeaaf"/><path d="m170.046875 135.539062c1.230469-3.347656 5.492187-4.320312 8.03125-1.816406 11.449219 11.285156 28.035156 17.714844 45.890625 16.199219 1.570312-.132813 3.121094-.328125 4.648438-.578125 3.449218-.5625 6.355468 2.628906 5.496093 6.015625-3.503906 13.835937-15.667969 24.496094-30.84375 25.28125-17.5.90625-32.941406-12.09375-35.039062-29.492187-.65625-5.480469.039062-10.792969 1.816406-15.609376zm0 0" fill="#fdeaaf"/><path d="m185.351562 43.300781c-9.222656-8.515625-20.8125-13.753906-32.769531-15.285156-10.917969 15.371094-12.339843 36.121094-2.855469 54.058594 8.957032-15.351563 21.140626-28.585938 35.625-38.773438zm0 0" fill="#b78358"/><path d="m362.273438 82.074219c9.484374-17.9375 8.0625-38.6875-2.855469-54.058594-11.957031 1.53125-23.542969 6.769531-32.769531 15.285156 14.484374 10.1875 26.667968 23.421875 35.625 38.773438zm0 0" fill="#b78358"/></svg>