<svg height="511pt" viewBox="0 -126 511.99894 511" width="511pt" xmlns="http://www.w3.org/2000/svg"><path d="m493.039062 15.953125-23.039062 132.945313c-.597656 3.425781-4.632812 4.972656-7.363281 2.824218l-17.324219-13.621094c-2.132812-1.679687-5.25-1.152343-6.710938 1.136719l-11.863281 18.578125c-1.871093 2.929688-6.195312 2.796875-7.882812-.242187l-50.847657-91.453125c43.53125-9.554688 82.492188-24.546875 114.421876-43.535156 3.628906-2.160157 7.167968-4.371094 10.609374-6.632813zm0 0" fill="#6e7093"/><path d="m482.429688 22.585938c-4.578126 2.722656-9.316407 5.351562-14.175782 7.902343l-19.160156 110.585938 13.542969 10.648437c2.730469 2.148438 6.769531.601563 7.363281-2.824218l23.039062-132.945313c-3.441406 2.261719-6.980468 4.472656-10.609374 6.632813zm0 0" fill="#4e5173"/><path d="m143.992188 66.117188-50.847657 91.457031c-1.6875 3.039062-6.011719 3.167969-7.882812.238281l-11.863281-18.574219c-1.460938-2.289062-4.578126-2.816406-6.710938-1.140625l-17.324219 13.625c-2.730469 2.148438-6.769531.601563-7.363281-2.824218l-23.039062-132.945313c3.4375 2.261719 6.976562 4.472656 10.609374 6.632813 31.929688 18.988281 70.890626 33.980468 114.421876 43.53125zm0 0" fill="#6e7093"/><path d="m123.1875 61.03125-46.417969 83.488281 8.488281 13.292969c1.871094 2.929688 6.195313 2.800781 7.882813-.238281l50.851563-91.457031c-7.0625-1.546876-13.992188-3.257813-20.804688-5.085938zm0 0" fill="#4e5173"/><path d="m364.882812 66.789062-101.875 188.484376c-3.011718 5.570312-11.003906 5.570312-14.015624 0l-101.875-188.484376c2.707031.589844 5.4375 1.136719 8.183593 1.671876 1.144531.222656 2.292969.445312 3.4375.660156 3.652344.691406 7.3125 1.339844 11.027344 1.945312 27.40625 4.503906 56.332031 6.910156 86.234375 6.910156 29.898438 0 58.828125-2.40625 86.230469-6.910156 3.714843-.605468 7.375-1.253906 11.027343-1.945312 1.144532-.214844 2.292969-.4375 3.4375-.660156 2.75-.535157 5.480469-1.085938 8.1875-1.671876zm0 0" fill="#ffa436"/><path d="m356.695312 68.460938c-1.144531.222656-2.289062.445312-3.4375.660156-3.648437.691406-7.3125 1.339844-11.023437 1.945312-.988281.164063-1.996094.304688-2.988281.460938l-94.78125 175.363281 4.53125 8.378906c3.007812 5.570313 11 5.570313 14.011718 0l101.875-188.480469c-2.707031.585938-5.4375 1.136719-8.1875 1.671876zm0 0" fill="#cc6d0e"/><path d="m402.332031 127.855469c7.628907-.507813 13.667969-6.839844 13.667969-14.601563 0-8.089844-6.5625-14.652344-14.652344-14.652344-4.902344 0-9.226562 2.414063-11.886718 6.105469zm0 0" fill="#ffa436"/><path d="m471.082031 104.777344c0 8.09375-6.558593 14.652344-14.652343 14.652344-8.089844 0-14.652344-6.558594-14.652344-14.652344 0-8.089844 6.5625-14.648438 14.652344-14.648438 8.09375 0 14.652343 6.558594 14.652343 14.648438zm0 0" fill="#ffa436"/><path d="m457.90625 90.203125-4.988281 28.789063c1.128906.277343 2.300781.441406 3.511719.441406 8.089843 0 14.652343-6.5625 14.652343-14.652344 0-7.59375-5.777343-13.839844-13.175781-14.578125zm0 0" fill="#cc6d0e"/><path d="m456.429688 50.648438c0-4.617188-1.402344-8.90625-3.800782-12.464844-12.757812 5.882812-26.316406 11.207031-40.5625 15.902344 1.652344 10.691406 10.894532 18.875 22.050782 18.875 12.320312 0 22.3125-9.988282 22.3125-22.3125zm0 0" fill="#ffa436"/><path d="m138.101562 76.710938 5.890626-10.59375c-7.628907-1.671876-15.109376-3.523438-22.441407-5.523438l-86.660156 47.269531 3.980469 22.976563zm0 0" fill="#ffa436"/><path d="m123.1875 61.03125-19.003906 34.183594 33.917968-18.503906.820313-1.472657 5.070313-9.121093c-5.691407-1.238282-13.914063-3.222657-20.804688-5.085938zm0 0" fill="#cc6d0e"/><path d="m25.121094 51.488281 3.980468 22.976563 50.648438-27.628906c-8.886719-3.464844-17.460938-7.179688-25.679688-11.140626zm0 0" fill="#ffa436"/><g fill="#4e5173"><path d="m198.179688 111.460938 13.117187-11.738282c2.675781-2.394531 6.832031-1.953125 8.949219.949219l13.113281 18.011719c3.316406 4.558594-.832031 10.78125-6.3125 9.46875l-26.230469-6.273438c-4.761718-1.136718-6.28125-7.152344-2.636718-10.417968zm0 0"/><path d="m313.816406 111.460938-13.113281-11.738282c-2.675781-2.394531-6.835937-1.953125-8.949219.949219l-13.113281 18.011719c-3.320313 4.558594.832031 10.78125 6.3125 9.46875l26.230469-6.273438c4.757812-1.136718 6.28125-7.152344 2.632812-10.417968zm0 0"/><path d="m254.648438 183.34375-7.890626 7.242188c-.941406.867187-2.445312.636718-3.085937-.472657l-20.902344-36.195312c-.972656-1.683594.785157-3.625 2.554688-2.824219l22.023437 9.957031c.898438.40625 1.960938.097657 2.5-.726562l4.476563-6.855469c.789062-1.207031 2.558593-1.207031 3.347656 0l4.480469 6.855469c.539062.824219 1.601562 1.132812 2.496094.726562l22.023437-9.957031c1.773437-.800781 3.53125 1.140625 2.558594 2.824219l-20.90625 36.195312c-.640625 1.109375-2.140625 1.339844-3.082031.472657l-7.890626-7.242188c-.765624-.703125-1.9375-.703125-2.703124 0zm0 0"/></g><path d="m256 85.476562c-29.734375 0-59.15625-2.359374-87.449219-7.007812-3.691406-.605469-7.355469-1.25-11.203125-1.976562-1.148437-.214844-2.316406-.441407-3.480468-.671876-3.375-.65625-5.949219-1.183593-8.34375-1.703124-1-.203126-2.097657-.4375-3.183594-.683594-43.464844-9.539063-83.800782-24.898438-116.601563-44.402344-3.75-2.230469-7.417969-4.523438-10.898437-6.8125-4.101563-2.6875-8.070313-5.441406-11.785156-8.179688-3.335938-2.453124-4.050782-7.148437-1.59375-10.484374 2.457031-3.335938 7.148437-4.050782 10.484374-1.59375 3.5 2.574218 7.242188 5.171874 11.128907 7.71875 3.304687 2.175781 6.777343 4.34375 10.332031 6.460937 31.433594 18.691406 70.230469 33.441406 112.195312 42.652344 1.027344.230469 2.019532.441406 3.011719.644531 2.382813.519531 4.859375 1.023438 8.128907 1.664062 1.121093.21875 2.25.4375 3.375.644532 3.742187.707031 7.292968 1.335937 10.859374 1.917968 27.5 4.519532 56.101563 6.8125 85.023438 6.8125 28.917969 0 57.523438-2.292968 85.015625-6.808593 3.574219-.585938 7.125-1.214844 10.851563-1.917969 1.140624-.214844 2.269531-.433594 3.394531-.652344 3.265625-.636718 5.742187-1.144531 8.03125-1.640625 1.085937-.222656 2.078125-.433593 3.0625-.65625 42.003906-9.21875 80.800781-23.96875 112.238281-42.664062 3.554688-2.113281 7.027344-4.285157 10.320312-6.449219 3.894532-2.554688 7.640626-5.152344 11.136719-7.726562 3.339844-2.457032 8.03125-1.742188 10.488281 1.59375 2.457032 3.335937 1.742188 8.027343-1.59375 10.484374-3.71875 2.734376-7.6875 5.488282-11.796874 8.183594-3.472657 2.285156-7.136719 4.578125-10.886719 6.808594-32.800781 19.503906-73.136719 34.863281-116.648438 44.410156-1.042969.238282-2.136719.472656-3.234375.695313-2.300781.5-4.871094 1.023437-8.242187 1.683593-1.167969.230469-2.335938.457032-3.503907.671876-3.832031.726562-7.496093 1.371093-11.1875 1.976562-28.292968 4.648438-57.714843 7.007812-87.445312 7.007812zm0 0" fill="#9e71d3"/></svg>