<svg height="512pt" viewBox="-76 0 512 512.00083" width="512pt" xmlns="http://www.w3.org/2000/svg"><path d="m297.8125 71.816406c-4.101562-11.523437-15.007812-19.21875-27.238281-19.21875h-181.402344c-12.230469 0-23.136719 7.695313-27.238281 19.21875l-38.46875 108.117188h312.820312zm-48.003906 44.449219c0 15.882813-12.875 28.761719-28.761719 28.761719h-82.347656c-15.886719 0-28.765625-12.878906-28.765625-28.761719 0-15.886719 12.878906-28.761719 28.765625-28.761719h82.347656c15.886719 0 28.761719 12.875 28.761719 28.761719zm0 0" fill="#ffb05a"/><path d="m138.695312 87.503906h-24.464843c-15.882813 0-28.761719 12.875-28.761719 28.761719 0 15.882813 12.878906 28.761719 28.761719 28.761719h24.464843c-15.882812 0-28.761718-12.878906-28.761718-28.761719 0-15.886719 12.878906-28.761719 28.761718-28.761719zm0 0" fill="#cc6d0e"/><path d="m297.8125 71.816406c-4.101562-11.523437-15.007812-19.21875-27.238281-19.21875h-24.464844c12.230469 0 23.136719 7.695313 27.238281 19.21875l38.46875 108.117188h24.464844zm0 0" fill="#cc6d0e"/><path d="m30.4375 106.667969 53.347656-32.054688-10.511718-36.257812-62.222657 1.441406c-7.328125.171875-10.835937 9.078125-5.589843 14.199219l14.445312 14.113281c2.628906 2.570313 3.71875 6.324219 2.871094 9.898437l-4.660156 19.65625c-1.691407 7.132813 6.039062 12.78125 12.320312 9.003907zm0 0" fill="#3185db"/><path d="m163.550781 68.078125-62.21875 1.445313-10.511719-36.257813 53.347657-32.058594c6.28125-3.773437 14.007812 1.875 12.320312 9.003907l-4.660156 19.65625c-.847656 3.574218.242187 7.332031 2.871094 9.898437l14.445312 14.113281c5.242188 5.125 1.734375 14.03125-5.59375 14.199219zm0 0" fill="#3185db"/><path d="m97.273438 88.332031c7.613281-2.207031 11.996093-10.167969 9.789062-17.777343l-11.949219-41.222657c-2.207031-7.613281-10.167969-11.996093-17.78125-9.789062s-11.996093 10.167969-9.789062 17.78125l11.949219 41.21875c2.207031 7.613281 10.167968 11.996093 17.78125 9.789062zm0 0" fill="#80b9f9"/><path d="m0 186.097656v309.128906c0 9.261719 7.511719 16.773438 16.777344 16.773438h326.191406c9.261719 0 16.773438-7.511719 16.773438-16.773438v-309.128906c0-9.265625-7.511719-16.773437-16.773438-16.773437h-326.191406c-9.265625 0-16.777344 7.507812-16.777344 16.773437zm0 0" fill="#ffa436"/><path d="m342.96875 169.324219h-23.179688c9.265626 0 16.777344 7.507812 16.777344 16.773437v309.128906c0 9.261719-7.511718 16.773438-16.777344 16.773438h23.179688c9.265625 0 16.777344-7.511719 16.777344-16.773438v-309.128906c0-9.265625-7.511719-16.773437-16.777344-16.773437zm0 0" fill="#cc6d0e"/><path d="m270.382812 335.558594c0 28.125-22.800781 50.925781-50.925781 50.925781s-50.925781-22.800781-50.925781-50.925781 22.800781-50.925782 50.925781-50.925782 50.925781 22.800782 50.925781 50.925782zm0 0" fill="#f9dc6a"/><g fill="#4e5173"><path d="m141.265625 195.585938c-1.960937 7.765624-5.964844 14.253906-11.144531 18.308593-1.082032.84375-2.652344.328125-3.058594-.980469-3.046875-9.808593-9.675781-16.605468-17.363281-16.605468-7.691407 0-14.316407 6.796875-17.367188 16.605468-.40625 1.308594-1.976562 1.824219-3.054687.980469-5.183594-4.054687-9.183594-10.542969-11.144532-18.304687-.273437-1.074219-1.390624-1.691406-2.449218-1.371094-19.617188 5.953125-34.273438 29.570312-34.273438 57.8125 0 3.679688.246094 7.277344.722656 10.769531.257813 1.910157 2.84375 2.34375 3.664063.59375 6.972656-14.863281 15.382813-23.234375 22.222656-20.453125 1.84375.753906 3.449219 2.265625 4.804688 4.421875.917969 1.457031 3.101562 1.152344 3.527343-.515625 1.960938-7.6875 6.660157-13.566406 12.464844-15.351562 1.101563-.339844 2.253906.355468 2.46875 1.488281 2.296875 12.011719 9.667969 20.804687 18.414063 20.804687 8.742187 0 16.117187-8.792968 18.414062-20.804687.214844-1.132813 1.367188-1.828125 2.46875-1.488281 5.804688 1.785156 10.503907 7.664062 12.460938 15.351562.425781 1.667969 2.613281 1.972656 3.527343.515625 1.355469-2.15625 2.960938-3.667969 4.804688-4.421875 6.839844-2.78125 15.253906 5.589844 22.226562 20.453125.820313 1.75 3.402344 1.320313 3.664063-.59375.472656-3.492187.722656-7.089843.722656-10.769531 0-28.242188-14.660156-51.859375-34.277343-57.8125-1.054688-.324219-2.175782.296875-2.445313 1.367188zm0 0"/><path d="m316.367188 287.558594c-4.5 6.625-10.480469 11.355468-16.734376 13.390625-1.304687.421875-2.601562-.597657-2.539062-1.964844.492188-10.257813-3.410156-18.914063-10.636719-21.546875-7.226562-2.628906-15.777343 1.492188-21.996093 9.667969-.832032 1.089843-2.484376 1.035156-3.207032-.125-3.484375-5.582031-5.027344-13.046875-4.214844-21.011719.113282-1.101562-.726562-2.066406-1.828124-2.125-20.472657-1.117188-42.324219 16.0625-51.984376 42.601562-1.257812 3.457032-2.253906 6.925782-3.003906 10.367188-.410156 1.886719 1.871094 3.175781 3.242188 1.8125 11.632812-11.582031 22.402344-16.570312 27.878906-11.617188 1.476562 1.335938 2.464844 3.308594 3.003906 5.796876.363282 1.679687 2.519532 2.140624 3.488282.722656 4.472656-6.554688 10.898437-10.472656 16.960937-10.164063 1.152344.058594 1.996094 1.105469 1.8125 2.242188-1.949219 12.074219 1.972656 22.855469 10.1875 25.847656 8.21875 2.992187 18.152344-2.75 24.417969-13.25.589844-.992187 1.910156-1.25 2.832031-.554687 4.84375 3.664062 7.246094 10.792968 6.460937 18.6875-.171874 1.714843 1.777344 2.746093 3.136719 1.691406 2.011719-1.5625 4.039063-2.433594 6.027344-2.511719 7.375-.273437 12.417969 10.46875 13.886719 26.820313.171875 1.925781 2.75 2.40625 3.648437.695312 1.640625-3.117188 3.101563-6.417969 4.363281-9.871094 9.65625-26.542968 3.960938-53.746094-12.4375-66.050781-.882812-.664063-2.144531-.464844-2.765624.449219zm0 0"/><path d="m185.097656 427.132812c3.191406 0 4.492188-4.105468 1.878906-5.941406l-35.5-24.980468-29.003906-42.550782h-30.082031l-29.003906 42.550782-35.503907 24.980468c-2.609374 1.835938-1.308593 5.941406 1.882813 5.941406h36.929687l4.1875 60.078126-46.875 24.789062h181.425782l-61.28125-27.519531 4.015625-57.347657zm0 0"/></g><path d="m120.171875 466.65625h-25.703125c-1.460938 0-2.648438-1.1875-2.648438-2.648438v-21.882812c0-8.5625 6.941407-15.5 15.503907-15.5 8.558593 0 15.5 6.9375 15.5 15.5v21.882812c0 1.460938-1.1875 2.648438-2.652344 2.648438zm0 0" fill="#f9dc6a"/><path d="m75.183594 386.617188c-1.382813 0-2.785156-.371094-4.050782-1.15625l-21.992187-13.585938c-3.136719-1.9375-4.46875-5.828125-3.171875-9.285156l8.933594-23.832032-15.597656-11.367187c-3.449219-2.515625-4.207032-7.347656-1.691407-10.796875 2.511719-3.445312 7.347657-4.203125 10.792969-1.691406l20.34375 14.828125c2.804688 2.042969 3.902344 5.707031 2.683594 8.957031l-8.765625 23.382812 16.585937 10.246094c3.628906 2.242188 4.753906 7.003906 2.511719 10.632813-1.460937 2.367187-3.992187 3.667969-6.582031 3.667969zm0 0" fill="#4e5173"/></svg>