<svg height="512pt" viewBox="-57 0 512 512" width="512pt" xmlns="http://www.w3.org/2000/svg"><path d="m311.402344 512c-.664063 0-1.339844-.089844-2.007813-.277344-3.929687-1.109375-6.21875-5.191406-5.109375-9.121094 2.515625-8.921874 4.582032-18.425781 2.699219-27.46875-1.109375-5.335937-3.617187-10.652343-6.265625-16.28125-4.382812-9.296874-8.914062-18.914062-7.921875-30.15625.8125-9.257812 5.230469-17.085937 10.078125-24.957031l.285156-.464843c3.84375-6.238282 7.476563-12.128907 8.402344-18.261719.695312-4.601563-.785156-10.597657-4.894531-12.636719-3.65625-1.816406-5.148438-6.253906-3.332031-9.910156 1.816406-3.652344 6.25-5.148438 9.910156-3.328125 9.402344 4.671875 14.722656 16.21875 12.933594 28.082031-1.375 9.117188-6.1875 16.921875-10.433594 23.808594l-.28125.464844c-4.03125 6.539062-7.410156 12.445312-7.941406 18.496093-.640626 7.261719 2.863281 14.695313 6.570312 22.5625 2.898438 6.15625 5.898438 12.523438 7.367188 19.566407 2.535156 12.1875-.066407 24.277343-2.945313 34.492187-.921875 3.261719-3.886719 5.390625-7.113281 5.390625zm0 0" fill="#accfdd"/><path d="m307.730469 342.691406c-5.507813 0-4.710938 0-10.214844 0-6.980469 0-19.441406 21.535156-19.441406 33.492188 0 6.980468 5.660156 12.636718 12.640625 12.636718 3.851562 0 7.296875-1.726562 9.613281-4.449218 1.1875-1.394532 3.402344-1.394532 4.589844 0 2.3125 2.722656 5.757812 4.449218 9.613281 4.449218 6.980469 0 12.636719-5.65625 12.636719-12.636718 0-11.957032-12.457031-33.492188-19.4375-33.492188zm0 0" fill="#cc6d0e"/><path d="m302.621094 115.734375c-53.148438 0-96.230469 43.085937-96.230469 96.234375 0 78.417969 67.960937 145.273438 96.230469 145.273438 28.269531 0 96.234375-66.855469 96.234375-145.273438 0-53.148438-43.085938-96.234375-96.234375-96.234375zm0 0" fill="#ffa436"/><path d="m302.621094 115.734375c-2.039063 0-4.0625.070313-6.070313.195313 44.347657 3.136718 79.460938 44.929687 79.460938 96.039062 0 73.257812-52.269531 136.414062-79.460938 144.414062 2.175781.5625 4.210938.859376 6.070313.859376 28.269531 0 96.234375-66.855469 96.234375-145.273438 0-53.148438-43.085938-96.234375-96.234375-96.234375zm0 0" fill="#cc6d0e"/><g fill="#4e5173"><path d="m354.425781 205.253906-8.5625-20.5c-2.472656-5.914062-8.210937-9.738281-14.621093-9.738281-4.328126 0-8.519532 1.800781-11.496094 4.941406-2.980469 3.140625-4.558594 7.421875-4.328125 11.742188l1.175781 22.183593c.550781 10.457032 9.1875 18.648438 19.664062 18.648438 6.601563 0 12.726563-3.277344 16.386719-8.773438 3.660157-5.496093 4.324219-12.410156 1.78125-18.503906zm0 0"/><path d="m289.824219 191.699219c.230469-4.320313-1.347657-8.601563-4.324219-11.742188-2.980469-3.140625-7.167969-4.941406-11.496094-4.941406-6.410156 0-12.152344 3.824219-14.621094 9.738281l-8.5625 20.5c-2.546874 6.09375-1.882812 13.007813 1.777344 18.503906 3.660156 5.496094 9.789063 8.777344 16.390625 8.777344 10.472657 0 19.109375-8.191406 19.664063-18.648437zm0 0"/><path d="m302.621094 246.152344c-9.691406 0-16.996094 11.578125-16.996094 26.933594 0 15.351562 7.304688 26.933593 16.996094 26.933593s17-11.582031 17-26.933593c0-15.355469-7.308594-26.933594-17-26.933594zm0 0"/></g><path d="m96.695312 458.929688c-1.328124 0-2.671874-.355469-3.882812-1.105469-3.46875-2.148438-4.542969-6.707031-2.394531-10.175781 7.113281-11.488282 3.636719-27.839844.398437-39.136719-.523437-1.832031-1.070312-3.671875-1.617187-5.515625-4.136719-13.941406-8.414063-28.355469-5.34375-43.453125 1.460937-7.171875 4.453125-13.675781 7.347656-19.964844 3.722656-8.089844 7.242187-15.734375 6.59375-23.253906-.535156-6.261719-3.929687-12.339844-7.976563-19.0625l-.285156-.46875c-4.230468-7.03125-9.03125-15-10.398437-24.269531-1.773438-12.03125 3.523437-23.753907 12.878906-28.511719 3.636719-1.851563 8.085937-.398438 9.9375 3.238281 1.851563 3.640625.402344 8.089844-3.238281 9.941406-4.164063 2.117188-5.660156 8.367188-4.953125 13.175782.9375 6.339843 4.582031 12.394531 8.441406 18.800781l.28125.472656c4.832031 8.023437 9.234375 16.011719 10.042969 25.417969.980468 11.417968-3.53125 21.222656-7.894532 30.703125-2.660156 5.777343-5.171874 11.234375-6.289062 16.730469-2.335938 11.480468 1.242188 23.535156 5.027344 36.296874.5625 1.890626 1.121094 3.777344 1.65625 5.652344 4.007812 14 8.160156 34.519532-2.039063 50.988282-1.398437 2.257812-3.816406 3.5-6.292969 3.5zm0 0" fill="#accfdd"/><path d="m101.34375 226.953125c-5.507812 0-4.710938 0-10.21875 0-6.980469 0-19.4375 21.535156-19.4375 33.496094 0 6.980469 5.660156 12.636719 12.636719 12.636719 3.855469 0 7.300781-1.726563 9.613281-4.449219 1.1875-1.398438 3.40625-1.398438 4.59375 0 2.3125 2.722656 5.757812 4.449219 9.613281 4.449219 6.976563 0 12.636719-5.65625 12.636719-12.636719 0-11.960938-12.460938-33.496094-19.4375-33.496094zm0 0" fill="#50b596"/><path d="m96.234375 0c-53.148437 0-96.234375 43.085938-96.234375 96.234375 0 78.417969 67.964844 145.273437 96.234375 145.273437s96.230469-66.855468 96.230469-145.273437c.003906-53.148437-43.082032-96.234375-96.230469-96.234375zm0 0" fill="#81ebc7"/><path d="m96.234375 0c-2.039063 0-4.0625.0703125-6.070313.195312 44.34375 3.132813 79.457032 44.929688 79.457032 96.039063 0 73.257813-52.265625 136.414063-79.457032 144.410156 2.171876.566407 4.210938.863281 6.070313.863281 28.269531 0 96.234375-66.855468 96.234375-145.273437 0-53.148437-43.085938-96.234375-96.234375-96.234375zm0 0" fill="#50b596"/><path d="m148.035156 95.488281-8.5625-20.5c-2.46875-5.914062-8.210937-9.734375-14.621094-9.734375-4.328124 0-8.515624 1.800782-11.496093 4.9375-2.976563 3.140625-4.554688 7.421875-4.328125 11.742188l1.175781 22.183594c.554687 10.457031 9.191406 18.652343 19.664063 18.652343 6.601562 0 12.730468-3.28125 16.390624-8.777343 3.65625-5.492188 4.324219-12.410157 1.777344-18.503907zm0 0" fill="#4e5173"/><path d="m83.4375 81.933594c.226562-4.320313-1.347656-8.601563-4.328125-11.742188-2.976563-3.136718-7.167969-4.9375-11.496094-4.9375-6.410156 0-12.148437 3.820313-14.621093 9.734375l-8.5625 20.5c-2.542969 6.09375-1.878907 13.011719 1.78125 18.503907 3.660156 5.496093 9.785156 8.777343 16.386718 8.777343 10.472656 0 19.109375-8.191406 19.664063-18.648437zm0 0" fill="#4e5173"/><path d="m96.234375 136.386719c-9.691406 0-17 11.582031-17 26.933593 0 15.355469 7.308594 26.933594 17 26.933594s16.996094-11.578125 16.996094-26.933594c0-15.351562-7.304688-26.933593-16.996094-26.933593zm0 0" fill="#4e5173"/></svg>