<svg height="512pt" viewBox="-74 0 512 512.0005" width="512pt" xmlns="http://www.w3.org/2000/svg"><path d="m157.460938 2.71875-9.632813 26.472656 71.820313 26.140625 9.636718-26.472656c.777344-2.140625-.328125-4.511719-2.46875-5.292969l-64.0625-23.316406c-2.140625-.78125-4.511718.324219-5.292968 2.46875zm0 0" fill="#b78358"/><path d="m226.816406 23.566406-20.28125-7.382812c1.503906.550781 2.089844 2.730468 1.308594 4.875l-9.632812 26.472656-50.382813-18.339844 71.820313 26.140625 9.636718-26.472656c.777344-2.144531-.328125-4.511719-2.46875-5.292969zm0 0" fill="#935d38"/><path d="m179.800781 159.785156 33.0625-49.679687-78.152343-40.414063c-17.457032 26.804688-54.558594 90.683594-48.886719 149.101563 6.121093 63.011719-27.789063 107.335937-49.101563 149.542969-21.433594 42.457031-42.101562 93.171874-35.457031 121.546874 7.71875 32.945313 69.183594 24.59375 63.484375 4.066407-8.394531-30.238281 3.933594-102.015625 40.648438-149.148438 34.707031-44.558593 75.171874-128.589843 74.402343-185.015625zm0 0" fill="#b78358"/><path d="m212.863281 110.105469-78.152343-40.414063c-.078126.121094-.164063.25-.242188.375l54.460938 31.328125-29.59375 50.945313c-4.160157 54.628906-42.339844 139.492187-72.765626 185.605468-32.183593 48.785157-47.707031 119.398438-43.804687 148.003907 1.613281 11.832031-15.5625 21.386719-29.9375 19.960937 19.890625 12.667969 56.375 4.066406 51.921875-11.960937-8.394531-30.238281 3.9375-102.015625 40.648438-149.148438 34.707031-44.558593 75.171874-128.585937 74.402343-185.011719zm0 0" fill="#935d38"/><path d="m351.070312 97.230469-220.769531-80.351563c-6.335937-2.308594-13.34375.960938-15.652343 7.300782l-31.890626 87.621093c-2.308593 6.335938.960938 13.34375 7.300782 15.652344l126.714844 46.121094c5.605468 2.039062 9.886718 6.65625 11.503906 12.402343l12.253906 43.566407s27.253906 24.484375 46.027344 42.316406c.425781.40625 1.0625.492187 1.582031.222656 69.539063-36.019531 92.066406-128.539062 62.929687-174.851562zm0 0" fill="#6e7093"/><path d="m300.792969 237.316406c-.492188.191406-1.117188.078125-1.558594-.28125-19.476563-15.898437-47.664063-37.824218-47.664063-37.824218l-14.753906-36.691407c-1.945312-4.839843-6.421875-8.917969-12.03125-10.957031l-126.714844-46.121094c-6.339843-2.308594-9.980468-8.292968-8.132812-13.371094l-7.179688 19.730469c-2.308593 6.335938.960938 13.34375 7.300782 15.652344l126.714844 46.121094c5.605468 2.039062 9.890624 6.65625 11.503906 12.398437l12.253906 43.566406s27.253906 24.484376 46.027344 42.320313c.425781.402344 1.0625.492187 1.582031.222656 36.054687-18.675781 59.464844-52.539062 69.597656-87.273437-10.15625 22.136718-29.082031 41.792968-56.945312 52.507812zm0 0" fill="#4e5173"/><path d="m351.070312 97.230469-27.527343-10.019531c19.605469 46.683593-1.121094 125.78125-58.140625 164.941406 7.078125 6.503906 14.628906 13.507812 21.15625 19.707031.429687.40625 1.0625.492187 1.585937.222656 69.535157-36.019531 92.0625-128.539062 62.925781-174.851562zm0 0" fill="#e6eff5"/><path d="m267.863281 233.21875v111.242188c0 6.832031 5.542969 12.375 12.375 12.375 6.835938 0 12.375-5.542969 12.375-12.375v-43.804688c0-6.835938 5.542969-12.375 12.375-12.375 6.835938 0 12.375 5.539062 12.375 12.375v20.59375c0 6.835938 5.542969 12.375 12.375 12.375 6.835938 0 12.375-5.539062 12.375-12.375v-119.851562zm0 0" fill="#ed6161"/><path d="m353.976562 196.039062c-2.269531-3.878906-5.058593-7.460937-8.476562-10.582031-11.941406-10.925781-27.101562-17.621093-39.371094-28.160156-5.019531-4.308594-9.546875-9.199219-14.859375-13.136719-5.316406-3.9375-11.679687-6.929687-18.289062-6.664062s-13.332031 4.488281-14.953125 10.902344c-2.765625 10.949218 7.949218 18.742187 14.980468 25.03125 7.433594 6.648437 14.285157 15.410156 14.191407 25.871093-.070313 7.996094-5.222657 16.195313-12.992188 18.089844-7.089843 1.726563-14.257812-1.808594-20.945312-4.722656-6.191407-2.695313-12.683594-4.308594-18.722657-4.429688l5.992188 21.304688s27.253906 24.484375 46.027344 42.316406c.425781.40625 1.0625.492187 1.582031.222656 32.152344-16.65625 54.242187-45.386719 65.835937-76.042969zm0 0" fill="#ed6161"/><path d="m288.320312 271.984375c30-15.597656 53.1875-42.972656 65.652344-75.953125-.371094-.636719-.765625-1.261719-1.164062-1.882812-10.859375 18.238281-28.148438 33.988281-52.015625 43.167968-.492188.191406-1.117188.078125-1.558594-.28125-7.621094-6.222656-16.574219-13.363281-24.65625-19.757812-.125.035156-.246094.078125-.371094.113281-7.089843 1.726563-14.257812-1.808594-20.945312-4.722656-6.191407-2.695313-12.679688-4.308594-18.722657-4.429688l5.992188 21.300781s5.988281 5.382813 14.285156 12.933594c2.765625 2.519532 5.785156 5.277344 8.929688 8.160156 24.933594 22.867188 22.929687 22.203126 24.574218 21.351563zm0 0" fill="#ce4545"/></svg>