<svg height="512pt" viewBox="-69 0 512 512" width="512pt" xmlns="http://www.w3.org/2000/svg"><path d="m270.355469 0h-165.769531c-3.578126 0-6.898438 1.855469-8.773438 4.902344l-94.285156 153.152344c-1.5703128 2.554687-1.953125 5.667968-1.042969 8.527343l107.769531 338.242188c1.363282 4.273437 5.332032 7.175781 9.816406 7.175781h138.800782c4.484375 0 8.453125-2.902344 9.8125-7.175781l107.769531-338.242188c.914063-2.859375.53125-5.972656-1.042969-8.527343l-94.28125-153.152344c-1.875-3.046875-5.199218-4.902344-8.773437-4.902344zm0 0" fill="#fdeaaf"/><path d="m373.410156 158.054688-94.28125-153.152344c-1.875-3.046875-5.199218-4.902344-8.773437-4.902344h-23.808594c3.574219 0 6.894531 1.855469 8.769531 4.902344l94.285156 153.152344c1.574219 2.554687 1.953126 5.667968 1.042969 8.527343l-107.769531 338.242188c-1.359375 4.273437-5.328125 7.175781-9.816406 7.175781h23.8125c4.484375 0 8.453125-2.902344 9.8125-7.175781l107.769531-338.242188c.914063-2.859375.53125-5.972656-1.042969-8.527343zm0 0" fill="#f8cc7c"/><path d="m312.164062 166.757812c0-8.171874 3.894532-15.4375 9.933594-20.035156 1.246094-.949218 1.539063-2.707031.71875-4.042968l-61.75-100.300782c-2.8125-4.570312-7.792968-7.351562-13.15625-7.351562h-120.878906c-5.363281 0-10.34375 2.78125-13.15625 7.351562l-61.75 100.300782c-.820312 1.335937-.527344 3.09375.71875 4.042968 6.035156 4.597656 9.933594 11.863282 9.933594 20.035156 0 10.378907-6.28125 19.289063-15.253906 23.140626-1.433594.613281-2.128907 2.257812-1.652344 3.746093l88.441406 277.589844c1.089844 3.417969 4.265625 5.742187 7.855469 5.742187h90.605469c3.589843 0 6.765624-2.324218 7.855468-5.742187l88.441406-277.589844c.476563-1.488281-.21875-3.132812-1.652343-3.746093-8.972657-3.851563-15.253907-12.761719-15.253907-23.140626zm0 0" fill="#935d38"/><path d="m200.917969 171.820312v-30.460937c0-7.425781-6.019531-13.445313-13.449219-13.445313-7.425781 0-13.445312 6.019532-13.445312 13.445313v30.460937h-30.460938c-7.425781 0-13.445312 6.023438-13.445312 13.449219s6.019531 13.445313 13.445312 13.445313h30.460938v77.664062c0 7.425782 6.019531 13.445313 13.445312 13.445313s13.449219-6.019531 13.449219-13.445313v-77.664062h30.460937c7.425782 0 13.445313-6.019532 13.445313-13.445313s-6.019531-13.449219-13.445313-13.449219zm0 0" fill="#fdeaaf"/><path d="m211.277344 343.339844h-47.617188c-4.140625 0-7.5-3.359375-7.5-7.5 0-4.144532 3.359375-7.5 7.5-7.5h47.617188c4.144531 0 7.5 3.355468 7.5 7.5 0 4.140625-3.355469 7.5-7.5 7.5zm0 0" fill="#704426"/></svg>