<svg height="512pt" viewBox="-59 0 511 512" width="512pt" xmlns="http://www.w3.org/2000/svg"><path d="m196.828125 151.609375c-35.148437 0-63.742187-28.59375-63.742187-63.746094 0-35.148437 28.59375-63.742187 63.742187-63.742187s63.742187 28.59375 63.742187 63.742187c0 35.152344-28.59375 63.746094-63.742187 63.746094zm0-112.472656c-26.871094 0-48.730469 21.859375-48.730469 48.726562 0 26.871094 21.863282 48.730469 48.730469 48.730469s48.730469-21.859375 48.730469-48.730469c0-26.867187-21.859375-48.726562-48.730469-48.726562zm0 0" fill="#90b2ba"/><path d="m282.164062 63.988281-67.902343 8.949219c-1.457031.195312-2.699219-1.046875-2.507813-2.503906l8.949219-67.90625c.175781-1.339844-.867187-2.527344-2.214844-2.527344h-43.320312c-1.351563 0-2.390625 1.1875-2.214844 2.527344l8.949219 67.90625c.191406 1.457031-1.050782 2.699218-2.507813 2.503906l-67.90625-8.949219c-1.335937-.175781-2.523437.867188-2.523437 2.214844v43.320313c0 1.351562 1.1875 2.390624 2.523437 2.214843l67.90625-8.949219c1.457031-.191406 2.699219 1.050782 2.507813 2.507813l-8.949219 67.90625c-.175781 1.335937.863281 2.527344 2.214844 2.527344h43.320312c1.347657 0 2.390625-1.191407 2.214844-2.527344l-8.949219-67.90625c-.191406-1.457031 1.050782-2.699219 2.507813-2.507813l67.902343 8.949219c1.339844.175781 2.527344-.863281 2.527344-2.214843v-43.316407c0-1.351562-1.1875-2.394531-2.527344-2.21875zm0 0" fill="#b1bfc4"/><path d="m57.167969 461.289062v-16.933593c0-8.128907 6.589843-14.722657 14.71875-14.722657h249.882812c8.128907 0 14.71875 6.589844 14.71875 14.722657v16.933593zm0 0" fill="#e6eff5"/><path d="m321.769531 429.636719h-22.839843c8.128906 0 14.71875 6.589843 14.71875 14.71875v16.9375h22.839843v-16.9375c0-8.128907-6.589843-14.71875-14.71875-14.71875zm0 0" fill="#c5d3d6"/><path d="m267.867188 225.546875c-7.21875-32.597656-36.273438-56.984375-71.039063-56.984375s-63.820313 24.386719-71.039063 56.984375h-14.261718c-13.976563 0-25.308594 11.328125-25.308594 25.308594v178.78125h221.21875v-178.78125c0-13.980469-11.328125-25.308594-25.308594-25.308594zm0 0" fill="#d8e6f0"/><path d="m282.128906 225.546875h-14.261718c-7.21875-32.597656-36.273438-56.984375-71.039063-56.984375-3.886719 0-7.699219.320312-11.421875.910156 29.566406 4.660156 53.210938 27.121094 59.621094 56.074219h14.261718c13.980469 0 25.308594 11.328125 25.308594 25.308594v178.78125h22.839844v-178.78125c0-13.980469-11.328125-25.308594-25.308594-25.308594zm0 0" fill="#bdcdd6"/><path d="m241.078125 253.28125c-4.496094-20.304688-22.59375-35.492188-44.25-35.492188s-39.753906 15.191407-44.25 35.492188h-8.882813c-8.707031 0-15.765624 7.058594-15.765624 15.765625v160.585937h137.796874v-160.585937c0-8.707031-7.058593-15.765625-15.765624-15.765625zm0 0" fill="#bdcdd6"/><path d="m32.589844 474.523438v29.96875h328.476562v-29.96875c0-7.308594-5.921875-13.234376-13.230468-13.234376h-302.015626c-7.308593 0-13.230468 5.925782-13.230468 13.234376zm0 0" fill="#d8e6f0"/><path d="m347.835938 461.289062h-23.347657c7.308594 0 13.234375 5.925782 13.234375 13.234376v29.96875h23.347656v-29.96875c-.003906-7.308594-5.925781-13.234376-13.234374-13.234376zm0 0" fill="#bdcdd6"/><path d="m385.648438 512h-377.640626c-4.148437 0-7.507812-3.359375-7.507812-7.507812 0-4.144532 3.359375-7.507813 7.507812-7.507813h377.640626c4.144531 0 7.507812 3.363281 7.507812 7.507813 0 4.148437-3.359375 7.507812-7.507812 7.507812zm0 0" fill="#90b2ba"/></svg>