<svg height="512pt" viewBox="0 -121 512.00012 512" width="512pt" xmlns="http://www.w3.org/2000/svg"><path d="m265.832031 270.296875c-3.5625 0-7.140625-1.234375-10.046875-3.742187-6.429687-5.554688-7.140625-15.269532-1.589844-21.699219 31.292969-36.234375 47.832032-70.617188 47.832032-99.441407 0-56.839843-46.148438-104.867187-100.773438-104.867187s-100.773437 48.023437-100.773437 104.867187c0 28.824219 16.539062 63.207032 47.828125 99.4375 5.554687 6.433594 4.84375 16.148438-1.585938 21.703126-6.429687 5.554687-16.148437 4.84375-21.703125-1.589844-36.699219-42.496094-55.308593-82.71875-55.308593-119.550782 0-34.738281 13.949218-69.289062 38.269531-94.796874 25.113281-26.335938 58.238281-40.839844 93.273437-40.839844s68.160156 14.503906 93.273438 40.839844c24.320312 25.507812 38.269531 60.058593 38.269531 94.796874 0 36.832032-18.609375 77.054688-55.308594 119.550782-3.046875 3.523437-7.339843 5.332031-11.65625 5.332031zm0 0" fill="#6e7093"/><path d="m362.433594 34.742188 15.941406 59.488281c1.617188 6.042969 7.734375 9.960937 13.804688 8.453125 6.183593-1.539063 9.878906-7.839844 8.238281-13.96875l-3.335938-12.449219c28.105469-2.839844 51.640625-9.328125 69.613281-21.167969 5.675782 10.917969 18.351563 16.824219 30.726563 13.507813l11.265625-3.019531c2.382812-.640626 3.796875-3.089844 3.160156-5.472657l-13.390625-49.972656c-1.953125-7.296875-9.457031-11.625-16.753906-9.671875l-117.691406 31.535156c-1.191407.320313-1.898438 1.546875-1.578125 2.738282zm0 0" fill="#6e7093"/><path d="m511.847656 60.113281-6.09375-22.734375c.410156 1.527344-1.191406 3.28125-3.574218 3.917969l-11.265626 3.019531c-11.570312 3.101563-22.667968.871094-27.789062-4.9375-.628906-.714844-1.632812-.9375-2.484375-.515625-17.851563 8.816407-40.105469 14.921875-66.085937 19.203125-1.199219.199219-1.976563 1.386719-1.664063 2.5625l1.546875 5.773438c1.050781 3.921875-3.121094 8.441406-9.292969 10.019531-6.0625 1.546875-11.675781-.503906-12.714843-4.371094l5.945312 22.179688c1.617188 6.042969 7.734375 9.960937 13.804688 8.453125 6.183593-1.539063 9.878906-7.839844 8.238281-13.96875l-3.335938-12.449219c28.105469-2.839844 51.640625-9.328125 69.613281-21.167969 5.675782 10.917969 18.351563 16.824219 30.726563 13.507813l11.265625-3.019531c2.382812-.640626 3.796875-3.089844 3.160156-5.472657zm0 0" fill="#4e5173"/><path d="m82.558594 200.777344c-36.601563 5.894531-72.484375-16.769532-82.269532-53.382813-.195312-.722656-.289062-1.453125-.289062-2.175781 0-.226562.0117188-.453125.03125-.679688.0195312-.238281.0390625-.464843.082031-.679687.039063-.246094.09375-.492187.164063-.730469.03125-.164062.082031-.328125.132812-.496094.03125-.089843.0625-.183593.105469-.277343.039063-.113281.082031-.226563.132813-.339844.03125-.082031.0625-.164063.105468-.234375.050782-.136719.109375-.261719.183594-.382812.082031-.164063.175781-.328126.277344-.484376.0625-.132812.144531-.246093.226562-.371093 1.09375-1.628907 2.761719-2.882813 4.8125-3.429688l66.054688-17.699219c-1.710938 8.558594-2.597656 17.273438-2.597656 26 0 9.683594 1.289062 19.617188 3.855468 29.753907 2.121094 8.394531 5.117188 16.933593 8.992188 25.609375zm0 0" fill="#c8e7f7"/><path d="m350.4375 94.535156 1.773438 6.613282h.007812l1.289062 4.8125c3.121094 11.648437-3.800781 23.628906-15.464843 26.753906l-5.726563 1.535156c-.761718-8.945312-2.429687-17.8125-4.945312-26.445312-5.242188-18.039063-14.175782-35.066407-26.21875-49.707032l63.015625-16.886718 10.558593 39.425781-19.230468 5.152343c-3.824219 1.019532-6.070313 4.933594-5.058594 8.746094zm0 0" fill="#c8e7f7"/><path d="m322.722656 52.316406-21.570312 5.78125c12.042968 14.640625 20.972656 31.667969 26.21875 49.707032 2.511718 8.632812 4.183594 17.5 4.945312 26.445312l5.726563-1.535156c7.988281-2.140625 13.75-8.433594 15.585937-15.929688-4.457031-23.554687-15.152344-46.015625-30.90625-64.46875zm0 0" fill="#accfdd"/><path d="m82.558594 200.777344c-36.601563 5.894531-72.484375-16.769532-82.269532-53.382813-.195312-.722656-.289062-1.453125-.289062-2.175781 0-.226562.0117188-.453125.03125-.679688.0195312-.238281.0390625-.464843.082031-.679687.039063-.246094.09375-.492187.164063-.730469.03125-.164062.082031-.328125.132812-.496094.03125-.089843.0625-.183593.105469-.277343.039063-.113281.082031-.226563.132813-.339844.03125-.082031.0625-.164063.105468-.234375.050782-.136719.109375-.261719.183594-.382812.082031-.164063.175781-.328126.277344-.484376.0625-.132812.144531-.246093.226562-.371093 14.835938 24.488281 43.09375 38.457031 72.125 34.625 2.121094 8.394531 5.117188 16.933593 8.992188 25.609375zm0 0" fill="#e6eff5"/><path d="m338.042969 132.714844-5.726563 1.535156c-.761718-8.945312-2.429687-17.8125-4.945312-26.445312l24.839844-6.65625h.007812l1.289062 4.8125c3.121094 11.648437-3.804687 23.628906-15.464843 26.753906zm0 0" fill="#e6eff5"/><path d="m353.632812 116.785156c-.960937-5.066406-2.210937-10.082031-3.734374-15.019531l-22.527344 6.035156c2.515625 8.632813 4.183594 17.503907 4.945312 26.445313 1.757813-.890625 17.484375-1.824219 21.316406-17.460938zm0 0" fill="#c5d3d6"/></svg>