<svg height="512pt" viewBox="-113 0 512 512" width="512pt" xmlns="http://www.w3.org/2000/svg"><path d="m121.222656 325.425781h43.957032v186.574219h-43.957032zm0 0" fill="#6e7093"/><path d="m144.535156 325.425781h20.644532v186.574219h-20.644532zm0 0" fill="#4e5173"/><path d="m284.640625 108.875-31-44.398438c-3.871094-5.546874-12.085937-5.546874-15.960937 0l-30.996094 44.398438c-4 5.730469-.839844 13.707031 6.007812 15.097656 8.109375 1.644532 14.902344 4.476563 20.269532 8.609375l4.535156 52.042969c1.6875 18.851562-4.785156 36.894531-18.1875 50.464844-12.066406 12.21875-28.722656 18.800781-45.894532 18.800781-7.992187 0-14.46875-6.480469-14.46875-14.472656v-169.285157c4.796876-2.984374 10.542969-5.113281 17.148438-6.460937 6.878906-1.40625 10.105469-9.355469 6.085938-15.113281l-31-44.398438c-3.871094-5.546875-12.085938-5.546875-15.957032 0l-31 44.398438c-4.019531 5.757812-.792968 13.707031 6.089844 15.113281 6.601562 1.347656 12.347656 3.476563 17.148438 6.460937v169.285157c0 7.992187-6.480469 14.472656-14.472657 14.472656-17.847656 0-35.082031-7.152344-47.25-20.214844-12.480469-13.394531-18.460937-30.847656-16.832031-49.050781l4.535156-52.042969c5.367188-4.132812 12.164063-6.964843 20.269532-8.609375 6.847656-1.390625 10.007812-9.367187 6.007812-15.097656l-30.996094-44.398438c-3.875-5.546874-12.085937-5.546874-15.960937 0l-31 44.398438c-3.980469 5.703125-.882813 13.707031 5.9375 15.082031 7.234375 1.460938 13.421875 3.871094 18.492187 7.292969l-5.800781 64.699219c-4.832031 53.96875 37.675781 100.449219 91.855469 100.449219h7.488281l-9.648437 32.707031c-1.355469 4.59375 2.085937 9.199219 6.875 9.199219h52.480468c4.789063 0 8.230469-4.605469 6.875-9.199219l-9.648437-32.707031h7.488281c54.179688 0 96.691406-46.480469 91.855469-100.449219l-5.800781-64.699219c5.070312-3.421875 11.257812-5.835938 18.492187-7.292969 6.816406-1.375 9.917969-9.378906 5.9375-15.082031zm0 0" fill="#ed6161"/><g fill="#ce4545"><path d="m63.238281 108.875c3.996094 5.730469.839844 13.707031-6.007812 15.097656-8.109375 1.644532-14.90625 4.476563-20.273438 8.609375l-4.535156 52.042969c-1.625 18.203125 4.355469 35.65625 16.835937 49.050781 12.167969 13.0625 29.398438 20.214844 47.25 20.214844 1.835938 0 3.589844-.355469 5.207032-.980469-13.683594-2.355468-26.398438-8.957031-35.976563-19.230468-12.476562-13.398438-18.457031-30.851563-16.832031-49.054688l4.535156-52.042969c5.367188-4.128906 12.164063-6.964843 20.269532-8.609375 6.847656-1.386718 10.007812-9.367187 6.007812-15.09375l-30.996094-44.402344c-3.875-5.546874-12.085937-5.546874-15.960937 0l-.261719.375zm0 0"/><path d="m165.695312 48.558594c4.019532 5.757812.792969 13.707031-6.085937 15.113281-6.605469 1.347656-12.351563 3.476563-17.152344 6.460937v169.285157c0 7.992187 6.480469 14.472656 14.472657 14.472656 3.804687 0 7.578124-.34375 11.289062-.976563-5.421875-2.089843-9.277344-7.335937-9.277344-13.496093v-169.285157c4.800782-2.984374 10.542969-5.113281 17.148438-6.460937 6.882812-1.40625 10.109375-9.355469 6.089844-15.113281l-31-44.398438c-3.871094-5.546875-12.085938-5.546875-15.957032 0l-.261718.375zm0 0"/><path d="m284.640625 108.875-31-44.398438c-3.875-5.550781-12.085937-5.546874-15.960937 0l-.261719.375 30.738281 44.027344c3.984375 5.703125.882812 13.703125-5.933594 15.082032-7.238281 1.457031-13.425781 3.867187-18.496094 7.292968l5.804688 64.699219c4.832031 53.96875-37.675781 100.445313-91.859375 100.445313h-4.730469c-1.375 0-2.367187 1.324218-1.976562 2.644531l8.871094 30.066406c1.355468 4.589844-2.085938 9.195313-6.875 9.195313h16.484374c4.785157 0 8.230469-4.605469 6.875-9.195313l-9.652343-32.710937h7.488281c54.183594 0 96.691406-46.480469 91.859375-100.445313l-5.804687-64.699219c5.070312-3.425781 11.257812-5.835937 18.492187-7.296875 6.816406-1.375 9.917969-9.378906 5.9375-15.082031zm0 0"/></g></svg>