<svg height="512pt" viewBox="-104 0 512 512" width="512pt" xmlns="http://www.w3.org/2000/svg"><path d="m196.398438 198.882812 33.730468-14.953124c-5.410156 11.855468 1.445313 25.609374 11.085938 34.980468 9.644531 9.367188 22.011718 16.214844 31.195312 25.957032 11.550782 12.246093 17.355469 28.84375 15.703125 44.914062l-33.726562 14.953125c1.648437-16.074219-4.152344-32.671875-15.703125-44.917969-9.1875-9.742187-21.554688-16.585937-31.199219-25.957031-9.640625-9.367187-16.496094-23.121094-11.085937-34.976563zm0 0" fill="#c5d3d6"/><path d="m241.214844 218.910156c-9.640625-9.371094-16.5-23.121094-11.085938-34.980468l-33.730468 14.953124c-5.414063 11.855469 1.445312 25.609376 11.085937 34.976563 9.644531 9.371094 22.007813 16.214844 31.195313 25.957031 3.523437 3.738282 6.507812 7.882813 8.914062 12.292969 9.160156-7.992187 17.335938-17.34375 24.273438-27.800781-9.128907-9.441406-21.195313-16.210938-30.652344-25.398438zm0 0" fill="#a5b3b7"/><path d="m267.265625 354.671875-67.933594-25.417969c-.804687-.300781-1.339843-1.070312-1.339843-1.929687v-64.96875h-90.996094v64.96875c0 .859375-.53125 1.628906-1.339844 1.929687l-67.929688 25.417969c-22.691406 8.492187-37.726562 30.171875-37.726562 54.398437v98.339844c0 2.535156 2.054688 4.589844 4.589844 4.589844h295.8125c2.535156 0 4.585937-2.054688 4.585937-4.589844v-98.339844c0-24.226562-15.035156-45.90625-37.722656-54.398437zm0 0" fill="#e6eff5"/><path d="m267.265625 354.671875-67.933594-25.417969c-.804687-.300781-1.339843-1.070312-1.339843-1.929687v-64.96875h-24.601563v61.648437c0 2.855469 1.769531 5.410156 4.449219 6.414063l64.820312 24.253906c22.6875 8.492187 37.726563 30.171875 37.726563 54.398437v98.339844c0 2.535156-2.054688 4.589844-4.589844 4.589844h24.605469c2.535156 0 4.585937-2.054688 4.585937-4.589844v-98.339844c0-24.226562-15.035156-45.90625-37.722656-54.398437zm0 0" fill="#c5d3d6"/><path d="m106.996094 290.476562c19.414062 13.390626 42.242187 21.113282 66.671875 21.113282 8.320312 0 16.449219-.90625 24.324219-2.617188v-46.617187h-90.996094zm0 0" fill="#c5d3d6"/><path d="m280.386719 144.082031c0-79.574219-57.261719-144.082031-127.890625-144.082031-70.632813 0-127.890625 64.507812-127.890625 144.082031s57.257812 144.078125 127.890625 144.078125c70.628906 0 127.890625-64.503906 127.890625-144.078125zm0 0" fill="#e6eff5"/><path d="m174.945312 80.601562c-18.355468-3.078124-65.066406-29.292968-94.484374-55.578124-4.097657 3.148437-8.023438 6.558593-11.761719 10.210937 32.421875 29.554687 82.484375 57.050781 103.695312 60.605469.429688.074218.859375.109375 1.285157.109375 3.707031 0 6.976562-2.675781 7.609374-6.453125.703126-4.207032-2.132812-8.191406-6.34375-8.894532zm0 0" fill="#c5d3d6"/><path d="m152.496094 0c-2.179688 0-4.34375.0625-6.496094.183594 61.078125 3.808594 109.660156 66.777344 109.660156 143.898437 0 77.117188-48.582031 140.085938-109.660156 143.894531 2.152344.121094 4.316406.183594 6.496094.183594 70.632812 0 127.890625-64.503906 127.890625-144.078125s-57.257813-144.082031-127.890625-144.082031zm0 0" fill="#c5d3d6"/><path d="m254.105469 57.351562c.121093-.078124.234375-.164062.347656-.246093-2.90625-4.316407-6.015625-8.449219-9.328125-12.367188-22.914062 14.417969-47.84375 26.605469-74.117188 36.230469-37.851562 13.882812-95.050781 21.277344-121.789062 21.277344-4.269531 0-7.726562 3.457031-7.726562 7.726562 0 4.265625 3.460937 7.722656 7.726562 7.722656 27.886719 0 87.574219-7.722656 127.105469-22.21875 27.574219-10.097656 53.742187-22.925781 77.78125-38.125zm0 0" fill="#c5d3d6"/><path d="m237.800781 67.105469c4.488281-2.542969 14.507813-8.472657 16.652344-10-2.460937-3.449219-4.417969-6.554688-9.328125-12.367188-4.914062 3.09375-9.929688 6.078125-15.023438 8.960938 2.761719 4.277343 5.332032 8.75 7.699219 13.40625zm0 0" fill="#a5b3b7"/><path d="m253.734375 180.6875c-2.335937-3.570312-7.125-4.570312-10.695313-2.234375-12.605468 8.253906-84.246093 31.699219-141.796874 37.273437-.0625.003907-.125.007813-.183594.015626-18.691406 1.800781-42.71875 2.5-58.621094 1.746093 2.886719 5.488281 6.085938 10.746094 9.578125 15.730469 1.589844.019531 3.214844.03125 4.867187.03125 14.503907 0 31.25-.746094 45.496094-2.113281.0625-.003907.125-.007813.183594-.015625 59.769531-5.753906 133.371094-29.546875 148.941406-39.738282 3.570313-2.339843 4.570313-7.125 2.230469-10.695312zm0 0" fill="#c5d3d6"/><path d="m236.25 252.96875c-62.503906-8.742188-117.679688-28.996094-130.65625-36.277344-1.15625-.648437-2.46875-.988281-3.792969-.988281-4.269531 0-7.722656 3.460937-7.722656 7.726563 0 2.964843 1.675781 5.539062 4.128906 6.835937 14.824219 8.238281 64.769531 26.285156 122.222657 35.898437 5.574218-3.945312 10.867187-8.355468 15.820312-13.195312zm0 0" fill="#c5d3d6"/><path d="m218.335938 250.125c-4.183594 4.800781-8.652344 9.222656-13.371094 13.21875 5.078125 1 10.238281 1.945312 15.460937 2.820312 2.777344-1.964843 5.480469-4.046874 8.109375-6.234374.019532-.015626.035156-.027344.050782-.042969 1.230468-1.023438 2.4375-2.078125 3.632812-3.152344.1875-.167969.375-.335937.558594-.507813 1.171875-1.0625 2.332031-2.144531 3.46875-3.257812h.003906c-6.050781-.847656-12.03125-1.804688-17.914062-2.84375zm0 0" fill="#a5b3b7"/><path d="m106.996094 320.179688c20.582031 17.140624 53.027344 35.6875 97.09375 35.6875 14.675781 0 30.644531-2.0625 47.886718-6.914063l-26.925781-10.074219c-59.09375 8.238282-98.597656-20.175781-118.054687-39.578125zm0 0" fill="#c5d3d6"/><path d="m236.976562 352.546875c4.886719-.96875 9.886719-2.15625 15-3.59375l-20.964843-7.84375-5.960938-2.230469c-7.199219 1.003906-14.101562 1.453125-20.722656 1.453125zm0 0" fill="#a5b3b7"/><path d="m56.136719 478.519531c.242187 0 .484375-.011719.726562-.035156 67.410157-6.308594 120.324219-32.855469 152.839844-54.011719 17.535156-11.410156 33.953125-24.382812 47.476563-37.519531 9.625-9.351563 17.378906-18.375 22.335937-25.941406-3.761719-2.554688-7.863281-4.695313-12.25-6.339844l-1.640625-.613281c-13.71875 20.296875-45.132812 44.960937-64.351562 57.460937-31.058594 20.210938-81.574219 45.5625-145.847657 51.582031-4.25.394532-7.371093 4.164063-6.976562 8.410157.378906 4.003906 3.742187 7.007812 7.6875 7.007812zm0 0" fill="#c5d3d6"/><path d="m265.625 354.058594c-2.070312 3.0625-4.550781 6.226562-7.324219 9.433594 4.066407 3.210937 7.664063 6.941406 10.710938 11.066406 4.234375-4.828125 7.789062-9.40625 10.503906-13.550782-7.035156-4.769531-13.070313-6.578124-13.890625-6.949218zm0 0" fill="#a5b3b7"/><g fill="#c5d3d6"><path d="m37.726562 354.671875c-1.859374.695313-3.65625 1.488281-5.40625 2.351563 36.570313 31.792968 94.460938 67.980468 169.90625 69.933593.070313 0 .136719.003907.207032.003907 4.171875 0 7.609375-3.328126 7.71875-7.527344.109375-4.265625-3.257813-7.8125-7.523438-7.925782-66.820312-1.726562-119.222656-32.226562-153.996094-60.914062zm0 0"/><path d="m171.929688 512c38.382812-13.699219 72.402343-31.457031 81.683593-38.734375 3.359375-2.632813 3.945313-7.488281 1.3125-10.847656-2.632812-3.355469-7.488281-3.941407-10.847656-1.3125-11.097656 8.707031-77.433594 41.671875-130.367187 50.894531zm0 0"/><path d="m0 453.042969v20.863281c19.757812 16.035156 41.089844 23.851562 55.152344 25.667969.339844.042969.671875.066406 1.003906.066406 3.824219 0 7.148438-2.839844 7.652344-6.738281.546875-4.230469-2.441406-8.105469-6.671875-8.652344-11.515625-1.488281-36.121094-9.746094-57.136719-31.207031zm0 0"/><path d="m304.988281 451.324219c-17.304687 21.03125-40.746093 30.804687-57.132812 32.925781-4.234375.546875-7.21875 4.421875-6.671875 8.652344.503906 3.894531 3.824218 6.738281 7.652344 6.738281.328124 0 .664062-.023437 1-.066406 7.988281-1.03125 32.449218-5.769531 55.152343-25.996094zm0 0"/></g><path d="m280.386719 472.449219v17.617187c7.847656-3.824218 16.339843-9.125 24.601562-16.488281v-22.253906c-7.417969 9.019531-15.964843 15.960937-24.601562 21.125zm0 0" fill="#a5b3b7"/><path d="m33.429688 91.394531c-5.695313 16.316407-8.824219 34.089844-8.824219 52.6875 0 2.207031.050781 4.40625.136719 6.589844 40.257812 26.042969 124.953124 49.132813 248.101562 42.242187 4.878906-15.25 7.542969-31.691406 7.542969-48.835937 0-7.390625-.496094-14.648437-1.449219-21.742187-133.332031 15.714843-207.90625-7.25-245.507812-30.941407zm0 0" fill="#f9c295"/><path d="m278.9375 122.335938c-8.332031.984374-16.429688 1.8125-24.304688 2.503906 2.441407 22.8125.585938 46.527344-6.074218 69.0625 7.921875-.199219 16.015625-.523438 24.285156-.988282 7.300781-22.824218 9.214844-47.339843 6.09375-70.578124zm0 0" fill="#e59f6a"/><path d="m63.871094 512v-63.105469c0-4.269531-3.460938-7.726562-7.726563-7.726562s-7.726562 3.457031-7.726562 7.726562v63.105469zm0 0" fill="#a5b3b7"/><path d="m256.570312 512v-63.105469c0-4.269531-3.457031-7.726562-7.726562-7.726562-4.265625 0-7.726562 3.457031-7.726562 7.726562v63.105469zm0 0" fill="#a5b3b7"/><path d="m206.160156 165.167969c4.144532 0 7.5-3.359375 7.5-7.5v-1c0-4.144531-3.355468-7.5-7.5-7.5-4.140625 0-7.5 3.355469-7.5 7.5v1c0 4.140625 3.359375 7.5 7.5 7.5zm0 0" fill="#363b51"/><path d="m98.828125 149.167969c-4.144531 0-7.5 3.355469-7.5 7.5v1c0 4.140625 3.355469 7.5 7.5 7.5s7.5-3.359375 7.5-7.5v-1c0-4.144531-3.355469-7.5-7.5-7.5zm0 0" fill="#363b51"/></svg>