<svg height="511pt" viewBox="0 -19 511.99952 511" width="511pt" xmlns="http://www.w3.org/2000/svg"><path d="m486.875 61.335938c-4.503906 31.914062 2.449219 63.828124 4.160156 95.671874.238282 4.285157.363282 8.613282.371094 12.9375.019531 19.253907-2.503906 38.570313-10.527344 55.960938-3.617187 7.808594-8.335937 15.03125-13.898437 21.550781-6.511719 7.632813-14.175781 14.300781-22.582031 19.789063-6.25 4.089844-19.664063 12.035156-31.460938 15.535156-6.933594-29.03125-21.570312-56.339844-42.445312-78.230469-3.832032-4.019531-7.816407-7.820312-11.9375-11.382812 14.832031-2.320313 29.089843-8.488281 40.503906-18.050781 13.609375-11.414063 23.253906-27.484376 26.910156-44.863282 7.179688-34.089844-5.523438-70.753906 19.007812-99.980468 9.671876-11.535157 22.941407-19.222657 36.972657-24.25 3.832031-1.371094 14.09375-3.523438 23.765625-5.417969 4.914062-.957031 8.261718 4.839843 4.964844 8.589843-12.082032 13.777344-21.199219 33.617188-23.804688 52.140626zm-373.9375 113.78125c-13.609375-11.414063-23.25-27.484376-26.90625-44.863282-7.183594-34.089844 5.519531-70.753906-19.007812-99.980468-9.675782-11.535157-22.941407-19.222657-36.972657-24.25-3.832031-1.371094-14.09375-3.523438-23.765625-5.417969-4.914062-.957031-8.261718 4.839843-4.96875 8.589843 12.085938 13.773438 21.203125 33.617188 23.808594 52.140626 4.503906 31.914062-2.453125 63.828124-4.160156 95.671874-.238282 4.285157-.363282 8.609376-.371094 12.9375-.023438 19.253907 2.5 38.570313 10.527344 55.960938 3.617187 7.808594 8.332031 15.027344 13.894531 21.550781 6.511719 7.632813 14.175781 14.296875 22.582031 19.789063 6.253906 4.089844 19.667969 12.03125 31.464844 15.535156 6.933594-29.03125 21.570312-56.339844 42.441406-78.230469 3.835938-4.019531 7.820313-7.820312 11.941406-11.386719-14.835937-2.3125-29.09375-8.484374-40.507812-18.046874zm0 0" fill="#ed6161"/><path d="m510.679688 9.195312c3.300781-3.75-.050782-9.546874-4.964844-8.589843-6.921875 1.355469-14.132813 2.84375-19.085938 4.082031-10.339844 13.429688-17.992187 31.191406-20.34375 47.890625-4.5 31.914063 2.453125 63.828125 4.164063 95.671875.234375 4.285156.359375 8.613281.371093 12.941406.019532 19.253906-2.503906 38.570313-10.527343 55.957032-3.617188 7.808593-8.335938 15.03125-13.898438 21.550781-6.511719 7.636719-14.175781 14.300781-22.582031 19.789062-3.4375 2.25-9.042969 5.660157-15.351562 8.863281 1.730468 5.074219 3.234374 10.222657 4.476562 15.429688 11.796875-3.503906 25.210938-11.445312 31.460938-15.535156 8.40625-5.488282 16.070312-12.15625 22.582031-19.789063 5.5625-6.519531 10.28125-13.742187 13.898437-21.550781 8.023438-17.390625 10.546875-36.707031 10.527344-55.960938-.007812-4.324218-.132812-8.652343-.371094-12.9375-1.710937-31.84375-8.664062-63.757812-4.160156-95.671874 2.605469-18.523438 11.722656-38.363282 23.804688-52.140626zm0 0" fill="#ce4545"/><path d="m112.9375 175.117188c-13.609375-11.414063-23.25-27.484376-26.90625-44.863282-7.183594-34.089844 5.519531-70.753906-19.007812-99.980468-9.675782-11.535157-22.941407-19.222657-36.972657-24.25-3.832031-1.371094-14.09375-3.523438-23.765625-5.417969-4.914062-.957031-8.261718 4.839843-4.96875 8.589843 3.582032 4.085938 6.894532 8.707032 9.863282 13.664063 2.019531.503906 3.679687.96875 4.789062 1.363281 14.03125 5.027344 27.300781 12.714844 36.976562 24.253906 24.527344 29.222657 11.824219 65.890626 19.003907 99.976563 3.660156 17.378906 13.300781 33.449219 26.910156 44.863281 10.527344 8.820313 23.472656 14.746094 37.058594 17.433594 1.8125-2.105469 3.664062-4.183594 5.585937-6.199219 3.832032-4.019531 7.820313-7.820312 11.941406-11.382812-14.835937-2.316407-29.09375-8.488281-40.507812-18.050781zm0 0" fill="#ce4545"/><path d="m335.273438 474.21875c-4.371094 0-8.765626-1.511719-12.332032-4.59375-7.894531-6.820312-8.769531-18.742188-1.949218-26.636719 38.410156-44.476562 58.710937-86.6875 58.710937-122.066406 0-69.777344-56.648437-128.730469-123.703125-128.730469s-123.703125 58.953125-123.703125 128.730469c0 35.378906 20.300781 77.589844 58.710937 122.066406 6.816407 7.894531 5.945313 19.816407-1.949218 26.636719-7.890625 6.816406-19.816406 5.945312-26.636719-1.949219-45.054687-52.167969-67.898437-101.542969-67.898437-146.753906 0-42.640625 17.125-85.054687 46.980468-116.367187 30.824219-32.328126 71.488282-50.132813 114.496094-50.132813s83.667969 17.804687 114.496094 50.132813c29.855468 31.3125 46.976562 73.726562 46.976562 116.367187 0 45.210937-22.84375 94.585937-67.894531 146.753906-3.734375 4.324219-9.003906 6.542969-14.304687 6.542969zm0 0" fill="#6e7093"/><path d="m462.695312 150.347656c8.3125 6.089844 18.164063 10.136719 28.554688 11.757813.089844 2.609375.152344 5.222656.15625 7.84375.003906 2.570312-.042969 5.144531-.140625 7.714843-.296875-.007812-.597656-.019531-.902344-.0625-13.375-1.835937-26.101562-6.949218-36.800781-14.789062-3.441406-2.519531-4.1875-7.355469-1.667969-10.796875 2.523438-3.445313 7.359375-4.191406 10.800781-1.667969zm-13.796874 62.710938c-1.558594-3.972656-6.039063-5.933594-10.015626-4.371094-3.972656 1.554688-5.929687 6.039062-4.371093 10.011719 5.308593 13.539062 14.949219 25.742187 27.191406 34.480469 1.832031-1.839844 3.59375-3.746094 5.277344-5.722657 1.671875-1.957031 3.253906-3.984375 4.765625-6.066406-.121094-.09375-.234375-.191406-.363282-.277344-10.171874-7.050781-18.15625-17.011719-22.484374-28.054687zm-375.785157-4.371094c-3.972656-1.558594-8.457031.398438-10.011719 4.371094-4.328124 11.042968-12.316406 21.003906-22.488281 28.054687-.125.085938-.238281.183594-.359375.277344 1.511719 2.082031 3.09375 4.109375 4.761719 6.066406 1.6875 1.972657 3.449219 3.882813 5.28125 5.722657 12.242187-8.742188 21.882813-20.941407 27.191406-34.480469 1.558594-3.972657-.402343-8.457031-4.375-10.011719zm-13.007812-56.671875c-2.523438-3.445313-7.359375-4.191406-10.800781-1.667969-8.3125 6.089844-18.164063 10.136719-28.554688 11.757813-.089844 2.609375-.152344 5.222656-.15625 7.84375-.003906 2.570312.042969 5.144531.136719 7.714843.300781-.007812.601562-.019531.90625-.0625 13.371093-1.835937 26.097656-6.949218 36.796875-14.789062 3.445312-2.523438 4.191406-7.355469 1.671875-10.796875zm0 0" fill="#ce4545"/><g fill="#aa3535"><path d="m470.730469 155.320312c.050781 1.953126.085937 3.910157.089843 5.871094.003907 3.699219-.089843 7.398438-.292968 11.085938 9.023437 3.6875 18.375 5.339844 20.742187 5.386718.042969-2.726562.304688-5.988281-.019531-15.546874 0-.003907 0-.007813 0-.007813-7.21875-1.128906-14.160156-3.449219-20.519531-6.789063zm0 0"/><path d="m471.382812 241.113281c-6.097656-4.226562-11.402343-9.503906-15.609374-15.429687-2.757813 4.59375-5.902344 8.941406-9.378907 13.019531-.015625.019531-.035156.039063-.054687.058594 4.429687 5.421875 9.601562 10.308593 15.363281 14.417969 3.910156-3.933594 7.078125-7.703126 10.039063-11.785157h.003906c-.121094-.097656-.234375-.195312-.363282-.28125zm0 0"/></g></svg>