<svg height="512pt" viewBox="-89 0 512 512.00053" width="512pt" xmlns="http://www.w3.org/2000/svg"><path d="m43.46875 183.132812c-2.167969 10.230469-3.320312 20.898438-3.320312 31.859376 0 14.433593 1.988281 28.355468 5.679687 41.449218h241.984375c3.6875-13.09375 5.675781-27.015625 5.675781-41.449218 0-10.960938-1.148437-21.628907-3.316406-31.859376zm0 0" fill="#363b51"/><path d="m297.570312 512h-261.503906c-2.238281 0-4.054687-1.816406-4.054687-4.054688v-58.714843c0-21.414063 13.292969-40.582031 33.351562-48.085938l101.457031-37.964843 101.457032 37.964843c20.058594 7.503907 33.351562 26.671875 33.351562 48.085938v58.714843c0 2.238282-1.816406 4.054688-4.058594 4.054688zm0 0" fill="#6e7093"/><path d="m166.820312 363.179688-52.625 19.691406v129.128906h105.25v-129.128906zm0 0" fill="#e6eff5"/><g fill="#4e5173"><path d="m268.277344 401.144531-101.457032-37.964843v8.527343l78.667969 29.4375c20.054688 7.503907 33.347657 26.671875 33.347657 48.085938v58.714843c0 2.238282-1.816407 4.054688-4.054688 4.054688h22.789062c2.242188 0 4.058594-1.816406 4.058594-4.054688v-58.714843c0-21.414063-13.292968-40.578125-33.351562-48.085938zm0 0"/><path d="m76.101562 512v-30.585938c0-4.269531-3.460937-7.726562-7.726562-7.726562s-7.726562 3.457031-7.726562 7.726562v30.585938zm0 0"/><path d="m272.992188 512v-30.585938c0-4.269531-3.457032-7.726562-7.726563-7.726562-4.265625 0-7.722656 3.457031-7.722656 7.726562v30.585938zm0 0"/></g><path d="m283.449219 291.222656h-34.890625v-60.707031h34.890625c10.039062 0 18.179687 8.140625 18.179687 18.179687v24.347657c0 10.039062-8.140625 18.179687-18.179687 18.179687zm0 0" fill="#e59f6a"/><path d="m50.191406 291.222656h34.890625v-60.707031h-34.890625c-10.039062 0-18.179687 8.140625-18.179687 18.179687v24.347657c0 10.039062 8.140625 18.179687 18.179687 18.179687zm0 0" fill="#e59f6a"/><path d="m126.597656 326.589844v52.109375c0 22.210937 18.007813 40.21875 40.222656 40.21875 22.214844 0 40.222657-18.007813 40.222657-40.21875v-52.109375zm0 0" fill="#f9c295"/><path d="m269.703125 238.699219c0-64.015625-46.0625-115.90625-102.882813-115.90625-56.820312 0-102.882812 51.890625-102.882812 115.90625 0 64.011719 46.0625 115.90625 102.882812 115.90625 56.820313 0 102.882813-51.894531 102.882813-115.90625zm0 0" fill="#f9c295"/><path d="m214.546875 136c22.445313 21.261719 36.710937 53.125 36.710937 88.746094 0 64.011718-46.0625 115.90625-102.882812 115.90625-17.226562 0-33.460938-4.777344-47.726562-13.210938 17.890624 16.949219 40.96875 27.164063 66.171874 27.164063 56.820313 0 102.882813-51.894531 102.882813-115.90625 0-44.605469-22.371094-83.320313-55.15625-102.699219zm0 0" fill="#e59f6a"/><path d="m0 175.148438v15.96875c0 6.769531 5.488281 12.257812 12.261719 12.257812h309.117187c6.773438 0 12.261719-5.488281 12.261719-12.257812v-15.96875c0-6.773438-5.488281-12.261719-12.261719-12.261719h-309.117187c-6.773438 0-12.261719 5.488281-12.261719 12.261719zm0 0" fill="#6e7093"/><path d="m321.378906 162.886719h-22.679687c6.773437 0 12.261719 5.488281 12.261719 12.261719v15.96875c0 6.769531-5.488282 12.257812-12.261719 12.257812h22.679687c6.773438 0 12.261719-5.488281 12.261719-12.257812v-15.96875c0-6.773438-5.488281-12.261719-12.261719-12.261719zm0 0" fill="#4e5173"/><path d="m281.96875 162.886719c-7.40625-48.054688-8.316406-96.109375-2.722656-144.164063 1.207031-10.375-7.1875-19.359375-17.609375-18.6874998-63.210938 4.0859378-126.421875 4.0859378-189.632813 0-10.421875-.6718752-18.816406 8.3124998-17.609375 18.6874998 5.59375 48.054688 4.683594 96.109375-2.726562 144.164063zm0 0" fill="#6e7093"/><path d="m279.246094 18.722656c1.207031-10.375-7.1875-19.359375-17.609375-18.6874998-5.679688.3671878-11.359375.6874998-17.035157.9921878 6.992188 2.566406 11.761719 9.710937 10.832032 17.691406-5.59375 48.058594-4.683594 96.113281 2.726562 144.167969h23.808594c-7.40625-48.054688-8.316406-96.109375-2.722656-144.164063zm0 0" fill="#4e5173"/><path d="m55.921875 127.777344c-1.035156 11.703125-2.445313 23.40625-4.25 35.109375h230.296875c-1.804688-11.703125-3.214844-23.40625-4.25-35.109375zm0 0" fill="#ed6161"/><path d="m280.683594 154.0625c-.375-2.742188-.726563-5.484375-1.0625-8.226562-.019532-.171876-.046875-.34375-.066406-.515626-.707032-5.84375-1.316407-11.6875-1.832032-17.53125 0-.003906-.003906-.007812-.003906-.011718h-23.808594c1.03125 11.703125 2.441406 23.40625 4.25 35.109375h23.808594c-.453125-2.941407-.878906-5.882813-1.285156-8.824219zm0 0" fill="#ce4545"/><path d="m172.605469 429.332031 41.742187 24.855469c6.53125 3.886719 14.976563 1.746094 18.863282-4.785156l3.496093-5.871094c3.207031-5.394531 2.363281-12.273438-2.050781-16.726562l-4.210938-4.25c-5.316406-5.363282-5.316406-14.011719 0-19.375l4.210938-4.246094c4.414062-4.457032 5.257812-11.335938 2.050781-16.726563l-3.496093-5.871093c-3.886719-6.53125-12.332032-8.675782-18.863282-4.785157l-41.742187 24.851563zm0 0" fill="#ce4545"/><path d="m161.035156 429.332031-41.742187 24.855469c-6.53125 3.886719-14.976563 1.746094-18.863281-4.785156l-3.496094-5.871094c-3.207032-5.394531-2.363282-12.273438 2.050781-16.726562l4.210937-4.25c5.316407-5.363282 5.316407-14.011719 0-19.375l-4.210937-4.246094c-4.417969-4.457032-5.257813-11.335938-2.050781-16.726563l3.496094-5.871093c3.886718-6.53125 12.332031-8.675782 18.863281-4.785157l41.742187 24.851563zm0 0" fill="#ce4545"/><path d="m166.820312 380.613281c-9.84375 0-17.824218 7.980469-17.824218 17.824219v28.859375c0 9.847656 7.980468 17.828125 17.824218 17.828125s17.824219-7.984375 17.824219-17.828125v-28.859375c0-9.84375-7.980469-17.824219-17.824219-17.824219zm0 0" fill="#ed6161"/><path d="m166.820312 479.574219c-4.265624 0-7.726562-3.457031-7.726562-7.726563v-2.015625c0-4.265625 3.460938-7.722656 7.726562-7.722656 4.265626 0 7.726563 3.457031 7.726563 7.722656v2.015625c0 4.269532-3.460937 7.726563-7.726563 7.726563zm0 0" fill="#4e5173"/><path d="m166.820312 502.421875c-4.265624 0-7.726562-3.457031-7.726562-7.722656v-2.019531c0-4.265626 3.460938-7.722657 7.726562-7.722657 4.265626 0 7.726563 3.457031 7.726563 7.722657v2.019531c0 4.265625-3.460937 7.722656-7.726563 7.722656zm0 0" fill="#4e5173"/><path d="m166.820312 303.300781c-10.859374 13.902344-26.667968 24.894531-43.75 29.289063-17.082031 4.398437-36.226562 1.726562-50.476562-8.671875-12.316406-8.988281-20.765625-24.164063-20.921875-39.34375-.019531-1.957031 2.414063-2.796875 3.652344-1.277344 4.183593 5.132813 11.277343 8.0625 18.070312 8.0625 9.058594-.003906 17.597657-4.140625 25.304688-8.898437 7.710937-4.753907 15.066406-10.261719 23.515625-13.53125 14.21875-5.503907 31.679687-3.902344 44.605468 4.1875 12.921876-8.089844 30.382813-9.691407 44.605469-4.1875 8.449219 3.265624 15.800781 8.777343 23.511719 13.53125 7.710938 4.757812 16.246094 8.898437 25.304688 8.898437 6.796874 0 13.886718-2.929687 18.070312-8.0625 1.238281-1.519531 3.671875-.679687 3.652344 1.277344-.15625 15.179687-8.605469 30.355469-20.921875 39.34375-14.25 10.398437-33.394531 13.070312-50.476563 8.671875-17.078125-4.394532-32.886718-15.386719-43.746094-29.289063zm0 0" fill="#6e7093"/><path d="m220.488281 241.167969c-4.144531 0-7.5-3.359375-7.5-7.5v-1c0-4.140625 3.355469-7.5 7.5-7.5 4.140625 0 7.5 3.359375 7.5 7.5v1c0 4.140625-3.359375 7.5-7.5 7.5zm0 0" fill="#363b51"/><path d="m113.152344 241.167969c-4.140625 0-7.5-3.359375-7.5-7.5v-1c0-4.140625 3.359375-7.5 7.5-7.5 4.144531 0 7.5 3.359375 7.5 7.5v1c0 4.140625-3.355469 7.5-7.5 7.5zm0 0" fill="#363b51"/></svg>