<svg height="512pt" viewBox="-67 0 512 512.001" width="512pt" xmlns="http://www.w3.org/2000/svg"><path d="m255.117188 159.109375c-15.890626 43.972656 17.953124 91.230469 87.296874 99.222656 8.148438.9375 10.84375-109.03125-87.296874-99.222656zm0 0" fill="#ce4545"/><path d="m247.183594 141.832031c25.703125-39.054687 83.816406-40.246093 131.738281 10.507813 5.632813 5.964844-80.828125 73.972656-131.738281-10.507813zm0 0" fill="#ed6161"/><path d="m20.695312 154.820312v78h257.242188v-78c0-19.179687-15.546875-34.726562-34.726562-34.726562h-187.789063c-19.179687 0-34.726563 15.546875-34.726563 34.726562zm0 0" fill="#6e7093"/><path d="m280.960938 512h-263.289063c-2.253906 0-4.082031-1.828125-4.082031-4.085938v-80.425781c0-21.558593 13.382812-40.855469 33.574218-48.414062l102.152344-38.226563 102.152344 38.226563c20.191406 7.558593 33.574219 26.855469 33.574219 48.414062v80.425781c.003906 2.257813-1.824219 4.085938-4.082031 4.085938zm0 0" fill="#e6eff5"/><path d="m251.46875 379.074219-102.152344-38.222657v8.585938l79.207032 29.636719c20.191406 7.558593 33.574218 26.855469 33.574218 48.417969v80.425781c0 2.253906-1.828125 4.082031-4.082031 4.082031h22.945313c2.253906 0 4.085937-1.828125 4.085937-4.082031v-80.429688c0-21.558593-13.382813-40.855469-33.578125-48.414062zm0 0" fill="#c5d3d6"/><path d="m13.589844 427.488281v46.257813h271.457031v-46.257813c0-4.007812-.464844-7.9375-1.347656-11.730469h-268.761719c-.882812 3.792969-1.347656 7.722657-1.347656 11.730469zm0 0" fill="#ed6161"/><path d="m284.320312 418.886719c-.03125-.179688-.066406-.363281-.097656-.542969-.15625-.867188-.328125-1.734375-.527344-2.585938h-22.945312c.882812 3.792969 1.347656 7.722657 1.347656 11.730469v46.257813h22.945313v-46.257813c0-.894531-.027344-1.785156-.074219-2.671875-.011719-.214844-.023438-.429687-.039062-.644531-.113282-1.78125-.316407-3.546875-.609376-5.285156zm0 0" fill="#ce4545"/><path d="m227.347656 512v-49.0625c0-4.269531 3.460938-7.726562 7.726563-7.726562s7.726562 3.457031 7.726562 7.726562v49.0625zm-156.0625 0v-49.0625c0-4.269531-3.457031-7.726562-7.722656-7.726562-4.269531 0-7.726562 3.457031-7.726562 7.726562v49.0625zm0 0" fill="#c5d3d6"/><path d="m71.285156 473.746094v-10.808594c0-4.269531-3.457031-7.726562-7.722656-7.726562-4.269531 0-7.726562 3.457031-7.726562 7.726562v10.808594zm0 0" fill="#ce4545"/><path d="m242.800781 462.9375c0-4.269531-3.460937-7.726562-7.726562-7.726562s-7.726563 3.457031-7.726563 7.726562v10.808594h15.453125zm0 0" fill="#ce4545"/><path d="m269.324219 264.84375h-36.8125v-64.046875h36.8125c10.589843 0 19.179687 8.585937 19.179687 19.179687v25.6875c0 10.59375-8.589844 19.179688-19.179687 19.179688zm0 0" fill="#e59f6a"/><path d="m29.3125 264.84375h36.808594v-64.046875h-36.808594c-10.59375 0-19.179688 8.585937-19.179688 19.179687v25.6875c0 10.59375 8.585938 19.179688 19.179688 19.179688zm0 0" fill="#e59f6a"/><path d="m108.820312 296.90625v59.566406c0 22.367188 18.132813 40.496094 40.496094 40.496094 22.367188 0 40.496094-18.128906 40.496094-40.496094v-59.566406zm0 0" fill="#f9c295"/><path d="m257.863281 208.414062c0-67.539062-48.597656-122.285156-108.546875-122.285156-59.945312 0-108.542968 54.746094-108.542968 122.285156 0 67.539063 48.597656 122.285157 108.542968 122.285157 59.949219 0 108.546875-54.746094 108.546875-122.285157zm0 0" fill="#f9c295"/><path d="m199.671875 100.0625c23.679687 22.433594 38.730469 56.046875 38.730469 93.628906 0 67.539063-48.59375 122.289063-108.542969 122.289063-18.175781 0-35.304687-5.039063-50.355469-13.9375 18.871094 17.878906 43.226563 28.65625 69.816406 28.65625 59.945313 0 108.542969-54.75 108.542969-122.285157 0-47.0625-23.601562-87.90625-58.191406-108.351562zm0 0" fill="#e59f6a"/><path d="m206.65625 296.699219c-14.714844 10.296875-30.445312.207031-57.339844.207031-26.894531 0-42.621094 10.089844-57.339844-.207031-14.714843-10.296875-36.027343-42.980469-50.535156-74.664063 0 0 6.585938 99.058594 25.96875 112.074219 19.378906 13.011719 27.777344-13.410156 37.84375 10.945313 10.066406 24.355468 35.121094 26.386718 44.066406 26.386718 8.9375 0 33.996094-2.03125 44.0625-26.386718 10.070313-24.359376 18.464844 2.066406 37.84375-10.945313 19.382813-13.015625 25.96875-112.074219 25.96875-112.074219-14.511718 31.683594-35.824218 64.367188-50.539062 74.664063zm0 0" fill="#6e7093"/><path d="m227.320312 274.132812c-3.613281 26.113282-9.328124 53.546876-17.804687 59.976563-.480469.359375-.945313.6875-1.40625.988281 5.917969 1.875 13.03125 5.785156 23.117187-.988281 19.382813-13.015625 25.96875-112.074219 25.96875-112.074219-8.519531 18.601563-19.378906 37.539063-29.875 52.097656zm0 0" fill="#4e5173"/><path d="m176 345.054688c-7.242188 19.777343-23.230469 24.835937-33.226562 26.035156 2.609374.277344 4.863281.351562 6.542968.351562 8.941406 0 34-2.03125 44.066406-26.386718 1.351563-3.269532 2.671876-5.617188 3.996094-7.277344-9.207031-1.316406-14.902344-10.414063-21.378906 7.277344zm0 0" fill="#4e5173"/><path d="m70.257812 207.488281c-17.929687 0-31.78125-2.535156-38.523437-7.453125-3.445313-2.515625-4.203125-7.347656-1.6875-10.792968 2.511719-3.449219 7.34375-4.207032 10.792969-1.691407 4.320312 3.148438 26.359375 7.617188 66.910156 1.316407 31.167969-4.84375 80.792969-17.253907 140.1875-48.871094 3.761719-2.003906 8.445312-.574219 10.449219 3.191406 2.007812 3.765625.578125 8.445312-3.1875 10.449219-61.300781 32.632812-112.730469 45.472656-145.074219 50.5-14.472656 2.25-28.054688 3.351562-39.867188 3.351562zm0 0" fill="#363b51"/><path d="m142.621094 197.097656-2.367188-13.410156c-1.554687-8.808594-9.984375-14.714844-18.796875-13.160156l-43.980469 7.753906c-4.265624.753906-7.988281 3.121094-10.472656 6.671875s-3.441406 7.855469-2.6875 12.125l2.367188 13.410156c1.703125 9.675781 7.074218 18.105469 15.121094 23.738281 6.253906 4.378907 13.539062 6.660157 21.015624 6.660157 2.144532 0 4.304688-.1875 6.464844-.566407l3.507813-.621093c9.671875-1.703125 18.101562-7.074219 23.738281-15.121094 5.628906-8.046875 7.792969-17.804687 6.089844-27.480469zm0 0" fill="#6e7093"/><path d="m294.585938 138.023438c-12.496094-20.96875-6.230469-138.023438-145.269532-138.023438-139.035156 0-132.773437 117.054688-145.265625 138.023438-12.496093 20.964843 6.96875 38.636718 17.292969 28.078124 22.285156-22.792968 63.140625-41.433593 127.972656-41.433593 64.832032 0 105.6875 18.640625 127.972656 41.433593 10.324219 10.558594 29.789063-7.113281 17.296876-28.078124zm0 0" fill="#ed6161"/><path d="m294.585938 138.023438c-12.496094-20.96875-6.230469-138.023438-145.269532-138.023438-2.355468 0-4.660156.0390625-6.9375.105469 120.175782 3.839843 114.855469 117.304687 126.046875 137.917969 4.515625 8.308593 4.441407 16.09375 2.136719 21.816406 2.40625 2.042968 4.648438 4.132812 6.726562 6.261718 10.324219 10.558594 29.789063-7.113281 17.296876-28.078124zm0 0" fill="#ce4545"/><g fill="#363b51"><path d="m199.925781 216.070312c-4.140625 0-7.5-3.355468-7.5-7.5v-2c0-4.140624 3.359375-7.5 7.5-7.5s7.5 3.359376 7.5 7.5v2c0 4.144532-3.355469 7.5-7.5 7.5zm0 0"/><path d="m150.496094 282.25c-14.203125 0-27.101563-7.246094-34.503906-19.386719-2.15625-3.539062-1.035157-8.152343 2.5-10.308593 3.539062-2.15625 8.152343-1.039063 10.308593 2.5 4.65625 7.636718 12.769531 12.195312 21.695313 12.195312 8.9375 0 17.046875-4.558594 21.695312-12.191406 2.152344-3.539063 6.765625-4.660156 10.304688-2.507813 3.539062 2.15625 4.660156 6.769531 2.507812 10.308594-7.390625 12.140625-20.292968 19.390625-34.507812 19.390625zm0 0"/></g></svg>