<svg height="512pt" viewBox="-88 0 512 512" width="512pt" xmlns="http://www.w3.org/2000/svg"><path d="m318.757812 175.375c-18.910156-17.355469-30.246093-41.710938-30.246093-67.695312v-2.476563c0-67.8125-53.757813-105.203125-120.078125-105.203125-66.320313 0-120.082032 37.390625-120.082032 105.203125v2.476563c0 25.984374-11.332031 50.339843-30.246093 67.695312-11.113281 10.199219-18.105469 25.003906-18.105469 41.480469 0 24.691406 21.0625 36.597656 37.460938 52.941406 20.65625 20.589844 36.285156 61.570313 54.292968 83.796875l-34.992187 13.09375c-22.074219 8.261719-36.703125 29.355469-36.703125 52.925781v87.921875c0 2.464844 1.996094 4.464844 4.460937 4.464844h287.824219c2.464844 0 4.464844-2 4.464844-4.464844v-87.921875c0-23.570312-14.632813-44.664062-36.707032-52.925781l-34.992187-13.09375c18.007813-22.226562 33.636719-63.203125 54.296875-83.796875 16.398438-16.34375 37.457031-28.25 37.457031-52.941406.003907-16.476563-6.988281-31.28125-18.105469-41.480469zm0 0" fill="#6e7093"/><path d="m318.757812 175.375c-18.910156-17.355469-30.246093-41.710938-30.246093-67.695312v-2.476563c0-67.8125-53.757813-105.203125-120.078125-105.203125-13.65625 0-26.777344 1.589844-39.007813 4.699219 4.601563-.378907 9.277344-.578125 14.023438-.578125 66.320312 0 120.082031 37.390625 120.082031 105.203125v2.476562c0 25.984375 11.335938 50.339844 30.246094 67.695313 11.113281 10.199218 18.105468 25.003906 18.105468 41.480468 0 24.691407-21.058593 36.597657-37.457031 52.941407-19.679687 19.613281-34.792969 57.726562-51.746093 80.511719-1.238282 1.660156-.558594 4.03125 1.378906 4.757812l31.0625 11.621094c22.074218 8.261718 36.707031 29.355468 36.707031 52.925781v87.921875c0 .117188-.027344.226562-.035156.34375h20.550781c2.464844 0 4.464844-2 4.464844-4.464844v-87.921875c0-23.570312-14.628906-44.664062-36.707032-52.925781l-34.992187-13.09375c18.011719-22.226562 33.636719-63.203125 54.296875-83.796875 16.398438-16.34375 37.457031-28.25 37.457031-52.941406.003907-16.476563-6.988281-31.28125-18.105469-41.480469zm0 0" fill="#4e5173"/><path d="m74.6875 450.863281c-4.144531 0-7.5 3.359375-7.5 7.5v53.636719h15v-53.636719c0-4.140625-3.359375-7.5-7.5-7.5zm0 0" fill="#363b51"/><path d="m262.179688 450.863281c-4.144532 0-7.5 3.359375-7.5 7.5v53.636719h15v-53.636719c0-4.140625-3.355469-7.5-7.5-7.5zm0 0" fill="#363b51"/><path d="m264.5625 204.851562h-1.722656c-1.894532 0-3.433594-1.535156-3.433594-3.429687v-59.457031c0-50.242188-40.730469-90.972656-90.972656-90.972656-50.246094 0-90.976563 40.730468-90.976563 90.972656v59.457031c0 1.894531-1.535156 3.429687-3.429687 3.429687h-1.726563c-10.082031 0-18.253906 8.175782-18.253906 18.257813s8.171875 18.253906 18.253906 18.253906h15.007813c18.828125 0 34.085937 15.261719 34.085937 34.085938v25.566406c0 25.976563 21.058594 47.035156 47.039063 47.035156 25.976562 0 47.035156-21.058593 47.035156-47.035156v-25.566406c0-18.824219 15.261719-34.085938 34.085938-34.085938h15.007812c10.082031 0 18.253906-8.171875 18.253906-18.253906.003906-10.082031-8.171875-18.257813-18.253906-18.257813zm0 0" fill="#e6eff5"/><g fill="#363b51"><path d="m167.855469 316.226562c-9.621094 0-17.425781-7.804687-17.425781-17.425781v-44.816406c0-9.621094 7.804687-17.425781 17.425781-17.425781 9.625 0 17.425781 7.804687 17.425781 17.425781v44.816406c0 9.621094-7.800781 17.425781-17.425781 17.425781zm0 0"/><path d="m230.796875 166.945312c-8.351563-8.042968-9.734375-15.839843-9.941406-18.816406-.695313-10.070312-9.441407-17.695312-19.519531-17-10.070313.695313-17.695313 9.453125-17.003907 19.519532 1.054688 15.238281 8.734375 30.789062 21.074219 42.667968 2.480469 2.390625 5.5625 4.023438 8.921875 4.730469 1.273437.265625 2.546875.394531 3.8125.394531 4.917969 0 9.648437-1.976562 13.148437-5.613281 7-7.273437 6.78125-18.882813-.492187-25.882813zm0 0"/><path d="m135.53125 131.125c-10.0625-.683594-18.824219 6.933594-19.523438 17-.203124 2.980469-1.585937 10.773438-9.941406 18.816406-3.519531 3.394532-5.511718 7.953125-5.605468 12.839844-.09375 4.890625 1.726562 9.523438 5.117187 13.042969 3.5 3.640625 8.230469 5.617187 13.148437 5.617187 1.261719 0 2.539063-.128906 3.8125-.394531 3.359376-.707031 6.441407-2.34375 8.921876-4.730469 12.339843-11.878906 20.019531-27.429687 21.070312-42.667968.339844-4.875-1.246094-9.59375-4.457031-13.28125-3.210938-3.6875-7.664063-5.902344-12.542969-6.242188zm0 0"/><path d="m183.140625 217.378906c-2.3125 0-4.589844-1.0625-6.0625-3.070312-3.125-4.269532-6.203125-6.734375-8.445313-6.753906-.011718 0-.023437 0-.035156 0-2.316406 0-5.558594 2.503906-8.90625 6.882812-2.519531 3.289062-7.226562 3.917969-10.515625 1.402344-3.289062-2.519532-3.917969-7.226563-1.402343-10.515625 6.542968-8.550781 13.585937-12.867188 21.015624-12.769531 7.328126.078124 14.1875 4.414062 20.398438 12.894531 2.445312 3.34375 1.71875 8.035156-1.625 10.480469-1.335938.980468-2.886719 1.449218-4.421875 1.449218zm0 0"/></g></svg>