<svg height="512pt" viewBox="-84 0 512 512" width="512pt" xmlns="http://www.w3.org/2000/svg"><path d="m299.832031 512h-260.367187c-2.230469 0-4.039063-1.808594-4.039063-4.039062v-65.480469c0-21.324219 13.234375-40.40625 33.203125-47.878907l101.019532-37.800781 101.015624 37.800781c19.96875 7.472657 33.203126 26.554688 33.203126 47.878907v65.480469c0 2.230468-1.808594 4.039062-4.035157 4.039062zm0 0" fill="#ed6161"/><path d="m270.664062 394.601562-101.015624-37.800781-11.589844 4.335938 89.425781 33.464843c19.96875 7.472657 33.203125 26.554688 33.203125 47.878907v65.480469c0 2.230468-1.808594 4.039062-4.039062 4.039062h23.179687c2.230469 0 4.039063-1.808594 4.039063-4.039062v-65.480469c0-21.324219-13.234376-40.40625-33.203126-47.878907zm0 0" fill="#ce4545"/><path d="m84.84375 469.910156c-4.207031 0-7.621094 3.414063-7.621094 7.621094v34.46875h15.238282v-34.46875c0-4.207031-3.410157-7.621094-7.617188-7.621094zm0 0" fill="#aa3535"/><path d="m254.453125 469.910156c-4.210937 0-7.621094 3.414063-7.621094 7.621094v34.46875h15.238281v-34.46875c0-4.207031-3.410156-7.621094-7.617187-7.621094zm0 0" fill="#aa3535"/><path d="m274.179688 385.207031-64.488282-24.132812v-47.726563h-80.089844v47.726563l-64.488281 24.132812c-23.757812 8.890625-39.722656 31.902344-39.722656 57.273438v13.703125c0 2.785156 3.15625 4.398437 5.414063 2.765625l37.847656-27.378907c1.816406-1.3125 4.355468-.929687 5.703125.863282l15.816406 21.027344c1.058594 1.40625 2.972656 1.859374 4.550781 1.074218l22.070313-10.96875c2.265625-1.125 5 .039063 5.761719 2.449219l6.566406 20.800781c.613281 1.941406 2.699218 3.007813 4.632812 2.367188l34.597656-11.453125c.839844-.277344 1.75-.277344 2.589844 0l34.597656 11.453125c1.9375.640625 4.019532-.425782 4.636719-2.367188l6.566407-20.800781c.761718-2.410156 3.492187-3.574219 5.757812-2.449219l22.074219 10.96875c1.578125.785156 3.488281.332032 4.546875-1.074218l15.816406-21.027344c1.351562-1.792969 3.886719-2.175782 5.703125-.863282l37.851563 27.378907c2.253906 1.632812 5.410156.019531 5.410156-2.765625v-13.703125c0-25.371094-15.964844-48.382813-39.722656-57.273438zm0 0" fill="#fdeaaf"/><path d="m274.179688 385.207031-64.488282-24.132812v-47.726563h-25.484375v47.726563l64.484375 24.132812c23.757813 8.890625 39.722656 31.902344 39.722656 57.273438v1.949219l20.074219 14.519531c2.257813 1.632812 5.414063.019531 5.414063-2.765625v-13.703125c0-25.371094-15.964844-48.382813-39.722656-57.273438zm0 0" fill="#f8cc7c"/><path d="m281.78125 233.429688c0-64.808594-50.203125-117.347657-112.132812-117.347657-61.933594 0-112.136719 52.539063-112.136719 117.347657 0 64.8125 50.203125 117.351562 112.136719 117.351562 61.929687 0 112.132812-52.539062 112.132812-117.351562zm0 0" fill="#fdeaaf"/><path d="m179.632812 116.550781c45.976563 14.644531 79.4375 59.371094 79.4375 112.273438 0 64.8125-50.203124 117.351562-112.136718 117.351562-3.363282 0-6.691406-.164062-9.980469-.46875 10.34375 3.296875 21.320313 5.074219 32.695313 5.074219 61.929687 0 112.132812-52.539062 112.132812-117.347656 0-61.289063-44.898438-111.59375-102.148438-116.882813zm0 0" fill="#f8cc7c"/><g fill="#4e5173"><path d="m183.597656 250.679688c8.667969-8.089844 46.824219-24.855469 57.230469-21.390626 1.15625 11.5625-.578125 26.015626-11.5625 30.640626s-28.855469 6.609374-32.859375 6.023437c-11.375-1.671875-12.808594-15.273437-12.808594-15.273437zm0 0"/><path d="m155.699219 250.679688c-8.671875-8.089844-46.828125-24.855469-57.234375-21.390626-1.15625 11.5625.578125 26.015626 11.5625 30.640626s28.859375 6.609374 32.859375 6.023437c11.375-1.671875 12.8125-15.273437 12.8125-15.273437zm0 0"/><path d="m186.070312 327.992188c-1.042968 0-2.09375-.214844-3.089843-.65625l-13.332031-5.925782-13.335938 5.925782c-3.074219 1.367187-6.683594.550781-8.875-2.003907l-9.511719-11.09375-24.761719-7.5625c-2.054687-.625-3.75-2.09375-4.664062-4.035156l-7.964844-16.875c-1.796875-3.808594-.167968-8.347656 3.636719-10.144531 3.808594-1.796875 8.347656-.167969 10.144531 3.640625l6.523438 13.828125 23.65625 7.222656c1.382812.425781 2.617187 1.230469 3.558594 2.328125l7.257812 8.464844 11.242188-4.996094c1.96875-.875 4.21875-.875 6.1875 0l11.242187 4.996094 7.261719-8.464844c.9375-1.097656 2.171875-1.90625 3.554687-2.328125l23.65625-7.222656 6.527344-13.828125c1.792969-3.808594 6.335937-5.4375 10.140625-3.640625s5.433594 6.335937 3.636719 10.144531l-7.960938 16.875c-.917969 1.941406-2.613281 3.410156-4.664062 4.035156l-24.765625 7.5625-9.511719 11.09375c-1.480469 1.726563-3.613281 2.660157-5.789063 2.660157zm0 0"/></g><path d="m169.652344 390.660156c-18.300782 0-36.664063-7.257812-54.574219-21.566406-3.289063-2.628906-3.824219-7.421875-1.199219-10.710938 2.628906-3.285156 7.421875-3.820312 10.710938-1.195312 30.320312 24.226562 59.800781 24.230469 90.125 0 3.289062-2.625 8.082031-2.089844 10.707031 1.195312 2.628906 3.289063 2.09375 8.082032-1.195313 10.710938-17.914062 14.308594-36.273437 21.566406-54.574218 21.566406zm0 0" fill="#935d38"/><path d="m342.144531 187.164062-43.84375 34.613282c-2.195312 1.730468-5.058593 2.378906-7.789062 1.773437l-13.988281-3.164062-151.179688-34.160157c-5.953125-1.339843-12.183594-.816406-17.832031 1.503907l-2.636719 1.089843h-.007812l-52.242188 21.53125c-2.71875 1.125-5.808594.886719-8.324219-.636718l-4.839843-2.925782h-.011719l-37.457031-22.65625c-3.070313-1.851562-2.472657-6.457031.960937-7.476562l66.457031-19.6875 69.347656-153.332031c1.007813-2.214844 3.203126-3.636719 5.636719-3.636719h53.15625c.648438 0 1.277344.101562 1.882813.300781.230468.070313.453125.152344.671875.257813l55.546875 25.308594c.722656.320312 1.535156.363281 2.285156.105468l1.578125-.546875 22.601563-7.796875c2.585937-.898437 4.976562 1.769532 3.800781 4.242188l-19.378907 40.796875c-.617187 1.296875-2.046874 1.996093-3.449218 1.6875l-19.976563-4.386719-18.6875-4.109375-.296875-.0625 47.789063 105.664063 68.746093 18.492187c3.265626.875 4.140626 5.109375 1.480469 7.210937zm0 0" fill="#935d38"/><path d="m200.199219.597656 23.929687 55.203125h.003906l-.003906-.003906.296875.058594 18.691407 4.113281 1.53125.335938-21.3125-49.164063zm0 0" fill="#704426"/><path d="m69.644531 156.441406h200.003907l-16.675782-36.871094h-166.652344zm0 0" fill="#ffa436"/><path d="m226.855469 414.242188c-2.070313 0-4.132813-.839844-5.636719-2.488282l-27.796875-30.527344c-2.832031-3.109374-2.605469-7.929687.503906-10.761718 3.109375-2.832032 7.929688-2.609375 10.761719.503906l27.796875 30.523438c2.832031 3.113281 2.609375 7.933593-.503906 10.765624-1.457031 1.328126-3.296875 1.984376-5.125 1.984376zm0 0" fill="#935d38"/><path d="m183.605469 435.820312c-.316407 0-.632813-.019531-.957031-.058593-4.175782-.523438-7.132813-4.332031-6.613282-8.507813l6.058594-48.375c.523438-4.175781 4.34375-7.132812 8.507812-6.613281 4.175782.523437 7.132813 4.332031 6.613282 8.503906l-6.058594 48.375c-.484375 3.855469-3.765625 6.675781-7.550781 6.675781zm0 0" fill="#935d38"/></svg>