<svg height="479pt" viewBox="0 -39 479.98938 479" width="479pt" xmlns="http://www.w3.org/2000/svg"><g fill="#333"><path d="m199.976562 47.957031c-14.949218 8.546875-28.285156 19.648438-39.394531 32.800781-7.21875-4.414062-13.296875-10.460937-17.75-17.65625-9.105469-15.144531-9.105469-34.152343-.226562-54.34375 24.410156 2.753907 43.058593 13.007813 52.800781 29.183594 1.9375 3.136719 3.472656 6.5 4.570312 10.015625zm0 0"/><path d="m343.976562 37.984375c.082032 9.003906-2.308593 17.859375-6.914062 25.597656-4.207031 6.953125-9.972656 12.832031-16.839844 17.175781-11.28125-13.449218-24.917968-24.726562-40.246094-33.277343 1.085938-3.253907 2.546876-6.367188 4.351563-9.28125 9.804687-16.425781 28.445313-26.664063 52.957031-29.441407 4.234375 9.171876 6.511719 19.125 6.691406 29.226563zm0 0"/><path d="m214.214844 243.230469c.125 2.597656-1.382813 5-3.777344 6.015625-11.863281 5.804687-21.476562 15.367187-27.34375 27.199218-2.023438 3.375-6.121094 4.890626-9.855469 3.648438-15.355469-4.175781-31.699219-2.699219-46.054687 4.160156-7.582032 3.402344-14.617188 7.910156-20.871094 13.375-2.171875 2.015625-5.222656 2.789063-8.089844 2.050782-19.980468-4.835938-41.066406.339843-56.535156 13.878906-8.582031 6.847656-15.027344 16.007812-18.570312 26.398437-1.199219 3.039063-4.203126 4.96875-7.460938 4.800781-.46875-.011718-.933594-.054687-1.394531-.128906-1.753907-.09375-3.394531-.882812-4.566407-2.191406-1.171874-1.308594-1.773437-3.03125-1.671874-4.78125 1.925781-14.539062 14.710937-88 71.398437-112.480469 34.746094-14.855469 77.488281-7.296875 107.296875 1.664063.882812.265625 1.714844.675781 2.464844 1.214844 6.273437 4.109374 13.058594 7.378906 20.183594 9.726562 2.546874.707031 4.441406 2.839844 4.847656 5.449219zm0 0"/><path d="m471.925781 337.65625c.097657 1.761719-.515625 3.488281-1.695312 4.796875-1.183594 1.308594-2.835938 2.09375-4.601563 2.175781-.460937.078125-.929687.121094-1.398437.128906-3.277344.175782-6.304688-1.753906-7.527344-4.800781-3.585937-10.410156-10.082031-19.570312-18.71875-26.398437-15.667969-13.527344-36.894531-18.671875-57.019531-13.824219-2.890625.734375-5.957032-.035156-8.15625-2.046875-6.320313-5.46875-13.414063-9.972656-21.050782-13.367188-14.378906-6.773437-30.671874-8.3125-46.0625-4.355468-3.730468 1.257812-7.824218-.296875-9.785156-3.710938-5.945312-12.09375-15.816406-21.816406-28-27.574218-2.433594-.972657-4.003906-3.359376-3.933594-5.976563.398438-2.609375 2.265626-4.753906 4.796876-5.503906 6.417968-2.097657 12.546874-4.976563 18.257812-8.578125.621094-.351563 1.269531-.652344 1.945312-.894532 30.832032-9.535156 75.109376-17.785156 110.917969-2.496093 57.191407 24.449219 70.089844 97.929687 72.03125 112.425781zm0 0"/><path d="m311.976562 312.757812c0-44.183593-32.238281-80-72-80-39.765624 0-72 35.816407-72 80 0 44.183594 32.234376 80 72 80 39.761719 0 72-35.816406 72-80zm0 0"/><path d="m335.976562 144.757812c0-57.4375-42.984374-104-96-104-53.019531 0-96 46.5625-96 104s42.980469 104 96 104c53.015626 0 96-46.5625 96-104zm0 0"/></g><path d="m405.734375 219.335938c-26.191406-13.601563-56.71875-12.304688-83.601563-6.160157 27.011719-38.027343 29.140626-88.378906 5.433594-128.546875 7.132813-4.703125 13.074219-11.003906 17.351563-18.398437 10.03125-17.390625 9.457031-39.070313-1.742188-61.085938l-2.351562-4.640625-5.175781.253906c-25.457032 1.296876-46 12.410157-56.363282 30.472657-1.53125 2.667969-2.824218 5.464843-3.863281 8.359375-22.726563-9.097656-48.082031-9.097656-70.808594 0-1.015625-2.882813-2.285156-5.671875-3.789062-8.335938-10.449219-18.085937-31.027344-29.191406-56.441407-30.496094l-5.199218-.261718-2.34375 4.636718c-11.105469 21.9375-11.722656 43.625-1.664063 61.179688 4.320313 7.296875 10.222657 13.53125 17.269531 18.246094-23.742187 40.191406-21.621093 90.589844 5.417969 128.640625-26.695312-6.046875-57.367187-7.402344-83.617187 6.136719-58.871094 30.535156-72.128906 122.398437-74.1914065 140.519531-.4921875 4.183593 2.3437505 8.03125 6.4882815 8.800781.472656.078125.953125.113281 1.433593.101562 3.636719 0 6.816407-2.460937 7.734376-5.984374 3.371093-12.542969 10.023437-23.957032 19.273437-33.078126 14.675781-16.492187 37.460937-23.1875 58.726563-17.265624 3.0625.902343 6.367187-.105469 8.40625-2.558594 6.328124-6.644532 13.640624-12.273438 21.679687-16.6875 12.15625-7.019532 26.375-9.585938 40.21875-7.257813-2.761719 9.128907-4.125 18.625-4.039063 28.160157-.082031 24.25 9.480469 47.535156 26.582032 64.730468 14.003906 13.957032 32.941406 21.84375 52.710937 21.941406h1.328125c44-.800781 79.640625-40.863281 79.378906-89.328124-.046874-8.65625-1.257812-17.265626-3.609374-25.597657 13.691406-2.160156 27.710937.417969 39.734374 7.3125 8.054688 4.421875 15.382813 10.058594 21.722657 16.710938 2.039062 2.453125 5.34375 3.460937 8.40625 2.558593 21.265625-5.917968 44.046875.777344 58.726562 17.265626 9.25 9.117187 15.902344 20.535156 19.273438 33.078124.910156 3.53125 4.097656 6 7.746093 6 .492188.003907.984376-.042968 1.46875-.136718 4.144532-.765625 6.980469-4.613282 6.488282-8.796875-2.070313-18.074219-15.328125-109.953125-74.199219-140.488281zm-112.574219-180.113282c8.367188-13.054687 22.527344-21.257812 38.015625-22.03125 6.515625 12.929688 6.480469 28.191406-.105469 41.085938-3.003906 5.167968-7.15625 9.574218-12.136718 12.882812-8.015625-10.03125-17.800782-18.503906-28.871094-25 .785156-2.417968 1.824219-4.742187 3.097656-6.9375zm-144.160156 19.089844c-6.558594-12.914062-6.605469-28.167969-.128906-41.121094 15.5.792969 29.671875 8.992188 38.085937 22.03125 1.308594 2.316406 2.359375 4.769532 3.128907 7.3125-10.914063 6.53125-20.570313 14.960938-28.511719 24.894532-5.140625-3.351563-9.441407-7.839844-12.574219-13.117188zm17.460938 33.8125.152343.074219 3.90625-5.601563c8.382813-12 19.523438-21.816406 32.488281-28.613281l5.136719-2.65625c10.054688-4.320313 20.882813-6.554687 31.832031-6.570313 48.519532 0 88 43.066407 88 96 0 52.9375-39.480468 96-88 96-48.523437 0-88-43.0625-88-96-.058593-18.535156 4.949219-36.734374 14.484376-52.632812zm-50.484376 187.121094c-8.175781 4.59375-15.761718 10.160156-22.59375 16.578125-24.804687-5.28125-50.574218 2.667969-68.097656 21.007812 8.945313-30.402343 25.738282-67.425781 56.304688-83.28125 12.367187-6.070312 26.011718-9.082031 39.785156-8.792969 19.6875.503907 39.15625 4.289063 57.601562 11.199219 3.734376 2.890625 7.664063 5.519531 11.757813 7.875-.292969.28125-.5625.585938-.800781.917969-7.78125 7.011719-14.21875 15.378906-19.007813 24.695312-.335937.394532-.632812.820313-.886719 1.273438-18.457031-3.945312-37.71875-.90625-54.0625 8.527344zm124.335938 105.511718c-15.957031.171876-31.304688-6.101562-42.578125-17.390624-14.046875-14.199219-21.875-33.402344-21.757813-53.375-.078124-10.484376 1.925782-20.878907 5.902344-30.578126 5.074219-12.949218 13.878906-24.097656 25.296875-32.039062 1.078125.375 2.183594.742188 3.292969 1.105469 9.335938 2.835937 19.042969 4.265625 28.800781 4.238281.242188 0 .480469.039062.722657.039062h.78125c2.554687-.046874 5.105468-.207031 7.632812-.457031 8.472656-.734375 16.808594-2.578125 24.800781-5.484375 11.550781 7.957032 20.40625 19.234375 25.398438 32.34375 3.511719 9.046875 5.332031 18.660156 5.371093 28.367188.214844 39.734375-28.347656 72.589844-63.664062 73.230468zm161.765625-90.671874c-5.210937.007812-10.402344.589843-15.488281 1.738281-6.839844-6.425781-14.433594-12-22.613282-16.601563-16.125-9.375-35.152343-12.453125-53.410156-8.640625 0-.054687-.085937-.113281-.113281-.167969-5-10.183593-11.976563-19.273437-20.527344-26.734374-.144531-.152344-.253906-.304688-.421875-.457032 3.375-1.996094 6.632813-4.1875 9.757813-6.558594 28.570312-10.496093 68.207031-19.128906 99.113281-3.121093 30.582031 15.855469 47.375 52.925781 56.320312 83.289062-13.875-14.191406-32.773437-22.363281-52.617187-22.746093zm0 0"/><path d="m199.664062 144.757812h.214844c13.253906.113282 24.089844-10.539062 24.203125-23.796874.113281-13.253907-10.539062-24.089844-23.796875-24.203126h-.214844c-13.253906-.113281-24.089843 10.542969-24.203124 23.796876-.113282 13.253906 10.539062 24.089843 23.796874 24.203124zm.40625-32h.074219c4.386719.09375 7.878907 3.703126 7.832031 8.089844-.082031 4.40625-3.6875 7.933594-8.097656 7.910156h-.070312c-4.390625-.089843-7.882813-3.699218-7.832032-8.085937.078126-4.410156 3.683594-7.9375 8.09375-7.914063zm0 0"/><path d="m279.664062 144.757812h.214844c13.253906.113282 24.089844-10.539062 24.203125-23.796874.113281-13.253907-10.539062-24.089844-23.796875-24.203126h-.214844c-13.253906-.113281-24.089843 10.542969-24.203124 23.796876-.113282 13.253906 10.539062 24.089843 23.796874 24.203124zm.40625-32h.074219c4.386719.09375 7.878907 3.703126 7.832031 8.089844-.082031 4.40625-3.6875 7.933594-8.097656 7.910156h-.070312c-4.390625-.089843-7.882813-3.699218-7.832032-8.085937.078126-4.410156 3.683594-7.9375 8.09375-7.914063zm0 0"/><path d="m227.863281 175.75-7.777343-13.984375c-13.34375 7.417969-20.109376 16.25-20.109376 26.25 0 16.09375 18.054688 26.589844 20.109376 27.734375l7.777343-13.984375c-3.730469-2.070313-11.886719-8.398437-11.886719-13.75 0-3.59375 4.335938-8.058594 11.886719-12.265625zm0 0"/><path d="m252.070312 201.773438 3.90625 6.984374 3.886719 6.992188c2.054688-1.144531 20.113281-11.640625 20.113281-27.734375 0-10-6.769531-18.832031-20.113281-26.25l-7.777343 13.984375c7.542968 4.207031 11.890624 8.65625 11.890624 12.25 0 5.328125-8 11.582031-11.90625 13.773438zm0 0"/></svg>