<svg height="479pt" viewBox="0 0 479.994 479" width="479pt" xmlns="http://www.w3.org/2000/svg"><path d="m186.015625 396.578125-61.207031 71.285156c-2.648438 2.953125-6.433594 4.632813-10.398438 4.625h-.65625c-17.746094 0-49.746094-23.6875-66.023437-39.945312-11.144531-11.199219-40.289063-48.75-39.714844-67.199219-.035156-3.710938 1.519531-7.261719 4.273437-9.75l71.671876-61.3125c41.738281-41.722656 91.382812-38.351562 116.046874-13.792969 24.664063 24.558594 28 74.054688-13.992187 116.089844zm0 0" fill="#a67c52"/><path d="m464.007812 40.488281-208 208-24-24 208-208c8.472657-9.070312 17.105469-10.273437 25.648438-1.191406 8.546875 9.078125 6.824219 16.121094-1.648438 25.191406zm0 0" fill="#603813"/><path d="m264.007812 256.601562c-.117187 1.894532-1.054687 3.644532-2.566406 4.796876l-22.871094 17.664062c-1.136718.90625-2.546874 1.398438-4 1.394531-1.730468-.007812-3.386718-.699219-4.609374-1.921875l-28-28.054687c-2.335938-2.40625-2.53125-6.167969-.457032-8.800781l17.707032-22.671876c1.1875-1.457031 2.921874-2.363281 4.796874-2.511718 1.882813-.074219 3.714844.613281 5.082032 1.914062l32.953125 33.09375c1.34375 1.34375 2.058593 3.195313 1.964843 5.097656zm0 0" fill="#a67c52"/><path d="m241.984375 306.503906c-3.875 3.832032-9.101563 5.980469-14.550781 5.984375-5.453125.023438-10.691406-2.132812-14.550782-5.984375l-38.847656-38.953125c-8.03125-8.070312-8.03125-21.113281 0-29.183593 8.113282-7.839844 20.984375-7.839844 29.101563 0l38.847656 38.921874c7.992187 8.097657 7.992187 21.117188 0 29.214844zm0 0" fill="#b3b3b3"/><path d="m224.011719 72.484375 24-24 24.003906 24-24.003906 24.003906zm0 0" fill="#ffcc5c"/><path d="m336.011719 344.488281 24-24.003906 24.003906 24.003906-24.003906 24zm0 0" fill="#ffcc5c"/><path d="m472.707031 7.769531c-9.730469-9.695312-25.472656-9.695312-35.203125 0l-205.421875 205.429688-2.402343-2.398438c-1.628907-1.613281-3.871094-2.457031-6.160157-2.320312-2.289062.136719-4.410156 1.242187-5.839843 3.039062l-16.070313 20.488281c-9.53125-8.5-24.003906-8.21875-33.199219.640626-4.6875 4.703124-7.234375 11.125-7.039062 17.761718-23.921875-2.160156-51.363282 6.636719-77.363282 32.71875l-79.277343 67.917969c-3.042969 2.761719-4.761719 6.691406-4.7226565 10.800781-.6367185 20.402344 31.6015625 62 43.9218755 74.402344 18 18 53.441406 44.238281 73.039062 44.238281h.71875c4.394531.011719 8.585938-1.851562 11.523438-5.121093l67.679687-78.957032c26.160156-26.242187 35.039063-53.761718 32.878906-77.601562h.878907c9.519531.03125 18.152343-5.578125 21.988281-14.292969 3.835937-8.710937 2.144531-18.867187-4.308594-25.867187l20.5625-15.839844c1.839844-1.398438 2.980469-3.53125 3.117187-5.839844.125-2.289062-.714843-4.523438-2.320312-6.160156l-2.398438-2.398438 205.441407-205.417968c9.695312-9.742188 9.683593-25.492188-.023438-35.222657zm-287.335937 377.597657c-.171875.089843-.3125.230468-.402344.402343l-67.4375 78.71875c-4.800781 1.039063-20.640625-6.558593-37.683594-18.800781h-.039062l65.96875-66-11.3125-11.3125-67.398438 67.402344c-4-3.441406-8-7.042969-11.761718-10.800782-3.75-3.828124-7.296876-7.851562-10.625-12.054687l44.539062-44.546875-11.3125-11.3125-42.863281 42.851562c-10.960938-15.675781-19.59375-31.824218-19.113281-37.425781l78.960937-67.679687c26.398437-26.320313 53.757813-32.160156 75.4375-26.320313l41.601563 41.601563c1.644531 6.066406 2.292968 12.363281 1.917968 18.636718-2.152344 21.757813-12.300781 41.9375-28.476562 56.640626zm50.878906-84.878907c-2.703125 2.769531-7.023438 3.144531-10.160156.878907-.402344-.238282-47.039063-46.878907-47.359375-47.277344-2.191407-3.171875-1.789063-7.457032.957031-10.160156 3.179688-3.039063 8.183594-3.039063 11.363281 0l45.199219 45.277343c3.101562 3.121094 3.101562 8.160157 0 11.28125zm.71875-33.28125-23.917969-23.917969 11.679688-14.800781 27.199219 27.199219zm224.441406-235.519531-205.402344 205.417969-12.613281-12.617188 205.414063-205.390625c3.476562-3.480468 9.117187-3.484375 12.597656-.003906 3.480469 3.476562 3.480469 9.113281.003906 12.59375zm0 0"/><path d="m400.007812 336.488281c-8.601562.398438-16.972656-2.84375-23.0625-8.933593-6.089843-6.089844-9.335937-14.464844-8.9375-23.066407 0-4.417969-3.582031-8-8-8-4.417968 0-8 3.582031-8 8 .398438 8.601563-2.84375 16.976563-8.933593 23.066407-6.089844 6.089843-14.460938 9.332031-23.066407 8.933593-4.417968 0-8 3.582031-8 8s3.582032 8 8 8c8.605469-.398437 16.976563 2.84375 23.066407 8.933594 6.089843 6.089844 9.332031 14.464844 8.933593 23.066406 0 4.417969 3.582032 8 8 8 4.417969 0 8-3.582031 8-8-.398437-8.601562 2.847657-16.976562 8.9375-23.066406 6.089844-6.089844 14.460938-9.332031 23.0625-8.933594 4.417969 0 8-3.582031 8-8s-3.582031-8-8-8zm-40 20.367188c-3.261718-4.902344-7.464843-9.105469-12.367187-12.367188 4.902344-3.261719 9.105469-7.464843 12.367187-12.367187 3.261719 4.902344 7.46875 9.105468 12.371094 12.367187-4.902344 3.261719-9.109375 7.464844-12.371094 12.367188zm0 0"/><path d="m208.25 80.367188c8.570312-.394532 16.910156 2.835937 22.976562 8.902343 6.066407 6.066407 9.300782 14.410157 8.902344 22.980469 0 4.417969 3.582032 8 8 8 4.417969 0 8-3.582031 8-8-.398437-8.574219 2.832032-16.914062 8.898438-22.984375 6.070312-6.066406 14.410156-9.296875 22.980468-8.898437 4.417969 0 8-3.582032 8-8 0-4.417969-3.582031-8-8-8-8.570312.398437-16.910156-2.832032-22.980468-8.898438-6.066406-6.066406-9.296875-14.410156-8.898438-22.980469 0-4.417969-3.582031-8-8-8-4.417968 0-8 3.582031-8 8 .398438 8.570313-2.832031 16.914063-8.898437 22.980469-6.066407 6.066406-14.410157 9.296875-22.980469 8.898438-4.417969 0-8 3.582031-8 8 0 4.417968 3.582031 8 8 8zm39.878906-20.285157c3.246094 4.867188 7.421875 9.042969 12.289063 12.285157-4.863281 3.25-9.039063 7.425781-12.289063 12.289062-3.253906-4.859375-7.425781-9.035156-12.289062-12.289062 4.867187-3.246094 9.042968-7.421876 12.289062-12.285157zm0 0"/><path d="m128.007812 176.488281h16v-16h16v-16h-16v-16h-16v16h-16v16h16zm0 0"/><path d="m416.007812 176.488281h-16v16h-16v16h16v16h16v-16h16v-16h-16zm0 0"/></svg>