<svg height="479pt" viewBox="-23 0 479 479.99676" width="479pt" xmlns="http://www.w3.org/2000/svg"><path d="m136.503906 471.996094 16-32 40-16 24-96 24 96 40 13.710937 16 34.289063zm0 0" fill="#333"/><path d="m88.503906 151.054688v105.886718c.15625 3.707032-2.695312 6.851563-6.402344 7.054688h-51.199218c-3.707032-.203125-6.558594-3.347656-6.398438-7.054688v-98.832031c-.117187-3.390625 2.261719-6.359375 5.597656-6.984375l51.199219-7.0625c1.839844-.265625 3.695313.363281 4.992188 1.695312 1.433593 1.386719 2.230469 3.300782 2.210937 5.296876zm0 0" fill="#ffcc5c"/><path d="m248.503906 119.054688v105.886718c.15625 3.707032-2.695312 6.851563-6.402344 7.054688h-51.199218c-3.707032-.203125-6.558594-3.347656-6.398438-7.054688v-98.832031c-.117187-3.390625 2.261719-6.359375 5.597656-6.984375l51.199219-7.0625c1.839844-.265625 3.695313.363281 4.992188 1.695312 1.433593 1.386719 2.230469 3.300782 2.210937 5.296876zm0 0" fill="#ffcc5c"/><path d="m408.503906 151.054688v105.886718c.15625 3.707032-2.695312 6.851563-6.402344 7.054688h-51.199218c-3.707032-.203125-6.558594-3.347656-6.398438-7.054688v-98.832031c-.117187-3.390625 2.261719-6.359375 5.597656-6.984375l51.199219-7.0625c1.839844-.265625 3.695313.363281 4.992188 1.695312 1.433593 1.386719 2.230469 3.300782 2.210937 5.296876zm0 0" fill="#ffcc5c"/><g fill="#333"><path d="m263.757812 239.734375-13.71875 21.328125c-1.40625 1.949219-3.703124 3.054688-6.105468 2.933594h-54.863282c-2.402343.121094-4.699218-.984375-6.105468-2.933594l-13.71875-21.328125c-1.082032-1.613281-.96875-3.742187.273437-5.234375 1.476563-1.65625 3.613281-2.574219 5.832031-2.503906h82.300782c2.222656-.070313 4.355468.847656 5.832031 2.503906 1.246094 1.492188 1.355469 3.621094.273437 5.234375zm0 0"/><path d="m103.757812 271.734375-13.71875 21.328125c-1.40625 1.949219-3.703124 3.054688-6.105468 2.933594h-54.863282c-2.402343.121094-4.699218-.984375-6.105468-2.933594l-13.71875-21.328125c-1.082032-1.613281-.96875-3.742187.273437-5.234375 1.476563-1.65625 3.613281-2.574219 5.832031-2.503906h82.300782c2.222656-.070313 4.355468.847656 5.832031 2.503906 1.246094 1.492188 1.355469 3.621094.273437 5.234375zm0 0"/><path d="m423.757812 271.734375-13.71875 21.328125c-1.40625 1.949219-3.703124 3.054688-6.105468 2.933594h-54.863282c-2.402343.121094-4.699218-.984375-6.105468-2.933594l-13.71875-21.328125c-1.082032-1.613281-.96875-3.742187.273437-5.234375 1.476563-1.65625 3.613281-2.574219 5.832031-2.503906h82.300782c2.222656-.070313 4.355468.847656 5.832031 2.503906 1.246094 1.492188 1.355469 3.621094.273437 5.234375zm0 0"/></g><path d="m88.503906 86.652344c.796875 8.828125-2.265625 17.570312-8.402344 23.964844-6.136718 6.394531-14.746093 9.816406-23.597656 9.378906-8.855468.4375-17.460937-2.984375-23.601562-9.378906-6.136719-6.394532-9.199219-15.136719-8.398438-23.964844 0-21 25.085938-42.808594 28-45.207032 2.339844-1.929687 5.71875-1.929687 8.0625 0 2.847656 2.398438 27.9375 24.207032 27.9375 45.207032zm0 0" fill="#c1272d"/><path d="m248.503906 54.652344c.796875 8.828125-2.265625 17.570312-8.402344 23.964844-6.136718 6.394531-14.746093 9.816406-23.597656 9.378906-8.855468.4375-17.460937-2.984375-23.601562-9.378906-6.136719-6.394532-9.199219-15.136719-8.398438-23.964844 0-21 25.085938-42.808594 28-45.207032 2.339844-1.929687 5.71875-1.929687 8.0625 0 2.847656 2.398438 27.9375 24.207032 27.9375 45.207032zm0 0" fill="#c1272d"/><path d="m408.503906 86.652344c0 17.671875-14.328125 32-32 32-17.675781 0-32-14.328125-32-32 0-21 25.085938-42.808594 28-45.207032 2.339844-1.929687 5.71875-1.929687 8.0625 0 2.847656 2.398438 27.9375 24.207032 27.9375 45.207032zm0 0" fill="#c1272d"/><path d="m376.503906 127.996094c10.820313.757812 21.441406-3.214844 29.113282-10.886719 7.667968-7.671875 11.640624-18.289063 10.886718-29.113281 0-25.175782-31.386718-51.320313-34.96875-54.214844-2.9375-2.375-7.128906-2.375-10.066406 0-3.582031 2.894531-34.964844 29.039062-34.964844 54.214844-.757812 10.824218 3.214844 21.441406 10.886719 29.113281 7.667969 7.671875 18.289063 11.644531 29.113281 10.886719zm0-77.351563c9.34375 8.753907 24 25.039063 24 37.351563.71875 6.5625-1.574218 13.09375-6.242187 17.761718-4.667969 4.664063-11.199219 6.960938-17.757813 6.238282-6.5625.722656-13.09375-1.574219-17.761718-6.238282-4.667969-4.667968-6.960938-11.199218-6.238282-17.761718 0-12.261719 14.652344-28.582032 24-37.351563zm0 0"/><path d="m56.503906 127.996094c10.820313.757812 21.441406-3.214844 29.113282-10.886719 7.667968-7.671875 11.640624-18.289063 10.886718-29.113281 0-25.175782-31.386718-51.320313-34.96875-54.214844-2.9375-2.375-7.128906-2.375-10.066406 0-3.582031 2.894531-34.964844 29.039062-34.964844 54.214844-.757812 10.824218 3.214844 21.441406 10.886719 29.113281 7.667969 7.671875 18.289063 11.644531 29.113281 10.886719zm0-77.351563c9.34375 8.753907 24 25.039063 24 37.351563.71875 6.5625-1.574218 13.09375-6.242187 17.761718-4.667969 4.664063-11.199219 6.960938-17.757813 6.238282-6.5625.722656-13.09375-1.574219-17.761718-6.238282-4.667969-4.667968-6.960938-11.199218-6.238282-17.761718 0-12.261719 14.652344-28.582032 24-37.351563zm0 0"/><path d="m216.503906 95.996094c10.820313.757812 21.441406-3.214844 29.113282-10.886719 7.667968-7.671875 11.640624-18.289063 10.886718-29.113281 0-25.175782-31.386718-51.320313-34.96875-54.214844-2.9375-2.375-7.128906-2.375-10.066406 0-3.582031 2.894531-34.964844 29.039062-34.964844 54.214844-.757812 10.824218 3.214844 21.441406 10.886719 29.113281 7.667969 7.671875 18.289063 11.644531 29.113281 10.886719zm0-77.351563c9.351563 8.753907 24 25.039063 24 37.351563.71875 6.5625-1.574218 13.09375-6.242187 17.761718-4.667969 4.664063-11.199219 6.960938-17.757813 6.238282-6.5625.722656-13.09375-1.574219-17.761718-6.238282-4.667969-4.667968-6.960938-11.199218-6.238282-17.761718 0-12.261719 14.652344-28.582032 24-37.351563zm0 0"/><path d="m431.308594 259.789062c-1.457032-2.359374-4.035156-3.792968-6.804688-3.792968h-8v-112c0-2.292969-.984375-4.480469-2.707031-6-1.714844-1.527344-4.007813-2.234375-6.285156-1.933594l-64 8c-4.003907.5-7.007813 3.902344-7.007813 7.933594v104h-8c-2.78125-.015625-5.371094 1.414062-6.839844 3.773437-1.46875 2.363281-1.605468 5.316407-.363281 7.804688l16 32c1.363281 2.722656 4.15625 4.4375 7.203125 4.421875h14.15625c-12.726562 14.550781-36.292968 24-62.15625 24-39.699218 0-72-21.527344-72-48v-8h24c3.042969.015625 5.835938-1.699219 7.199219-4.421875l16-32c1.242187-2.488281 1.105469-5.441407-.363281-7.804688-1.46875-2.359375-4.058594-3.789062-6.835938-3.773437h-8v-112c-.003906-2.292969-.988281-4.476563-2.707031-5.996094-1.722656-1.515625-4.011719-2.222656-6.285156-1.9375l-64 8c-4.003907.5-7.007813 3.902344-7.007813 7.933594v104h-8c-2.773437 0-5.351562 1.433594-6.808594 3.792968-1.460937 2.359376-1.59375 5.304688-.351562 7.785157l16 32c1.355469 2.710937 4.125 4.425781 7.160156 4.421875h24v8c0 26.472656-32.304687 48-72 48-25.867187 0-49.433594-9.449219-62.160156-24h14.160156c3.03125.003906 5.804688-1.710938 7.15625-4.421875l16-32c1.242188-2.480469 1.109375-5.425781-.351562-7.785157-1.457032-2.359374-4.035156-3.792968-6.804688-3.792968h-8v-112c-.003906-2.292969-.988281-4.476563-2.707031-5.996094-1.722656-1.515625-4.011719-2.222656-6.285156-1.9375l-64 8c-4.003907.5-7.007813 3.902344-7.007813 7.933594v104h-8c-2.773437 0-5.351562 1.433594-6.808594 3.792968-1.460937 2.359376-1.59375 5.304688-.351562 7.785157l16 32c1.355469 2.710937 4.125 4.425781 7.160156 4.421875h30.398438c13.238281 24.128906 45.207031 40 81.601562 40 24.34375.542968 48.101563-7.492188 67.117188-22.703125l-18.398438 98.296875c-33.457031 7.878906-56.71875 28.070312-56.71875 52.40625 0 4.417968 3.578125 8 8 8h160c4.417969 0 8-3.582032 8-8 0-24.335938-23.265625-44.527344-56.691406-52.40625l-18.398438-98.296875c19.007813 15.203125 42.753907 23.238281 67.089844 22.703125 36.421875 0 68.390625-15.871094 81.597656-40h30.402344c3.042969.015625 5.835938-1.699219 7.199219-4.421875l16-32c1.226563-2.488281 1.078125-5.433594-.394531-7.785157zm-238.804688-132.726562 48-6v102.933594h-48zm-11.058594 112.933594h70.113282l-8 16h-54.113282zm-148.941406-80.933594 48-6v102.933594h-48zm-11.058594 112.933594h70.113282l-8 16h-54.113282zm265.542969 192h-140.972656c6.886719-18 36.375-32 70.488281-32 34.109375 0 63.597656 14 70.484375 32zm-70.484375-48c-4.847656.019531-9.691406.289062-14.515625.800781l14.515625-77.390625 14.511719 77.390625c-4.820313-.511719-9.664063-.78125-14.511719-.800781zm136-256.933594 48-6v102.933594h-48zm51.054688 128.933594h-54.113282l-8-16h70.113282zm0 0"/></svg>