<svg height="479pt" viewBox="0 0 479.99677 479" width="479pt" xmlns="http://www.w3.org/2000/svg"><path d="m338.171875 338.628906c-34.394531 35.671875-81.402344 56.441406-130.9375 57.847656-32.988281.777344-64.90625-11.714843-88.601563-34.679687-54.078124-54.136719-43.726562-152.601563 23.203126-219.480469 66.925781-66.882812 165.390624-77.3125 219.535156-23.203125 54.144531 54.113281 43.695312 152.632813-23.199219 219.515625zm0 0" fill="#f7931e"/><g fill="#f15a24"><path d="m359.988281 120.476562c-16.863281-17.925781-39.546875-29.265624-64-32 7.796875 75.949219 44.359375 140.117188 83.742188 176 20.175781-52.066406 11.839843-108.152343-19.742188-144zm0 0"/><path d="m279.988281 376.476562c20.710938-10.207031 39.625-23.71875 56-40-65.050781-44.289062-106.875-138.402343-103.578125-240-26.113281 6.902344-50.632812 18.839844-72.175781 35.132813-4.480469 95.65625 46.695313 195.875 119.753906 244.867187zm0 0"/><path d="m111.988281 192.476562c-40 80-24.707031 129.285157 16 168 25.519531 24.238282 59.199219 31.855469 96 32-60.417969-41.089843-96.296875-119.097656-112-200zm0 0"/></g><path d="m467.5625 109.089844c-.179688 2.53125-1.621094 4.800781-3.832031 6.042968l-76.542969 41.757813c-20.050781-22.328125-41.289062-43.566406-63.617188-63.617187l41.761719-76.519532c1.238281-2.210937 3.507813-3.648437 6.039063-3.832031 2.523437-.144531 4.945312 1.023437 6.398437 3.097656l36.167969 50.519531 50.519531 36.167969c2.058594 1.457031 3.226563 3.867188 3.105469 6.382813zm0 0" fill="#f7931e"/><path d="m151.988281 388.585938-39.441406 72.273437c-1.167969 2.089844-3.3125 3.453125-5.703125 3.617187h-.417969c-2.226562-.015624-4.3125-1.101562-5.597656-2.921874l-34.160156-47.71875-47.746094-34.160157c-1.949219-1.382812-3.058594-3.664062-2.933594-6.046875.171875-2.390625 1.53125-4.535156 3.621094-5.707031l72.378906-39.445313c.941407 2.933594 57.078125 59.0625 60 60.109376zm0 0" fill="#f7931e"/><path d="m476.632812 97.972656-54.910156-39.203125-39.199218-54.910156c-1.597657-2.246094-4.238282-3.507813-6.992188-3.347656-2.75.164062-5.222656 1.730469-6.542969 4.148437l-45.347656 83.078125c-57.804687-22.039062-132.199219-2.03125-185.308594 51.082031-53.113281 53.109376-73.066406 127.375-51.066406 185.304688l-83.109375 45.324219c-2.414062 1.324219-3.980469 3.796875-4.140625 6.542969-.164063 2.75 1.097656 5.386718 3.339844 6.988281l54.910156 39.199219 39.199219 54.910156c1.496094 2.121094 3.929687 3.378906 6.523437 3.386718h.484375c2.75-.167968 5.21875-1.738281 6.539063-4.152343l45.398437-83.199219c15.847656 5.984375 32.660156 9.019531 49.601563 8.957031 51.308593-1.472656 100-22.976562 135.65625-59.902343 53.109375-53.113282 73.09375-127.503907 51.078125-185.3125l83.097656-45.320313c2.414062-1.324219 3.976562-3.792969 4.140625-6.542969.160156-2.746094-1.101563-5.386718-3.34375-6.984375zm-308.496093 35.863282c15.570312-12.242188 32.957031-21.976563 51.53125-28.855469 2.398437 92.503906 41.023437 180.796875 102.183593 233.773437-12.898437 11.546875-27.265624 21.332032-42.730468 29.105469-69.167969-58.230469-109.660156-143.617187-110.984375-234.023437zm-18.496094 16.296874c.921875-.921874 1.898437-1.746093 2.824219-2.640624 5.171875 87.476562 44.855468 169.320312 110.328125 227.558593-13.21875 5.125-27.042969 8.515625-41.132813 10.097657-51-46.007813-87.609375-117.007813-101.378906-197.601563 8.265625-13.59375 18.121094-26.152344 29.359375-37.414063zm-46.566406 307.300782-32.574219-45.597656c-.511719-.722657-1.144531-1.347657-1.867188-1.855469l-45.597656-32.585938 71.480469-38.992187 18.125 18.121094-38.300781 38.304687 11.308594 11.3125 38.339843-38.3125 3.40625 3.40625 14.710938 14.722656zm50.113281-82.992188-47.199219-47.199218c-16.707031-34.398438-14.945312-77.046876 2.398438-116.855469 13.183593 65.492187 44.027343 126.132812 89.199219 175.351562-15.390626-.855469-30.46875-4.691406-44.398438-11.296875zm180.167969-46.855468c-59.488281-50.847657-96.730469-137.292969-97.832031-227.621094 15.582031-4.1875 31.742187-5.808594 47.847656-4.800782 11.328125 74.230469 42.214844 138.109376 86.527344 179.167969-9.164063 19.644531-21.511719 37.636719-36.542969 53.253907zm42.984375-69.152344c-37.953125-37.65625-65.464844-95.605469-76.351563-160.847656 9.199219 1.839843 18.140625 4.808593 26.613281 8.839843l47.410157 47.410157c14.625 33.175781 15.464843 70.804687 2.328125 104.597656zm9.070312-115.847656-18.113281-18.109376 38.34375-38.34375-11.308594-11.3125-38.34375 38.34375-18.113281-18.113281 39.023438-71.535156 32.574218 45.597656c.511719.722657 1.144532 1.351563 1.867188 1.859375l45.597656 32.582032zm0 0"/></svg>