<svg height="480pt" viewBox="0 0 480 480" width="480pt" xmlns="http://www.w3.org/2000/svg"><path d="m256 159.773438v168h-144v-168c0-4.417969 3.582031-8 8-8h128c4.417969 0 8 3.582031 8 8zm0 0" fill="#333"/><path d="m336 199.773438h80c4.417969 0 8 3.582031 8 8v112c0 4.417968-3.582031 8-8 8h-80c-4.417969 0-8-3.582032-8-8v-112c0-4.417969 3.582031-8 8-8zm0 0" fill="#333"/><path d="m176 327.773438h288c4.417969 0 8 3.582031 8 8v128c0 4.417968-3.582031 8-8 8h-288c-4.417969 0-8-3.582032-8-8v-128c0-4.417969 3.582031-8 8-8zm0 0" fill="#011e1d"/><path d="m446.984375 196.332031c-1.316406 2.152344-3.664063 3.457031-6.183594 3.441407h-129.601562c-2.53125.035156-4.890625-1.28125-6.195313-3.453126-1.304687-2.171874-1.359375-4.871093-.140625-7.089843l64.800781-121.960938c1.371094-2.175781 3.761719-3.496093 6.335938-3.496093s4.964844 1.320312 6.335938 3.496093l64.800781 121.960938c1.210937 2.226562 1.152343 4.929687-.152344 7.101562zm0 0" fill="#560713"/><path d="m368 231.773438h16c4.417969 0 8 3.582031 8 8v32c0 4.417968-3.582031 8-8 8h-16c-4.417969 0-8-3.582032-8-8v-32c0-4.417969 3.582031-8 8-8zm0 0" fill="#ffcc5c"/><path d="m208 199.773438v64l-24 16c-9.777344 7.375-15.664062 18.796874-16 31.039062v152.960938c0 4.417968-3.582031 8-8 8h-104c-4.417969 0-8-3.582032-8-8v-152.960938c-.335938-12.242188-6.222656-23.664062-16-31.039062l-24-16v-64c0-12.398438 3.601562-16 8-16h24c4.417969 0 8 3.582031 8 8v32h40v-32c0-4.417969 3.582031-8 8-8h24c4.417969 0 8 3.582031 8 8v32h40v-32c0-4.417969 3.582031-8 8-8h24c4.398438 0 8 3.601562 8 16zm0 0" fill="#002f2f"/><path d="m279.097656 147.949219c-1.289062 2.382812-3.789062 3.855469-6.496094 3.824219h-177.203124c-2.707032.03125-5.207032-1.441407-6.496094-3.824219-1.324219-2.3125-1.179688-5.183594.371094-7.351563l88.597656-129.792968c1.460937-1.910157 3.726562-3.027344 6.128906-3.027344s4.667969 1.117187 6.128906 3.027344l88.597656 129.769531c1.5625 2.171875 1.707032 5.058593.371094 7.375zm0 0" fill="#560713"/><path d="m320 375.773438c-22.078125 0-32 17.917968-32 40v56h64v-56c0-22.082032-9.921875-40-32-40zm0 0" fill="#333"/><path d="m472 319.773438h-40v-112h16c2.804688 0 5.40625-1.46875 6.855469-3.875 1.449219-2.402344 1.53125-5.390626.214843-7.867188l-72-136c-1.519531-2.441406-4.195312-3.925781-7.070312-3.925781s-5.550781 1.484375-7.070312 3.925781l-72 136c-1.316407 2.476562-1.234376 5.464844.214843 7.867188 1.449219 2.40625 4.050781 3.875 6.855469 3.875h16v112h-56v-160h16c2.949219 0 5.664062-1.625 7.054688-4.226563 1.390624-2.601563 1.238281-5.757813-.398438-8.214844l-96-144c-1.570312-2.097656-4.035156-3.332031-6.65625-3.332031s-5.085938 1.234375-6.65625 3.332031l-96 144c-1.636719 2.457031-1.789062 5.613281-.398438 8.214844 1.390626 2.601563 4.105469 4.226563 7.054688 4.226563h16v16h-16c-4.417969 0-8 3.582031-8 8v32h-24v-32c0-4.417969-3.582031-8-8-8h-40c-4.417969 0-8 3.582031-8 8v72c0 2.429687 1.101562 4.730468 3 6.246093l21.984375 17.601563c9.511719 7.570312 15.039063 19.070312 15.015625 31.222656v160.929688c0 4.417968 3.582031 8 8 8h424c4.417969 0 8-3.582032 8-8v-144c0-4.417969-3.582031-8-8-8zm-96-238.894532 58.710938 110.894532h-117.421876zm-40 126.894532h80v112h-80zm-152-185.601563 81.054688 121.601563h-162.109376zm-64 137.601563h128v160h-72v-8.929688c-.03125-12.160156 5.5-23.664062 15.015625-31.238281l21.984375-17.601563c1.894531-1.515625 2.996094-3.804687 3-6.230468v-72c0-4.417969-3.582031-8-8-8h-40c-4.417969 0-8 3.582031-8 8v32h-24v-32c0-4.417969-3.582031-8-8-8h-8zm-85.015625 107.335937-18.984375-15.175781v-60.160156h24v32c0 4.417968 3.582031 8 8 8h40c4.417969 0 8-3.582032 8-8v-32h24v32c0 4.417968 3.582031 8 8 8h40c4.417969 0 8-3.582032 8-8v-32h24v60.160156l-18.984375 15.199218c-13.308594 10.601563-21.046875 26.699219-21.015625 43.710938v152.929688h-104v-152.929688c.039062-17.019531-7.699219-33.128906-21.015625-43.734375zm261.015625 196.664063v-56c0-13.253907 10.746094-24 24-24s24 10.746093 24 24v56zm168 0h-104v-56c0-22.089844-17.910156-40-40-40s-40 17.910156-40 40v56h-104v-128h288zm0 0"/><path d="m392 223.773438h-32c-4.417969 0-8 3.582031-8 8v48c0 4.417968 3.582031 8 8 8h32c4.417969 0 8-3.582032 8-8v-48c0-4.417969-3.582031-8-8-8zm-8 48h-16v-32h16zm0 0"/></svg>