<svg height="480pt" viewBox="-48 0 480 480.30269" width="480pt" xmlns="http://www.w3.org/2000/svg"><path d="m256.167969 389.199219c0 91.199219-57.792969 82.800781-112 82.800781-54.210938 0-112 8.398438-112-82.800781 0-82.609375 47.039062-221.199219 112-221.199219 64.957031 0 112 138.589844 112 221.199219zm0 0" fill="#1a1a1a"/><path d="m96.167969 71.710938c-21.117188 9.652343-40.140625 23.335937-56 40.289062v-104zm0 0" fill="#333"/><path d="m248.167969 8v101.277344c-15.957031-16.5625-34.976563-29.875-56-39.199219zm0 0" fill="#333"/><g fill="#1a1a1a"><path d="m256.167969 156.160156c0 55.039063-50.25 99.839844-112 99.839844-61.753907 0-112-44.800781-112-99.839844 0-53.394531 47.109375-92.160156 112-92.160156 64.886719 0 112 38.765625 112 92.160156zm0 0"/><path d="m104.167969 453.949219c.113281 6.53125-3.9375 12.414062-10.082031 14.632812-8.808594 2.914063-18.105469 4.074219-27.359376 3.417969l-16-.066406c-16.734374.121094-29.96875.183594-37.441406-6.398438-3.386718-2.875-5.273437-7.144531-5.117187-11.585937 0-11.03125 9.597656-21.167969 24.957031-26.328125 2.597656-.902344 5.257812-1.621094 7.953125-2.152344 12.6875-2.527344 25.808594-1.785156 38.128906 2.152344 15.359375 5.175781 24.960938 15.296875 24.960938 26.328125zm0 0"/><path d="m280.167969 453.949219c.140625 4.441406-1.753907 8.707031-5.144531 11.578125-7.472657 6.589844-20.703126 6.472656-37.441407 6.398437l-16 .066407c-9.253906.65625-18.550781-.503907-27.359375-3.417969-6.132812-2.222657-10.171875-8.101563-10.054687-14.625 0-11.023438 9.597656-21.160157 24.957031-26.308594 12.335938-3.996094 25.496094-4.71875 38.195312-2.097656 2.710938.503906 5.386719 1.207031 8 2.097656 15.246094 5.15625 24.847657 15.285156 24.847657 26.308594zm0 0"/><path d="m166.976562 192.535156-18.007812 21.328125c-1.226562 1.359375-2.972656 2.132813-4.800781 2.132813-1.832031 0-3.574219-.773438-4.800781-2.132813l-18.007813-21.328125c-1.371094-1.554687-1.589844-3.8125-.542969-5.601562 1.109375-1.882813 3.160156-3.007813 5.34375-2.933594h36c2.183594-.074219 4.230469 1.050781 5.34375 2.933594 1.050782 1.785156.835938 4.042968-.527344 5.601562zm0 0"/></g><path d="m128.167969 136s-14.328125 24-32 24-32-24-32-24 14.328125-24 32-24 32 24 32 24zm0 0" fill="#ffcc5c"/><path d="m224.167969 136s-14.328125 24-32 24-32-24-32-24 14.328125-24 32-24 32 24 32 24zm0 0" fill="#ffcc5c"/><path d="m192.167969 168c21.597656 0 37.167969-25.042969 38.863281-27.898438 1.511719-2.527343 1.511719-5.679687 0-8.207031-1.695312-2.855469-17.265625-27.894531-38.863281-27.894531-21.601563 0-37.167969 25.039062-38.863281 27.894531-1.511719 2.527344-1.511719 5.679688 0 8.207031 1.695312 2.855469 17.261718 27.898438 38.863281 27.898438zm8-45.503906c5.59375 3.546875 10.460937 8.128906 14.335937 13.503906-3.859375 5.390625-8.730468 9.984375-14.335937 13.527344zm-16 0v27.03125c-5.597657-3.554688-10.464844-8.148438-14.335938-13.527344 3.859375-5.394531 8.726563-9.988281 14.335938-13.53125zm0 0"/><path d="m135.03125 140.101562c1.511719-2.527343 1.511719-5.679687 0-8.207031-1.695312-2.855469-17.265625-27.894531-38.863281-27.894531-21.601563 0-37.167969 25.039062-38.863281 27.894531-1.511719 2.527344-1.511719 5.679688 0 8.207031 1.695312 2.855469 17.261718 27.898438 38.863281 27.898438 21.597656 0 37.167969-25.042969 38.863281-27.898438zm-30.863281-17.605468c5.59375 3.546875 10.460937 8.128906 14.335937 13.503906-3.859375 5.390625-8.730468 9.984375-14.335937 13.527344zm-16 27.007812c-5.597657-3.546875-10.460938-8.132812-14.335938-13.503906 3.859375-5.394531 8.726563-9.988281 14.335938-13.53125zm0 0"/><path d="m344.167969 232c-22.082031.023438-39.976563 17.917969-40 40v96c0 17.671875-14.328125 32-32 32h-8v-32h-.296875c-2.019532-44.8125-12.992188-88.765625-32.265625-129.273438l37.3125 16.585938 6.496093-14.625-38.015624-16.898438c6.445312-7.160156 11.894531-15.164062 16.191406-23.789062h34.578125v-16h-28.273438c2.789063-9.132812 4.230469-18.628906 4.273438-28.175781.03125-12.980469-2.695313-25.816407-8-37.65625v-110.167969c0-3.332031-2.066407-6.316406-5.183594-7.488281-3.121094-1.171875-6.636719-.289063-8.832031 2.214843l-52.496094 60c-29.664062-8.960937-61.3125-8.960937-90.976562 0l-52.496094-60c-2.195313-2.503906-5.714844-3.386718-8.832032-2.214843-3.121093 1.171875-5.183593 4.15625-5.183593 7.488281v110.167969c-5.308594 11.839843-8.035157 24.675781-8 37.65625.042969 9.546875 1.480469 19.042969 4.269531 28.175781h-28.269531v16h34.574219c4.300781 8.625 9.746093 16.628906 16.191406 23.789062l-38.015625 16.898438 6.496093 14.625 37.3125-16.585938c-19.273437 40.507813-30.242187 84.460938-32.265624 129.273438h-.292969v55c-13.714844 5.425781-23.066407 18.28125-24 33-.2226565 5.757812 1.9375 11.351562 5.96875 15.46875 8.796875 8.730469 24.199219 8.632812 43.726562 8.554688h18.625c9.917969.589843 19.859375-.5625 29.382813-3.402344l-.054688.074218c15.320313 2.488282 30.832032 3.59375 46.351563 3.304688 15.53125.292969 31.0625-.808594 46.398437-3.296875 11.496094 3.085937 23.429688 4.199219 35.296875 3.296875h18.625c16.671875 0 29.855469-.753906 37.710938-8.570312 4.019531-4.109376 6.175781-9.6875 5.96875-15.429688-.9375-14.71875-10.285157-27.574219-24-33v-7h8c26.496093-.027344 47.972656-21.503906 48-48v-96c0-13.257812 10.742187-24 24-24 13.253906 0 24 10.742188 24 24v24h16v-24c-.027344-22.082031-17.921875-39.976562-40-40zm-104-202.707031v64.570312c-9.753907-10.5625-21.519531-19.070312-34.609375-25.015625zm-192 0 34.605469 39.554687c-13.085938 5.945313-24.855469 14.453125-34.605469 25.015625zm4.800781 170.707031h35.199219v-16h-42.984375c-3.308594-9.027344-5.003906-18.5625-5.015625-28.175781 0-48.570313 43.734375-83.824219 104-83.824219 60.261719 0 104 35.253906 104 83.824219-.011719 9.613281-1.710938 19.148437-5.015625 28.175781h-42.984375v16h35.238281c-3.847656 6.128906-8.394531 11.796875-13.542969 16.886719l-18.449219-8.199219-6.496093 14.625 11.25 5.007812c-38.636719 26.222657-89.363281 26.222657-128 0l11.261719-5.007812-6.496094-14.625-18.445313 8.199219c-5.144531-5.089844-9.679687-10.757813-13.519531-16.886719zm41.980469 260.125c-4.0625 4.042969-18.460938 3.953125-32.359375 3.898438h-12.824219c-13.917969.078124-28.292969.144531-32.359375-3.898438-.359375-.375-1.238281-1.246094-1.238281-4.125 0-13.007812 18.320312-24 40-24 21.679687 0 40 10.992188 40 24 0 2.878906-.882813 3.75-1.257813 4.125zm177.21875-4.125c0 2.878906-.882813 3.75-1.257813 4.125-4.0625 4.042969-18.472656 3.953125-32.359375 3.898438h-12.785156c-13.917969.078124-28.292969.144531-32.359375-3.898438-.359375-.375-1.238281-1.246094-1.238281-4.125 0-13.007812 18.320312-24 40-24 21.679687 0 40 10.992188 40 24zm-40-40c-5.375-.011719-10.734375.527344-16 1.597656v-49.597656h-16v55c-13.714844 5.425781-23.066407 18.28125-24 33 .015625 2.132812.304687 4.253906.863281 6.3125 0 .070312-.0625.140625 0 .214844-10.921875 1.085937-21.890625 1.578125-32.863281 1.472656-10.953125.101562-21.902344-.386719-32.800781-1.472656 0-.074219 0-.144532 0-.214844.535156-2.0625.804687-4.183594.800781-6.3125-.9375-14.71875-10.285157-27.574219-24-33v-55h-16v49.597656c-10.558594-2.164062-21.445313-2.164062-32 0v-41.597656c1.054687-46.277344 12.085937-91.785156 32.335937-133.410156.664063.449218 1.375.761718 2.046875 1.175781 42.484375 26.964844 96.714844 26.964844 139.199219 0 .671875-.414063 1.386719-.726563 2.046875-1.175781 20.261719 41.625 31.304687 87.128906 32.371094 133.410156v41.597656c-5.265625-1.070312-10.628907-1.609375-16-1.597656zm0 0"/><path d="m113.007812 180.421875c-1.355468 2.710937-1.058593 5.953125.757813 8.375l24 32c1.511719 2.015625 3.882813 3.203125 6.402344 3.203125 2.515625 0 4.886719-1.1875 6.398437-3.203125l24-32c1.820313-2.421875 2.109375-5.664063.753906-8.375-1.351562-2.710937-4.125-4.421875-7.152343-4.421875h-48c-3.035157-.003906-5.804688 1.710938-7.160157 4.421875zm39.160157 11.578125-8 10.664062-8-10.664062zm0 0"/></svg>