<svg height="480pt" viewBox="-16 0 480 480.5308" width="480pt" xmlns="http://www.w3.org/2000/svg"><path d="m72.398438 418.769531-22.015626 41.300781c-2.777343 5.371094-7.613281 9.386719-13.398437 11.128907-1.863281.535156-3.792969.804687-5.730469.800781-3.90625-.003906-7.730468-1.140625-11.007812-3.273438-5.183594-3.277343-8.871094-8.46875-10.253906-14.445312-1.542969-6.09375-.734376-12.542969 2.261718-18.066406l25.984375-48.800782c1.023438-1.972656 3.003907-3.269531 5.222657-3.414062 2.183593-.066406 4.238281 1.023438 5.410156 2.863281 5.796875 8.859375 13.125 16.613281 21.640625 22.90625 2.730469 2.144531 3.523437 5.9375 1.886719 9zm0 0" fill="#001c1b"/><path d="m378.078125 418.769531 22.015625 41.300781c2.773438 5.375 7.609375 9.390626 13.402344 11.128907 1.859375.535156 3.789062.804687 5.726562.800781 3.90625-.003906 7.730469-1.140625 11.007813-3.273438 5.1875-3.277343 8.867187-8.46875 10.246093-14.445312 1.546876-6.09375.738282-12.542969-2.261718-18.066406l-25.976563-48.800782c-1.03125-1.964843-3.007812-3.257812-5.222656-3.414062-2.183594-.066406-4.238281 1.023438-5.410156 2.863281-5.796875 8.859375-13.125 16.613281-21.640625 22.90625-2.730469 2.140625-3.527344 5.9375-1.886719 9zm0 0" fill="#001c1b"/><path d="m416.542969 76.847656c.003906 5.589844-2.242188 10.949219-6.234375 14.863282l-75.007813 74.257812c-1.363281 1.285156-3.15625 2.007812-5.03125 2.03125h-34.136719c-3.882812.007812-7.046874-3.121094-7.078124-7.007812.003906-1.292969-.117188-2.585938-.359376-3.855469-.503906-2.320313.21875-4.738281 1.910157-6.402344l89.671875-88.796875c8.421875-8.007812 21.652344-7.976562 30.03125.070312 4.007812 3.894532 6.257812 9.253907 6.234375 14.839844zm0 0" fill="#603813"/><path d="m392.542969 208c12.664062-1.324219 22.675781-11.335938 24-24 0-12.320312-10.082031-16-22.769531-16h-338.464844c-12.6875 0-22.765625 3.679688-22.765625 16 1.324219 12.664062 11.335937 22.675781 24 24-25.382813 26.65625-32 68-32 109.335938 0 96.320312 103.304687 130.664062 200 130.664062 96.695312 0 200-34.34375 200-130.664062 0-41.335938-6.617188-82.679688-32-109.335938zm0 0" fill="#002f2f"/><g fill="#f7931e"><path d="m160.542969 441.734375c0 5.601563 0 22.265625-32 22.265625-18.242188 0-28.800781-5.34375-31.359375-15.921875-.457032-2.082031-.671875-4.210937-.640625-6.34375 0-11.351563 17.0625-29.597656 32-41.734375 11.152343 8.785156 20.773437 19.355469 28.480469 31.28125 2.007812 3.144531 3.21875 6.734375 3.519531 10.453125zm0 0"/><path d="m224.542969 441.734375c0 5.601563 0 22.265625-32 22.265625-18.242188 0-28.800781-5.34375-31.359375-15.921875-.457032-2.082031-.671875-4.210937-.640625-6.34375 0-11.351563 17.0625-29.597656 32-41.734375 11.152343 8.785156 20.773437 19.355469 28.480469 31.28125 2.007812 3.144531 3.21875 6.734375 3.519531 10.453125zm0 0"/><path d="m288.542969 441.734375c0 5.601563 0 22.265625-32 22.265625-18.242188 0-28.800781-5.34375-31.359375-15.921875-.457032-2.082031-.671875-4.210937-.640625-6.34375 0-11.351563 17.0625-29.597656 32-41.734375 11.152343 8.785156 20.773437 19.355469 28.480469 31.28125 2.007812 3.144531 3.21875 6.734375 3.519531 10.453125zm0 0"/><path d="m352.542969 441.734375c0 5.601563 0 22.265625-32 22.265625-18.242188 0-28.800781-5.34375-31.359375-15.921875-.457032-2.082031-.671875-4.210937-.640625-6.34375 0-11.351563 17.0625-29.597656 32-41.734375 11.152343 8.785156 20.773437 19.355469 28.480469 31.28125 2.007812 3.144531 3.21875 6.734375 3.519531 10.453125zm0 0"/></g><path d="m232.542969 28c0 11.046875-8.953125 20-20 20s-20-8.953125-20-20 8.953125-20 20-20 20 8.953125 20 20zm0 0" fill="#9fe0f6"/><path d="m296.542969 56c0 8.835938-7.164063 16-16 16-8.835938 0-16-7.164062-16-16s7.164062-16 16-16c8.835937 0 16 7.164062 16 16zm0 0" fill="#9fe0f6"/><path d="m416.542969 184c0 8.800781-10.402344 16-23.039063 16h-337.921875c-12.640625 0-23.039062-7.199219-23.039062-16s10.398437-16 23.039062-16h337.921875c12.636719 0 23.039063 7.199219 23.039063 16zm0 0" fill="#002f2f"/><path d="m288.542969 171.695312v81.226563c0 16.316406-7.585938 27.078125-24 27.078125-8.695313.253906-17.199219-2.582031-24-8-5.601563-5.601562 0-32 0-32 0-3.769531-12.136719-15.703125-16-16 0 0-10.289063 9.871094-10.289063 13.710938v44.753906c-.015625 7.859375-3.15625 15.386718-8.730468 20.929687-5.574219 5.539063-13.121094 8.636719-20.980469 8.605469-.621094.011719-1.238281-.011719-1.855469-.070312-7.238281-.390626-14.078125-3.441407-19.199219-8.570313-5.117187-5.070313-8.160156-11.863281-8.546875-19.054687-.058594-.613282-.082031-1.226563-.070312-1.839844v-49.777344c-.039063-5.09375-5.128906-16.6875-10.328125-16.6875-24 0-20.191407 24-32 24-7.953125 0-17.664063 2.398438-23.3125-3.105469-5.5625-5.53125-8.6875-13.050781-8.6875-20.894531v-44.304688c.101562-14.964843 9.167969-28.410156 23-34.117187 13.835937-5.707031 29.742187-2.566406 40.367187 7.972656.074219.074219.144532.074219.144532.144531 7.355468-15.710937 23.136718-25.75 40.488281-25.75 17.347656 0 33.132812 10.039063 40.488281 25.75 14.503906-14.511718 38.007812-14.574218 52.589844-.144531 5.203125 5.246094 8.765625 11.890625 10.25 19.128907.46875 2.308593.691406 4.660156.671875 7.015624zm0 0" fill="#b3b3b3"/><path d="m212.542969 56c15.464843 0 28-12.535156 28-28s-12.535157-28-28-28c-15.464844 0-28 12.535156-28 28s12.535156 28 28 28zm0-40c6.625 0 12 5.371094 12 12s-5.375 12-12 12c-6.628907 0-12-5.371094-12-12s5.371093-12 12-12zm0 0"/><path d="m280.542969 80c13.253906 0 24-10.746094 24-24s-10.746094-24-24-24c-13.253907 0-24 10.746094-24 24s10.746093 24 24 24zm0-32c4.417969 0 8 3.582031 8 8s-3.582031 8-8 8-8-3.582031-8-8 3.582031-8 8-8zm0 0"/><path d="m256.542969 104c0 8.835938-7.164063 16-16 16-8.835938 0-16-7.164062-16-16s7.164062-16 16-16c8.835937 0 16 7.164062 16 16zm0 0"/><path d="m444.75 437.992188-30.65625-53.007813c12.394531-19.382813 18.808594-41.980469 18.449219-64.984375 0-40.601562-2.753907-82.152344-30.265625-112.167969 5.710937-.328125 11.097656-2.757812 15.128906-6.816406 4.59375-4.464844 7.171875-10.609375 7.136719-17.015625 0-13.253906-10.746094-24-24-24h-54.128907l71.074219-71.070312c4.503907-4.476563 7.039063-10.566407 7.039063-16.917969 0-6.351563-2.535156-12.441407-7.039063-16.914063-9.457031-9.144531-24.457031-9.144531-33.914062 0l-92.632813 92.671875c-1.691406-2.945312-3.742187-5.667969-6.101562-8.105469-7.53125-7.503906-17.738282-11.699218-28.371094-11.664062-10.628906.035156-20.808594 4.300781-28.285156 11.855469-2.394532-5.144531-5.660156-9.835938-9.65625-13.863281-11.113282-11.058594-26.921875-16-42.355469-13.242188s-28.554687 12.867188-35.148437 27.089844l-.183594-.175782c-10.417969-10.421874-25.722656-14.273437-39.832032-10.023437-14.109374 4.25-24.738281 15.917969-27.664062 30.359375h-24.800781c-13.230469.058594-23.945313 10.769531-24 24 .054687 12.554688 9.78125 22.945312 22.304687 23.832031-27.539062 30.015625-30.304687 71.558594-30.304687 112.167969-.378907 22.996094 6.023437 45.597656 18.398437 64.984375l-30.589844 52.984375c-5.285156 8.675781-5.453124 19.53125-.445312 28.371094 5.011719 8.835937 14.414062 14.265625 24.570312 14.191406 10.160157-.078125 19.480469-5.652344 24.355469-14.5625l23.824219-41.25c4.152344 2.589844 8.554688 5.058594 13.199219 7.410156-.847657 2.539063-1.289063 5.195313-1.3125 7.871094 0 20.039062 14.953125 32 40 32 11.707031 1.011719 23.304687-2.910156 32-10.816406 8.691406 7.914062 20.289062 11.832031 32 10.816406 11.71875 1.011719 23.328125-2.9375 32-10.886719 8.667969 7.953125 20.277343 11.90625 32 10.886719 11.710937 1.019531 23.3125-2.90625 32-10.824219 8.691406 7.910157 20.289062 11.835938 32 10.824219 25.046875 0 40-11.960938 40-32-.023438-2.609375-.445313-5.199219-1.25-7.679688 4.664062-2.367187 9.066406-4.847656 13.210937-7.441406l23.742188 41.105469c7.730468 13.394531 24.859375 17.984375 38.253906 10.25 13.390625-7.730469 17.984375-24.855469 10.25-38.25zm-36.207031-253.992188c.007812 2.15625-.878907 4.222656-2.449219 5.703125-1.464844 1.484375-3.464844 2.3125-5.550781 2.296875h-104v-16h104c4.417969 0 8 3.582031 8 8zm-13.601563-117.65625c1.992188-2.109375 4.976563-2.964844 7.785156-2.234375 2.808594.730469 4.996094 2.933594 5.707032 5.746094.710937 2.8125-.167969 5.789062-2.292969 7.769531l-82.351563 82.375h-22.496093zm-282.398437 77.65625c6.367187-.011719 12.480469 2.511719 16.984375 7.015625s7.027344 10.617187 7.015625 16.984375c0 4.417969 3.582031 8 8 8s8-3.582031 8-8v-8c0-17.671875 14.328125-32 32-32s32 14.328125 32 32v8c0 4.417969 3.582031 8 8 8s8-3.582031 8-8c-.011719-9.699219 5.820312-18.453125 14.773437-22.183594 8.957032-3.726562 19.277344-1.699218 26.152344 5.144532 3.414062 3.480468 5.734375 7.882812 6.683594 12.664062.277344 1.441406.410156 2.90625.390625 4.375v88c0 8.835938-7.164063 16-16 16-8.835938 0-16-7.164062-16-16v-16c.117187-12.269531-9.144531-22.601562-21.351563-23.824219-1.039062-.140625-2.082031-.199219-3.128906-.175781-12.984375.011719-23.507812 10.535156-23.519531 23.519531v48.480469c-.003907 8.753906-7.007813 15.898438-15.761719 16.070312-.398438-.078124-.800781-.125-1.207031-.140624-8.066407-.453126-14.507813-6.894532-14.960938-14.960938.007813-.324219-.015625-.648438-.070312-.96875v-53.921875c-.035157-6.988281-2.859375-13.675781-7.847657-18.574219-4.984374-4.894531-11.722656-7.597656-18.710937-7.503906-9.820313-.15625-18.796875 5.527344-22.851563 14.472656-3.085937 6.863282-10.539062 10.648438-17.902343 9.089844s-12.644531-8.035156-12.6875-15.5625v-48c0-13.253906 10.746093-24 24-24zm-72 40c-.007813-2.15625.878906-4.222656 2.449219-5.703125 1.464843-1.484375 3.464843-2.3125 5.550781-2.296875h24v16h-24c-4.417969 0-8-3.582031-8-8zm29.703125 24h2.296875v8c.039062 15.109375 10.636719 28.128906 25.421875 31.234375s29.730468-4.554687 35.839844-18.371094c1.660156-3.203125 5.0625-5.113281 8.65625-4.863281 5.566406.003906 10.078124 4.515625 10.082031 10.078125v53.921875c-.003907.664062.03125 1.324219.101562 1.984375.96875 16.097656 13.804688 28.941406 29.90625 29.910156.660157.074219 1.328125.109375 1.992188.105469 17.671875 0 32-14.328125 32-32v-48.480469c.003906-4.152343 3.367187-7.515625 7.519531-7.519531l1.144531.046875c4.125.371094 7.296875 3.808594 7.335938 7.953125v16c0 17.671875 14.328125 32 32 32s32-14.328125 32-32v-48h82.296875c31.46875 23.304688 37.703125 58.878906 37.703125 112 .425781 21.484375-6.019531 42.546875-18.402344 60.113281-7.554687 10.511719-16.902344 19.613281-27.613281 26.886719-6.015625 4.226562-12.339844 7.992188-18.921875 11.273438h-.039063c-7.671875-9.414063-16.574218-17.753907-26.464844-24.800782-2.75-1.921875-6.40625-1.921875-9.160156 0-10.40625 7.21875-19.648437 15.988282-27.398437 26.007813-7.757813-10.03125-17.007813-18.8125-27.425781-26.039063-2.75-1.917968-6.402344-1.917968-9.152344 0-10.417969 7.226563-19.664063 16.007813-27.421875 26.039063-7.757813-10.03125-17.007813-18.8125-27.425781-26.039063-2.75-1.917968-6.402344-1.917968-9.152344 0-10.417969 7.226563-19.664063 16.007813-27.421875 26.039063-7.757813-10.03125-17.007813-18.8125-27.425781-26.039063-2.75-1.921875-6.40625-1.921875-9.160157 0-9.882812 7.046875-18.78125 15.386719-26.453125 24.796875h-.050781c-6.609375-3.289062-12.960937-7.078125-19-11.328125-10.695313-7.273437-20.03125-16.375-27.574219-26.886718-12.34375-17.546876-18.769531-38.574219-18.335937-60.023438 0-53.121094 6.230469-88.695312 37.703125-112zm-31.304688 250.015625c-3.3125 5.742187-10.65625 7.714844-16.398437 4.398437-5.746094-3.3125-7.714844-10.65625-4.402344-16.398437l27.203125-47.078125c5.441406 6.160156 11.460938 11.785156 17.976562 16.796875zm89.601563-2.015625c-24 0-24-12.039062-24-16 .222656-2.6875 1.117187-5.273438 2.609375-7.519531 5.828125-8.648438 13.074218-16.253907 21.429687-22.496094 11.160157 8.726563 23.960938 21.886719 23.960938 30.015625.023437 1.527344-.136719 3.050781-.480469 4.535156-1.921875 7.609375-9.816406 11.464844-23.519531 11.464844zm64 0c-13.601563 0-21.511719-3.800781-23.425781-11.152344-.378907-1.585937-.574219-3.214844-.574219-4.847656 0-8.136719 12.839843-21.320312 24-30.046875 11.199219 8.726563 24 21.910156 24 30.046875.125 2.796875-.554688 5.574219-1.953125 8-4.070313 6.953125-15.558594 8-22.046875 8zm64 0c-6.488281 0-17.976563-1.046875-22.175781-8.230469-1.316407-2.371093-1.949219-5.0625-1.824219-7.769531 0-8.136719 12.800781-21.320312 24-30.046875 11.199219 8.726563 24 21.910156 24 30.046875 0 1.617188-.191407 3.226562-.570313 4.800781-1.980468 7.421875-9.832031 11.199219-23.429687 11.199219zm64 0c-13.703125 0-21.601563-3.855469-23.519531-11.457031-.34375-1.488281-.503907-3.015625-.480469-4.542969 0-8.128906 12.800781-21.296875 24-30.023438 8.328125 6.25 15.558593 13.84375 21.390625 22.472657 1.496094 2.253906 2.390625 4.851562 2.609375 7.550781 0 4 0 16-24 16zm111.617187-.910156c-.8125 3.074218-2.832031 5.691406-5.601562 7.253906-2.75 1.609375-6.03125 2.054688-9.113282 1.230469-3.078124-.820313-5.703124-2.839844-7.285156-5.605469l-24.410156-42.257812c6.515625-5.011719 12.535156-10.636719 17.976562-16.800782l27.199219 47.105469c1.617188 2.734375 2.058594 6.003906 1.234375 9.074219zm0 0"/></svg>