<svg height="480pt" viewBox="-74 0 480 480.00022" width="480pt" xmlns="http://www.w3.org/2000/svg"><path d="m325.621094 136-62.0625 305.0625c-3.617188 17.925781-19.324219 30.847656-37.609375 30.9375h-119.054688c-18.285156-.09375-33.988281-13.015625-37.601562-30.9375l-62.074219-305.0625c-1.730469-8.449219-.605469-17.234375 3.203125-24.976562l40.628906-81.679688c6.457031-13.085938 19.792969-21.363281 34.386719-21.34375h161.96875c14.597656-.027344 27.941406 8.253906 34.398438 21.34375l40.617187 81.664062c3.808594 7.746094 4.9375 16.539063 3.199219 24.992188zm0 0" fill="#a67c52"/><path d="m252.316406 44.609375c-1.441406-2.839844-4.359375-4.621094-7.542968-4.609375h-156.695313c-3.183594-.011719-6.101563 1.769531-7.546875 4.609375l-37.214844 73.597656c-.847656 1.667969-1.105468 3.570313-.726562 5.402344l64.101562 309.757813c.855469 3.882812 4.300782 6.644531 8.273438 6.632812h102.910156c3.984375.007812 7.433594-2.769531 8.273438-6.664062l64.105468-309.757813c.375-1.828125.121094-3.730469-.722656-5.394531zm0 0" fill="#8c6239"/><path d="m238.421875 128h-56v-40c0-8.835938-7.164063-16-16-16s-16 7.164062-16 16v40h-56c-8.835937 0-16 7.164062-16 16s7.164063 16 16 16h56v160c0 8.835938 7.164063 16 16 16s16-7.164062 16-16v-160h56c8.835937 0 16-7.164062 16-16s-7.164063-16-16-16zm0 0" fill="#42210b"/><path d="m238.421875 120h-48v-32c-.058594-13.230469-10.769531-23.941406-24-24-13.257813 0-24 10.746094-24 24v32h-48c-13.226563.074219-23.925781 10.777344-24 24 0 13.253906 10.742187 24 24 24h48v152c0 13.253906 10.742187 24 24 24 13.253906 0 24-10.746094 24-24v-152h48c13.222656-.074219 23.925781-10.777344 24-24 0-13.253906-10.746094-24-24-24zm5.550781 29.695312c-1.460937 1.492188-3.464844 2.324219-5.550781 2.304688h-64v168c0 4.417969-3.582031 8-8 8s-8-3.582031-8-8v-168h-64c-4.417969 0-8-3.582031-8-8-.003906-2.15625.882813-4.21875 2.453125-5.695312 1.457031-1.496094 3.460938-2.328126 5.546875-2.304688h64v-48c0-4.417969 3.582031-8 8-8 2.15625-.007812 4.222656.878906 5.703125 2.449219 1.484375 1.464843 2.3125 3.464843 2.296875 5.550781v48h64c4.417969 0 8 3.582031 8 8 .003906 2.15625-.882813 4.214844-2.449219 5.695312zm0 0"/><path d="m328.628906 106.527344-42.207031-84.414063c-6.738281-13.589843-20.613281-22.1640622-35.777344-22.113281h-168.449219c-15.164062-.0507812-29.039062 8.523438-35.773437 22.113281l-42.210937 84.414063c-3.988282 8.015625-5.1875 17.132812-3.40625 25.90625l64.542968 315.566406c3.851563 18.597656 20.210938 31.953125 39.199219 32h123.761719c18.992187-.046875 35.351562-13.402344 39.199218-32l64.511719-315.558594c1.789063-8.773437.597657-17.894531-3.390625-25.914062zm-12.265625 22.703125-64.542969 315.570312c-2.3125 11.15625-12.125 19.167969-23.519531 19.199219h-123.761719c-11.394531-.03125-21.207031-8.042969-23.519531-19.199219l-64.542969-315.578125c-1.066406-5.261718-.347656-10.730468 2.046876-15.535156l42.210937-84.421875c4.039063-8.152344 12.363281-13.296875 21.460937-13.265625h168.449219c9.097657-.03125 17.421875 5.113281 21.464844 13.265625l42.207031 84.421875c2.394532 4.808594 3.117188 10.28125 2.046875 15.542969zm0 0"/><path d="m262.230469 45.265625c-4.046875-8.152344-12.375-13.296875-21.472657-13.265625h-148.664062c-9.101562-.03125-17.429688 5.113281-21.472656 13.265625l-35.304688 70.613281c-2.402344 4.8125-3.125 10.289063-2.054687 15.5625l60.800781 297.367188c2.316406 11.167968 12.152344 19.179687 23.558594 19.191406h97.597656c11.394531-.035156 21.203125-8.046875 23.515625-19.199219l60.796875-297.367187c1.070312-5.265625.351562-10.734375-2.039062-15.546875zm21.679687 82.964844-60.824218 297.371093c-.761719 3.722657-4.039063 6.398438-7.839844 6.398438h-97.625c-3.800782 0-7.078125-2.675781-7.839844-6.398438l-60.800781-297.378906c-.351563-1.753906-.109375-3.578125.6875-5.183594l35.3125-70.621093c1.351562-2.695313 4.097656-4.402344 7.113281-4.417969h148.664062c3.03125 0 5.804688 1.710938 7.160157 4.425781l35.300781 70.628907c.796875 1.601562 1.039062 3.421874.691406 5.175781zm0 0"/></svg>