<svg height="479pt" viewBox="0 -48 479.99842 479" width="479pt" xmlns="http://www.w3.org/2000/svg"><g fill="#333"><path d="m471.6875 340.308594c-1.15625 2.546875-3.726562 4.15625-6.519531 4.078125h-75.441407c-1.460937.015625-2.890624-.402344-4.113281-1.199219l-54.871093-36c-2.269532-1.40625-3.265626-4.195312-2.398438-6.71875 1.152344-2.550781 3.722656-4.15625 6.519531-4.082031h75.4375c1.460938-.011719 2.890625.40625 4.113281 1.199219l54.871094 36c2.273438 1.40625 3.269532 4.195312 2.402344 6.722656zm0 0"/><path d="m120 56.386719v56c.015625 2.726562-1.375 5.269531-3.679688 6.71875-1.277343.855469-2.785156 1.300781-4.320312 1.28125-1.132812 0-2.253906-.246094-3.28125-.71875l-88-40c-3.199219-1.417969-5.089844-4.769531-4.640625-8.242188.371094-3.484375 3.019531-6.296875 6.480469-6.878906l88-16c2.328125-.464844 4.742187.152344 6.558594 1.679687 1.835937 1.519532 2.894531 3.78125 2.882812 6.160157zm0 0"/><path d="m431.664062 291.082031c-.871093 3.121094-3.707031 5.289063-6.945312 5.304688h-255.671875c-41.066406-.839844-73.722656-34.722657-73.046875-75.792969v-147.78125c-.613281-34.925781 27.171875-63.75 62.09375-64.425781 34.921875.679687 62.699219 29.503906 62.089844 64.425781v39.199219c-.136719 12.9375 6.335937 25.050781 17.167968 32.128906l191.535157 138.453125c2.640625 1.949219 3.753906 5.359375 2.777343 8.488281zm0 0"/><path d="m343.390625 260.257812c-1.289063 2.582032-3.949219 4.1875-6.832031 4.128907-.496094-.007813-.992188-.050781-1.480469-.136719l-157.375-29.933594c-6.886719-1.183594-12.789063-5.585937-15.890625-11.847656-2.878906-6.085938-2.269531-13.253906 1.601562-18.761719l17.632813-25.71875c3.359375-4.839843 8.515625-8.136719 14.320313-9.144531 5.90625-1.140625 12.023437-.03125 17.152343 3.113281 0 0 132.277344 85.316407 130.871094 88.300781zm0 0"/></g><path d="m160 64.386719c0 8.835937-7.164062 16-16 16-8.839844 0-16-7.164063-16-16 0-8.835938 7.160156-16 16-16 8.835938 0 16 7.164062 16 16zm0 0" fill="#ffcc5c"/><path d="m344 272.386719c3.503906-.003907 6.597656-2.289063 7.632812-5.636719 1.035157-3.347656-.230468-6.980469-3.121093-8.960938l-138.234375-94.585937c-5.394532-3.6875-12.058594-5.019531-18.457032-3.683594-6.394531 1.335938-11.972656 5.222657-15.4375 10.765625l-19 30.398438c-4.160156 6.648437-4.808593 14.910156-1.734374 22.128906 3.070312 7.214844 9.472656 12.476562 17.148437 14.085938l169.601563 35.320312c.527343.109375 1.0625.164062 1.601562.167969zm-167.898438-51.152344c-2.5625-.53125-4.703124-2.28125-5.730468-4.6875s-.816406-5.164063.570312-7.382813l19-30.402343c1.148438-1.851563 3.007813-3.160157 5.140625-3.613281 2.132813-.453126 4.359375-.011719 6.164063 1.214843l105.214844 72zm0 0"/><path d="m168 64.386719c0-13.253907-10.746094-24-24-24-13.257812 0-24 10.746093-24 24 0 13.253906 10.742188 24 24 24 13.253906 0 24-10.746094 24-24zm-24 8c-4.417969 0-8-3.582031-8-8s3.582031-8 8-8 8 3.582031 8 8-3.582031 8-8 8zm0 0"/><path d="m476.796875 337.988281-44.796875-33.601562h16c3.488281-.003907 6.574219-2.273438 7.621094-5.605469 1.042968-3.332031-.191406-6.957031-3.054688-8.953125l-209.761718-146.121094c-11.730469-7.277343-18.851563-20.121093-18.804688-33.925781v-41.394531c-.058594-33.765625-24.878906-62.375-58.300781-67.191407-33.417969-4.816406-65.3125 15.617188-74.902344 47.992188l-84.230469 15.328125c-3.441406.625-6.074218 3.414063-6.503906 6.886719-.433594 3.46875 1.441406 6.816406 4.625 8.265625l83.3125 37.871093v106.847657c.050781 41.0625 31.144531 75.4375 72 79.59375v64.40625h-16v16h48v-16h-16v-64h48v64h-16v16h48v-16h-16v-64h77.335938l61.863281 46.402343c1.382812 1.035157 3.066406 1.597657 4.800781 1.597657h88c3.441406 0 6.5-2.203125 7.585938-5.46875 1.089843-3.265625-.03125-6.863281-2.789063-8.929688zm-442.214844-262.304687 53.417969-9.695313v33.992188zm133.417969 212.703125c-35.332031-.039063-63.960938-28.667969-64-64v-156c0-28.71875 23.28125-52 52-52s52 23.28125 52 52v41.394531c-.097656 19.191406 9.730469 37.070312 25.992188 47.269531l188.527343 131.335938zm218.664062 48-42.664062-32h61.335938l42.664062 32zm0 0"/></svg>