<svg height="480pt" viewBox="-16 0 480 480.00181" width="480pt" xmlns="http://www.w3.org/2000/svg"><path d="m299.410156 464.265625c-4.289062 2.820313-8.820312 5.253906-13.539062 7.273437-.855469.308594-1.757813.46875-2.671875.460938h-145.246094c-12.609375 0-17.953125-3.199219-17.953125-16 0-12.796875 11.386719-16 24-16h48l-64-128-48 152c-1.070312 3.097656-12.710938 8-16 8h-33.0625c-12.617188 0-22.9375-3.199219-22.9375-16 0-12.796875 0-16 22.9375-16h9.167969l28.054687-143.46875c.386719-1.804688.464844-3.660156.234375-5.488281l-7.113281-52.746094c-1.367188-9.699219-.074219-19.589844 3.742188-28.613281l26.53125-62.792969-17.503907-53.207031c-3.6875-11.109375-.855469-23.34375 7.335938-31.707032l5.277343-5.335937c2.9375-2.863281 41.335938 39.359375 41.335938 39.359375l-16-48c-4.359375-11.132812-6.070312-24.6875 4.554688-30.101562l17.957031-9.046876c3.265625-1.707031 7.289062-.789062 9.488281 2.167969l52.433594 68.183594 18.960937 9.597656c18.261719 9.207031 29.730469 27.964844 29.597657 48.417969v4.800781c-.015626 15-28.992188 49.980469-28.992188 49.980469 28.128906 18.179688 136 86.515625 136 164 0 46.402344-17.117188 75.480469-33.863281 92.800781zm0 0" fill="#1a1a1a"/><path d="m400 64c0 22.09375-17.90625 40-40 40-22.089844 0-40-17.90625-40-40 0-22.089844 17.910156-40 40-40 22.09375 0 40 17.910156 40 40zm0 0" fill="#ffcc5c"/><path d="m416 304c-17.671875 0-32 14.328125-32 32v88c0 17.675781-14.324219 32-32 32h-27.519531c17.601562-17.964844 35.519531-47.949219 35.519531-96 0-80.132812-102.894531-151.4375-132.34375-170.199219l5.945312-7.933593c9.320313-12.480469 14.367188-27.628907 14.398438-43.203126v-5c.074219-21.230468-11.929688-40.652343-30.949219-50.085937l-19.851562-9.921875-54.886719-70.566406c-2.339844-3.0078128-6.476562-3.949219-9.886719-2.246094l-18.824219 9.421875c-11.125 5.628906-16.128906 18.804687-11.542968 30.398437l12.0625 30.144532-20.464844-20.460938c-3.171875-3.003906-8.136719-3.003906-11.3125 0l-5.511719 5.511719c-8.609375 8.546875-11.609375 21.246094-7.726562 32.742187l18.351562 55.046876-27.761719 64.992187c-3.992187 9.320313-5.375 19.554687-4 29.601563l7.503907 54.558593c.261719 1.867188.191406 3.761719-.214844 5.601563l-29.382813 133.597656h-9.601562c-13.253906 0-24 10.746094-24 24 0 13.257812 10.746094 24 24 24h48c3.441406 0 6.496094-2.203125 7.585938-5.46875l50.09375-150.265625 57.035156 107.734375h-50.714844c-13.253906 0-24 10.746094-24 24 0 13.257812 10.746094 24 24 24h152c.960938.003906 1.914062-.167969 2.816406-.503906 4.929688-2.054688 9.65625-4.566406 14.121094-7.496094h47.0625c26.5-.023438 47.972656-21.5 48-48v-88c0-8.835938 7.164062-16 16-16s16 7.164062 16 16v56h16v-56c0-17.671875-14.324219-32-32-32zm-129.597656 160h-150.402344c-4.417969 0-8-3.578125-8-8 0-4.417969 3.582031-8 8-8h64c2.808594.003906 5.410156-1.46875 6.855469-3.871094 1.449219-2.402344 1.53125-5.390625.21875-7.871094l-72-136c-1.5-2.828124-4.539063-4.488281-7.730469-4.222656-3.1875.261719-5.914062 2.402344-6.925781 5.4375l-54.183594 162.527344h-42.234375c-4.417969 0-8-3.578125-8-8 0-4.417969 3.582031-8 8-8h16c3.757812.003906 7.007812-2.609375 7.816406-6.277344l30.800782-139.816406c.8125-3.691406.964843-7.496094.449218-11.242188l-7.496094-54.597656c-.988281-7.175781-.003906-14.484375 2.847657-21.144531l28.941406-67.777344c.765625-1.796875.847656-3.816406.226563-5.671875l-19.3125-57.933594c-1.90625-5.675781-.46875-11.945312 3.726562-16.21875l42.34375 42.335938c2.6875 2.695312 6.894531 3.125 10.070312 1.03125 3.175782-2.09375 4.4375-6.132812 3.019532-9.660156l-26.535156-66.328125c-1.542969-3.863281.128906-8.261719 3.847656-10.121094l12.96875-6.488281 52 66.824218c.730468.945313 1.664062 1.710938 2.734375 2.246094l21.464843 10.730469c13.578126 6.742187 22.144532 20.613281 22.085938 35.773437v5c-.027344 12.113282-3.953125 23.894532-11.199219 33.601563l-11.199219 14.9375c-1.367187 1.820313-1.890624 4.136719-1.445312 6.371094.449219 2.234375 1.824219 4.167969 3.789062 5.324219 1.320313.773437 132.054688 78.632812 132.054688 161.101562 0 75.441406-48.917969 100.210938-57.597656 104zm0 0"/><path d="m360 112c-26.507812 0-48-21.488281-48-48 0-26.507812 21.492188-48 48-48 26.511719 0 48 21.492188 48 48-.027344 26.5-21.5 47.976562-48 48zm0-80c-17.671875 0-32 14.328125-32 32 0 17.675781 14.328125 32 32 32 17.675781 0 32-14.324219 32-32 0-17.671875-14.324219-32-32-32zm0 0"/></svg>