<svg height="480pt" viewBox="0 0 480 480" width="480pt" xmlns="http://www.w3.org/2000/svg"><path d="m311.136719 346.566406-65.375 121.90625c-1.105469 2.164063-3.332031 3.53125-5.761719 3.53125s-4.65625-1.367187-5.761719-3.53125l-65.375-121.90625c-1.476562-2.761718-1.050781-6.15625 1.066407-8.46875 2.019531-2.246094 5.347656-2.75 7.941406-1.203125 8.761718 5.273438 18.792968 8.054688 29.015625 8.050781h66.226562c10.222657.003907 20.253907-2.777343 29.015625-8.050781 2.59375-1.546875 5.921875-1.042969 7.941406 1.203125 2.117188 2.3125 2.542969 5.707032 1.066407 8.46875zm0 0" fill="#b3b3b3"/><path d="m372.929688 264.070312c-2.1875-.5-4.476563.179688-6.035157 1.792969-1.652343 1.359375-2.617187 3.382813-2.628906 5.519531-.507813 24.335938-14.191406 46.476563-35.730469 57.816407-1.199218.652343-2.210937 1.601562-2.933594 2.761719l-85.601562 133.488281-85.601562-133.449219c-.722657-1.15625-1.734376-2.109375-2.933594-2.761719-21.539063-11.335937-35.222656-33.476562-35.730469-57.8125-.011719-2.140625-.976563-4.164062-2.628906-5.523437-1.585938-1.566406-3.851563-2.238282-6.035157-1.789063-51.070312 15.886719-99.070312 62.03125-99.070312 125.824219v74.597656c.085938 4.191406 3.542969 7.527344 7.734375 7.464844h448.53125c4.191406.0625 7.648437-3.273438 7.734375-7.464844v-74.597656c0-69.9375-56-109.9375-99.070312-125.867188zm0 0" fill="#333"/><g fill="#999"><path d="m368 136h16c4.417969 0 8 3.582031 8 8v16c0 4.417969-3.582031 8-8 8h-16c-4.417969 0-8-3.582031-8-8v-16c0-4.417969 3.582031-8 8-8zm0 0"/><path d="m400 120h16c4.417969 0 8 3.582031 8 8v48c0 4.417969-3.582031 8-8 8h-16c-4.417969 0-8-3.582031-8-8v-48c0-4.417969 3.582031-8 8-8zm0 0"/><path d="m96 136h16c4.417969 0 8 3.582031 8 8v16c0 4.417969-3.582031 8-8 8h-16c-4.417969 0-8-3.582031-8-8v-16c0-4.417969 3.582031-8 8-8zm0 0"/><path d="m64 120h16c4.417969 0 8 3.582031 8 8v48c0 4.417969-3.582031 8-8 8h-16c-4.417969 0-8-3.582031-8-8v-48c0-4.417969 3.582031-8 8-8zm0 0"/></g><path d="m360 46.183594v214.738281c-.25 29.929687-16.351562 57.480469-42.304688 72.390625-12.230468 7.011719-26.089843 10.699219-40.191406 10.6875h-75.007812c-14.101563.011719-27.960938-3.675781-40.191406-10.6875-25.9375-14.890625-42.035157-42.414062-42.304688-72.320312v-214.808594c-.183594-20.898438 16.605469-37.988282 37.503906-38.183594h164.992188c20.898437.195312 37.6875 17.285156 37.503906 38.183594zm0 0" fill="#009245"/><path d="m332 168c-5.214844 18.558594-19.464844 32-36 32s-30.785156-13.441406-36-32zm0 0" fill="#fff"/><path d="m220 168c-5.214844 18.558594-19.464844 32-36 32s-30.785156-13.441406-36-32zm0 0" fill="#fff"/><path d="m272 240h32v48h-32zm0 0" fill="#eddaa6"/><path d="m176 240h32v48h-32zm0 0" fill="#eddaa6"/><path d="m360 40v56l-40-48-32.375 45.769531c-1.625 1.460938-3.742188 2.257813-5.929688 2.230469-2.171874.019531-4.269531-.808594-5.847656-2.304688l-35.847656-45.695312-36 45.695312c-3.355469 2.914063-8.339844 2.914063-11.695312 0l-32.304688-45.695312-40 48v-56c0-18.679688 19.296875-32 40-32h160c20.703125 0 40 13.320312 40 32zm0 0" fill="#333"/><path d="m184 208c22.082031-.027344 39.972656-17.917969 40-40 0-4.417969-3.582031-8-8-8h-64c-4.417969 0-8 3.582031-8 8 .027344 22.082031 17.917969 39.972656 40 40zm22.632812-32c-3.386718 9.597656-12.457031 16.011719-22.632812 16.011719s-19.246094-6.414063-22.632812-16.011719zm0 0"/><path d="m296 208c22.082031-.027344 39.972656-17.917969 40-40 0-4.417969-3.582031-8-8-8h-64c-4.417969 0-8 3.582031-8 8 .027344 22.082031 17.917969 39.972656 40 40zm22.632812-32c-3.386718 9.597656-12.457031 16.011719-22.632812 16.011719s-19.246094-6.414063-22.632812-16.011719zm0 0"/><path d="m216 248c0-8.835938-7.164062-16-16-16h-16c-8.835938 0-16 7.164062-16 16v32h-16v16h176v-16h-16v-32c0-8.835938-7.164062-16-16-16h-16c-8.835938 0-16 7.164062-16 16v32h-48zm-16 32h-16v-32h16zm80-32h16v32h-16zm0 0"/><path d="m146.96875 135.433594 11.742188-4.699219 10.433593 17.386719 13.710938-8.242188-9.09375-15.167968 13.207031-5.277344-5.9375-14.867188-15.617188 6.25-6.558593-10.9375-13.710938 8.242188 5.222657 8.710937-9.335938 3.734375zm0 0"/><path d="m368 258.3125v-82.3125h16v8c0 4.417969 3.582031 8 8 8h32c4.417969 0 8-3.582031 8-8v-64c0-4.417969-3.582031-8-8-8h-32c-4.417969 0-8 3.582031-8 8v8h-16v-88c-.027344-22.082031-17.917969-39.9726562-40-40h-176c-22.082031.0273438-39.972656 17.917969-40 40v88h-16v-8c0-4.417969-3.582031-8-8-8h-32c-4.417969 0-8 3.582031-8 8v64c0 4.417969 3.582031 8 8 8h32c4.417969 0 8-3.582031 8-8v-8h16v82.265625c-64.742188 11.660156-111.886719 67.949219-112 133.734375v80c0 4.417969 3.582031 8 8 8h464c4.417969 0 8-3.582031 8-8v-80c-.121094-65.773438-47.265625-122.046875-112-133.6875zm32-130.3125h16v48h-16zm-32 16h16v16h-16zm-288 32h-16v-48h16zm48-136c0-13.253906 10.746094-24 24-24h176c13.253906 0 24 10.746094 24 24v33.921875l-25.886719-31.050781c-1.519531-1.820313-3.769531-2.871094-6.140625-2.871094s-4.621094 1.050781-6.140625 2.871094l-33.894531 40.632812-33.847656-40.632812c-1.523438-1.824219-3.773438-2.878906-6.148438-2.878906s-4.628906 1.054687-6.148437 2.878906l-33.792969 40.632812-33.871094-40.625c-1.519531-1.824218-3.773437-2.878906-6.148437-2.878906s-4.628907 1.054688-6.148438 2.878906l-25.832031 31.015625zm0 58.894531 32-38.398437 33.847656 40.625c1.519532 1.824218 3.773438 2.878906 6.148438 2.878906s4.628906-1.054688 6.148437-2.878906l33.816407-40.625 33.855468 40.632812c1.570313 1.738282 3.800782 2.726563 6.144532 2.726563 2.339843 0 4.574218-.988281 6.144531-2.726563l33.894531-40.632812 32 38.398437v165.976563c-.527344 39.402344-32.59375 71.078125-72 71.128906h-80c-39.375-.039062-71.433594-31.667969-72-71.039062zm-32 61.105469v-16h16v16zm24 304v-72h-16v72h-88v-72c.066406-57.234375 40.46875-106.488281 96.585938-117.742188.085937.71875.183593 1.328126.285156 1.910157 3.6875 25.78125 18.601562 48.609375 40.730468 62.34375.503907.433593 1.039063.828125 1.597657 1.183593l27.578125 48.242188 43.429687 76.0625zm88.496094-63.199219-29.296875-51.296875c.265625.042969.53125.070313.800781.082032 6.550781 1.566406 13.261719 2.378906 20 2.414062h80c6.738281-.03125 13.445312-.839844 20-2.398438.269531-.011718.535156-.039062.800781-.082031l-29.9375 52.390625-30.863281 53.960938zm255.503906 63.199219h-88v-72h-16v72h-106.207031l43.464843-76.0625 27.574219-48.242188c.566407-.34375.921875-.710937 1.40625-1.0625 22.558594-13.972656 37.609375-37.375 40.960938-63.695312 0-.226562.160156-.449219.191406-.679688 56.125 11.246094 96.539063 60.5 96.609375 117.742188zm0 0"/></svg>