<svg height="480pt" viewBox="0 0 480 480.07458" width="480pt" xmlns="http://www.w3.org/2000/svg"><path d="m472.039062 168.074219c0 13.6875-14.71875 26.398437-25.601562 32.945312l-46.085938 27.855469c-16.160156 10.011719-25.96875 27.6875-25.914062 46.695312v46.398438c-.074219 18.53125 7.140625 36.347656 20.089844 49.601562 35.839844 36.703126 38.480468 55.863282 37.511718 60.503907-5.601562 27.6875-45.351562 40-94.9375 40-13.734374.027343-27.246093-3.519531-39.199218-10.289063-17.757813-9.480468-37.761719-13.941406-57.863282-12.910156-20.101562-1.03125-40.105468 3.429688-57.863281 12.910156-11.953125 6.769532-25.464843 10.316406-39.199219 10.289063-49.730468 0-90.304687-12.625-94.9375-40-1.417968-8.585938 6.230469-28.753907 41.847657-60.6875 14.855469-13.46875 23.289062-32.613281 23.199219-52.664063v-41.679687c.160156-19.683594-10.339844-37.910157-27.445313-47.640625l-50.9375-28.457032c-11.464844-6.421874-26.664063-19.335937-26.664063-32.871093 0-20.335938 23.902344-36.265625 43.542969-36.265625h54.855469c3.996094-.128906 7.230469-3.28125 7.464844-7.269532 6.105468-65.351562 60.507812-115.582031 126.136718-116.464843 65.609376.921875 119.980469 51.132812 126.113282 116.464843.230468 3.988282 3.46875 7.140626 7.460937 7.269532h54.882813c19.640625 0 43.542968 15.929687 43.542968 36.265625zm0 0" fill="#e6e6e6"/><path d="m320.039062 144.074219c0-17.671875-10.746093-32-24-32-13.253906 0-24 14.328125-24 32s10.746094 32 24 32c13.253907 0 24-14.328125 24-32zm0 0" fill="#ffcc5c"/><path d="m208.039062 144.074219c0-17.671875-10.746093-32-24-32-13.253906 0-24 14.328125-24 32s10.746094 32 24 32c13.253907 0 24-14.328125 24-32zm0 0" fill="#ffcc5c"/><path d="m296.039062 248.074219c0-17.671875-25.070312-32-56-32-30.929687 0-56 14.328125-56 32s25.070313 32 56 32c30.929688 0 56-14.328125 56-32zm0 0" fill="#c1272d"/><path d="m441.984375 128.074219h-58.832031c-4.210938-.0625-7.679688-3.324219-8-7.519531-7.851563-68.6875-65.988282-120.554688-135.121094-120.554688s-127.269531 51.867188-135.121094 120.554688c-.316406 4.199218-3.789062 7.460937-8 7.519531h-58.816406c-17.429688-.003907-32.632812 11.835937-36.898438 28.738281-4.265624 16.898438 3.5 34.539062 18.84375 42.804688l54.558594 29.382812c18.148438 9.753906 29.460938 28.695312 29.441406 49.296875v43.199219c-.003906 20.910156-9.09375 40.785156-24.910156 54.457031-38.152344 33.058594-40.515625 48.664063-38.96875 57.527344 4.925782 28.289062 42.566406 46.59375 95.878906 46.59375 14.667969.0625 29.113282-3.609375 41.96875-10.671875 19.148438-9.816406 40.542969-14.414063 62.03125-13.328125 21.488282-1.085938 42.882813 3.511719 62.03125 13.328125 12.855469 7.0625 27.300782 10.734375 41.96875 10.671875 53.160157 0 89.871094-17.769531 95.832032-46.402344 1.007812-4.863281 4.089844-19.671875-34.3125-57.597656-13.789063-13.511719-21.550782-32.015625-21.519532-51.320313v-47.878906c.039063-19.910156 10.609376-38.308594 27.785157-48.378906l49.34375-28.796875c11.839843-7.011719 19.039062-19.816407 18.871093-33.578125-.027343-21.003906-17.050781-38.023438-38.054687-38.046875zm11.117187 57.785156-49.34375 28.796875c-22.085937 12.949219-35.675781 36.613281-35.71875 62.21875v47.917969c-.042968 23.589843 9.429688 46.199219 26.273438 62.710937 23.773438 23.496094 30.957031 37.84375 29.894531 42.976563-4.167969 20.082031-36.398437 33.59375-80.167969 33.59375-12.296874.035156-24.390624-3.113281-35.113281-9.136719-21.308593-10.777344-45.03125-15.894531-68.886719-14.863281-23.855468-1.03125-47.578124 4.085937-68.886718 14.863281-10.722656 6.023438-22.816406 9.171875-35.113282 9.136719-43.753906 0-76.695312-13.71875-80.121093-33.367188-.941407-5.425781 7.3125-19.847656 33.679687-42.695312 19.328125-16.714844 30.4375-41.003907 30.441406-66.554688v-43.199219c.023438-26.488281-14.519531-50.84375-37.847656-63.382812l-54.578125-29.34375c-8.890625-4.796875-13.386719-15.019531-10.914062-24.8125 2.476562-9.796875 11.292969-16.652344 21.394531-16.644531h58.839844c12.335937-.097657 22.628906-9.449219 23.90625-21.71875 6.925781-60.609375 58.21875-106.375 119.222656-106.375s112.296875 45.765625 119.222656 106.375c1.273438 12.253906 11.546875 21.601562 23.867188 21.71875h58.832031c10.03125.1875 18.726563 7.003906 21.308594 16.699219 2.582031 9.699218-1.578125 19.933593-10.191407 25.085937zm0 0"/><path d="m296.039062 184.074219c17.648438 0 32-17.945313 32-40 0-22.054688-14.351562-40-32-40-17.648437 0-32 17.945312-32 40 0 22.054687 14.351563 40 32 40zm0-64c8.671876 0 16 10.992187 16 24 0 13.007812-7.328124 24-16 24-8.671874 0-16-10.992188-16-24 0-13.007813 7.328126-24 16-24zm0 0"/><path d="m184.039062 184.074219c17.648438 0 32-17.945313 32-40 0-22.054688-14.351562-40-32-40-17.648437 0-32 17.945312-32 40 0 22.054687 14.351563 40 32 40zm0-64c8.671876 0 16 10.992187 16 24 0 13.007812-7.328124 24-16 24-8.671874 0-16-10.992188-16-24 0-13.007813 7.328126-24 16-24zm0 0"/><path d="m240.039062 208.074219c-35.886718 0-64 17.597656-64 40 0 22.398437 28.113282 40 64 40 35.886719 0 64-17.601563 64-40 0-22.402344-28.113281-40-64-40zm0 64c-28.289062 0-48-12.648438-48-24 0-11.351563 19.710938-24 48-24 28.289063 0 48 12.648437 48 24 0 11.351562-19.710937 24-48 24zm0 0"/><path d="m117.511719 424.480469 5.054687 15.203125c52.402344-17.488282 61.097656-114.808594 61.472656-118.945313l-16-1.328125c-2.078124 25.238282-15.257812 93.320313-50.527343 105.070313zm0 0"/><path d="m312.039062 319.410156-16 1.328125c.34375 4.136719 9.039063 101.457031 61.441407 118.925781l5.054687-15.199218c-35.175781-11.71875-48.398437-79.816406-50.496094-105.054688zm0 0"/><path d="m232.039062 320.074219h16v104h-16zm0 0"/></svg>