<svg height="480pt" viewBox="0 -24 480 480" width="480pt" xmlns="http://www.w3.org/2000/svg"><path d="m376 48c0 22.089844-17.910156 40-40 40s-40-17.910156-40-40 17.910156-40 40-40 40 17.910156 40 40zm0 0" fill="#ffcc5c"/><path d="m472 369.457031c-.269531 3.847657-3.582031 6.761719-7.433594 6.542969h-297.132812c-3.851563.21875-7.164063-2.695312-7.433594-6.542969 0-36.722656 68.488281-65.457031 156-65.457031s156 28.734375 156 65.457031zm0 0" fill="#4d4d4d"/><g fill="#333"><path d="m392 417.144531c-.253906 4-3.675781 7.054688-7.679688 6.855469h-368.640624c-4.003907.199219-7.425782-2.855469-7.679688-6.855469 0-49.992187 84.328125-89.144531 192-89.144531s192 39.152344 192 89.144531zm0 0"/><path d="m272 160v32c0 4.417969-3.582031 8-8 8h-72v152c0 4.417969-3.582031 8-8 8h-32c-4.417969 0-8-3.582031-8-8v-152h-72c-4.417969 0-8-3.582031-8-8v-32c0-4.417969 3.582031-8 8-8h72v-56c0-4.417969 3.582031-8 8-8h32c4.417969 0 8 3.582031 8 8v56h72c4.417969 0 8 3.582031 8 8zm0 0"/><path d="m456 224v16c0 4.417969-3.582031 8-8 8h-40v80c0 4.417969-3.582031 8-8 8h-16c-4.417969 0-8-3.582031-8-8v-80h-40c-4.417969 0-8-3.582031-8-8v-16c0-4.417969 3.582031-8 8-8h40v-32c0-4.417969 3.582031-8 8-8h16c4.417969 0 8 3.582031 8 8v32h40c4.417969 0 8 3.582031 8 8zm0 0"/></g><path d="m416 312.800781v-56.800781h40c4.417969 0 8-3.582031 8-8v-32c0-4.417969-3.582031-8-8-8h-40v-32c0-4.417969-3.582031-8-8-8h-32c-4.417969 0-8 3.582031-8 8v32h-40c-4.417969 0-8 3.582031-8 8v32c0 4.417969 3.582031 8 8 8h40v44.535156c-18.511719-3.027344-37.242188-4.542968-56-4.535156-38.273438-.59375-76.300781 6.195312-112 20v-108h72c4.417969 0 8-3.582031 8-8v-48c0-4.417969-3.582031-8-8-8h-72v-56c0-4.417969-3.582031-8-8-8h-48c-4.417969 0-8 3.582031-8 8v56h-72c-4.417969 0-8 3.582031-8 8v48c0 4.417969 3.582031 8 8 8h72v117.441406c-81.601562 14.085938-136 53.175782-136 98.558594 0 4.417969 3.582031 8 8 8h384c4.417969 0 8-3.582031 8-8-.273438-14.628906-5.511719-28.734375-14.847656-40h86.847656c4.417969 0 8-3.582031 8-8 0-25.40625-23.273438-48.257812-64-63.199219zm-80-72.800781v-16h40c4.417969 0 8-3.582031 8-8v-32h16v32c0 4.417969 3.582031 8 8 8h40v16h-40c-4.417969 0-8 3.582031-8 8v80h-16v-80c0-4.417969-3.582031-8-8-8zm-264-48v-32h72c4.417969 0 8-3.582031 8-8v-56h32v56c0 4.417969 3.582031 8 8 8h72v32h-72c-4.417969 0-8 3.582031-8 8v152h-32v-152c0-4.417969-3.582031-8-8-8zm-55.199219 224c6.558594-33.089844 53.351563-62.464844 119.199219-74.398438v18.398438c0 4.417969 3.582031 8 8 8h48c4.417969 0 8-3.582031 8-8v-24c94.105469 0 174.441406 35.878906 183.199219 80zm352.589844-48c-29.480469-24.398438-78-41.648438-135.566406-46.550781 25.558593-6.421875 51.824219-9.597657 78.175781-9.449219 18.769531-.015625 37.503906 1.578125 56 4.761719v19.238281c0 4.417969 3.582031 8 8 8h32c4.417969 0 8-3.582031 8-8v-6.097656c25.503906 10.304687 42.128906 23.875 46.703125 38.097656zm0 0"/><path d="m336 96c26.507812 0 48-21.492188 48-48s-21.492188-48-48-48-48 21.492188-48 48c.027344 26.5 21.5 47.972656 48 48zm0-80c17.671875 0 32 14.328125 32 32s-14.328125 32-32 32-32-14.328125-32-32 14.328125-32 32-32zm0 0"/></svg>