<svg height="480pt" viewBox="-8 0 480 480.35531" width="480pt" xmlns="http://www.w3.org/2000/svg"><path d="m190.382812 359.480469-98.25 98.167969c-12.328124 12.570312-30.457031 17.550781-47.480468 13.046874-17.019532-4.5-30.3125-17.792968-34.816406-34.816406-4.503907-17.019531.480468-35.148437 13.050781-47.480468l98.167969-98.246094c2.894531-2.871094 7.558593-2.871094 10.453124 0l58.875 58.871094c2.867188 2.894531 2.867188 7.5625 0 10.457031zm0 0" fill="#333"/><path d="m416.957031 189.246094-159.726562 160.539062c-2.996094 2.953125-7.808594 2.953125-10.800781 0l-83.671876-84.089844c-2.96875-3.007812-2.96875-7.847656 0-10.855468l243.375-244.625c2.628907-2.636719 6.785157-2.976563 9.808594-.800782 23.707032 17.417969 38.425782 44.484376 40.160156 73.851563 2.609376 39.285156-11.625 77.824219-39.144531 105.980469zm0 0" fill="#e6e6e6"/><path d="m264.535156 377.648438c-.042968 9.015624-5.488281 17.128906-13.816406 20.585937s-17.914062 1.582031-24.328125-4.753906l-107.34375-107.472657c-8.683594-8.769531-8.683594-22.894531 0-31.664062 8.847656-8.453125 22.78125-8.453125 31.628906 0l107.34375 107.464844c4.195313 4.203125 6.539063 9.902344 6.515625 15.839844zm0 0" fill="#333"/><path d="m440.535156 374.65625c0 17.671875-14.328125 32-32 32-17.675781 0-32-14.328125-32-32 0-21 25.085938-42.808594 28-45.207031 2.339844-1.929688 5.71875-1.929688 8.0625 0 2.847656 2.398437 27.9375 24.207031 27.9375 45.207031zm0 0" fill="#c1272d"/><path d="m456.171875 93.023438c0 33.984374-17.359375 66.289062-39.636719 90.976562v88c0 12.566406-4.066406 24-16 24-5.878906-1.402344-11.355468-4.140625-16-8v-16l-16-8-16 8v32c.367188 6.472656-2.042968 12.792969-6.625 17.375-4.585937 4.582031-10.90625 6.992188-17.375 6.625-16 0-16.363281-19.65625-16.363281-26.664062v-121.984376c-.0625-14.015624 5.242187-27.523437 14.824219-37.75l23.585937-24.84375c3.773438-3.925781 6.417969-8.792968 7.664063-14.09375l12-50.746093c.308594-1.332031.957031-2.5625 1.878906-3.574219l36.160156-38.097656c2.449219-2.617188 6.488282-2.945313 9.328125-.757813 25.53125 20.03125 39.875 51.113281 38.558594 83.535157zm0 0" fill="#c1272d"/><path d="m376.535156 280c.0625 13.226562 10.769532 23.933594 24 24 13.253906 0 24-10.746094 24-24v-92.753906c24.925782-26.5625 38.949219-61.535156 39.277344-97.964844 1.222656-34.523438-14.746094-67.40625-42.632812-87.792969-3.179688-2.269531-7.539063-1.910156-10.300782.855469l-254.34375 254.34375-10.355468-10.351562c-9.871094-9.457032-25.441407-9.457032-35.308594 0-9.75 9.746093-9.75 25.550781 0 35.296874l6.351562 6.351563-101.089844 101.101563c-13.664062 13.410156-19.082031 33.125-14.183593 51.636718 4.898437 18.507813 19.351562 32.964844 37.863281 37.859375 18.507812 4.898438 38.222656-.515625 51.632812-14.183593l101.089844-101.085938 38.351563 38.351562c9.742187 9.75 25.550781 9.75 35.292969 0 9.75-9.746093 9.75-25.550781 0-35.296874l-10.335938-10.367188 48.691406-48.6875v.6875c0 15.464844 12.535156 28 28 28 15.460938 0 28-12.535156 28-28v-28c-.007812-2.160156.882813-4.222656 2.453125-5.703125 1.511719-1.472656 3.546875-2.285156 5.65625-2.253906 2.113281.027343 4.125.898437 5.59375 2.414062 1.484375 1.457031 2.3125 3.460938 2.296875 5.542969zm-349.089844 173.085938c-13.476562-13.363282-14.609374-34.769532-2.625-49.484376l52.113282 52.109376c-14.714844 11.988281-36.125 10.851562-49.488282-2.625zm61.089844-8.398438-52.691406-52.6875 92.691406-92.6875 52.6875 52.6875zm166.351563-54.351562c-3.542969 3.394531-9.132813 3.394531-12.671875 0l-120-120c-3.503906-3.503907-3.503906-9.183594 0-12.6875 3.503906-3.503907 9.183594-3.503907 12.6875 0l120 120c3.5 3.5 3.5 9.171874 0 12.671874zm-10.351563-45.648438-76.691406-76.6875 193.953125-193.953125-6.304687 25.296875c-1.421876 5.621094-4.347657 10.75-8.464844 14.839844l-26.070313 26.082031c-10.550781 10.492187-16.46875 24.773437-16.421875 39.652344v104.800781zm107.140625-81.703125c-4.601562 4.460937-7.179687 10.605469-7.140625 17.015625v28c0 6.628906-5.375 12-12 12-6.628906 0-12-5.371094-12-12v-128.082031c-.03125-10.632813 4.195313-20.839844 11.734375-28.34375l26.078125-26.070313c6.167969-6.148437 10.546875-13.859375 12.671875-22.304687l12.714844-51.113281 33.480469-33.445313c20.308594 17.742187 31.550781 43.6875 30.597656 70.640625-.296875 33.351562-13.539062 65.285156-36.933594 89.0625-1.503906 1.5-2.34375 3.535156-2.34375 5.65625v96c0 4.417969-3.582031 8-8 8-2.160156.003906-4.226562-.886719-5.707031-2.457031-1.484375-1.457031-2.3125-3.460938-2.292969-5.542969.050782-6.332031-2.46875-12.417969-6.984375-16.855469-9.429687-9.109375-24.359375-9.179687-33.875-.160156zm0 0"/><path d="m413.566406 321.785156c-2.9375-2.375-7.128906-2.375-10.066406 0-3.574219 2.894532-34.964844 29.039063-34.964844 54.214844-.753906 10.820312 3.214844 21.4375 10.886719 29.109375s18.289063 11.644531 29.113281 10.890625c10.820313.753906 21.4375-3.21875 29.109375-10.890625s11.640625-18.289063 10.890625-29.109375c0-25.175781-31.394531-51.320312-34.96875-54.214844zm-5.03125 78.214844c-6.5625.722656-13.09375-1.574219-17.761718-6.242188-4.667969-4.664062-6.960938-11.199218-6.238282-17.757812 0-12.265625 14.644532-28.578125 24-37.34375 9.351563 8.800781 24 25.078125 24 37.34375.71875 6.558594-1.574218 13.09375-6.242187 17.757812-4.667969 4.667969-11.199219 6.964844-17.757813 6.242188zm0 0"/></svg>