<svg height="480pt" viewBox="0 0 480 480.10045" width="480pt" xmlns="http://www.w3.org/2000/svg"><path d="m448.050781 215.101562c.046875 61.644532-27.511719 120.070313-75.113281 159.238282-1.378906 1.128906-3.105469 1.75-4.886719 1.761718h-255.960937c-1.796875-.003906-3.535156-.625-4.925782-1.761718-73.539062-61.800782-95.027343-166.007813-51.933593-251.859375 43.097656-85.847657 139.496093-130.878907 232.992187-108.835938s159.625 105.398438 159.828125 201.457031zm0 0" fill="#9fe0f6"/><path d="m416.050781 400.101562v18c-.519531 3.734376-3.90625 6.386719-7.65625 6h-336.6875c-3.753906.386719-7.136719-2.265624-7.65625-6v-18c0-13.265624 13.695313-24 30.609375-24h290.78125c16.914063 0 30.609375 10.734376 30.609375 24zm0 0" fill="#023835"/><path d="m472.050781 451.53125v13.714844c-.269531 4.015625-3.71875 7.070312-7.738281 6.855468h-448.527344c-4.019531.214844-7.464844-2.839843-7.734375-6.855468v-13.714844c1.015625-16.09375 14.835938-28.347656 30.933594-27.429688h402.128906c16.101563-.917968 29.921875 11.335938 30.9375 27.429688zm0 0" fill="#002f2f"/><path d="m88.050781 216.101562h-16c0-8.433593.632813-16.855468 1.886719-25.191406l15.816406 2.398438c-1.132812 7.542968-1.703125 15.164062-1.703125 22.792968zm0 0" fill="#d3e9ef"/><path d="m312.050781 128.101562 24.003907-24 24 24-24 24.003907zm0 0" fill="#d3e9ef"/><path d="m448.050781 416.101562h-24v-16c-.054687-17.152343-13.621093-31.207031-30.761719-31.875 83.945313-84.5 83.640626-221-.671874-305.128906-84.316407-84.128906-220.820313-84.128906-305.132813 0-84.316406 84.128906-84.617187 220.628906-.675781 305.128906-17.136719.667969-30.703125 14.722657-30.757813 31.875v16h-24c-17.671875 0-31.9999998 14.324219-31.9999998 32v24c0 4.417969 3.5820308 8 7.9999998 8h464c4.417969 0 8-3.582031 8-8v-24c0-17.675781-14.328125-32-32-32zm-408-200c-.011719-92.464843 63.363281-172.878906 153.265625-194.484374 89.90625-21.6054692 182.898438 21.230468 224.902344 103.601562 42.007812 82.371094 22.074219 182.800781-48.207031 242.882812h-259.921875c-44.503906-37.949218-70.105469-93.515624-70.039063-152zm32 184c0-8.835937 7.164063-16 16-16h304c8.835938 0 16 7.164063 16 16v16h-336zm392 64h-448v-16c0-8.835937 7.164063-16 16-16h416c8.835938 0 16 7.164063 16 16zm0 0"/><path d="m296.050781 136.101562c8.601563-.398437 16.976563 2.84375 23.066407 8.933594 6.089843 6.089844 9.332031 14.460938 8.933593 23.066406 0 4.417969 3.582031 8 8 8s8-3.582031 8-8c-.398437-8.605468 2.84375-16.976562 8.933594-23.066406s14.464844-9.332031 23.066406-8.933594c4.417969 0 8-3.582031 8-8 0-4.417968-3.582031-8-8-8-8.601562.398438-16.976562-2.847656-23.066406-8.933593-6.089844-6.089844-9.332031-14.464844-8.933594-23.066407 0-4.417968-3.582031-8-8-8s-8 3.582032-8 8c.398438 8.601563-2.84375 16.976563-8.933593 23.066407-6.089844 6.085937-14.464844 9.332031-23.066407 8.933593-4.417969 0-8 3.582032-8 8 0 4.417969 3.582031 8 8 8zm40-20.367187c3.261719 4.898437 7.464844 9.105469 12.367188 12.367187-4.902344 3.261719-9.105469 7.464844-12.367188 12.367188-3.261719-4.902344-7.464843-9.105469-12.367187-12.367188 4.902344-3.261718 9.105468-7.46875 12.367187-12.367187zm0 0"/><path d="m240.050781 64.101562v-16c-76.613281-.007812-143.527343 51.820313-162.679687 126l15.488281 4c17.328125-67.117187 77.871094-114.007812 147.191406-114zm0 0"/><path d="m72.050781 216.101562h16c0-7.636718.570313-15.257812 1.703125-22.808593l-15.816406-2.402344c-1.253906 8.347656-1.886719 16.773437-1.886719 25.210937zm0 0"/><path d="m288.050781 240.101562h16v-16h16v-16h-16v-16h-16v16h-16v16h16zm0 0"/></svg>