<svg height="480pt" viewBox="0 0 480 480.00005" width="480pt" xmlns="http://www.w3.org/2000/svg"><path d="m215.664062 88c0 8.835938-7.164062 16-16 16-8.835937 0-16-7.164062-16-16s7.164063-16 16-16c8.835938 0 16 7.164062 16 16zm0 0" fill="#012c3d"/><path d="m279.664062 208c0 13.253906-10.746093 24-24 24-13.253906 0-24-10.746094-24-24s10.746094-24 24-24c13.253907 0 24 10.746094 24 24zm0 0" fill="#012c3d"/><path d="m471.664062 208c0 110.304688-79.960937 200-178.296874 200-39.289063-.136719-77.234376-14.328125-106.972657-40-2.378906-2.179688-3.308593-5.519531-2.402343-8.617188.796874-2.976562 3.433593-5.09375 6.511718-5.230468 90.730469 0 164.585938-82.847656 164.585938-184.617188.9375-56.53125-23.15625-110.589844-65.824219-147.6875-2.382813-2.175781-3.316406-5.519531-2.402344-8.617187.796875-2.976563 3.433594-5.09375 6.511719-5.230469 98.335938 0 178.289062 89.695312 178.289062 200zm0 0" fill="#ffcc5c"/><path d="m430.90625 411.113281c-1.730469 2.582031-4.789062 3.941407-7.867188 3.496094-.496093-.054687-.988281-.144531-1.46875-.273437-20.972656-3.789063-42.488281 2.761718-57.785156 17.601562-2.054687 2.15625-5.097656 3.070312-8 2.398438-7.191406-1.730469-14.628906-2.214844-21.984375-1.441407-15.703125 1.078125-30.277343 8.5625-40.296875 20.707031-2.402344 2.945313-6.488281 3.90625-9.949218 2.335938-6.390626-2.847656-13.140626-4.785156-20.066407-5.761719-19.90625-3.492187-40.320312 2.203125-55.542969 15.496094-1.539062 1.464844-3.585937 2.273437-5.710937 2.257813-.46875.019531-.933594-.023438-1.386719-.136719-2.480468-.355469-4.640625-1.886719-5.789062-4.113281-9.351563-17.375-26.546875-29.128907-46.128906-31.535157-6.9375-1.167969-14.003907-1.351562-20.992188-.542969-3.730469.613282-7.339844-1.605468-8.480469-5.210937-4.75-14.539063-15.761719-26.1875-30.015625-31.742187-6.6875-2.980469-13.835937-4.789063-21.136718-5.34375-2.914063-.175782-5.480469-1.980469-6.632813-4.664063-6.398437-17-24.917969-38.402344-47.199219-42.066406-.34375-.023438-.683594-.09375-1.007812-.207031-2.832032-.730469-4.992188-3.023438-5.550782-5.894532-.417968-2.777344 1.019532-5.503906 3.550782-6.71875 40.578125-21 84.882812-33.832031 130.398437-37.769531 2.371094-.277344 4.738281.5 6.480469 2.128906 1.621094 1.464844 2.355469 3.675781 1.929688 5.824219l-1.082032 5.894531c-3.621094 17.886719 12.554688 43.574219 28.136719 53.65625 2.402344-22.398437 8-33.046875 17.976563-34.398437 2.9375-.382813 5.914062.351562 8.335937 2.054687 3.816406 3.164063 6.699219 7.316407 8.328125 12 5.132812-1.050781 10.417969-1.144531 15.585938-.28125 4.21875.710938 8.304687 2.058594 12.117187 4 4.625-5.207031 11.953125-11.199219 19.511719-7.953125 3.128906 1.386719 5.613281 3.914063 6.945312 7.066406 2.703125 6.167969 1.023438 18.765626-2.449218 34.054688 18.402343-4.800781 42.082031-21.648438 45.707031-39.542969.308593-1.777343.460937-3.632812.621093-5.550781.203126-2.390625 1.675782-4.484375 3.855469-5.480469 2.25-1.1875 4.917969-1.289062 7.25-.273437 25.695313 11.105468 42.917969 25.601562 66.910157 43.046875 3.632812 2.539062 7.105468 5.136719 10.265624 7.609375 11.15625 8.484375 21.746094 17.691406 31.703126 27.558594 2.054687 2.050781 2.433593 5.242187.914062 7.714843zm0 0" fill="#f7931e"/><path d="m404.847656 372.457031c-.925781-.800781-1.933594-1.664062-2.910156-2.496093 68.800781-55.246094 95.230469-147.902344 65.921875-231.128907-29.304687-83.226562-107.960937-138.8867185-196.195313-138.832031-3.441406 0-6.5 2.203125-7.589843 5.46875-1.085938 3.269531.035156 6.863281 2.789062 8.929688 49.296875 36.933593 77.859375 95.289062 76.777344 156.875-1.078125 61.585937-31.664063 118.90625-82.222656 154.085937-.296875-.175781-.503907-.480469-.800781-.632813-7.761719-3.742187-15.410157 3.203126-20.230469 9.289063-8.652344-5.054687-18.917969-6.601563-28.675781-4.3125-1.625-5.351563-4.621094-10.1875-8.695313-14.023437-2.414063-1.964844-5.539063-2.832032-8.621094-2.398438-10.257812 1.597656-16.136719 13.964844-18.632812 40.144531-16.542969-12.308593-24.648438-32.953125-20.898438-53.226562l1.195313-6.886719c.425781-2.480469-.335938-5.019531-2.066406-6.851562-1.726563-1.832032-4.21875-2.746094-6.71875-2.460938-50.15625 5.710938-98.824219 20.65625-143.542969 44.078125-2.664063 1.644531-4.097657 4.714844-3.6484378 7.808594.4453128 3.21875 2.6835938 5.90625 5.7656248 6.929687.324219.101563.652344.1875.984375.246094 22.234375 3.585938 40.890625 18.710938 49 39.722656 1.015625 3.019532 3.722657 5.148438 6.898438 5.421875 7.640625.707031 15.085937 2.847657 21.933593 6.3125 15.28125 7.15625 26.636719 20.675781 31.046876 36.960938.929687 4.015625 4.761718 6.671875 8.851562 6.128906 7.25-.921875 14.601562-.699219 21.78125.65625 21.101562 3.4375 39.066406 17.238281 47.824219 36.742187 1.035156 2.546876 3.304687 4.382813 6.007812 4.863282.464844.085937.9375.128906 1.410157.128906 2.25 0 4.394531-.949219 5.910156-2.617188 14.976562-15.269531 36.578125-22.070312 57.601562-18.125 7.242188 1.152344 14.257813 3.425782 20.800782 6.742188 3.632812 1.859375 8.082031.683594 10.328124-2.726562 9.730469-13.78125 25.019532-22.601563 41.820313-24.121094 7.625-.917969 15.351563-.375 22.769531 1.601562 3.078125.832032 6.355469-.246094 8.34375-2.738281 14.894532-16.988281 37.675782-24.8125 59.863282-20.558594.496093.109375 1 .214844 1.511718.296875 3.296875.46875 6.542969-1.15625 8.144532-4.074218 1.601562-2.921876 1.226562-6.527344-.941407-9.054688-10.242187-11.4375-21.230469-22.183594-32.890625-32.167969zm-135.460937-32.96875v-.039062c51.675781-35.480469 84.597656-92.371094 89.609375-154.855469 5.011718-62.480469-18.421875-123.894531-63.789063-167.152344 77.136719 9.550782 140.902344 64.664063 161.523438 139.605469 20.621093 74.9375-5.972657 154.914063-67.363281 202.585937-.332032-.238281-.679688-.453124-1.039063-.648437-22.230469-17.734375-46.308594-33.019531-71.816406-45.601563-2.398438-1.160156-5.21875-1.050781-7.519531.292969-2.300782 1.34375-3.785157 3.746094-3.953126 6.402344-.140624 2.226563-.351562 4.449219-.6875 6.546875-3.40625 20.261719-17.988281 36.847656-37.648437 42.824219 2.417969-9.792969 3.320313-19.894531 2.683594-29.960938zm90.582031 84.664063c-7.824219-1.527344-15.839844-1.832032-23.761719-.90625-19.09375 1.9375-36.722656 11.121094-49.253906 25.65625-6.191406-2.539063-12.65625-4.367188-19.265625-5.4375-22.484375-3.945313-45.597656 1.664062-63.773438 15.480468-12.328124-19.246093-32.144531-32.449218-54.648437-36.417968-5.292969-.972656-10.664063-1.46875-16.050781-1.480469-1.292969 0-2.589844 0-3.878906.089844-6.808594-17.945313-20.234376-32.59375-37.519532-40.9375-7.121094-3.582031-14.753906-6.046875-22.625-7.3125-7.804687-17.804688-22.109375-31.957031-40-39.566407 34.753906-15.75 71.539063-26.566406 109.289063-32.136718-3.929688 29.953125 11.929687 59.015625 39.242187 71.921875l.796875.359375 1.042969.464844c2.472656 1.035156 5.296875.769531 7.535156-.707032 1.726563-1.136718 2.9375-2.90625 3.382813-4.925781.152343-.523437.238281-1.058594.265625-1.601563.0625-.480468.101562-1.085937.117187-1.375.113281-10.960937 1.746094-21.855468 4.859375-32.367187 1.113282 2.539063 1.984375 5.175781 2.605469 7.878906.28125 2.550781 1.769531 4.8125 4.003906 6.078125 2.230469 1.265625 4.933594 1.386719 7.269531.320313 4.71875-2.273438 10.03125-3.027344 15.199219-2.152344 4.5.894531 8.660157 3.03125 12 6.179687 1.8125 1.652344 4.285157 2.382813 6.703125 1.980469 2.429688-.386719 4.554688-1.859375 5.769532-4 1.292968-2.089843 2.742187-4.078125 4.34375-5.941406-.152344 10.742187-1.695313 21.421875-4.59375 31.765625-.296876 1.160156-.527344 2.335938-.6875 3.523438v.839843c-.003907 2.21875.914062 4.34375 2.539062 5.863281 1.621094 1.515626 3.804688 2.289063 6.023438 2.136719 30.613281-2.40625 56.027343-24.609375 62.519531-54.625 22.96875 12.203125 44.660156 26.675781 64.75 43.199219 3.601562 2.886719 7.023437 5.777344 10.160156 8.519531 6.871094 5.992188 12.738281 11.488281 17.457031 16.121094-19.648437.898437-38.199218 9.316406-51.816406 23.511719zm0 0"/><path d="m199.664062 112c13.253907 0 24-10.746094 24-24s-10.746093-24-24-24c-13.253906 0-24 10.746094-24 24s10.746094 24 24 24zm0-32c4.417969 0 8 3.582031 8 8s-3.582031 8-8 8c-4.417968 0-8-3.582031-8-8s3.582032-8 8-8zm0 0"/><path d="m255.664062 240c17.671876 0 32-14.328125 32-32s-14.328124-32-32-32c-17.671874 0-32 14.328125-32 32s14.328126 32 32 32zm0-48c8.835938 0 16 7.164062 16 16s-7.164062 16-16 16c-8.835937 0-16-7.164062-16-16s7.164063-16 16-16zm0 0"/><path d="m111.664062 208h16v-16h16v-16h-16v-16h-16v16h-16v16h16zm0 0"/></svg>