<svg height="480pt" viewBox="-40 0 480 480" width="480pt" xmlns="http://www.w3.org/2000/svg"><path d="m320 144c0 92.800781-53.726562 184-120 184s-120-91.199219-120-184 53.726562-136 120-136 120 43.199219 120 136zm0 0" fill="#f2f2f2"/><path d="m319.078125 168.558594c-1.273437 18.605468-3.636719 37.117187-7.078125 55.441406l-216 8c-7.039062-31.691406-12.378906-63.738281-16-96zm0 0" fill="#ffe184"/><path d="m136 312h128c70.691406 0 128 57.308594 128 128v32h-384v-32c0-70.691406 57.308594-128 128-128zm0 0" fill="#f2f2f2"/><path d="m312 320 24-40 40 16-32 40zm0 0" fill="#e6e6e6"/><path d="m312 80 48 8v40l-40-8zm0 0" fill="#ccc"/><path d="m176 168c0 17.671875-14.328125 32-32 32s-32-14.328125-32-32zm0 0" fill="#c1272d"/><path d="m288 168c0 17.671875-14.328125 32-32 32s-32-14.328125-32-32zm0 0" fill="#c1272d"/><path d="m144 208c22.082031-.027344 39.972656-17.917969 40-40 0-4.417969-3.582031-8-8-8h-64c-4.417969 0-8 3.582031-8 8 .027344 22.082031 17.917969 39.972656 40 40zm22.632812-32c-3.386718 9.597656-12.457031 16.011719-22.632812 16.011719s-19.246094-6.414063-22.632812-16.011719zm0 0"/><path d="m367.824219 352.34375v-.34375h-.304688c-4.066406-4.742188-8.449219-9.199219-13.121093-13.34375 11.855468-11.207031 21.609374-24.445312 28.800781-39.089844 1-2 1.117187-4.332031.320312-6.421875-.796875-2.09375-2.433593-3.753906-4.511719-4.585937l-40-16c-2.011718-.792969-4.253906-.746094-6.230468.128906-1.980469.878906-3.515625 2.53125-4.25 4.570312-6.226563 11.753907-13.082032 23.167969-20.527344 34.191407-12.726562-4.351563-26.03125-6.777344-39.472656-7.203125 6.144531-6.199219 11.777344-12.886719 16.839844-20 23.421874-34.378906 37.667968-74.179688 41.375-115.613282.800781-8.128906 1.242187-16.417968 1.242187-24.648437 0-4.105469-.113281-8.230469-.34375-12.441406 10.535156 2.945312 21.421875 4.445312 32.359375 4.457031 4.417969 0 8-3.582031 8-8v-40c0-4.417969-3.582031-8-8-8-5.121094 0-29.992188-4.574219-45.289062-7.617188-1.796876-4.230468-3.816407-8.367187-6.054688-12.382812-21.679688-38.6875-60.265625-60-108.65625-60-76 0-125 52-127.839844 135.769531-.082031 2.71875-.160156 5.429688-.160156 8.230469.066406 31.011719 5.65625 61.761719 16.503906 90.816406.136719.335938.289063.664063.449219.976563 5.335937 14.242187 12.171875 27.878906 20.390625 40.679687.734375 1.144532 1.535156 2.144532 2.289062 3.261719v.257813h.199219c5.804688 8.695312 12.433594 16.804687 19.800781 24.222656-73.300781 2.390625-131.519531 62.445312-131.632812 135.785156v32c0 4.417969 3.582031 8 8 8h384c4.417969 0 8-3.582031 8-8v-32c.011719-32.109375-11.390625-63.179688-32.175781-87.65625zm-71.824219 39.65625v21.953125l-192-4.082031v-17.871094h-16v17.527344l-67.558594-1.4375c3.140625-11.363282 7.945313-22.199219 14.261719-32.152344l325.21875-7.738281c10.628906 14.066406 18.003906 30.316406 21.597656 47.578125l-69.519531-1.480469v-22.296875zm0 37.960938v34.039062h-192v-38.128906zm43.855469-139.792969 24.800781 9.921875c-5.707031 10.929687-13.660156 20.535156-23.335938 28.183594-5.816406-4.003907-11.933593-7.546876-18.296874-10.601563 4.914062-7.609375 12.28125-19.273437 16.832031-27.503906zm-61.222657-114.167969c-3.386718 9.597656-12.457031 16.011719-22.632812 16.011719s-19.246094-6.414063-22.632812-16.011719zm-189.992187-46.921875c.550781-8.273437 1.683594-16.5 3.390625-24.613281l219.25 22.679687c.429688 5.597657.71875 11.269531.71875 16.855469 0 4.929688-.214844 9.863281-.535156 14.792969zm263.359375-33.839844v24.417969c-8.984375-.515625-17.824219-2.5-26.167969-5.878906-1.113281-8.078125-2.789062-16.0625-5.015625-23.90625 9.34375 1.792968 22.3125 4.167968 31.183594 5.367187zm-42.832031 15.59375-212.921875-22.03125c2.816406-8.621093 6.597656-16.894531 11.273437-24.664062l189.074219 7.566406c6.132812 12.335937 10.371094 25.527344 12.574219 39.128906zm-109.167969-94.832031c33.417969-1.445312 65.519531 13.152344 86.398438 39.289062l-167.199219-6.6875c20.972656-22.015624 50.425781-33.898437 80.800781-32.601562zm-112 129.144531 130.207031 17.359375c-1.417969 1.476563-2.207031 3.449219-2.207031 5.496094-.042969 21.132812 16.398438 38.632812 37.492188 39.90625s39.519531-14.121094 42.019531-35.105469l14.34375 1.910157c-1.820313 14.039062-4.847657 27.894531-9.054688 41.410156l-199.199219 7.664062c-8.800781-25.296875-13.394531-51.859375-13.601562-78.640625zm19.71875 94.398438 187.335938-7.199219c-5.378907 13.851562-12.28125 27.0625-20.582032 39.382812l-153.753906-7.320312c-4.914062-7.960938-9.253906-16.269531-12.976562-24.855469zm154.808594 47.65625c-5.9375 6.847656-12.648438 12.980469-20 18.28125-25.058594 19.296875-59.972656 19.296875-85.03125 0-9.554688-6.898438-18.054688-15.144531-25.238282-24.480469zm-126.527344 32.800781h14.398438c.722656.480469 1.457031.910156 2.1875 1.359375 14.0625 9.347656 30.527343 14.433594 47.414062 14.640625 15.410156-.152344 30.5-4.425781 43.703125-12.375h.039063c.242187-.136719.472656-.296875.707031-.441406 1.03125-.609375 2.054687-1.261719 3.085937-1.917969.679688-.433594 1.375-.800781 2.058594-1.28125h14.40625c30.441406.011719 59.734375 11.640625 81.886719 32.519531l-298.742188 7.113282c22.664063-25.203126 54.960938-39.605469 88.855469-39.617188zm-120 120c.039062-5.355469.4375-10.699219 1.191406-16l70.808594 1.535156v38.464844h-72zm368 24h-72v-33.695312l71.585938 1.519531c.183593 2.710937.414062 5.414062.414062 8.175781zm0 0"/></svg>