<svg height="479pt" viewBox="-16 1 479 479.99973" width="479pt" xmlns="http://www.w3.org/2000/svg"><path d="m136.5 61.328125c-22.203125 16.445313-41.714844 36.238281-57.839844 58.671875l-14.160156-112zm0 0" fill="#603813"/><path d="m384.5 8-14.160156 112c-16.125-22.433594-35.636719-42.226562-57.839844-58.671875zm0 0" fill="#603813"/><path d="m400.5 240c0-110.457031-78.796875-200-176-200s-176 89.542969-176 200 78.796875 200 176 200 176-89.542969 176-200zm0 0" fill="#8c6239"/><path d="m255.902344 258.0625-25.449219 57.9375c-.964844 2.441406-3.324219 4.046875-5.953125 4.046875-2.625 0-4.984375-1.605469-5.953125-4.046875l-25.445313-57.945312c-.773437-1.71875-.796874-3.675782-.074218-5.414063.722656-1.699219 2.089844-3.039063 3.800781-3.730469 8.058594-3.035156 15.214844-8.0625 20.800781-14.613281 1.21875-1.449219 3.015625-2.289063 4.910156-2.296875h3.921876c1.894531.007812 3.691406.851562 4.910156 2.304688 5.589844 6.550781 12.746094 11.578124 20.800781 14.613281 1.710937.691406 3.078125 2.03125 3.800781 3.730469.726563 1.738281.699219 3.699218-.070312 5.414062zm0 0" fill="#4d4d4d"/><path d="m352.5 184c-.996094 40.636719-34.65625 72.824219-75.296875 72-8.871094-.007812-17.679687-1.515625-26.046875-4.464844-9.914062-3.457031-18.992188-8.949218-26.65625-16.128906-7.675781 7.195312-16.785156 12.691406-26.726562 16.128906-8.34375 2.953125-17.128907 4.464844-25.976563 4.464844-40.640625.824219-74.300781-31.363281-75.296875-72 .996094-40.636719 34.65625-72.824219 75.296875-72 19.570313-.132812 38.441406 7.265625 52.703125 20.664062 14.265625-13.398437 33.136719-20.796874 52.703125-20.664062 40.640625-.824219 74.300781 31.363281 75.296875 72zm0 0" fill="#b3b3b3"/><path d="m208.5 184c0 22.089844-17.90625 40-40 40-22.089844 0-40-17.910156-40-40s17.910156-40 40-40c22.09375 0 40 17.910156 40 40zm0 0" fill="#1a1a1a"/><path d="m320.5 184c0 22.089844-17.90625 40-40 40-22.089844 0-40-17.910156-40-40s17.910156-40 40-40c22.09375 0 40 17.910156 40 40zm0 0" fill="#1a1a1a"/><path d="m440.210938 331.558594c-1.261719 44.953125-6.398438 85.648437-6.460938 86.015625-.285156 3.089843-2.511719 5.648437-5.53125 6.351562-.335938.074219-66.964844-138.398437-66.964844-138.398437-1-2.128906-1-4.589844 0-6.71875l30.847656-69.207032c.078126-.207031.167969-.40625.269532-.601562l2.203125-4.929688c.984375-2.417968 3.3125-4.019531 5.925781-4.070312 8.566406.101562 16.546875 4.363281 21.390625 11.421875 13.859375 17.921875 20.058594 58.394531 18.320313 120.136719zm0 0" fill="#603813"/><path d="m8.789062 331.558594c1.261719 44.953125 6.398438 85.648437 6.464844 86.015625.28125 3.089843 2.507813 5.648437 5.527344 6.351562.335938.074219 66.96875-138.398437 66.96875-138.398437 1-2.128906 1-4.589844 0-6.71875l-30.847656-69.207032c-.078125-.207031-.171875-.40625-.273438-.601562l-2.199218-4.929688c-.984376-2.417968-3.316407-4.019531-5.929688-4.070312-8.5625.101562-16.542969 4.363281-21.390625 11.421875-13.855469 17.921875-20.058594 58.394531-18.320313 120.136719zm0 0" fill="#603813"/><path d="m344.5 440c0-17.671875-21.488281-32-48-32-26.507812 0-48 14.328125-48 32s21.492188 32 48 32c26.511719 0 48-14.328125 48-32zm0 0" fill="#1a1a1a"/><path d="m200.5 440c0-17.671875-21.488281-32-48-32-26.507812 0-48 14.328125-48 32s21.492188 32 48 32c26.511719 0 48-14.328125 48-32zm0 0" fill="#1a1a1a"/><path d="m168.5 136c-26.507812 0-48 21.488281-48 48 0 26.507812 21.492188 48 48 48 26.511719 0 48-21.492188 48-48-.027344-26.5-21.5-47.972656-48-48zm0 80c-17.671875 0-32-14.328125-32-32s14.328125-32 32-32 32 14.328125 32 32-14.328125 32-32 32zm0 0"/><path d="m280.5 136c-26.507812 0-48 21.488281-48 48 0 26.507812 21.492188 48 48 48 26.511719 0 48-21.492188 48-48-.027344-26.5-21.5-47.972656-48-48zm0 80c-17.671875 0-32-14.328125-32-32s14.328125-32 32-32 32 14.328125 32 32-14.328125 32-32 32zm0 0"/><path d="m280.5 104c-20.964844-.058594-41.097656 8.1875-56 22.9375-27.617188-27.152344-70.714844-30.621094-102.316406-8.242188-31.605469 22.382813-42.640625 64.1875-26.203125 99.25 16.441406 35.0625 55.636719 53.316407 93.054687 43.335938l28.183594 62.03125c1.300781 2.851562 4.148438 4.683594 7.28125 4.683594 3.136719 0 5.980469-1.832032 7.28125-4.683594l28.183594-62.03125c30.046875 8.039062 62.03125-2.0625 82.007812-25.90625 19.976563-23.847656 24.316406-57.105469 11.132813-85.28125-13.179688-28.171875-41.5-46.152344-72.605469-46.09375zm-56 196.664062-20.457031-45.015624c.128906-.066407.242187-.160157.371093-.226563 3.183594-1.621094 6.253907-3.457031 9.191407-5.496094.800781-.535156 1.550781-1.078125 2.320312-1.644531 3.023438-2.195312 5.890625-4.601562 8.574219-7.203125 2.691406 2.601563 5.5625 5.007813 8.59375 7.203125.75.558594 1.511719 1.09375 2.285156 1.597656 2.984375 2.082032 6.109375 3.953125 9.355469 5.601563.078125.039062.140625.09375.222656.136719zm56-52.664062c-7.5625 0-15.066406-1.355469-22.152344-4-9.859375-3.574219-18.664062-9.570312-25.597656-17.441406-.609375-.621094-1.171875-1.289063-1.691406-1.992188-1.492188-2.15625-3.949219-3.441406-6.574219-3.441406s-5.082031 1.285156-6.574219 3.441406c-.550781.746094-1.152344 1.453125-1.800781 2.113282-6.917969 7.828124-15.695313 13.789062-25.519531 17.335937-7.066406 2.632813-14.546875 3.984375-22.089844 3.984375-35.347656 0-64-28.652344-64-64s28.652344-64 64-64c19.359375-.058594 37.683594 8.734375 49.753906 23.871094 1.570313 1.8125 3.847656 2.851562 6.246094 2.851562s4.675781-1.039062 6.25-2.851562c12.066406-15.136719 30.390625-23.929688 49.75-23.871094 35.347656 0 64 28.652344 64 64s-28.652344 64-64 64zm0 0"/><path d="m426.15625 204.222656c-5.613281-6.804687-13.714844-11.085937-22.503906-11.886718-4.921875-24.15625-13.890625-47.308594-26.535156-68.472657l15.3125-114.808593c.417968-3.144532-1.0625-6.242188-3.777344-7.890626-2.710938-1.648437-6.144532-1.539062-8.742188.285157l-74.175781 52c-50.390625-28.566407-112.078125-28.566407-162.464844 0l-74.175781-52c-2.601562-1.824219-6.03125-1.933594-8.746094-.285157-2.710937 1.648438-4.195312 4.746094-3.773437 7.890626l15.316406 114.808593c-12.648437 21.164063-21.621094 44.3125-26.542969 68.472657-8.785156.800781-16.890625 5.082031-22.503906 11.886718-16.679688 19.242188-24.085938 62.554688-22 128.738282 1.511719 48.191406 7.671875 91.734374 7.738281 92.175781.496094 3.460937 3.183594 6.199219 6.636719 6.757812.425781.070313.851562.105469 1.28125.105469 3.03125 0 5.804688-1.710938 7.160156-4.425781l41.640625-83.308594c12.640625 24.902344 30.355469 46.882813 52 64.535156-12.078125 5.855469-20.039062 17.796875-20.800781 31.199219 0 22.398438 24.601562 40 56 40 28 0 50.601562-14.023438 55.121094-32.992188 5.605468.625 11.238281.957032 16.878906.992188 5.640625-.035156 11.277344-.367188 16.878906-1 4.523438 18.976562 27.082032 33 55.121094 33 31.402344 0 56-17.601562 56-40-.753906-13.3125-8.621094-25.191406-20.582031-31.082031 21.570312-17.703125 39.207031-39.722657 51.773437-64.636719l41.648438 83.292969c1.355468 2.714843 4.128906 4.425781 7.160156 4.425781.429688 0 .859375-.035156 1.28125-.105469 3.453125-.558593 6.140625-3.296875 6.640625-6.757812.0625-.441407 6.222656-44 7.734375-92.175781 2.089844-66.183594-5.320312-109.496094-22-128.738282zm-52-179.199218-10.511719 78.839843c-.113281-.136719-.222656-.230469-.328125-.367187-11.90625-15.628906-26.152344-29.328125-42.238281-40.609375-.160156-.109375-.335937-.207031-.496094-.320313zm-245.734375 37.535156c-.167969.105468-.335937.210937-.496094.320312-16.15625 11.328125-30.460937 25.09375-42.402343 40.800782-.054688.070312-.136719.144531-.199219.214843l-10.480469-78.878906zm-107.183594 334.082031c-5.960937-57.304687-10.335937-154.199219 13.703125-181.9375 2.296875-2.863281 5.390625-4.980469 8.894532-6.078125l.152343.320312 35.566407 71.054688-21.175782 42.34375zm131.261719 67.359375c-21.679688 0-40-10.992188-40-24 0-8.855469 9.113281-17.503906 22.746094-21.550781 5.597656-1.667969 11.414062-2.492188 17.253906-2.449219 20.90625 0 38.800781 10.207031 40 23.527344v.472656c0 13.007812-18.320312 24-40 24zm144 0c-21.679688 0-40-10.992188-40.070312-24 .097656-.398438.164062-.800781.199218-1.207031 1.070313-12.585938 18.96875-22.792969 39.871094-22.792969 5.867188-.042969 11.707031.789062 17.328125 2.472656 13.558594 4.023438 22.671875 12.671875 22.671875 21.527344 0 13.007812-18.320312 24-40 24zm18.066406-61.914062c-.316406-.046876-.632812-.046876-.945312 0-5.609375-1.34375-11.351563-2.042969-17.121094-2.085938-26.71875 0-48.625 12.800781-54.398438 30.648438-.042968.101562-.128906.199218-.160156.304687-11.589844 1.390625-23.304687 1.390625-34.898437 0 0-.066406-.09375-.128906-.125-.195313-5.699219-17.957031-27.640625-30.757812-54.417969-30.757812-5.929688.035156-11.839844.765625-17.597656 2.183594-.148438-.074219-.3125-.105469-.472656-.097656-26.414063-19.515626-47.152344-45.714844-60.082032-75.902344l21.351563-42.609375c1.132812-2.265625 1.132812-4.933594 0-7.199219l-36.222657-72.359375c4.21875-26.351563 13.582032-51.617187 27.558594-74.351563 12.722656-21.035156 29.640625-39.222656 49.707032-53.425781.167968-.09375.328124-.207031.496093-.320312 52.277344-37.257813 122.441407-37.222657 174.6875.082031 20.230469 14.25 37.285157 32.542969 50.085938 53.71875 13.972656 22.730469 23.335937 47.992188 27.554687 74.335938l-36.226562 72.359374c-1.132813 2.269532-1.132813 4.933594 0 7.203126l21.304687 42.605468c-12.9375 30.175782-33.671875 56.359375-60.078125 75.863282zm113.199219-5.445313-37.144531-74.296875-21.175782-42.34375 35.566407-71.054688.152343-.320312c3.503907 1.097656 6.601563 3.214844 8.894532 6.078125 24.042968 27.738281 19.664062 124.632813 13.707031 181.9375zm0 0"/></svg>