<svg height="480pt" viewBox="0 -24 480 480" width="480pt" xmlns="http://www.w3.org/2000/svg"><path d="m344 88c-8.089844.011719-16.148438 1.007812-24 2.960938-7.851562-1.953126-15.910156-2.949219-24-2.960938-9.484375-.019531-18.917969 1.355469-28 4.078125-9.082031-2.722656-18.515625-4.097656-28-4.078125-9.425781.625-18.789062 1.992188-28 4.078125-9.210938-2.085937-18.574219-3.453125-28-4.078125-8.089844.011719-16.148438 1.007812-24 2.960938-7.851562-1.953126-15.910156-2.949219-24-2.960938-70.71875 0-128 75.199219-128 168s57.28125 168 128 168c8.089844-.011719 16.148438-1.007812 24-2.960938 7.851562 1.953126 15.910156 2.949219 24 2.960938 9.484375.019531 18.917969-1.355469 28-4.078125 18.269531 5.4375 37.730469 5.4375 56 0 9.082031 2.722656 18.515625 4.097656 28 4.078125 8.089844-.011719 16.148438-1.007812 24-2.960938 7.851562 1.953126 15.910156 2.949219 24 2.960938 70.71875 0 128-75.199219 128-168s-57.28125-168-128-168zm0 0" fill="#f7931e"/><g fill="#333"><path d="m265.601562 264h-51.203124l25.601562-40.878906zm0 0"/><path d="m379.679688 172.480469-64.71875 26.960937 31.4375-54.082031c1.394531-2.320313 3.855468-3.789063 6.5625-3.917969h.398437c2.605469-.015625 5.050781 1.238282 6.5625 3.359375zm0 0"/><path d="m165.039062 199.441406-64.71875-26.960937 19.757813-27.679688c1.617187-2.210937 4.226563-3.472656 6.960937-3.359375 2.691407.109375 5.136719 1.589844 6.480469 3.917969zm0 0"/><path d="m354.398438 329.28125-22.476563 44.957031-41.363281-13.839843c-1.660156-.558594-3.457032-.558594-5.117188 0l-45.441406 15.203124-45.441406-15.203124c-1.664063-.53125-3.453125-.53125-5.117188 0l-41.363281 13.839843-22.476563-44.957031 29.757813 21.199219c2.890625 2.089843 6.820313 1.992187 9.601563-.242188l35.039062-28 35.039062 28c2.898438 2.324219 7.023438 2.324219 9.921876 0l35.039062-28 35.039062 28c2.78125 2.234375 6.710938 2.332031 9.601563.242188zm0 0"/></g><path d="m291.441406 88.078125c-7.101562-.21875-14.207031.292969-21.203125 1.523437-3.394531.574219-6.757812 1.324219-10.078125 2.238282-12.96875-5.039063-27.351562-5.039063-40.320312 0-3.339844-.917969-6.734375-1.640625-10.160156-2.160156-6.992188-1.265626-14.097657-1.777344-21.199219-1.519532l27.519531-35.441406v-36.71875c0-4.417969 3.582031-8 8-8h32c4.417969 0 8 3.582031 8 8v36.71875zm0 0" fill="#006837"/><path d="m246.785156 203.761719c-1.558594-2.214844-4.09375-3.535157-6.800781-3.535157s-5.242187 1.320313-6.800781 3.535157l-40 64c-1.542969 2.46875-1.621094 5.585937-.203125 8.128906 1.414062 2.546875 4.105469 4.121094 7.019531 4.109375h80c2.910156 0 5.585938-1.578125 6.996094-4.121094 1.410156-2.542968 1.328125-5.652344-.210938-8.117187zm-32.386718 60.238281 25.601562-40.902344 25.601562 40.902344zm0 0"/><path d="m344 80c-8.078125.011719-16.128906.929688-24 2.734375-6.707031-1.445313-13.535156-2.25-20.390625-2.398437l-27.609375-27.648438v-44.6875c0-4.417969-3.582031-8-8-8h-48c-4.417969 0-8 3.582031-8 8v44.6875l-27.609375 27.609375c-6.855469.152344-13.683594.957031-20.390625 2.398437-7.875-1.792968-15.925781-2.699218-24-2.695312-74.992188 0-136 78.953125-136 176s61.007812 176 136 176c8.082031-.046875 16.132812-.996094 24-2.839844 7.867188 1.84375 15.917969 2.792969 24 2.839844 9.460938-.007812 18.878906-1.289062 28-3.816406 18.320312 5.089844 37.679688 5.089844 56 0 9.121094 2.527344 18.539062 3.808594 28 3.816406 8.082031-.042969 16.132812-.996094 24-2.839844 7.867188 1.839844 15.917969 2.792969 24 2.839844 74.992188 0 136-78.953125 136-176s-61.007812-176-136-176zm-29.070312 119.441406 31.46875-54.050781c1.34375-2.347656 3.804687-3.832031 6.503906-3.925781h.410156c2.597656-.019532 5.042969 1.230468 6.542969 3.351562l19.761719 27.664063zm-25.839844 12.558594c-1.734375 2.96875-1.378906 6.714844.886718 9.304688 2.265626 2.585937 5.929688 3.4375 9.101563 2.109374l53.449219-22.269531c4.96875 17.859375 7.480468 36.316407 7.472656 54.855469.011719 18.53125-2.460938 36.980469-7.351562 54.855469l-32.375 23.121093-35.273438-28.222656c-2.921875-2.34375-7.078125-2.34375-10 0l-35 28-35-28c-2.921875-2.34375-7.078125-2.34375-10 0l-35.273438 28.222656-32.375-23.121093c-4.886718-17.875-7.359374-36.324219-7.351562-54.855469-.011719-18.550781 2.5-37.015625 7.472656-54.886719l53.449219 22.269531c3.164063 1.3125 6.808594.460938 9.070313-2.113281 2.257812-2.574219 2.628906-6.300781.917968-9.269531l-38.222656-65.511719c10.347656-15.015625 23.769531-27.65625 39.375-37.089843 6.953125-4.113282 14.394531-7.339844 22.152344-9.597657l.175781-.058593c16.777344-4.949219 34.628906-4.929688 51.394531.058593 7.777344 2.25 15.242188 5.472657 22.214844 9.589844 15.589844 9.417969 29 22.046875 39.328125 37.050781zm42.855468 162.265625-41.410156-13.816406c-1.640625-.554688-3.421875-.554688-5.0625 0l-45.472656 15.117187-45.472656-15.160156c-.816406-.269531-1.667969-.40625-2.527344-.40625-.863281 0-1.71875.140625-2.535156.414062l-41.410156 13.816407-22.453126-44.972657 29.773438 21.253907c2.914062 2.082031 6.855469 1.972656 9.648438-.265625l34.976562-28 35 28c2.921875 2.34375 7.078125 2.34375 10 0l35-28 35 28c2.792969 2.238281 6.734375 2.347656 9.648438.265625l29.75-21.253907zm-166.875-174.824219-64.71875-26.96875 19.746094-27.671875c1.585938-2.246093 4.21875-3.519531 6.964844-3.367187 2.6875.089844 5.136719 1.558594 6.480469 3.886718zm56.585938-137.785156c1.5-1.5 2.34375-3.535156 2.34375-5.65625v-40h32v40c0 2.121094.84375 4.15625 2.34375 5.65625l19.871094 19.871094c-3.394532.605468-6.761719 1.382812-10.078125 2.328125-18.421875-5.039063-37.859375-5.039063-56.28125 0-3.316407-.941407-6.683594-1.714844-10.078125-2.320313zm-59.726562 351.617188c-19.472657-5.203126-37.109376-15.730469-50.929688-30.402344-29.863281-30.566406-47-76.816406-47-126.871094-.042969-18.203125 2.308594-36.332031 7-53.921875l-15.441406-4.15625c-5.058594 18.941406-7.601563 38.46875-7.558594 58.078125 0 54.191406 18.792969 104.519531 51.550781 138.0625 7.945313 8.1875 16.894531 15.332031 26.632813 21.273438-61.582032-6.695313-110.183594-75.527344-110.183594-159.335938 0-88.222656 53.832031-160 120-160 7.441406.011719 14.855469.929688 22.078125 2.726562l1.921875.472657 1.921875-.472657c6.960937-1.730468 14.101563-2.644531 21.277344-2.726562-15.484375 9.429688-29.035157 21.71875-39.925781 36.214844-5.019532-4.851563-11.90625-7.28125-18.859376-6.648438-6.957031.632813-13.289062 4.265625-17.351562 9.945313l-25.597656 35.839843c-1.402344 1.980469-1.832032 4.492188-1.164063 6.824219s2.359375 4.238281 4.59375 5.175781l27.679688 11.535157c-5.714844 19.867187-8.601563 40.441406-8.574219 61.113281.027344 13.792969 1.320312 27.554688 3.863281 41.113281-3.039062-1.753906-6.871093-1.296875-9.414062 1.117188-2.546875 2.417969-3.199219 6.21875-1.609375 9.34375l40 80c1.785156 3.550781 5.902344 5.253906 9.671875 4l5.230469-1.742188c9.121093 10.246094 19.722656 19.066407 31.457031 26.167969-7.171875-.078125-14.3125-.996094-21.269531-2.726562zm126.007812-10.640626c-5.714844 3.308594-11.75 6.027344-18.015625 8.109376-.5625.195312-1.113281.410156-1.675781.617187-.558594.207031-1.09375.433594-1.652344.601563-.28125.101562-.546875.214843-.851562.304687l-.125.039063c-16.738282 4.945312-34.550782 4.945312-51.289063 0h-.105469c-3.113281-.941407-6.175781-2.046876-9.175781-3.304688-2.886719-1.222656-5.847656-2.617188-8.957031-4.265625-1.335938-.710937-2.722656-1.285156-4-2.0625-8.605469-5.082031-16.53125-11.238281-23.585938-18.320313l23.496094-7.917968 45.472656 15.160156c1.640625.542969 3.414063.542969 5.054688 0l45.472656-15.160156 23.550781 7.855468c-7.066406 7.085938-15 13.25-23.613281 18.34375zm65.78125 12.710938c46.785156-28.375 78.28125-89.871094 78.28125-159.34375.042969-19.609375-2.5-39.136719-7.558594-58.078125l-15.441406 4.15625c4.691406 17.589844 7.042969 35.71875 7 53.921875 0 77.023438-41.183594 143.199219-97.921875 157.273438-6.960937 1.730468-14.101563 2.644531-21.277344 2.726562 11.742188-7.097656 22.355469-15.910156 31.488281-26.152344l5.230469 1.746094c.800781.265625 1.636719.402344 2.480469.40625 3.046875.015625 5.839844-1.699219 7.199219-4.425781l40-80c1.585937-3.125.929687-6.921875-1.613281-9.335938-2.542969-2.417969-6.367188-2.875-9.410157-1.132812 2.53125-13.558594 3.808594-27.316407 3.824219-41.105469.011719-20.664062-2.882812-41.226562-8.609375-61.078125l27.679687-11.539063c2.238282-.9375 3.929688-2.84375 4.597657-5.175781s.238281-4.84375-1.164063-6.824219l-25.601562-35.863281c-4.765625-6.628906-12.5625-10.394531-20.71875-10.007812-5.808594.285156-11.308594 2.683593-15.472656 6.746093-10.878907-14.511718-24.425782-26.816406-39.910157-36.257812 7.183594.078125 14.335938.992188 21.3125 2.726562l1.886719.472657 1.921875-.472657c7.222656-1.796874 14.636719-2.714843 22.078125-2.726562 66.167969 0 120 71.777344 120 160 0 83.847656-48.648438 152.703125-110.28125 159.34375zm0 0"/></svg>