<svg height="480pt" viewBox="-16 0 480 480" width="480pt" xmlns="http://www.w3.org/2000/svg"><path d="m240 366.878906v98.226563c.363281 3.355469-1.992188 6.402343-5.335938 6.894531h-21.328124c-3.34375-.492188-5.699219-3.539062-5.335938-6.894531v-77.546875c-.035156-2.042969.730469-4.023438 2.136719-5.511719l21.328125-20.679687c1.460937-1.550782 3.832031-1.816407 5.597656-.625 1.945312 1.425781 3.046875 3.730468 2.9375 6.136718zm0 0" fill="#754c24"/><path d="m384 111.609375v67.480469c.015625 2.277344-1.023438 4.4375-2.816406 5.847656-1.757813 1.460938-4.085938 2.046875-6.328125 1.597656l-64.992188-12.976562 35.890625 194.578125c.605469 3.117187-.75 6.289062-3.425781 8-2.675781 1.664062-6.097656 1.511719-8.617187-.382813l-53.710938-47.753906-89.519531 70.480469c-1.328125.972656-2.929688 1.503906-4.578125 1.519531-.855469.003906-1.707032-.152344-2.511719-.457031-2.429687-.8125-4.273437-2.820313-4.878906-5.3125l-10.511719-58.230469-54.246094 40.097656c-2.59375 1.59375-5.886718 1.503906-8.386718-.234375-2.519532-1.699219-3.757813-4.761719-3.121094-7.734375l35.890625-194.578125-64.992188 12.976563c-2.242187.449218-4.570312-.136719-6.328125-1.597656-1.792968-1.410157-2.832031-3.5625-2.816406-5.839844v-67.480469c.011719-2.136719.925781-4.171875 2.511719-5.601563 1.601562-1.4375 3.722656-2.164062 5.871093-2.007812l120.304688 12c1.421875.140625 2.773438.699219 3.878906 1.601562 16.324219 11.992188 38.542969 11.992188 54.867188 0 1.105468-.902343 2.457031-1.460937 3.878906-1.601562l120.304688-12c2.140624-.167969 4.261718.542969 5.871093 1.96875 1.597657 1.4375 2.511719 3.488281 2.511719 5.640625zm0 0" fill="#ffcc5c"/><path d="m280 75.640625c-.148438 16.738281-8.492188 32.339844-22.328125 41.757813-20.25 14.160156-47.195313 14.132812-67.414063-.070313-13.804687-9.40625-22.121093-24.984375-22.257812-41.6875-.019531-5.089844.761719-10.148437 2.3125-14.992187 1.011719-2.828126 3.714844-4.699219 6.71875-4.648438h93.9375c3.003906-.050781 5.707031 1.820312 6.71875 4.648438 1.550781 4.84375 2.332031 9.902343 2.3125 14.992187zm0 0" fill="#c69c6d"/><path d="m168 56 7.136719-48h97.726562l7.136719 48zm0 0" fill="#8c6239"/><path d="m448 152v-16h-56v-8.800781l49.175781-7.3125-2.351562-15.824219-46.824219 6.976562v-7.039062c0-2.261719-.957031-4.417969-2.632812-5.933594-1.675782-1.515625-3.917969-2.253906-6.167969-2.027344l-105.398438 10.546876c6.644531-10.3125 10.183594-22.320313 10.199219-34.585938-.027344-2.675781-.21875-5.347656-.574219-8h16.574219v-16h-17.222656l-6.890625-41.3125c-.640625-3.855469-3.976563-6.6875-7.886719-6.6875h-96c-3.910156 0-7.246094 2.832031-7.886719 6.6875l-6.890625 41.3125h-17.222656v16h16.574219c-2.042969 14.886719 1.367187 30.011719 9.601562 42.585938l-105.375-10.546876c-2.25-.226562-4.492187.511719-6.167969 2.027344-1.675781 1.515625-2.632812 3.671875-2.632812 5.933594v7.039062l-46.824219-6.949218-2.351562 15.820312 49.175781 7.289063v8.800781h-56v16h56v8.800781l-49.175781 7.3125 2.351562 15.824219 46.824219-6.976562v15.039062c0 2.402344 1.078125 4.679688 2.941406 6.199219 1.859375 1.519531 4.304688 2.121093 6.660156 1.640625l68.230469-13.648438-37.671875 188.207032c-.625 3.132812.671875 6.332031 3.296875 8.148437 2.625 1.8125 6.074219 1.894531 8.78125.207031l54.664063-34.167968 13.335937 53.316406c.652344 2.601562 2.5625 4.707031 5.089844 5.601562.855469.320313 1.757813.488282 2.671875.496094 1.730469 0 3.414062-.5625 4.800781-1.601562l11.199219-8.398438v74c0 4.417969 3.582031 8 8 8h32c4.417969 0 8-3.582031 8-8v-110l32-24 59.199219 44.398438c2.660156 1.996093 6.273437 2.140624 9.082031.363281 2.808594-1.777344 4.222656-5.105469 3.558594-8.363281l-37.601563-188.238282 68.160157 13.679688c2.355468.480468 4.800781-.121094 6.660156-1.640625 1.863281-1.519531 2.941406-3.796875 2.941406-6.199219v-15.039062l46.824219 6.949218 2.351562-15.820312-49.175781-7.289063v-8.800781zm-216 312h-16v-78l16-12zm-55.34375-400h94.6875c.441406 2.644531.660156 5.320312.65625 8 .105469 15.105469-7.035156 29.347656-19.199219 38.304688-12.636719 9.386718-29.046875 12.050781-44 7.136718-4.964843-1.597656-9.617187-4.035156-13.761719-7.203125-12.097656-8.964843-19.175781-23.179687-19.039062-38.238281-.003906-2.679688.214844-5.355469.65625-8zm6.121094-48h82.445312l5.328125 32h-93.101562zm193.222656 166.238281-70.398438-14.078125c-2.632812-.539062-5.359374.28125-7.261718 2.179688-1.898438 1.902344-2.71875 4.628906-2.179688 7.261718l35.886719 179.4375-47.246094-35.4375c-2.84375-2.136718-6.757812-2.136718-9.601562 0l-86.359375 64.796876-13.078125-52.335938c-.617188-2.484375-2.386719-4.523438-4.761719-5.488281-.953125-.378907-1.972656-.574219-3-.574219-1.5.003906-2.96875.421875-4.238281 1.214844l-48.28125 30.175781 36.359375-181.789063c.539062-2.632812-.28125-5.359374-2.179688-7.261718-1.902344-1.898438-4.628906-2.71875-7.261718-2.179688l-70.398438 14.078125v-69.398437l115.335938 11.542968c.769531.511719 1.570312.976563 2.398437 1.386719 20.855469 13.675781 47.84375 13.636719 68.65625-.097656.773437-.386719 1.523437-.816406 2.25-1.289063l115.359375-11.542968zm0 0"/><path d="m255.902344 190.785156-15.804688 2.429688 3.132813 20.386718-12.796875 2.558594 3.132812 15.679688 12.097656-2.414063 3.777344 24.527344-11.007812 2.207031 3.132812 15.679688 10.304688-2.054688 4.226562 27.429688 15.804688-2.429688-4.328125-28.144531 13.992187-2.800781-3.132812-15.679688-13.289063 2.65625-3.777343-24.527344 12.199218-2.449218-3.132812-15.679688-11.496094 2.296875zm0 0"/></svg>