<svg height="480pt" viewBox="-40 0 480 480" width="480pt" xmlns="http://www.w3.org/2000/svg"><path d="m326.089844 247.480469c8.078125-22.226563 12.191406-45.695313 12.148437-69.34375 0-93.808594-61.972656-170.136719-138.238281-170.136719s-138.238281 76.328125-138.238281 170.136719c-.042969 23.648437 4.070312 47.117187 12.148437 69.34375-38.972656 45.976562-65.910156 108.648437-65.910156 153.992187 0 46.785156 28.414062 70.527344 84.480469 70.527344h215.039062c56.066407 0 84.480469-23.742188 84.480469-70.527344 0-45.34375-26.9375-108.015625-65.910156-153.992187zm0 0" fill="#333"/><path d="m200 40c-53.167969 0-97.871094 51.679688-103.960938 120.207031-.734374 8.464844 8.320313 11.488281 19.753907 15.335938 3.378906 1.0625 6.699219 2.300781 9.949219 3.703125.890624 74.648437 33.195312 132.753906 74.257812 132.753906s73.367188-58.105469 74.257812-132.753906c3.25-1.402344 6.570313-2.640625 9.949219-3.703125 11.433594-3.847657 20.488281-6.871094 19.753907-15.335938-6.089844-68.527343-50.792969-120.207031-103.960938-120.207031zm0 0" fill="#f2f2f2"/><g fill="#333"><path d="m224 202c0 15.472656-5.761719 70-24 70s-24-54.527344-24-70c0-31.007812 12.902344-42 24-42s24 10.992188 24 42zm0 0"/><path d="m174.921875 124.617188c-5.085937 6.746093-12.886719 10.910156-21.320313 11.382812-5.597656.042969-10.914062-2.449219-14.457031-6.785156-2.300781-2.453125-3.398437-5.800782-3-9.144532.800781-4.972656 4.984375-7.582031 9-10.070312 3.449219-1.945312 6.566407-4.421875 9.238281-7.34375 2.605469-3.492188 4.683594-7.347656 6.175782-11.441406 2.28125-5.285156 4.441406-10.328125 9.539062-11.136719 3.410156-.3125 6.726563 1.261719 8.636719 4.105469 8.304687 10.082031 6.625 27.816406-3.8125 40.433594zm0 0"/><path d="m225.078125 124.617188c5.085937 6.746093 12.886719 10.910156 21.320313 11.382812 5.597656.042969 10.914062-2.449219 14.457031-6.785156 2.300781-2.453125 3.398437-5.800782 3-9.144532-.800781-4.972656-4.984375-7.582031-9-10.070312-3.449219-1.945312-6.566407-4.421875-9.238281-7.34375-2.605469-3.492188-4.683594-7.347656-6.175782-11.441406-2.28125-5.285156-4.441406-10.328125-9.539062-11.136719-3.410156-.3125-6.726563 1.261719-8.636719 4.105469-8.304687 10.082031-6.625 27.816406 3.8125 40.433594zm0 0"/></g><path d="m109.304688 175.535156c3.199218 1.050782 8 2.640625 10.710937 3.863282.976563 79.113281 35.761719 140.601562 79.984375 140.601562s79.007812-61.488281 80-140.601562c2.726562-1.222657 7.542969-2.8125 10.710938-3.863282 12.335937-4.085937 22.082031-7.3125 21.273437-16.253906-6.542969-72.5625-54.679687-127.28125-111.984375-127.28125s-105.441406 54.71875-112 127.28125c-.800781 8.941406 8.96875 12.167969 21.304688 16.253906zm90.695312-127.535156c47.960938 0 88.550781 46.496094 95.632812 108.800781-2.730468 1.160157-7.066406 2.589844-9.96875 3.550781-12.574218 4.152344-21.664062 7.160157-21.664062 15.648438 0 69.382812-29.3125 128-64 128s-64-58.617188-64-128c0-8.488281-9.089844-11.496094-21.664062-15.65625-2.902344-.960938-7.238282-2.398438-9.96875-3.550781 7.082031-62.296875 47.671874-108.792969 95.632812-108.792969zm0 0"/><path d="m168 200c0 17.601562 7.664062 80 32 80s32-62.398438 32-80c0-35.433594-17.238281-48-32-48s-32 12.566406-32 48zm32-32c9.601562 0 16 12.855469 16 32 0 26.816406-9.9375 58.832031-16 63.6875-6.0625-4.855469-16-36.871094-16-63.6875 0-19.144531 6.398438-32 16-32zm0 0"/><path d="m331.34375 247.726562c8.421875-22.972656 12.707031-47.257812 12.65625-71.726562 0-97.046875-64.601562-176-144-176s-144 78.953125-144 176c-.050781 24.46875 4.234375 48.753906 12.65625 71.726562-40.558594 47.5625-68.65625 112.410157-68.65625 159.3125 0 48.417969 29.601562 72.960938 88 72.960938h224c58.398438 0 88-24.542969 88-72.960938 0-46.902343-28.097656-111.75-68.65625-159.3125zm-131.34375-231.726562c70.574219 0 128 71.777344 128 160 .125 24.121094-4.332031 48.050781-13.128906 70.511719-21.679688 55.199219-65.703125 89.488281-114.871094 89.488281s-93.191406-34.289062-114.878906-89.503906c-8.792969-22.457032-13.246094-46.378906-13.121094-70.496094 0-88.222656 57.425781-160 128-160zm112 448h-224c-49.792969 0-72-17.601562-72-56.960938 0-41.382812 24.054688-98.398437 59.472656-142.542968.046875.105468.152344.238281.207032.359375 25.695312 54.082031 72.320312 87.144531 124.320312 87.144531s98.710938-33.121094 124.382812-87.28125c0-.078125.105469-.144531.144532-.222656 35.417968 44.113281 59.472656 101.160156 59.472656 142.542968 0 39.359376-22.207031 56.960938-72 56.960938zm0 0"/><path d="m248.574219 144c7.402343.089844 14.464843-3.105469 19.28125-8.726562 3.050781-3.097657 4.519531-7.414063 4-11.730469-1.039063-6.398438-6.617188-9.742188-12-12.984375-4.59375-2.457032-8.757813-5.644532-12.328125-9.4375-3.453125-4.484375-6.242188-9.441406-8.28125-14.722656-3.023438-6.839844-5.871094-13.300782-12.671875-14.308594-4.515625-.441406-8.921875 1.566406-11.558594 5.261718-11.0625 12.914063-8.800781 35.726563 5.089844 52 6.917969 8.777344 17.304687 14.121094 28.46875 14.648438zm-23.933594-51.039062c2.628906 6.6875 6.242187 12.945312 10.71875 18.566406 4.671875 5.117187 10.164063 9.425781 16.25 12.746094.894531.542968 1.949219 1.175781 2.886719 1.773437-5.34375 4.289063-15.265625 1.015625-22.25-7.125-6.410156-7.015625-9.214844-16.597656-7.605469-25.960937zm0 0"/><path d="m151.425781 144c11.164063-.53125 21.554688-5.878906 28.46875-14.664062 13.921875-16.230469 16.152344-39.046876 5.089844-52-2.628906-3.703126-7.042969-5.714844-11.558594-5.265626-6.800781 1.007813-9.648437 7.472657-12.671875 14.3125-2.035156 5.273438-4.820312 10.222657-8.265625 14.695313-3.570312 3.796875-7.734375 6.984375-12.328125 9.441406-5.390625 3.242188-10.96875 6.585938-12 12.984375-.519531 4.3125.953125 8.632813 4 11.726563 4.804688 5.632812 11.859375 8.84375 19.265625 8.769531zm-3.035156-19.726562c6.085937-3.320313 11.578125-7.628907 16.25-12.746094 4.476563-5.621094 8.089844-11.878906 10.71875-18.566406 1.609375 9.363281-1.195313 18.945312-7.605469 25.960937-6.984375 8.140625-16.914062 11.414063-22.25 7.125.9375-.597656 1.992188-1.246094 2.886719-1.773437zm0 0"/></svg>