<svg height="480pt" viewBox="-56 0 480 480" width="480pt" xmlns="http://www.w3.org/2000/svg"><path d="m310.265625 133.601562c-1.425781 1.527344-3.421875 2.394532-5.511719 2.398438-.972656-.007812-1.929687-.191406-2.832031-.542969-42.402344-16.921875-127.609375-28.160156-222.402344-29.175781-3.847656.097656-7.058593-2.921875-7.199219-6.769531v-60.726563c.019532-1.855468.808594-3.621094 2.175782-4.875 1.433594-1.320312 3.339844-2.007812 5.289062-1.910156 105.261719 3.128906 195.941406 40 231.136719 93.710938 1.625 2.464843 1.355469 5.726562-.65625 7.890624zm0 0" fill="#b3b3b3"/><path d="m72 15.710938v408.578124c0 4.238282-2.398438 7.710938-5.335938 7.710938h-21.328124c-2.9375 0-5.335938-3.472656-5.335938-7.710938v-408.578124c0-4.238282 2.398438-7.710938 5.335938-7.710938h21.328124c2.9375 0 5.335938 3.472656 5.335938 7.710938zm0 0" fill="#333"/><path d="m360 464.382812c-.023438 4.214844-3.441406 7.617188-7.65625 7.617188h-320.34375c-6.40625.136719-12.589844-2.347656-17.121094-6.878906s-7.015625-10.714844-6.878906-17.121094c0-16 24-16 24-16h88c7.425781-39.390625 31.441406-87.390625 55.320312-111.199219-9.296874-16.667969-14.097656-35.46875-13.929687-54.554687 0-52.839844 28.730469-114.246094 76.210937-114.246094 47.476563 0 84.167969 61.40625 84.167969 114.289062.164063 19.082032-4.632812 37.878907-13.921875 54.550782 32.792969 32.679687 52.152344 85.710937 52.152344 143.542968zm0 0" fill="#333"/><path d="m192 241.921875c.917969 7.875 4.953125 15.058594 11.199219 19.941406 2.113281 1.371094 4.578125 2.113281 7.097656 2.136719 1.113281-.011719 2.222656-.152344 3.304687-.425781 3.800782-1.058594 6.964844-3.703125 8.6875-7.253907 3.566407-6.910156 1.5-15.394531-4.847656-19.886718-5.417968-3.496094-11.910156-4.914063-18.289062-4-2.636719.621094-4.863282 2.378906-6.082032 4.796875-.726562 1.457031-1.09375 3.0625-1.070312 4.691406zm0 0" fill="#ffcc5c"/><path d="m288 241.921875c-.917969 7.875-4.949219 15.058594-11.199219 19.941406-2.113281 1.375-4.570312 2.113281-7.089843 2.136719-1.113282-.011719-2.222657-.152344-3.304688-.425781-3.800781-1.058594-6.964844-3.703125-8.6875-7.253907-3.566406-6.910156-1.5-15.394531 4.847656-19.886718 5.417969-3.496094 11.910156-4.914063 18.289063-4 2.636719.621094 4.863281 2.378906 6.082031 4.796875.722656 1.457031 1.089844 3.0625 1.0625 4.691406zm0 0" fill="#ffcc5c"/><path d="m200.800781 268.800781c3.15625 2.089844 6.859375 3.203125 10.648438 3.199219 1.664062 0 3.320312-.214844 4.925781-.648438 5.714844-1.601562 10.472656-5.5625 13.089844-10.886718 5.34375-10.367188 2.21875-23.089844-7.320313-29.800782-8.101562-5.273437-17.847656-7.402343-27.410156-5.992187-3.953125.921875-7.304687 3.535156-9.167969 7.144531-6.238281 12.34375 7.699219 31.96875 15.234375 36.984375zm12.535157-24.800781c2.714843 2.25 3.480468 6.09375 1.839843 9.214844-.554687 1.253906-1.613281 2.214844-2.910156 2.648437-.90625.230469-1.871094.050781-2.632813-.488281-4.582031-4.148438-7.90625-9.496094-9.601562-15.4375 4.675781.375 9.214844 1.761719 13.304688 4.0625zm0 0"/><path d="m263.625 271.359375c1.605469.433594 3.261719.648437 4.925781.648437 3.789063 0 7.492188-1.117187 10.648438-3.207031 7.5625-4.984375 21.496093-24.609375 15.257812-36.945312-1.863281-3.609375-5.214843-6.21875-9.167969-7.144531-9.566406-1.40625-19.3125.722656-27.417968 5.992187-9.53125 6.714844-12.652344 19.433594-7.3125 29.800781 2.621094 5.308594 7.367187 9.253906 13.066406 10.855469zm3.03125-27.328125c3.996094-2.34375 8.488281-3.726562 13.113281-4.03125h.160157c-1.695313 5.941406-5.019532 11.292969-9.601563 15.441406-.757813.546875-1.726563.726563-2.632813.488282-1.300781-.433594-2.355468-1.394532-2.910156-2.648438-1.667968-3.144531-.882812-7.027344 1.871094-9.28125zm0 0"/><path d="m200 312h16c0-1.992188 8.511719-8 24-8s24 6.007812 24 8h16c0-13.679688-17.191406-24-40-24s-40 10.320312-40 24zm0 0"/><path d="m313.398438 321.304688c9.714843-17.527344 14.746093-37.265626 14.601562-57.304688 0-55.496094-38.398438-120-88-120s-88 64.503906-88 120c-.140625 20.011719 4.875 39.726562 14.558594 57.238281-26.5625 28.507813-44.027344 64.285157-50.167969 102.761719h-36.390625v-311.769531c101.265625 1.808593 191.648438 14.808593 237.167969 34.320312.996093.429688 2.066406.652344 3.152343.648438 2.890626 0 5.558594-1.558594 6.972657-4.082031 1.417969-2.519532 1.363281-5.609376-.140625-8.078126-37.921875-62.128906-134.425782-104.941406-247.152344-110.296874v-16.742188c0-4.417969-3.582031-8-8-8h-32c-4.417969 0-8 3.582031-8 8v416h-4c-15.464844 0-28 12.535156-28 28s12.535156 28 28 28h332c4.417969 0 8-3.582031 8-8 0-60.664062-20.351562-116.328125-54.601562-150.695312zm-73.398438-161.304688c39.878906 0 72 56.886719 72 104 .207031 19.183594-5.132812 38.019531-15.375 54.238281-11.765625 20.292969-33.179688 33.0625-56.625 33.761719-23.453125-.703125-44.875-13.476562-56.640625-33.777344-10.234375-16.21875-15.566406-35.046875-15.359375-54.222656 0-47.113281 32.121094-104 72-104zm57.910156-37.191406c-51.199218-15.199219-130.796875-25.074219-217.910156-26.617188v-55.542968c93.953125 4.582031 175.503906 35.765624 217.910156 82.160156zm-249.910156-106.808594h16v408h-16zm-20 448c-6.628906 0-12-5.371094-12-12s5.371094-12 12-12h85.960938c-.949219 7.871094-1.546876 15.871094-1.785157 24zm100.128906 0c1.597656-52 18.960938-99.113281 47.414063-129.160156.097656.121094.191406.152344.289062.265625 14.847657 20.664062 38.734375 32.917969 64.179688 32.917969 25.445312 0 49.335937-12.253907 64.179687-32.917969.089844-.097657.175782-.113281.265625-.226563 28.453125 30.007813 45.800781 77.121094 47.414063 129.121094zm0 0"/></svg>