<svg height="480pt" viewBox="0 0 480 480.24099" width="480pt" xmlns="http://www.w3.org/2000/svg"><g fill="#ccc"><path d="m472.113281 396.425781c.023438 8.648438-3.433593 16.945313-9.597656 23.015625-8.136719 8.023438-19.046875 12.605469-30.472656 12.800782-.230469 11.363281-4.878907 22.195312-12.960938 30.191406-12.847656 12.722656-33.546875 12.722656-46.398437 0-6.191406-6.054688-9.691406-14.34375-9.703125-23.003906-.015625-8.65625 3.457031-16.957032 9.628906-23.027344l2.457031-2.402344-52.800781-52.273438c-1.332031-1.339843-2.101563-3.140624-2.152344-5.03125v-7.199218c0-1.917969.765625-3.753906 2.125-5.105469s3.199219-2.105469 5.117188-2.09375h7.238281c9.082031-.023437 17.640625-4.261719 23.160156-11.472656 1.273438-1.664063 3.191406-2.707031 5.28125-2.871094 2.089844-.125 4.136719.628906 5.648438 2.078125l45.527344 45.175781 1.808593-1.863281c6.164063-6.125 14.507813-9.554688 23.199219-9.535156h.097656c8.710938-.0625 17.078125 3.398437 23.199219 9.601562 6.1875 6.050782 9.652344 14.359375 9.597656 23.015625zm0 0"/><path d="m8.113281 396.425781c-.019531 8.648438 3.4375 16.945313 9.601563 23.015625 8.136718 8.023438 19.046875 12.605469 30.472656 12.800782.230469 11.363281 4.878906 22.195312 12.960938 30.191406 12.847656 12.722656 33.546874 12.722656 46.398437 0 6.191406-6.054688 9.691406-14.34375 9.703125-23.003906.015625-8.65625-3.457031-16.957032-9.632812-23.027344l-2.453126-2.402344 52.839844-52.273438c1.316406-1.347656 2.074219-3.144531 2.109375-5.03125v-7.199218c0-1.917969-.761719-3.753906-2.121093-5.105469-1.359376-1.351563-3.199219-2.105469-5.117188-2.09375h-7.199219c-9.070312-.007813-17.625-4.222656-23.160156-11.410156-1.273437-1.660157-3.191406-2.707031-5.28125-2.871094-2.089844-.125-4.136719.628906-5.648437 2.082031l-45.527344 45.175782-1.808594-1.863282c-6.164062-6.128906-14.507812-9.558594-23.199219-9.539062h-.136719c-8.710937-.0625-17.078124 3.402344-23.199218 9.601562-6.171875 6.039063-9.636719 14.316406-9.601563 22.953125zm0 0"/><path d="m471.875 80.914062c-.023438 8.355469-3.441406 16.347657-9.472656 22.132813-12.777344 12.234375-32.910156 12.265625-45.726563.074219l-2.351562-2.351563-42.402344 41.222657c-1.359375 1.300781-3.171875 2.019531-5.054687 2.007812-.402344.011719-.808594-.011719-1.207032-.070312-2.257812-.375-4.195312-1.816407-5.199218-3.875-5.65625-11.335938-13.1875-21.632813-22.28125-30.453126-1.320313-1.292968-2.066407-3.0625-2.066407-4.910156s.746094-3.617187 2.066407-4.90625l37.597656-36.457031-1.839844-1.726563c-6.0625-5.800781-9.484375-13.832031-9.472656-22.21875.015625-8.390624 3.464844-16.410156 9.546875-22.191406 12.746093-12.265625 32.910156-12.265625 45.65625 0 7.921875 7.648438 12.503906 18.113282 12.75 29.121094 11.203125.183594 21.917969 4.609375 29.984375 12.382812 6.054687 5.804688 9.476562 13.828126 9.472656 22.21875zm0 0"/><path d="m8.113281 80.914062c.023438 8.355469 3.445313 16.347657 9.472657 22.132813 12.777343 12.234375 32.914062 12.265625 45.730468.074219l2.351563-2.351563 42.398437 41.222657c1.359375 1.300781 3.175782 2.019531 5.054688 2.007812.40625.011719.808594-.011719 1.210937-.070312 2.257813-.375 4.195313-1.816407 5.199219-3.875 5.652344-11.335938 13.183594-21.632813 22.28125-30.453126 1.320312-1.292968 2.0625-3.0625 2.0625-4.910156s-.742188-3.617187-2.0625-4.90625l-37.601562-36.457031 1.847656-1.734375c6.0625-5.800781 9.484375-13.832031 9.472656-22.222656-.011719-8.386719-3.460938-16.40625-9.542969-22.1875-12.746093-12.265625-32.910156-12.265625-45.65625 0-7.929687 7.648437-12.519531 18.121094-12.761719 29.136718-11.203124.183594-21.917968 4.609376-29.984374 12.382813-6.050782 5.800781-9.472657 13.824219-9.472657 22.210937zm0 0"/></g><path d="m360.019531 274.402344c9.929688 13.90625 11.3125 32.179687 3.582031 47.421875-7.734374 15.242187-23.292968 24.925781-40.382812 25.128906v22.902344c.078125 20.953125-16.816406 38.015625-37.769531 38.144531h-90.671875c-20.96875-.121094-37.875-17.210938-37.773438-38.183594v-22.902344c-17.089844-.203124-32.652344-9.886718-40.382812-25.128906-7.730469-15.242187-6.351563-33.515625 3.582031-47.425781-10.570313-20-16.09375-42.28125-16.089844-64.902344 0-75.113281 60.890625-136 136-136 75.113281 0 136 60.886719 136 136 .011719 22.636719-5.515625 44.929688-16.09375 64.945313zm0 0" fill="#b3b3b3"/><path d="m200.113281 184c0 13.253906-10.742187 24-24 24-13.253906 0-24-10.746094-24-24s10.746094-24 24-24c13.257813 0 24 10.746094 24 24zm0 0" fill="#333"/><path d="m328.113281 184c0 13.253906-10.742187 24-24 24-13.253906 0-24-10.746094-24-24s10.746094-24 24-24c13.257813 0 24 10.746094 24 24zm0 0" fill="#333"/><path d="m270.820312 285.496094c-1.570312 2.011718-4.171874 2.914062-6.648437 2.3125l-24.058594-5.871094-24.054687 5.871094c-2.476563.605468-5.082032-.296875-6.648438-2.3125-1.542968-1.980469-1.722656-4.707032-.445312-6.871094l25.597656-43.71875c1.269531-1.820312 3.351562-2.902344 5.570312-2.902344s4.296876 1.082032 5.566407 2.902344l25.601562 43.71875c1.261719 2.171875 1.074219 4.894531-.480469 6.871094zm0 0" fill="#333"/><path d="m176.113281 152c-17.671875 0-32 14.328125-32 32s14.328125 32 32 32c17.675781 0 32-14.328125 32-32s-14.324219-32-32-32zm0 48c-8.835937 0-16-7.164062-16-16s7.164063-16 16-16c8.839844 0 16 7.164062 16 16s-7.160156 16-16 16zm0 0"/><path d="m304.113281 152c-17.671875 0-32 14.328125-32 32s14.328125 32 32 32c17.675781 0 32-14.328125 32-32s-14.324219-32-32-32zm0 48c-8.835937 0-16-7.164062-16-16s7.164063-16 16-16c8.839844 0 16 7.164062 16 16s-7.160156 16-16 16zm0 0"/><path d="m247.058594 228c-1.539063-2.332031-4.148438-3.738281-6.945313-3.738281-2.792969 0-5.402343 1.40625-6.941406 3.738281l-32 56c-1.585937 2.78125-1.363281 6.242188.570313 8.792969 1.933593 2.554687 5.203124 3.707031 8.308593 2.933593l30.0625-7.476562 30.066407 7.511719c3.105468.773437 6.375-.382813 8.308593-2.933594 1.933594-2.554687 2.15625-6.015625.570313-8.796875zm-5.007813 44.207031c-1.269531-.320312-2.601562-.320312-3.871093 0l-13.816407 3.449219 15.75-27.527344 15.753907 27.558594zm0 0"/><path d="m443.890625 359.335938h-.0625c-9.648437-.011719-18.898437 3.835937-25.6875 10.6875l-2.027344 2.023437-45.597656-45.597656c8.53125-16.132813 7.175781-35.710938-3.496094-50.511719 20.835938-38.757812 22.6875-84.949219 5.015625-125.25l43.40625-43.40625 2.664063 2.664062c14.171875 14.167969 37.144531 14.167969 51.3125 0 14.171875-14.171874 14.171875-37.144531 0-51.3125-8.929688-8.972656-21.003907-14.113281-33.664063-14.328124-.210937-12.664063-5.355468-24.742188-14.335937-33.671876-14.167969-14.167968-37.140625-14.167968-51.3125 0-14.167969 14.167969-14.167969 37.140626 0 51.3125l2.027343 2.023438-36.503906 36.496094c-54.535156-48.777344-137.050781-48.644532-191.425781.304687l-36.488281-36.480469 2.398437-2.402343c10.308594-10.394531 13.363281-25.964844 7.753907-39.488281-5.613282-13.519532-18.792969-22.351563-33.433594-22.398438-9.617188-.046875-18.847656 3.789062-25.597656 10.640625-9.039063 8.902344-14.210938 21.003906-14.402344 33.6875-12.640625.179687-24.703125 5.3125-33.597656 14.296875-6.839844 6.792969-10.6875 16.035156-10.6875 25.675781s3.847656 18.882813 10.6875 25.675781c14.195312 14.105469 37.113281 14.105469 51.3125 0l2.34375-2.34375 43.488281 43.566407c-17.484375 40.199219-15.566407 86.195312 5.199219 124.800781-10.652344 14.804688-11.992188 34.363281-3.464844 50.480469l-45.601563 45.601562-2.023437-2.027343c-6.789063-6.847657-16.039063-10.699219-25.6875-10.6875h-.0625c-14.675782.035156-27.886719 8.902343-33.480469 22.46875-5.589844 13.566406-2.46875 29.167968 7.917969 39.53125 8.929687 8.980468 21.003906 14.125 33.664062 14.335937.226563 12.660156 5.367188 24.730469 14.335938 33.664063 14.171875 14.171874 37.144531 14.171874 51.3125 0 14.171875-14.167969 14.171875-37.140626 0-51.3125l-2.664063-2.664063 44.6875-44.71875v5.328125c.027344 22.082031 17.921875 39.972656 40 40h96c22.082031-.027344 39.976563-17.917969 40-40v-5.328125l44.691407 44.6875-2.664063 2.65625c-9.335937 9.132813-13.042969 22.574219-9.707031 35.199219 3.332031 12.625 13.191406 22.488281 25.816406 25.824218 12.625 3.332032 26.066406-.371093 35.199219-9.703124 8.972656-8.933594 14.113281-21.007813 14.335937-33.664063 12.660156-.210937 24.738282-5.355469 33.664063-14.335937 10.347656-10.378907 13.445312-25.957032 7.859375-39.507813-5.585938-13.550781-18.761719-22.417969-33.417969-22.492187zm-54.757813-289.679688c3.121094-3.125 3.121094-8.1875 0-11.3125l-7.683593-7.679688c-3.835938-3.792968-5.996094-8.964843-5.996094-14.363281 0-5.398437 2.160156-10.570312 5.996094-14.363281 8.007812-7.683594 20.644531-7.683594 28.648437 0 6.226563 6.167969 9.71875 14.578125 9.699219 23.34375v7.039062c0 4.417969 3.578125 8 8 8h6.957031c8.773438-.035156 17.195313 3.445313 23.386719 9.664063 3.824219 3.789063 5.976563 8.949219 5.972656 14.335937-.019531 8.203126-4.96875 15.589844-12.546875 18.726563-7.582031 3.136719-16.304687 1.410156-22.117187-4.382813l-8.316407-8.320312c-3.125-3.121094-8.191406-3.121094-11.3125 0l-45.601562 45.601562c-4.964844-8.574218-10.796875-16.617187-17.40625-24zm-324.699218 18.664062c-2.121094 0-4.15625.84375-5.65625 2.34375l-8 8c-5.808594 5.792969-14.53125 7.519532-22.113282 4.382813-7.578124-3.136719-12.53125-10.523437-12.550781-18.726563-.027343-5.414062 2.140625-10.609374 6.007813-14.398437 6.152344-6.203125 14.542968-9.660156 23.273437-9.601563h7.039063c4.417968 0 8-3.582031 8-8v-7.039062c-.042969-8.769531 3.453125-17.1875 9.699218-23.34375 8.011719-7.675781 20.65625-7.65625 28.644532.046875 3.828125 3.789063 5.980468 8.949219 5.976562 14.335937-.023437 5.382813-2.171875 10.535157-5.976562 14.34375l-8 8c-3.121094 3.125-3.121094 8.1875 0 11.3125l42.019531 42.023438c-6.609375 7.382812-12.445313 15.425781-17.410156 24l-45.296875-45.304688c-1.492188-1.511718-3.527344-2.367187-5.65625-2.375zm26.027344 321.382813c-3.125 3.125-3.125 8.1875 0 11.3125l8.316406 8.320313c3.828125 3.792968 5.980468 8.957031 5.976562 14.34375-.019531 5.363281-2.152344 10.5-5.933594 14.304687-8.003906 7.746094-20.707031 7.765625-28.730468.039063-6.207032-6.191407-9.6875-14.613282-9.65625-23.382813v-6.960937c0-4.417969-3.582032-8-8-8h-7.039063c-8.742187.015624-17.132812-3.457032-23.304687-9.65625-3.824219-3.792969-5.972656-8.957032-5.976563-14.34375.066407-11.171876 9.082031-20.230469 20.257813-20.34375 5.410156-.003907 10.59375 2.15625 14.398437 6l7.679688 7.679687c3.125 3.125 8.191406 3.125 11.3125 0l50.113281-50.109375c8.03125 7.242188 18.253906 11.585938 29.039062 12.34375zm101.652343-9.703125c-13.253906 0-24-10.746094-24-24v-24h-.125c0-.214844.125-.414062.125-.640625v-8c0-4.417969-3.578125-8-8-8h-8c-10.0625-.035156-19.53125-4.769531-25.597656-12.800781-.28125-.289063-.582031-.554688-.90625-.796875-3.582031-5.230469-5.5-11.421875-5.496094-17.761719-.003906-8.070312 3.058594-15.84375 8.570313-21.742188 2.417968-2.597656 2.839844-6.476562 1.03125-9.53125-21.503906-36.675781-23.417969-81.628906-5.105469-120 17.753906-37.121093 52.28125-63.441406 92.78125-70.71875 40.5-7.277343 82.03125 5.371094 111.597656 33.992188.269531.527344.601563 1.023438.984375 1.480469 10.269532 10.25 18.726563 22.167969 25.007813 35.246093.355469.589844.789062 1.128907 1.285156 1.601563 17.625 38.019531 15.476563 82.269531-5.75 118.398437-1.808594 3.054688-1.386719 6.933594 1.03125 9.53125 5.511719 5.898438 8.574219 13.671876 8.566406 21.742188.007813 6.339844-1.902343 12.535156-5.484375 17.769531-.324218.242188-.625.507813-.90625.800781-6.066406 8.027344-15.535156 12.761719-25.601562 12.796876h-8.007813c-4.417969 0-8 3.582031-8 8v8c0 .226562.113281.425781.128907.640624h-.128907v24c0 13.253907-10.742187 24-24 24zm266.027344 10.023438c-6.171875 6.199218-14.5625 9.671874-23.304687 9.65625h-7.039063c-4.421875 0-8 3.582031-8 8v6.960937c.035156 8.769531-3.445313 17.1875-9.65625 23.375-8.003906 7.671875-20.621094 7.691406-28.648437.046875-3.832032-3.8125-5.996094-8.992188-6.015626-14.398438-.003906-5.386718 2.148438-10.550781 5.972657-14.34375l8.320312-8.320312c3.125-3.125 3.125-8.1875 0-11.3125l-58.453125-58.4375c10.78125-.757812 21.003906-5.105469 29.03125-12.34375l50.113282 50.109375c3.121093 3.125 8.1875 3.125 11.308593 0l7.679688-7.679687c3.804687-3.84375 8.992187-6.003907 14.402343-6 8.210938.019531 15.597657 4.984374 18.726563 12.574218 3.125 7.59375 1.371094 16.320313-4.445313 22.113282zm0 0"/><path d="m296.113281 336h-16v-16h-16v16h-16v-16h-16v16h-16v-16h-16v16h-16v16h16v16h16v-16h16v16h16v-16h16v16h16v-16h16zm0 0"/></svg>