<svg height="480pt" viewBox="-58 0 480 480" width="480pt" xmlns="http://www.w3.org/2000/svg"><path d="m262.472656 112c0-57.4375-35.816406-104-80-104s-80 46.5625-80 104 35.816406 104 80 104 80-46.5625 80-104zm0 0" fill="#333"/><path d="m230.472656 224c0-30.929688-21.492187-56-48-56-26.511718 0-48 25.070312-48 56s21.488282 56 48 56c26.507813 0 48-25.070312 48-56zm0 0" fill="#4d4d4d"/><path d="m214.472656 288c0 17.671875-14.328125 32-32 32s-32-14.328125-32-32 14.328125-32 32-32 32 14.328125 32 32zm0 0" fill="#4d4d4d"/><path d="m281 248.40625-43.289062-14.398438c.128906-.953124.289062-1.902343.386718-2.863281l57.367188-7.199219c2.1875-.265624 4.171875-1.425781 5.480468-3.203124l64-88-12.945312-9.40625-61.960938 85.199218-52.183593 6.519532c-.070313-.621094-.175781-1.246094-.269531-1.863282l52.886718-30.246094c1.921875-1.097656 3.304688-2.945312 3.816406-5.097656l40-168-15.570312-3.695312-39.199219 164.625-34.398437 19.65625c16.84375-22.644532 25.757812-50.210938 25.351562-78.433594 0-61.761719-39.480468-112-88-112-48.519531 0-88 50.238281-88 112-.394531 28.246094 8.550782 55.832031 25.449219 78.472656l-34.472656-19.695312-39.203125-164.625-15.566406 3.695312 40 168c.511718 2.152344 1.894531 4 3.816406 5.097656l52.855468 30.207032c-.085937.617187-.199218 1.238281-.273437 1.863281l-52.183594-6.519531-61.957031-85.199219-12.9375 9.40625 64 88c1.308594 1.777344 3.289062 2.933594 5.480469 3.199219l57.367187 7.203125c.097656.957031.257813 1.910156.382813 2.863281l-43.285157 14.398438c-1.179687.394531-2.25 1.058593-3.128906 1.9375l-64 64 11.3125 11.3125 62.664063-62.664063 40.40625-13.464844c.617187 1.601563 1.234375 3.253907 1.960937 4.800781l-76.609375 84.328126c-1.339843 1.472656-2.078125 3.390624-2.078125 5.382812v136h16v-132.902344l71.632813-78.792968c1.167969 1.398437 2.351562 2.792968 3.636719 4.070312-4.644532 10.695312-4.328126 22.898438.867187 33.335938-7.84375 9.960937-12.097656 22.269531-12.082031 34.945312 1.019531 13.457031 7.957031 25.765625 18.945312 33.601562l10-12.496093c-7.359375-4.984375-12.125-12.980469-13-21.824219-.007812-7.542969 2.265625-14.914062 6.527344-21.136719 14.742188 12.265625 36.136719 12.265625 50.878906 0 4.285156 6.214844 6.585938 13.585938 6.59375 21.136719-.871094 8.835938-5.625 16.828125-12.96875 21.816406l10 12.492188c10.984375-7.832032 17.925782-20.144532 18.945313-33.597656.015625-12.679688-4.238281-24.992188-12.082031-34.953126 5.195312-10.433593 5.511718-22.628906.863281-33.320312 1.289062-1.285156 2.472656-2.671875 3.648437-4.070312l71.59375 78.792968v132.902344h16v-136c0-1.992188-.742187-3.910156-2.082031-5.382812l-76.605469-84.273438c.734375-1.601562 1.34375-3.199219 1.96875-4.800781l40.398438 13.464843 62.664062 62.664063 11.3125-11.3125-64-64c-.878906-.882813-1.949218-1.554687-3.128906-1.953125zm-76.617188 15.816406c-12.816406 10.144532-30.917968 10.164063-43.757812.050782-11.839844-9.984376-18.515625-24.792969-18.152344-40.273438-.039062-7.351562 1.414063-14.632812 4.261719-21.40625 5.363281-15.335938 19.511719-25.863281 35.738281-26.59375 16.246094.734375 30.40625 11.289062 35.75 26.648438 2.84375 6.757812 4.289063 14.019531 4.25 21.351562.363282 15.453125-6.285156 30.242188-18.089844 40.222656zm-21.910156-248.222656c39.703125 0 72 43.0625 72 96 .671875 27.277344-8.84375 53.824219-26.695312 74.457031-.394532-.625-.855469-1.089843-1.265625-1.664062-9.667969-15.050781-26.160157-24.332031-44.039063-24.792969-17.933594.460938-34.46875 9.796875-44.128906 24.910156-.382812.546875-.800781.96875-1.175781 1.546875-17.851563-20.632812-27.371094-47.179687-26.695313-74.457031 0-52.9375 32.296875-96 72-96zm0 296c-7.824218.003906-15.15625-3.816406-19.632812-10.230469-2.859375-4.023437-4.386719-8.835937-4.367188-13.769531 0-1.9375.238282-3.863281.703125-5.742188.332031.140626.675781.261719 1.023438.359376 13.957031 7.15625 30.503906 7.15625 44.457031 0 .375-.113282.746094-.242188 1.113281-.394532 1.773438 7.167969.15625 14.75-4.394531 20.566406-4.546875 5.8125-11.519531 9.210938-18.902344 9.210938zm0 0"/></svg>