<svg height="480pt" viewBox="0 0 480 480" width="480pt" xmlns="http://www.w3.org/2000/svg"><path d="m240 32c0 23.542969-92.238281 48.230469-104 27.839844 11.761719 20.390625-55.769531 87.921875-76.160156 76.160156 20.390625 11.761719-4.296875 104-27.839844 104 23.542969 0 48.230469 92.238281 27.839844 104 20.390625-11.777344 87.9375 55.71875 76.160156 76.113281 11.777344-20.394531 104 4.328125 104 27.871094 0-23.542969 92.238281-48.230469 104-27.839844-11.761719-20.375 55.769531-87.90625 76.160156-76.144531-20.390625-11.777344 4.296875-104 27.839844-104-23.542969 0-48.230469-92.238281-27.839844-104-20.390625 11.761719-87.921875-55.769531-76.160156-76.160156-11.761719 20.390625-104-4.296875-104-27.839844zm0 0" fill="#afe2ef"/><path d="m425.335938 289.601562c7.464843-27.699218 18.535156-41.601562 22.664062-41.601562h32v-16h-32c-4.128906 0-15.199219-13.902344-22.664062-41.601562-7.464844-27.695313-4.761719-45.382813-1.175782-47.453126l27.6875-16-8-13.855468-27.6875 16c-3.566406 2.109375-20.175781-4.433594-40.480468-24.738282-20.304688-20.304687-26.808594-36.894531-24.734376-40.480468l16-27.6875-13.855468-8-16 27.6875c-2.066406 3.585937-19.699219 6.257812-47.457032-1.175782-27.761718-7.429687-41.632812-18.566406-41.632812-22.695312v-32h-16v32c0 4.128906-13.902344 15.199219-41.601562 22.664062-27.695313 7.464844-45.390626 4.800782-47.453126 1.175782l-16-27.6875-13.855468 8 16 27.6875c2.070312 3.585937-4.433594 20.167968-24.738282 40.480468-20.304687 20.3125-36.886718 26.878907-40.511718 24.734376l-27.6875-16-8 13.855468 27.6875 16c3.585937 2.074219 6.257812 19.699219-1.175782 47.457032-7.433593 27.761718-18.535156 41.632812-22.664062 41.632812h-32v16h32c4.128906 0 15.199219 13.902344 22.65625 41.601562 7.457031 27.695313 4.800781 45.398438 1.175781 47.46875l-27.6875 16 8 13.859376 27.6875-16c3.59375-2.074219 20.199219 4.4375 40.519531 24.757812 20.320313 20.320312 26.777344 36.847656 24.710938 40.425781l-16 27.710938 13.859375 8 16-27.710938c2.070313-3.578125 19.679687-6.242187 47.398437 1.191407 27.71875 7.429687 41.679688 18.558593 41.679688 22.695312v32h16v-32c0-4.128906 13.902344-15.199219 41.601562-22.664062 27.695313-7.464844 45.390626-4.761719 47.453126-1.175782l16 27.6875 13.855468-8-16-27.6875c-2.070312-3.585937 4.433594-20.167968 24.738282-40.480468 20.304687-20.3125 36.902343-26.808594 40.480468-24.734376l27.6875 16 8-13.855468-27.6875-16c-3.554687-2.082032-6.226562-19.707032 1.207032-47.488282zm-15.449219-95.082031c3.402343 13.1875 8.695312 25.8125 15.714843 37.480469h-33.402343c-2.589844-.800781-9.726563-10.304688-14.6875-28.855469-4.960938-18.550781-3.511719-30.449219-1.855469-32.222656l29.097656-16.800781c-.25 13.644531 1.480469 27.25 5.132813 40.398437zm-291.957031 78.144531c-2.257813-8.578124-5.527344-16.859374-9.746094-24.664062h34.753906c6.671875 9.878906 9.835938 21.710938 8.992188 33.601562l-30.097657 17.375c-.25-8.894531-1.558593-17.730468-3.902343-26.3125zm196.316406-52.535156c1.113281 4.0625 2.539062 8.03125 4.265625 11.871094h-48.65625l42.144531-24.328125c.421875 4.203125 1.175781 8.367187 2.246094 12.457031zm-128.582032 74.207032c-3.003906-2.964844-6.234374-5.691407-9.664062-8.152344l42.128906-24.320313-24.3125 42.136719c-2.460937-3.410156-5.1875-6.621094-8.152344-9.601562zm-19.894531-34.488282c-1.121093-4.054687-2.550781-8.015625-4.28125-11.847656h48.65625l-42.144531 24.328125c-.421875-4.203125-1.175781-8.363281-2.246094-12.449219zm120.421875-83.847656c2.480469 3.425781 5.226563 6.65625 8.207032 9.65625 2.984374 2.964844 6.195312 5.6875 9.601562 8.152344l-42.144531 24.335937zm-38.191406 34.136719v-48.648438c7.691406 3.503907 15.914062 5.703125 24.328125 6.511719zm-16 0-24.328125-42.136719c8.414063-.808594 16.636719-3.007812 24.328125-6.511719zm-46.351562-24.496094c2.96875-2.996094 5.695312-6.21875 8.160156-9.640625l24.335937 42.144531-42.144531-24.335937c3.425781-2.464844 6.648438-5.191406 9.648438-8.160156zm-17.648438 22.03125 42.144531 24.328125h-48.65625c3.503907-7.691406 5.703125-15.914062 6.511719-24.328125zm64 62.183594v48.648437c-3.851562-1.730468-7.832031-3.160156-11.902344-4.273437-4.0625-1.09375-8.203125-1.867188-12.386718-2.308594zm16 0 24.328125 42.144531c-8.414063.8125-16.632813 3.011719-24.328125 6.511719zm46.398438 24.488281c-2.980469 3-5.726563 6.230469-8.207032 9.65625l-24.335937-42.144531 42.144531 24.335937c-3.40625 2.464844-6.617188 5.191406-9.601562 8.152344zm17.601562-22.015625-42.144531-24.328125h48.65625c-3.507813 7.691406-5.707031 15.914062-6.511719 24.328125zm8.136719-87.832031c-10.78125-5.164063-19.46875-13.851563-24.632813-24.632813l17.335938-30.03125c4.664062 7.566407 10.210937 14.546875 16.527344 20.800781 6.253906 6.308594 13.234374 11.851563 20.800781 16.503907zm-38.535157-32.566406c-11.890624.835937-23.71875-2.328126-33.601562-8.992188v-34.753906c15.71875 8.402344 33.160156 13.074218 50.976562 13.65625zm-49.601562-8.992188c-9.878906 6.664062-21.710938 9.832031-33.601562 8.992188l-17.375-30.089844c8.894531-.246094 17.722656-1.554688 26.304687-3.902344 8.582031-2.261719 16.863281-5.535156 24.671875-9.753906zm-47.503906 16.925781c-5.164063 10.78125-13.851563 19.46875-24.632813 24.632813l-30.03125-17.296875c15.15625-9.425781 27.941407-22.210938 37.367188-37.367188zm-62.664063 21.152344 30.097657 17.382813c.84375 11.890624-2.320313 23.722656-8.992188 33.601562h-34.753906c4.21875-7.808594 7.492187-16.089844 9.753906-24.671875 2.335938-8.585937 3.644531-17.417969 3.894531-26.3125zm38.03125 114.488281c10.78125 5.15625 19.472657 13.839844 24.640625 24.617188l-17.304687 30.03125c-9.417969-15.136719-22.195313-27.902344-37.335938-37.3125zm38.535157 32.550782c11.894531-.847657 23.730468 2.324218 33.601562 9.007812v34.746094c-15.71875-8.398438-33.15625-13.070313-50.96875-13.664063zm49.601562 9.007812c9.878906-6.671875 21.710938-9.839844 33.601562-8.992188l17.375 30.089844c-17.8125.589844-35.253906 5.261719-50.976562 13.65625zm47.503906-16.925781c5.164063-10.78125 13.851563-19.46875 24.632813-24.632813l30.03125 17.34375c-15.140625 9.410156-27.910157 22.179688-37.320313 37.320313zm62.664063-21.152344-30.105469-17.382813c-.839844-11.894531 2.328125-23.722656 9-33.601562h34.753906c-8.398437 15.722656-13.066406 33.167969-13.648437 50.984375zm-21.105469-66.984375c-6.671875-9.878906-9.839844-21.707031-9-33.601562l30.105469-17.375c.582031 17.8125 5.25 35.253906 13.648437 50.976562zm27.304688-116.367188c9.550781 9.726563 20.460937 18.019532 32.386718 24.625l-28.929687 16.703126c-2.71875.640624-13.601563-4.074219-27.199219-17.648438-13.601562-13.578125-18.265625-24.601562-17.722656-26.96875l16.800781-29.097656c6.617187 11.929687 14.925781 22.835937 24.664063 32.386718zm-78.886719-45.519531c13.148437 3.648438 26.753906 5.378907 40.398437 5.132813l-16.703125 28.929687c-2.015625 1.832031-13.785156 3.273438-32.304687-1.679687-18.519532-4.953125-28.070313-12.097656-28.871094-14.695313v-33.402343c11.667969 7.019531 24.292969 12.3125 37.480469 15.714843zm-90.960938 0c13.1875-3.402343 25.8125-8.695312 37.480469-15.714843v33.402343c-.800781 2.589844-10.3125 9.726563-28.871094 14.695313-18.5625 4.96875-30.402344 3.503906-32.207031 1.847656l-16.800781-29.097656c13.644531.246094 27.25-1.484375 40.398437-5.132813zm-78.886719 45.519531c9.726563-9.550781 18.019532-20.460937 24.625-32.386718l16.703126 28.929687c.582031 2.65625-4.066407 13.601563-17.601563 27.152344s-24.589844 18.257813-26.984375 17.726563l-29.09375-16.796876c11.914062-6.609374 22.808594-14.902343 32.351562-24.625zm-45.519531 78.886719c3.652344-13.148437 5.382813-26.753906 5.132813-40.398437l28.929687 16.703125c1.832031 2.007812 3.273438 13.785156-1.679687 32.304687-4.992188 18.640625-12.167969 28.160156-14.496094 28.871094h-33.601562c7.019531-11.667969 12.3125-24.292969 15.714843-37.480469zm0 90.953125c-3.410156-13.183594-8.703125-25.800781-15.714843-37.472656h33.402343c2.589844.800781 9.726563 10.304688 14.6875 28.855469 4.960938 18.550781 3.511719 30.449219 1.855469 32.222656l-29.097656 16.800781c.25-13.644531-1.480469-27.257812-5.132813-40.40625zm45.597657 78.917969c-9.5625-9.738281-20.488282-18.042969-32.429688-24.65625l28.925781-16.695313c2.640625-.574218 13.601563 4.050782 27.152344 17.601563s18.289063 24.597656 17.746094 26.96875l-16.800781 29.101563c-6.609376-11.902344-14.902344-22.789063-24.625-32.320313zm78.808593 45.464844c-11.738281-3.226563-23.828125-5.019531-36-5.335938-1.472656 0-2.902343.128907-4.351562.207031l16.703125-28.917968c2-1.847656 13.792968-3.273438 32.320312 1.695312s28.097656 12.175782 28.808594 14.496094v33.601562c-11.679688-7.027343-24.316406-12.332031-37.511719-15.746093zm90.992188 0c-13.199219 3.410156-25.835938 8.710937-37.511719 15.746093v-33.402343c.800781-2.589844 10.304688-9.726563 28.855469-14.6875 18.550781-4.960938 30.449219-3.511719 32.222656-1.855469l16.800781 29.097656c-13.644531-.25-27.25 1.480469-40.398437 5.132813zm78.886719-45.519531c-9.722657 9.550781-18.019532 20.457031-24.621094 32.382812l-16.738282-28.894531c-.582031-2.65625 4.066407-13.601563 17.601563-27.152344s24.710937-18.265625 26.984375-17.726563l29.09375 16.796876c-11.914062 6.609374-22.808594 14.902343-32.351562 24.625zm11.457031-55.199219c-1.832031-2.007813-3.261719-13.785157 1.6875-32.320313 4.953125-18.535156 12.136719-28.105468 14.457031-28.816406h33.601562c-13.886718 23.589844-21.09375 50.507812-20.847656 77.878906zm0 0"/></svg>