<svg height="480pt" viewBox="0 0 480 480" width="480pt" xmlns="http://www.w3.org/2000/svg"><path d="m312 79.667969c0 39.765625-32.234375 72-72 72s-72-32.234375-72-72c0-39.761719 32.234375-72 72-72s72 32.238281 72 72zm0 0" fill="#012120"/><path d="m360 132.941406v251.121094c.019531 4.167969-3.335938 7.566406-7.503906 7.605469h-224.992188c-4.167968-.039063-7.523437-3.4375-7.503906-7.605469v-251.121094c0-29.375 7.550781-53.273437 36.496094-53.273437 4.167968.039062 7.523437 3.441406 7.503906 7.609375 0 33.597656 42.929688 60.878906 76 60.878906s76-27.320312 76-60.878906c-.019531-4.167969 3.335938-7.570313 7.503906-7.609375 28.945313 0 36.496094 23.898437 36.496094 53.273437zm0 0" fill="#002f2f"/><path d="m416 414.523438v11.433593c0 3.144531-3.441406 5.710938-7.65625 5.710938h-336.6875c-4.214844 0-7.65625-2.566407-7.65625-5.710938v-11.433593c0-12.621094 13.695312-22.855469 30.609375-22.855469h290.78125c16.914063 0 30.609375 10.234375 30.609375 22.855469zm0 0" fill="#666"/><path d="m472 458.332031v6.671875c-.328125 3.960938-3.769531 6.925782-7.734375 6.664063h-448.53125c-3.964844.261719-7.40625-2.703125-7.734375-6.664063v-6.671875c1.261719-15.863281 15.058594-27.757812 30.9375-26.664062h402.125c15.878906-1.09375 29.675781 10.800781 30.9375 26.664062zm0 0" fill="#4d4d4d"/><path d="m448 423.667969h-24v-8c0-17.671875-14.328125-32-32-32h-24v-256c-.03125-27.957031-20.679688-51.609375-48.375-55.414063-3.988281-40.988281-38.441406-72.253906-79.625-72.253906s-75.636719 31.265625-79.625 72.253906c-27.695312 3.804688-48.34375 27.457032-48.375 55.414063v256h-24c-17.671875 0-32 14.328125-32 32v8h-24c-17.671875 0-32 14.328125-32 32v16c0 4.417969 3.582031 8 8 8h464c4.417969 0 8-3.582031 8-8v-16c0-17.671875-14.328125-32-32-32zm-208-408c33.644531.199219 61.386719 26.414062 63.496094 59.992187 2.105468 33.574219-22.140625 63.050782-55.496094 67.457032v-63.449219h40v-16h-40v-32h-16v32h-40v16h40v63.449219c-33.355469-4.40625-57.601562-33.882813-55.496094-67.457032 2.109375-33.578125 29.851563-59.792968 63.496094-59.992187zm-112 112c.019531-19.179688 13.636719-35.65625 32.472656-39.289063 0 .066406.046875.128906.054688.195313 4.660156 40.363281 38.839844 70.824219 79.472656 70.824219s74.8125-30.460938 79.472656-70.824219c0-.066407.046875-.128907.054688-.195313 18.835937 3.632813 32.453125 20.109375 32.472656 39.289063v256h-224zm-56 288c0-8.835938 7.164062-16 16-16h304c8.835938 0 16 7.164062 16 16v8h-336zm392 48h-448v-8c0-8.835938 7.164062-16 16-16h416c8.835938 0 16 7.164062 16 16zm0 0"/><path d="m176 183.667969h128v16h-128zm0 0"/><path d="m176 223.667969h128v16h-128zm0 0"/><path d="m176 263.667969h128v16h-128zm0 0"/></svg>