<svg height="480pt" viewBox="0 0 480 480.00015" width="480pt" xmlns="http://www.w3.org/2000/svg"><path d="m469.679688 181.679688-48 48c-.964844.980468-2.183594 1.675781-3.519532 2l-58.160156 22.320312v146.800781c.011719 13.089844 4.59375 25.769531 12.960938 35.839844l25.199218 30.238281c2 2.402344-3.039062 5.121094-6.160156 5.121094h-304c-3.121094 0-8.160156-2.71875-6.160156-5.121094l25.199218-30.238281c8.367188-10.070313 12.949219-22.75 12.960938-35.839844v-120.800781h-64c-2.675781-.015625-5.167969-1.363281-6.640625-3.601562l-40-64c-2.117187-3.160157-1.714844-7.375.960937-10.078126l24-24c1.671876-1.652343 3.976563-2.496093 6.320313-2.320312 2.347656.207031 4.480469 1.433594 5.839844 3.359375l33.519531 52.640625 40-14.558594v-140.640625c.011719-6.667969-2.089844-13.164062-6-18.5625l-23.441406-32.957031c-3.527344-4.871094-3.992188-11.316406-1.199219-16.640625 2.722656-5.28125 16.640625-.640625 22.640625-.640625h24c2.300781-.015625 4.496094.976562 6 2.71875l50 61.28125 30.191406-58.398438c-3.390625-.167968 2.128906-3.53125 8.207032-3.53125h37.601562c6.566406-.039062 12.480469 3.96875 14.878906 10.082032l21.121094 59.847656 24.558594-66.960938c1.214844-3.042968 4.164062-5.042968 7.441406-5.039062h41.839844c5.773437-.015625 11.109375 3.078125 13.960937 8.101562 2.847657 5.019532 2.773438 11.1875-.199219 16.136719l-26.640624 34.242188c-3.261719 5.113281-4.984376 11.054687-4.960938 17.121093v108.398438l40-16 34.320312-29.679688c3.144532-3.121093 8.214844-3.121093 11.359376 0l24 24c3.121093 3.144532 3.121093 8.214844 0 11.359376zm0 0" fill="#8c6239"/><g fill="#333"><path d="m325.753906 166.519531v-.0625c-9.089844-12.59375-40.1875-3.535156-48.1875.183594-6.128906 2.636719-10.816406 7.800781-12.855468 14.160156-1.601563 5.671875-.464844 11.769531 3.074218 16.488281 5.410156 6.957032 13.804688 10.933594 22.613282 10.710938 4.460937-.015625 8.867187-.976562 12.929687-2.816406 10.945313-5.804688 19.457031-15.328125 24-26.855469 1.40625-3.960937.820313-8.355469-1.574219-11.808594zm0 0"/><path d="m215.289062 180.800781c-2.050781-6.355469-6.75-11.515625-12.890624-14.144531-8-3.710938-39.09375-12.800781-48.183594-.175781v.054687c-2.378906 3.460938-2.949219 7.855469-1.535156 11.808594 4.546874 11.523438 13.058593 21.039062 24 26.839844 4.058593 1.839844 8.464843 2.800781 12.921874 2.816406 8.804688.210938 17.183594-3.769531 22.582032-10.726562 3.550781-4.707032 4.699218-10.800782 3.105468-16.472657zm0 0"/><path d="m303.792969 292.367188c-8.570313-6.65625-20.738281-4.390626-34.847657-1.78125-9.519531 2.058593-19.210937 3.230468-28.945312 3.496093-9.734375-.265625-19.425781-1.4375-28.945312-3.496093-14.109376-2.609376-26.277344-4.875-34.847657 1.78125-6.164062 5.730468-9.214843 14.066406-8.207031 22.425781 1.523438 38.660156 33.308594 69.214843 72 69.214843s70.476562-30.554687 72-69.214843c1.007812-8.359375-2.042969-16.695313-8.207031-22.425781zm0 0"/></g><path d="m477.65625 170.34375-32-32c-3.125-3.121094-8.1875-3.121094-11.3125 0l-30.664062 30.664062-35.679688 11.886719v-97.335937c-.003906-6.042969 1.707031-11.960938 4.9375-17.070313l26.65625-42.257812c2.964844-4.941407 3.042969-11.097657.203125-16.113281-2.839844-5.015626-8.160156-8.117188-13.925781-8.117188h-49.871094c-3.273438 0-6.21875 1.992188-7.433594 5.03125l-24.566406 61.433594-22.558594-56.402344c-2.410156-6.089844-8.304687-10.0820312-14.855468-10.0625h-37.640626c-6.066406-.0195312-11.617187 3.40625-14.3125 8.839844l-24.464843 48.929687-48.152344-55.035156c-1.515625-1.734375-3.710937-2.73046875-6.015625-2.734375h-40.457031c-5.992188 0-11.480469 3.347656-14.226563 8.675781-2.742187 5.328125-2.277344 11.742188 1.203125 16.621094l23.519531 32.917969c3.882813 5.421875 5.964844 11.917968 5.960938 18.585937v140.648438l-28.496094 5.695312-36.992187-51.792969c-1.367188-1.914062-3.507813-3.128906-5.851563-3.324218-2.34375-.195313-4.652344.652344-6.316406 2.316406l-32 32c-2.695312 2.695312-3.117188 6.921875-1 10.097656l48 72c1.484375 2.222656 3.980469 3.558594 6.65625 3.558594h56v112.800781c-.007812 13.09375-4.601562 25.773438-12.976562 35.839844l-25.167969 30.199219c-2.011719 2.382812-2.453125 5.71875-1.136719 8.542968 1.320312 2.828126 4.164062 4.628907 7.28125 4.617188h320c3.105469 0 5.933594-1.796875 7.25-4.609375s.886719-6.132813-1.105469-8.519531l-25.167969-30.191406c-8.382812-10.078126-12.972656-22.769532-12.976562-35.878907v-146.769531l50.199219-14.335938c1.308593-.375 2.496093-1.078124 3.457031-2.039062l56-56c3.121094-3.125 3.121094-8.1875 0-11.3125zm-65.847656 54.527344-54.007813 15.433594c-3.4375.980468-5.800781 4.121093-5.800781 7.695312v152.800781c.011719 16.839844 5.917969 33.144531 16.6875 46.085938l14.234375 17.113281h-285.839844l14.230469-17.089844c10.777344-12.945312 16.683594-29.261718 16.6875-46.109375v-120.800781c0-4.417969-3.582031-8-8-8h-59.71875l-41.984375-62.984375 20.6875-20.679687 34.503906 48.3125c1.816407 2.578124 4.988281 3.832031 8.078125 3.199218l40-8c3.742188-.746094 6.433594-4.03125 6.433594-7.847656v-147.199219c.019531-10.007812-3.105469-19.769531-8.9375-27.90625l-23.519531-32.894531h36.800781l53.601562 61.265625c1.753907 2.003906 4.394532 3.003906 7.035157 2.667969 2.644531-.339844 4.945312-1.972656 6.140625-4.359375l29.824218-59.574219h37.640626l29.980468 74.96875c1.214844 3.042969 4.160156 5.039062 7.433594 5.039062 3.277344 0 6.21875-1.996093 7.433594-5.039062l29.992187-74.96875 44.542969-.136719-26.570312 42.089844c-4.832032 7.664063-7.398438 16.539063-7.398438 25.597656v108.449219c.003906 2.570312 1.238281 4.984375 3.324219 6.484375 2.085937 1.503906 4.765625 1.910156 7.203125 1.101563l48-16c1.175781-.394532 2.246094-1.054688 3.128906-1.929688l26.34375-26.34375 20.6875 20.6875zm0 0"/><path d="m333.207031 160.679688c-11.375-16.863282-50.246093-4.75-60.230469.175781-7.84375 3.699219-13.707031 10.605469-16.089843 18.945312-2 7.53125-.59375 15.5625 3.839843 21.96875 6.480469 9.128907 17.054688 14.472657 28.25 14.277344 5.589844.003906 11.105469-1.277344 16.121094-3.742187 13.941406-8.007813 24.585938-20.707032 30.039063-35.832032 1.75-5.285156 1.042969-11.074218-1.921875-15.785156zm-35.199219 37.28125c-8.210937 4.15625-18.214843 2.015624-24-5.144532-1.84375-2.582031-2.445312-5.851562-1.640624-8.921875 1.210937-3.867187 4.015624-7.03125 7.714843-8.695312 10.074219-4.527344 20.953125-6.996094 32-7.253907 2.742188-.351562 5.523438.238282 7.886719 1.671876 1.671875 4.261718-10.839844 22.847656-21.960938 28.34375zm0 0"/><path d="m174.902344 212.304688c5.015625 2.464843 10.53125 3.746093 16.121094 3.742187 11.195312.195313 21.769531-5.148437 28.25-14.277344 4.433593-6.40625 5.839843-14.4375 3.839843-21.96875-2.382812-8.339843-8.246093-15.246093-16.089843-18.945312-9.976563-4.925781-48.855469-17.054688-60.230469-.175781-2.964844 4.710937-3.667969 10.5-1.921875 15.785156 5.449218 15.128906 16.09375 27.828125 30.03125 35.839844zm-14.847656-42.703126c3.203124-3.65625 26.335937-1.105468 39.882812 5.597657 3.695312 1.664062 6.503906 4.828125 7.710938 8.695312.816406 3.066407.230468 6.332031-1.601563 8.921875-5.785156 7.160156-15.785156 9.304688-24 5.144532-11.175781-5.496094-23.648437-24.082032-21.992187-28.359376zm0 0"/><path d="m272.121094 283.054688c-10.550782 2.394531-21.308594 3.753906-32.121094 4.066406-10.8125-.3125-21.570312-1.671875-32.121094-4.066406-15.695312-3.078126-29.246094-5.734376-38.734375 2.082031-6.917969 6.832031-10.292969 16.480469-9.144531 26.136719 0 44.179687 35.816406 80 80 80s80-35.820313 80-80c1.148438-9.65625-2.226562-19.304688-9.144531-26.136719-9.480469-7.816407-23.03125-5.136719-38.734375-2.082031zm-32.121094 92.945312c-35.53125-.242188-64.160156-29.199219-64-64.726562-.660156-4.847657.523438-9.765626 3.3125-13.785157 1.878906-1.164062 4.085938-1.683593 6.289062-1.488281 6.464844.371094 12.886719 1.292969 19.199219 2.753906 11.558594 2.605469 23.351563 4.066406 35.199219 4.359375 11.847656-.292969 23.640625-1.753906 35.199219-4.359375 10.738281-2.105468 21.839843-4.273437 25.488281-1.273437 2.792969 4.019531 3.976562 8.941406 3.3125 13.792969.160156 35.527343-28.46875 64.484374-64 64.726562zm0 0"/></svg>