<svg height="480pt" viewBox="0 0 480 480.00389" width="480pt" xmlns="http://www.w3.org/2000/svg"><g fill="#4d4d4d"><path d="m181.859375 330.003906-139.289063 139.871094c-1.402343 1.351562-3.269531 2.113281-5.214843 2.128906h-22.015625c-4.046875-.011718-7.324219-3.289062-7.339844-7.335937v-22.015625c.015625-1.949219.777344-3.816406 2.128906-5.214844l139.871094-139.289062c2.886719-2.839844 7.515625-2.839844 10.402344 0l21.429687 21.429687c2.867188 2.882813 2.878907 7.53125.027344 10.425781zm0 0"/><path d="m429.914062 249.261719-19.855468 19.78125c-.144532.21875-.359375.433593-.503906.648437-22.871094 22.800782-69.304688 34.3125-100.457032 34.3125-27.609375-.109375-54.484375-8.917968-76.800781-25.175781l-16.398437 16.542969c-2.835938 2.78125-7.378907 2.78125-10.214844 0l-21.042969-20.96875c-1.304687-1.378906-2.046875-3.199219-2.078125-5.101563.015625-1.90625.757812-3.738281 2.078125-5.113281l16.554687-16.398438c-36.617187-50.6875-41.195312-111.785156-6.867187-161.335937.21875-.144531.433594-.359375.648437-.503906l35.785157-35.855469c1.9375-1.894531 4.757812-2.558594 7.335937-1.730469l15.335938 5.066407c2.132812.703124 3.808594 2.371093 4.519531 4.503906l5.105469 15.328125c.835937 2.597656.171875 5.445312-1.730469 7.40625l-36.359375 36.289062c-25.894531 25.894531-13.398438 73.949219 7.03125 107.046875l105.601562-112.152344c1.9375-1.941406 4.8125-2.609374 7.410157-1.726562l22.988281 1.878906 1.890625 23.007813c.882813 2.597656.210937 5.46875-1.730469 7.40625l-112.160156 105.585937c64 40 97.152344 16.9375 122.976562-8.886718l20.363282-20.433594c1.957031-1.898438 4.808594-2.5625 7.40625-1.726563l15.199218 5.078125c2.1875.726563 3.898438 2.445313 4.617188 4.632813l5.039062 15.246093c.847657 2.574219.199219 5.402344-1.6875 7.347657zm0 0"/><path d="m216 300.941406-.070312 20c-.007813 1.882813-.769532 3.683594-2.113282 5.007813-1.296875 1.324219-3.078125 2.070312-4.933594 2.054687l-19.871093-.070312c-1.871094-.015625-3.664063-.746094-5.011719-2.042969l-29.886719-29.886719c-1.296875-1.347656-2.027343-3.140625-2.039062-5.007812l-.074219-19.871094c-.003906-1.871094.734375-3.667969 2.058594-4.992188 1.324218-1.324218 3.121094-2.0625 4.992187-2.058593l20-.070313c1.871094.015625 3.664063.746094 5.007813 2.046875l29.886718 29.882813c1.320313 1.332031 2.058594 3.132812 2.054688 5.007812zm0 0"/></g><path d="m303.664062 16.613281-27.664062 82.957031c-.902344 2.648438-3.390625 4.429688-6.191406 4.429688-2.796875 0-5.285156-1.78125-6.191406-4.429688l-12.800782-38.445312-38.398437-12.800781c-2.640625-.898438-4.414063-3.378907-4.417969-6.167969.023438-2.792969 1.796875-5.273438 4.433594-6.191406l82.953125-27.632813c2.359375-.75 4.941406-.132812 6.710937 1.601563 1.738282 1.753906 2.34375 4.332031 1.566406 6.679687zm0 0" fill="#b3b3b3"/><path d="m471.664062 184.613281-27.664062 82.957031c-.902344 2.648438-3.390625 4.429688-6.191406 4.429688-2.796875 0-5.285156-1.78125-6.191406-4.429688l-12.800782-38.445312-38.398437-12.800781c-2.640625-.898438-4.414063-3.378907-4.417969-6.167969.023438-2.792969 1.796875-5.273438 4.433594-6.191406l82.953125-27.632813c2.359375-.75 4.941406-.132812 6.710937 1.601563 1.738282 1.753906 2.34375 4.332031 1.566406 6.679687zm0 0" fill="#b3b3b3"/><path d="m423.664062 64.613281-27.664062 82.957031c-.902344 2.648438-3.390625 4.429688-6.191406 4.429688-2.796875 0-5.285156-1.78125-6.191406-4.429688l-12.800782-38.445312-38.398437-12.800781c-2.640625-.898438-4.414063-3.378907-4.417969-6.167969.023438-2.792969 1.796875-5.273438 4.433594-6.191406l82.953125-27.632813c2.359375-.75 4.941406-.132812 6.710937 1.601563 1.738282 1.753906 2.34375 4.332031 1.566406 6.679687zm0 0" fill="#b3b3b3"/><path d="m477.65625 172.003906c-2.144531-2.144531-5.316406-2.890625-8.191406-1.929687l-101.839844 34c-3.28125 1.082031-5.5 4.144531-5.5 7.601562s2.21875 6.519531 5.5 7.601563l21.601562 7.199218-13.441406 13.527344c-28.734375 28.726563-74.121094 32.199219-110.910156 9.503906l107.464844-107.847656 7.199218 21.601563c1.085938 3.269531 4.144532 5.476562 7.589844 5.476562 3.445313.003907 6.5-2.195312 7.59375-5.460937l34-101.839844c.964844-2.878906.21875-6.054688-1.929687-8.203125-2.144531-2.144531-5.320313-2.890625-8.199219-1.925781l-101.839844 34c-3.28125 1.078125-5.503906 4.144531-5.503906 7.597656 0 3.457031 2.222656 6.523438 5.503906 7.601562l21.601563 7.199219-107.882813 107.425781c-22.703125-36.800781-19.199218-82.183593 9.601563-110.976562l13.480469-13.433594 7.199218 21.640625c1.085938 3.273438 4.144532 5.480469 7.59375 5.480469 3.441406.003906 6.5-2.199219 7.589844-5.464844l34-101.839844c.964844-2.875.21875-6.046874-1.925781-8.195312-2.144531-2.144531-5.316407-2.890625-8.195313-1.933594l-101.863281 33.929688c-3.28125 1.078125-5.5 4.144531-5.5 7.601562 0 3.453125 2.21875 6.519532 5.5 7.597656l21.679687 7.199219-12.894531 12.898438c-.25.195312-.488281.40625-.710937.632812-46.992188 47.070313-50.90625 122.992188-10.226563 179.335938l-12.742187 12.703125c-1.433594-1.292969-3.285156-2.023438-5.214844-2.046875l-22.722656.078125c-4.417969 0-8 3.582031-8 8l.082031 22.558594c.039063 1.910156.757813 3.746093 2.03125 5.167968l-146.878906 146.273438c-1.507813 1.5-2.35156275 3.539062-2.355469 5.664062v24c0 4.417969 3.582031 8 8 8h24c2.128906 0 4.164062-.847656 5.664062-2.351562l146.265626-146.878906c1.425781 1.269531 3.257812 1.992187 5.167968 2.03125l22.558594.078124c4.421875 0 8-3.582031 8-8l.082031-22.71875c-.027343-1.9375-.753906-3.800781-2.046875-5.238281l12.710938-12.722656c24.8125 18.082031 54.695312 27.878906 85.398437 28 35.140625.273437 68.9375-13.472656 93.914063-38.191406.222656-.222657.433594-.460938.625-.710938l12.902344-12.898437 7.238281 21.679687c1.09375 3.265625 4.144531 5.464844 7.585937 5.464844 3.4375-.003906 6.488282-2.207031 7.574219-5.472656l33.929687-101.839844c.980469-2.882813.242188-6.074219-1.914062-8.230469zm-69.191406-100.480468-21.328125 63.878906-3.695313-11.054688v-.097656l-5.679687-16.957031c-.796875-2.382813-2.664063-4.253907-5.046875-5.050781l-16.960938-5.679688h-.097656l-11.054688-3.695312zm-118.800782-50.871094-21.324218 63.886718-9.386719-28.160156c-.796875-2.398437-2.683594-4.28125-5.085937-5.070312l-28.128907-9.359375zm-260.988281 443.351562h-12.675781v-12.671875l144.472656-143.863281 12.066406 12.0625zm175.03125-147.152344h-11.257812l-29.261719-29.261718v-11.257813l11.382812-.046875 29.207032 29.214844zm213.894531-73.414062-19.199218 19.152344c-.214844.207031-.414063.433594-.601563.671875-42.976562 42.261719-112.949219 44.070312-163.199219 4.085937-3.175781-2.507812-7.730468-2.246094-10.601562.609375l-17.535156 17.597657-12-12 17.585937-17.550782c2.886719-2.878906 3.148438-7.46875.605469-10.65625-40-50.207031-38.175781-120.183594 4.082031-163.152344.238281-.1875.464844-.390624.679688-.605468l19.152343-19.1875 8.472657 2.792968 2.839843 8.535157-19.199218 19.152343c-36.441406 36.441407-38.882813 95.097657-5.800782 139.480469 1.386719 1.863281 3.511719 3.03125 5.828126 3.199219 2.316406.171875 4.589843-.671875 6.234374-2.3125l120.394532-119.917969 8.503906 2.832031 2.832031 8.503907-119.945312 120.40625c-1.640625 1.644531-2.484375 3.921875-2.3125 6.238281.171875 2.3125 1.339843 4.441406 3.199219 5.828125 44.382812 33.078125 103.046874 30.648437 139.570312-5.890625l19.0625-19.125 8.535156 2.839844zm20.480469 10.832031-9.359375-28.128906c-.792968-2.402344-2.671875-4.289063-5.074218-5.089844l-17.039063-5.679687-11.121094-3.703125 63.890625-21.328125zm0 0"/></svg>