<svg height="480pt" viewBox="0 0 480 480.00133" width="480pt" xmlns="http://www.w3.org/2000/svg"><path d="m472 408c0-35.34375-103.871094-64-232-64s-232 28.65625-232 64c0 35.347656 103.871094 64 232 64s232-28.652344 232-64zm0 0" fill="#333"/><path d="m391.519531 390.671875-79.742187-223.199219c-6.960938-19.414062-9.257813-40.191406-6.703125-60.65625l11.117187-90.222656c.375-3.074219-1.125-6.070312-3.808594-7.617188-2.679687-1.570312-6.058593-1.292968-8.453124.6875l-83.480469 67.546876c-21.277344 17.203124-37.296875 40.035156-46.234375 65.894531l-85.757813 247.648437c-.738281 2.046875-.570312 4.3125.457031 6.230469 1.019532 1.921875 2.828126 3.300781 4.949219 3.777344 48.011719 10.605469 97.074219 15.71875 146.242188 15.238281 49.085937.492188 98.074219-4.605469 146.007812-15.199219 2.117188-.519531 3.917969-1.917969 4.949219-3.839843 1.03125-1.921876 1.195312-4.195313.457031-6.246094zm0 0" fill="#333"/><path d="m278 285-14.199219 14.449219 3.398438 12.382812c.441406 2.597657-.582031 5.226563-2.664063 6.839844-1.125.871094-2.511718 1.335937-3.933594 1.328125-1.09375-.023438-2.164062-.296875-3.136718-.796875l-17.464844-9.601563-17.464844 9.601563c-2.265625 1.1875-5.015625.96875-7.070312-.5625-2.078125-1.613281-3.101563-4.242187-2.664063-6.839844l3.398438-12.382812-14.199219-14.417969c-1.808594-1.894531-2.445312-4.621094-1.664062-7.117188.734374-2.503906 2.832031-4.367187 5.402343-4.800781l19.527344-2.9375 8.734375-18.566406c1.199219-2.191406 3.5-3.558594 6-3.558594s4.800781 1.367188 6 3.558594l8.738281 18.566406 19.527344 2.9375c2.570313.433594 4.667969 2.296875 5.398437 4.800781.78125 2.496094.144532 5.222657-1.664062 7.117188zm0 0" fill="#f7931e"/><path d="m391.066406 400.144531c-1.128906 1.714844-2.925781 2.878907-4.953125 3.199219-48.160156 8.832031-97.046875 13.070312-146.007812 12.65625-49.039063.414062-98.003907-3.824219-146.242188-12.65625-2.007812-.324219-3.796875-1.457031-4.949219-3.132812-1.023437-1.539063-1.195312-3.488282-.457031-5.175782l14.625-35.035156c4.796875.898438 9.824219 1.792969 15 2.625 40.390625 6.023438 81.1875 8.90625 122.023438 8.625 40.605469.261719 81.167969-2.597656 121.335937-8.5625 5.253906-.796875 10.277344-1.664062 15.078125-2.621094l5.175781 12.144532 9.824219 22.757812c.777344 1.683594.605469 3.65625-.453125 5.175781zm0 0" fill="#ffcc5c"/><path d="m452.59375 373.042969c-18.089844-9.492188-37.378906-16.488281-57.34375-20.800781-4.402344-1.121094-9.035156-2.121094-13.746094-3.089844l-66.214844-183.367188c-2.492187-6.945312-4.441406-14.078125-5.824218-21.328125-2.597656-13.753906-3.003906-27.832031-1.207032-41.710937l11.679688-93.753906c.402344-3.230469-1.191406-6.382813-4.03125-7.972657-2.839844-1.589843-6.363281-1.300781-8.90625.734375l-87.671875 70.160156c-22.292969 17.816407-39.121094 41.546876-48.558594 68.480469l-73.167969 208.933594c-4.375.914063-8.679687 1.875-12.800781 2.898437-19.980469 4.308594-39.289062 11.304688-57.390625 20.796876-18.175781 10.226562-27.410156 21.992187-27.410156 34.976562 0 46.769531 123.65625 72 240 72s240-25.230469 240-72c0-12.984375-9.230469-24.75-27.40625-34.957031zm-266.730469-227.34375c8.449219-24.105469 23.507813-45.34375 43.457031-61.289063l72.28125-57.863281-9.21875 74.175781c-.753906 6.101563-1.125 12.25-1.109374 18.398438l-41.953126-6.992188-2.640624 15.777344 45.320312 7.558594c.25 2.359375.65625 4.726562 1.023438 7.089844l-34.023438 27.199218 10 12.496094 27.730469-22.183594c1.03125 3.734375 2.183593 7.453125 3.503906 11.125l67.148437 186.128906c-42.058593 7.347657-84.6875 10.921876-127.382812 10.679688-42.960938.277344-85.855469-3.355469-128.160156-10.847656zm-79.398437 226.773437c44.058594 7.976563 88.761718 11.835938 133.535156 11.527344 44.566406.277344 89.066406-3.535156 132.9375-11.382812l8 21.984374c-46.398438 9.273438-93.625 13.765626-140.9375 13.398438-47.417969.367188-94.746094-4.132812-141.246094-13.421875zm133.535156 91.527344c-138.785156 0-224-32.613281-224-56 0-6.574219 6.839844-14.046875 19.3125-21.039062 16.851562-8.734376 34.792969-15.1875 53.34375-19.199219l2.738281-.671875-10.707031 30.671875c-.738281 2.136719-.539062 4.484375.546875 6.464843 1.085937 1.980469 2.960937 3.410157 5.160156 3.933594 50.449219 11.003906 101.972657 16.316406 153.605469 15.839844 51.558594.488281 103.003906-4.816406 153.375-15.816406 2.21875-.527344 4.101562-1.976563 5.183594-3.984375 1.082031-2.003907 1.257812-4.375.480468-6.519531l-11.109374-30.757813 3.480468.855469c18.539063 4.011718 36.46875 10.46875 53.308594 19.199218 12.441406 6.976563 19.28125 14.449219 19.28125 21.023438 0 23.386719-85.214844 56-224 56zm0 0"/><path d="m261 330.699219c2.695312 1.414062 5.960938 1.179687 8.425781-.609375 2.464844-1.789063 3.695313-4.824219 3.183594-7.824219l-4-23.382813 16.992187-16.554687c2.179688-2.125 2.96875-5.304687 2.027344-8.199219-.941406-2.898437-3.445312-5.011718-6.460937-5.449218l-23.480469-3.414063-10.488281-21.265625c-1.496094-2.539062-4.226563-4.101562-7.175781-4.101562-2.949219 0-5.679688 1.5625-7.175782 4.101562l-10.496094 21.273438-23.480468 3.414062c-3.011719.441406-5.515625 2.550781-6.457032 5.449219-.941406 2.894531-.15625 6.074219 2.027344 8.199219l16.984375 16.554687-4 23.382813c-.515625 3 .71875 6.035156 3.183594 7.824218 2.460937 1.789063 5.726563 2.023438 8.421875.609375l20.96875-11.050781zm-35.09375-21.707031 1.980469-11.550782c.4375-2.578125-.417969-5.207031-2.285157-7.039062l-8.394531-8.175782 11.601563-1.6875c2.605468-.378906 4.859375-2.015624 6.023437-4.378906l5.167969-10.558594 5.183594 10.511719c1.167968 2.359375 3.417968 3.996094 6.023437 4.375l11.601563 1.6875-8.40625 8.226563c-1.886719 1.835937-2.75 4.484375-2.304688 7.078125l1.984375 11.554687-10.402343-5.457031c-2.328126-1.222656-5.109376-1.222656-7.4375 0zm0 0"/></svg>