<svg height="480pt" viewBox="0 0 480 480.48007" width="480pt" xmlns="http://www.w3.org/2000/svg"><path d="m472.238281 466.769531c0 3.140625-3.476562 5.710938-7.734375 5.710938h-448.527344c-4.257812 0-7.738281-2.570313-7.738281-5.710938 0-33.890625 222.488281-34.289062 232-34.289062 9.515625 0 232 .398437 232 34.289062zm0 0" fill="#1a1a1a"/><path d="m415.199219 172.480469c-.085938.148437-.195313.28125-.320313.398437l-32 48c-.890625 1.363282-2.171875 2.421875-3.679687 3.042969l-75.839844 30.316406-7.199219 43.523438c-4.207031 16.410156-15.878906 29.886719-31.519531 36.398437l7.597656 113.761719c.160157 2.214844-.625 4.390625-2.160156 6-1.488281 1.648437-3.613281 2.582031-5.839844 2.558594h-111.4375c-2.285156.011719-4.464843-.949219-6-2.640625-1.519531-1.699219-2.21875-3.980469-1.921875-6.238282l15.121094-129.042968-25.679688-6.320313c-1.9375-.488281-3.621093-1.6875-4.71875-3.359375l-64-96c-.890624-1.292968-1.367187-2.828125-1.363281-4.398437v-79.199219c0-13.699219 11.105469-24.800781 24.800781-24.800781 12.644532.363281 22.800782 10.554687 23.121094 23.199219l7.761719 61.601562 23.199219 29.039062 25.277344-44.242187 7.761718-92.957031-12.558594-52.960938c-3.136718-11.78125 3.726563-23.910156 15.445313-27.285156 11.714844-3.375 23.980469 3.242188 27.59375 14.886719l17.199219 54.316406c.25.777344.382812 1.585937.398437 2.402344v67.039062l24.160157-53.199219 6.320312-56.480468c1.460938-12.59375 12.464844-21.882813 25.125-21.207032 12.660156.679688 22.609375 11.089844 22.714844 23.765626.027344.9375-.027344 1.875-.160156 2.800781l-6.160157 62.082031c-.117187.855469-.359375 1.691406-.71875 2.480469l-24.160156 53.117187 49.839844-44.878906 11.121093-37.121094c2.117188-7.722656 8.171876-13.746094 15.910157-15.820312 7.734375-2.074219 15.992187.113281 21.691406 5.742187 4.316406 4.179688 6.792969 9.910157 6.878906 15.917969-.007812 1.976562-.277343 3.9375-.800781 5.839844l-16.160156 48.480468c-.40625 1.167969-1.058594 2.234376-1.917969 3.121094l-58.722656 58.640625 56.320312-15.28125 22.320313-29.839843c3.703125-5.515626 9.917968-8.816407 16.558594-8.800782 7.355468.125 14.167968 3.902344 18.160156 10.082032.160156.238281.320312.558593.480468.800781 4.773438 6.625 5.597657 15.3125 2.160157 22.71875zm0 0" fill="#002f2f"/><path d="m378.265625 432.238281 18.398437-82.636719 49.9375 10.703126 3.34375-15.648438-49.816406-10.671875 7.949219-35.769531-15.613281-3.472656-8 35.890624-46.542969-9.976562-3.347656 15.648438 46.402343 9.945312-18.703124 84.207031c-27.921876-2.953125-58.632813-4.800781-91.585938-5.535156l-6.054688-90.800781c15.632813-6.472656 27.304688-19.933594 31.496094-36.328125l7.261719-43.554688 75.824219-30.328125c1.503906-.601562 2.785156-1.644531 3.679687-2.988281l32-48c.105469-.160156.203125-.304687.289063-.472656 3.46875-7.390625 2.644531-16.078125-2.152344-22.679688-.144531-.273437-.304688-.539062-.472656-.800781-4.003906-6.1875-10.828125-9.96875-18.199219-10.089844-6.632813-.019531-12.835937 3.285156-16.519531 8.800782l-22.351563 29.808593-56.289062 15.351563 58.695312-58.703125c.882813-.878907 1.542969-1.949219 1.9375-3.128907l16.136719-48.472656c.519531-1.894531.789062-3.851562.800781-5.816406-.097656-6.003906-2.5625-11.726562-6.859375-15.925781-5.734375-5.753907-14.148437-7.9375-21.957031-5.695313-7.671875 2.0625-13.636719 8.09375-15.617187 15.78125l-11.113282 37.128906-49.832031 44.871094 24.128906-53.085937c.363281-.796875.59375-1.644531.679688-2.511719l6.207031-62.097656c.117188-.921875.167969-1.851563.152344-2.785156.046875-12.789063-9.945313-23.367188-22.71875-24.050782-12.769532-.683594-23.832032 8.769532-25.152344 21.492188l-6.261719 56.488281-24.1875 53.222656v-67.070312c0-.816407-.128906-1.625-.375-2.402344l-17.222656-54.34375c-3.070313-9.171875-11.6875-15.328125-21.359375-15.253906-6.863281.019531-13.339844 3.179687-17.570312 8.582031-4.234376 5.402344-5.757813 12.445312-4.136719 19.113281l12.585937 52.914063-7.742187 92.988281-25.28125 44.25-23.199219-29.046875-7.699219-61.601562c-.347656-12.664063-10.53125-22.851563-23.199219-23.199219-13.695312 0-24.800781 11.101562-24.800781 24.800781v79.199219c.003907 1.578125.472657 3.125 1.347657 4.441406l64 96c1.109374 1.660156 2.800781 2.847656 4.742187 3.328125l25.695313 6.316406-12.847657 109.203125c-68.535156 5.125-146.9375 17.03125-146.9375 44.710938 0 4.417969 3.582031 8 8 8h464c4.421875 0 8-3.582031 8-8 0-6.863281 0-27.375-101.972656-40.242188zm-237.097656-134.78125-60.929688-91.378906v-76.796875c0-2.347656.941407-4.597656 2.609375-6.253906 1.664063-1.652344 3.925782-2.570313 6.273438-2.546875 4.941406 0 6.824218 5.535156 7.199218 8.992187l8 64c.183594 1.460938.765626 2.847656 1.6875 4l32 40c1.65625 2.066406 4.226563 3.183594 6.871094 2.976563 2.640625-.207031 5.007813-1.707031 6.320313-4.007813l32-56c.578125-1.011718.933593-2.136718 1.039062-3.296875l8-96c.070313-.84375.007813-1.691406-.191406-2.511719l-12.910156-54.199218c-1.042969-3.398438.867187-7 4.261719-8.042969 3.398437-1.042969 7 .867187 8.042968 4.265625l16.796875 53.054688v102.769531c.003907 3.761719 2.628907 7.015625 6.308594 7.8125 3.675781.796875 7.414063-1.078125 8.972656-4.5l40-88c.347657-.761719.574219-1.570313.671875-2.402344l6.402344-57.765625c.21875-4.417969 3.980469-7.820312 8.398438-7.601562 4.417968.222656 7.820312 3.980468 7.601562 8.402343l-6.152344 61.964844-39.480468 86.777344c-1.566407 3.449219-.496094 7.519531 2.554687 9.757812 3.054687 2.238281 7.261719 2.027344 10.078125-.5l80-72c1.089844-.984375 1.886719-2.246093 2.308594-3.648437l11.859375-39.632813c.542969-2.261719 2.285156-4.046875 4.535156-4.640625 2.273437-.664062 4.726563-.035156 6.398437 1.640625 1.285157 1.1875 2.050782 2.828125 2.136719 4.574219-.011719.414062-.0625.828125-.152343 1.234375l-15.433594 46.207031-78.660156 78.664063c-2.566407 2.566406-3.085938 6.535156-1.265626 9.671875 1.820313 3.136718 5.523438 4.65625 9.023438 3.703125l88-24c1.71875-.46875 3.230469-1.496094 4.296875-2.917969l24.238281-32.328125c.714844-1.257813 2.035156-2.042969 3.480469-2.074219 1.84375.105469 3.539063 1.054688 4.59375 2.570313.109375.191406.222656.382812.34375.558593 1.429687 1.816407 2.15625 4.089844 2.046875 6.398438l-30.398438 45.601562-77.699218 31.070313c-2.59375 1.042969-4.453125 3.363281-4.910156 6.121094l-7.917969 47.578125c-3.613281 12.601562-13.5 22.429687-26.121094 25.964844-3.75.933593-6.296875 4.410156-6.058594 8.265624l7.457031 111.472657h-93.925781l14.972657-127.0625c.472656-4.007813-2.113282-7.742188-6.03125-8.707031zm-112.425781 167.023438c17.167968-6.992188 53.257812-15.578125 116.523437-20.511719l-.417969 3.597656c-.257812 2.269532.460938 4.539063 1.980469 6.238282 1.515625 1.703124 3.691406 2.675781 5.972656 2.675781h111.4375c2.214844.003906 4.335938-.910157 5.851563-2.523438 1.515625-1.617187 2.292968-3.785156 2.148437-5.996093l-.46875-7.066407c34.398438.800781 67.414063 2.914063 95.886719 6.167969 45.039062 5.203125 70.398438 12 83.710938 17.417969zm0 0"/></svg>