<svg height="512pt" viewBox="-17 0 512 512" width="512pt" xmlns="http://www.w3.org/2000/svg"><path d="m85.710938 504.5h307.117187c30.054687 0 44.289063-36.9375 22.097656-57.203125-35.242187-32.183594-92.132812-65.972656-175.65625-65.972656-83.523437 0-140.414062 33.789062-175.65625 65.972656-22.191406 20.265625-7.960937 57.203125 22.097657 57.203125zm0 0" fill="#55555e"/><path d="m163 504.5h152.539062l29.761719-102.214844c-29.085937-12.492187-64.222656-20.960937-106.03125-20.960937-41.808593 0-76.945312 8.46875-106.03125 20.960937zm0 0" fill="#ccf8ff"/><path d="m107.582031 281.179688s-54.691406 9.601562-96.152343 74.441406c-8.214844 12.851562-3.078126 29.988281 10.832031 36.242187 33.515625 15.066407 94.144531 48.210938 140.738281 112.636719 0 0 7.605469-120.363281-55.417969-223.320312zm0 0" fill="#ff737d"/><path d="m87.515625 287.890625c-12.59375 32.882813-23.460937 77.394531-19.667969 128.367187 30.359375 19.066407 65.578125 47.351563 95.152344 88.242188 0 0 7.605469-120.363281-55.417969-223.320312 0 0-7.945312 1.398437-20.066406 6.710937zm0 0" fill="#e55a5a"/><path d="m370.957031 281.179688s54.691407 9.601562 96.148438 74.441406c8.214843 12.851562 3.082031 29.988281-10.828125 36.242187-33.515625 15.066407-94.144532 48.210938-140.738282 112.636719 0 0-7.605468-120.363281 55.417969-223.320312zm0 0" fill="#ff737d"/><path d="m391.023438 287.890625c12.59375 32.882813 23.457031 77.394531 19.667968 128.367187-30.359375 19.066407-65.578125 47.351563-95.152344 88.242188 0 0-7.605468-120.363281 55.417969-223.320312 0 0 7.941407 1.398437 20.066407 6.710937zm0 0" fill="#e55a5a"/><path d="m179.78125 504.492188h118.972656s-8.894531-52.382813-59.484375-52.382813c-50.589843 0-59.488281 52.382813-59.488281 52.382813zm0 0" fill="#ff737d"/><path d="m277.503906 442.910156c0 21.117188-17.117187 38.234375-38.234375 38.234375-21.117187 0-38.234375-17.117187-38.234375-38.234375 0-21.113281 17.117188-38.230468 38.234375-38.230468 21.117188 0 38.234375 17.117187 38.234375 38.230468zm0 0" fill="#ff929f"/><path d="m420.625 337.613281c-19.820312 19.820313-51.953125 19.820313-71.773438 0-19.820312-19.820312-19.820312-51.957031 0-71.773437 19.820313-19.820313 82.914063-50.78125 102.734376-30.960938 19.820312 19.820313-11.140626 82.914063-30.960938 102.734375zm0 0" fill="#d3d3d3"/><path d="m57.914062 337.613281c19.816407 19.820313 51.953126 19.820313 71.773438 0 19.820312-19.820312 19.820312-51.957031 0-71.773437-19.820312-19.820313-82.914062-50.78125-102.734375-30.960938-19.820313 19.820313 11.140625 82.914063 30.960937 102.734375zm0 0" fill="#c2c2c4"/><path d="m239.269531 452.109375c-89.855469 0-163.371093-73.515625-163.371093-163.371094v-84.78125c0-89.855469 73.515624-163.371093 163.371093-163.371093 89.851563 0 163.371094 73.515624 163.371094 163.371093v84.78125c0 89.855469-73.519531 163.371094-163.371094 163.371094zm0 0" fill="#e5e5e5"/><path d="m176.679688 387.789062c-15.90625-19.636718-17.875-47.132812-4.929688-68.835937 18.921875-31.71875 27.253906-73.546875 30.511719-95.347656 1.230469-8.21875 1.832031-16.515625 1.832031-24.828125v-154.351563c-73.09375 16.203125-128.195312 81.746094-128.195312 159.53125v84.78125c0 89.855469 73.515624 163.371094 163.371093 163.371094 12.800781 0 25.28125-1.496094 37.253907-4.3125-49.429688-10.300781-80.835938-36.546875-99.84375-60.007813zm0 0" fill="#d3d3d3"/><path d="m239.269531 7.5c-200.496093 0-163.371093 227.113281-163.371093 227.113281s18.261718-73.28125 70.476562-100.5625c10.6875-5.582031 23.582031-4.832031 33.496094 2.023438l41.257812 28.539062c10.914063 7.546875 25.363282 7.546875 36.277344 0l41.261719-28.539062c9.914062-6.855469 22.804687-7.605469 33.492187-2.023438 52.21875 27.28125 70.476563 100.5625 70.476563 100.5625s37.125-227.113281-163.367188-227.113281zm0 0" fill="#898890"/><path d="m193.375 12.089844c-148.585938 32.171875-117.476562 222.523437-117.476562 222.523437s18.257812-73.28125 70.476562-100.5625c10.6875-5.582031 23.578125-4.832031 33.496094 2.023438l24.21875 16.753906c0-.003906-37.332032-64.097656-10.714844-140.738281zm0 0" fill="#72727a"/><path d="m319.925781 308.632812c4.144531 0 7.5-3.359374 7.5-7.5v-12.453124c0-4.140626-3.355469-7.5-7.5-7.5s-7.5 3.359374-7.5 7.5v12.453124c0 4.140626 3.355469 7.5 7.5 7.5zm0 0"/><path d="m158.613281 308.632812c4.140625 0 7.5-3.359374 7.5-7.5v-12.453124c0-4.140626-3.359375-7.5-7.5-7.5-4.144531 0-7.5 3.359374-7.5 7.5v12.453124c0 4.140626 3.355469 7.5 7.5 7.5zm0 0"/><path d="m213.78125 308.53125v14.636719c0 4.140625 3.355469 7.5 7.5 7.5 4.140625 0 7.5-3.359375 7.5-7.5v-7.929688c3.445312.828125 10.488281 2.1875 20.976562 0v7.929688c0 4.140625 3.359376 7.5 7.5 7.5 4.144532 0 7.5-3.359375 7.5-7.5v-14.636719c.683594-.46875 7.726563-4.507812 3.355469-11.992188-2.089843-3.578124-7.253906-3.867187-10.523437-1.332031-10.785156 8.367188-25.851563 8.367188-36.640625 0-3.273438-2.539062-8.148438-2.066406-10.523438 1.332031-4.753906 6.804688 2.671875 11.523438 3.355469 11.992188zm0 0"/><path d="m473.425781 351.582031c-8.367187-13.082031-17.871093-24.898437-28.300781-35.246093 16.5-28.832032 29.59375-68.929688 11.765625-86.761719-6.621094-6.621094-19.746094-12.300781-45.421875-5.550781 1.015625-10.71875 2.015625-27.90625.882812-48.246094-3.175781-57.015625-20.695312-92.808594-34.832031-112.796875-2.390625-3.382813-7.074219-4.1875-10.453125-1.792969-3.382812 2.390625-4.1875 7.074219-1.792968 10.453125 28.464843 40.25 33.027343 93.5625 32.460937 127.769531-11.136719-24.277344-30.730469-55.617187-62.101563-72.007812-13.214843-6.902344-29.015624-5.945313-41.234374 2.503906l-41.257813 28.539062c-8.296875 5.738282-19.449219 5.738282-27.746094 0l-41.257812-28.539062c-12.21875-8.449219-28.015625-9.410156-41.234375-2.503906-31.386719 16.398437-50.980469 47.757812-62.117188 72.046875-.621094-36.863281 4.722656-95.953125 39.644532-137.046875 26.730468-31.457032 66.714843-47.402344 118.839843-47.402344 44.769531 0 80.691407 11.785156 106.769531 35.03125 3.089844 2.753906 7.832032 2.484375 10.589844-.609375 2.753906-3.089844 2.480469-7.832031-.609375-10.585937-28.910156-25.769532-68.191406-38.835938-116.75-38.835938-56.730469 0-100.558593 17.726562-130.265625 52.6875-24.277344 28.566406-38.96875 69.34375-42.488281 117.925781-1.636719 22.585938-.546875 41.816407.554687 53.425781-16.308593-4.253906-34.53125-5.355468-45.421874 5.535157-17.832032 17.832031-4.734376 57.929687 11.761718 86.765625-10.429687 10.34375-19.933594 22.164062-28.296875 35.246094-5.0859372 7.953124-6.457031 17.703124-3.757812 26.753906 2.703125 9.0625 9.199219 16.488281 17.828125 20.367187 16.070312 7.222657 34.90625 17.097657 54.488281 30.300781-5.1875 4.058594-10.253906 8.3125-15.117187 12.75-12.625 11.53125-16.632813 28.585938-10.460938 44.507813 6.160156 15.875 20.574219 25.734375 37.617188 25.734375h307.117187c17.042969 0 31.457031-9.859375 37.613281-25.734375 6.175782-15.921875 2.167969-32.976563-10.460937-44.507813-4.859375-4.4375-9.925781-8.691406-15.113281-12.753906 19.578124-13.199218 38.417968-23.078125 54.484374-30.300781 8.628907-3.878906 15.128907-11.300781 17.828126-20.363281 2.699218-9.050782 1.332031-18.804688-3.753907-26.757813zm-27.144531-111.402343c6.332031 6.332031 5.585938 22.621093-2.335938 43.441406-15.484374 40.703125-37.15625 55.722656-42.140624 57.863281 5.480468-16.832031 8.335937-34.578125 8.335937-52.746094v-48.722656c17.324219-5.394531 30.570313-5.40625 36.140625.164063zm-296.429688-99.480469c8.261719-4.320313 18.132813-3.726563 25.753907 1.542969l41.257812 28.539062c13.402344 9.269531 31.410157 9.269531 44.8125 0l41.257813-28.539062c7.621094-5.269532 17.492187-5.863282 25.753906-1.542969 45.667969 23.859375 64.261719 86.925781 66.453125 94.894531v53.144531c0 41.457031-16.265625 80.546875-45.792969 110.078125-29.53125 29.53125-68.625 45.792969-110.078125 45.792969s-80.546875-16.261719-110.078125-45.792969c-29.527344-29.53125-45.792968-68.621094-45.792968-110.078125v-53.144531c2.179687-7.96875 20.671874-70.976562 66.453124-94.894531zm154.792969 356.300781c-2.546875-8.800781-8.859375-25.09375-22.863281-37.238281.773438-1.941407 1.414062-3.949219 1.917969-6.015625 9.199219-2.480469 18.15625-5.734375 26.792969-9.726563-2.660157 24.175781-2.875 42.972657-2.710938 52.980469zm-133.890625 0c.167969-10.007812-.046875-28.808594-2.707031-52.980469 8.632813 3.992188 17.585937 7.242188 26.785156 9.722657.503907 2.078124 1.148438 4.09375 1.914063 6.039062-13.984375 12.140625-20.304688 28.421875-22.851563 37.21875zm118.105469-.007812h-99.183594c2.453125-6.832032 7.019531-16.414063 14.984375-24.125 8.457032 9.785156 20.917969 15.78125 34.609375 15.78125 13.664063 0 26.113281-6.089844 34.5625-15.820313 7.992188 7.722656 12.574219 17.324219 15.027344 24.164063zm-49.589844-23.347657c-11.589843 0-21.871093-6.378906-27.105469-16.191406 8.886719 1.417969 17.941407 2.15625 27.105469 2.15625 9.152344 0 18.199219-.734375 27.078125-2.152344-5.230468 9.695313-15.503906 16.1875-27.078125 16.1875zm-223.539062-99.589843c-1.453125-4.871094-.714844-10.113282 2.019531-14.390626 7.132812-11.15625 15.144531-21.296874 23.871094-30.292968 3.824218 5.503906 7.59375 10.152344 10.988281 13.546875 1.460937 1.464843 6.425781 3.785156 10.605469 0 3.070312-2.78125 2.929687-7.679688 0-10.609375-8.28125-8.28125-20.773438-27.664063-28.621094-48.6875-7.792969-20.871094-8.667969-37.109375-2.339844-43.441406 5.527344-5.523438 18.855469-5.515626 36.144532-.148438v48.707031c0 45.460938 17.824218 88.320313 50.1875 120.683594 10.152343 10.152344 21.339843 18.875 33.316406 26.0625 2.515625 19.003906 3.460937 35.355469 3.757812 47.316406-42.445312-51.144531-93.40625-81.183593-130.324218-97.777343-4.648438-2.089844-8.148438-6.089844-9.605469-10.96875zm46.351562 106.785156c-3.042969-7.847656-2.914062-19.328125 6.589844-28.003906 5.695313-5.203126 11.675781-10.144532 17.816406-14.773438 20.917969 15.5 42.167969 34.882812 61.375 58.9375h-62.152343c-12.800782 0-20.597657-8.347656-23.628907-16.160156zm347.785157-28.007813c9.5 8.679688 9.632812 20.15625 6.589843 28.007813-3.03125 7.8125-10.828125 16.160156-23.628906 16.160156h-62.152344c19.207031-24.054688 40.457031-43.4375 61.375-58.9375 6.144531 4.632812 12.125 9.574219 17.816407 14.769531zm52.941406-78.777343c-1.457032 4.878906-4.957032 8.878906-9.605469 10.96875-36.917969 16.59375-87.878906 46.632812-130.324219 97.777343.296875-11.957031 1.242188-28.308593 3.757813-47.3125 11.976562-7.191406 23.164062-15.910156 33.316406-26.0625 14.832031-14.832031 26.597656-31.871093 35.003906-50.351562 11.671875-2.054688 33.808594-15.222657 41.960938-29.699219 8.726562 8.992188 16.738281 19.132812 23.871093 30.289062 2.734376 4.277344 3.46875 9.519532 2.019532 14.390626zm0 0"/></svg>