<svg height="512pt" viewBox="-33 0 511 512" width="512pt" xmlns="http://www.w3.org/2000/svg"><path d="m69.914062 504.5h307.117188c30.058594 0 44.289062-36.9375 22.097656-57.203125-35.242187-32.183594-92.132812-65.972656-175.65625-65.972656-83.523437 0-140.414062 33.789062-175.65625 65.972656-22.191406 20.265625-7.957031 57.203125 22.097656 57.203125zm0 0" fill="#ffc48f"/><path d="m360.414062 418.234375s-11.25 59.183594-56.285156 86.265625c-.179687 0-107.210937 0-107.210937 0s68.78125-70.226562 74.601562-136.367188c.5 0 68.578125 12.777344 88.894531 50.101563zm0 0" fill="#ffddb8"/><path d="m67.195312 432.644531s35.292969 64.539063 99.152344 71.855469h85.90625c-101.9375-45.898438-108.960937-111.660156-108.960937-111.660156s-51.335938-.597656-76.097657 39.804687zm0 0" fill="#ffebd2"/><path d="m112.207031 297.867188c0 28.773437-23.328125 52.101562-52.105469 52.101562-28.773437 0-52.101562-23.328125-52.101562-52.101562 0-28.777344 23.328125-52.105469 52.101562-52.105469 28.777344 0 52.105469 23.328125 52.105469 52.105469zm0 0" fill="#9ad880"/><path d="m438.945312 297.867188c0 28.773437-23.328124 52.101562-52.101562 52.101562-28.777344 0-52.105469-23.328125-52.105469-52.101562 0-28.777344 23.328125-52.105469 52.105469-52.105469 28.773438 0 52.101562 23.328125 52.101562 52.105469zm0 0" fill="#b2e59c"/><path d="m223.472656 452.109375c-89.855468 0-163.371094-73.515625-163.371094-163.371094v-84.78125c0-89.855469 73.515626-163.371093 163.371094-163.371093 89.851563 0 163.371094 73.515624 163.371094 163.371093v84.78125c0 89.855469-73.519531 163.371094-163.371094 163.371094zm0 0" fill="#c8efb9"/><path d="m160.882812 387.789062c-15.90625-19.636718-17.875-47.132812-4.929687-68.835937 26.773437-44.875 32.34375-109.988281 32.34375-109.988281v-164.53125c-73.09375 16.203125-128.195313 81.738281-128.195313 159.523437v84.78125c0 89.855469 73.515626 163.371094 163.371094 163.371094 12.800782 0 25.285156-1.496094 37.257813-4.3125-49.433594-10.300781-80.839844-36.546875-99.847657-60.007813zm0 0" fill="#b2e59c"/><path d="m223.472656 452.109375c44.929688 0 85.777344-18.382813 115.386719-47.996094-56.679687-.328125-172.203125-9.109375-271.664063-67.886719 20.464844 66.882813 82.921876 115.882813 156.277344 115.882813zm0 0" fill="#ffd1a4"/><path d="m156.320312 358.410156s166.863282-5.589844 230.398438-63.503906c.027344-.671875.125 55.0625-26.304688 82.628906 0 0-114.972656 47.511719-204.09375-19.125zm0 0" fill="#ffddb8"/><path d="m59.097656 275.089844s114.242188 132.769531 301.316406 102.445312c0 0-13.179687 38.519532-56.285156 53.128906 0 0-132.867187 22.828126-234.292968-86.515624 0 0-24.570313-39.214844-10.738282-69.058594zm0 0" fill="#ffebd2"/><path d="m223.472656 7.5c-89.855468 0-163.371094 73.515625-163.371094 163.371094h326.742188c0-89.855469-73.519531-163.371094-163.371094-163.371094zm0 0" fill="#ffd1a4"/><path d="m135.320312 143.613281c-8.855468-39.566406 21.074219-68.464843 21-68.445312-11.285156-16.257813-10.121093-35.355469-6.296874-50.113281-53.222657 27.007812-89.921876 82.335937-89.921876 145.8125h62.554688c3.628906-17.457032 12.664062-27.253907 12.664062-27.253907zm0 0" fill="#ffc48f"/><path d="m160.414062 171.519531s116.410157 88.242188 226.429688 74.242188c0 0 17.371094-48.828125-.234375-83.570313 0 0-79.371094.660156-163.136719-35.191406zm0 0" fill="#ffddb8"/><path d="m61.019531 153.621094s-11.453125-38.75 21.539063-65.136719c.902344-1.519531 136.789062-11.421875 194.324218-71.964844-1.441406-.492187 44.082032-2.082031 57.855469 35.011719 0 0-40.113281 66.941406-131.308593 95.957031-91.195313 29.019531-142.410157 6.132813-142.410157 6.132813zm0 0" fill="#ffddb8"/><path d="m135.320312 143.613281c-8.855468-39.566406 21.070313-68.464843 21-68.445312-40.300781 9.800781-73.316406 12.570312-73.761718 13.316406-32.992188 26.386719-21.539063 65.140625-21.539063 65.140625s22.425781 10.039062 64.101563 8.386719c4.183594-11.871094 10.199218-18.398438 10.199218-18.398438zm0 0" fill="#ffd1a4"/><path d="m334.738281 51.53125s-97.933593 90.710938-273.71875 102.089844c-.152343 1.53125-34.230469 34.191406-.917969 92.140625 0 0 196.089844-34.84375 309.363282-147.96875 0-.003907 7.390625-31.535157-34.726563-46.261719zm0 0" fill="#ffebd2"/><path d="m67.195312 336.230469c11.941407 39.027343 38.1875 71.964843 72.546876 92.628906-4.117188-15.339844 3.066406-28.152344 3.066406-28.152344-5.46875-11.789062-6.507813-22.59375-5.566406-31.433593-23.585938-8.71875-47.246094-19.570313-70.046876-33.042969zm0 0" fill="#ffc48f"/><path d="m59.097656 275.089844c-13.832031 29.84375 10.738282 69.058594 10.738282 69.058594 23.328124 25.148437 48.316406 43.292968 72.972656 56.339843-15.765625-34.003906 5.113281-58.242187 5.113281-58.242187-57.210937-30.414063-88.824219-67.15625-88.824219-67.15625zm0 0" fill="#ffddb8"/><path d="m134.847656 226.730469c-30.949218-47.730469.472656-83.117188.472656-83.117188-22.9375 4.753907-47.734374 8.289063-74.300781 10.007813-.152343 1.53125-34.230469 34.191406-.917969 92.140625 0 0 30.667969-5.449219 74.746094-19.03125zm0 0" fill="#ffddb8"/><path d="m304.128906 281.179688c-4.140625 0-7.5 3.359374-7.5 7.5v12.453124c0 4.140626 3.359375 7.5 7.5 7.5 4.144532 0 7.5-3.359374 7.5-7.5v-12.453124c0-4.140626-3.355468-7.5-7.5-7.5zm0 0"/><path d="m142.816406 281.179688c-4.144531 0-7.5 3.359374-7.5 7.5v12.453124c0 4.140626 3.355469 7.5 7.5 7.5 4.144532 0 7.5-3.359374 7.5-7.5v-12.453124c0-4.140626-3.355468-7.5-7.5-7.5zm0 0"/><path d="m405.113281 338.570312c-3.777343 1.699219-5.304687 6.070313-3.765625 9.914063 2.496094 6.246094 8.917969 4.214844 9.914063 3.765625 21.375-9.609375 35.183593-30.957031 35.183593-54.382812 0-29.519532-21.578124-54.085938-49.785156-58.78125 4.28125-16.277344 10.679688-50.941407-2.660156-78.851563-1.382812-22.230469-7.015625-43.621094-16.765625-63.644531.421875-3.792969-1.34375-39.449219-36.792969-50.933594-14.542968-33.144531-52.234375-37.28125-62.765625-36.785156-17.453125-5.882813-35.679687-8.871094-54.203125-8.871094-30.21875 0-59.96875 8.089844-86.035156 23.390625-24.878906 14.605469-45.816406 35.378906-60.640625 60.121094-29.503906 24.449219-26.046875 57.441406-23.851563 68.5-18.152343 24.710937-19.703124 55.367187-4.605468 87.421875-27.25 5.476562-47.839844 29.59375-47.839844 58.429687 0 32.867188 26.738281 59.605469 59.601562 59.605469 2.292969 0 4.582032-.136719 6.851563-.398438 6.683594 15.210938 15.449219 29.148438 25.886719 41.519532-12.636719 6.902344-22.847656 16.167968-30.449219 27.652344 0 0-13.472656 9.894531-19.628906 15.515624-12.628907 11.53125-16.636719 28.585938-10.460938 44.507813 6.15625 15.875 20.570313 25.734375 37.613281 25.734375h307.117188c17.042969 0 31.457031-9.859375 37.613281-25.734375 6.175781-15.921875 2.167969-32.976563-10.460937-44.507813-11.847656-10.820312-24.703125-20.527343-38.214844-28.898437-2.542969-4.300781-5.730469-8.453125-9.53125-12.414063 6.035156-8.53125 9.253906-15.808593 10.488281-18.921874 11.328125-12.410157 19.207031-30.636719 23.863281-54.152344 5.59375-28.226563 3.53125-73.46875 3.53125-73.46875 21.046876 3.570312 37.125 21.917968 37.125 43.964844 0 17.53125-10.335937 33.507812-26.332031 40.703124zm-25.886719-47.054687c-48.164062 41.097656-153.285156 54.066406-198.765624 57.835937-12.457032-5.199218-24.695313-11.164062-36.65625-17.910156-36.964844-20.839844-64.417969-45.5-76.203126-58.117187v-21.375c15.164063-3.082031 56.429688-12.3125 107.253907-30.695313 9.882812-3.574218 20.460937-7.636718 31.480469-12.1875 66.390624 35.980469 105.292968 46.933594 172.984374 45.011719zm-76.90625 131.839844c-5.214843.773437-46.925781 6.261719-98.683593-7.246094-4.007813-1.050781-8.105469 1.355469-9.152344 5.363281-1.046875 4.007813 1.355469 8.101563 5.363281 9.148438 23.191406 6.054687 44.292969 8.515625 61.445313 9.273437-12.328125 3.101563-25.03125 4.714844-37.820313 4.714844-50.816406 0-97.769531-25.09375-126.644531-65.277344 22.457031 17.808594 47.242187 31.914063 74.09375 42.078125 3.875 1.46875 8.203125-.484375 9.671875-4.359375 1.464844-3.875-.488281-8.203125-4.359375-9.667969-38.125-14.429687-71.890625-37.230468-100.375-67.769531-2.328125-3.957031-15.835937-28.050781-13.148437-49.902343 12.492187 12.273437 37.3125 34.1875 73.199218 54.5 30.808594 17.4375 63.40625 30.03125 96.882813 37.433593 37.300781 8.246094 75.769531 10.027344 114.554687 5.316407-7 11.367187-20.832031 28-45.027344 36.394531zm-111.550781 33.058593c10.652344 2.101563 21.59375 3.195313 32.703125 3.195313.15625 0 .3125-.007813.46875-.007813-3.445312 4.867188-7.078125 9.726563-10.859375 14.554688-8.132812-5.597656-15.566406-11.519531-22.3125-17.742188zm187.714844-301.929687c-10.804687-.453125-31.683594-1.90625-57.839844-6.589844 16.234375-11.296875 31.914063-23.746093 46.449219-37.398437 5.96875 14.058594 9.792969 28.789062 11.390625 43.988281zm-75.632813 5.207031c38.019532 8.085938 67.632813 9.644532 78.914063 9.9375 10.332031 25.222656 2.71875 57.609375-.625 69.230469-33.667969 3.324219-86.503906-1.363281-157.0625-37.394531 25.421875-11.292969 52.496094-25.125 78.773437-41.773438zm-79.378906-144.691406c13.191406 0 26.214844 1.660156 38.863282 4.941406-20.316407 17.269532-49.925782 31.621094-88.261719 42.746094-30.1875 8.761719-58.851563 13.433594-75.976563 15.890625 29.289063-39.566406 75.964844-63.578125 125.375-63.578125zm-137.539062 80.417969c1.308594-.195313 55.035156-7.507813 92.320312-18.324219 45.578125-13.230469 79.835938-31.109375 101.890625-53.171875 7.777344.347656 34.125 3.238281 45.511719 25.542969-7.855469 6.523437-27.21875 21.53125-57.128906 37.835937-36.886719 20.105469-97.519532 46.128907-176.890625 55.917969-4.109375.507812-7.03125 4.25-6.527344 8.363281.507813 4.109375 4.25 7.03125 8.363281 6.523438 81.714844-10.078125 144.203125-36.90625 182.234375-57.632813 32.394531-17.660156 52.800781-33.761718 60.582031-40.335937 26.199219 9.40625 26.28125 31.667969 26.097657 34.109375-57.332031 56.386718-136.097657 92.429687-192.359375 112.800781-50.164063 18.164063-91.753906 27.40625-105.984375 30.304687-11.199219-21.484374-18.652344-50.992187 1.90625-77.703124 1.238281-1.605469 3.378906-4.144532 2.261719-8.152344-.097657-.332032-9.398438-33.140625 17.722656-56.078125zm-70.433594 202.449219c0-22.039063 16.070312-40.382813 37.101562-43.960938v17.457031c-.109374.1875-11.140624 40.492188 7.6875 71.101563-.0625 0-44.789062-3.5-44.789062-44.597656zm30.785156 182.972656c-3.042968-7.847656-2.914062-19.328125 6.589844-28.003906 3.789062-3.460938 7.71875-6.808594 11.726562-10.03125 7.777344 11.992187 26.710938 37.539062 55.996094 54.195312h-50.683594c-12.800781 0-20.597656-8.347656-23.628906-16.160156zm120.5 16.160156c-50.222656-5.980469-82.210937-50.785156-90.726562-64.183594 6.789062-9.59375 15.957031-17.238281 27.335937-22.804687 16.851563 16.65625 37.011719 29.714843 59.152344 38.246093 14.878906 18.414063 34.515625 34.738282 58.609375 48.742188zm233.875-16.160156c-3.03125 7.8125-10.828125 16.160156-23.628906 16.160156h-50.804688c23.289063-22.074219 34.378907-51.375 38.910157-66.839844 10.148437 6.789063 19.855469 14.382813 28.933593 22.675782 9.503907 8.675781 9.632813 20.15625 6.589844 28.003906zm-48.210937-61.371094c-2.734375 11.21875-15.441407 55.308594-50.449219 77.53125h-48.09375c-10.03125-4.574219-19.417969-9.484375-28.144531-14.710938 6.136719-7.890624 11.867187-15.863281 17.113281-23.816406 22.574219-2.601562 44.507812-9.707031 64.355469-20.949218 17.488281-6.066407 30.355469-15.714844 39.59375-25.394532 2.171875 2.390625 4.058593 4.839844 5.625 7.339844zm4.214843-48.949219c-40.742187 6.292969-81.195312 5.148438-120.273437-3.441406-7.785156-1.710937-15.519531-3.722656-23.191406-6.019531 21.414062-2.632813 46.207031-6.589844 71.113281-12.511719 40.046875-9.519531 71.484375-22.042969 93.761719-37.320313-1.949219 16.855469-7.21875 42.988282-21.410157 59.292969zm0 0"/></svg>