<svg height="512pt" viewBox="-57 0 512 512" width="512pt" xmlns="http://www.w3.org/2000/svg"><path d="m45.890625 504.5h307.121094c30.054687 0 44.289062-36.9375 22.09375-57.203125-35.242188-32.183594-92.128907-65.972656-175.65625-65.972656-83.523438 0-140.410157 33.789062-175.652344 65.972656-22.195313 20.265625-7.960937 57.203125 22.09375 57.203125zm0 0" fill="#898890"/><path d="m199.449219 381.324219c-83.523438 0-140.410157 33.789062-175.652344 65.972656-22.195313 20.265625-7.960937 57.203125 22.09375 57.203125h97.253906c-4.421875-18.949219 7.28125-40.214844 29.109375-43.921875 51.726563-8.789063 91.433594-32.234375 91.433594-32.234375v-39.792969c-19.382812-4.554687-40.757812-7.226562-64.238281-7.226562zm0 0" fill="#72727a"/><path d="m149.796875 484.507812-47.734375-16.3125c-8.246094-2.816406-12.683594-11.863281-9.867188-20.105468 2.816407-8.246094 11.863282-12.683594 20.109376-9.867188l47.734374 16.308594c8.242188 2.816406 12.683594 11.867188 9.867188 20.109375s-11.867188 12.683594-20.109375 9.867187zm0 0" fill="#efefef"/><path d="m168.496094 461.417969c-1.859375-3.121094-4.773438-5.628907-8.457032-6.886719l-47.734374-16.308594c-8.246094-2.816406-17.292969 1.621094-20.109376 9.867188-2.816406 8.242187 1.621094 17.289062 9.867188 20.105468l42.773438 14.617188c3.9375-9.929688 12.164062-18.207031 23.660156-21.394531zm0 0" fill="#e0e0e0"/><path d="m249.105469 484.507812 47.738281-16.3125c8.242188-2.816406 12.679688-11.863281 9.867188-20.105468-2.820313-8.246094-11.867188-12.683594-20.109376-9.867188l-47.738281 16.308594c-8.242187 2.816406-12.679687 11.867188-9.867187 20.109375 2.820312 8.242187 11.867187 12.683594 20.109375 9.867187zm0 0" fill="#efefef"/><path d="m362.820312 225.757812v-42.382812c0-89.851562-46.816406-175.875-163.367187-175.875s-163.371094 86.023438-163.371094 175.875v42.382812c0 10.328126-4.179687 20.164063-11.421875 27.527344-10.609375 10.785156-17.160156 25.582032-17.160156 41.910156 0 33.011719 26.761719 59.773438 59.773438 59.773438h.003906c39.289062 0 35.667968 41.101562 35.667968 41.101562 0 17.75 14.519532 32.273438 32.269532 32.273438 10.636718 0 20.113281-5.214844 26-13.214844 3.046875-4.140625 9.191406-4.140625 12.234375 0 5.890625 8 15.363281 13.214844 26 13.214844 10.640625 0 20.113281-5.214844 26-13.214844 3.046875-4.140625 9.191406-4.140625 12.238281 0 5.886719 8 15.363281 13.214844 26 13.214844 17.75 0 32.269531-14.523438 32.269531-32.273438 0 0-2.8125-41.101562 35.667969-41.101562 33.011719 0 59.773438-26.761719 59.773438-59.773438 0-16.328124-6.546876-31.125-17.160157-41.910156-7.242187-7.363281-11.417969-17.199218-11.417969-27.527344zm0 0" fill="#efefef"/><path d="m127.855469 200.457031c-19.367188-94.378906 9.328125-156.765625 32.984375-189.453125-88.382813 16.988282-124.757813 93.195313-124.757813 172.371094v42.382812c0 10.328126-4.179687 20.164063-11.421875 27.527344-10.609375 10.785156-17.160156 25.582032-17.160156 41.910156 0 33.011719 26.761719 59.773438 59.773438 59.773438h.003906c39.289062 0 35.667968 41.101562 35.667968 41.101562 0 17.75 14.519532 32.273438 32.269532 32.273438 10.636718 0 20.113281-5.214844 26-13.214844 3.046875-4.140625 9.191406-4.140625 12.234375 0 5.890625 8 15.363281 13.214844 26 13.214844 0 0-38.546875-66.820312-71.59375-227.886719zm0 0" fill="#e0e0e0"/><g fill="#898890"><path d="m116.136719 230.136719c30.332031-4.046875 57.375 11.066406 60.402343 33.761719 3.027344 22.695312-19.105468 44.371093-49.4375 48.417968-30.328124 4.050782-46.308593-12.542968-49.339843-35.234375-3.027344-22.695312 8.042969-42.894531 38.375-46.945312zm0 0"/><path d="m282.765625 230.136719c-30.332031-4.046875-57.375 11.066406-60.402344 33.761719-3.027343 22.695312 19.105469 44.371093 49.4375 48.417968 30.328125 4.050782 46.308594-12.542968 49.339844-35.234375 3.027344-22.695312-8.042969-42.894531-38.375-46.945312zm0 0"/><path d="m223.585938 339.527344c0 13.328125-10.804688 14.703125-24.136719 14.703125-13.328125 0-24.132813-1.375-24.132813-14.703125s10.804688-37.058594 24.132813-37.058594c13.332031 0 24.136719 23.730469 24.136719 37.058594zm0 0"/></g><path d="m113.042969 230.625c-27.984375 4.976562-38.203125 24.554688-35.277344 46.457031 3.027344 22.691407 19.007813 39.285157 49.339844 35.234375 1.386719-.183594 2.75-.417968 4.101562-.675781-26.40625-28.941406-22.800781-62.984375-18.164062-81.015625zm0 0" fill="#72727a"/><path d="m264.445312 230.023438c-22.222656 2.710937-39.683593 15.917968-42.082031 33.890624-3.027343 22.691407 19.105469 44.371094 49.433594 48.417969 1.394531.1875 2.75.316407 4.085937.414063-18.628906-30.476563-16.261718-62.277344-11.4375-82.722656zm0 0" fill="#72727a"/><path d="m183.972656 262.90625c-3.570312-26.757812-34.449218-44.792969-68.828125-40.203125-16.257812 2.171875-28.964843 8.902344-36.742187 19.46875-7.125 9.671875-9.914063 22.089844-8.074219 35.902344 1.84375 13.8125 7.792969 25.0625 17.207031 32.527343 8.171875 6.488282 24.925782 11.363282 40.5625 9.152344 16.246094-2.300781 30.996094-9.023437 41.480469-19.292968 11.066406-10.839844 16.179687-24.179688 14.394531-37.554688zm-24.890625 26.835938c-8.1875 8.019531-19.894531 13.398437-32.972656 15.144531-12.296875 1.640625-21.789063-.859375-29.253906-6.035157-9.054688-6.28125-19.519531-29.945312-6.375-47.785156 5.382812-7.3125 14.347656-11.851562 26.648437-13.496094 3.007813-.398437 48.597656-3.515624 51.976563 27.320313.941406 8.601563-2.414063 17.402344-10.023438 24.851563zm0 0"/><path d="m311.367188 310.601562c9.414062-7.464843 15.363281-18.714843 17.207031-32.527343 1.839843-13.816407-.949219-26.230469-8.070313-35.902344-7.78125-10.566406-20.488281-17.296875-36.746094-19.46875-16.265624-2.171875-32.277343.578125-45.089843 7.742187-13.523438 7.558594-21.953125 19.085938-23.738281 32.460938-3.570313 26.757812 21.425781 52.835938 55.878906 56.847656 19.003906 2.210938 32.386718-2.664062 40.558594-9.152344zm-81.570313-45.710937c1.144531-8.574219 6.894531-16.15625 16.1875-21.351563 7.71875-4.316406 24.398437-7.757812 35.789063-5.964843 23.070312 3.628906 34.785156 17.125 31.929687 38.515625-1.316406 9.886718-5.347656 17.757812-11.65625 22.765625-7.113281 5.640625-16.957031 7.671875-29.257813 6.03125-26.179687-3.496094-45.46875-21.4375-42.992187-39.996094zm0 0"/><path d="m199.449219 361.730469c9.46875 0 31.636719 0 31.636719-22.203125 0-15.300782-12.320313-44.558594-31.636719-44.558594-19.3125 0-31.632813 29.257812-31.632813 44.558594 0 22.203125 22.167969 22.203125 31.632813 22.203125zm0-51.761719c6.6875 0 16.636719 17.679688 16.636719 29.558594 0 4.335937 0 7.203125-16.636719 7.203125-16.632813 0-16.632813-2.867188-16.632813-7.203125 0-11.878906 9.949219-29.558594 16.632813-29.558594zm0 0"/><path d="m380.164062 441.757812c-22.734374-20.761718-48.535156-37.039062-76.734374-48.445312.121093-4.75 1.167968-16.003906 8.0625-23.382812 4.6875-5.023438 11.277343-7.460938 20.136718-7.460938 37.09375 0 67.273438-30.179688 67.273438-67.277344 0-17.757812-6.859375-34.507812-19.3125-47.167968-5.976563-6.074219-9.269532-13.984376-9.269532-22.265626v-42.382812c0-39.910156-8.933593-76.585938-25.832031-106.050781-2.0625-3.589844-6.648437-4.832031-10.238281-2.773438-3.59375 2.0625-4.835938 6.644531-2.773438 10.238281 15.597657 27.199219 23.847657 61.289063 23.847657 98.585938v42.382812c0 12.246094 4.820312 23.886719 13.570312 32.785157 9.679688 9.835937 15.007813 22.851562 15.007813 36.648437 0 28.824219-23.449219 52.277344-52.273438 52.277344-13.058594 0-23.523437 4.109375-31.101562 12.222656-12.707032 13.609375-12.210938 33.695313-12.066406 36.574219-.105469 13.570313-11.175782 24.578125-24.773438 24.578125-7.8125 0-15.277344-3.800781-19.957031-10.164062-2.882813-3.914063-7.316407-6.160157-12.160157-6.160157-4.847656 0-9.277343 2.246094-12.15625 6.160157-4.683593 6.363281-12.144531 10.164062-19.960937 10.164062s-15.277344-3.800781-19.960937-10.164062c-2.878907-3.914063-7.3125-6.160157-12.15625-6.160157-4.847657 0-9.277344 2.246094-12.160157 6.160157-4.683593 6.363281-12.144531 10.164062-19.957031 10.164062-13.574219 0-24.632812-10.976562-24.773438-24.519531.207032-3.152344.945313-22.816407-11.449218-36.351563-7.597656-8.296875-18.269532-12.503906-31.71875-12.503906-28.824219 0-52.273438-23.453125-52.273438-52.277344 0-13.796875 5.328125-26.8125 15.003906-36.648437 8.753907-8.898438 13.574219-20.539063 13.574219-32.785157v-42.382812c0-46.21875 12.902344-87.746094 36.328125-116.9375 27.390625-34.132812 67.613282-51.4375 119.542969-51.4375 49.882813 0 89.035156 16.023438 116.363281 47.625 2.710938 3.132812 7.449219 3.476562 10.582032.769531 3.132812-2.710937 3.472656-7.449219.765624-10.582031-14.4375-16.691406-32.152343-29.648438-52.652343-38.511719-21.953125-9.488281-47.207031-14.300781-75.058594-14.300781-55.90625 0-101.289063 19.726562-131.242187 57.046875-25.554688 31.84375-39.628907 76.707031-39.628907 126.328125v42.382812c0 8.28125-3.292969 16.191407-9.269531 22.265626-12.453125 12.660156-19.3125 29.410156-19.3125 47.167968 0 37.097656 30.179688 67.277344 67.277344 67.277344 9.160156 0 15.898437 2.476562 20.601562 7.574219 8.765625 9.503906 7.5625 25.808593 7.5625 26.027343 0 21.929688 17.84375 39.773438 39.773438 39.773438 12.566406 0 24.542968-6.082031 32.078125-16.316406l.117187.042968c7.496094 10.191407 19.472656 16.273438 32.039063 16.273438 12.566406 0 24.546875-6.082031 32.082031-16.316406 0 0 10.460938 16.316406 32.15625 16.316406 17.511719 0 32.40625-11.382812 37.699219-27.132812 25.148437 10.644531 48.214843 25.453124 68.660156 44.125 9.503906 8.675781 9.636719 20.15625 6.589844 28.003906-3.027344 7.8125-10.828125 16.160156-23.625 16.160156h-307.121094c-12.796875 0-20.597656-8.347656-23.625-16.160156-3.046875-7.847656-2.914063-19.328125 6.589844-28.003906 14.441406-13.191407 30.355469-24.570313 47.304687-33.824219 3.636719-1.988281 4.972656-6.542969 2.988282-10.179688-1.984376-3.632812-6.539063-4.972656-10.175782-2.988281-18.003906 9.832031-34.90625 21.917969-50.234375 35.914062-12.625 11.53125-16.632812 28.585938-10.460937 44.507813 6.160156 15.875 20.570312 25.734375 37.613281 25.734375h307.121094c17.042969 0 31.457031-9.859375 37.613281-25.734375 6.175781-15.921875 2.167969-32.976563-10.460938-44.507813zm0 0"/><path d="m147.371094 491.605469c2.492187.847656 5.027344 1.253906 7.527344 1.253906 9.707031 0 18.792968-6.109375 22.105468-15.792969 4.160156-12.179687-2.363281-25.472656-14.539062-29.632812l-47.738282-16.308594c-12.179687-4.160156-25.46875 2.359375-29.628906 14.539062-4.160156 12.175782 2.363282 25.46875 14.539063 29.628907zm-48.082032-41.09375c1.488282-4.351563 6.238282-6.679688 10.589844-5.191407l47.734375 16.308594c4.351563 1.484375 6.679688 6.234375 5.195313 10.585938-1.488282 4.351562-6.234375 6.683594-10.589844 5.195312l-47.734375-16.308594c-4.347656-1.488281-6.679687-6.238281-5.195313-10.589843zm0 0"/><path d="m244.007812 492.859375c2.496094 0 5.03125-.40625 7.523438-1.253906l47.734375-16.3125c5.882813-2.007813 10.636719-6.203125 13.390625-11.8125 2.75-5.605469 3.160156-11.933594 1.148438-17.816407-2.011719-5.882812-6.203126-10.640624-11.8125-13.390624-5.609376-2.75-11.9375-3.160157-17.816407-1.148438l-47.738281 16.308594c-12.175781 4.160156-18.699219 17.453125-14.539062 29.632812 3.3125 9.6875 12.398437 15.792969 22.109374 15.792969zm-2.71875-31.230469 47.734376-16.3125c.871093-.296875 1.773437-.445312 2.667968-.445312 1.261719 0 2.519532.292968 3.695313.867187 2.007812.988281 3.511719 2.683594 4.222656 4.773438.714844 2.089843.566406 4.351562-.421875 6.359375-.984375 2.011718-2.679688 3.511718-4.773438 4.226562l-47.730468 16.3125c-4.351563 1.484375-9.101563-.84375-10.589844-5.195312-1.484375-4.351563.84375-9.101563 5.195312-10.585938zm0 0"/></svg>