<svg height="512pt" viewBox="-33 0 511 512" width="512pt" xmlns="http://www.w3.org/2000/svg"><path d="m69.25 504.5h307.121094c30.054687 0 44.289062-36.9375 22.09375-57.203125-35.242188-32.183594-92.128906-65.972656-175.652344-65.972656-83.527344 0-140.414062 33.789062-175.65625 65.972656-22.195312 20.265625-7.960938 57.203125 22.09375 57.203125zm0 0" fill="#c9eaf2"/><path d="m222.8125 381.324219c-83.523438 0-140.414062 33.789062-175.65625 65.972656-22.195312 20.265625-7.960938 57.203125 22.09375 57.203125h191.335938c29.769531-19.378906 35.382812-39.300781 35.382812-39.300781v-74.386719c-21.691406-5.921875-46.007812-9.488281-73.15625-9.488281zm0 0" fill="#a9dbe0"/><path d="m386.179688 90c-52.453126-83-136.304688-82.5-163.367188-82.5s-110.914062-.5-163.371094 82.5c-48.949218 77.457031-12.160156 243.589844-49.289062 330.523438-5.351563 12.535156-1.203125 27.070312 9.910156 34.957031 14.335938 10.175781 36.210938 18.550781 63.925781 4.988281 50-24.46875 63.648438 22.558594 138.824219 22.558594s88.824219-47.027344 138.824219-22.558594c27.714843 13.5625 49.589843 5.1875 63.925781-4.988281 11.113281-7.886719 15.261719-22.421875 9.90625-34.957031-37.128906-86.933594-.335938-253.066407-49.289062-330.523438zm0 0" fill="#e1f7ff"/><path d="m134.65625 288.679688c-11.800781-103.34375 49.59375-232.917969 74.859375-281.015626-35.109375 1.125-104.457031 10.15625-150.074219 82.335938-48.949218 77.457031-12.160156 243.589844-49.289062 330.523438-5.351563 12.535156-1.203125 27.070312 9.910156 34.957031 14.335938 10.175781 36.210938 18.550781 63.925781 4.988281 50-24.46875 63.648438 22.558594 138.824219 22.558594 13.289062 0 24.644531-1.46875 34.628906-3.75-50.960937-64.011719-112.875-103.78125-122.785156-190.597656zm0 0" fill="#c9eaf2"/><path d="m142.15625 332.941406c-26.488281 11.949219-47.804688 1.285156-57.1875-19.503906-9.378906-20.789062-3.265625-43.828125 23.21875-55.78125 26.488281-11.949219 55.5625-4.785156 64.941406 16.003906 9.378906 20.789063-4.488281 47.332032-30.972656 59.28125zm0 0" fill="#898890"/><path d="m303.46875 332.941406c26.488281 11.949219 47.804688 1.285156 57.183594-19.503906 9.382812-20.789062 3.269531-43.828125-23.214844-55.78125-26.488281-11.949219-55.5625-4.785156-64.941406 16.003906-9.378906 20.789063 4.488281 47.332032 30.972656 59.28125zm0 0" fill="#898890"/><path d="m303.46875 308.632812c4.144531 0 7.5-3.359374 7.5-7.5v-12.453124c0-4.140626-3.355469-7.5-7.5-7.5-4.140625 0-7.5 3.359374-7.5 7.5v12.453124c0 4.140626 3.355469 7.5 7.5 7.5zm0 0"/><path d="m142.15625 308.632812c4.140625 0 7.5-3.359374 7.5-7.5v-12.453124c0-4.140626-3.359375-7.5-7.5-7.5-4.144531 0-7.5 3.359374-7.5 7.5v12.453124c0 4.140626 3.355469 7.5 7.5 7.5zm0 0"/><path d="m222.8125 316.484375c9.707031 0 19.414062-3.140625 27.511719-9.421875 3.273437-2.539062 3.871093-7.25 1.332031-10.523438-2.539062-3.273437-7.253906-3.867187-10.523438-1.332031-10.789062 8.367188-25.855468 8.367188-36.640624 0-3.273438-2.539062-7.988282-1.945312-10.523438 1.332031-2.539062 3.273438-1.945312 7.984376 1.328125 10.523438 8.101563 6.28125 17.808594 9.421875 27.515625 9.421875zm0 0"/><path d="m442.367188 417.578125c-16.628907-38.9375-17.980469-96.578125-19.28125-152.320313-1.5625-66.828124-3.175782-135.929687-30.5625-179.265624-54.027344-85.484376-139.773438-85.992188-168.707032-85.992188-.175781 0-.351562 0-.523437 0h-.964844c-24.863281.0078125-100.585937-.0117188-154.804687 65.988281-2.628907 3.199219-2.167969 7.925781 1.03125 10.554688 3.199218 2.628906 7.929687 2.167969 10.558593-1.035157 49.71875-60.519531 117.652344-60.523437 143.214844-60.507812h.96875c26.414063-.003906 106.605469-.011719 156.542969 79.007812 25.171875 39.824219 26.734375 106.8125 28.25 171.601563 1.335937 57.160156 2.71875 116.269531 20.484375 157.863281 3.925781 9.191406.832031 20.085938-7.355469 25.894532-16.421875 11.660156-33.976562 13.753906-52.164062 6.230468-3.828126-1.585937-8.214844.234375-9.796876 4.0625-1.582031 3.828125.238282 8.214844 4.0625 9.796875 8.960938 3.707031 20.816407 6.453125 38.324219 4.46875-.5 5.039063-5.097656 23.074219-25.273437 23.074219h-307.121094c-16.742188 0-24.765625-18.019531-25.269531-23.046875 14.097656 2.625 28.714843.390625 43.300781-6.746094 23.746094-11.621093 37.398438-5.304687 58.0625 4.261719 18.339844 8.492188 41.167969 19.058594 77.46875 19.058594 36.296875 0 59.125-10.566406 77.46875-19.058594 13.867188-6.417969 24.8125-11.492188 37.683594-10.40625 4.121094.339844 7.753906-2.714844 8.101562-6.84375s-2.714844-7.757812-6.84375-8.105469c-16.816406-1.414062-30.625 4.976563-45.242187 11.742188-17.894531 8.28125-38.171875 17.671875-71.167969 17.671875s-53.273438-9.390625-71.167969-17.671875c-21.890625-10.136719-40.792969-18.882813-70.953125-4.125-19.691406 9.636719-38.628906 8.167969-56.289062-4.367188-8.1875-5.808593-11.277344-16.699219-7.351563-25.894531 17.765625-41.59375 19.148438-100.703125 20.484375-157.863281 1.445313-61.816407 2.9375-125.738281 24.953125-166 1.988281-3.632813.652344-8.191407-2.980469-10.175781-3.636718-1.988282-8.191406-.652344-10.179687 2.980468-23.765625 43.460938-25.304687 109.234375-26.789063 172.84375-1.304687 55.746094-2.652343 113.386719-19.285156 152.324219-6.675781 15.640625-2.351562 41.597656 25.667969 51.621094-.535156 10.039062 9.320313 42.800781 40.328125 42.800781h307.121094c35.941406 0 40.867187-32.769531 40.332031-42.8125 27.832031-7.886719 32.34375-35.96875 25.664063-51.609375zm0 0"/><path d="m104.457031 342.46875c5.160157 1.980469 22.023438 6.128906 40.78125-2.691406 14.230469-6.6875 25.875-17.007813 32.5-29.6875 6.9375-13.28125 7.730469-27.3125 2.226563-39.511719s-16.546875-20.890625-31.097656-24.476563c-13.890626-3.421874-29.433594-1.746093-43.761719 4.71875-14.378907 6.488282-24.410157 16.445313-29.003907 28.796876-4.261718 11.449218-3.539062 24.554687 2.03125 36.90625 5.570313 12.347656 14.921876 21.5625 26.324219 25.945312zm-14.296875-57.621094c3.164063-8.511718 10.46875-15.550781 21.113282-20.351562 7.527343-3.398438 24.902343-5.734375 34.003906-3.832032 10.0625 2.105469 17.445312 8.171876 21.015625 16.082032 3.566406 7.910156 2.910156 17.285156-1.847657 26.398437-5.078124 9.714844-14.089843 17.867188-25.375 22.960938-10.644531 4.800781-20.753906 5.621093-29.234374 2.359375-7.800782-2.996094-14.035157-9.261719-18.03125-18.109375-3.992188-8.851563-4.5625-17.671875-1.644532-25.507813zm0 0"/><path d="m300.382812 339.777344c17.886719 7.585937 35.625 4.671875 40.785157 2.691406 11.402343-4.382812 20.75-13.597656 26.320312-25.945312 5.574219-12.347657 6.292969-25.457032 2.035157-36.90625-4.597657-12.347657-14.625-22.308594-29.003907-28.792969-30.214843-13.632813-63.796875-4.769531-74.859375 19.753906-5.503906 12.199219-4.714844 26.230469 2.226563 39.511719 6.621093 12.679687 18.023437 23.546875 32.496093 29.6875zm-21.050781-63.03125c5.050781-11.195313 17.492188-17.398438 31.882813-17.398438 7.441406 0 15.40625 1.660156 23.136718 5.148438 10.644532 4.800781 17.945313 11.839844 21.113282 20.351562 2.914062 7.835938 2.347656 16.65625-1.648438 25.503906-3.992187 8.851563-10.226562 15.117188-18.03125 18.113282-8.480468 3.257812-18.585937 2.441406-29.230468-2.359375-11.285157-5.09375-20.296876-13.25-25.375-22.964844-4.761719-9.109375-5.417969-18.484375-1.847657-26.394531zm0 0"/></svg>