<svg height="512pt" viewBox="-51 0 512 512.00013" width="512pt" xmlns="http://www.w3.org/2000/svg"><path d="m50.28125 504.5h307.125c30.054688 0 44.289062-36.9375 22.09375-57.207031-35.242188-32.183594-92.132812-65.96875-175.65625-65.96875-83.527344 0-140.414062 33.785156-175.65625 65.96875-22.195312 20.269531-7.960938 57.207031 22.09375 57.207031zm0 0" fill="#5e5e66"/><path d="m203.84375 381.324219c-83.523438 0-140.414062 33.785156-175.65625 65.972656-22.195312 20.265625-7.960938 57.203125 22.09375 57.203125h82.738281c65.65625-21.105469 116.472657-58.925781 116.472657-58.925781v-60.691407c-14.242188-2.289062-29.4375-3.558593-45.648438-3.558593zm0 0" fill="#48484f"/><path d="m249.492188 439.519531c0 25.210938-20.4375 45.648438-45.648438 45.648438s-45.648438-20.4375-45.648438-45.648438c0-25.210937 20.4375-45.648437 45.648438-45.648437s45.648438 20.4375 45.648438 45.648437zm0 0" fill="#ffde55"/><path d="m203.84375 393.871094c-25.210938 0-45.648438 20.4375-45.648438 45.648437 0 19.511719 12.234376 36.15625 29.453126 42.691407 34.289062-16.859376 57.949218-33.792969 61.398437-36.3125.292969-2.085938.441406-4.210938.441406-6.378907.003907-25.210937-20.433593-45.648437-45.644531-45.648437zm0 0" fill="#ffcd00"/><path d="m40.324219 123.765625 83.453125-83.566406-83.417969-31.117188c-19.535156-7.289062-38.578125 11.78125-31.265625 31.304688zm0 0" fill="#5e5e66"/><path d="m61.914062 102.144531 40.269532-40.324219-46.910156-17.5c-6.824219-2.542968-13.476563 4.117188-10.921876 10.9375zm0 0" fill="#ffb0d0"/><path d="m369.363281 123.765625-83.453125-83.566406 83.417969-31.117188c19.535156-7.285156 38.578125 11.78125 31.265625 31.308594zm0 0" fill="#74747c"/><path d="m347.773438 102.144531-40.269532-40.324219 46.910156-17.496093c6.824219-2.546875 13.476563 4.113281 10.921876 10.933593zm0 0" fill="#ffb0d0"/><path d="m203.84375 452.109375c-89.855469 0-163.371094-73.515625-163.371094-163.371094v-84.785156c0-89.855469 73.515625-163.371094 163.371094-163.371094s163.371094 73.515625 163.371094 163.371094v84.785156c0 89.855469-73.515625 163.371094-163.371094 163.371094zm0 0" fill="#efefef"/><path d="m141.253906 387.785156c-15.90625-19.632812-17.875-47.128906-4.929687-68.832031 26.769531-44.878906 32.34375-110.070313 32.34375-110.070313v-164.464843c-73.09375 16.203125-128.195313 81.75-128.195313 159.535156v84.785156c0 89.851563 73.515625 163.371094 163.371094 163.371094 12.800781 0 25.285156-1.496094 37.257812-4.3125-49.433593-10.300781-80.839843-36.546875-99.847656-60.011719zm0 0" fill="#e0e0e0"/><path d="m139.820312 321.730469c0-13.179688-13.421874-23.867188-29.972656-23.867188-16.554687 0-29.972656 10.6875-29.972656 23.867188 0 13.183593 13.417969 23.871093 29.972656 23.871093 16.550782 0 29.972656-10.6875 29.972656-23.871093zm0 0" fill="#ffa6bb"/><path d="m327.8125 321.730469c0-13.179688-13.417969-23.867188-29.972656-23.867188-16.554688 0-29.972656 10.6875-29.972656 23.867188 0 13.183593 13.417968 23.871093 29.972656 23.871093 16.554687 0 29.972656-10.6875 29.972656-23.871093zm0 0" fill="#ffa6bb"/><path d="m317.550781 113.96875s-18.558593 95.125-90.925781 112.851562c-12.152344 2.976563-24.203125-5.273437-25.863281-17.675781-1.976563-14.769531-4.140625-32.082031-4.140625-32.082031s-33.644532 67.4375-156.148438 78.9375c.519532.980469 7.542969-171.9375 149.839844-181.988281 142.292969-10.050781 127.238281 39.957031 127.238281 39.957031zm0 0" fill="#dd9f80"/><path d="m183.023438 74.679688c-135.242188 15.339843-142.039063 182.28125-142.550782 181.316406 64.988282-6.097656 104.976563-27.949219 128.195313-47.113282-11.269531-78.71875 14.355469-134.203124 14.355469-134.203124zm0 0" fill="#c68d6d"/><path d="m41.289062 305.058594s10.582032-201.605469 162.144532-201.605469 163.78125 185.285156 163.78125 185.285156 80.855468-266.25-163.371094-266.25-162.554688 282.570313-162.554688 282.570313zm0 0" fill="#898890"/><path d="m190.171875 310.457031h27.34375c5.851563 0 9.660156 6.183594 6.992187 11.394531-4.386718 8.570313-11.546874 18.84375-20.664062 18.84375s-16.277344-10.273437-20.664062-18.84375c-2.664063-5.210937 1.140624-11.394531 6.992187-11.394531zm0 0" fill="#898890"/><path d="m125.109375 126.585938c-.992187-47.699219 16.929687-81.867188 29.242187-99.59375-182.953124 36.1875-113.070312 278.066406-113.070312 278.066406s6.59375-125.515625 83.828125-178.472656zm0 0" fill="#74747c"/><path d="m284.5 308.628906c4.144531 0 7.5-3.355468 7.5-7.5v-12.449218c0-4.144532-3.355469-7.5-7.5-7.5-4.140625 0-7.5 3.355468-7.5 7.5v12.449218c0 4.144532 3.359375 7.5 7.5 7.5zm0 0"/><path d="m123.1875 308.628906c4.140625 0 7.5-3.355468 7.5-7.5v-12.449218c0-4.144532-3.359375-7.5-7.5-7.5-4.144531 0-7.5 3.355468-7.5 7.5v12.449218c0 4.144532 3.355469 7.5 7.5 7.5zm0 0"/><path d="m375.53125 85.917969c-1.453125 3.878906.515625 8.203125 4.394531 9.65625.867188.324219 7.160157 2.015625 9.652344-4.394531l18.039063-48.160157c4.429687-11.820312 1.636718-24.710937-7.28125-33.640625-8.917969-8.929687-21.804688-11.734375-33.628907-7.324218l-74.875 27.929687c-24.777343-9.96875-54.15625-15-87.988281-15-32.894531 0-61.582031 5.039063-85.910156 15.03125l-74.953125-27.960937c-11.824219-4.410157-24.710938-1.605469-33.628907 7.324218-8.917968 8.929688-11.710937 21.820313-7.28125 33.640625l30.429688 81.246094c-9.429688 28.679687-13.308594 62.53125-11.308594 100.292969 2.277344 43.046875 11.226563 76.617187 12.699219 81.902344 3.738281 36.164062 18.886719 69.941406 43.707031 97.136718-19.625 10.242188-37.90625 23.035156-54.46875 38.160156-12.628906 11.53125-16.636718 28.585938-10.460937 44.507813 6.160156 15.875 20.570312 25.734375 37.613281 25.734375h307.125c17.042969 0 31.453125-9.859375 37.609375-25.734375 6.175781-15.921875 2.171875-32.976563-10.457031-44.507813-16.558594-15.121093-34.84375-27.925781-54.46875-38.164062 28.582031-31.316406 44.335937-71.363281 44.613281-113.726562 1.726563-5.980469 9.957031-36.121094 12.253906-74.792969 3.03125-51-5.859375-94.699219-25.773437-127.355469l11.175781-29.828125c2.222656-5.941406.820313-12.421875-3.664063-16.910156-4.480468-4.492188-10.957031-5.902344-16.902343-3.683594l-27.660157 10.316406c-4.292968-3.09375-8.796874-5.972656-13.503906-8.628906l61.320313-22.875c6.347656-2.363281 12.988281-.917969 17.773437 3.871094 4.785156 4.792969 6.222656 11.4375 3.847656 17.777343zm-359.414062-48.160157c-2.375-6.339843-.9375-12.988281 3.847656-17.777343 4.785156-4.792969 11.425781-6.234375 17.769531-3.871094l61.605469 22.980469c-4.648438 2.671875-9.089844 5.574218-13.339844 8.6875l-28.105469-10.484375c-5.941406-2.214844-12.421875-.804688-16.90625 3.683593-4.480469 4.488282-5.886719 10.96875-3.660156 16.914063l11.457031 30.582031c-2.90625 4.773438-5.589844 9.78125-8.050781 15.007813zm43.085937 35.769532s-8.050781-21.496094-7.597656-21.949219c.449219-.449219 21.09375 7.25 21.09375 7.25-4.820313 4.546875-9.316407 9.449219-13.496094 14.699219zm-3.890625 188.316406c58.289062-7.898438 94.902344-28.730469 115.519531-45.066406 8.957031-7.101563 15.761719-13.972656 20.765625-19.796875.554688 4.28125 1.152344 8.835937 1.730469 13.15625 1.074219 8.03125 5.53125 15.253906 12.222656 19.820312 6.679688 4.558594 15.015625 6.066407 22.859375 4.148438 24.476563-5.996094 57.71875-24.003907 81.503906-74.980469 9.597657 11.363281 18.0625 24.664062 25.292969 39.816406 20.421875 42.789063 24.214844 86.332032 24.503907 90.03125-.058594 41.367188-16.316407 80.367188-45.789063 109.84375-29.53125 29.527344-68.625 45.792969-110.078125 45.792969-49.148438 0-91.351562-27.066406-110.078125-45.792969-25.65625-25.660156-41.292969-58.535156-44.953125-93.90625.214844-3.210937 1.546875-20.292968 6.5-43.066406zm325.71875 218.996094c-3.027344 7.8125-10.828125 16.160156-23.625 16.160156h-307.125c-12.796875 0-20.597656-8.347656-23.625-16.160156-3.046875-7.847656-2.914062-19.328125 6.585938-28.007813 16.78125-15.320312 35.425781-28.101562 55.496093-38.078125 18.496094 16.945313 40.050781 29.402344 63.335938 36.832032 5.523437 23.742187 26.949219 41.082031 51.769531 41.082031 12.417969 0 24.5-4.375 34.019531-12.3125 3.183594-2.65625 3.609375-7.382813.957031-10.566407-2.652343-3.179687-7.382812-3.609374-10.5625-.953124-6.832031 5.695312-15.503906 8.832031-24.414062 8.832031-14.902344 0-28.101562-8.710938-34.339844-21.53125 11.1875 2.292969 22.675782 3.472656 34.339844 3.472656 42.898438 0 83.476562-15.878906 115.109375-44.859375 20.066406 9.972656 38.71875 22.765625 55.492187 38.082031 9.5 8.679688 9.632813 20.160157 6.585938 28.007813zm-9.023438-267.015625c-.742187 12.699219-2.179687 24.527343-3.804687 34.804687-3.839844-16.289062-9.867187-35.957031-19.269531-55.75-30.117188-63.410156-80.429688-96.921875-145.5-96.921875-46.195313 0-84.417969 17.851563-113.609375 53.066407-2.644531 3.1875-2.199219 7.914062.988281 10.558593s7.917969 2.203125 10.558594-.988281c26.207031-31.609375 60.546875-47.636719 102.0625-47.636719 32.789062 0 67.972656 11.4375 95.355468 36.332031-21.484374 49.855469-51.886718 66.84375-73.945312 72.246094-3.773438.921875-7.621094.226563-10.839844-1.96875-3.226562-2.199218-5.289062-5.546875-5.808594-9.414062-1.945312-14.566406-4.109374-31.847656-4.128906-32.019532-.410156-3.269531-2.914062-5.875-6.15625-6.445312-3.25-.5625-6.492187 1.066406-7.984375 4-.078125.152344-7.964843 15.347656-29.1875 31.945312-31.730469 24.816407-71.042969 35.734376-101.617187 40.496094 5.367187-20.039062 13.441406-42.597656 25.535156-63.410156 2.082031-3.578125.867188-8.171875-2.714844-10.25-3.578125-2.082031-8.171875-.867188-10.253906 2.714844-17.042969 29.320312-26.492188 61.269531-31.695312 86.105468-1.667969-11.207031-3.125-24.082031-3.84375-37.871093-2.09375-40.285157 1.867187-96.890625 32.625-137.769531 27.789062-36.933594 73.234374-55.660157 135.070312-55.660157 64.074219 0 110.574219 18.878907 138.207031 56.121094 15.820313 21.320313 33.859375 60.785156 29.957031 127.714844zm-13.925781-162.246094c.453125.453125-7.34375 21.265625-7.34375 21.265625-4.078125-5.074219-8.484375-9.808594-13.207031-14.21875 0 0 20.101562-7.5 20.550781-7.046875zm0 0"/><path d="m179.894531 380.972656c9.582031 0 18.175781-4.3125 23.945313-11.09375 5.773437 6.78125 14.367187 11.09375 23.953125 11.09375 12.816406 0 18.304687-4.851562 23.238281-10.257812 2.789062-3.058594 2.574219-7.800782-.488281-10.59375-3.058594-2.792969-7.804688-2.574219-10.59375.484375-3.398438 3.722656-5.191407 5.371093-12.15625 5.371093-17.316407 0-16.449219-19.253906-16.449219-19.253906 8.988281-3.59375 15.59375-13.152344 19.839844-21.453125 2.449218-4.785156 2.234375-10.378906-.570313-14.964843-2.8125-4.601563-7.710937-7.34375-13.097656-7.34375h-27.34375c-5.386719 0-10.285156 2.746093-13.097656 7.34375-2.804688 4.585937-3.019531 10.179687-.570313 14.964843 6.683594 13.058594 13.757813 19.003907 19.839844 21.441407 0 0 .683594 19.265624-16.449219 19.265624-6.964843 0-8.761719-1.648437-12.15625-5.371093-2.792969-3.058594-7.535156-3.277344-10.59375-.484375-3.0625 2.792968-3.277343 7.535156-.488281 10.59375 4.933594 5.40625 10.421875 10.257812 23.238281 10.257812zm9.976563-62.84375c.105468-.171875.214844-.171875.300781-.171875h27.34375c.085937 0 .195313 0 .300781.171875.09375.152344.054688.222656.015625.304688-4.660156 9.105468-10.019531 14.761718-13.988281 14.761718s-9.328125-5.65625-13.984375-14.761718c-.042969-.082032-.082031-.152344.011719-.304688zm0 0"/></svg>