<svg height="512pt" viewBox="-20 0 512 512.00247" width="512pt" xmlns="http://www.w3.org/2000/svg"><path d="m416.492188 172.097656h-360.871094s-46.1875 87.054688-48.117188 201.425782c-.125 7.335937 7.308594 12.355468 14.121094 9.621093 2.667969-1.070312 5.585938-2.355469 8.628906-3.886719 5.589844-2.808593 11.660156 2.777344 9.304688 8.566407-6.871094 16.875-14.914063 41.933593-15.941406 68.3125-.34375 8.832031 6.789062 16.164062 15.625 16.035156 25.527343-.363281 77.816406-7.808594 118.007812-57.511719-.558594 0 158.171875 0 157.613281 0 40.195313 49.703125 92.476563 57.148438 118.007813 57.511719 8.839844.128906 15.972656-7.203125 15.625-16.035156-1.027344-26.375-9.070313-51.433594-15.941406-68.3125-2.355469-5.789063 3.714843-11.375 9.300781-8.566407 3.046875 1.53125 5.964843 2.816407 8.632812 3.886719 6.808594 2.734375 14.246094-2.285156 14.121094-9.621093-1.925781-114.371094-48.117187-201.425782-48.117187-201.425782zm0 0" fill="#ed7966"/><path d="m82.5 504.503906h307.117188c30.054687 0 44.285156-36.9375 22.09375-57.207031-35.242188-32.183594-92.132813-65.96875-175.65625-65.96875-83.523438 0-140.410157 33.785156-175.652344 65.96875-22.191406 20.269531-7.960938 57.207031 22.097656 57.207031zm0 0" fill="#bb81f2"/><path d="m236.054688 381.328125c-83.523438 0-140.410157 33.785156-175.652344 65.96875-22.195313 20.269531-7.960938 57.207031 22.09375 57.207031h176.894531c36.777344-31.714844 45.5625-67.738281 45.5625-67.738281v-47.074219c-20.601563-5.246094-43.511719-8.363281-68.898437-8.363281zm0 0" fill="#a979e2"/><path d="m417.414062 337.617188c-19.820312 19.820312-51.957031 19.820312-71.777343 0-19.820313-19.820313-19.820313-51.957032 0-71.773438 19.820312-19.820312 82.914062-50.78125 102.734375-30.960938 19.820312 19.820313-11.136719 82.914063-30.957032 102.734376zm0 0" fill="#b2e59c"/><path d="m54.699219 337.617188c19.820312 19.820312 51.957031 19.820312 71.777343 0 19.820313-19.820313 19.820313-51.957032 0-71.773438-19.820312-19.820312-82.917968-50.78125-102.734374-30.960938-19.820313 19.820313 11.136718 82.914063 30.957031 102.734376zm0 0" fill="#9ad880"/><path d="m236.058594 452.113281c-89.855469 0-163.371094-73.515625-163.371094-163.371093v-84.78125c0-89.851563 73.515625-163.371094 163.371094-163.371094 89.851562 0 163.367187 73.515625 163.367187 163.371094v84.78125c0 89.855468-73.515625 163.371093-163.367187 163.371093zm0 0" fill="#c8efb9"/><path d="m173.46875 387.792969c-15.910156-19.636719-17.875-47.132813-4.929688-68.835938 26.769532-44.875 32.339844-109.988281 32.339844-109.988281v-164.539062c-73.09375 16.203124-128.191406 81.746093-128.191406 159.53125v84.78125c0 89.855468 73.515625 163.371093 163.371094 163.371093 12.800781 0 25.28125-1.496093 37.253906-4.3125-49.429688-10.304687-80.835938-36.546875-99.84375-60.007812zm0 0" fill="#b2e59c"/><path d="m229.777344 221.542969s-51.109375 39.980469-103.808594 60.722656c-15.421875 6.066406-33.035156.144531-41.589844-14.050781-12.144531-20.152344-24.902344-51.738282-14.304687-85.320313 0-1.136719 159.703125 38.648438 159.703125 38.648438zm0 0" fill="#ff9478"/><path d="m321.847656 207.332031 44.722656 55.453125c6.808594 8.445313 20.03125 7.5625 25.503907-1.804687 8.371093-14.328125 16.847656-38.257813 12.753906-73.539063-1.140625-1.136718-82.980469 19.890625-82.980469 19.890625zm0 0" fill="#ff9478"/><path d="m460.699219 156.40625c0-45.867188-100.574219-83.046875-224.644531-83.046875-124.066407 0-224.640626 37.179687-224.640626 83.046875 0 45.863281 100.574219 83.042969 224.640626 83.042969 124.070312 0 224.644531-37.179688 224.644531-83.042969zm0 0" fill="#cf92ff"/><path d="m11.414062 156.40625c0 42.351562 85.753907 77.300781 196.582032 82.402344 78.671875-19.117188 141.394531-60.378906 141.394531-60.378906l-5.746094-94.945313c-31.953125-6.457031-68.609375-10.128906-107.589843-10.128906-124.066407.003906-224.640626 37.183593-224.640626 83.050781zm0 0" fill="#bb81f2"/><path d="m83.53125 138.25c33.160156-104.089844 167.804688-126.039062 223.226562-130.667969 11.824219-.988281 22.386719 7.574219 23.710938 19.367188 2.414062 21.480469 13.199219 59.460937 52.765625 112.550781 8.3125 11.160156 3.453125 27.179688-9.679687 31.789062-24.894532 8.726563-68.738282 19.109376-134.398438 19.109376-76.496094 0-123.347656-17.015626-145.15625-27.644532-9.089844-4.429687-13.539062-14.867187-10.46875-24.503906zm0 0" fill="#dfaeff"/><path d="m166.546875 45.273438c-36.722656 19.539062-68.972656 48.894531-83.015625 92.976562-3.070312 9.636719 1.375 20.074219 10.46875 24.503906 13.703125 6.679688 37.300781 15.878906 71.921875 21.796875-16.78125-55.382812-8.046875-108.078125.625-139.277343zm0 0" fill="#cf92ff"/><path d="m365.121094 113.203125c-25.929688 7.90625-66.886719 15.996094-124.859375 15.996094-71.367188 0-116.921875-14.808594-140.421875-25.425781-6.71875 10.355468-12.269532 21.800781-16.308594 34.476562-3.070312 9.636719 1.378906 20.070312 10.46875 24.503906 21.808594 10.628906 68.660156 27.640625 145.160156 27.640625 65.65625 0 109.5-10.378906 134.394532-19.109375 13.132812-4.605468 17.992187-20.628906 9.679687-31.789062-6.878906-9.222656-12.867187-17.984375-18.113281-26.292969zm0 0" fill="#898890"/><path d="m99.839844 103.773438c-6.71875 10.355468-12.273438 21.804687-16.308594 34.476562-3.070312 9.636719 1.375 20.074219 10.46875 24.503906 13.703125 6.679688 37.300781 15.878906 71.921875 21.792969-6.628906-21.863281-9.28125-43.308594-9.523437-63.179687-25.429688-5.152344-44.097657-11.960938-56.558594-17.59375zm0 0" fill="#7a797f"/><path d="m248.546875 145.726562v24.980469h-24.980469v-24.980469zm5.433594-30h-35.847657c-13.566406 0-24.566406 11-24.566406 24.566407v35.847656c0 13.566406 11 24.566406 24.566406 24.566406h35.847657c13.566406 0 24.566406-11 24.566406-24.566406v-35.847656c0-13.566407-11-24.566407-24.566406-24.566407zm0 0" fill="#ffeb99"/><path d="m316.714844 320.1875c4.140625 0 7.496094-3.355469 7.496094-7.5v-12.449219c0-4.140625-3.355469-7.5-7.496094-7.5-4.144532 0-7.5 3.359375-7.5 7.5v12.449219c0 4.144531 3.355468 7.5 7.5 7.5zm0 0"/><path d="m155.402344 292.738281c-4.144532 0-7.5 3.359375-7.5 7.5v12.449219c0 4.144531 3.355468 7.5 7.5 7.5 4.140625 0 7.5-3.355469 7.5-7.5v-12.449219c0-4.140625-3.359375-7.5-7.5-7.5zm0 0"/><path d="m208.542969 318.617188c8.101562 6.285156 17.808593 9.425781 27.515625 9.425781 9.707031 0 19.414062-3.140625 27.511718-9.425781 3.273438-2.539063 3.867188-7.25 1.328126-10.523438-2.535157-3.273438-7.25-3.867188-10.519532-1.328125-10.789062 8.367187-25.851562 8.367187-36.640625 0-3.273437-2.539063-7.984375-1.945313-10.523437 1.328125-2.539063 3.273438-1.945313 7.984375 1.328125 10.523438zm0 0"/><path d="m248.546875 138.226562h-24.980469c-4.140625 0-7.5 3.359376-7.5 7.5v24.980469c0 4.140625 3.359375 7.5 7.5 7.5h24.980469c4.140625 0 7.5-3.359375 7.5-7.5v-24.980469c0-4.140624-3.359375-7.5-7.5-7.5zm-7.5 24.980469h-9.980469v-9.980469h9.980469zm0 0"/><path d="m459.910156 274.464844-.542968.125c10.082031-39.5-10.550782-48.996094-13.542969-50.355469-2.515625-7.523437-5.171875-14.941406-7.957031-22.136719 19.792968-13.53125 30.332031-29.148437 30.332031-45.695312 0-13.195313-6.535157-25.734375-19.421875-37.265625-3.085938-2.765625-7.828125-2.5-10.589844.585937-2.761719 3.085938-2.5 7.824219.585938 10.589844 9.574218 8.566406 14.425781 17.34375 14.425781 26.089844 0 18.542968-22.195313 37.382812-60.894531 51.691406-41.617188 15.382812-97.109376 23.855469-156.246094 23.855469-59.140625 0-114.628906-8.472657-156.246094-23.855469-38.703125-14.308594-60.898438-33.148438-60.898438-51.691406 0-20.878906 28.003907-41.746094 74.316407-56.242188-6.917969 10.757813-12.652344 22.648438-16.84375 35.8125-4.171875 13.097656 1.988281 27.507813 14.328125 33.523438 18.996094 9.257812 52.078125 21.273437 102.027344 26.191406 5.867187 7.605469 15.0625 12.515625 25.390624 12.515625h35.851563c9.917969 0 18.796875-4.527344 24.683594-11.625 46.605469-3.195313 78.640625-11.644531 97.371093-18.214844 8.523438-2.988281 14.925782-9.65625 17.5625-18.292969 2.644532-8.660156 1.058594-17.789062-4.355468-25.054687-8.398438-11.269531-17.589844-24.722656-25.875-39.296875 21.335937 5.566406 40.015625 12.539062 54.632812 20.433594 1.132813.613281 2.355469.902344 3.558594.902344 2.667969 0 5.25-1.425782 6.605469-3.9375 1.96875-3.644532.609375-8.195313-3.035157-10.164063-18.605468-10.050781-43.121093-18.632813-71.023437-24.898437-8.082031-16.917969-14.246094-34.707032-16.1875-51.949219-1.789063-15.917969-15.746094-27.335938-31.785156-26-45.96875 3.839843-142.949219 19.183593-197.757813 80.222656-66.390625 16.632813-104.464844 44.355469-104.464844 76.078125 0 16.542969 10.539063 32.160156 30.332032 45.695312-2.789063 7.191407-5.4375 14.605469-7.957032 22.128907-2.988281 1.359375-5.625 3.125-7.851562 5.347656-9.765625 9.765625-10.25 26.207031-5.988281 43.820313-7.703125 33.621093-11.894531 67.261718-12.44531275 100-.10156245 5.933593 2.76171875 11.488281 7.65234375 14.855468 4.933594 3.394532 11.195312 4.085938 16.761719 1.851563 2.527343-1.011719 5.027343-2.117188 7.460937-3.289063-6.777344 17.027344-14.714844 42.273438-15.757812 69.03125-.246094 6.261719 2.125 12.429688 6.503906 16.914063 4.296875 4.40625 10.714844 6.636719 20.273438 6.800781.46875 2.246094 5.738281 32.441406 39.597656 32.441406h307.117187c34.445313 0 39.128907-30.1875 39.597657-32.425781 1.1875.042969 12.660156.175781 20.273437-6.8125 4.621094-4.242187 6.75-10.65625 6.507813-16.917969-1.042969-26.757812-8.980469-52.003906-15.757813-69.03125 2.433594 1.171875 4.933594 2.277344 7.460937 3.292969 5.5625 2.230469 11.828126 1.539063 16.757813-1.855469 4.894531-3.367187 7.753906-8.921875 7.65625-14.855468-.546875-32.386719-4.648437-65.667969-12.199219-98.933594zm-362.625-118.453125c-5.695312-2.773438-8.535156-9.433594-6.609375-15.484375 3.136719-9.847656 7.253907-18.914063 12.152344-27.292969 18.011719 7.457031 45.664063 16.074219 83.914063 20.5-.441407 2.117187-.589844 44.9375-.445313 46.175781-43.308594-5.113281-72.128906-15.667968-89.011719-23.898437zm173.761719 20.128906c0 9.410156-7.65625 17.066406-17.066406 17.066406h-35.847657c-9.410156 0-17.066406-7.65625-17.066406-17.066406v-35.847656c0-9.410157 7.65625-17.066407 17.066406-17.066407h35.847657c9.410156 0 17.066406 7.65625 17.066406 17.066407zm108.210937-20.453125c-1.230468 4.023438-4.214843 7.128906-8.183593 8.523438-16.773438 5.878906-44.824219 13.347656-85.394531 16.789062.242187-1.585938.207031-44.3125-.085938-46.050781 28.136719-2.238281 53.71875-6.585938 76.25-12.96875 4.59375 7.039062 9.6875 14.367187 15.375 22 2.53125 3.394531 3.273438 7.664062 2.039062 11.707031zm-71.875-140.628906c7.757813-.644532 14.773438 5.058594 15.632813 12.726562 2.011719 17.886719 9.265625 45.035156 30.546875 80.910156-17.101562 4.535157-41.914062 9.433594-74.46875 11.699219-5.878906-7.40625-14.945312-12.167969-25.113281-12.167969h-35.851563c-9.710937 0-18.417968 4.34375-24.304687 11.1875-37.472657-3.828124-64.628907-11.808593-82.546875-18.9375 48.882812-65.578124 149.78125-81.550781 196.105468-85.417968zm133.347657 268.566406c-7.847657 21.023438-20.339844 40.410156-28.621094 48.691406-3.960937 3.960938-8.527344 7.050782-13.527344 9.1875 5.488281-16.835937 8.34375-34.589844 8.34375-52.757812v-42.34375c.789063-2.296875 1.5-4.640625 2.144531-7.023438 16.386719-4.769531 28.6875-4.503906 34 .808594 6.328126 6.328125 5.453126 22.566406-2.339843 43.4375zm-11.863281-62.582031c-5.03125.027343-10.578126.71875-16.585938 2.046875.308594-2.386719.550781-4.8125.730469-7.269532 4.15625-1.878906 8.09375-3.816406 11.804687-5.816406 1.386719 3.628906 2.734375 7.3125 4.050782 11.039063zm-31.617188 1.210937c-1.789062 13.011719-5.683594 24.734375-11.652344 34.941406-1.324218 2.269532-3.601562 3.683594-6.246094 3.882813-2.71875.199219-5.242187-.890625-6.945312-3l-18.714844-23.203125c15.644532-3.5 30.265625-7.722656 43.558594-12.621094zm-214.4375 22.382813c-17.261719 10.652343-38.328125 22.277343-59.589844 30.648437-12.09375 4.757813-25.730468.15625-32.421875-10.941406-6.179687-10.257812-13.390625-25.175781-16.085937-42.144531 30.324218 11.195312 67.570312 18.859375 108.097656 22.4375zm-135.515625-34.632813c3.644531 1.960938 7.503906 3.871094 11.578125 5.714844.179688 2.476562.449219 4.917969.796875 7.324219-5.945313-1.3125-11.429687-1.988281-16.417969-2.019531 1.3125-3.714844 2.660156-7.394532 4.042969-11.019532zm-18.253906 30.179688c5.285156-5.285156 17.933593-5.492188 34.28125-.710938.589843 1.972656 1.222656 3.90625 1.890625 5.792969-.011719.167969-.027344.332031-.027344.503906v42.976563c0 17.953125 2.878906 35.777344 8.421875 52.757812-5.046875-2.15625-9.679687-5.261718-13.605469-9.1875-8.28125-8.28125-20.769531-27.664062-28.621094-48.6875-7.792968-20.875-8.667968-37.113281-2.339843-43.445312zm13.578125 224.382812c-9.730469-.175781-11.597656-5.9375-11.511719-8.136718.996094-25.554688 8.921875-49.875 15.394531-65.777344 2.261719-5.554688.878906-11.769532-3.519531-15.835938-4.410156-4.070312-10.730469-4.957031-16.097656-2.257812-2.601563 1.304687-5.300781 2.550781-8.058594 3.628906-2.363281.925781-3.847656-1.292969-3.828125-2.539062.402344-23.914063 2.8125-48.34375 7.183594-72.898438 8.140625 17.757812 18.824218 33.78125 27.210937 42.171875 8.460938 8.457031 19.355469 14.097656 31.058594 16.167969 2.035156 4.476562 13.117187 28.097656 29.382813 44.496094-19.632813 10.242187-37.933594 23.054687-54.492188 38.175781-6.910156 6.308593-11.230469 14.273437-12.722656 22.804687zm370.621094 16.277344c-3.03125 7.8125-10.828126 16.160156-23.625 16.160156h-307.117188c-12.800781 0-20.597656-8.347656-23.628906-16.160156-3.042969-7.851562-2.914063-19.328125 6.589844-28.007812 16.773437-15.316407 35.4375-28.117188 55.511718-38.089844 7.421875 6.789062 15.148438 13.410156 23.9375 18.355468 4.585938 2.582032 8.921875-.0625 10.351563-2.3125 2.222656-3.496093 1.1875-8.128906-2.3125-10.351562-45.558594-28.929688-72.761719-78.160156-72.761719-131.695312v-13.355469c7.9375 10.722656 27.75 21.832031 48.53125 13.855469 30.148438-11.570313 59.492188-29.738282 79.214844-42.925782 9.261718.421875 48.113281 5.085938 129.203125-8.082031l23.597656 29.257813c12.347656 15.714843 27.863281 6.785156 31.191406 4.457031v16.796875c0 41.453125-16.261719 80.542968-45.792969 110.074218-29.527343 29.53125-68.621093 45.792969-110.074218 45.792969-19.300782 0-38.164063-3.53125-56.070313-10.492187-3.859375-1.5-8.207031.414062-9.707031 4.273437s.410156 8.207031 4.273438 9.707031c19.644531 7.640626 40.335937 11.511719 61.503906 11.511719 42.898437 0 83.472656-15.878906 115.105468-44.859375 20.070313 9.972656 38.71875 22.765625 55.488282 38.082032 9.503906 8.679687 9.636718 20.15625 6.589844 28.007812zm40.042968-104.65625c-2.746094-1.101562-5.460937-2.324219-8.058594-3.632812-5.371093-2.699219-11.691406-1.8125-16.097656 2.261718-4.398437 4.0625-5.78125 10.28125-3.519531 15.835938 6.472656 15.902344 14.316406 40.226562 15.394531 65.777344.386719 9.140624-10.347656 8.171874-11.515625 8.128906-1.492187-8.527344-5.8125-16.488282-12.722656-22.796875-16.554687-15.121094-34.839844-27.925781-54.464844-38.167969 12.238281-13.410156 22.121094-28.417969 29.445313-44.527344 11.664062-2.085937 22.550781-7.730468 30.96875-16.144531 8.386718-8.390625 19.066406-24.410156 27.207031-42.164063 4.371094 24.554688 5.691406 49.027344 7.1875 72.890626.191406 3.027343-2.589844 3.035156-3.824219 2.539062zm0 0"/></svg>