<svg height="511pt" viewBox="-33 0 511 511.9979" width="511pt" xmlns="http://www.w3.org/2000/svg"><path d="m67.085938 504.5h307.121093c30.058594 0 44.292969-36.9375 22.097657-57.207031-35.242188-32.183594-92.132813-65.96875-175.65625-65.96875-83.527344 0-140.414063 33.785156-175.65625 65.96875-22.195313 20.269531-7.960938 57.207031 22.09375 57.207031zm0 0" fill="#9dad92"/><path d="m374.207031 504.5c30.058594 0 44.292969-36.9375 22.097657-57.207031-6.765626-6.175781-14.332032-12.417969-22.730469-18.464844-70.738281 63.835937-169.257813 22.460937-169.257813 22.460937l.476563-69.550781c-74.929688 3.945313-126.835938 35.453125-159.800781 65.554688-22.195313 20.269531-7.960938 57.207031 22.09375 57.207031zm0 0" fill="#f9e280"/><path d="m112.203125 297.863281c0 28.777344-23.324219 52.105469-52.101563 52.105469-28.777343 0-52.105468-23.328125-52.105468-52.105469 0-28.773437 23.328125-52.101562 52.105468-52.101562 28.777344 0 52.101563 23.328125 52.101563 52.101562zm0 0" fill="#9dad92"/><path d="m438.949219 297.863281c0 28.777344-23.328125 52.105469-52.105469 52.105469s-52.101562-23.328125-52.101562-52.105469c0-28.773437 23.324218-52.101562 52.101562-52.101562s52.105469 23.328125 52.105469 52.101562zm0 0" fill="#b0c4a5"/><path d="m220.648438 452.109375c-89.855469 0-163.371094-73.515625-163.371094-163.371094v-84.785156c0-89.851563 73.515625-163.371094 163.371094-163.371094 89.855468 0 163.371093 73.515625 163.371093 163.371094v84.785156c0 89.855469-73.515625 163.371094-163.371093 163.371094zm0 0" fill="#c2d6b9"/><path d="m158.058594 387.789062c-15.910156-19.636718-17.875-47.132812-4.929688-68.835937 26.769532-44.878906 32.34375-109.992187 32.34375-109.992187v-164.539063c-73.097656 16.203125-128.195312 81.746094-128.195312 159.53125v84.785156c0 89.855469 73.519531 163.371094 163.371094 163.371094 12.800781 0 25.285156-1.492187 37.257812-4.3125-49.433594-10.300781-80.839844-36.546875-99.847656-60.007813zm0 0" fill="#b0c4a5"/><path d="m168.746094 293.152344c0 22.027344-17.855469 39.882812-39.882813 39.882812-22.027343 0-39.882812-17.855468-39.882812-39.882812 0-22.023438 17.855469-39.878906 39.882812-39.878906 22.027344 0 39.882813 17.855468 39.882813 39.878906zm0 0" fill="#ba9bd3"/><path d="m347.953125 293.152344c0 22.027344-17.855469 39.882812-39.882813 39.882812-22.027343 0-39.882812-17.855468-39.882812-39.882812 0-22.023438 17.855469-39.878906 39.882812-39.878906 22.027344 0 39.882813 17.855468 39.882813 39.878906zm0 0" fill="#ba9bd3"/><path d="m220.648438 349.832031c-15.519532 0-28.101563-12.578125-28.101563-28.097656v-20.429687c0-4.238282 3.433594-7.671876 7.671875-7.671876h40.859375c4.238281 0 7.671875 3.433594 7.671875 7.671876v20.429687c-.003906 15.519531-12.582031 28.097656-28.101562 28.097656zm0 0" fill="#57565c"/><path d="m164.414062 151.1875v89.449219c0 11.164062 9.132813 20.296875 20.296876 20.296875 11.160156 0 20.296874-9.132813 20.296874-20.296875v-40.546875c0-8.789063 7.1875-15.976563 15.976563-15.976563 8.785156 0 15.972656 7.1875 15.972656 15.976563v9.207031c0 11.164063 9.136719 20.296875 20.296875 20.296875 11.164063 0 20.296875-9.132812 20.296875-20.296875v-89.449219zm0 0" fill="#ff737d"/><path d="m262.195312 34.351562-29.902343-23.8125c-6.308594-5.023437-15.546875-3.675781-20.160157 2.9375l-9.105468 13.058594-86.679688-15.40625c-9.554687-1.699218-17.886718 6.621094-16.203125 16.175782l4.859375 27.585937-65.671875 44.386719c-9.621093 6.503906-7.570312 21.226562 3.464844 24.847656l78.347656 25.71875-10.101562 20.828125c-5.378907 11.097656 5.207031 23.214844 16.925781 19.371094l132.761719-43.542969 44.101562 53.894531c6.691407 8.179688 19.6875 6.253907 23.722657-3.511719l10.304687-24.933593 54.375 16.683593c10.433594 3.199219 20.34375-6.261718 17.628906-16.832031l-14.890625-58.019531 27.871094-17.621094c9.328125-5.902344 8.453125-19.78125-1.542969-24.460937l-45.230469-21.171875 10.476563-14.957032c7.171875-10.238281-1.679687-24.019531-13.972656-21.753906zm0 0" fill="#dd9f80"/><path d="m355.464844 380.730469c-16.269532-7.355469-35.964844-5.773438-51.160156 5.8125-16.363282 12.480469-22.902344 33.0625-18.316407 51.851562 28.164063-12.390625 52.238281-32.527343 69.476563-57.664062zm0 0" fill="#ff737d"/><path d="m175.335938 36.019531 12.101562-12.253906-71.089844-12.636719c-9.554687-1.699218-17.886718 6.621094-16.203125 16.175782l4.859375 27.585937-65.671875 44.386719c-9.621093 6.503906-7.570312 21.226562 3.464844 24.847656l78.347656 25.71875-10.101562 20.828125c-5.378907 11.097656 5.207031 23.210937 16.925781 19.371094l56.269531-18.457031 22.632813-60.316407c3.859375-10.28125-.011719-21.859375-9.273438-27.753906l-18.207031-11.585937c-12.480469-7.941407-14.453125-25.378907-4.054687-35.910157zm0 0" fill="#c68d6d"/><path d="m301.304688 281.179688c-4.140626 0-7.5 3.359374-7.5 7.5v12.453124c0 4.140626 3.359374 7.5 7.5 7.5 4.144531 0 7.5-3.359374 7.5-7.5v-12.453124c0-4.140626-3.355469-7.5-7.5-7.5zm0 0"/><path d="m139.992188 281.179688c-4.144532 0-7.5 3.359374-7.5 7.5v12.453124c0 4.140626 3.355468 7.5 7.5 7.5 4.140624 0 7.5-3.359374 7.5-7.5v-12.453124c0-4.140626-3.359376-7.5-7.5-7.5zm0 0"/><path d="m128.863281 245.773438c-26.128906 0-47.382812 21.253906-47.382812 47.378906 0 26.128906 21.253906 47.382812 47.382812 47.382812 26.125 0 47.382813-21.253906 47.382813-47.382812 0-26.125-21.257813-47.378906-47.382813-47.378906zm0 79.761718c-17.855469 0-32.382812-14.523437-32.382812-32.382812 0-17.851563 14.523437-32.378906 32.382812-32.378906 17.855469 0 32.382813 14.523437 32.382813 32.378906 0 17.859375-14.527344 32.382812-32.382813 32.382812zm0 0"/><path d="m308.070312 245.773438c-26.125 0-47.382812 21.253906-47.382812 47.378906 0 26.128906 21.257812 47.382812 47.382812 47.382812s47.382813-21.253906 47.382813-47.382812c0-26.125-21.253906-47.378906-47.382813-47.378906zm0 79.761718c-17.855468 0-32.382812-14.523437-32.382812-32.382812 0-17.851563 14.527344-32.378906 32.382812-32.378906 17.855469 0 32.382813 14.523437 32.382813 32.378906 0 17.859375-14.527344 32.382812-32.382813 32.382812zm0 0"/><path d="m241.078125 286.132812h-40.859375c-8.367188 0-15.171875 6.804688-15.171875 15.171876v20.429687c0 19.628906 15.96875 35.597656 35.601563 35.597656 19.628906 0 35.597656-15.96875 35.601562-35.597656v-20.429687c0-8.367188-6.808594-15.171876-15.171875-15.171876zm.171875 35.601563c0 11.359375-9.242188 20.601563-20.601562 20.601563-11.359376 0-20.601563-9.242188-20.601563-20.601563 0 0 .078125-20.601563.171875-20.601563h40.859375c.09375 0 .171875 20.601563.171875 20.601563zm0 0"/><path d="m402.28125 339.726562c-3.882812 1.433594-5.914062 5.761719-4.4375 9.632813 2.503906 6.578125 8.773438 4.753906 9.632812 4.4375 23.308594-8.597656 38.96875-31.078125 38.96875-55.933594 0-31.289062-24.242187-57.007812-54.925781-59.402343 0 0-.078125-39.890626-.207031-42.582032 7.445312 2.179688 15.214844.300782 20.84375-5.070312 5.695312-5.4375 7.929688-13.242188 5.972656-20.871094l-13.535156-52.730469 23.257812-14.707031c6.632813-4.195312 10.445313-11.667969 9.953126-19.5-.496094-7.832031-5.21875-14.765625-12.328126-18.09375l-37.144531-17.386719 5.359375-7.644531c5.019532-7.167969 5.207032-16.558594.476563-23.925781-4.730469-7.363281-13.351563-11.09375-21.957031-9.507813l-37.65625 6.941406c-4.074219.753907-6.765626 4.664063-6.015626 8.734376.75 4.074218 4.660157 6.773437 8.734376 6.019531l37.660156-6.945313c3.960937-.730468 6.0625 2.007813 6.617187 2.867188.550781.855468 2.167969 3.910156-.144531 7.207031l-10.480469 14.957031c-2.941406 3.851563-.988281 9.441406 2.964844 11.097656l45.226563 21.171876c5.351562 2.960937 5.351562 8.308593.714843 11.328124l-27.867187 17.625c-2.75 1.738282-4.066406 5.050782-3.257813 8.203126l14.890625 58.019531c.851563 3.3125-.972656 5.5-1.800781 6.289062-.824219.785157-3.09375 2.507813-6.363281 1.503907l-54.375-16.683594c-3.695313-1.136719-7.652344.730468-9.132813 4.308594l-10.300781 24.933593c-2.445312 5.753907-8.339844 5.101563-10.988281 1.625l-44.105469-53.894531c-1.960938-2.394531-5.195312-3.339844-8.140625-2.375l-132.757813 43.539062c-5.863281 2.195313-10.457031-2.972656-7.839843-8.96875l10.097656-20.832031c1.984375-4.402343.492187-8.421875-4.410156-10.394531l-78.347657-25.71875c-4.621093-1.460938-6.863281-7.585938-1.605468-11.507812l65.675781-44.390626c2.453125-1.65625 3.699219-4.597656 3.1875-7.511718l-4.859375-27.585938c-1.101562-6.769531 3.503906-8.160156 7.503906-7.492187l86.679688 15.40625c2.878906.511719 5.789062-.695313 7.460937-3.09375l9.105469-13.058594c2.367188-3.65625 6.609375-3.539063 9.339844-1.359375l29.898437 23.8125c1.695313 1.351562 3.898438 1.902344 6.03125 1.507812l41.941407-7.734374c4.070312-.75 6.765624-4.660157 6.015624-8.734376-.75-4.070312-4.660156-6.769531-8.738281-6.015624l-38.578125 7.113281-27.226562-21.683594c-4.617188-3.679687-10.621094-5.300781-16.46875-4.449219-5.84375.851563-11.136719 4.117188-14.515625 8.964844l-6.363281 9.125-81.957032-14.570312c-6.894531-1.226563-13.96875.996093-18.925781 5.945312s-7.191406 12.023438-5.976563 18.917969l4.015626 22.792969-61.640626 41.664062c-6.84375 4.625-10.382812 12.578125-9.242187 20.753906 1.140625 8.179688 6.722656 14.859375 14.566406 17.433594l22.390625 7.351562c-8.667968 20.734376-13.070312 42.679688-13.070312 65.351563v35.214844c-28.140625 4.902343-49.277344 29.425781-49.277344 58.695312 0 32.863281 24.875 63.457031 63.664062 59.453125 7.402344 16.769532 17.558594 32.382813 30.238282 46.277344-19.621094 10.242188-37.917969 23.046875-54.46875 38.160156-12.625 11.53125-16.632813 28.585938-10.457032 44.507813 6.15625 15.875 20.566407 25.734375 37.609376 25.734375h307.121093c17.046875 0 31.457031-9.859375 37.613281-25.734375 6.175782-15.921875 2.167969-32.976563-10.460937-44.507813-16.550781-15.117187-34.835937-27.917968-54.457031-38.160156.058594-.066406.113281-.132812.171875-.195312 30.195312-33.613282 44.445312-73.941407 44.445312-114.660157v-35.234375c22.402344 2.347656 39.925781 21.34375 39.925781 44.359375.003907 18.601563-11.71875 35.425781-29.164062 41.863281zm-386.78125-41.863281c0-20.996093 14.53125-38.726562 34.277344-43.394531v34.269531c0 18.503907 2.953125 36.574219 8.636718 53.683594-23.8125-.886719-42.914062-20.53125-42.914062-44.558594zm382.335938 182.976563c-3.027344 7.8125-10.828126 16.160156-23.625 16.160156h-307.125c-12.796876 0-20.59375-8.347656-23.625-16.160156-3.046876-7.847656-2.914063-19.328125 6.589843-28.007813 16.765625-15.308593 35.429688-28.105469 55.492188-38.078125 27.132812 24.855469 60.84375 40.0625 96.953125 43.886719 5.238281 2.066406 96.867187 38.359375 171.4375-20.21875 5.964844 4.519531 11.746094 9.324219 17.3125 14.410156 9.503906 8.679688 9.636718 20.160157 6.589844 28.007813zm-105.78125-53.664063c-.222657-13.390625 5.867187-26.335937 16.796874-34.667969 7.578126-5.78125 16.6875-8.75 25.886719-8.75 2.863281 0 5.734375.285157 8.570313.867188-12.613282 17.046875-42.59375 38.054688-51.253906 42.550781zm43.703124-12.425781c8.765626 4.355469 17.257813 9.257812 25.445313 14.667969-41.191406 35.394531-102.71875 26.738281-105.105469 26.484375 24.917969-5.277344 59.855469-21.46875 79.660156-41.152344zm40.761719-126.011719c0 29.710938-8.359375 58.210938-23.960937 82.84375-17.902344-5.808593-37.628906-2.574219-52.800782 8.996094-16.511718 12.59375-24.851562 32.96875-22.234374 53.265625-17.902344 7.066406-37.117188 10.765625-56.875 10.765625-41.453126 0-80.546876-16.261719-110.078126-45.792969s-45.792968-68.621094-45.792968-110.078125v-84.785156c0-21.066406 4.167968-41.4375 12.375-60.65625l33.5 10.996094-6.355469 13.109375c-3.824219 7.886718-2.617187 16.890625 3.152344 23.492187 5.769531 6.601563 14.527343 9.007813 22.859375 6.273438l127.875-41.9375 11.867187 14.503906v39.566406c0 7.054688-5.742187 12.796875-12.796875 12.796875-7.054687 0-12.796875-5.742187-12.796875-12.796875v-9.207031c0-12.945312-10.527343-23.476562-23.472656-23.476562s-23.476563 10.53125-23.476563 23.476562v40.546875c0 7.054687-5.742187 12.792969-12.796874 12.792969-7.054688 0-12.796876-5.738282-12.796876-12.792969v-28.230469c0-4.140625-3.355468-7.5-7.5-7.5-4.140624 0-7.5 3.359375-7.5 7.5v28.226563c0 15.328125 12.46875 27.796875 27.796876 27.796875 15.328124 0 27.796874-12.472656 27.796874-27.796875v-40.546875c0-4.671875 3.800782-8.476563 8.476563-8.476563 4.671875 0 8.472656 3.804688 8.472656 8.476563v9.207031c0 15.328125 12.472657 27.796875 27.796875 27.796875 15.328125 0 27.796875-12.46875 27.796875-27.796875v-21.234375l13.976563 17.082031c4.140625 5.058594 9.945312 8.621094 19.761718 7.640625 7.589844-.753906 13.789063-5.988281 16.699219-13.039062l7.699219-18.625 32.808594 10.066406c.347656 4.238281.523437 97.550781.523437 97.550781zm0 0"/></svg>