<svg height="511pt" viewBox="-29 0 511 511.99903" width="511pt" xmlns="http://www.w3.org/2000/svg"><path d="m73.105469 504.5h307.121093c30.054688 0 44.289063-36.9375 22.09375-57.207031-35.242187-32.183594-92.128906-65.96875-175.65625-65.96875-83.523437 0-140.414062 33.785156-175.65625 65.96875-22.191406 20.269531-7.957031 57.207031 22.097657 57.207031zm0 0" fill="#e57070"/><path d="m271.335938 459.507812h-89.339844l-15.640625 44.992188h120.617187zm0 0" fill="#696970"/><path d="m270.871094 441.8125h-88.410156l-14.554688 23.449219c-4.550781 7.332031 1.5625 16.632812 10.097656 15.363281l48.660156-7.242188 48.664063 7.242188c8.535156 1.269531 14.648437-8.03125 10.097656-15.363281zm0 0" fill="#898890"/><g fill="#ff929f"><path d="m75.453125 116.886719s-35.835937-45.554688-34.5-94.007813c.398437-14.398437 18.382813-20.851562 27.640625-9.816406 15.652344 18.65625 42.945312 38.871094 86.222656 34.554688.335938 1.148437-79.363281 69.269531-79.363281 69.269531zm0 0"/><path d="m377.878906 116.886719s35.835938-45.554688 34.5-94.007813c-.398437-14.398437-18.382812-20.851562-27.640625-9.816406-15.652343 18.65625-42.945312 38.871094-86.226562 34.554688-.335938 1.148437 79.367187 69.269531 79.367187 69.269531zm0 0"/><path d="m408.023438 337.613281c-19.820313 19.820313-51.957032 19.820313-71.777344 0-19.816406-19.820312-19.816406-51.957031 0-71.777343 19.820312-19.820313 82.917968-50.78125 102.738281-30.960938s-11.140625 82.917969-30.960937 102.738281zm0 0"/></g><path d="m45.308594 337.613281c19.820312 19.820313 51.953125 19.820313 71.773437 0 19.824219-19.820312 19.820313-51.957031 0-71.777343-19.820312-19.820313-82.914062-50.78125-102.734375-30.960938-19.820312 19.820312 11.140625 82.917969 30.960938 102.738281zm0 0" fill="#ff737d"/><path d="m226.664062 452.109375c-89.851562 0-163.371093-73.519531-163.371093-163.371094v-84.785156c0-89.855469 73.519531-163.371094 163.371093-163.371094 89.855469 0 163.375 73.515625 163.375 163.371094v84.785156c0 89.851563-73.519531 163.371094-163.375 163.371094zm0 0" fill="#ffa5b5"/><path d="m164.078125 387.785156c-15.910156-19.632812-17.878906-47.128906-4.929687-68.832031 26.769531-44.878906 32.339843-109.992187 32.339843-109.992187v-164.539063c-73.09375 16.199219-128.195312 81.746094-128.195312 159.53125v84.785156c0 89.851563 73.519531 163.371094 163.371093 163.371094 12.804688 0 25.285157-1.496094 37.257813-4.3125-49.433594-10.300781-80.839844-36.546875-99.84375-60.011719zm0 0" fill="#ff929f"/><path d="m226.664062 23.769531c-19.964843 0-192.375-2.664062-163.371093 210.839844 0 0 28.101562-52.371094 65.296875-81.464844 8.601562-6.726562 20.5625-6.863281 29.40625-.453125 12.621094 9.140625 35.300781 20.667969 68.667968 20.667969 33.371094 0 56.050782-11.527344 68.671876-20.667969 8.839843-6.40625 20.804687-6.273437 29.40625.453125 37.195312 29.09375 65.296874 81.464844 65.296874 81.464844 29.003907-213.503906-143.40625-210.839844-163.375-210.839844zm0 0" fill="#898890"/><path d="m219.140625 23.832031c-38.695313.890625-182.535156 14.324219-155.847656 210.777344 0 0 28.101562-52.371094 65.296875-81.464844 8.601562-6.726562 20.5625-6.863281 29.40625-.453125 7.535156 5.457032 18.65625 11.765625 33.492187 15.960938 0 0-29.324219-98.15625 27.652344-144.820313zm0 0" fill="#77767c"/><path d="m307.324219 320.183594c4.140625 0 7.5-3.359375 7.5-7.5v-12.453125c0-4.140625-3.359375-7.5-7.5-7.5-4.144531 0-7.5 3.359375-7.5 7.5v12.453125c0 4.140625 3.355469 7.5 7.5 7.5zm0 0"/><path d="m146.007812 320.183594c4.144532 0 7.5-3.359375 7.5-7.5v-12.453125c0-4.140625-3.355468-7.5-7.5-7.5-4.144531 0-7.5 3.359375-7.5 7.5v12.453125c0 4.140625 3.359376 7.5 7.5 7.5zm0 0"/><path d="m199.152344 318.609375c8.097656 6.285156 17.804687 9.425781 27.511718 9.425781 9.707032 0 19.417969-3.140625 27.515626-9.425781 3.273437-2.539063 3.867187-7.25 1.328124-10.519531-2.535156-3.277344-7.25-3.871094-10.519531-1.332032-10.789062 8.367188-25.855469 8.367188-36.640625 0-3.273437-2.539062-7.988281-1.945312-10.523437 1.332032-2.539063 3.269531-1.945313 7.984375 1.328125 10.519531zm0 0"/><path d="m407.378906 441.757812c-16.554687-15.121093-34.839844-27.925781-54.464844-38.164062 12.238282-13.410156 22.121094-28.425781 29.449219-44.53125 11.675781-2.082031 22.496094-7.679688 30.964844-16.148438 20.808594-20.808593 55.734375-88.566406 30.960937-113.34375-6.621093-6.621093-19.75-12.300781-45.425781-5.550781 4.519531-42.628906 1.140625-79.242187-10.085937-109.480469 4.683594-6.917968 11.691406-18.261718 17.894531-32.304687 1.675781-3.789063-.039063-8.214844-3.828125-9.890625-3.789062-1.671875-8.21875.042969-9.890625 3.832031-3.757813 8.503907-7.832031 15.933594-11.414063 21.855469-5.328124-10.441406-14.113281-28.867188-39.25-47.210938 18.445313-5.902343 34.882813-17.070312 48.191407-32.9375 3.304687-3.933593 7.585937-2.835937 8.816406-2.40625 1.273437.445313 5.4375 2.300782 5.582031 7.609376.226563 8.25-.714844 17.03125-2.796875 26.109374-.925781 4.035157 1.65625 8.4375 7.316407 9.179688 3.386718.441406 6.503906-2.351562 7.300781-5.824219 2.367187-10.308593 3.4375-20.363281 3.171875-29.875-.269532-9.761719-6.40625-18.148437-15.636719-21.363281-9.136719-3.183594-19.042969-.460938-25.246094 6.929688-14.621093 17.433593-32.742187 27.933593-53.871093 31.285156-26.972657-15.179688-60.246094-23.257813-97.378907-23.257813-.117187 0-.242187 0-.355469 0h-1.441406c-.117187 0-.234375 0-.351562 0-37.132813 0-70.40625 8.078125-97.382813 23.261719-21.125-3.351562-39.246093-13.855469-53.871093-31.285156-6.199219-7.394532-16.109376-10.117188-25.238282-6.933594-9.234375 3.214844-15.371094 11.601562-15.640625 21.359375-1.09375 39.617187 21.167969 77.167969 31.097657 91.863281-11.226563 30.246094-14.609376 66.863282-10.085938 109.503906-16.3125-4.257812-34.53125-5.359374-45.425781 5.535157-24.773438 24.773437 10.152343 92.53125 30.960937 113.34375 8.425782 8.421875 19.273438 14.054687 30.929688 16.144531 7.328125 16.113281 17.230468 31.113281 29.488281 44.527344-19.625 10.242187-37.914063 23.046875-54.46875 38.167968-12.628906 11.53125-16.636719 28.585938-10.460937 44.507813 6.15625 15.875 20.570312 25.734375 37.613281 25.734375h307.121093c17.042969 0 31.457032-9.863281 37.613282-25.734375 6.175781-15.921875 2.167968-32.976563-10.460938-44.507813zm26.304688-201.578124c6.328125 6.328124 5.453125 22.570312-2.339844 43.441406-7.851562 21.023437-20.339844 40.40625-28.621094 48.6875-3.914062 3.914062-8.511718 6.996094-13.511718 9.148437 5.476562-16.824219 8.328124-34.5625 8.328124-52.71875v-48.726562c17.324219-5.394531 30.574219-5.402344 36.144532.167969zm-207.757813-208.910157h1.480469.332031c52.378907 0 96.136719 17.054688 123.234375 48.042969 26.847656 30.695312 38.238282 75.109375 33.972656 132.234375-11.851562-18.355469-31.773437-45.683594-55.582031-64.308594-5.707031-4.460937-12.640625-6.703125-19.597656-6.703125-6.605469 0-13.230469 2.019532-18.832031 6.082032-12.117188 8.777343-33.101563 19.242187-64.269532 19.242187-31.164062 0-52.148437-10.464844-64.265624-19.242187-11.503907-8.335938-27.304688-8.078126-38.429688.621093-23.808594 18.625-43.730469 45.953125-55.582031 64.308594-4.265625-57.125 7.125-101.539063 33.972656-132.234375 27.097656-30.988281 70.851563-48.042969 123.234375-48.042969zm-177.476562-8.179687c.148437-5.3125 4.308593-7.167969 5.582031-7.613282 1.234375-.429687 5.515625-1.523437 8.816406 2.410157 13.308594 15.863281 29.746094 27.035156 48.191406 32.933593-19.648437 13.667969-33.917968 36.761719-39.246093 47.203126-9.972657-16.492188-24.160157-45.332032-23.34375-74.933594zm2.160156 309.21875c-8.28125-8.28125-20.769531-27.664063-28.621094-48.6875-7.792969-20.871094-8.667969-37.113282-2.339843-43.441406 5.527343-5.527344 18.855468-5.519532 36.144531-.148438v48.707031c0 18.179688 2.847656 35.90625 8.308593 52.710938-5-2.15625-9.59375-5.242188-13.492187-9.140625zm-1.132813 148.53125c-3.042968-7.851563-2.914062-19.332032 6.589844-28.007813 18.042969-16.476562 38.253906-30.035156 60.074219-40.304687h-.003906c6.054687-2.640625 5-9.265625 2.03125-12.152344-30.550781-29.707031-47.375-69.351562-47.375-111.636719v-52.1875c4.992187-8.878906 30.445312-52.488281 62.417969-77.496093 5.980468-4.675782 14.171874-4.792969 20.386718-.292969 13.914063 10.082031 37.886719 22.097656 73.066406 22.097656 35.1875 0 59.15625-12.015625 73.070313-22.097656 6.214844-4.5 14.40625-4.382813 20.382813.292969 31.921874 24.96875 57.421874 68.617187 62.421874 77.496093v52.1875c0 41.457031-16.265624 80.546875-45.796874 110.078125-29.527344 29.53125-68.621094 45.796875-110.078126 45.796875-31.226562 0-61.417968-9.316406-87.296874-26.933593-3.425782-2.332032-8.089844-1.445313-10.421876 1.980468-2.332031 3.421875-1.445312 8.089844 1.980469 10.417969 11.902344 8.105469 24.640625 14.597656 37.941407 19.414063l-7.332032 11.816406c-8.828125 13.480468 2.507813 21.894531 3.890625 23.023437l-4.402343 12.667969h-87.917969c-12.800781 0-20.597657-8.347656-23.628907-16.160156zm229.578126-11.625c1.613281 2.855468-.335938 4.332031-2.625 3.992187l-48.660157-7.242187c-.730469-.109375-1.476562-.109375-2.207031 0l-48.660156 7.242187c-2.085938.277344-4.222656-1.402343-2.625-3.992187l9.386718-15.121094c13.9375 3.644531 28.363282 5.515625 43 5.515625 14.703126 0 29.128907-1.875 43.019532-5.492187zm-98.988282 18.6875 46.597656-6.9375 46.601563 6.9375 3.164063 9.097656h-99.527344zm223.789063-7.0625c-3.03125 7.8125-10.828125 16.160156-23.628907 16.160156h-87.917968l-4.402344-12.664062c1.386719-1.128907 11.6875-8.84375 3.894531-23.03125l-7.308593-11.773438c20.972656-7.578125 40.402343-19.316406 57.285156-34.785156 20.066406 9.976562 38.714844 22.769531 55.488281 38.085937 9.503906 8.679688 9.632813 20.15625 6.589844 28.007813zm0 0"/></svg>