<svg height="512pt" viewBox="-25 0 512 512" width="512pt" xmlns="http://www.w3.org/2000/svg"><path d="m25.421875 249.714844h60.882813v35.425781h-60.882813zm0 0" fill="#d8d7da"/><path d="m25.421875 300.242188c-9.859375 0-17.921875-8.066407-17.921875-17.921876v-29.785156c0-9.855468 8.0625-17.921875 17.921875-17.921875 9.855469 0 17.921875 8.066407 17.921875 17.921875v29.785156c-.003906 9.855469-8.066406 17.921876-17.921875 17.921876zm0 0" fill="#eaeaea"/><path d="m374.882812 249.714844h60.882813v35.425781h-60.882813zm0 0" fill="#d8d7da"/><path d="m435.761719 300.242188c9.859375 0 17.921875-8.066407 17.921875-17.921876v-29.785156c0-9.855468-8.0625-17.921875-17.921875-17.921875-9.855469 0-17.917969 8.066407-17.917969 17.921875v29.785156c0 9.855469 8.0625 17.921876 17.917969 17.921876zm0 0" fill="#eaeaea"/><path d="m389.488281 388.015625c-84.160156 6.808594-233.632812 6.808594-317.792969 0-23.484374-1.898437-41.773437 19.960937-35.738281 42.734375 3.851563 14.527344 8.128907 32.011719 12.363281 52.109375 2.65625 12.609375 13.785157 21.640625 26.671876 21.640625h311.199218c12.886719 0 24.019532-9.03125 26.675782-21.640625 4.234374-20.097656 8.507812-37.582031 12.359374-52.109375 6.039063-22.773438-12.253906-44.632812-35.738281-42.734375zm0 0" fill="#eac2ff"/><path d="m71.695312 388.015625c-23.484374-1.898437-41.777343 19.960937-35.738281 42.734375 3.851563 14.527344 8.125 32.011719 12.359375 52.109375 2.660156 12.609375 13.789063 21.640625 26.675782 21.640625h145.929687c42.25-27.859375 53.121094-58.300781 53.121094-58.300781v-53.394531c-71.707031 1.058593-149.773438-.535157-202.347657-4.789063zm0 0" fill="#dfaeff"/><path d="m135.109375 391.511719c-23.363281-.835938-44.960937-2.003907-63.414063-3.496094-23.484374-1.898437-41.777343 19.960937-35.738281 42.734375 3.851563 14.527344 8.125 32.011719 12.359375 52.109375 2.660156 12.609375 13.789063 21.640625 26.675782 21.640625h92.4375c-18.160157-38.460938-27.894532-85.988281-32.320313-112.988281zm0 0" fill="#8b997f"/><path d="m326.074219 391.511719c23.363281-.835938 44.960937-2.003907 63.414062-3.496094 23.484375-1.898437 41.777344 19.960937 35.738281 42.734375-3.851562 14.527344-8.125 32.011719-12.363281 52.109375-2.65625 12.609375-13.785156 21.640625-26.671875 21.640625h-92.4375c18.160156-38.460938 27.894532-85.988281 32.320313-112.988281zm0 0" fill="#9dad92"/><path d="m230.59375 7.5c-53.941406 0-98.601562 6.832031-131.222656 14.289062-31.425782 7.183594-51.738282 37.863282-45.636719 69.519532 13.339844 69.199218 13.488281 162.792968 13.488281 164.664062v32.765625c0 89.855469 73.515625 163.371094 163.371094 163.371094 89.851562 0 163.371094-73.515625 163.371094-163.371094v-32.765625c0-1.871094.144531-95.464844 13.484375-164.664062 6.101562-31.65625-14.210938-62.335938-45.636719-69.519532-32.621094-7.457031-77.28125-14.289062-131.21875-14.289062zm0 0" fill="#c8efb9"/><path d="m67.222656 288.738281c0 89.855469 73.515625 163.371094 163.371094 163.371094 22.027344 0 43.09375-4.425781 62.316406-12.421875-38.027344-7.710938-68.867187-25.628906-92.011718-44.070312-31.070313-24.753907-41.164063-67.722657-24.128907-103.605469 59.066407-124.4375 44.289063-219.230469 44.289063-219.230469v-65.207031c-49.679688.742187-91.007813 7.203125-121.6875 14.214843-31.425782 7.183594-51.738282 37.863282-45.636719 69.519532 13.339844 69.199218 13.484375 162.792968 13.488281 164.664062zm0 0" fill="#b2e59c"/><path d="m127.636719 81.996094-26.753907 64.359375c-4.277343 10.28125-.574218 22.144531 8.785157 28.171875l25.46875 16.402344-11.097657 27.183593c-4.332031 10.621094 8.082032 20.195313 17.253907 13.304688l43.566406-32.738281c8.828125-6.632813 10.71875-19.109376 4.253906-28.058594l-21.039062-29.132813 32.679687-68.710937zm0 0" fill="#ff929f"/><path d="m393.511719 40.585938c-8.066407-9.121094-18.972657-15.886719-31.699219-18.796876-32.621094-7.457031-77.28125-14.289062-131.21875-14.289062-53.941406 0-98.601562 6.832031-131.222656 14.289062-12.726563 2.90625-23.632813 9.675782-31.695313 18.796876l-25.117187 29.554687c-7.105469 8.363281-.402344 21.117187 10.511718 20.011719l34.289063-3.472656 35.582031 22.351562c7.6875 4.828125 17.421875 4.964844 25.242188.359375l42.699218-25.15625 21.128907 20.597656c10.339843 10.074219 26.824219 10.074219 37.160156 0l21.132813-20.597656 42.695312 25.15625c7.820312 4.609375 17.558594 4.46875 25.246094-.359375l35.578125-22.351562 34.289062 3.472656c10.914063 1.105468 17.617188-11.648438 10.511719-20.011719zm0 0" fill="#898890"/><path d="m230.59375 349.835938c-15.523438 0-28.101562-12.582032-28.101562-28.101563v-20.429687c0-4.238282 3.433593-7.671876 7.671874-7.671876h40.859376c4.234374 0 7.667968 3.433594 7.667968 7.671876v20.429687c0 15.519531-12.578125 28.101563-28.097656 28.101563zm0 0" fill="#57565c"/><path d="m166.570312 321.734375c0-13.183594-13.421874-23.871094-29.972656-23.871094-16.554687 0-29.976562 10.6875-29.976562 23.871094s13.421875 23.867187 29.976562 23.867187c16.550782 0 29.972656-10.683593 29.972656-23.867187zm0 0" fill="#ffa6bb"/><path d="m354.5625 321.734375c0-13.183594-13.421875-23.871094-29.972656-23.871094-16.554688 0-29.976563 10.6875-29.976563 23.871094s13.421875 23.867187 29.976563 23.867187c16.550781 0 29.972656-10.683593 29.972656-23.867187zm0 0" fill="#ffa6bb"/><path d="m311.25 281.179688c-4.144531 0-7.5 3.359374-7.5 7.5v12.453124c0 4.140626 3.355469 7.5 7.5 7.5 4.140625 0 7.5-3.359374 7.5-7.5v-12.453124c0-4.140626-3.359375-7.5-7.5-7.5zm0 0"/><path d="m149.933594 281.179688c-4.140625 0-7.5 3.359374-7.5 7.5v12.453124c0 4.140626 3.359375 7.5 7.5 7.5 4.144531 0 7.5-3.359374 7.5-7.5v-12.453124c0-4.140626-3.355469-7.5-7.5-7.5zm0 0"/><path d="m435.761719 227.113281c-10.34375 0-19.257813 6.214844-23.222657 15.101563h-10.894531c.566407-27.9375 2.882813-93.058594 12.339844-145.054688 5.402344-1.300781 10.085937-4.84375 12.78125-9.976562 3.753906-7.148438 2.804687-15.746094-2.425781-21.898438l-25.113282-29.554687c-.03125-.039063-.066406-.074219-.097656-.113281-9.417968-10.652344-21.746094-17.964844-35.648437-21.140626-3.144531-.71875-6.359375-1.421874-9.550781-2.089843-4.054688-.847657-8.03125 1.75-8.878907 5.804687-.847656 4.054688 1.753907 8.03125 5.804688 8.878906 3.105469.648438 6.226562 1.332032 9.285156 2.03125 10.800781 2.46875 20.378906 8.136719 27.703125 16.402344l25.0625 29.492188c2.53125 3.046875.875 8.023437-4.039062 7.695312l-34.289063-3.472656c-1.664063-.167969-3.332031.222656-4.742187 1.109375l-35.582032 22.351563c-5.335937 3.351562-12.019531 3.449218-17.449218.25l-42.695313-25.15625c-2.914063-1.714844-6.621094-1.269532-9.042969 1.09375l-21.128906 20.59375c-7.484375 7.296874-19.210938 7.296874-26.691406 0l-21.128906-20.59375c-2.425782-2.363282-6.132813-2.808594-9.042969-1.09375l-42.699219 25.15625c-5.429688 3.199218-12.113281 3.101562-17.445312-.25l-35.582032-22.351563c-1.410156-.886719-3.082031-1.277344-4.742187-1.109375l-34.289063 3.472656c-5.351562.746094-6.628906-4.59375-4.039062-7.695312l25.0625-29.496094c7.324218-8.261719 16.902344-13.933594 27.703125-16.402344 40.933593-9.355468 84.519531-14.097656 129.550781-14.097656 30.988281 0 61.6875 2.296875 91.242188 6.824219 4.089843.628906 7.921874-2.183594 8.550781-6.277344.625-4.09375-2.183594-7.921875-6.277344-8.550781-30.304687-4.640625-61.769531-6.996094-93.515625-6.996094-46.152344 0-90.863281 4.871094-132.894531 14.476562-13.898438 3.175782-26.226563 10.488282-35.644531 21.140626-.03125.039062-.066407.074218-.097657.113281l-25.113281 29.554687c-5.226562 6.152344-6.183594 14.75-2.425781 21.898438 2.695312 5.128906 7.382812 8.675781 12.78125 9.972656 9.453125 51.992188 11.773437 117.105469 12.339843 145.058594h-10.894531c-3.964843-8.886719-12.878906-15.101563-23.222656-15.101563-14.019531 0-25.421875 11.40625-25.421875 25.421875v29.785156c0 14.015626 11.402344 25.421876 25.421875 25.421876 10.34375 0 19.257813-6.214844 23.222656-15.101563h11.125c.738281 32.320313 10.621094 62.96875 27.539063 88.996094-5.246094-.347657-10.265625-.714844-15.011719-1.097657-13.660156-1.105468-26.527344 4.285157-35.308594 14.792969-8.769531 10.496094-11.789062 24.105469-8.28125 37.339844 4.433594 16.71875 8.5625 34.125 12.273438 51.730469 3.367187 15.992187 17.671875 27.597656 34.011719 27.597656h311.199218c16.339844 0 30.644532-11.605469 34.011719-27.597656 3.710937-17.605469 7.839844-35.011719 12.273437-51.730469 3.507813-13.234375.488282-26.84375-8.285156-37.339844-8.777344-10.503906-21.648437-15.894531-35.308594-14.792969-4.75.386719-9.773437.75-15.023437 1.097657 17.257813-26.398438 26.835937-56.988281 27.554687-88.996094h11.125c3.964844 8.886719 12.878907 15.101563 23.222657 15.101563 14.015625 0 25.421875-11.40625 25.421875-25.421876v-29.785156c0-14.015625-11.402344-25.421875-25.421875-25.421875zm-34.300781 30.101563h8.882812v20.425781h-8.882812zm-249.472657-141.363282 27.75-16.347656-18.4375 38.765625c-1.175781 2.472657-.910156 5.390625.691407 7.613281l21.042968 29.132813c4.039063 5.59375 2.839844 13.523437-2.679687 17.671875l-43.570313 32.738281c-4.207031 2.675781-7.546875-.546875-5.800781-4.476562l11.09375-27.1875c1.367187-3.34375.152344-7.183594-2.882813-9.140625l-25.464843-16.398438c-6.316407-4.066406-8.808594-12.054687-5.925781-18.988281l13.515624-32.511719c4.570313 2.355469 17.117188 6.828125 30.667969-.871094zm-92.265625 141.363282v20.425781h-8.882812v-20.425781zm-23.882812 25.105468c0 5.746094-4.675782 10.421876-10.417969 10.421876-5.746094 0-10.421875-4.675782-10.421875-10.421876v-29.785156c0-5.746094 4.675781-10.421875 10.421875-10.421875 5.742187 0 10.417969 4.675781 10.417969 10.421875zm19.816406 198.992188c-3.761719-17.859375-7.953125-35.515625-12.449219-52.484375-2.242187-8.464844-.316406-17.167969 5.292969-23.878906 5.613281-6.714844 13.847656-10.164063 22.589844-9.457031 8.484375.683593 17.816406 1.316406 27.765625 1.875 10.375 12.566406 22.558593 23.691406 36.253906 32.945312 5.832031 25.292969 12.804687 47.65625 20.789063 66.6875h-80.90625c-9.289063 0-17.421876-6.597656-19.335938-15.6875zm334.4375-85.820312c8.742188-.707032 16.976562 2.738281 22.589844 9.457031 5.605468 6.710937 7.539062 15.414062 5.292968 23.878906-4.496093 16.96875-8.6875 34.625-12.449218 52.484375-1.914063 9.089844-10.046875 15.6875-19.335938 15.6875h-80.90625c7.988282-19.042969 14.964844-41.414062 20.796875-66.71875 8.9375-6.074219 24.40625-16.945312 36.167969-32.90625 9.972656-.5625 19.332031-1.195312 27.84375-1.882812zm-3.632812-106.753907c0 41.457031-16.261719 80.546875-45.792969 110.078125-29.527344 29.53125-68.621094 45.792969-110.074219 45.792969-6.785156 0-13.617188-.445313-20.304688-1.328125-4.105468-.539062-7.875 2.351562-8.414062 6.460938-.539062 4.105468 2.351562 7.871093 6.457031 8.414062 7.332031.964844 14.820313 1.453125 22.261719 1.453125 27.320312 0 53.699219-6.445313 77.429688-18.609375-5.523438 21.261719-11.914063 40.023438-19.078126 56h-116.707031c-7.167969-15.984375-13.5625-34.757812-19.089843-56.035156 6.960937 3.550781 14.210937 6.675781 21.75 9.273437 5.4375 1.871094 8.46875-1.527343 9.542968-4.625 1.359375-3.914062-.710937-8.1875-4.621094-9.546875-62.863281-21.835937-105.097656-81.039062-105.097656-147.328125 0 0 4.894532-117.503906-12.355468-191.988281l23.183593-2.347656 22.839844 14.347656-14.4375 34.726562c-5.671875 13.644532-.769531 29.355469 11.65625 37.359376l20.226563 13.023437-8.738282 21.421875c-3.234375 7.925781-.855468 16.765625 5.925782 21.992188 3.421874 2.636718 13.613281 6.925781 22.773437.140624l43.570313-32.738281c12.003906-9.023437 14.621093-26.269531 5.828124-38.445312l-18.441406-25.53125 19.421875-40.832031 10.597657 10.332031c13.355468 13.019531 34.277343 13.019531 47.632812 0l17.027344-16.59375 37.757812 22.246093c10.277344 6.054688 22.941406 5.875 33.042969-.46875l33.398437-20.980468 23.183594 2.347656c-14.265625 75.617188-12.355468 191.988281-12.355468 191.988281zm59.722656-6.417969c0 5.746094-4.675782 10.421876-10.421875 10.421876-5.742188 0-10.417969-4.675782-10.417969-10.421876v-29.785156c0-5.746094 4.675781-10.421875 10.417969-10.421875 5.746093 0 10.421875 4.675781 10.421875 10.421875zm0 0"/><path d="m251.023438 286.132812h-40.863282c-8.363281 0-15.167968 6.808594-15.167968 15.171876v20.429687c0 19.628906 15.96875 35.601563 35.601562 35.601563 19.628906 0 35.597656-15.972657 35.597656-35.601563v-20.429687c0-8.363282-6.804687-15.171876-15.167968-15.171876zm.167968 35.601563c0 11.359375-9.242187 20.601563-20.597656 20.601563-11.359375 0-20.601562-9.242188-20.601562-20.601563v-20.429687c0-.09375 41.027343-.171876 41.027343-.171876.09375 0 .171875 20.601563.171875 20.601563zm0 0"/></svg>