<svg height="512pt" viewBox="-7 0 512 512" width="512pt" xmlns="http://www.w3.org/2000/svg"><path d="m94.335938 504.5h307.121093c30.054688 0 44.289063-36.9375 22.09375-57.203125-35.242187-32.183594-92.128906-65.972656-175.65625-65.972656-83.523437 0-140.410156 33.789062-175.652343 65.972656-22.195313 20.265625-7.960938 57.203125 22.09375 57.203125zm0 0" fill="#898890"/><path d="m419.695312 398.011719h-343.597656l-22.214844 20.816406c-10.28125 9.636719-4.757812 26.890625 9.210938 28.761719l67.945312 9.101562 3.238282 12.402344c3.101562 11.871094 14.453125 19.664062 26.644531 18.289062l86.972656-9.792968 86.972657 9.792968c12.195312 1.375 23.546874-6.417968 26.644531-18.289062l3.242187-12.402344 67.945313-9.101562c13.96875-1.871094 19.492187-19.125 9.210937-28.761719zm0 0" fill="#9ad880"/><path d="m267.164062 7.5h-27.757812c-7.480469 0-14.097656 4.847656-16.355469 11.980469l-20.523437 64.851562h101.515625l-20.523438-64.851562c-2.257812-7.132813-8.875-11.980469-16.355469-11.980469zm0 0" fill="#c68d6d"/><path d="m139.679688 436.707031c-72.699219 0-132.179688-59.480469-132.179688-132.179687v-116.355469c0-72.699219 59.480469-132.183594 132.179688-132.183594 72.699218 0 132.179687 59.484375 132.179687 132.183594v116.355469c.003906 72.699218-59.480469 132.179687-132.179687 132.179687zm0 0" fill="#ffc477"/><path d="m61.09375 410.632812c22.003906 16.367188 49.214844 26.074219 78.585938 26.074219 72.699218 0 132.179687-59.480469 132.179687-132.179687v-116.355469c0-43.226563-21.027344-81.777344-53.355469-105.929687l-73.210937-.597657s-152.59375 77.363281-84.199219 328.988281zm0 0" fill="#ffaf57"/><path d="m358.335938 436.707031c-72.699219 0-132.179688-59.480469-132.179688-132.179687v-116.355469c0-72.699219 59.480469-132.183594 132.179688-132.183594 72.699218 0 132.179687 59.484375 132.179687 132.183594v116.355469c0 72.699218-59.480469 132.179687-132.179687 132.179687zm0 0" fill="#ffc477"/><path d="m436.921875 410.632812c-22.007813 16.367188-49.214844 26.074219-78.585937 26.074219-72.699219 0-132.179688-59.480469-132.179688-132.179687v-116.355469c0-43.226563 21.027344-81.777344 53.355469-105.929687l73.210937-.597657s152.59375 77.363281 84.199219 328.988281zm0 0" fill="#ffaf57"/><path d="m253.285156 452.109375c-89.855468 0-163.371094-73.515625-163.371094-163.371094v-84.78125c0-89.855469 73.515626-163.371093 163.371094-163.371093 89.851563 0 163.371094 73.515624 163.371094 163.371093v84.78125c0 89.855469-73.515625 163.371094-163.371094 163.371094zm0 0" fill="#ffdaaa"/><path d="m174.738281 229.804688c-3.792969-103.140626 40.519531-163.757813 64.199219-188.589844-83.195312 7.335937-149.023438 77.726562-149.023438 162.742187v84.78125c0 89.855469 73.515626 163.371094 163.371094 163.371094 3.175782 0 6.332032-.089844 9.46875-.273437-28.128906-74.613282-84.023437-113.539063-88.015625-222.03125zm0 0" fill="#ffd097"/><path d="m328.554688 292.734375c-4.144532 0-7.5 3.359375-7.5 7.5v12.449219c0 4.144531 3.355468 7.5 7.5 7.5 4.140624 0 7.5-3.355469 7.5-7.5v-12.449219c0-4.140625-3.359376-7.5-7.5-7.5zm0 0"/><path d="m167.238281 292.734375c-4.140625 0-7.5 3.359375-7.5 7.5v12.449219c0 4.144531 3.359375 7.5 7.5 7.5 4.144531 0 7.5-3.355469 7.5-7.5v-12.449219c0-4.140625-3.355469-7.5-7.5-7.5zm0 0"/><path d="m266.21875 306.761719c-10.789062 8.367187-25.855469 8.367187-36.644531 0-3.269531-2.539063-7.984375-1.945313-10.519531 1.332031-2.539063 3.269531-1.945313 7.980469 1.328124 10.519531 8.101563 6.285157 17.808594 9.425781 27.515626 9.425781 9.707031 0 19.414062-3.140624 27.511718-9.425781 3.273438-2.539062 3.867188-7.25 1.328125-10.519531-2.539062-3.277344-7.25-3.871094-10.519531-1.332031zm0 0"/><path d="m358.335938 48.488281c-9.496094 0-18.984376.984375-28.230469 2.898438-10.351563-5.230469-21.257813-9.417969-32.566407-12.457031l-6.867187-21.714844c-3.261719-10.296875-12.707031-17.214844-23.507813-17.214844h-27.757812c-10.800781 0-20.246094 6.917969-23.507812 17.21875l-6.863282 21.683594c-12.222656 3.285156-24.023437 7.925781-35.214844 13.855468-11.125-2.820312-22.59375-4.265624-34.140624-4.265624-77.019532 0-139.679688 62.660156-139.679688 139.679687v116.355469c0 43.082031 19.613281 81.671875 50.371094 107.3125 0 0-12.476563 8.125-8.121094 26.566406 1.835938 7.765625 8.242188 13.308594 15.628906 15.65625-4.835937 9.835938-5.390625 21.285156-1.15625 32.203125 6.160156 15.875 20.570313 25.734375 37.613282 25.734375h307.121093c17.042969 0 31.453125-9.859375 37.609375-25.734375 4.234375-10.917969 3.679688-22.367187-1.152344-32.203125 7.386719-2.347656 13.152344-8.070312 15.625-15.65625 5.269532-16.148438-7.078124-25.59375-7.078124-25.59375 31.4375-25.632812 51.554687-64.652344 51.554687-108.285156v-116.355469c0-77.023437-62.660156-139.683594-139.679687-139.683594zm-128.136719-26.746093c1.277343-4.03125 4.976562-6.742188 9.207031-6.742188h27.757812c4.230469 0 7.929688 2.710938 9.203126 6.742188l4.292968 13.558593c-8.957031-1.457031-18.105468-2.214843-27.375-2.214843-9.253906 0-18.398437.753906-27.371094 2.203124zm-215.199219 282.785156v-116.355469c0-33.160156 12.613281-64.832031 36.632812-88.050781 41.804688-40.417969 90.34375-38.503906 103.246094-35.6875-7.859375 5.585937-15.3125 11.875-22.277344 18.839844-32.363281 32.363281-50.1875 75.222656-50.1875 120.679687v84.785156c0 45.460938 17.824219 88.320313 50.1875 120.683594 6.964844 6.964844 14.417969 13.253906 22.277344 18.835937-41.078125 4.367188-79.625-12.0625-103.246094-35.683593-23.621093-23.621094-36.632812-54.890625-36.632812-88.046875zm424.257812 129.304687c-1.152343 3.460938-3.9375 5.839844-7.554687 6.324219l-67.945313 9.101562c-3.019531.402344-5.492187 2.59375-6.261718 5.539063l-3.238282 12.402344c-2.144531 8.207031-10.113281 13.683593-18.550781 12.730469 0 0-88.09375-9.855469-88.648437-9.789063l-25.1875 2.835937c-4.117188.460938-7.078125 4.175782-6.613282 8.292969.460938 4.113281 4.191407 7.070313 8.289063 6.613281l24.351563-2.742187 86.132812 9.699219c27.089844 2.160156 31.027344-9.640625 34.742188-23.851563l1.964843-7.53125 51.175781-6.855469c6.042969 8.035157 5.792969 17.480469 3.171876 24.242188-3.03125 7.808594-10.832032 16.15625-23.628907 16.15625h-307.121093c-12.796876 0-20.597657-8.347656-23.625-16.160156-2.625-6.757813-2.871094-16.203125 3.167968-24.238282l51.175782 6.855469 1.96875 7.53125c3.710937 14.210938 10 26.011719 34.738281 23.847657l31.292969-3.523438c4.117187-.460938 7.078124-4.175781 6.613281-8.289062-.464844-4.117188-4.183594-7.074219-8.292969-6.617188l-31.289062 3.523438c-8.4375.953124-16.40625-4.523438-18.550782-12.734376l-3.238281-12.398437c-.769531-2.945313-3.242187-5.136719-6.261719-5.539063l-67.945312-9.101562c-3.617188-.484375-6.421875-2.855469-7.550782-6.324219-2.613281-8.023437 6.054688-12.886719 6.054688-12.886719 22.105469 14.691407 48.613281 23.261719 77.085938 23.261719 11.546874 0 23.011718-1.445312 34.140624-4.265625 24.25 12.847656 51.359376 19.667969 79.464844 19.667969 27.089844 0 53.257813-6.332031 76.828125-18.296875 9.25 1.917969 18.726563 2.894531 28.222657 2.894531 27.914062 0 53.941406-8.238281 75.78125-22.398437 0 0 7.839843 3.90625 5.140624 12.023437zm43.757813-129.304687c0 33.15625-12.75 64.6875-36.632813 88.046875-46.253906 45.242187-93.148437 36.546875-95.695312 36.390625 8.230469-5.761719 16.023438-12.28125 23.28125-19.542969 32.363281-32.363281 50.1875-75.222656 50.1875-120.683594v-84.78125c0-11.679687-1.203125-23.359375-3.570312-34.722656-.84375-4.054687-4.816407-6.652344-8.871094-5.8125-4.058594.847656-6.65625 4.820313-5.8125 8.875 2.160156 10.355469 3.253906 21.007813 3.253906 31.660156v84.78125c0 41.457031-16.261719 80.546875-45.792969 110.078125-29.527343 29.53125-68.621093 45.792969-110.078125 45.792969-41.453125 0-80.546875-16.261719-110.078125-45.792969-29.527343-29.53125-45.792969-68.621094-45.792969-110.078125v-84.78125c0-41.453125 16.265626-80.546875 45.792969-110.078125 29.53125-29.527344 68.625-45.792968 110.078125-45.792968 62.292969 0 118.539063 37.179687 143.296875 94.714843 1.636719 3.804688 6.046875 5.566407 9.851563 3.925781 3.808594-1.636718 5.5625-6.046874 3.925781-9.855468-12.976563-30.160156-33.859375-55.210938-59.585937-73.140625 2.515624-.15625 54.328124-4.984375 95.609374 36.390625 23.597657 23.648437 36.632813 54.894531 36.632813 88.050781zm0 0"/></svg>