<svg height="512pt" viewBox="-21 0 512 512.00041" width="512pt" xmlns="http://www.w3.org/2000/svg"><path d="m82.003906 504.5h307.117188c30.054687 0 44.289062-36.9375 22.09375-57.203125-35.242188-32.183594-92.128906-65.972656-175.652344-65.972656-83.527344 0-140.414062 33.789062-175.65625 65.972656-22.191406 20.265625-7.960938 57.203125 22.097656 57.203125zm0 0" fill="#c68d6d"/><path d="m235.5625 381.324219c-83.523438 0-140.414062 33.789062-175.65625 65.972656-22.195312 20.265625-7.960938 57.203125 22.09375 57.203125h135.054688c12.738281-7.148438 24.125-14.257812 33.746093-20.800781 31.304688-21.292969 41.984375-35.691407 41.984375-35.691407v-61.003906c-17.492187-3.605468-36.539062-5.679687-57.222656-5.679687zm0 0" fill="#b2785b"/><path d="m387.289062 393.808594h-303.453124l-28.660157 21.441406c-9.753906 7.296875-6.832031 22.621094 4.921875 25.816406l40.621094 11.042969 10.835938 14.253906c7.257812 9.546875 19.394531 14.011719 31.105468 11.449219l31.214844-6.828125 46.445312 12.714844c9.976563 2.726562 20.503907 2.726562 30.480469 0l46.449219-12.714844 31.210938 6.828125c11.714843 2.5625 23.847656-1.902344 31.105468-11.449219l10.835938-14.253906 40.621094-11.046875c11.753906-3.195312 14.671874-18.515625 4.921874-25.8125zm0 0" fill="#ffdaaa"/><path d="m292.785156 448.003906v-54.195312h-208.949218l-28.660157 21.441406c-9.753906 7.296875-6.832031 22.621094 4.921875 25.816406l40.621094 11.042969 10.835938 14.253906c7.257812 9.546875 19.394531 14.011719 31.105468 11.453125l31.214844-6.828125 46.445312 12.710938c9.976563 2.730469 20.503907 2.730469 30.480469 0 31.304688-21.292969 41.984375-35.695313 41.984375-35.695313zm0 0" fill="#ffc477"/><path d="m446.035156 313.308594c12.902344-3.695313 20.339844-17.152344 16.621094-30.046875-6.769531-23.484375-16.691406-63.125-22.714844-111.09375-9.820312-78.226563-73.476562-107.242188-73.476562-107.242188h-261.804688s-63.65625 29.015625-73.476562 107.242188c-6.023438 47.96875-15.945313 87.609375-22.71875 111.09375-3.71875 12.894531 3.722656 26.351562 16.621094 30.046875l24.003906 6.878906-17.664063 28.417969c-7.886719 12.691406-5.375 29.242187 5.949219 38.992187 28.515625 24.550782 91.34375 64.511719 198.1875 64.511719 106.839844 0 169.667969-39.960937 198.183594-64.511719 11.324218-9.75 13.835937-26.300781 5.949218-38.992187l-17.664062-28.417969zm0 0" fill="#dd9f80"/><path d="m249.796875 64.925781h-145.136719s-63.65625 29.015625-73.476562 107.242188c-6.023438 47.96875-15.945313 87.609375-22.71875 111.09375-3.71875 12.894531 3.722656 26.351562 16.621094 30.046875l24.003906 6.878906-17.664063 28.417969c-7.886719 12.691406-5.375 29.242187 5.949219 38.992187 19.699219 16.957032 55.773438 41.269532 111.40625 54.6875-29.402344-42.375-35.855469-91.964844-34.679688-131.75 1.128907-38.117187 22.980469-72.757812 57.21875-89.546875 55.246094-27.097656 78.476563-68.710937 78.476563-68.710937zm0 0" fill="#c68d6d"/><path d="m307.996094 196.726562c-15.4375-.492187-29.882813 3.632813-42.058594 11.097657-18.609375 11.414062-42.140625 11.414062-60.753906 0-12.171875-7.464844-26.617188-11.589844-42.058594-11.097657-40.203125 1.28125-72.71875 34.367188-73.347656 74.585938-.660156 42.433594 33.542968 77.039062 75.824218 77.039062 14.4375 0 27.933594-4.035156 39.417969-11.039062 18.757813-11.4375 42.324219-11.4375 61.082031 0 11.484376 7.003906 24.980469 11.039062 39.417969 11.039062 42.285157 0 76.484375-34.605468 75.824219-77.039062-.625-40.21875-33.144531-73.304688-73.347656-74.585938zm0 0" fill="#ffdaaa"/><path d="m235.5625 15.730469c-81.957031 0-139.425781-4.148438-175.417969-8.0625-23.140625-2.519531-37.777343 24.304687-23.023437 42.3125 13.894531 16.953125 35.402344 33.582031 68.390625 41.132812 54.902343 12.566407 95.617187 43.148438 115.816406 61.164063 8.117187 7.238281 20.351563 7.238281 28.46875 0 20.199219-18.015625 60.914063-48.597656 115.8125-61.164063 32.988281-7.550781 54.5-24.179687 68.390625-41.132812 14.753906-18.007813.121094-44.832031-23.023438-42.3125-35.988281 3.914062-93.460937 8.0625-175.414062 8.0625zm0 0" fill="#b2785b"/><path d="m262.09375 305.523438c0 14.65625-11.878906 45.882812-26.53125 45.882812-14.65625 0-26.535156-31.226562-26.535156-45.882812 0-14.652344 11.878906-26.535157 26.535156-26.535157 14.652344 0 26.53125 11.882813 26.53125 26.535157zm0 0" fill="#ffb864"/><path d="m163.125 196.726562c-40.203125 1.28125-72.71875 34.367188-73.347656 74.585938-.347656 22.484375 9.089844 42.773438 24.335937 56.878906-.191406-6.050781-.179687-11.957031-.011719-17.65625 1.132813-38.117187 22.980469-72.757812 57.21875-89.550781 10.398438-5.097656 19.675782-10.71875 27.863282-16.472656-10.808594-5.347657-23.085938-8.199219-36.058594-7.785157zm0 0" fill="#ffc477"/><path d="m308.71875 272.765625v12.449219c0 4.144531 3.355469 7.5 7.5 7.5 4.140625 0 7.5-3.355469 7.5-7.5v-12.449219c0-4.144531-3.359375-7.5-7.5-7.5-4.144531 0-7.5 3.355469-7.5 7.5zm0 0"/><path d="m147.40625 272.765625v12.449219c0 4.144531 3.355469 7.5 7.5 7.5 4.140625 0 7.5-3.355469 7.5-7.5v-12.449219c0-4.144531-3.359375-7.5-7.5-7.5-4.144531 0-7.5 3.355469-7.5 7.5zm0 0"/><path d="m469.863281 281.183594c-7.007812-24.308594-16.601562-63.117188-22.480469-109.953125-5.167968-41.167969-24.5625-69.378907-42.425781-87.1875 13.371094-7.558594 25.035157-17.335938 34.847657-29.3125 8.773437-10.707031 10.125-24.933594 3.519531-37.121094-6.625-12.234375-19.328125-18.90625-33.160157-17.398437-33.628906 3.660156-91.21875 8.019531-174.601562 8.019531-83.386719 0-140.976562-4.359375-174.605469-8.019531-13.832031-1.507813-26.53125 5.164062-33.160156 17.398437-6.601563 12.191406-5.25 26.414063 3.523437 37.121094 9.8125 11.976562 21.472657 21.753906 34.847657 29.3125-7.730469 7.703125-14.5625 16.167969-20.375 25.265625-2.226563 3.492187-1.203125 8.128906 2.289062 10.359375 1.25.796875 7.09375 2.765625 10.355469-2.289063 6.199219-9.597656 13.582031-18.472656 22.117188-26.34375 7.339843 3.035156 15.097656 5.515625 23.285156 7.386719 53.65625 12.28125 93.511718 42.519531 112.496094 59.449219 5.480468 4.890625 12.351562 7.332031 19.226562 7.332031 6.871094 0 13.746094-2.441406 19.226562-7.332031 18.984376-16.929688 58.839844-47.167969 112.496094-59.449219 8.191406-1.875 15.949219-4.355469 23.292969-7.390625 17 15.695312 36.902344 42.078125 41.921875 82.066406 6 47.796875 15.792969 87.417969 22.953125 112.242188 1.242187 4.3125.734375 8.847656-1.4375 12.769531-2.167969 3.917969-5.738281 6.753906-10.042969 7.988281l-24.003906 6.878906c-5 1.121094-6.796875 5.972657-4.308594 11.167969l17.664063 28.417969c5.984375 9.625 4.101562 21.96875-4.472657 29.351562-27.195312 23.414063-88.472656 62.695313-193.289062 62.695313s-166.09375-39.28125-193.292969-62.695313c-8.574219-7.382812-10.453125-19.722656-4.472656-29.347656l17.664063-28.421875c2.8125-5.183593.019531-10.183593-4.304688-11.167969l-24.003906-6.875c-4.308594-1.234374-7.875-4.074218-10.042969-7.992187-2.167969-3.921875-2.679687-8.457031-1.4375-12.769531 7.160156-24.824219 16.953125-64.449219 22.953125-112.238282 1.261719-10.042968 3.539062-19.785156 6.773438-28.957031 1.378906-3.90625-.671876-8.1875-4.578126-9.566406s-8.191406.671875-9.566406 4.578125c-3.589844 10.179688-6.117187 20.972656-7.511718 32.074219-5.878907 46.832031-15.472657 85.640625-22.484376 109.953125-2.351562 8.167968-1.382812 16.757812 2.730469 24.191406 4.109375 7.429688 10.871094 12.808594 19.035157 15.144531l14.457031 4.140625-12.421875 19.988282c-9.910156 15.945312-6.785156 36.398437 7.425781 48.632812 5.28125 4.546875 11.773437 9.660156 19.523437 14.972656 0 0-19.320312 16.757813-.554687 36.976563-9.902344 11.328125-12.644531 26.644531-7.0625 41.035156 6.15625 15.875 20.570313 25.734375 37.613281 25.734375h307.117188c17.042968 0 31.453125-9.859375 37.613281-25.734375 5.582031-14.390625 2.839844-29.707031-7.0625-41.035156 22.4375-16.457031-.554687-36.976563-.554687-36.976563 7.75-5.3125 14.242187-10.425781 19.523437-14.972656 14.214844-12.234375 17.335937-32.691406 7.425781-48.632812l-12.421875-19.988282 14.457031-4.140625c8.164063-2.339843 14.925782-7.71875 19.039063-15.144531 4.109375-7.433594 5.078125-16.023438 2.722656-24.191406zm-105.925781-197.382813c-56.925781 13.03125-99.074219 44.988281-119.132812 62.878907-5.269532 4.699218-13.214844 4.699218-18.484376 0-20.058593-17.890626-62.207031-49.847657-119.132812-62.878907-26.667969-6.101562-48.289062-19.082031-64.261719-38.574219-5.78125-7.058593-4.792969-15.203124-1.9375-20.472656 2.636719-4.871094 7.300781-10.640625 18.347657-9.632812 34.058593 3.105468 92.167968 8.109375 176.226562 8.109375s142.230469-4.40625 176.226562-8.109375c9.140626-.996094 15.472657 4.324218 18.347657 9.632812 2.855469 5.269532 3.847656 13.414063-1.9375 20.472656-15.972657 19.492188-37.59375 32.472657-64.261719 38.574219zm48.808594 397.039063c-3.027344 7.8125-10.828125 16.160156-23.625 16.160156h-307.117188c-12.800781 0-20.597656-8.347656-23.628906-16.160156-3.042969-7.847656-1.472656-24.542969 8.871094-30.058594l29.042968 7.898438 9.296876 12.226562c8.988281 11.820312 24.167968 17.40625 38.675781 14.234375l29.414062-6.433594 44.667969 12.226563c5.632812 1.542968 17.21875 3.78125 34.4375 0l44.667969-12.226563 29.410156 6.433594c14.507813 3.175781 29.691406-2.414063 38.679687-14.234375l9.296876-12.226562 29.042968-7.898438c11.738282 7.613281 11.914063 22.210938 8.867188 30.058594zm-1.292969-59.582032c5.242187 4.59375 3.539063 10.839844-2.394531 12.570313l-40.621094 11.042969c-1.59375.433594-3 1.382812-4 2.699218l-10.835938 14.253907c-5.46875 7.191406-14.707031 10.59375-23.535156 8.664062l-31.214844-6.828125c-1.183593-.261718-2.414062-.230468-3.582031.089844l-46.449219 12.714844c-8.671874 2.371094-17.84375 2.371094-26.519531 0l-46.449219-12.714844c-1.167968-.320312-2.398437-.351562-3.582031-.089844l-31.214843 6.828125c-8.824219 1.929688-18.0625-1.472656-23.53125-8.664062l-10.835938-14.253907c-1-1.316406-2.40625-2.265624-4.003906-2.699218l-40.621094-11.042969c-5.914062-1.972656-7.507812-8.222656-2.394531-12.570313l5.839843-4.371093c35.703126 21.269531 91.257813 42.722656 170.050782 42.722656 78.796875 0 134.351562-21.457031 170.054687-42.722656zm0 0"/><path d="m351.835938 322.761719c-3.046876 2.808593-3.234376 7.554687-.429688 10.597656 2.808594 3.046875 7.554688 3.238281 10.601562.429687 17.421876-16.074218 27.207032-38.886718 26.835938-62.59375-.332031-21.390624-8.851562-41.644531-23.984375-57.039062s-35.246094-24.246094-56.625-24.925781c-16.375-.519531-32.347656 3.695312-46.214844 12.199219-16.320312 10.007812-36.59375 10.007812-52.914062 0-13.867188-8.503907-29.847657-12.722657-46.21875-12.199219-21.375.679687-41.484375 9.53125-56.621094 24.925781-15.132813 15.390625-23.652344 35.648438-23.984375 57.039062-.351562 22.519532 8.148438 43.75 23.9375 59.785157 15.789062 16.039062 36.882812 24.871093 59.386719 24.871093 29.53125 0 45.6875-13.492187 46.902343-14.109374 5.742188 9.699218 13.558594 17.164062 23.054688 17.164062 9.5 0 17.320312-7.46875 23.0625-17.171875 1.21875.613281 17.761719 14.117187 46.898438 14.117187 10.34375 0 20.441406-1.871093 30.011718-5.566406 3.863282-1.492187 5.785156-5.835937 4.292969-9.699218-1.488281-3.863282-5.832031-5.789063-9.695313-4.296876-7.839843 3.027344-16.121093 4.566407-24.609374 4.566407-24.105469 0-38.851563-11.878907-40.578126-12.734375 3.03125-8.425782 4.652344-16.816406 4.652344-22.597656 0-18.765626-15.265625-34.03125-34.035156-34.03125-18.765625 0-34.03125 15.265624-34.03125 34.03125 0 5.785156 1.625 14.183593 4.65625 22.613281-1.726562.855469-16.335938 12.71875-40.582031 12.71875-18.453125 0-35.746094-7.242188-48.695313-20.394531-12.945312-13.148438-19.917968-30.5625-19.628906-49.03125.273438-17.519532 7.261719-34.121094 19.679688-46.753907 12.421874-12.628906 28.902343-19.894531 46.40625-20.453125 13.425781-.425781 26.535156 3.03125 37.898437 10 21.15625 12.972656 47.441406 12.972656 68.597656 0 11.363281-6.96875 24.464844-10.425781 37.898438-10 17.503906.558594 33.984375 7.824219 46.40625 20.453125 12.417969 12.632813 19.40625 29.234375 19.679687 46.753907.300782 19.441406-7.722656 38.152343-22.011718 51.332031zm-116.273438-36.273438c10.492188 0 19.03125 8.539063 19.03125 19.035157 0 5.5-7.390625 38.382812-19.03125 38.382812-11.753906 0-19.035156-33.222656-19.035156-38.382812 0-10.496094 8.539062-19.035157 19.035156-19.035157zm0 0"/></svg>