<svg height="512pt" viewBox="-22 0 511 512" width="512pt" xmlns="http://www.w3.org/2000/svg"><path d="m80.726562 504.5h307.121094c30.054688 0 44.289063-36.9375 22.097656-57.203125-35.242187-32.183594-92.132812-65.972656-175.65625-65.972656-83.523437 0-140.414062 33.785156-175.65625 65.972656-22.195312 20.265625-7.960937 57.203125 22.09375 57.203125zm0 0" fill="#5e5e66"/><path d="m234.289062 381.324219c-83.523437 0-140.414062 33.789062-175.65625 65.972656-22.195312 20.265625-7.960937 57.203125 22.09375 57.203125h144.609376c70.699218-29.007812 82.109374-69.800781 82.109374-69.800781v-43.886719c-21.691406-5.921875-46.007812-9.488281-73.15625-9.488281zm0 0" fill="#444349"/><path d="m137.640625 130.273438s-42.152344-55.625-113.21875-54.40625c-13.003906.226562-20.8125 14.699218-13.71875 25.597656 7.238281 11.117187 14.1875 25.476562 14.875 40.601562 1.445313 31.839844 22.25 63.6875 48.019531 76.519532 2.226563-.460938 64.042969-88.3125 64.042969-88.3125zm0 0" fill="#77777f"/><path d="m19.09375 116.710938c3.519531 7.855468 6.078125 16.46875 6.484375 25.355468 1.445313 31.839844 22.25 63.6875 48.019531 76.519532 1.285156-.265626 22.355469-29.550782 39.984375-54.320313-37.621093-34.824219-74.042969-44.800781-94.488281-47.554687zm0 0" fill="#ffb0d0"/><path d="m330.933594 130.273438s42.152344-55.625 113.21875-54.40625c13.007812.226562 20.816406 14.699218 13.71875 25.597656-7.234375 11.117187-14.183594 25.476562-14.871094 40.601562-1.445312 31.839844-22.25 63.6875-48.023438 76.519532-2.226562-.460938-64.042968-88.3125-64.042968-88.3125zm0 0" fill="#898890"/><path d="m449.484375 116.707031c-3.519531 7.855469-6.078125 16.472657-6.484375 25.359375-1.445312 31.839844-22.25 63.6875-48.023438 76.519532-1.28125-.265626-22.351562-29.550782-39.980468-54.324219 37.621094-34.820313 74.042968-44.796875 94.488281-47.554688zm0 0" fill="#ffb0d0"/><path d="m234.289062 452.109375c-89.855468 0-163.371093-73.515625-163.371093-163.371094v-84.78125c0-89.855469 73.515625-163.371093 163.371093-163.371093 89.851563 0 163.371094 73.515624 163.371094 163.371093v84.78125c0 89.855469-73.519531 163.371094-163.371094 163.371094zm0 0" fill="#acabb1"/><path d="m171.699219 387.789062c-15.90625-19.636718-17.875-47.132812-4.929688-68.835937 26.769531-44.875 32.34375-109.988281 32.34375-109.988281v-164.539063c-73.09375 16.203125-128.195312 81.746094-128.195312 159.53125v84.78125c0 89.855469 73.515625 163.371094 163.371093 163.371094 12.800782 0 25.28125-1.496094 37.253907-4.3125-49.429688-10.300781-80.835938-36.546875-99.84375-60.007813zm0 0" fill="#898890"/><g fill="#ffb0d0"><path d="m170.265625 321.734375c0-13.183594-13.417969-23.871094-29.972656-23.871094-16.554688 0-29.972657 10.6875-29.972657 23.871094s13.417969 23.867187 29.972657 23.867187c16.554687 0 29.972656-10.683593 29.972656-23.867187zm0 0"/><path d="m358.257812 321.734375c0-13.183594-13.417968-23.871094-29.972656-23.871094-16.554687 0-29.972656 10.6875-29.972656 23.871094s13.417969 23.867187 29.972656 23.867187c16.554688 0 29.972656-10.683593 29.972656-23.867187zm0 0"/><path d="m276.167969 337.496094c0 23.132812-18.75 31.453125-41.878907 31.453125-23.128906 0-41.882812-8.320313-41.882812-31.453125 0-23.128906 18.753906-50.066406 41.882812-50.066406 23.128907 0 41.878907 26.9375 41.878907 50.066406zm0 0"/></g><path d="m329.144531 86.855469c10.265625-4.136719 13.933594-16.835938 7.414063-25.773438-37.730469-51.726562-86.449219-53.582031-107.570313-53.582031-21.117187 0-69.839843 1.855469-107.570312 53.582031-6.519531 8.941407-2.851563 21.640625 7.414062 25.773438 11.765625 4.742187 24.800781 9.667969 24.800781 9.667969l-2.382812 27.621093c-.984375 11.390625 9.328125 20.484375 20.503906 18.089844l24.40625-5.226563 19.46875 24.714844c6.808594 8.644532 19.910156 8.644532 26.71875 0l19.46875-24.714844 24.402344 5.226563c11.179688 2.398437 21.492188-6.699219 20.507812-18.089844l-2.382812-27.621093s13.035156-4.925782 24.800781-9.667969zm0 0" fill="#57565c"/><path d="m121.417969 61.082031c-6.519531 8.941407-2.851563 21.640625 7.414062 25.773438 11.765625 4.742187 24.800781 9.667969 24.800781 9.667969l-2.382812 27.621093c-.984375 11.390625 9.328125 20.484375 20.503906 18.089844l7.945313-1.703125c2.304687-70.351562 30.476562-115.894531 43.167969-132.957031-23.402344.628906-67.003907 6.285156-101.449219 53.507812zm0 0" fill="#444349"/><path d="m314.945312 281.179688c-4.144531 0-7.5 3.359374-7.5 7.5v12.453124c0 4.140626 3.355469 7.5 7.5 7.5 4.140626 0 7.5-3.359374 7.5-7.5v-12.453124c0-4.140626-3.359374-7.5-7.5-7.5zm0 0"/><path d="m153.632812 281.179688c-4.144531 0-7.5 3.359374-7.5 7.5v12.453124c0 4.140626 3.355469 7.5 7.5 7.5 4.140626 0 7.5-3.359374 7.5-7.5v-12.453124c0-4.140626-3.359374-7.5-7.5-7.5zm0 0"/><path d="m221.488281 314.234375c-4.140625 0-7.5 3.359375-7.5 7.5v20.386719c0 4.144531 3.359375 7.5 7.5 7.5s7.5-3.355469 7.5-7.5v-20.386719c0-4.140625-3.359375-7.5-7.5-7.5zm0 0"/><path d="m247.089844 314.234375c-4.144532 0-7.5 3.359375-7.5 7.5v20.386719c0 4.144531 3.355468 7.5 7.5 7.5 4.140625 0 7.5-3.355469 7.5-7.5v-20.386719c0-4.140625-3.359375-7.5-7.5-7.5zm0 0"/><path d="m234.289062 279.929688c-27.8125 0-49.382812 30.945312-49.382812 57.566406 0 24.753906 18 38.953125 49.382812 38.953125 31.382813 0 49.378907-14.199219 49.378907-38.953125 0-26.621094-21.570313-57.566406-49.378907-57.566406zm0 81.519531c-22.816406 0-34.382812-8.058594-34.382812-23.953125 0-19.160156 15.867188-42.566406 34.382812-42.566406 18.515626 0 34.378907 23.40625 34.378907 42.566406 0 15.894531-11.566407 23.953125-34.378907 23.953125zm0 0"/><path d="m465.214844 81.214844c-4.195313-7.890625-12.015625-12.691406-20.933594-12.84375-28.164062-.480469-56.039062 7.683594-81.101562 23.675781-5.027344-5.769531-10.476563-11.238281-16.316407-16.367187 1.289063-6.652344-.207031-13.476563-4.246093-19.015626-8.21875-11.269531-17.511719-21.015624-27.617188-28.972656-3.253906-2.558594-7.972656-2-10.53125 1.253906-2.5625 3.257813-2 7.972657 1.253906 10.535157 9.03125 7.105469 16.871094 16.242187 24.777344 26.023437 3.394531 4.199219 3.59375 11.390625-4.15625 14.394532-11.613281 4.507812-24.519531 9.5625-24.648438 9.609374-3.140624 1.1875-5.109374 4.316407-4.820312 7.660157l2.382812 27.621093c.261719 3.035157-.898437 5.929688-3.183593 7.945313-2.28125 2.015625-5.300781 2.804687-8.28125 2.167969l-24.402344-5.230469c-2.796875-.601563-5.691406.445313-7.464844 2.691406l-19.46875 24.71875c-1.8125 2.300781-4.535156 3.621094-7.464843 3.621094-2.933594 0-5.65625-1.320313-7.46875-3.621094l-19.46875-24.71875c-1.769532-2.246093-4.667969-3.292969-7.464844-2.691406l-24.402344 5.230469c-2.980469.636718-6-.152344-8.28125-2.167969-2.285156-2.015625-3.445312-4.910156-3.183594-7.945313l2.382813-27.621093c.289062-3.34375-1.679688-6.472657-4.820313-7.660157-.128906-.046874-13.179687-4.730468-24.648437-9.609374-7.070313-3.007813-7.070313-10.398438-4.15625-14.394532 15.347656-21.054687 34.351562-35.699218 56.464843-43.542968 17.390626-6.167969 33.207032-6.960938 45.042969-6.960938 13.730469 0 32.03125 1.09375 51.839844 9.625 3.800781 1.636719 8.214844-.117188 9.855469-3.921875 1.636718-3.804687-.121094-8.214844-3.921875-9.855469-22.328125-9.613281-42.601563-10.847656-57.773438-10.847656-17.882812 0-72.300781 0-113.628906 56.660156-4.472656 6.132813-8.574219 18.4375-1.550781 26.429688-2.902344 2.898437-5.699219 5.894531-8.375 8.976562-25.058594-16-53.003906-24.164062-81.140625-23.695312-8.914063.152344-16.738281 4.953125-20.929688 12.84375-4.160156 7.835937-3.765625 16.933594 1.054688 24.34375 8.554687 13.140625 13.152343 25.539062 13.667969 36.847656.929687 20.523438 9.425781 42.082031 23.304687 59.152344 1.484375 1.820312 5.746094 4.625 10.550781 1.085937 3.335938-2.457031 3.699219-7.335937 1.089844-10.550781-11.898438-14.628906-19.171875-32.988281-19.960938-50.367188-.226562-4.980468-1.066406-10.074218-2.492187-15.261718 12.113281 2.851562 27.230469 8.121094 43.753906 17.785156-7.128906 18.957031-10.914062 39.175781-10.914062 59.707031v84.78125c0 42.78125 15.789062 83.257813 44.621093 114.851563-19.621093 10.242187-37.910156 23.050781-54.460937 38.167968-12.628906 11.53125-16.636719 28.585938-10.460937 44.507813 6.15625 15.875 20.570312 25.734375 37.609374 25.734375h307.121094c17.042969 0 31.457032-9.859375 37.613282-25.734375 6.175781-15.921875 2.167968-32.976563-10.460938-44.507813-16.554688-15.121093-34.84375-27.921874-54.46875-38.164062 28.847656-31.582031 44.625-71.972656 44.625-114.851562v-67.320313c25.484375-16.164063 43.929688-48.027344 45.335938-79.015625.515624-11.308594 5.113281-23.707031 13.667968-36.847656 4.820313-7.410156 5.214844-16.507813 1.054688-24.34375zm-441.050782 28.671875c-2.050781-4.128907-4.433593-8.300781-7.175781-12.511719-2.597656-3.988281-1.128906-7.710938-.378906-9.121094 1.59375-3.003906 4.5625-4.828125 7.941406-4.886718 25.050781-.433594 49.082031 6.480468 71.496094 20.519531-6.054687 8.359375-11.332031 17.222656-15.773437 26.472656-22.109376-12.636719-41.941407-18.128906-56.109376-20.472656zm365.996094 178.851562c0 42.285157-16.648437 82.117188-47.371094 111.632813-7.828124 7.523437 2.023438 12.15625 2.023438 12.15625 21.820312 10.269531 42.03125 23.828125 60.074219 40.304687 9.5 8.679688 9.632812 20.15625 6.589843 28.007813-3.03125 7.8125-10.832031 16.160156-23.628906 16.160156h-307.121094c-12.796874 0-20.59375-8.347656-23.625-16.160156-3.046874-7.847656-2.914062-19.328125 6.589844-28.003906 16.769532-15.316407 35.417969-28.113282 55.488282-38.089844 31.628906 28.984375 72.210937 44.863281 115.109374 44.863281 32.417969 0 64.023438-9.222656 91.398438-26.667969 3.492188-2.226562 4.519531-6.863281 2.292969-10.355468-2.226563-3.492188-6.863281-4.519532-10.355469-2.296876-24.960938 15.910157-53.78125 24.320313-83.335938 24.320313-41.453124 0-80.546874-16.261719-110.078124-45.792969s-45.792969-68.621094-45.792969-110.078125v-84.78125c0-41.398437 16.851562-81.410156 46.410156-110.671875.394531.1875 15.921875 6.335938 20.84375 8.226563l-1.894531 21.984375c-.675782 7.824218 2.3125 15.289062 8.203125 20.484375 5.886719 5.195312 13.671875 7.230469 21.347656 5.585937l19.832031-4.25 16.578125 21.042969c4.675781 5.9375 11.691407 9.34375 19.25 9.34375 7.558594 0 14.574219-3.40625 19.25-9.34375l16.578125-21.042969 19.835938 4.25c7.675781 1.644532 15.457031-.390625 21.34375-5.585937 5.890625-5.195313 8.878906-12.660157 8.203125-20.480469l-1.894531-21.984375c4.921874-1.890625 18.628906-5.660156 27.082031-12.394531 32.363281 29.621094 50.769531 71.027344 50.769531 114.835937v84.78125zm14.980469-85.945312c-.136719-20.277344-3.855469-40.066407-10.808594-58.59375 16.488281-9.632813 31.574219-14.886719 43.664063-17.734375-1.421875 5.1875-2.261719 10.28125-2.488282 15.261718-1.023437 22.542969-13.226562 46.363282-30.367187 61.066407zm46.445313-105.417969c-2.742188 4.210938-5.125 8.382812-7.171876 12.511719-14.148437 2.339843-33.949218 7.820312-56.023437 20.421875-4.445313-9.246094-9.730469-18.101563-15.808594-26.457032 16.945313-10.539062 41.445313-21.003906 71.445313-20.484374 3.378906.058593 6.34375 1.882812 7.9375 4.886718.753906 1.414063 2.21875 5.132813-.378906 9.121094zm0 0"/></svg>