<svg height="511pt" viewBox="-17 1 511 511.99898" width="511pt" xmlns="http://www.w3.org/2000/svg"><path d="m86.132812 504.464844h308.605469c30.199219 0 44.5-37.117188 22.199219-57.484375-35.410156-32.335938-92.574219-66.285157-176.503906-66.285157-83.925782 0-141.089844 33.949219-176.503906 66.285157-22.296876 20.367187-7.996094 57.484375 22.203124 57.484375zm0 0" fill="#66666d"/><path d="m240.4375 380.695312c-83.929688 0-141.09375 33.949219-176.503906 66.285157-22.300782 20.367187-8 57.484375 22.199218 57.484375h203.6875c43.539063-37.175782 57.109376-74.054688 57.109376-74.054688v-28.675781c-29.21875-12.542969-64.503907-21.039063-106.492188-21.039063zm0 0" fill="#5a5a60"/><path d="m404.59375 226.847656v-42.585937c0-90.289063-47.042969-176.726563-164.15625-176.726563-117.117188 0-164.160156 86.4375-164.160156 176.726563v42.585937c0 10.378906-4.199219 20.261719-11.476563 27.660156-10.664062 10.839844-17.242187 25.707032-17.242187 42.113282 0 33.171875 32.023437 133.792968 128.332031 133.792968 10.6875 0 20.210937-5.242187 26.125-13.28125 3.0625-4.160156 9.234375-4.160156 12.292969 0 5.917968 8.039063 15.4375 13.28125 26.125 13.28125 10.691406 0 20.210937-5.242187 26.128906-13.28125 3.058594-4.160156 9.230469-4.160156 12.292969 0 5.914062 8.039063 15.4375 13.28125 26.125 13.28125 62.242187 0 128.332031-100.621093 128.332031-133.792968 0-16.40625-6.582031-31.273438-17.242188-42.113282-7.277343-7.398437-11.476562-17.28125-11.476562-27.660156zm0 0" fill="#d8d7da"/><path d="m202.121094 119.136719 2.707031-108.664063c-91.140625 15.828125-128.550781 93.277344-128.550781 173.789063v42.585937c0 10.378906-4.199219 20.261719-11.476563 27.660156-10.664062 10.839844-17.242187 25.707032-17.242187 42.113282 0 32.378906 30.53125 129.027344 121.566406 133.625-68.738281-126.257813 32.996094-311.109375 32.996094-311.109375zm0 0" fill="#c6c5ca"/><g fill="#898890"><path d="m156.71875 231.25c30.476562-4.066406 57.652344 11.121094 60.695312 33.925781 3.042969 22.800781-19.199218 44.582031-49.675781 48.652344-30.476562 4.066406-46.535156-12.605469-49.578125-35.410156-3.042968-22.800781 8.082032-43.101563 38.558594-47.167969zm0 0"/><path d="m324.152344 231.25c-30.476563-4.066406-57.648438 11.121094-60.691406 33.925781-3.046876 22.800781 19.195312 44.582031 49.671874 48.652344 30.476563 4.066406 46.535157-12.605469 49.578126-35.410156 3.042968-22.800781-8.082032-43.101563-38.558594-47.167969zm0 0"/><path d="m264.6875 341.167969c0 13.394531-10.859375 14.773437-24.25 14.773437-13.394531 0-24.253906-1.378906-24.253906-14.773437s10.859375-37.238281 24.253906-37.238281c13.390625 0 24.25 23.84375 24.25 37.238281zm0 0"/><path d="m240.4375 7.535156c-129.617188 0-230.390625 100.960938-230.390625 291.769532 0 190.808593 230.390625 154.988281 230.390625 154.988281s-149.390625-28.875-149.390625-157.960938c0-221.433593 149.390625-225.140625 149.390625-225.140625s149.386719 3.707032 149.386719 225.140625c0 129.085938-149.386719 157.960938-149.386719 157.960938s230.386719 35.820312 230.386719-154.988281c0-190.808594-100.773438-291.769532-230.386719-291.769532zm0 0"/></g><path d="m28.136719 56.648438 25.226562 138.515624s123.027344-79.449218 260.558594-113.296874c18.65625-4.59375 17.53125-31.519532-1.425781-34.636719-72.015625-11.828125-178.0625-19.34375-284.359375 9.417969zm0 0" fill="#eaeaea"/><path d="m126.835938 504.464844-78.90625-451.292969c-1.917969-10.929687-12.332032-18.234375-23.269532-16.316406-10.929687 1.917969-18.238281 12.335937-16.316406 23.269531l77.792969 444.339844zm0 0" fill="#dd9f80"/><path d="m118.160156 278.414062c2.199219 16.460938 11.179688 29.722657 27.464844 34.300782 1.367188-28.382813 6.535156-56.300782 13.234375-81.714844-.714844.074219-1.425781.152344-2.140625.246094-30.476562 4.066406-41.601562 24.367187-38.558594 47.167968zm0 0" fill="#66666d"/><path d="m118.800781 243.339844c-7.15625 9.722656-9.960937 22.195312-8.109375 36.078125 1.035156 7.753906 3.367188 14.734375 6.929688 20.746093 2.125 3.582032 6.75 4.761719 10.328125 2.640626 3.578125-2.125 4.761719-6.746094 2.636719-10.328126-2.523438-4.253906-4.191407-9.320312-4.957032-15.054687-1.324218-9.933594.507813-18.628906 5.308594-25.144531 5.410156-7.347656 14.417969-11.910156 26.777344-13.558594 26.308594-3.507812 49.738281 8.804688 52.226562 27.453125 1.152344 8.617187-2.425781 17.484375-10.070312 24.972656-8.226563 8.058594-19.992188 13.460938-33.128906 15.214844-5.9375.789063-11.390626.71875-16.210938-.214844-4.082031-.792969-8.039062 1.878907-8.832031 5.96875-.789063 4.085938 1.882812 8.039063 5.96875 8.828125 3.550781.6875 7.300781 1.03125 11.222656 1.03125 3.175781 0 6.464844-.222656 9.84375-.675781 16.34375-2.179687 31.148437-9.066406 41.683594-19.386719 11.121093-10.890625 16.257812-24.292968 14.464843-37.730468-3.589843-26.886719-34.609374-45.007813-69.164062-40.398438-16.332031 2.179688-29.101562 8.941406-36.917969 19.558594zm0 0"/><path d="m312.136719 321.296875c3.34375.445313 6.59375.667969 9.738281.667969 12.210938 0 22.804688-3.34375 31.019531-9.859375 9.457031-7.503907 15.433594-18.808594 17.285157-32.6875 1.851562-13.882813-.953126-26.355469-8.109376-36.078125-7.816406-10.613282-20.582031-17.378906-36.921874-19.558594-16.339844-2.179688-32.429688.582031-45.308594 7.777344-13.585938 7.59375-22.058594 19.179687-23.851563 32.621094-3.585937 26.882812 21.601563 52.507812 56.148438 57.117187zm-41.207031-55.125c1.148437-8.617187 6.925781-16.238281 16.265624-21.457031 7.757813-4.335938 17.128907-6.59375 27.042969-6.59375 2.933594 0 5.917969.199218 8.917969.601562 23.257812 3.101563 34.953125 17.210938 32.085938 38.703125-1.328126 9.933594-5.378907 17.84375-11.714844 22.871094-7.148438 5.671875-17.039063 7.710937-29.398438 6.0625-26.308594-3.511719-45.6875-21.539063-43.199218-40.1875zm0 0"/><path d="m208.648438 341.167969c0 22.308593 22.273437 22.308593 31.785156 22.308593 9.515625 0 31.789062 0 31.789062-22.308593 0-15.375-12.378906-44.773438-31.789062-44.773438-19.40625 0-31.785156 29.398438-31.785156 44.773438zm31.785156-29.703125c6.71875 0 16.71875 17.765625 16.71875 29.703125 0 4.359375 0 7.238281-16.71875 7.238281-16.714844 0-16.714844-2.878906-16.714844-7.238281 0-11.9375 10-29.703125 16.714844-29.703125zm0 0"/><path d="m478.359375 299.304688c0-67.371094-12.265625-125.804688-36.460937-173.679688-1.878907-3.714844-6.410157-5.203125-10.125-3.324219-3.714844 1.875-5.207032 6.410157-3.328126 10.125 23.121094 45.742188 34.84375 101.890625 34.84375 166.878907 0 47.484374-14.914062 84.347656-44.320312 109.558593-39.984375 34.277344-98.90625 40.628907-137.746094 40.484375 11.589844-4.703125 24.714844-10.988281 37.902344-19.238281 51.183594-32.003906 78.234375-78.265625 78.234375-133.777344 0-119.726562-42.839844-178.058593-84.359375-206.464843.910156-.226563 21.875-5.695313 21.847656-26.125-.019531-12.335938-8.976562-21.949219-21.132812-23.945313-40.515625-6.65625-93.914063-12.230469-152.695313-10.101563 24.40625-9.707031 50.988281-14.621093 79.417969-14.621093 71.589844 0 132.753906 32.113281 172.226562 90.425781 1.457032 2.152344 4.667969 5.484375 10.464844 2.019531 3.570313-2.140625 4.347656-7.019531 2.015625-10.46875-42.363281-62.582031-107.960937-97.050781-184.707031-97.050781-43.59375 0-83.21875 10.832031-117.820312 32.179688-23.066407 2.179687-46.679688 5.691406-70.429688 10.867187-5.605469-9.882813-17.007812-15.683594-28.828125-13.617187-15.007813 2.636718-25.074219 16.988281-22.441406 31.992187l19.375 110.667969c-11.792969 37.769531-17.78125 80.546875-17.78125 127.214844 0 58.945312 21.207031 103.058593 63.023437 131.195312l.765625 4.382812c-2.515625 2.132813-5.023437 4.316407-7.449219 6.535157-12.691406 11.585937-16.71875 28.722656-10.511718 44.722656 6.1875 15.949219 20.667968 25.859375 37.792968 25.859375h308.605469c17.125 0 31.605469-9.910156 37.792969-25.859375 6.207031-16 2.179688-33.136719-10.511719-44.722656-3.269531-2.988281-6.636719-5.90625-10.070312-8.730469 6-3.796875 11.609375-7.910156 16.78125-12.34375 32.933593-28.207031 49.628906-68.929688 49.628906-121.039062zm-237.925781 147.285156c-4.976563-1.117188-22.359375-5.398438-43.332032-14.816406 6.0625-2.5625 11.136719-10.175782 11.136719-10.175782 7.535157 10.238282 19.570313 16.351563 32.195313 16.351563 12.628906 0 24.664062-6.113281 32.238281-16.394531 0 0 4.589844 7.183593 11.152344 10.253906-20.988281 9.394531-38.433594 13.671875-43.390625 14.78125zm-161.21875-258.253906c6.621094-3.851563 14.726562-8.453126 24.105468-13.5625-7.179687 18.53125-12.429687 39.09375-15.710937 61.578124zm34.875 199.457031c15.652344 20.21875 37.089844 37.625 63.585937 51.410156 7.707031 4.007813 15.179688 7.375 22.09375 10.179687-21.53125.085938-49.3125-1.804687-76.550781-9.386718zm268.195312-91.460938c0 84.363281-77.101562 124.609375-80.246094 126.363281-6.753906-.820312-13-4.441406-17.113281-10.03125-2.894531-3.933593-7.347656-6.1875-12.21875-6.1875-4.867187 0-9.320312 2.257813-12.214843 6.1875-4.703126 6.394532-12.203126 10.210938-20.054688 10.210938-7.855469 0-15.351562-3.816406-20.054688-10.210938-2.894531-3.933593-7.351562-6.191406-12.21875-6.191406-4.871093 0-9.324218 2.257813-12.21875 6.191406-4.085937 5.554688-10.28125 9.160157-16.988281 10.011719-28.613281-15.960937-59.09375-41.3125-72.796875-80.246093l-7.542968-43.125c-.015626-.984376-.03125-1.976563-.03125-2.972657 0-53.152343 8.804687-97.851562 26.171874-132.925781 43.132813-22.257812 103.394532-49.722656 168.253907-68.183594 41.355469 22.929688 89.273437 76.417969 89.273437 201.109375zm-71.011718-241.664062c6.035156.992187 8.355468 5.640625 8.511718 9.664062.15625 3.988281-1.773437 8.765625-7.660156 10.214844-6.796875 1.671875-114.957031 27.316406-235.675781 97.980469l-20.101563-114.964844c97.027344-20.964844 191.863282-13.253906 254.925782-2.894531zm-293.691407 244.636719c0-32.644532 3.023438-63.257813 8.972657-91.445313l35.15625 200.804687c-29.292969-25.28125-44.128907-61.96875-44.128907-109.359374zm44.8125 181.386718c-5.746093-17.75 6.839844-28.339844 6.949219-28.4375l7.53125 43.019532c-7.449219-2.824219-12.585938-8.722657-14.480469-14.582032zm30.070313 16.234375-76.699219-438.105469c-1.199219-6.824218 3.378906-13.34375 10.199219-14.542968 6.820312-1.203125 13.34375 3.378906 14.542968 10.195312l77.363282 442.453125zm319.390625-44.378906c9.550781 8.722656 9.683593 20.253906 6.625 28.144531-3.046875 7.847656-10.882813 16.234375-23.742188 16.234375h-261.566406l-7.097656-40.59375c50.257812 12.210938 109.941406 6.203125 114.363281 5.578125 4.351562.609375 88.179688 8.3125 157.390625-21.246094 4.8125 3.777344 9.511719 7.757813 14.027344 11.882813zm0 0"/></svg>