<svg height="511pt" viewBox="-17 0 511 511.99795" width="511pt" xmlns="http://www.w3.org/2000/svg"><path d="m460.144531 337.410156c-42.765625-27.949218-121.558593-68.191406-220.679687-68.191406-99.125 0-177.914063 40.242188-220.679688 68.191406-15.261718 9.972656-14.101562 32.601563 2.039063 41.082032 71.195312 37.421874 81.03125 104.058593 81.03125 104.058593h275.21875s9.835937-66.636719 81.03125-104.058593c16.140625-8.480469 17.300781-31.109376 2.039062-41.082032zm0 0" fill="#ff737d"/><path d="m85.914062 504.5h307.101563c30.054687 0 44.285156-36.933594 22.09375-57.203125-35.238281-32.179687-92.125-65.964844-175.644531-65.964844-83.519532 0-140.40625 33.785157-175.644532 65.964844-22.191406 20.269531-7.960937 57.203125 22.09375 57.203125zm0 0" fill="#898890"/><path d="m74.394531 438.164062c5.683594 8.929688 11.835938 18.589844 22.070313 23.234376 13.410156 6.078124 33.214844-1.875 49.832031 2.285156 14.699219 3.675781 28 20.269531 44.597656 22.15625 15.316407 1.742187 32.105469-11.289063 48.570313-11.289063 16.460937 0 33.25 13.03125 48.5625 11.289063 16.601562-1.886719 29.902344-18.480469 44.601562-22.15625 16.613282-4.15625 36.421875 3.792968 49.832032-2.285156 10.234374-4.640626 16.386718-14.304688 22.074218-23.234376-35.65625-29.128906-89.441406-56.832031-165.070312-56.832031s-129.417969 27.703125-165.070313 56.832031zm0 0" fill="#ff929f"/><path d="m420.8125 337.625c-19.820312 19.816406-51.953125 19.816406-71.773438 0-19.820312-19.820312-19.820312-51.953125 0-71.773438 19.820313-19.816406 82.910157-50.777343 102.730469-30.957031 19.816407 19.820313-11.140625 82.910157-30.957031 102.730469zm0 0" fill="#d3d3d3"/><path d="m58.117188 337.625c19.820312 19.816406 51.953124 19.816406 71.773437 0 19.816406-19.820312 19.816406-51.953125 0-71.773438-19.820313-19.816406-82.910156-50.777343-102.730469-30.957031-19.820312 19.820313 11.140625 82.910157 30.957032 102.730469zm0 0" fill="#c2c2c4"/><path d="m239.464844 452.113281c-89.847656 0-163.359375-73.511719-163.359375-163.359375v-84.78125c0-89.847656 73.511719-163.359375 163.359375-163.359375s163.359375 73.511719 163.359375 163.359375v84.78125c0 89.847656-73.511719 163.359375-163.359375 163.359375zm0 0" fill="#e5e5e5"/><path d="m176.878906 387.796875c-15.90625-19.636719-17.875-47.128906-4.929687-68.832031 26.769531-44.875 31.910156-105.863282 31.910156-105.863282l.429687-168.636718c-73.089843 16.203125-128.183593 81.730468-128.183593 159.511718v84.777344c0 89.847656 73.511719 163.359375 163.359375 163.359375 12.800781 0 25.28125-1.492187 37.253906-4.3125-49.429688-10.300781-80.832031-36.542969-99.839844-60.003906zm0 0" fill="#d3d3d3"/><path d="m302.625 152.78125s9.101562 53.632812 40.546875 92.347656c12.09375 14.890625 18.03125 33.832032 16.917969 52.984375-2.691406 46.375-12.550782 143.550781-34.589844 206.386719h67.992188c18.25 0 33.210937-14.460938 33.84375-32.703125 2.757812-79.714844 5.535156-283.542969-33.511719-366.234375-49.050781-103.882812-123.945313-36.917969-123.945313-36.917969zm0 0" fill="#c68d6d"/><path d="m390.226562 98.328125c-49.027343-93.453125-120.347656-29.683594-120.347656-29.683594l32.746094 84.136719s5.675781 33.445312 23.546875 66.578125c49.925781-32.539063 62.90625-81.828125 64.054687-121.03125zm0 0" fill="#b2785b"/><path d="m306.761719 25.335938c30.691406 15.160156 44.964843 51.195312 33.636719 83.5-11.53125 32.890624-37.902344 75.058593-97.910157 84.632812-13.394531 2.136719-25.9375 8.003906-35.917969 17.183594-25.21875 23.199218-80.132812 63.03125-147.058593 47.140625-14.59375-3.464844-22.28125-19.417969-15.847657-32.964844 9.164063-19.292969 20.167969-49.921875 21.640626-88.683594 2.574218-67.824219 61.667968-116.757812 111.105468-125.34375 33.648438-5.84375 89.914063-5.4375 130.351563 14.535157zm0 0" fill="#dd9f80"/><path d="m184.828125 9.535156c-2.925781.375-5.753906.800782-8.414063 1.265625-49.441406 8.582031-108.535156 57.519531-111.109374 125.34375-1.472657 38.761719-12.476563 69.386719-21.640626 88.679688-6.433593 13.550781 1.253907 29.503906 15.847657 32.96875 64.621093 15.34375 118.046875-21.269531 144.347656-44.691407-68.386719-92.269531-43.363281-165.171874-19.03125-203.566406zm0 0" fill="#c68d6d"/><path d="m320.117188 308.644531c4.140624 0 7.5-3.359375 7.5-7.5v-12.449219c0-4.144531-3.359376-7.5-7.5-7.5-4.144532 0-7.5 3.355469-7.5 7.5v12.449219c0 4.140625 3.355468 7.5 7.5 7.5zm0 0"/><path d="m158.8125 281.195312c-4.144531 0-7.5 3.355469-7.5 7.5v12.449219c0 4.140625 3.355469 7.5 7.5 7.5 4.140625 0 7.5-3.359375 7.5-7.5v-12.449219c0-4.144531-3.359375-7.5-7.5-7.5zm0 0"/><path d="m221.144531 295.222656c-3.273437-2.539062-7.984375-1.945312-10.519531 1.328125-2.539062 3.273438-1.945312 7.984375 1.328125 10.523438.660156.515625 1.339844 1 2.023437 1.472656v14.632813c0 4.140624 3.355469 7.5 7.5 7.5 4.140626 0 7.5-3.359376 7.5-7.5v-7.929688c3.445313.828125 6.964844 1.246094 10.488282 1.246094 3.519531 0 7.042968-.417969 10.488281-1.246094v7.929688c0 4.140624 3.355469 7.5 7.5 7.5 4.140625 0 7.496094-3.359376 7.496094-7.5v-14.632813c.6875-.472656 1.363281-.957031 2.027343-1.472656 3.269532-2.539063 3.867188-7.25 1.328126-10.523438-2.539063-3.269531-7.25-3.867187-10.523438-1.328125-10.785156 8.367188-25.847656 8.367188-36.636719 0zm0 0"/><path d="m464.246094 331.128906c-6.582032-4.300781-13.386719-8.480468-20.304688-12.480468 7.0625-12.035157 13.199219-25.578126 17.03125-37.917969 7.316406-23.585938 5.96875-41.269531-3.902344-51.140625-6.503906-6.503906-16.207031-9.304688-28.882812-8.394532-5.359375-47.214843-13.992188-90.054687-27.582031-118.835937-16.515625-34.984375-37.855469-55.476563-63.449219-60.972656-6.890625-9.414063-16.027344-17.320313-27.074219-22.777344-39.976562-19.746094-96.589843-21.859375-134.953125-15.199219-27.246094 4.730469-55.386718 20.261719-77.210937 42.605469-17.417969 17.835937-38.515625 47.902344-40.109375 89.84375-1.421875 37.460937-12.160156 67.308594-20.917969 85.75-.054687.117187-7.351563.613281-15.035156 7.980469-18.691407 17.925781-4.003907 60.109375 13.109375 89.070312-6.914063 3.996094-13.710938 8.175782-20.28125 12.46875-9.390625 6.136719-14.67968775 16.480469-14.148438 27.667969.535156 11.242187 6.8125 21.085937 16.800782 26.332031 21.894531 11.511719 39.898437 27.027344 53.632812 46.167969-4.164062 3.355469-8.234375 6.839844-12.207031 10.464844-12.625 11.527343-16.632813 28.582031-10.457031 44.503906 6.15625 15.871094 20.566406 25.730469 37.609374 25.730469h307.578126c22.40625 0 40.566406-17.542969 41.339843-39.941406.640625-18.464844 1.253907-42.8125 1.398438-70.425782 7.765625-6.179687 16.28125-11.722656 25.367187-16.5 9.984375-5.25 16.265625-15.09375 16.796875-26.332031.53125-11.1875-4.757812-21.53125-14.148437-27.667969zm-17.78125-90.933594c9.324218 9.324219 1.792968 38.957032-11.972656 64.707032-1.011719-23-2.53125-46.253906-4.734376-68.773438 7.738282-.464844 13.558594.917969 16.707032 4.066406zm-412.328125-1.339843c.414062 3.238281.796875 24.960937 34.46875 28.359375v21.539062c0 18.15625 2.851562 35.890625 8.328125 52.714844-5.007813-2.152344-9.609375-5.246094-13.511719-9.144531-8.28125-8.285157-20.773437-27.664063-28.621094-48.6875-7.792969-20.871094-9.308593-37.273438-.664062-44.78125zm266.867187-61.40625c5.953125 19.878906 17.113282 48.722656 36.347656 72.410156 10.851563 13.355469 15.378907 30.3125 15.253907 47.820313-.300781 41.835937-11.292969 105.113281-11.972657 109.378906-28.273437 24.234375-64.089843 37.554687-101.167968 37.554687-41.453125 0-80.542969-16.261719-110.070313-45.789062-29.527343-29.527344-45.789062-68.617188-45.789062-110.070313v-19.992187c20.144531 0 47.660156-4.21875 68.042969-12.992188 26.347656-11.347656 47.167968-27.796875 59.996093-39.597656 8.769531-8.066406 19.84375-13.355469 32.023438-15.296875 22.019531-3.515625 41.179687-11.359375 57.335937-23.425781zm-276.691406 194.40625c-5.230469-2.75-8.515625-7.894531-8.796875-13.765625-.273437-5.824219 2.480469-11.207032 7.371094-14.402344 6.558593-4.285156 13.355469-8.449219 20.265625-12.425781 3.367187 4.683593 15.613281 21.226562 40.628906 27.816406 7.328125 16.105469 17.207031 31.113281 29.445312 44.523437-10.511718 5.484376-20.632812 11.707032-30.3125 18.625-15.070312-20.898437-34.738281-37.828124-58.601562-50.371093zm37.976562 108.988281c-3.046874-7.851562-2.914062-19.328125 6.589844-28.007812 1.28125-1.171876 2.582032-2.324219 3.886719-3.46875 5.121094 7.425781 11.339844 14.65625 20.605469 18.859374 5.464844 2.480469 11.460937 3.058594 16.703125 3.058594 7.808593 0 11.402343-3.796875 11.210937-7.9375-.1875-4.136718-3.695312-7.339844-7.835937-7.144531-6.449219.292969-10.734375-.207031-13.886719-1.636719-6.308594-2.863281-10.964844-8.550781-15.160156-14.761718 12.519531-9.667969 25.886718-18.054688 39.960937-25.046876 31.628907 28.980469 72.203125 44.855469 115.101563 44.855469 34.953125 0 68.878906-10.789062 97.40625-30.691406-1.785156 9.621094-3.660156 18.757813-5.625 27.390625-.140625.035156-.296875.058594-.4375.09375-7.894532 1.976562-14.964844 6.742188-21.800782 11.355469-7.46875 5.039062-14.523437 9.796875-21.824218 10.628906-6.238282.710937-13.6875-2.070313-21.570313-5.011719-8.339843-3.109375-16.960937-6.328125-26.148437-6.328125-9.183594 0-17.808594 3.21875-26.148438 6.328125-7.882812 2.941406-15.335937 5.722656-21.570312 5.011719-7.304688-.832031-14.355469-5.589844-21.824219-10.628906-6.839844-4.613281-13.90625-9.378907-21.804687-11.355469-4.019532-1.003906-8.089844 1.4375-9.09375 5.457031-1.007813 4.015625 1.4375 8.089844 5.453124 9.09375 5.335938 1.335938 11.027344 5.175781 17.054688 9.238281 8.234375 5.554688 17.566406 11.851563 28.519531 13.097657 9.8125 1.113281 19.316407-2.429688 28.507813-5.859375 7.421875-2.769532 14.429687-5.382813 20.90625-5.382813 6.480468 0 13.488281 2.617188 20.90625 5.382813 8.011718 2.992187 17.703125 5.859375 28.507812 5.859375 11.023438 0 20.285156-7.539063 28.519532-13.09375 3.257812-2.199219 6.417968-4.328125 9.480468-6.035157-2.160156 8.160157-4.410156 15.777344-6.746094 22.839844h-234.21875c-12.796874-.003906-20.597656-8.347656-23.625-16.160156zm357.554688-9.304688c-.496094 14.277344-12.070312 25.460938-26.351562 25.460938h-57.597657c23.988281-76.054688 30.941407-185.695312 31.683594-198.453125 1.230469-21.226563-5.367187-41.875-18.582031-58.144531-19.886719-24.484375-30.515625-55.378906-35.472656-73.734375 7.140624-7.066407 13.542968-15.144531 19.1875-24.226563 2.1875-3.519531 1.109374-8.144531-2.410157-10.328125-3.515625-2.183593-8.140625-1.109375-10.328125 2.410157-17.851562 28.71875-44.316406 46.058593-78.667968 51.539062-15.101563 2.40625-28.871094 9.003906-39.816407 19.070312-59.132812 54.402344-113.640625 53.242188-140.246093 45.363282-13.941407-4.132813-14.167969-16.128906-10.800782-22.453125 10.253906-19.261719 20.835938-51.609375 22.355469-91.613281 1.410156-37.167969 20.273437-63.980469 35.851563-79.933594 19.382812-19.84375 45.191406-34.164063 69.046874-38.308594 35.964844-6.246094 88.796876-4.378906 125.742188 13.871094 27.183594 13.425781 40.027344 45.367187 29.882812 74.296875-1.371093 3.90625.6875 8.1875 4.597657 9.558593 3.910156 1.367188 8.1875-.6875 9.558593-4.597656 5.910157-16.847656 5.546876-34.519531.027344-50.28125 15.101563 8.058594 28.355469 24.039063 39.539063 47.726563 16.4375 34.8125 27.109375 95.855469 31.726562 181.4375 3.890625 72.214843 2.34375 144.609375 1.074219 181.339843zm43.570312-113.449218c-.28125 5.871094-3.570312 11.015625-8.796874 13.765625-6.398438 3.363281-12.53125 7.085937-18.371094 11.113281-.050782-16.382812-.574219-51.558594-.472656-51.707031 6.910156 3.976562 13.707031 8.136719 20.265624 12.425781 4.894532 3.195312 7.648438 8.578125 7.375 14.402344zm0 0"/></svg>