<svg height="511pt" viewBox="-13 0 511 511.99924" width="511pt" xmlns="http://www.w3.org/2000/svg"><path d="m89.847656 504.5h307.113282c30.054687 0 44.289062-36.9375 22.09375-57.203125-35.238282-32.183594-92.128907-65.972656-175.652344-65.972656-83.519532 0-140.410156 33.789062-175.652344 65.972656-22.191406 20.265625-7.957031 57.203125 22.097656 57.203125zm0 0" fill="#b2e59c"/><path d="m243.40625 381.324219c-83.523438 0-140.414062 33.789062-175.652344 65.972656-22.195312 20.265625-7.960937 57.203125 22.09375 57.203125h205.355469c32.425781-21.625 36.355469-37.933594 36.355469-37.933594l1.503906-70.636718c-25.636719-8.925782-55.402344-14.605469-89.65625-14.605469zm0 0" fill="#9ad880"/><path d="m243.40625 452.109375c-89.855469 0-163.371094-73.511719-163.371094-163.367187v-84.78125c0-89.851563 73.515625-163.367188 163.371094-163.367188 89.851562 0 163.367188 73.515625 163.367188 163.367188v84.78125c0 89.851562-73.515626 163.367187-163.367188 163.367187zm0 0" fill="#acabb1"/><path d="m147.457031 73.234375s-31.070312-27.710937-55.113281-59.460937c-7.46875-9.859376-22.875-7.714844-27.359375 3.8125-12.035156 30.90625-23.535156 86.136718 12.121094 144.804687.96875 0 70.351562-89.15625 70.351562-89.15625zm0 0" fill="#b2785b"/><path d="m56.636719 45.71875c-6.484375 31.246094-6.074219 73.003906 20.464843 116.671875.460938 0 16.304688-20.050781 32.84375-41.136719-27.863281-26.273437-44.640624-56.527344-53.308593-75.535156zm0 0" fill="#ffb0d0"/><path d="m339.285156 73.234375s31.070313-27.710937 55.109375-59.460937c7.46875-9.859376 22.875-7.714844 27.363281 3.8125 12.03125 30.90625 23.53125 86.136718-12.125 144.804687-.964843 0-70.347656-89.15625-70.347656-89.15625zm0 0" fill="#c68d6d"/><path d="m430.105469 45.71875c6.484375 31.246094 6.070312 73.003906-20.46875 116.671875-.457031 0-16.304688-20.050781-32.839844-41.136719 27.859375-26.273437 44.636719-56.527344 53.308594-75.535156zm0 0" fill="#ffc7de"/><path d="m466.148438 318.570312c11.113281-5.386718 15.742187-18.785156 10.300781-29.871093-12.863281-26.207031-36.761719-78.152344-65.140625-155.335938-40.007813-108.824219-167.902344-103.984375-167.902344-103.984375s-129.203125-.390625-167.90625 103.984375c-28.609375 77.148438-52.445312 129.136719-65.230469 155.351563-5.40625 11.082031-.773437 24.441406 10.320313 29.820312l27.953125 13.554688-20.183594 29.957031c-7.929687 11.769531-6.003906 27.554687 4.488281 37.109375 30.828125 28.082031 102.050782 79.453125 210.554688 79.453125 108.507812 0 179.730468-51.371094 210.558594-79.453125 10.488281-9.554688 12.414062-25.339844 4.484374-37.109375l-20.179687-29.957031zm0 0" fill="#dd9f80"/><path d="m156.257812 313.488281c-2.375-42.910156 15.027344-84.46875 46.921876-113.273437 56.242187-50.78125 78.96875-126.726563 87.332031-165.679688-26.878907-5.921875-47.109375-5.160156-47.109375-5.160156s-129.199219-.386719-167.902344 103.988281c-28.609375 77.144531-52.445312 129.132813-65.230469 155.351563-5.40625 11.082031-.773437 24.441406 10.320313 29.820312l27.953125 13.554688-20.183594 29.957031c-7.929687 11.769531-6.003906 27.554687 4.488281 37.109375 30.589844 27.863281 100.972656 78.660156 208.066406 79.441406-63.5625-43.574218-81.667968-111.171875-84.65625-165.109375zm0 0" fill="#c68d6d"/><path d="m358.777344 275.941406 29.632812-8.539062c8.777344-2.53125 12.203125-13.140625 6.5625-20.324219l-58.136718-74.0625c-8.59375-10.949219-23.738282-14.125-36.109376-7.746094-13 6.707031-32.285156 13.4375-57.324218 13.4375-25.039063 0-44.320313-6.730469-57.320313-13.4375-12.375-6.378906-27.515625-3.203125-36.113281 7.746094l-58.132812 74.0625c-5.640626 7.183594-2.214844 17.792969 6.5625 20.324219l29.632812 8.539062-40.75 63.617188c-5.179688 8.085937-1.570312 18.890625 7.429688 22.234375l22.425781 8.339843c9.226562 3.429688 16.953125 9.960938 21.898437 18.472657 12.601563 21.691406 44.632813 47.84375 104.367188 47.84375s91.769531-26.152344 104.367187-47.84375c4.945313-8.511719 12.675781-15.042969 21.902344-18.472657l22.421875-8.339843c9-3.34375 12.609375-14.148438 7.429688-22.234375zm0 0" fill="#ffdaaa"/><path d="m156.257812 313.488281c-2.375-42.910156 15.027344-84.46875 46.921876-113.273437 7.917968-7.148438 15.167968-14.789063 21.808593-22.761719-16.25-2.257813-29.300781-7.226563-38.90625-12.183594-12.375-6.378906-27.515625-3.203125-36.113281 7.746094l-58.132812 74.0625c-5.640626 7.183594-2.214844 17.792969 6.5625 20.324219l29.632812 8.539062-40.75 63.617188c-5.179688 8.085937-1.570312 18.890625 7.429688 22.234375l22.425781 8.339843c9.226562 3.429688 16.953125 9.960938 21.898437 18.472657 8.28125 14.257812 24.964844 30.441406 52.378906 39.859375-24.441406-36.945313-33.164062-79-35.15625-114.976563zm0 0" fill="#ffc477"/><path d="m229.238281 290.496094h28.332031c9.382813 0 15.503907 9.945312 11.175782 18.269531-6.496094 12.488281-15.976563 18.503906-25.339844 18.503906-9.367188 0-18.847656-6.011719-25.34375-18.503906-4.328125-8.324219 1.792969-18.269531 11.175781-18.269531zm0 0" fill="#898890"/><path d="m331.558594 301.132812v-12.449218c0-4.140625-3.355469-7.5-7.5-7.5-4.140625 0-7.5 3.359375-7.5 7.5v12.449218c0 4.144532 3.359375 7.5 7.5 7.5 4.144531 0 7.5-3.355468 7.5-7.5zm0 0"/><path d="m155.25 288.683594v12.453125c0 4.140625 3.355469 7.5 7.5 7.5 4.140625 0 7.5-3.359375 7.5-7.5v-12.453125c0-4.140625-3.359375-7.5-7.5-7.5-4.144531 0-7.5 3.359375-7.5 7.5zm0 0"/><path d="m483.179688 285.390625c-10.921876-22.25-32.269532-68.230469-57.957032-136.1875 11.300782-24.011719 16.617188-49.386719 15.769532-75.492187-.640626-19.824219-4.761719-39.625-12.246094-58.847657-3.105469-7.976562-10.027344-13.449219-18.515625-14.628906-8.480469-1.183594-16.644531 2.1875-21.8125 9.011719-11.941407 15.765625-25.6875 30.554687-36.355469 41.324218-11.339844-6.851562-23.800781-12.585937-37.328125-17.121093-36.917969-12.375-68.675781-11.660157-71.460937-11.570313-2.792969.003906-34.777344.367188-71.777344 13.269532-33.679688 11.742187-60.683594 30.246093-79.910156 54.460937-12.757813-16.722656-21.570313-32.984375-27.113282-44.820313 2.03125-9.003906 4.675782-17.226562 7.5-24.484374 1.59375-4.097657 5.152344-5.011719 6.605469-5.214844 1.457031-.203125 5.128906-.296875 7.785156 3.214844 5.914063 7.804687 12.742188 16.027343 20.300781 24.445312 2.765626 3.082031 7.507813 3.335938 10.589844.570312 3.082032-2.765624 3.335938-7.507812.570313-10.589843-7.28125-8.109375-13.839844-16.007813-19.503907-23.484375-5.167968-6.824219-13.324218-10.191406-21.8125-9.011719-8.484374 1.183594-15.40625 6.652344-18.515624 14.628906-7.484376 19.226563-11.605469 39.023438-12.246094 58.847657-.84375 26.109374 4.472656 51.492187 15.78125 75.507812-25.851563 67.910156-47.132813 113.929688-58 136.207031-3.4921878 7.160157-3.980469 15.25-1.378906 22.777344 2.605468 7.535156 7.992187 13.601563 15.171874 17.082031l20.175782 9.78125-15.355469 22.789063c-9.921875 14.730469-7.492187 34.871093 5.65625 46.847656 10.15625 9.25 23.925781 20.40625 41.261719 31.453125-2.152344 1.835938-4.28125 3.699219-6.363282 5.601562-12.628906 11.53125-16.636718 28.585938-10.460937 44.507813 6.15625 15.875 20.570313 25.734375 37.613281 25.734375h307.113282c17.042968 0 31.457031-9.863281 37.613281-25.734375 6.175781-15.921875 2.167969-32.976563-10.460938-44.507813-2.078125-1.898437-4.203125-3.765624-6.355469-5.609374 17.328126-11.042969 31.101563-22.199219 41.253907-31.445313 13.148437-11.976563 15.578125-32.117187 5.65625-46.847656l-15.355469-22.789063 20.109375-9.75c7.191406-3.484375 12.582031-9.5625 15.183594-17.117187 2.59375-7.546875 2.089843-15.644531-1.425781-22.808594zm-65.660157-156.777344c-3.601562-9.394531-7.957031-18.257812-13.058593-26.546875 8.707031-11.007812 15.789062-21.925781 21.425781-31.765625 1.042969 17.847657-.976563 37.59375-8.367188 58.3125zm-17.144531-110.308593c2.65625-3.511719 6.328125-3.417969 7.785156-3.214844 1.457032.203125 5.011719 1.117187 6.605469 5.21875 2.828125 7.253906 5.472656 15.476562 7.5 24.480468-5.488281 11.722657-14.1875 27.785157-26.746094 44.335938-8.71875-11.34375-19-21.40625-30.753906-30.078125 10.699219-10.910156 23.949219-25.34375 35.609375-40.742187zm-339.523438 52c5.6875 9.925781 12.84375 20.949218 21.660157 32.0625-5.226563 8.242187-9.652344 17.039062-13.253907 26.347656-7.421874-20.753906-9.449218-40.539063-8.40625-58.410156zm353.148438 382.53125c9.5 8.675781 9.632812 20.15625 6.589844 28.003906-3.03125 7.8125-10.828125 16.160156-23.628906 16.160156h-307.113282c-12.800781 0-20.597656-8.347656-23.628906-16.160156-3.042969-7.847656-2.910156-19.328125 6.589844-28.003906 3.191406-2.914063 6.484375-5.75 9.832031-8.496094 38.9375 22.152344 92.648437 41.769531 160.765625 41.769531s121.828125-19.621094 160.769531-41.773437c3.347657 2.746093 6.640625 5.589843 9.824219 8.5zm56.421875-149.519532c-1.292969 3.753906-3.972656 6.773438-7.542969 8.503906l-27.886718 13.523438c-4.28125 2.058594-6.03125 5.75-2.949219 10.9375l20.1875 29.957031c5.792969 8.601563 4.367187 20.371094-3.320313 27.375-31.773437 28.941407-100.722656 77.496094-205.503906 77.496094-104.785156 0-173.734375-48.554687-205.507812-77.496094-7.6875-7.003906-9.113282-18.773437-3.316407-27.375l20.183594-29.957031c2.445313-3.460938 2.582031-7.582031-2.949219-10.9375l-27.953125-13.554688c-3.566406-1.730468-6.242187-4.742187-7.539062-8.488281-1.289063-3.734375-1.046875-7.746093.6875-11.296875 11.941406-24.496094 36.339843-77.335937 65.519531-156.035156 15.1875-40.957031 46.640625-70.0625 93.476562-86.507812 35.480469-12.460938 66.9375-12.585938 67.371094-12.585938h.003906c.09375 0 .203126 0 .304688-.003906.308594-.011719 31.015625-1.019532 66.28125 10.800781 46.804688 15.6875 78.53125 45.390625 94.304688 88.277344 28.957031 78.769531 53.429687 131.582031 65.441406 156.050781 1.742187 3.554688 1.992187 7.574219.707031 11.316406zm0 0"/><path d="m370.515625 280.363281 19.972656-5.753906c6.519531-1.882813 11.660157-6.859375 13.746094-13.320313 2.085937-6.460937.828125-13.503906-3.363281-18.84375l-58.132813-74.058593c-10.757812-13.703125-29.871093-17.816407-45.449219-9.78125-11.144531 5.75-29.542968 12.601562-53.882812 12.601562-24.34375 0-42.738281-6.855469-53.882812-12.601562-15.582032-8.035157-34.695313-3.921875-45.453126 9.78125l-58.132812 74.058593c-4.191406 5.339844-5.449219 12.386719-3.363281 18.84375 2.085937 6.460938 7.226562 11.441407 13.746093 13.320313l19.972657 5.753906-35.324219 55.152344c-3.699219 5.773437-4.574219 12.8125-2.402344 19.316406 2.175782 6.503907 7.109375 11.601563 13.535156 13.992188l22.421876 8.335937c7.5625 2.8125 13.960937 8.214844 18.027343 15.210938 18.761719 32.296875 60.203125 51.578125 110.855469 51.578125 21.710938 0 41.476562-3.347657 58.738281-9.953125 3.867188-1.480469 5.804688-5.820313 4.324219-9.6875-1.480469-3.867188-5.8125-5.800782-9.683594-4.324219-15.546875 5.949219-33.507812 8.964844-53.378906 8.964844-67.050781 0-91.875-33.761719-97.886719-44.109375-5.804687-10-14.957031-17.71875-25.769531-21.738282l-22.421875-8.335937c-4.113281-1.480469-6.554687-6.609375-3.730469-11.160156l40.75-63.617188c2.546875-4.308593 1.203125-9.238281-4.238281-11.25l-29.632813-8.542969c-3.109374-.808593-6.449218-3.75-2.742187-8.488281l58.136719-74.058593c6.320312-8.050782 17.582031-10.453126 26.773437-5.710938 12.621094 6.507812 33.410157 14.269531 60.761719 14.269531s48.136719-7.761719 60.757812-14.269531c9.191407-4.742188 20.453126-2.339844 26.777344 5.710938l58.132813 74.058593c2.523437 3.054688 1.359375 7.542969-2.738281 8.488281l-29.632813 8.542969c-4.023437.660157-7.351563 5.8125-4.238281 11.25l40.75 63.617188c2.375 3.015625 1.375 9.523437-3.730469 11.160156l-22.425781 8.335937c-10.808594 4.023438-19.960938 11.742188-25.769532 21.738282-3.101562 5.335937-8.929687 13.339844-19.101562 21.148437-3.285156 2.519531-3.90625 7.230469-1.382812 10.515625 2.523437 3.285156 7.230468 3.90625 10.515624 1.378906 9.585938-7.359374 17.519532-16.179687 22.941407-25.511718 4.0625-6.996094 10.464843-12.398438 18.023437-15.207032l22.425782-8.339843c6.425781-2.390625 11.359374-7.488281 13.53125-13.992188 2.175781-6.5 1.300781-13.542969-2.398438-19.316406zm0 0"/><path d="m257.570312 282.996094h-28.332031c-7.074219 0-13.492187 3.613281-17.167969 9.667968-3.652343 6.015626-3.902343 13.328126-.660156 19.5625 7.449219 14.324219 19.109375 22.539063 31.996094 22.539063 12.882812 0 24.546875-8.214844 31.992188-22.539063 3.242187-6.234374 2.996093-13.546874-.660157-19.5625-3.675781-6.054687-10.09375-9.667968-17.167969-9.667968zm4.519532 22.308594c-4.777344 9.191406-11.589844 14.460937-18.6875 14.460937-7.09375 0-14.085938-5.179687-18.6875-14.460937-2.238282-4.519532 1.941406-7.308594 4.523437-7.308594h28.332031c6.714844-.277344 5.675782 5.085937 4.519532 7.308594zm0 0"/></svg>