<svg height="511pt" viewBox="-3 0 511 511.99789" width="511pt" xmlns="http://www.w3.org/2000/svg"><path d="m100.519531 504.5h307.113281c30.058594 0 44.289063-36.9375 22.097657-57.203125-35.242188-32.183594-92.128907-65.972656-175.652344-65.972656s-140.414063 33.789062-175.652344 65.972656c-22.195312 20.265625-7.960937 57.203125 22.09375 57.203125zm0 0" fill="#ccf8ff"/><path d="m254.078125 381.328125c-83.523437 0-140.414063 33.785156-175.652344 65.96875-22.195312 20.265625-7.960937 57.203125 22.09375 57.203125h164.640625c52.566406-29.558594 66.160156-71.9375 66.160156-71.9375v-40.59375c-22.707031-6.609375-48.382812-10.640625-77.242187-10.640625zm0 0" fill="#abebf4"/><path d="m119.332031 416.910156v87.589844h36.859375v-105.542969c-13.484375 5.234375-25.753906 11.347657-36.859375 17.953125zm0 0" fill="#7a7a84"/><path d="m196.875 387v117.5h36.859375v-122.488281c-12.980469.882812-25.265625 2.597656-36.859375 4.988281zm0 0" fill="#7a7a84"/><path d="m274.417969 382.011719v122.488281h36.859375v-117.496094c-11.589844-2.390625-23.878906-4.105468-36.859375-4.992187zm0 0" fill="#ff737d"/><path d="m351.960938 398.957031v105.542969h36.859374v-87.589844c-11.105468-6.605468-23.375-12.71875-36.859374-17.953125zm0 0" fill="#ff737d"/><path d="m274.417969 498.910156c16.285156-10.519531 28.238281-22.121094 36.859375-32.648437v-79.257813c-11.589844-2.390625-23.878906-4.105468-36.859375-4.992187zm0 0" fill="#f46262"/><path d="m178.902344 61.175781-93.765625-51.96875c-11.046875-6.125-23.5 5.414063-18.238281 16.894531l13.257812 28.925782-39.71875 2.902344c-14.164062 1.03125-21.695312 17.214843-13.359375 28.714843l24.792969 34.21875-33.09375 14.710938c-11.078125 4.921875-14.296875 19.125-6.417969 28.34375l33.367187 41.671875-17.792968 25.882812c-8.964844 13.039063.105468 30.824219 15.925781 31.226563l136.609375 3.457031zm0 0" fill="#ff737d"/><path d="m178.902344 61.175781-19.972656-11.070312c-31.199219 14.273437-81.527344 49.699219-127.921876 137.101562l14.722657 18.382813-17.796875 25.882812c-8.964844 13.039063.105468 30.824219 15.925781 31.226563l136.609375 3.457031zm0 0" fill="#f46262"/><path d="m329.25 61.175781 93.769531-51.96875c11.046875-6.125 23.5 5.414063 18.238281 16.894531l-13.261718 28.925782 39.722656 2.902344c14.164062 1.03125 21.691406 17.214843 13.359375 28.714843l-24.796875 34.21875 33.09375 14.710938c11.082031 4.921875 14.296875 19.125 6.417969 28.34375l-33.367188 41.671875 17.792969 25.882812c8.96875 13.039063-.101562 30.824219-15.921875 31.226563l-136.609375 3.457031zm0 0" fill="#ff737d"/><path d="m329.25 61.175781 19.972656-11.070312c31.203125 14.273437 81.527344 49.699219 127.921875 137.101562l-14.71875 18.382813 17.792969 25.882812c8.96875 13.039063-.101562 30.824219-15.921875 31.226563l-136.609375 3.457031zm0 0" fill="#f46262"/><path d="m145.636719 297.867188c0 28.777343-23.328125 52.105468-52.101563 52.105468-28.777344 0-52.101562-23.328125-52.101562-52.105468 0-28.773438 23.324218-52.101563 52.101562-52.101563 28.773438 0 52.101563 23.328125 52.101563 52.101563zm0 0" fill="#c6c5ca"/><path d="m472.371094 297.867188c0 28.777343-23.328125 52.105468-52.101563 52.105468-28.773437 0-52.101562-23.328125-52.101562-52.105468 0-28.773438 23.328125-52.101563 52.101562-52.101563 28.773438 0 52.101563 23.328125 52.101563 52.101563zm0 0" fill="#d8d7da"/><path d="m254.078125 452.109375c-89.851563 0-163.367187-73.511719-163.367187-163.367187v-84.78125c0-89.851563 73.515624-163.367188 163.367187-163.367188s163.367187 73.511719 163.367187 163.367188v84.78125c0 89.855468-73.515624 163.367187-163.367187 163.367187zm0 0" fill="#eaeaea"/><path d="m254.078125 40.59375c-89.851563 0-163.367187 73.515625-163.367187 163.367188v84.78125c0 81.652343 60.710937 149.808593 139.222656 161.570312-39.625-36.472656-53.253906-90.675781-56.449219-137.933594-3.203125-47.324218 13.222656-94.109375 45.632813-128.742187 43.347656-46.332031 60.3125-112.789063 65.722656-140.117188-9.96875-1.921875-20.253906-2.925781-30.761719-2.925781zm0 0" fill="#d8d7da"/><path d="m188.847656 257.554688c31.617188 4.261718 47.101563 40.835937 26.613282 65.554687-15.527344 18.734375-43.304688 21.332031-62.039063 5.804687-17.65625-14.636718-28.808594-39.703124-35.300781-59.492187-4.015625-12.242187 6.925781-24.175781 19.484375-21.296875 11.769531 2.703125 28.234375 6.332031 51.242187 9.429688zm0 0" fill="#898890"/><path d="m153.421875 328.914062c6.796875 5.632813 14.777344 8.882813 22.941406 9.839844-1.371093-8.917968-2.296875-17.769531-2.878906-26.375-1.292969-19.09375.609375-38.089844 5.46875-56.242187-17.929687-2.742188-31.339844-5.710938-41.347656-8.007813-12.558594-2.882812-23.5 9.050782-19.484375 21.296875 6.492187 19.789063 17.644531 44.851563 35.300781 59.488281zm0 0" fill="#7a7a84"/><path d="m319.304688 257.554688c-31.613282 4.261718-47.101563 40.835937-26.613282 65.554687 15.53125 18.734375 43.308594 21.332031 62.042969 5.804687 17.65625-14.636718 28.804687-39.703124 35.296875-59.492187 4.019531-12.242187-6.925781-24.175781-19.484375-21.296875-11.765625 2.703125-28.234375 6.332031-51.242187 9.429688zm0 0" fill="#898890"/><path d="m296.5 316.984375c0 23.429687-18.992188 42.421875-42.421875 42.421875-23.433594 0-42.425781-18.992188-42.425781-42.421875 0-23.433594 18.992187-42.425781 42.425781-42.425781 23.429687 0 42.421875 18.992187 42.421875 42.425781zm0 0" fill="#ff929f"/><path d="m334.734375 308.632812c4.140625 0 7.5-3.355468 7.5-7.496093v-12.453125c0-4.140625-3.359375-7.5-7.5-7.5-4.144531 0-7.5 3.359375-7.5 7.5v12.453125c0 4.140625 3.355469 7.496093 7.5 7.496093zm0 0"/><path d="m173.421875 281.183594c-4.144531 0-7.5 3.359375-7.5 7.5v12.453125c0 4.140625 3.355469 7.496093 7.5 7.496093s7.5-3.355468 7.5-7.496093v-12.453125c0-4.140625-3.359375-7.5-7.5-7.5zm0 0"/><path d="m281.621094 275.371094c-7.902344-5.246094-17.371094-8.3125-27.542969-8.3125-10.175781 0-19.644531 3.066406-27.542969 8.3125-7.28125-13.574219-20.785156-23.105469-36.683594-25.246094-21.335937-2.875-36.914062-6.171875-50.566406-9.308594-8.585937-1.96875-17.253906.742188-23.195312 7.253906-5.925782 6.492188-7.832032 15.351563-5.09375 23.691407 6.523437 19.878906 18.347656 46.9375 37.636718 62.925781 9.652344 8 21.320313 11.953125 32.941407 11.953125 9.589843 0 19.140625-2.703125 27.507812-8.035156 8.074219 16.730469 25.207031 28.300781 44.996094 28.300781 19.785156 0 36.921875-11.570312 44.992187-28.300781 8.367188 5.332031 17.917969 8.039062 27.507813 8.039062 11.621094 0 23.289063-3.957031 32.941406-11.957031 19.292969-15.988281 31.117188-43.042969 37.636719-62.925781 2.738281-8.339844.835938-17.195313-5.089844-23.691407-5.941406-6.507812-14.613281-9.21875-23.195312-7.25-13.65625 3.132813-29.234375 6.429688-50.566406 9.304688-15.902344 2.140625-29.40625 11.671875-36.683594 25.246094zm-123.414063 47.769531c-16.539062-13.707031-27.050781-38.050781-32.960937-56.054687-1.480469-4.515626.851562-7.730469 1.921875-8.90625 2.246093-2.460938 5.523437-3.488282 8.757812-2.742188 14.003907 3.214844 29.988281 6.597656 51.917969 9.550781 12.40625 1.671875 22.679688 9.785157 27.101562 21.046875-6.75 8.515625-10.792968 19.261719-10.792968 30.945313 0 2.171875.15625 4.308593.425781 6.410156-13.414063 10.960937-32.726563 11.058594-46.371094-.25zm95.871094 28.765625c-19.257813 0-34.925781-15.667969-34.925781-34.925781 0-19.253907 15.667968-34.921875 34.925781-34.921875s34.921875 15.667968 34.921875 34.921875c0 19.257812-15.664062 34.925781-34.921875 34.925781zm118.148437-96.46875c3.234376-.746094 6.511719.28125 8.757813 2.742188 1.070313 1.175781 3.402344 4.390624 1.921875 8.90625-5.90625 18.003906-16.421875 42.34375-32.960938 56.054687-13.644531 11.308594-32.957031 11.210937-46.371093.25.269531-2.101563.425781-4.234375.425781-6.40625 0-11.683594-4.042969-22.433594-10.792969-30.949219 4.421875-11.261718 14.695313-19.375 27.097657-21.042968 21.9375-2.957032 37.917968-6.339844 51.921874-9.554688zm0 0"/><path d="m507.007812 146.480469c-1.804687-7.96875-7.121093-14.441407-14.585937-17.761719l-24.636719-10.949219 19.367188-26.722656c5.53125-7.636719 6.460937-17.300781 2.480468-25.847656-3.976562-8.550781-11.964843-14.066407-21.371093-14.75l-28.949219-2.113281 8.761719-19.109376c3.769531-8.230468 1.917969-17.523437-4.722657-23.675781-6.644531-6.152343-16.050781-7.292969-23.96875-2.902343l-88.203124 48.882812c-23.644532-12.054688-49.90625-18.4375-77.101563-18.4375s-53.457031 6.382812-77.101563 18.4375l-31.578124-17.5c-3.625-2.007812-8.1875-.699219-10.195313 2.921875-2.007813 3.625-.699219 8.1875 2.921875 10.195313l23.691406 13.128906c-10.136718 6.5625-19.667968 14.246094-28.421875 23-32.363281 32.363281-50.183593 75.222656-50.183593 120.683594v35.210937c-12.199219 2.125-23.078126 7.933594-31.492188 16.222656 0 0-14.230469 1.273438-18.4375-6.976562-2.101562-4.132813-1.792969-8.878907.832031-12.699219l17.792969-25.882812c1.875-2.722657 1.742188-6.355469-.324219-8.9375l-33.367187-41.671876c-.050782-.0625-.101563-.121093-.15625-.183593-2.199219-2.574219-3.035156-5.945313-2.285156-9.253907.75-3.304687 2.953124-5.988281 6.050781-7.363281l33.09375-14.707031c2.066406-.917969 7.226562-4.101562 3.027343-11.253906l-24.792968-34.21875c-2.296875-3.167969-2.679688-7.175782-1.03125-10.722656 1.648437-3.542969 4.960937-5.832032 8.863281-6.117188l39.71875-2.898438c2.453125-.179687 10.007813-2.273437 6.273437-10.605468l-13.257812-28.925782c-2.800781-7.589843 4.503906-9.027343 7.78125-7.210937l30.566406 16.941406c3.625 2.007813 8.1875.699219 10.195313-2.921875 2.011719-3.625.699219-8.191406-2.921875-10.199218l-30.566406-16.941407c-7.917969-4.386719-17.328126-3.246093-23.96875 2.90625-6.640626 6.152344-8.496094 15.445313-4.722657 23.675781l8.757813 19.109376-28.949219 2.109374c-9.402344.6875-17.394531 6.203126-21.371094 14.75-3.976562 8.550782-3.046875 18.214844 2.484375 25.851563l19.363282 26.722656-24.632813 10.949219c-7.46875 3.320312-12.785156 9.792969-14.589844 17.757812-1.792969 7.925782.1875 16.015626 5.429688 22.214844l29.820312 37.238282-14.640625 21.292968c-5.792968 8.425782-6.480468 18.898438-1.832031 28.007813 4.214844 8.261719 11.910156 13.617187 20.933594 14.738281-4.417969 8.339844-6.921875 17.835938-6.921875 27.898438 0 61.539062 62.3125 59.542968 63.664062 59.449218 7.398438 16.769532 17.554688 32.382813 30.234375 46.273438-19.625 10.242187-37.910156 23.050781-54.464843 38.167968-12.625 11.53125-16.632813 28.585938-10.460938 44.507813 6.15625 15.871094 20.570312 25.730469 37.613281 25.730469h307.113281c17.042969 0 31.457032-9.859375 37.613282-25.730469 6.175781-15.921875 2.167968-32.976563-10.460938-44.507813-16.554687-15.117187-34.839844-27.925781-54.464844-38.164062 28.832032-31.597656 44.621094-72.070312 44.621094-114.851562v-35.234376c22.566406 2.339844 39.929688 21.402344 39.929688 44.359376 0 18.488281-11.117188 34.792968-28.324219 41.539062-3.855469 1.511719-5.589844 5.804688-4.246094 9.722656 2.144531 6.238282 8.824219 4.59375 9.722657 4.242188 22.992187-9.019532 37.847656-30.804688 37.847656-55.503906 0-10.511719-2.738282-20.402344-7.53125-29 6.808594-2.1875 12.488281-6.960938 15.894531-13.636719 4.644531-9.109375 3.960937-19.582031-1.835937-28.007813l-14.636719-21.292968 29.816406-37.238282c5.246094-6.199218 7.226563-14.289062 5.429687-22.210937zm-458.074218 151.386719c0-20.996094 14.527344-38.726563 34.277344-43.394532v34.269532c0 18.503906 2.953124 36.578124 8.636718 53.6875-23.8125-.894532-42.914062-20.53125-42.914062-44.5625zm147.941406 181.3125c4.144531 0 7.5-3.355469 7.5-7.5v-19.4375c7.140625 2.175781 14.441406 3.871093 21.859375 5.089843v39.667969h-62.542969v-63.375c8.203125 5.160156 16.789063 9.585938 25.683594 13.25v24.804688c0 4.144531 3.359375 7.5 7.5 7.5zm172.308594-64.429688c4.109375 2.042969 8.15625 4.203125 12.136718 6.476562v75.773438h-21.859374v-73.972656c3.328124-2.628906 6.570312-5.386719 9.722656-8.277344zm-24.722656 82.25h-25.683594v-50.125c8.898437-3.664062 17.484375-8.09375 25.683594-13.25zm-40.683594 0h-21.859375v-39.667969c7.417969-1.21875 14.71875-2.914062 21.859375-5.089843zm-36.859375 0h-25.683594v-37.867188c4.253906.316407 13.214844 1.417969 25.683594 0zm-118.226563 0h-21.859375v-75.777344c3.984375-2.273437 8.035157-4.429687 12.140625-6.472656 3.152344 2.890625 6.394532 5.648438 9.71875 8.273438zm-71.800781-16.160156c-3.042969-7.847656-2.910156-19.328125 6.589844-28.003906 8.941406-8.164063 18.414062-15.609376 28.351562-22.296876v66.460938h-11.3125c-12.796875 0-20.597656-8.347656-23.628906-16.160156zm354.371094 0c-3.03125 7.8125-10.828125 16.160156-23.628907 16.160156h-11.3125v-66.464844c9.9375 6.6875 19.414063 14.136719 28.351563 22.300782 9.503906 8.675781 9.632813 20.15625 6.589844 28.003906zm-21.316407-192.097656c0 41.453124-16.261718 80.546874-45.792968 110.078124-29.53125 29.527344-68.621094 45.789063-110.074219 45.789063s-80.546875-16.261719-110.078125-45.789063c-29.527344-29.53125-45.792969-68.625-45.792969-110.078124v-84.78125c0-41.453126 16.265625-80.546876 45.792969-110.074219 29.53125-29.53125 68.625-45.792969 110.078125-45.792969s80.542969 16.261719 110.074219 45.792969c29.53125 29.527343 45.792968 68.621093 45.792968 110.074219zm80.148438-129.699219c-.054688.0625-.105469.125-.152344.1875l-33.371094 41.671875c-2.066406 2.578125-2.199218 6.210937-.324218 8.9375l17.792968 25.882812c2.625 3.816406 3.121094 8.664063.832032 12.695313-3.683594 6.476562-12.925782 6.835937-12.925782 6.835937-9.675781-9.472656-22.585937-15.671875-37-16.789062v-34.503906c0-45.460938-17.824218-88.320313-50.1875-120.683594-8.753906-8.753906-18.285156-16.433594-28.421874-22.996094l80.316406-44.515625c5.609375-3.589844 10.324218 1.394531 7.785156 7.210937l-13.261719 28.929688c-3.730469 8.085938 3.824219 10.425781 6.273438 10.605469l39.71875 2.898437c3.902343.285156 7.214843 2.570313 8.867187 6.117188 1.648438 3.542968 1.261719 7.550781-1.03125 10.71875l-24.796875 34.21875c-4.746093 6.96875.960938 10.335937 3.027344 11.253906l33.09375 14.707031c3.097656 1.378907 5.300781 4.0625 6.050781 7.367188.75 3.304687-.085937 6.675781-2.285156 9.25zm0 0"/></svg>