<svg height="512pt" viewBox="0 0 512.00035 512" width="512pt" xmlns="http://www.w3.org/2000/svg"><path d="m115.898438 504.492188h307.117187c30.054687 0 44.289063-36.9375 22.09375-57.203126-35.242187-32.183593-92.128906-65.96875-175.652344-65.96875-83.523437 0-140.410156 33.785157-175.652343 65.96875-22.191407 20.265626-7.960938 57.203126 22.09375 57.203126zm0 0" fill="#9dad92"/><path d="m269.457031 381.320312c-83.523437 0-140.410156 33.785157-175.652343 65.96875-22.191407 20.265626-7.960938 57.203126 22.09375 57.203126h189.785156c42.347656-34.722657 44.804687-74.046876 44.804687-74.046876v-37.351562c-23.628906-7.28125-50.546875-11.773438-81.03125-11.773438zm0 0" fill="#8a997e"/><path d="m161.015625 297.859375c0 28.777344-23.324219 52.105469-52.101563 52.105469-28.773437 0-52.101562-23.328125-52.101562-52.105469 0-28.773437 23.328125-52.101563 52.101562-52.101563 28.777344 0 52.101563 23.328126 52.101563 52.101563zm0 0" fill="#f9ad87"/><path d="m487.753906 297.859375c0 28.777344-23.328125 52.105469-52.101562 52.105469-28.777344 0-52.101563-23.328125-52.101563-52.105469 0-28.773437 23.324219-52.101563 52.101563-52.101563 28.773437 0 52.101562 23.328126 52.101562 52.101563zm0 0" fill="#ffbc97"/><path d="m269.457031 452.101562c-89.851562 0-163.367187-73.515624-163.367187-163.367187v-84.78125c0-89.851563 73.515625-163.371094 163.367187-163.371094 89.851563 0 163.371094 73.515625 163.371094 163.371094v84.78125c0 89.851563-73.515625 163.367187-163.371094 163.367187zm0 0" fill="#ffe2d9"/><path d="m201.058594 378.777344c-15.878906-41.21875 2.949218-87.421875 42.886718-106.285156 17.617188-8.316407 25.476563-16.496094 25.476563-16.496094v-215.410156c-89.835937.019531-163.332031 73.527343-163.332031 163.367187v84.78125c0 83.109375 62.894531 152.230469 143.433594 162.140625-23-18.9375-38.304688-45.734375-48.464844-72.097656zm0 0" fill="#ffd0b8"/><path d="m269.457031 349.828125c-15.519531 0-28.097656-12.578125-28.097656-28.097656v-20.429688c0-4.238281 3.433594-7.671875 7.671875-7.671875h40.855469c4.238281 0 7.671875 3.433594 7.671875 7.671875v20.429688c0 15.519531-12.582032 28.097656-28.101563 28.097656zm0 0" fill="#57565c"/><path d="m504.5 173.175781c0-45.738281-105.246094-82.820312-235.078125-82.820312-129.828125 0-235.078125 37.082031-235.078125 82.820312s105.25 82.820313 235.078125 82.820313c129.832031 0 235.078125-37.082032 235.078125-82.820313zm0 0" fill="#dd9f80"/><path d="m269.421875 90.355469c-129.832031 0-235.078125 37.082031-235.078125 82.820312 0 43.859375 96.753906 79.757813 219.183594 82.632813 89.339844-20.078125 130.023437-75.351563 130.023437-75.351563v-79.703125c-33.796875-6.625-72.707031-10.398437-114.128906-10.398437zm0 0" fill="#c68d6d"/><path d="m306.488281 9.664062-37.066406 15.722657-37.066406-15.722657c-8.097657-3.4375-17.386719-2.765624-24.851563 1.890626-63.878906 39.832031-86.816406 94.414062-95.003906 126.265624-3.808594 14.800782 4.367188 30.046876 18.804688 35.0625 28.476562 9.886719 80.09375 24.371094 138.152343 24.371094 58.054688 0 109.632813-14.480468 138.089844-24.367187 14.433594-5.015625 22.605469-20.261719 18.800781-35.0625-8.191406-31.847657-31.125-86.433594-95.007812-126.269531-7.464844-4.65625-16.753906-5.328126-24.851563-1.890626zm0 0" fill="#eab9a4"/><path d="m173.585938 37.195312c-38.625 35.316407-54.550782 75.207032-61.085938 100.621094-3.808594 14.804688 4.367188 30.050782 18.804688 35.0625 25.503906 8.859375 69.597656 21.40625 120.234374 23.925782-51.914062-31.433594-71.402343-117.71875-77.953124-159.609376zm0 0" fill="#dd9f80"/><path d="m416.957031 110.09375c-2.554687 2.054688-5.496093 3.714844-8.757812 4.851562-28.457031 9.890626-80.039063 24.371094-138.089844 24.371094-58.0625 0-109.679687-14.488281-138.15625-24.375-3.679687-1.277344-6.953125-3.226562-9.722656-5.65625-4.523438 10.59375-7.621094 20.320313-9.730469 28.535156-3.808594 14.800782 4.367188 30.046876 18.804688 35.0625 28.476562 9.886719 80.09375 24.371094 138.152343 24.371094 58.054688 0 109.632813-14.480468 138.089844-24.367187 14.433594-5.015625 22.605469-20.261719 18.800781-35.0625-2.058594-8.007813-5.050781-17.449219-9.390625-27.730469zm0 0" fill="#898890"/><path d="m377.332031 411.167969c26.617188-23.546875 45.625-55.332031 52.539063-91.515625-10.425782 7.242187-26.640625 15.296875-50.777344 19.71875-32.902344 6.03125-16.933594 45.160156-1.761719 71.796875zm0 0" fill="#ffd0b8"/><path d="m371.976562 457.128906c.152344-.007812.300782-.007812.453126-.015625-.0625-.03125-.214844-.023437-.453126.015625zm0 0" fill="#ffbc97"/><path d="m235.378906 381.65625c-26.179687 8.753906-40.121094 31.234375-47.28125 48.601562 24.019532 13.925782 51.746094 21.84375 81.359375 21.84375 17.378907 0 33.792969-2.636718 49.539063-7.722656-39.53125-24.300781-50.355469-73.84375-83.617188-62.722656zm0 0" fill="#ffd0b8"/><path d="m157.398438 317.3125c-5.976563-17.980469-51.308594-28.238281-51.308594-28.238281 0 32.253906 9.597656 62.253906 25.898437 87.652343 14.671875-18.046874 30.902344-42.890624 25.410157-59.414062zm0 0" fill="#ffbc97"/><path d="m188.097656 430.257812c18.675782 10.828126 39.09375 17.933594 61.425782 20.617188-17.699219-14.429688-30.40625-33.117188-40.199219-53.109375-10.316407 10.085937-16.949219 22.113281-21.226563 32.492187zm0 0" fill="#ffbc97"/><path d="m67.386719 504.492188 16.617187-116.960938c1.410156-9.914062 15.671875-10.070312 17.296875-.191406l19.285157 117.152344zm0 0" fill="#c6c5ca"/><path d="m38.234375 504.492188 6.339844-139.734376c.457031-10.09375 14.820312-11.507812 17.238281-1.699218l34.828125 141.433594zm0 0" fill="#d8d7da"/><path d="m17.105469 484.726562-9.566407-107.125c-.921874-10.324218 13.691407-13.398437 17.003907-3.578124l44.035156 130.46875h-29.859375c-11.234375 0-20.613281-8.574219-21.613281-19.765626zm0 0" fill="#eaeaea"/><path d="m200.628906 132.890625c-28.398437-5.097656-52.347656-12.28125-68.675781-17.949219-3.679687-1.28125-6.953125-3.226562-9.722656-5.660156-4.523438 10.59375-7.621094 20.324219-9.730469 28.535156-3.808594 14.804688 4.367188 30.050782 18.804688 35.0625 25.503906 8.859375 69.597656 21.40625 120.234374 23.925782-22.5625-13.660157-39.003906-37.683594-50.910156-63.914063zm0 0" fill="#74747c"/><path d="m350.113281 281.175781c-4.140625 0-7.5 3.359375-7.5 7.5v12.449219c0 4.144531 3.359375 7.5 7.5 7.5 4.144531 0 7.5-3.355469 7.5-7.5v-12.449219c0-4.140625-3.355469-7.5-7.5-7.5zm0 0"/><path d="m188.800781 281.175781c-4.140625 0-7.5 3.359375-7.5 7.5v12.449219c0 4.144531 3.359375 7.5 7.5 7.5 4.144531 0 7.5-3.355469 7.5-7.5v-12.449219c0-4.140625-3.355469-7.5-7.5-7.5zm0 0"/><path d="m477.585938 220.601562c28.445312-17.527343 34.414062-35.464843 34.414062-47.425781 0-28.734375-32.066406-53.875-90.335938-70.917969-13.777343-30.351562-39.296874-67.722656-86.355468-97.070312-9.5-5.921875-21.367188-6.832031-31.75-2.429688l-34.136719 14.484376-34.136719-14.484376c-10.382812-4.402343-22.25-3.492187-31.75 2.429688-47.058594 29.347656-72.578125 66.71875-86.355468 97.070312-26.652344 7.796876-47.988282 17.367188-63.421876 28.480469-17.859374 12.859375-26.914062 27.136719-26.914062 42.4375 0 25.164063 25.464844 48.152344 71.746094 64.871094 0 0-49.277344 10.769531-49.277344 59.8125 0 32.867187 24.722656 62.605469 63.761719 59.441406 7.476562 16.9375 17.664062 32.585938 30.144531 46.304688-9.933594 5.1875-19.550781 11.039062-28.757812 17.515625l-5.761719-34.996094c-1.320313-8.039062-7.894531-13.609375-16.015625-13.609375-.0625 0-.128906 0-.195313 0-13.925781 0-16.375 17.253906-16.375 17.253906l-7.019531-28.5c-1.980469-8.046875-9.128906-13.097656-17.371094-12.289062-8.246094.8125-14.265625 7.160156-14.640625 15.4375l-.933593 20.539062-4.5-13.332031c-2.671876-7.925781-10.550782-12.429688-18.738282-10.707031-8.1875 1.722656-13.585937 9.019531-12.8437498 17.347656l9.5703128 107.125c1.351562 15.164063 13.855469 26.601563 29.082031 26.601563h384.296875c17.042969 0 31.453125-9.859376 37.609375-25.734376 6.179688-15.921874 2.167969-32.976562-10.457031-44.507812-16.558594-15.117188-34.839844-27.921875-54.464844-38.164062 12.832031-14.058594 23.074219-29.878907 30.496094-46.878907 46.121093 4.890625 69.054687-25.984375 69.054687-58.847656 0-54.542969-54.925781-59.847656-54.925781-59.847656 14.375-5.199219 26.9375-11.050781 37.257813-17.410157zm-98.296876 178.445313c-10.542968-20.511719-14.375-36.625-10.519531-44.90625.664063-1.417969 2.675781-5.742187 11.675781-7.390625 14.070313-2.578125 26.742188-6.550781 37.886719-11.839844-8.558593 35.433594-38.960937 64.058594-39.042969 64.136719zm39.792969-259.355469c2.8125 10.9375-3.335937 22.402344-13.996093 26.109375-25.742188 8.945313-77.59375 23.953125-135.628907 23.953125-58.039062 0-109.925781-15.011718-135.691406-23.957031-10.664063-3.703125-16.816406-15.171875-14.003906-26.113281 1.425781-5.539063 3.386719-12.023438 6.070312-19.160156 1.191407.5625 66.199219 26.289062 144.277344 26.289062s142.261719-25.421875 143.09375-25.78125c2.585937 6.9375 4.488281 13.25 5.878906 18.660156zm-207.609375-121.777344c8.300782-5.316406 15.476563-2.394531 17.953125-1.347656l37.066407 15.726563c1.871093.792969 3.984374.792969 5.859374 0l37.0625-15.722657c5.886719-2.5 12.601563-1.996093 17.957032 1.347657 43.347656 27.03125 67.09375 61.246093 80.054687 89.273437-.554687.246094-58.59375 24.625-137.320312 24.625-78.722657 0-137.554688-24.707031-138.445313-25.160156 13.015625-27.925781 37.078125-61.351562 79.8125-88.742188zm-169.628906 155.261719c0-19.25 25.1875-38.625 68.15625-52.96875-2.003906 5.769531-3.5625 11.070313-4.765625 15.742188-4.738281 18.4375 5.628906 37.773437 23.609375 44.015625 26.65625 9.257812 80.371094 24.789062 140.613281 24.789062 60.238281 0 113.914063-15.527344 140.550781-24.785156 17.972657-6.246094 28.339844-25.578125 23.601563-44.011719-1.203125-4.675781-2.761719-9.980469-4.765625-15.75 42.957031 14.34375 68.15625 33.734375 68.15625 52.96875 0 24.46875-41.707031 49.304688-106.253906 63.28125-4.050782.878907-6.621094 4.871094-5.746094 8.917969.761719 3.511719 4.320312 6.722656 8.917969 5.742188 11.085937-2.363282 21.574219-5.121094 31.410156-8.121094v45.738281c0 8.949219-.761719 17.785156-2.25 26.4375-12.226563 7.890625-27.460937 13.546875-45.339844 16.824219-13.734375 2.515625-19.851562 9.988281-22.566406 15.8125-6.320313 13.570312-2.070313 34.285156 12.628906 61.628906-14.371093 11.777344-30.503906 20.769531-47.730469 26.710938-13.5625-9.132813-23.707031-21.738282-32.726562-32.949219-15.269531-18.976563-29.6875-36.898438-54.34375-28.65625-24.863281 8.316406-39.648438 27.652343-48.210938 44.875-17.300781-11.253907-32.027343-25.699219-43.515624-42.324219 20.414062-26.226562 28.238281-47.121094 23.242187-62.148438-5.898437-17.75-36.667969-27.914062-50.925781-31.734374v-40.175782c43.394531 13.234375 98.089844 20.457032 155.832031 20.457032 32.585937 0 64.171875-2.28125 93.886719-6.78125 4.09375-.621094 6.914062-4.441407 6.292968-8.539063-.621093-4.09375-4.449218-6.910156-8.539062-6.289063-28.972656 4.386719-59.804688 6.613282-91.640625 6.613282-61.964844 0-120.113281-8.464844-163.734375-23.832032-40.574219-14.292968-63.84375-33.0625-63.84375-51.488281zm72.101562 125.753907c15.597657 4.738281 33.730469 12.90625 36.335938 20.75 2.964844 8.921874-3.355469 24.585937-17.464844 43.746093-10.773437-19.617187-17.355468-41.578125-18.871094-64.496093zm-49.632812-1.070313c0-21.039063 14.648438-38.710937 34.277344-43.382813v34.257813c0 18.535156 3.042968 36.625 8.738281 53.6875-23.859375-.839844-43.015625-20.5-43.015625-44.5625zm-25.59375 199.132813c-7.402344 0-13.484375-5.5625-14.140625-12.933594 0 0-9.667969-108.230469-8.582031-108.460938 1.085937-.230468 42.136718 121.394532 42.136718 121.394532zm35.246094 0-24.578125-72.820313s2.730469-60.15625 3.804687-60.261719c1.078125-.109375 33.878906 133.082032 33.878906 133.082032zm28.554687 0-16.800781-68.214844s5.863281-41.25 6.933594-41.265625c1.0625-.046875 19.097656 109.480469 19.097656 109.480469zm344.125-16.160157c-3.03125 7.8125-10.832031 16.160157-23.628906 16.160157h-296.066406l-9.761719-59.316407c11.695312-8.761719 24.152344-16.453125 37.152344-22.917969 13.203125 12.082032 28.199218 22.703126 45.257812 29.824219 5.265625 2.199219 8.667969-.976562 9.921875-3.746093 1.703125-3.777344.023438-8.21875-3.75-9.921876-2.714843-1.230468-5.371093-2.550781-7.996093-3.917968 7.148437-14.710938 19.464843-31.363282 39.984374-38.226563 14.101563-4.710937 22.691407 4.929688 37.898438 23.832031 7.53125 9.359376 15.796875 19.613282 26.3125 28.578126-10.578125 2.253906-21.460938 3.421874-32.511719 3.421874-11.6875 0-23.351562-1.316406-34.664062-3.910156-4.035157-.925781-8.058594 1.59375-8.984375 5.632813-.925782 4.035156 1.59375 8.058593 5.632812 8.984375 12.410156 2.847656 25.203125 4.292968 38.019532 4.292968 42.894531 0 83.472656-15.878906 115.105468-44.859374 20.066406 9.972656 38.714844 22.765624 55.488282 38.082031 9.5 8.679687 9.632812 20.160156 6.589843 28.007812zm33.609375-182.972656c-1.207031 44.457031-47.21875 44.535156-48.519531 44.421875 5.652344-17.066406 8.59375-35.089844 8.59375-53.546875v-35.230469c22.402344 2.34375 40.546875 21.351563 39.925781 44.355469zm0 0"/><path d="m289.886719 286.128906h-40.855469c-8.367188 0-15.171875 6.804688-15.171875 15.171875v20.429688c0 19.628906 15.96875 35.597656 35.597656 35.597656 19.628907 0 35.601563-15.96875 35.601563-35.597656v-20.429688c0-8.367187-6.804688-15.171875-15.171875-15.171875zm.171875 35.601563c0 11.359375-9.242188 20.601562-20.601563 20.601562s-20.597656-9.242187-20.597656-20.601562v-20.429688c0-.09375 41.027344-.171875 41.027344-.171875.09375 0 .171875 20.601563.171875 20.601563zm0 0"/></svg>