<svg height="511pt" viewBox="-33 0 511 511.99904" width="511pt" xmlns="http://www.w3.org/2000/svg"><path d="m112.207031 297.867188c0 28.773437-23.328125 52.101562-52.105469 52.101562-28.773437 0-52.101562-23.328125-52.101562-52.101562 0-28.777344 23.328125-52.105469 52.101562-52.105469 28.777344 0 52.105469 23.328125 52.105469 52.105469zm0 0" fill="#ffaea1"/><path d="m438.945312 297.867188c0 28.773437-23.328124 52.101562-52.105468 52.101562-28.773438 0-52.101563-23.328125-52.101563-52.101562 0-28.777344 23.328125-52.105469 52.101563-52.105469 28.777344 0 52.105468 23.328125 52.105468 52.105469zm0 0" fill="#ffcfc2"/><path d="m69.914062 504.5h307.117188c30.054688 0 44.289062-36.9375 22.09375-57.203125-35.238281-32.183594-92.128906-65.972656-175.652344-65.972656-83.523437 0-140.414062 33.789062-175.65625 65.972656-22.191406 20.265625-7.957031 57.203125 22.097656 57.203125zm0 0" fill="#8ed7e8"/><path d="m223.472656 452.109375c-89.855468 0-163.371094-73.515625-163.371094-163.367187v-84.785157c0-89.851562 73.515626-163.371093 163.371094-163.371093 89.851563 0 163.367188 73.515624 163.367188 163.371093v84.785157c0 89.851562-73.515625 163.367187-163.367188 163.367187zm0 0" fill="#ffe2d9"/><path d="m223.472656 40.585938c-89.851562 0-163.371094 73.515624-163.371094 163.371093v84.785157c0 59.773437 32.542969 112.308593 80.78125 140.789062-8.164062-37.578125-7.578124-75.234375-4.242187-105.835938 3.703125-33.984374 20.46875-65.261718 46.679687-87.210937 52.800782-44.207031 68.140626-133.441406 72.304688-192.699219-10.40625-2.097656-21.152344-3.199218-32.152344-3.199218zm0 0" fill="#ffcfc2"/><path d="m64.085938 168.136719s21.078124-142.53125 218.390624-160.515625c13.886719-1.265625 26.855469 7.453125 30.621094 20.878906 3.542969 12.640625 12.769532 30.023438 35.5 50.707031 32.40625 29.488281 34.195313 88.648438 34.195313 88.648438s-41.203125 32.96875-155.375 32.96875-163.332031-32.6875-163.332031-32.6875zm0 0" fill="#ff929f"/><path d="m373.523438 277.179688h-.433594c-9.246094 0-17.585938 5.390624-21.578125 13.730468-10.09375 21.09375-40.433594 59.058594-128.070313 59.058594-87.640625 0-117.980468-37.964844-128.074218-59.058594-3.992188-8.339844-12.328126-13.730468-21.574219-13.730468h-.503907c-12.863281 0-23.488281 10.140624-23.976562 22.996093-2.539062 67.089844 14.574219 167.542969 76.695312 167.542969 10.851563 0 20.984376-3.074219 29.582032-8.398438 6.5625-4.0625 15.089844-1.800781 18.910156 4.910157 9.6875 17.019531 27.988281 28.5 48.972656 28.5 20.988282 0 39.285156-11.480469 48.972656-28.5 3.820313-6.710938 12.347657-8.972657 18.910157-4.910157 8.597656 5.324219 18.730469 8.398438 29.585937 8.398438 61.214844 0 78.742188-101.292969 76.5625-167.433594-.425781-12.898437-11.074218-23.105468-23.980468-23.105468zm0 0" fill="#cff3ff"/><path d="m178.378906 33.714844c-101.273437 46.433594-114.292968 134.421875-114.292968 134.421875s38.957031 25.902343 128.058593 31.589843c-29.210937-49.285156-21.691406-123.285156-13.765625-166.011718zm0 0" fill="#ff737d"/><path d="m150.394531 462.171875c-16.636719-44.597656-17.953125-92.328125-14.53125-130.644531-23.492187-12.636719-34.996093-29.128906-40.496093-40.617188-3.992188-8.339844-12.328126-13.730468-21.574219-13.730468h-.503907c-12.863281 0-23.488281 10.140624-23.976562 22.996093-2.539062 67.089844 14.574219 167.542969 76.695312 167.542969 8.738282 0 17.007813-1.992188 24.386719-5.546875zm0 0" fill="#bde5ef"/><path d="m304.128906 281.179688c-4.144531 0-7.5 3.359374-7.5 7.5v12.453124c0 4.140626 3.355469 7.5 7.5 7.5 4.144532 0 7.5-3.359374 7.5-7.5v-12.453124c0-4.140626-3.355468-7.5-7.5-7.5zm0 0"/><path d="m142.816406 281.179688c-4.144531 0-7.5 3.359374-7.5 7.5v12.453124c0 4.140626 3.355469 7.5 7.5 7.5 4.144532 0 7.5-3.359374 7.5-7.5v-12.453124c0-4.140626-3.359375-7.5-7.5-7.5zm0 0"/><path d="m241.792969 295.207031c-10.785157 8.367188-25.851563 8.367188-36.640625 0-3.273438-2.539062-7.984375-1.941406-10.523438 1.332031-2.539062 3.273438-1.941406 7.984376 1.332032 10.523438 8.097656 6.28125 17.804687 9.421875 27.511718 9.421875 9.707032 0 19.414063-3.140625 27.515625-9.421875 3.273438-2.539062 3.867188-7.25 1.328125-10.523438-2.539062-3.273437-7.253906-3.867187-10.523437-1.332031zm0 0"/><path d="m446.445312 297.867188c0-30.324219-22.769531-55.414063-52.105468-59.117188v-34.792969c0-12.476562 3.339844-84.84375-40.695313-130.296875-16.839843-17.382812-29.113281-32.164062-33.328125-47.183594-4.726562-16.855468-20.925781-27.921874-38.519531-26.324218-46.011719 4.195312-86.460937 15.472656-120.222656 33.523437-27.210938 14.550781-50.035157 33.578125-68.167969 56.296875-41.761719 52.324219-40.804688 101.46875-40.804688 113.984375v34.792969c-29.335937 3.703125-52.101562 28.792969-52.101562 59.117188 0 27.003906 17.992188 50.296874 43.519531 57.402343 1.03125 8.835938 2.378907 17.453125 4.039063 25.664063 3.476562 17.191406 8.148437 32.1875 13.953125 44.886718-6.640625 4.992188-13.105469 10.324219-19.25 15.9375-12.628907 11.53125-16.636719 28.585938-10.460938 44.507813 6.15625 15.875 20.570313 25.734375 37.613281 25.734375h307.117188c17.042969 0 31.457031-9.863281 37.613281-25.734375 6.175781-15.921875 2.167969-32.976563-10.460937-44.507813-6.308594-5.761718-12.941406-11.234374-19.769532-16.335937 9.347657-20.605469 15.078126-45.417969 18.089844-70.03125 25.75-6.964844 43.941406-30.371094 43.941406-57.523437zm-15 0c0 18.308593-11.046874 34.339843-27.324218 41.144531 1.03125-13.625 1.277344-26.878907.878906-38.972657-.296875-9.058593-4.351562-17.074218-10.65625-22.589843v-23.542969c21.03125 3.578125 37.101562 21.921875 37.101562 43.960938zm-86.699218-10.195313c-9.792969 20.464844-38.574219 54.796875-121.304688 54.796875-82.734375 0-111.515625-34.332031-121.308594-54.796875-5.230468-10.925781-17.222656-21.085937-34.53125-17.476563v-66.238281c0-8.148437.652344-16.285156 1.921876-24.300781 19.195312 9.378906 68.246093 28.613281 160.175781 28.613281 91.929687 0 130.984375-18.6875 148.769531-28.285156 1.234375 7.910156.871094 90.230469.871094 90.230469-17.863282-4.824219-29.363282 6.527344-34.59375 17.457031zm-239.574219-188.398437c16.738281-21.179688 38.09375-38.796876 63.476563-52.367188 31.980468-17.101562 70.507812-27.804688 114.507812-31.8125 10.398438-.949219 19.945312 5.542969 22.71875 15.433594 4.984375 17.769531 17.660156 36.015625 37.675781 54.226562 24.960938 22.710938 30.386719 65.910156 31.484375 79.285156-11.359375 6.988282-54.898437 29.285157-147.617187 29.285157-91.691407 0-140.800781-21.628907-154.886719-29.011719 2.546875-10.667969 10.644531-37.203125 32.640625-65.039062zm-89.671875 198.59375c0-22.039063 16.070312-40.382813 37.101562-43.960938v23.449219c-6.335937 5.492187-10.4375 13.488281-10.78125 22.535156-.488281 12.839844-.242187 26.015625.667969 38.976563-16.09375-6.882813-26.988281-22.816407-26.988281-41zm378.570312 154.964843c9.5 8.679688 9.632813 20.15625 6.589844 28.007813-3.03125 7.8125-10.828125 16.160156-23.628906 16.160156h-133.585938c14.800782-4.898438 27.652344-15.097656 35.519532-29.0625 2.492187-4.417969 7.050781-3.101562 8.441406-2.238281 10.0625 6.226562 21.65625 9.519531 33.53125 9.519531 16.566406 0 31.21875-6.464844 43.558594-19.21875 4.78125-4.941406 9.050781-10.710938 12.882812-17.09375 5.75 4.386719 11.34375 9.042969 16.691406 13.925781zm-40.355468-7.261719c-9.535156 9.859376-20.257813 14.648438-32.773438 14.648438-9.085937 0-17.953125-2.515625-25.636718-7.273438-4.894532-3.027343-10.648438-3.917968-16.203126-2.5-5.613281 1.433594-10.289062 5.007813-13.171874 10.074219-8.675782 15.242188-24.945313 24.707031-42.457032 24.707031-17.511718 0-33.78125-9.464843-42.457031-24.707031-2.882813-5.066406-7.558594-8.644531-13.171875-10.074219-5.558594-1.414062-11.3125-.527343-16.203125 2.5-7.683594 4.757813-16.550781 7.273438-25.632813 7.273438-4.933593 0-9.679687-.742188-14.109374-2.210938-3.9375-1.300781-8.175782.828126-9.476563 4.761719-1.304687 3.929688.828125 8.175781 4.757813 9.476563 5.953124 1.972656 12.289062 2.972656 18.828124 2.972656 11.875 0 23.46875-3.292969 33.53125-9.519531 1.394532-.863281 6.167969-1.5625 8.441407 2.238281 8.226562 13.761719 20.71875 24.164062 35.519531 29.0625h-133.585938c-12.800781 0-20.597656-8.347656-23.628906-16.160156-3.042968-7.851563-2.910156-19.328125 6.589844-28.007813 5.203125-4.75 10.640625-9.289062 16.226562-13.570312 2.847657 4.671875 5.886719 8.933593 9.136719 12.742187 2.691407 3.152344 7.425781 3.523438 10.574219.835938 3.152344-2.6875 3.527344-7.421875.835938-10.570313-16.875-19.785156-35.605469-68.792969-32.839844-141.808593.335937-8.847657 7.574218-15.777344 16.480468-15.777344 0 0 10.265626-.789063 15.3125 9.464844 11.582032 23.519531 43.882813 63.320312 134.839844 63.320312 90.953125 0 123.519532-39.671875 134.835938-63.320312 2.796875-5.839844 8.472656-9.464844 14.8125-9.464844 0 0 16.289062.578125 16.917968 15.851562 2.132813 51.742188-8.855468 116.679688-36.292968 145.035156zm0 0"/></svg>