<svg height="512pt" viewBox="-21 0 511 512" width="512pt" xmlns="http://www.w3.org/2000/svg"><path d="m432.445312 460.945312h-99.113281v-298.148437h62.746094c36.640625 0 66.34375 29.703125 66.34375 66.34375v201.832031c0 16.554688-13.421875 29.972656-29.976563 29.972656zm0 0" fill="#d65b5b"/><path d="m112.207031 297.867188c0 28.773437-23.328125 52.101562-52.105469 52.101562-28.773437 0-52.101562-23.328125-52.101562-52.101562 0-28.777344 23.328125-52.105469 52.101562-52.105469 28.777344 0 52.105469 23.328125 52.105469 52.105469zm0 0" fill="#e2b9a3"/><path d="m438.945312 297.867188c0 28.773437-23.328124 52.101562-52.101562 52.101562-28.777344 0-52.105469-23.328125-52.105469-52.101562 0-28.777344 23.328125-52.105469 52.105469-52.105469 28.773438 0 52.101562 23.328125 52.101562 52.105469zm0 0" fill="#efcbb4"/><path d="m69.914062 504.5h307.117188c30.058594 0 44.289062-36.9375 22.097656-57.203125-35.242187-32.183594-92.132812-65.972656-175.65625-65.972656-83.523437 0-140.414062 33.789062-175.65625 65.972656-22.191406 20.265625-7.957031 57.203125 22.097656 57.203125zm0 0" fill="#dd9f80"/><path d="m76.730469 432.007812c26.992187 11.238282 72.53125 33.855469 116.324219 72.492188-.601563 0 61.4375 0 60.835937 0 43.792969-38.636719 89.335937-61.253906 116.324219-72.492188 12.011718-5.003906 13.914062-21.269531 3.316406-28.824218-70.824219-50.46875-229.292969-50.46875-300.117188 0-10.597656 7.554687-8.695312 23.820312 3.316407 28.824218zm0 0" fill="#ffb864"/><path d="m223.472656 452.109375c-89.855468 0-163.371094-73.515625-163.371094-163.371094v-84.78125c0-89.855469 73.515626-163.371093 163.371094-163.371093 89.851563 0 163.371094 73.515624 163.371094 163.371093v84.78125c0 89.855469-73.515625 163.371094-163.371094 163.371094zm0 0" fill="#f9dcc5"/><path d="m160.882812 387.789062c-15.90625-19.636718-17.988281-47.199218-4.929687-68.835937 14.519531-24.046875 3.496094-109.988281 3.496094-109.988281l28.851562-164.539063c-73.097656 16.203125-128.199219 81.746094-128.199219 159.53125v84.78125c0 89.855469 73.515626 163.371094 163.371094 163.371094 12.800782 0 25.285156-1.496094 37.257813-4.3125-49.433594-10.300781-80.839844-36.546875-99.847657-60.007813zm0 0" fill="#efcbb4"/><path d="m429.035156 178.441406c0 26.425782-21.421875 47.851563-47.851562 47.851563-26.425782 0-47.847656-21.425781-47.847656-47.851563 0-26.429687 21.421874-47.851562 47.847656-47.851562 26.429687 0 47.851562 21.421875 47.851562 47.851562zm0 0" fill="#f46262"/><path d="m403.132812 74c6.425782-13.324219-.058593-29.3125-13.925781-34.46875-34.554687-12.859375-97.519531-32.03125-165.734375-32.03125s-131.179687 19.171875-165.734375 32.03125c-13.867187 5.15625-20.347656 21.144531-13.925781 34.46875 21.96875 45.574219 20.136719 94.800781 20.136719 94.800781l159.523437 35.679688 159.523438-35.679688s-1.832032-49.226562 20.136718-94.800781zm0 0" fill="#78787f"/><path d="m123.757812 117.03125c-28.535156-11.242188-53.410156-17.722656-71.226562-21.398438 12.714844 38.246094 11.417969 73.167969 11.417969 73.167969l95.921875 21.453125c.230468-1.054687.464844-2.109375.710937-3.136718 6.976563-29.210938-8.878906-59.078126-36.824219-70.085938zm0 0" fill="#6b6b70"/><path d="m223.472656 349.835938c-15.519531 0-28.101562-12.582032-28.101562-28.101563v-20.429687c0-4.238282 3.4375-7.671876 7.671875-7.671876h40.859375c4.238281 0 7.671875 3.433594 7.671875 7.671876v20.429687c0 15.519531-12.582031 28.101563-28.101563 28.101563zm0 0" fill="#57565c"/><path d="m159.449219 321.734375c0-13.183594-13.417969-23.871094-29.972657-23.871094-16.554687 0-29.972656 10.6875-29.972656 23.871094s13.417969 23.867187 29.972656 23.867187c16.554688 0 29.972657-10.683593 29.972657-23.867187zm0 0" fill="#ffa6bb"/><path d="m347.441406 321.734375c0-13.183594-13.417968-23.871094-29.972656-23.871094s-29.972656 10.6875-29.972656 23.871094 13.417968 23.867187 29.972656 23.867187 29.972656-10.683593 29.972656-23.867187zm0 0" fill="#ffa6bb"/><path d="m142.816406 308.632812c-4.140625 0-7.5-3.359374-7.5-7.5v-12.453124c0-4.140626 3.359375-7.5 7.5-7.5 4.144532 0 7.5 3.359374 7.5 7.5v12.453124c0 4.140626-3.355468 7.5-7.5 7.5zm0 0" fill="#57565c"/><path d="m133.277344 322.550781c-21.449219 0-38.839844-17.390625-38.839844-38.839843v-72.9375h77.679688v72.9375c0 21.449218-17.386719 38.839843-38.839844 38.839843zm0 0" fill="#78787f"/><path d="m386.84375 245.761719v-41.804688c0-12.0625-1.335938-23.824219-3.847656-35.15625-105.792969 15.378907-213.253906 15.378907-319.046875 0-2.507813 11.332031-3.847657 23.09375-3.847657 35.15625v41.804688c108.398438 15.015625 218.347657 15.015625 326.742188 0zm0 0" fill="#ff737d"/><path d="m191.847656 98.644531c19.082032 14.386719 45.429688 13.9375 63.832032-1.308593 29.113281-24.121094 133.527343-57.808594 133.527343-57.808594-34.554687-12.855469-97.519531-32.027344-165.734375-32.027344s-131.179687 19.171875-165.734375 32.03125c0 0 77.269531 16.25 134.109375 59.113281zm0 0" fill="#898890"/><path d="m160.582031 187.121094c.675781-2.832032 1.136719-5.667969 1.394531-8.492188-32.765624-1.820312-65.476562-5.09375-98.027343-9.824218-2.507813 11.335937-3.847657 23.097656-3.847657 35.15625v41.808593c32.101563 4.445313 64.335938 7.570313 96.628907 9.382813-3.09375-26.972656-.460938-49.980469 3.851562-68.03125zm0 0" fill="#f46262"/><path d="m304.128906 308.632812c4.144532 0 7.5-3.359374 7.5-7.5v-12.453124c0-4.140626-3.355468-7.5-7.5-7.5-4.140625 0-7.5 3.359374-7.5 7.5v12.453124c0 4.140626 3.359375 7.5 7.5 7.5zm0 0"/><path d="m223.472656 357.335938c19.628906 0 35.601563-15.972657 35.601563-35.601563v-20.429687c0-8.367188-6.804688-15.171876-15.171875-15.171876h-40.859375c-8.363281 0-15.171875 6.808594-15.171875 15.171876v20.429687c0 19.628906 15.972656 35.601563 35.601562 35.601563zm-20.601562-56.03125c0-.09375 41.203125-.09375 41.203125 0v20.429687c0 11.359375-9.242188 20.601563-20.601563 20.601563s-20.601562-9.242188-20.601562-20.601563zm0 0"/><path d="m435.234375 166.53125c-4.46875-20.351562-20.144531-36.691406-40.597656-41.785156 2.808593-14.652344 7.480469-31.367188 15.253906-47.488282 3.96875-8.230468 4.28125-17.824218.863281-26.316406-3.402344-8.449218-10.214844-15.121094-18.714844-18.355468-.042968-.015626-.085937-.035157-.128906-.050782-.027344-.011718-.058594-.023437-.085937-.035156-32.621094-12.136719-97.871094-32.5-168.351563-32.5-70.480468 0-135.730468 20.363281-168.351562 32.5-.050782.019531-.105469.046875-.15625.066406-.027344.007813-.058594.019532-.085938.03125-8.484375 3.238282-15.289062 9.90625-18.683594 18.34375-3.421874 8.492188-3.105468 18.085938.863282 26.316406 19.617187 40.707032 19.503906 85.183594 19.410156 90.691407-4.933594 22.304687-3.867188 70.804687-3.867188 70.804687-29.335937 3.699219-52.101562 28.789063-52.101562 59.113282 0 32.863281 25.832031 60.640624 66.433594 59.199218 1.3125 2.972656 2.710937 5.921875 4.199218 8.84375 3.84375 7.53125 8.277344 14.785156 13.214844 21.691406-5.488281 2.972657-10.578125 6.1875-15.285156 9.476563-15.273438 10.65625-8.972656 27.207031-7.988281 29.4375-6.316407 4.789063-12.457031 9.894531-18.3125 15.242187-12.628907 11.53125-16.636719 28.585938-10.460938 44.507813 6.160157 15.875 20.570313 25.734375 37.613281 25.734375h307.117188c17.042969 0 31.457031-9.859375 37.613281-25.734375 2.289063-5.898437 3.175781-11.949219 2.746094-17.816406h15.054687c20.664063 0 37.476563-16.8125 37.476563-37.476563v-201.832031c0-25.566406-13.183594-49.152344-34.6875-62.609375zm-13.699219 11.910156c0 17.523438-11.226562 32.667969-27.191406 38.152344 0 0-1.304688-36.832031-3.863281-48.644531-.046875-2.554688-.089844-13.386719 1.796875-28.3125 17.058594 4.847656 29.257812 20.527343 29.257812 38.804687zm-319.597656 79.898438c20.859375 2.125 41.761719 3.699218 62.679688 4.730468v20.640626c0 17.28125-14.058594 31.339843-31.339844 31.339843s-31.339844-14.058593-31.339844-31.339843zm-34.335938-19.128906s-1.589843-47.171876 2.324219-61.984376c101.933594 14.15625 205.164063 14.15625 307.097657 0 1.539062 8.820313 2.320312 61.984376 2.320312 61.984376-103.464844 13.753906-208.277344 13.753906-311.742188 0zm326.742188 14.695312c21.035156 3.578125 37.101562 21.921875 37.101562 43.960938 0 24.59375-20.007812 44.601562-44.601562 44.601562-.382812 0-.761719-.019531-1.144531-.027344 5.6875-17.117187 8.644531-35.191406 8.644531-53.699218zm-343.773438-183.160156c-2.171874-4.503906-5.597656-17.835938 7.910157-23.359375 13.054687 3.066406 79.417969 19.96875 128.855469 57.246093 10.640624 8.023438 23.179687 12.015626 35.679687 12.015626 13.308594 0 26.578125-4.527344 37.449219-13.539063 6.144531-5.089844 20.355468-14.035156 53.152344-27.746094 3.820312-1.597656 5.625-5.988281 4.027343-9.8125-1.597656-3.820312-5.992187-5.625-9.816406-4.027343-27.699219 11.582031-46.855469 21.6875-56.933594 30.039062-15.703125 13.011719-38.128906 13.460938-54.53125 1.09375-38.304687-28.886719-84.957031-45.8125-112.800781-54.097656 34.597656-11.050782 85.71875-23.558594 139.910156-23.558594 55.625 0 108.023438 13.179688 142.632813 24.429688-7.617188 2.65625-16.789063 5.929687-26.597657 9.601562-3.878906 1.453125-5.847656 5.777344-4.394531 9.65625 1.128907 3.011719 5.277344 5.886719 9.65625 4.394531 20.332031-6.933593 37.507813-13.371093 44.007813-15.519531 13.679687 4.835938 9.769531 18.679688 7.601562 23.183594-17.917968 37.167968-20.589844 76.121094-20.894531 91.539062-100.90625 14.0625-203.117187 14.0625-304.023437 0-.304688-15.417968-2.976563-54.371094-20.890626-91.539062zm-35.070312 227.121094c0-22.039063 16.070312-40.382813 37.101562-43.960938v34.832031c0 18.507813 2.914063 36.484375 8.671876 53.699219-24.269532-2.996094-45.773438-19.976562-45.773438-44.570312zm62.265625 111.425781c4.808594-3.425781 10.167969-6.675781 15.972656-9.703125 8.011719 9.359375 17.007813 17.886718 26.816407 25.324218 1.351562 1.03125 6.046874 3.535157 10.507812-1.441406 2.761719-3.082031 1.855469-8.003906-1.441406-10.507812-18.828125-14.28125-34.429688-32.910156-45.125-53.871094-11.210938-21.972656-16.894532-45.644531-16.894532-70.355469v-34.402343c6.441407.84375 12.886719 1.636718 19.335938 2.375v27c0 25.550781 20.789062 46.339843 46.339844 46.339843 25.554687 0 46.339844-20.789062 46.339844-46.339843v-19.996094c14.613281.535156 29.234374.8125 43.855468.8125 52.066406 0 104.132813-3.402344 155.871094-10.191406v34.402343c0 41.457031-16.261719 80.546875-45.792969 110.078125s-68.621093 45.792969-110.078125 45.792969c-23.519531 0-46.15625-5.171875-67.285156-15.371094-3.734375-1.800781-8.214844-.234375-10.015625 3.496094s-.234375 8.210937 3.492187 10.011719c23.183594 11.191406 48.015626 16.863281 73.808594 16.863281 45.460938 0 88.320313-17.824219 120.683594-50.1875 3.171875-3.171875 6.199219-6.445313 9.089844-9.8125 5.789062 3.023437 11.140625 6.265625 15.933594 9.683594 3.902343 2.78125 3.90625 6.777343 3.726562 8.367187-.378906 3.351563-2.460938 6.125-5.574219 7.421875-29.539062 12.300781-73.476562 34.71875-116.246093 71.917969h-55.222657c-42.769531-37.195312-86.707031-59.613281-116.246093-71.917969-3.113282-1.296875-5.195313-4.070312-5.574219-7.421875-.179688-1.589844-.175781-5.585937 3.722656-8.367187zm-31.480469 71.546875c-3.042968-7.847656-2.910156-19.328125 6.589844-28.003906 5.859375-5.351563 12.027344-10.429688 18.367188-15.183594 24.933593 10.835937 64.378906 30.144531 101.167968 59.347656h-102.496094c-12.800781 0-20.597656-8.347656-23.628906-16.160156zm354.375 0c-3.03125 7.8125-10.828125 16.160156-23.628906 16.160156h-102.496094c36.789063-29.203125 73.496094-49.53125 101.167969-59.347656 6.339844 4.75 12.507813 9.828125 18.367187 15.183594 9.503907 8.675781 9.636719 20.15625 6.589844 28.003906zm54.261719-49.871094c0 12.394531-10.082031 22.476562-22.476563 22.476562h-19.273437c-2.191406-4.269531-11.570313-16.175781-27.300781-26.929687.984375-2.230469 8.878906-16.78125-7.988282-29.441406-4.578124-3.433594-9.769531-6.480469-15.238281-9.449219 6.886719-9.617188 12.714844-19.851562 17.414063-30.554688 37.585937 4.195313 66.386718-26.339843 66.386718-59.207031 0-30.324219-22.769531-55.410156-52.105468-59.113281v-6.546875c22.058594-5.363281 38.632812-23.796875 41.683594-46.269531 11.890624 11 18.894531 26.578125 18.894531 43.207031v201.828125zm0 0"/></svg>