<svg height="512pt" viewBox="-19 0 512 512.00018" width="512pt" xmlns="http://www.w3.org/2000/svg"><path d="m450.25 300.289062c-4.234375-8.855468-5.238281-18.972656-2.453125-28.386718 17.101563-57.777344-36.722656-103.097656-36.722656-103.097656l-165.222657-128.796876s-92.351562-42.023437-160.234374 41.054688c-6.730469 8.234375-14.671876 15.375-23.480469 21.34375-15.800781 10.707031-39.921875 36.652344-33.378907 94.84375 1.519532 13.53125-.285156 27.207031-5.363281 39.835938-12.390625 30.808593-29.875 95.796874 3.273438 166.304687 3.175781 6.75 4.195312 14.304687 2.945312 21.65625-3.378906 19.882813-2.5 60.554687 61.574219 59.78125 2.042969-1.019531 319.546875-9.1875 319.882812-10.207031 82.632813-58.378906 55.023438-141.1875 39.179688-174.332032zm0 0" fill="#dd9f80"/><path d="m156.242188 33.777344c-23.425782 6.222656-48.34375 20.015625-70.625 47.285156-6.730469 8.234375-14.671876 15.375-23.476563 21.34375-15.800781 10.707031-39.921875 36.652344-33.382813 94.84375 1.523438 13.527344-.285156 27.207031-5.363281 39.835938-12.390625 30.808593-29.875 95.796874 3.273438 166.304687 3.175781 6.75 4.195312 14.304687 2.945312 21.65625-3.378906 19.882813-2.5 60.554687 61.574219 59.78125 1.050781-.523437 85.132812-2.925781 166.816406-5.285156-113.21875-254.988281-108.308594-398.421875-101.761718-445.765625zm0 0" fill="#c68d6d"/><path d="m94.148438 504.5h307.113281c30.054687 0 44.289062-36.9375 22.09375-57.203125-35.242188-32.183594-92.128907-65.96875-175.652344-65.96875-83.519531 0-140.410156 33.785156-175.652344 65.96875-22.191406 20.265625-7.957031 57.203125 22.097657 57.203125zm0 0" fill="#ff737d"/><path d="m335.859375 424.304688 2.132813-28.152344c-25.78125-9.054688-55.75-14.824219-90.285157-14.824219-83.523437 0-140.414062 33.785156-175.652343 65.96875-22.195313 20.265625-7.960938 57.203125 22.09375 57.203125h151.703124c62.808594-30.054688 90.007813-80.195312 90.007813-80.195312zm0 0" fill="#f46262"/><path d="m245.851562 349.972656c-61.816406 0-126.960937 16.625-162.21875 27.230469-14.167968 4.257813-19.917968 21.152344-11.363281 33.222656 24.640625 34.769531 80.335938 94.074219 173.582031 94.074219 93.246094 0 148.941407-59.304688 173.582032-94.074219 8.554687-12.070312 2.804687-28.964843-11.363282-33.222656-35.257812-10.605469-100.398437-27.230469-162.21875-27.230469zm0 0" fill="#cff3ff"/><path d="m335.859375 424.304688 4.84375-63.953126c-29.371094-5.84375-62.558594-10.378906-94.851563-10.378906-61.820312 0-126.960937 16.625-162.21875 27.230469-14.167968 4.257813-19.917968 21.152344-11.363281 33.222656 24.640625 34.769531 80.335938 94.074219 173.582031 94.074219 62.808594-30.054688 90.007813-80.195312 90.007813-80.195312zm0 0" fill="#bde5ef"/><path d="m136.441406 297.867188c0 28.777343-23.328125 52.105468-52.101562 52.105468-28.777344 0-52.105469-23.328125-52.105469-52.105468 0-28.773438 23.328125-52.101563 52.105469-52.101563 28.773437 0 52.101562 23.328125 52.101562 52.101563zm0 0" fill="#c6c5ca"/><path d="m463.175781 297.867188c0 28.777343-23.328125 52.105468-52.101562 52.105468-28.777344 0-52.105469-23.328125-52.105469-52.105468 0-28.773438 23.328125-52.101563 52.105469-52.101563 28.773437 0 52.101562 23.328125 52.101562 52.101563zm0 0" fill="#d8d7da"/><path d="m245.851562 451.523438c-89.851562 0-163.367187-73.511719-163.367187-163.367188v-84.78125c0-89.851562 73.515625-163.367188 163.367187-163.367188 89.851563 0 163.367188 73.515626 163.367188 163.367188v84.785156c0 89.851563-73.515625 163.363282-163.367188 163.363282zm0 0" fill="#eaeaea"/><path d="m183.265625 387.789062c-15.910156-19.632812-17.875-47.128906-4.929687-68.832031 26.769531-44.875 32.339843-109.988281 32.339843-109.988281v-165.117188c-73.089843 16.203126-128.191406 82.328126-128.191406 160.109376v84.78125c0 89.851562 73.515625 162.78125 163.367187 162.78125 12.804688 0 23.964844-1.1875 35.9375-4.007813-49.433593-10.300781-79.519531-36.265625-98.523437-59.726563zm0 0" fill="#d8d7da"/><path d="m201.675781 294.941406c0-30.390625-15.464843-55.027344-34.539062-55.027344s-34.539063 24.636719-34.539063 55.027344 15.464844 55.03125 34.539063 55.03125 34.539062-24.640625 34.539062-55.03125zm0 0" fill="#898890"/><path d="m362.902344 294.941406c0-30.390625-15.464844-55.027344-34.542969-55.027344-19.074219 0-34.539063 24.636719-34.539063 55.027344s15.464844 55.03125 34.539063 55.03125c19.078125 0 34.542969-24.640625 34.542969-55.03125zm0 0" fill="#898890"/><path d="m245.851562 40.007812c-209.800781 0-163.367187 205.796876-163.367187 205.796876s49.539063-29.707032 70.285156-70.113282c6.875-13.390625 20.128907-22.25 35.15625-23.148437 23.59375-1.410157 58.84375-7.46875 90.195313-28.6875l76.6875 44.957031s6.929687 63.957031 54.410156 76.992188c0 0 46.433594-205.796876-163.367188-205.796876zm0 0" fill="#dd9f80"/><path d="m453.070312 190.914062c17.039063-27.40625-22.066406-82.527343-87.34375-123.109374-65.28125-40.582032-132.011718-51.261719-149.050781-23.855469-17.039062 27.410156 22.066407 82.527343 87.34375 123.109375 65.28125 40.585937 132.011719 51.265625 149.050781 23.855468zm0 0" fill="#ff929f"/><path d="m365.714844 67.792969c-65.277344-40.582031-132.007813-51.261719-149.046875-23.855469-15.945313 25.652344 17.289062 75.578125 75.132812 115.140625 39.265625 3.285156 70.996094-6.941406 70.996094-6.941406l24.679687-69.585938c-6.867187-5.074219-14.132812-10.015625-21.761718-14.757812zm0 0" fill="#ff737d"/><path d="m404.449219 146.117188c-4.414063 7.097656-12.429688 11.210937-20.753907 10.457031-12.347656-1.117188-32.320312-6.035157-59.082031-22.671875-26.472656-16.457032-39.71875-32.03125-46.261719-42.605469-4.476562-7.234375-4.507812-16.359375-.015624-23.582031l29.683593-47.75c7.691407-12.371094 23.957031-16.167969 36.332031-8.476563l81.308594 50.546875c12.371094 7.691406 16.164063 23.957032 8.472656 36.332032zm0 0" fill="#ffa5b5"/><path d="m385.003906 36.761719-48.925781 27.765625c-4.800781 2.726562-7.890625 7.699218-8.210937 13.210937l-3.25 56.164063 48.925781-27.765625c4.800781-2.726563 7.894531-7.699219 8.210937-13.210938zm0 0" fill="#898890"/><path d="m404.449219 146.117188 29.683593-47.75c6.023438-9.6875 5.003907-21.757813-1.65625-30.230469l-47.359374 26.875c-4.800782 2.726562-7.894532 7.699219-8.214844 13.210937l-2.714844 46.921875c3.550781.726563 6.726562 1.175781 9.507812 1.429688 8.324219.753906 16.339844-3.359375 20.753907-10.457031zm0 0" fill="#75757c"/><path d="m332.71875 62.4375 3.144531-54.363281c-10.546875-2.222657-21.820312 2.207031-27.84375 11.890625l-29.683593 47.75c-4.488282 7.222656-4.457032 16.347656.015624 23.582031 1.421876 2.296875 3.160157 4.828125 5.277344 7.550781l40.875-23.195312c4.800782-2.726563 7.894532-7.703125 8.214844-13.214844zm0 0" fill="#75757c"/><path d="m153.953125 58.46875c-102.332031 50.523438-71.46875 187.335938-71.46875 187.335938s49.539063-29.707032 70.285156-70.117188c1.964844-3.824219 4.464844-7.261719 7.359375-10.265625-6.867187-46.921875-7.492187-82.382813-6.175781-106.953125zm0 0" fill="#c68d6d"/><path d="m328.359375 308.636719c4.144531 0 7.5-3.359375 7.5-7.5v-12.453125c0-4.140625-3.355469-7.5-7.5-7.5-4.140625 0-7.5 3.359375-7.5 7.5v12.453125c0 4.140625 3.359375 7.5 7.5 7.5zm0 0"/><path d="m167.136719 281.183594c-4.144531 0-7.5 3.359375-7.5 7.5v12.453125c0 4.140625 3.355469 7.5 7.5 7.5s7.5-3.359375 7.5-7.5v-12.453125c0-4.140625-3.359375-7.5-7.5-7.5zm0 0"/><path d="m229.386719 295.210938c-3.273438-2.539063-7.984375-1.941407-10.523438 1.332031-2.539062 3.273437-1.945312 7.984375 1.328125 10.523437 8.101563 6.28125 17.808594 9.421875 27.515625 9.421875s19.410157-3.140625 27.511719-9.421875c3.273438-2.539062 3.867188-7.25 1.328125-10.523437-2.535156-3.273438-7.25-3.867188-10.519531-1.332031-10.789063 8.367187-25.855469 8.367187-36.640625 0zm0 0"/><path d="m174.636719 233.382812v-21.804687c0-4.144531-3.355469-7.5-7.5-7.5s-7.5 3.355469-7.5 7.5v21.808594c-19.871094 5.121093-34.539063 30.3125-34.539063 61.554687 0 31.246094 14.667969 56.4375 34.539063 61.558594v21.808594c0 4.144531 3.355469 7.5 7.5 7.5s7.5-3.355469 7.5-7.5v-21.808594c19.871093-5.121094 34.539062-30.3125 34.539062-61.558594 0-31.242187-14.667969-56.433594-34.539062-61.558594zm-7.5 109.089844c-14.65625 0-27.039063-21.765625-27.039063-47.53125 0-25.761718 12.382813-47.527344 27.039063-47.527344s27.039062 21.765626 27.039062 47.527344c0 25.765625-12.382812 47.53125-27.039062 47.53125zm0 0"/><path d="m320.859375 356.5v21.808594c0 4.140625 3.359375 7.5 7.5 7.5 4.144531 0 7.5-3.359375 7.5-7.5v-21.808594c19.875-5.121094 34.542969-30.316406 34.542969-61.558594 0-31.242187-14.667969-56.433594-34.542969-61.558594v-21.804687c0-4.144531-3.355469-7.5-7.5-7.5-4.140625 0-7.5 3.355469-7.5 7.5v21.804687c-19.871094 5.121094-34.539063 30.316407-34.539063 61.558594 0 31.242188 14.667969 56.4375 34.539063 61.558594zm7.5-109.085938c14.660156 0 27.042969 21.765626 27.042969 47.527344 0 25.765625-12.382813 47.53125-27.042969 47.53125-14.65625 0-27.039063-21.765625-27.039063-47.53125 0-25.761718 12.382813-47.527344 27.039063-47.527344zm0 0"/><path d="m466.328125 320.171875c8.898437-25.230469-.476563-49.066406-8.523437-59.230469 2.53125-18.214844-.675782-36.714844-9.542969-55.101562 4.640625-2.882813 8.402343-6.542969 11.164062-10.984375 9.277344-14.921875 5.78125-36.308594-9.851562-60.210938-2.269531-3.46875-6.917969-4.441406-10.382813-2.171875-3.464844 2.265625-4.4375 6.914063-2.171875 10.382813 12.078125 18.46875 15.601563 34.535156 9.667969 44.082031-6.449219 10.371094-24.261719 14.0625-48.878906 10.125-27.1875-4.355469-59.09375-17.277344-89.835938-36.386719-30.746094-19.113281-56.453125-42.007812-72.386718-64.464843-14.421876-20.332032-18.996094-37.9375-12.550782-48.3125 7.714844-12.402344 32.035156-14.980469 63.21875-7.128907l-14.289062 22.984375c-6.019532 9.683594-6.019532 21.75.007812 31.488282 6.769532 10.945312 20.714844 27.644531 48.679688 45.03125 28.207031 17.53125 49.484375 22.605468 62.367187 23.769531.894531.082031 16.382813 2.925781 27.796875-13.964844l29.683594-47.75c4.78125-7.6875 6.277344-16.773437 4.222656-25.585937-2.054687-8.8125-7.421875-16.296876-15.105468-21.074219l-81.304688-50.550781c-7.6875-4.777344-16.773438-6.273438-25.585938-4.21875-8.8125 2.054687-16.296874 7.421874-21.074218 15.105468l-7.117188 11.445313c-18.066406-5.007813-34.675781-7.046875-48.296875-5.886719-7.3125.625-13.777343 2.171875-19.304687 4.578125-15.757813-3.695313-39-6.640625-64.574219-1.488281-32.039063 6.457031-59.8125 23.835937-82.546875 51.664062-6.140625 7.515625-13.503906 14.207032-21.878906 19.882813-11.699219 7.925781-21.257813 19.199219-27.636719 32.601562-9.007813 18.921875-12.03125 42.234375-8.992187 69.289063 1.386718 12.316406-.296876 24.835937-4.867188 36.199218-13.355469 33.207032-30.664062 99.75 3.445312 172.296876 2.527344 5.375 3.335938 11.324218 2.335938 17.207031-5.386719 31.695312 7.34375 54.902343 34.957031 64.027343 6.476563 14.960938 20.496094 24.179688 36.972657 24.179688h307.113281c17.042969 0 31.453125-9.859375 37.609375-25.734375 3.449218-8.890625 3.722656-18.128906 1.09375-26.566406 20.203125-21.230469 31.84375-46.210938 34.613281-74.328125 2.039063-20.703125-.746094-42.621094-8.25-65.199219zm-171.105469-219.28125 24.597656-13.960937-1.9375 33.5c-9.832031-6.992188-17.179687-13.628907-22.660156-19.539063zm72 44.769531c-7.730468-2.304687-16.933594-5.960937-27.546875-11.683594l29.183594-16.558593zm24.542969-95.863281 27.597656 17.15625-29.5625 16.78125zm-17.5 42.695313c-.078125 3.964843-3.179687 6.414062-4.425781 7.121093l-36.941406 20.964844 2.457031-42.40625c.082031-1.429687.917969-5.246094 4.425781-7.121094l36.941406-20.964843zm53.5 1.914062-29.6875 47.75v.003906c-6.085937 8.773438-15.214844 6.796875-16.015625 6.695313l2.328125-40.195313c.082031-1.429687.613281-5.269531 4.429687-7.125l40.792969-23.152344c.195313.578126 3.824219 6.949219-1.847656 16.023438zm-57.4375-57.9375-29.566406 16.78125 1.964843-33.941406zm-55.9375-12.546875c5.675781-8.484375 12.945313-8.660156 13.550781-8.742187l-2.710937 46.824218c-.054688 4.097656-3.183594 6.417969-4.429688 7.121094l-35.015625 19.875c-.371094-.566406-6.582031-8.75-1.078125-17.328125zm102.328125 264.238281v-34.523437c21.933594 2.785156 38.953125 21.554687 38.953125 44.234375 0 24.59375-19.824219 43.097656-47.765625 44.476562 5.796875-17.257812 8.8125-35.503906 8.8125-54.1875zm17.625-76.65625c6.039062 12.246094 9.152344 24.460938 9.300781 36.488282-9.371093-6.140626-20.558593-9.726563-32.570312-9.726563v.265625c-17.441407-4.835938-28.808594-17.738281-36.144531-31.222656 7.03125 1.957031 31.222656 8.316406 59.414062 4.195312zm-78.839844-10.527344c7.4375 19.035157 21.1875 41.066407 46.214844 50.289063v36.890625c0 41.457031-16.261719 80.546875-45.792969 110.078125-29.527343 29.527344-68.621093 45.789063-110.074219 45.789063-23.75 0-46.589843-5.265626-67.882812-15.660157-3.722656-1.816406-8.214844-.269531-10.027344 3.453125-1.816406 3.722656-.273437 8.210938 3.449219 10.027344 23.359375 11.402344 48.410156 17.179688 74.460937 17.179688 45.460938 0 88.316407-17.820313 120.683594-50.183594 8.9375-8.941406 16.761719-18.683594 23.414063-29.058594 5.371093 1.484375 10.84375 2.65625 15.960937 4.601562 10.777344 4.101563 11.867188 15.511719 7.40625 21.707032-24.320312 33.765625-77.816406 90.910156-167.464844 90.910156-89.648437 0-143.238281-57.074219-167.464843-90.910156-7.058594-9.863282-.542969-18.949219 7.40625-21.707032 5.1875-1.800781 10.628906-3.128906 16.027343-4.621093 10.800782 16.859375 24.578126 31.910156 40.492188 44.097656 1.359375 1.039063 6.273438 3.882813 10.511719-1.398437 2.59375-3.226563 1.894531-7.992188-1.394531-10.511719-18.664063-14.292969-34.128907-32.882813-44.714844-53.761719-11.101563-21.882812-16.730469-45.445312-16.730469-70.03125v-38.210938c12.15625-7.875 51.078125-35.027343 69.457031-70.828124 5.757813-11.214844 16.570313-18.351563 28.929688-19.085938 17.871094-1.066406 44.210937-4.902344 70.484375-16.859375 12.296875 10.679687 26.191406 20.910156 41.199219 30.238281 18.386718 11.433594 37.25 20.769532 55.449218 27.566406zm-271.640625 141.484376c-24.375-.257813-44.128906-20.15625-44.128906-44.589844 0-21.386719 15.132813-39.296875 35.25-43.609375v33.898437c0 18.71875 2.984375 36.898438 8.878906 54.300782zm-30.15625 127.558593c-17.929687-10.046875-19.242187-28.75-16.699219-43.714843 1.515626-8.914063.289063-17.941407-3.550781-26.105469-31.691406-67.398438-15.546875-129.371094-3.105469-160.316407 5.496094-13.660156 7.523438-28.691406 5.859376-43.46875-2.628907-23.382812-2.207032-65.878906 30.136718-87.796874 9.578125-6.496094 18.015625-14.167969 25.078125-22.8125 39.644531-48.519532 87.847657-52.175782 119.929688-47.394532-.363281.515625-29.21875 24.875 35.445312 93.632813-22.222656 9.042969-44.078125 12.101562-59.324219 13.011719-17.441406 1.042968-33.296874 11.46875-41.378906 27.210937-17.53125 34.148437-57.699218 60.910156-65.964844 66.167969-30.910156 2.167968-55.398437 27.984375-55.398437 59.433594 0 32.867187 26.183594 62.980468 64.921875 59.355468 1.164062 2.601563 4.167969 8.671875 4.410156 9.136719-4.238281 1.191406-8.453125 2.414063-12.59375 3.660156-9.074218 2.726563-16.042968 9.429688-19.121094 18.386719-3.089843 8.984375-1.703124 18.589844 3.800782 26.355469 3.644531 5.144531 7.933594 10.785156 12.878906 16.675781-4.109375 3.320312-8.144531 6.765625-12.035156 10.320312-8.367188 7.640626-12.945313 17.707032-13.289063 28.261719zm40.441407 26.980469c-12.800782 0-20.597657-8.347656-23.628907-16.160156-3.042969-7.847656-2.910156-19.328125 6.589844-28.003906 3.847656-3.511719 7.835937-6.917969 11.910156-10.183594 18.753907 19.851562 44.601563 40.746094 78.222657 54.347656zm330.738281-16.160156c-3.027344 7.8125-10.828125 16.160156-23.625 16.160156h-76.800781c34.578124-13.988281 60.933593-35.691406 79.808593-56.039062 4.8125 3.777343 9.515625 7.753906 14.03125 11.875 9.5 8.675781 9.632813 20.15625 6.585938 28.003906zm7.441406-35.003906c-1.195313-1.421876-13.285156-12.3125-18.175781-16.175782 4.324218-5.246094 8.121094-10.273437 11.402344-14.898437 5.5-7.765625 6.886718-17.371094 3.796874-26.355469-3.078124-8.957031-10.046874-15.660156-19.121093-18.386719-4.125-1.238281-8.316407-2.457031-12.53125-3.644531 1.628906-3.136719 3.167969-6.320312 4.59375-9.554688 21.152343 1.277344 42.5-7.167968 53.429687-19.53125 8.136719 32.277344 8.039063 72.945313-23.394531 108.546876zm0 0"/></svg>