<svg height="512pt" viewBox="-32 0 512 512.00299" width="512pt" xmlns="http://www.w3.org/2000/svg"><path d="m112.054688 297.179688c0 28.871093-23.402344 52.277343-52.273438 52.277343s-52.277344-23.40625-52.277344-52.277343c0-28.871094 23.40625-52.273438 52.277344-52.273438s52.273438 23.402344 52.273438 52.273438zm0 0" fill="#a4ad9a"/><path d="m439.875 297.179688c0 28.871093-23.402344 52.277343-52.273438 52.277343-28.871093 0-52.273437-23.40625-52.273437-52.277343 0-28.871094 23.402344-52.273438 52.273437-52.273438 28.871094 0 52.273438 23.402344 52.273438 52.273438zm0 0" fill="#bbc6b0"/><path d="m69.621094 504.5h308.136718c30.15625 0 44.4375-37.058594 22.167969-57.394531-35.359375-32.289063-92.433593-66.1875-176.234375-66.1875-83.800781 0-140.878906 33.898437-176.238281 66.1875-22.265625 20.335937-7.988281 57.394531 22.167969 57.394531zm0 0" fill="#898890"/><path d="m338.105469 405.5625c-30.683594-14.492188-68.535157-24.648438-114.414063-24.648438s-83.734375 10.15625-114.414062 24.648438c1.003906 7.777344 14.925781 98.9375 114.414062 98.9375 99.488282 0 113.40625-91.160156 114.414063-98.9375zm0 0" fill="#5e5e68"/><path d="m182.875 498.429688c11.683594 3.820312 25.191406 6.070312 40.816406 6.070312 15.621094 0 29.128906-2.25 40.8125-6.070312v-114.699219c-12.832031-1.820313-26.429687-2.8125-40.8125-2.8125-14.386718 0-27.984375.996093-40.816406 2.8125zm0 0" fill="#cff3ff"/><path d="m224.222656 451.9375h-1.066406c-89.855469 0-163.378906-73.523438-163.378906-163.382812v-86.128907c0-89.855469 73.523437-163.378906 163.378906-163.378906h1.066406c89.859375 0 163.378906 73.523437 163.378906 163.378906v86.128907c0 89.859374-73.519531 163.382812-163.378906 163.382812zm0 0" fill="#cbd8bf"/><path d="m223.691406 39.050781c-90.152344 0-163.914062 73.757813-163.914062 163.910157v85.0625c0 81.925781 60.914062 150.304687 139.6875 162.105468-39.757813-36.59375-53.433594-90.976562-56.636719-138.390625-3.210937-47.484375 13.269531-94.421875 45.785156-129.171875 43.492188-46.484375 60.515625-113.160156 65.945313-140.582031-10.003906-1.925781-20.324219-2.933594-30.867188-2.933594zm0 0" fill="#bbc6b0"/><path d="m278.257812 236.882812c-9.238281 0-16.90625-7-18-15.953124 0 0 .308594-17.550782-16.15625-17.550782-8.808593 0-16.011718 7.207032-16.011718 16.011719v11.308594c0 9.980469-8.167969 18.148437-18.148438 18.148437-9.980468 0-18.144531-8.167968-18.144531-18.148437v-89.375l104.609375-34.097657v111.507813c-.003906 9.980469-8.167969 18.148437-18.148438 18.148437zm0 0" fill="#ff737d"/><path d="m241.59375 91.53125s31.351562 88.53125 120.929688 155.523438c16.085937 12.03125 38.996093.78125 39.519531-19.304688 1.652343-63.203125-12.464844-174.714844-129.050781-179.402344 0-.933594-31.398438 43.183594-31.398438 43.183594zm0 0" fill="#c68d6d"/><path d="m272.992188 48.347656c0-.933594-31.398438 43.183594-31.398438 43.183594s16.585938 46.824219 60.078125 98.132812c36.398437-36.46875 49.207031-77.113281 52.011719-111.476562-18.96875-16.988281-45.027344-28.40625-80.691406-29.839844zm0 0" fill="#b2785b"/><path d="m285.769531 106.429688c-31.636719 39.035156-93.632812 92.640624-214.214843 143.992187-17.304688 7.367187-36.53125-5.472656-36.292969-24.277344.675781-53.464843 11.636719-148.757812 76.792969-193.722656 51.347656-35.433594 108.507812-26.972656 149.558593-12.179687 35.632813 12.84375 48.003907 56.761718 24.15625 86.1875zm0 0" fill="#dd9f80"/><path d="m162.417969 10.65625c-16.902344 3.582031-33.933594 10.425781-50.363281 21.765625-65.15625 44.964844-76.117188 140.257813-76.792969 193.722656-.238281 18.804688 18.992187 31.648438 36.292969 24.277344 23.738281-10.109375 45.199218-20.300781 64.613281-30.457031-23.710938-89.726563 4.507812-167.230469 26.25-209.308594zm0 0" fill="#c68d6d"/><path d="m223.691406 349.824219c-15.523437 0-28.101562-12.582031-28.101562-28.101563v-20.429687c0-4.238281 3.433594-7.671875 7.671875-7.671875h40.859375c4.238281 0 7.671875 3.433594 7.671875 7.671875v20.429687c0 15.519532-12.582031 28.101563-28.101563 28.101563zm0 0" fill="#57565c"/><path d="m159.664062 321.722656c0-13.183594-13.417968-23.871094-29.972656-23.871094-16.554687 0-29.976562 10.6875-29.976562 23.871094s13.421875 23.871094 29.976562 23.871094c16.554688 0 29.972656-10.6875 29.972656-23.871094zm0 0" fill="#ffa6bb"/><path d="m347.667969 321.722656c0-13.183594-13.421875-23.871094-29.976563-23.871094-16.554687 0-29.976562 10.6875-29.976562 23.871094s13.421875 23.871094 29.976562 23.871094c16.554688 0 29.976563-10.6875 29.976563-23.871094zm0 0" fill="#ffa6bb"/><path d="m406.566406 337.753906c-3.753906 1.757813-5.371094 6.222656-3.613281 9.976563 1.277344 2.722656 4.984375 5.980469 9.976563 3.609375 20.871093-9.917969 34.449218-31.058594 34.449218-54.160156 0-26.046876-16.855468-48.644532-40.726562-56.660157 1.757812-3.882812 2.773437-8.136719 2.886718-12.574219.757813-28.902343-1.683593-71.085937-17.613281-107.914062-18.25-42.195312-49.5625-67.839844-93.105469-76.277344-7.097656-14.15625-19.253906-25.015625-34.664062-30.566406-41.191406-14.84375-101.753906-24.625-156.363281 13.0625-7.339844 5.066406-14.300781 10.941406-20.683594 17.460938-2.898437 2.960937-2.847656 7.707031.113281 10.605468 2.957032 2.898438 7.707032 2.847656 10.605469-.113281 5.710937-5.832031 11.933594-11.082031 18.484375-15.605469 49.363281-34.066406 104.878906-24.949218 142.757812-11.296875 14.710938 5.300781 25.546876 16.9375 29.726563 31.925781 4.160156 14.917969.933594 30.402344-8.855469 42.480469-53.003906 65.402344-144.175781 113.21875-211.328125 141.816407-5.882812 2.503906-12.308593 1.894531-17.632812-1.667969-5.304688-3.558594-8.300781-9.25-8.21875-15.613281.960937-76.050782 19.949219-122.050782 35.710937-147.246094 2.195313-3.515625 1.128906-8.140625-2.382812-10.339844-3.515625-2.195312-8.140625-1.128906-10.335938 2.382812-16.777344 26.824219-36.988281 75.488282-37.996094 155.011719-.078124 6.417969 1.660157 12.582031 4.894532 17.875-19.660156 10.066407-32.652344 30.609375-32.652344 53.257813 0 32.960937 27.207031 62.511718 66.601562 59.382812 7.433594 16.929688 17.664063 32.6875 30.460938 46.699219-19.699219 10.277344-38.050781 23.128906-54.667969 38.304687-12.664062 11.5625-16.683593 28.664063-10.488281 44.628907 6.171875 15.917969 20.625 25.804687 37.714844 25.804687h308.136718c17.085938 0 31.539063-9.886718 37.710938-25.804687 6.195312-15.964844 2.175781-33.066407-10.484375-44.628907-16.617187-15.175781-34.972656-28.027343-54.671875-38.304687 28.941406-31.699219 44.785156-72.308594 44.785156-115.238281v-33.957032c.394532-.261718 37.273438 9.929688 37.273438 43.113282.007812 17.300781-10.125 33.226562-25.804688 40.570312zm-114.96875-226.601562c11.742188-14.492188 16.308594-32.714844 12.875-50.714844 33.992188 9.027344 58.753906 31.023438 73.683594 65.550781 14.84375 34.316407 17.105469 74.171875 16.386719 101.566407-.121094 4.730468-2.894531 11.488281-9.785157 15.1875-5.761718 3.089843-12.515624 2.214843-17.746093-1.695313-47.222657-35.316406-77.902344-76.796875-95.992188-107.085937 7.304688-7.355469 14.210938-14.953126 20.578125-22.808594zm-92.300781 80.378906c21.449219-14.144531 42.117187-29.785156 60.644531-46.898438 7.59375 12.457032 17.171875 26.566407 28.964844 41.296876v32.804687c0 5.871094-4.777344 10.648437-10.648438 10.648437-5.242187 0-9.695312-3.847656-10.503906-9.003906-.0625-2.671875-.769531-11.585937-7.105468-18.03125-4.15625-4.230468-9.878907-6.464844-16.546876-6.464844-12.964843 0-23.511718 10.546876-23.511718 23.511719v11.304688c0 5.871093-4.777344 10.648437-10.648438 10.648437s-10.644531-4.777344-10.644531-10.648437zm-184.292969 105.648438c0-18.695313 11.8125-35.480469 29.105469-41.953126 2.589844 1.550782 5.335937 2.730469 8.171875 3.527344v29.269532c0 18.578124 2.96875 36.722656 8.679688 53.898437-24.359376-.207031-45.957032-20.050781-45.957032-44.742187zm310.375 128.65625c-2.886718 8.371093-7.246094 18.257812-13.765625 27.914062-10.335937 15.3125-23.582031 26.59375-39.605469 33.789062v-35.042968c19.128907-5.636719 37.160157-14.613282 53.371094-26.660156zm-68.375 67.027343c-10.199218 2.75-21.308594 4.136719-33.3125 4.136719-11.753906 0-22.648437-1.332031-32.671875-3.96875v-36.722656c10.664063 2.0625 21.589844 3.128906 32.671875 3.128906 11.304688 0 22.449219-1.101562 33.3125-3.25zm-80.984375-5.042969c-16.3125-7.183593-29.777343-18.550781-40.25-34.070312-6.523437-9.65625-10.882812-19.546875-13.769531-27.917969 16.394531 12.183594 34.648438 21.230469 54.019531 26.851563zm-106.398437 9.179688c-12.851563 0-20.683594-8.382812-23.726563-16.230469-3.058593-7.882812-2.925781-19.410156 6.617188-28.125 15.582031-14.230469 32.78125-26.289062 51.230469-35.945312 2.539062 10.890625 8.058593 28.359375 19.59375 45.445312 8.058593 11.933594 20.121093 25.0625 37.71875 34.855469zm331.867187-16.230469c-3.042969 7.847657-10.875 16.230469-23.730469 16.230469h-91.433593c17.601562-9.792969 29.664062-22.921875 37.71875-34.855469 11.535156-17.085937 17.054687-34.554687 19.59375-45.445312 18.449219 9.652343 35.648437 21.714843 51.234375 35.945312 9.542968 8.714844 9.675781 20.242188 6.617187 28.125zm-67.339843-82.285156c-29.632813 29.632813-68.859376 45.949219-110.457032 45.949219s-80.824218-16.316406-110.457031-45.949219-45.953125-68.863281-45.953125-110.460937v-28.546876c2.445312-.445312 57.910156-21.910156 117.015625-58.363281v29.585938c0 14.144531 11.503906 25.648437 25.644531 25.648437 14.144532 0 25.648438-11.503906 25.648438-25.648437v-11.308594c0-4.691406 3.816406-8.507813 8.511718-8.507813 7.808594 0 8.65625 6.980469 8.660157 9.914063-.007813.347656 1.074219 23.585937 25.496093 23.585937 14.144532 0 25.648438-11.503906 25.648438-25.648437v-15.148437c15.082031 16.71875 33.433594 33.136718 54.125 49.472656 11.4375 9.03125 21.121094 6.363281 22.070312 6.277344v28.6875c0 41.597656-16.320312 80.828124-45.953124 110.460937zm0 0"/><path d="m304.351562 281.167969c-4.144531 0-7.5 3.359375-7.5 7.5v12.453125c0 4.140625 3.355469 7.5 7.5 7.5 4.144532 0 7.5-3.359375 7.5-7.5v-12.453125c0-4.140625-3.355468-7.5-7.5-7.5zm0 0"/><path d="m143.03125 281.167969c-4.144531 0-7.503906 3.359375-7.503906 7.5v12.453125c0 4.140625 3.359375 7.5 7.503906 7.5 4.140625 0 7.5-3.359375 7.5-7.5v-12.453125c0-4.140625-3.359375-7.5-7.5-7.5zm0 0"/><path d="m244.121094 286.121094h-40.859375c-8.367188 0-15.171875 6.804687-15.171875 15.171875v20.429687c0 19.632813 15.96875 35.605469 35.601562 35.605469 19.628906 0 35.601563-15.972656 35.601563-35.605469v-20.429687c0-8.367188-6.804688-15.171875-15.171875-15.171875zm.171875 35.601562c0 11.359375-9.242188 20.601563-20.601563 20.601563s-20.601562-9.242188-20.601562-20.601563c0 0 .074218-20.601562.171875-20.601562 0 0 41.03125.078125 41.03125.171875zm0 0"/></svg>