<svg height="511pt" viewBox="-13 0 511 511.99841" width="511pt" xmlns="http://www.w3.org/2000/svg"><path d="m439.5625 217.90625 26.96875-23.78125c11.667969-10.289062 10.828125-28.734375-1.726562-37.925781l-38.792969-28.390625 17.371093-26.839844c8.894532-13.742188 2.039063-32.171875-13.671874-36.761719l-75.535157-22.074219 4.703125-18.378906c2.234375-8.714844-4.835937-17.015625-13.796875-16.199218l-76.851562 7c-17.066407 1.554687-34.238281 1.554687-51.304688 0l-76.847656-7c-8.960937-.816407-16.03125 7.484374-13.800781 16.199218l4.707031 18.378906-75.539063 22.074219c-15.710937 4.589844-22.566406 23.019531-13.671874 36.761719l17.371093 26.839844-38.792969 28.390625c-12.554687 9.191406-13.394531 27.636719-1.722656 37.925781l26.964844 23.78125-31.332031 31.949219c-9.625 9.816406-8.171875 25.910156 3.050781 33.847656l34.355469 24.292969-29.765625 56.746094c-11.28125 21.511718-1.191406 48.046874 21.535156 56.628906l80.980469 30.570312h236.320312l80.980469-30.570312c22.726562-8.578125 32.816406-35.117188 21.535156-56.628906l-29.761718-56.75 34.355468-24.289063c11.222656-7.9375 12.671875-24.035156 3.046875-33.847656zm0 0" fill="#bbd6aa"/><path d="m199.503906 12.96875-59.429687-5.414062c-8.960938-.816407-16.03125 7.484374-13.796875 16.199218l4.703125 18.378906-75.535157 22.074219c-15.710937 4.589844-22.566406 23.019531-13.671874 36.761719l17.371093 26.839844-38.792969 28.390625c-12.554687 9.191406-13.394531 27.636719-1.722656 37.925781l26.964844 23.78125-31.332031 31.949219c-9.625 9.816406-8.171875 25.910156 3.050781 33.847656l34.355469 24.292969-29.765625 56.746094c-11.28125 21.511718-1.191406 48.046874 21.535156 56.628906l80.980469 30.570312h164.386719c-115.046876-221.542968-100.691407-380.960937-89.300782-438.972656zm0 0" fill="#aac499"/><path d="m130.980469 297.191406c0 28.871094-23.402344 52.273438-52.269531 52.273438-28.871094 0-52.273438-23.402344-52.273438-52.273438 0-28.867187 23.402344-52.269531 52.273438-52.269531 28.867187 0 52.269531 23.402344 52.269531 52.269531zm0 0" fill="#c6c5ca"/><path d="m458.785156 297.191406c0 28.871094-23.402344 52.273438-52.269531 52.273438-28.871094 0-52.273437-23.402344-52.273437-52.273438 0-28.867187 23.402343-52.269531 52.273437-52.269531 28.867187 0 52.269531 23.402344 52.269531 52.269531zm0 0" fill="#d8d7da"/><path d="m88.550781 504.5h308.121094c30.152344 0 44.433594-37.058594 22.167969-57.390625-35.359375-32.289063-92.433594-66.183594-176.230469-66.183594-83.792969 0-140.867187 33.894531-176.226563 66.183594-22.265624 20.332031-7.984374 57.390625 22.167969 57.390625zm0 0" fill="#bde5ef"/><g fill="#898890"><path d="m101.386719 420.335938v84.164062h40.566406v-104.921875c-15.03125 6.019531-28.527344 13.125-40.566406 20.757813zm0 0"/><path d="m182.015625 387.296875v117.203125h40.566406v-122.914062c-14.375.960937-27.886719 2.933593-40.566406 5.710937zm0 0"/><path d="m262.640625 381.585938v122.914062h40.566406v-117.1875c-12.679687-2.78125-26.191406-4.765625-40.566406-5.726562zm0 0"/><path d="m343.269531 399.578125v104.921875h40.566407v-84.164062c-12.039063-7.636719-25.535157-14.742188-40.566407-20.757813zm0 0"/></g><path d="m357.847656 390.523438h-230.503906l-19.871094 8.53125c-13.1875 5.660156-17.757812 22.203124-9.144531 33.679687 12.042969 16.046875 34.34375 35.027344 73.96875 40.039063 14.921875 1.890624 29.96875-2.339844 41.710937-11.738282 12.617188-10.105468 28.171876-22.492187 28.585938-22.824218.417969.332031 15.972656 12.71875 28.589844 22.824218 11.738281 9.398438 26.789062 13.628906 41.707031 11.738282 39.625-5.011719 61.929687-23.992188 73.972656-40.039063 8.613281-11.476563 4.039063-28.019531-9.148437-33.679687zm0 0" fill="#ccf8ff"/><path d="m243.144531 451.9375h-1.0625c-89.855469 0-163.371093-73.515625-163.371093-163.367188v-86.125c0-89.855468 73.515624-163.371093 163.371093-163.371093h1.0625c89.851563 0 163.371094 73.515625 163.371094 163.371093v86.125c0 89.851563-73.519531 163.367188-163.371094 163.367188zm0 0" fill="#eaeaea"/><path d="m242.613281 39.074219c-90.148437 0-163.902343 73.757812-163.902343 163.902343v85.0625c0 59.96875 32.648437 112.691407 81.042968 141.265626-8.191406-37.707032-7.605468-75.5-4.257812-106.199219 3.714844-34.097657 20.539062-65.476563 46.835937-87.496094 52.96875-44.351563 68.359375-133.878906 72.539063-193.328125-10.441406-2.105469-21.226563-3.207031-32.257813-3.207031zm0 0" fill="#d8d7da"/><path d="m193.035156 294.222656c0-24.550781-14.03125-44.457031-31.34375-44.457031-17.308594 0-31.34375 19.90625-31.34375 44.457031 0 24.554688 14.035156 44.460938 31.34375 44.460938 17.3125 0 31.34375-19.90625 31.34375-44.460938zm0 0" fill="#898890"/><path d="m354.875 294.222656c0-24.550781-14.03125-44.457031-31.34375-44.457031s-31.34375 19.90625-31.34375 44.457031c0 24.554688 14.03125 44.460938 31.34375 44.460938s31.34375-19.90625 31.34375-44.460938zm0 0" fill="#898890"/><path d="m242.613281 16.894531s-206.054687 2.984375-163.902343 228.027344l18.945312-10.296875c21.089844-11.460938 34.46875-33.230469 35.320312-57.214844 1.382813-38.988281 19.042969-95.378906 109.636719-95.378906s108.253907 56.390625 109.636719 95.378906c.851562 23.984375 14.230469 45.753906 35.316406 57.214844l18.949219 10.296875c42.148437-225.042969-163.902344-228.027344-163.902344-228.027344zm0 0" fill="#bbd6aa"/><path d="m219.242188 390.523438c0 11.726562-9.5 21.230468-21.226563 21.230468-11.722656 0-21.226563-9.503906-21.226563-21.230468 0-11.722657 9.503907-21.226563 21.226563-21.226563 11.726563 0 21.226563 9.503906 21.226563 21.226563zm0 0" fill="#a1b792"/><path d="m285.550781 413.199219c0 8.886719-7.203125 16.089843-16.085937 16.089843-8.886719 0-16.089844-7.203124-16.089844-16.089843 0-8.882813 7.203125-16.085938 16.089844-16.085938 8.882812 0 16.085937 7.203125 16.085937 16.085938zm0 0" fill="#a1b792"/><path d="m78.710938 244.917969 18.945312-10.296875c21.089844-11.457032 34.46875-33.226563 35.320312-57.214844 1.070313-30.246094 11.953126-70.957031 59.070313-87.695312.390625-27.089844 2.796875-49.144532 5.472656-65.636719-58.003906 15.570312-148.023437 64.867187-118.808593 220.84375zm0 0" fill="#aac499"/><path d="m189.984375 329.980469c6.804687-9.648438 10.550781-22.347657 10.550781-35.757813 0-13.40625-3.746094-26.105468-10.550781-35.757812-7.363281-10.445313-17.410156-16.199219-28.292969-16.199219-10.878906 0-20.925781 5.753906-28.292968 16.199219-6.800782 9.652344-10.546876 22.351562-10.546876 35.757812 0 13.410156 3.746094 26.109375 10.546876 35.757813 7.367187 10.449219 17.414062 16.203125 28.292968 16.203125s20.929688-5.753906 28.292969-16.203125zm-28.292969 1.203125c-12.921875 0-23.84375-16.925782-23.84375-36.960938 0-20.03125 10.921875-36.957031 23.84375-36.957031 12.925782 0 23.84375 16.925781 23.84375 36.957031 0 20.035156-10.917968 36.960938-23.84375 36.960938zm0 0"/><path d="m295.238281 258.464844c-6.804687 9.652344-10.550781 22.351562-10.550781 35.757812 0 13.410156 3.746094 26.109375 10.550781 35.757813 7.363281 10.449219 17.414063 16.203125 28.292969 16.203125s20.929688-5.753906 28.292969-16.203125c6.804687-9.648438 10.550781-22.347657 10.550781-35.757813 0-13.40625-3.746094-26.105468-10.550781-35.757812-7.363281-10.445313-17.414063-16.199219-28.292969-16.199219s-20.929688 5.753906-28.292969 16.199219zm52.136719 35.757812c0 20.035156-10.917969 36.960938-23.84375 36.960938s-23.84375-16.925782-23.84375-36.960938c0-20.03125 10.917969-36.957031 23.84375-36.957031s23.84375 16.925781 23.84375 36.957031zm0 0"/><path d="m198.015625 361.796875c-15.839844 0-28.726563 12.886719-28.726563 28.726563 0 15.839843 12.886719 28.730468 28.726563 28.730468s28.726563-12.890625 28.726563-28.730468c0-15.839844-12.886719-28.726563-28.726563-28.726563zm0 42.457031c-7.566406 0-13.726563-6.160156-13.726563-13.730468 0-7.566407 6.160157-13.726563 13.726563-13.726563 7.570313 0 13.726563 6.160156 13.726563 13.726563 0 7.570312-6.15625 13.730468-13.726563 13.730468zm0 0"/><path d="m269.464844 389.613281c-13.007813 0-23.589844 10.582031-23.589844 23.585938 0 13.007812 10.582031 23.589843 23.589844 23.589843 13.007812 0 23.585937-10.582031 23.585937-23.589843 0-13.007813-10.578125-23.585938-23.585937-23.585938zm0 32.175781c-4.734375 0-8.589844-3.855468-8.589844-8.589843s3.855469-8.585938 8.589844-8.585938 8.585937 3.851563 8.585937 8.585938-3.851562 8.589843-8.585937 8.589843zm0 0"/><path d="m476.25 244.605469-25.796875-26.304688 21.039063-18.550781c7.273437-6.414062 11.191406-15.652344 10.75-25.339844-.4375-9.691406-5.179688-18.53125-13.007813-24.261718l-33.078125-24.210938 13.523438-20.894531c5.539062-8.558594 6.675781-18.945313 3.125-28.5-3.554688-9.558594-11.207032-16.675781-20.992188-19.539063l-68.574219-20.035156 2.90625-11.355469c1.652344-6.449219.0625-13.328125-4.257812-18.398437-4.316407-5.070313-10.855469-7.734375-17.484375-7.1289065l-76.851563 7.0000005c-16.570312 1.507812-33.375 1.507812-49.945312 0l-76.851563-7.0000005c-6.628906-.6015625-13.167968 2.0585935-17.484375 7.1289065-4.320312 5.070312-5.910156 11.949218-4.261719 18.398437l2.910157 11.355469-68.574219 20.035156c-9.785156 2.863282-17.4375 9.980469-20.992188 19.539063-3.550781 9.554687-2.414062 19.941406 3.125 28.5l13.523438 20.894531-33.078125 24.210938c-7.828125 5.730468-12.566406 14.570312-13.007813 24.261718-.441406 9.6875 3.476563 18.925782 10.753907 25.339844l21.035156 18.550781-25.796875 26.304688c-6.128906 6.246093-8.40625 14.796875-8.40625 23.550781 0 15.804688 18.515625 25.9375 18.515625 25.9375-.214844 15.519531 4.191406 28.386719 11.402344 38.265625l-15.15625 28.898437c-6.375 12.152344-7.234375 26.484376-2.355469 39.3125 4.878906 12.832032 15.042969 22.96875 27.886719 27.816407l24.816406 9.367187c-15.328125 9.914063-20.960937 32.476563-14.769531 48.441406 6.171875 15.917969 20.625 25.804688 37.710937 25.804688h308.121094c17.089844 0 31.539063-9.886719 37.710937-25.804688 6.195313-15.964843-.757812-38.527343-14.789062-48.460937l24.773438-9.347656c12.839843-4.847657 23.003906-14.988281 27.882812-27.816407 4.878906-12.828124 4.019531-27.160156-2.355469-39.316406l-15.128906-28.84375c7.238281-9.886718 12.941406-23.78125 11.4375-38.363281 0 0 16.699219-7.882813 18.453125-25.894531.851562-8.707032-2.277344-17.300782-8.40625-23.546875zm-405.039062 8.453125v34.976562c0 18.578125 2.96875 36.722656 8.679687 53.898438-27.25-1.996094-45.953125-20.054688-45.953125-44.742188 0-22.132812 16.144531-40.550781 37.273438-44.132812zm-25.121094 161.292968c-8.824219-3.328124-15.808594-10.296874-19.160156-19.113281-3.355469-8.8125-2.765626-18.660156 1.617187-27.015625l12.808594-24.417968c10.238281 8.222656 27.414062 13.5 44.175781 12.757812 5.414062 12.332031 12.316406 24.035156 20.609375 34.902344 0 0-18.761719 5.542968-19.652344 29.832031-2.515625 1.78125-5.003906 3.613281-7.460937 5.488281zm322.941406-10.867187s22.226562 7.28125 11.832031 24.746094c-9.144531 15.371093-31.40625 32.359375-68.910156 37.101562-12.402344 1.570313-25.082031-1.839843-35.023437-9.351562 32.570312-6.640625 66.828124-28.285157 92.101562-52.496094zm-98.890625 66.09375c7.671875 5.273437 16.4375 8.769531 25.566406 10.277344v17.144531h-25.566406zm40.566406 10.945313c9.390625-.296876 18.371094-2.859376 25.0625-4.8125v21.289062h-25.0625zm40.0625-10.269532c10.222657-4.507812 18.65625-9.980468 25.566407-15.710937v42.457031h-25.566407zm-95.628906-11.269531v38.015625h-25.058594v-38.015625c4.148438.300781 8.328125.453125 12.527344.453125 4.203125 0 8.382813-.152344 12.53125-.453125zm-80.625 21.542969v16.472656h-25.0625v-21.28125c6.683594 1.949219 16.742187 4.507812 25.0625 4.808594zm15-.675782c9.128906-1.511718 17.894531-5.015624 25.566406-10.296874v27.445312h-25.566406zm-16.277344-14.515624c-37.503906-4.746094-59.371093-21.972657-68.914062-37.105469-10.394531-16.476563 11.859375-24.753907 11.859375-24.753907 1.742187 1.902344 28.304687 34.421876 92.082031 52.5-9.941406 7.511719-22.625 10.925782-35.027344 9.359376zm-108.414062 15.4375c-3.058594-7.882813-2.925781-19.414063 6.617187-28.128907 6.40625-5.847656 13.144532-11.378906 20.113282-16.503906.25.367187 1.804687 2.441406 2.34375 3.125 0 .070313-.011719.140625-.011719.214844v33.734375c0 4.144531 3.359375 7.5 7.5 7.5 4.144531 0 7.5-3.355469 7.5-7.5v-18.644532c6.914062 5.726563 15.34375 11.195313 25.566406 15.695313v26.734375h-45.902344c-12.851562 0-20.683593-8.382812-23.726562-16.226562zm355.574219-.003907c-3.042969 7.847657-10.875 16.230469-23.726563 16.230469h-5.335937v-57.789062c.523437-.664063 2.058593-2.710938 2.3125-3.085938 6.972656 5.132812 13.722656 10.664062 20.132812 16.519531 9.542969 8.714844 9.675781 20.246094 6.617188 28.125zm37.832031-85.53125c-3.355469 8.816407-10.335938 15.785157-19.160157 19.113281l-32.894531 12.417969c-2.460937-1.878906-4.953125-3.710937-7.472656-5.496093 1.277344-22.878907-19.625-29.796876-19.625-29.796876 8.292969-10.871093 15.199219-22.578124 20.617187-34.914062 15.480469 1.890625 33.894532-4.519531 44.128907-12.722656l12.785156 24.382812c4.382813 8.355469 4.972656 18.199219 1.621094 27.015625zm-44.214844-107.203125v-34.976562c21.125 3.578125 37.269531 22 37.269531 44.132812 0 24.6875-18.746094 41.488282-45.953125 44.742188 5.710938-17.175782 8.683594-35.320313 8.683594-53.898438zm49.054687-10.144531c-7.839843-22.910156-29.222656-39.582031-54.554687-40.421875 0 0-48.769531-17.160156-48.769531-60.328125 0-13.59375-2.734375-26.214844-6.691406-37.542969-1.363282-3.910156-5.640626-5.972656-9.550782-4.609375-3.910156 1.367188-5.972656 5.644531-4.609375 9.554688 3.460938 9.902343 5.859375 21.042969 5.859375 33.128906 0 53.21875 54.261719 71.707031 54.261719 71.707031v38.65625c0 41.59375-16.320313 80.820313-45.949219 110.453125-29.632812 29.628907-68.859375 45.949219-110.453125 45.949219-41.597656 0-80.824219-16.320312-110.453125-45.949219-29.632812-29.632812-45.949218-68.859375-45.949218-110.453125v-38.65625s52.570312-19.664062 54.257812-71.707031c2.367188-72.859375 56.972656-88.144531 102.144531-88.144531 37.847657 0 65.613281 10.226562 82.523438 30.386718 2.664062 3.175782 7.394531 3.589844 10.566406.929688 3.175781-2.664062 3.589844-7.394531.925781-10.566406-19.894531-23.722656-51.527344-35.75-94.015625-35.75-98.75 0-114.796875 64.335937-117.132812 102.609375-2.632813 43.109375-48.769531 60.328125-48.769531 60.328125-25.351563.839844-46.742188 17.53125-54.570313 40.460937 0 0-14.261719-9.417969-2.523437-22.824219l31.332031-31.949218c2.238281-2.628906 2.902343-7.820313-.394531-10.875l-26.964844-23.78125c-3.851563-3.394532-5.925782-8.28125-5.691406-13.410156.234374-5.125 2.742187-9.804688 6.882812-12.835938l38.792969-28.394531c3.207031-2.347657 4.027343-6.789063 1.867187-10.125l-17.371094-26.835938c-2.9375-4.542969-3.542968-10.054687-1.65625-15.125 1.886719-5.070312 5.945313-8.847656 11.136719-10.367187l75.535157-22.070313c3.882812-1.132812 6.164062-5.140625 5.164062-9.058593l-4.707031-18.378907c-.828125-4.03125.65625-7.292969 5.855469-6.871093l76.847656 7c17.476562 1.59375 35.191406 1.59375 52.664062 0l76.851563-7c4.945312-.738282 6.660156 3.164062 5.855469 6.871093l-4.707032 18.378907c-1.003906 3.917968 1.28125 7.925781 5.160156 9.058593l75.535157 22.070313c5.195312 1.519531 9.253906 5.296875 11.140625 10.367187 1.882812 5.070313 1.28125 10.582031-1.660156 15.125l-17.371094 26.835938c-2.160156 3.335937-1.339844 7.78125 1.867187 10.128906l38.792969 28.390625c4.144531 3.03125 6.652344 7.710938 6.886719 12.839844.230469 5.125-1.84375 10.011718-5.691407 13.40625l-26.964843 23.78125c-3.394531 3.335937-3.246094 7.621094-.394531 10.878906l31.332031 31.949219c12.800781 13.042969-2.472657 22.785156-2.472657 22.785156zm0 0"/><path d="m315.769531 288.679688v12.453124c0 4.140626 3.355469 7.5 7.5 7.5 4.140625 0 7.5-3.359374 7.5-7.5v-12.453124c0-4.140626-3.359375-7.5-7.5-7.5-4.144531 0-7.5 3.359374-7.5 7.5zm0 0"/><path d="m161.953125 281.179688c-4.140625 0-7.5 3.359374-7.5 7.5v12.453124c0 4.140626 3.359375 7.5 7.5 7.5 4.144531 0 7.5-3.359374 7.5-7.5v-12.453124c0-4.140626-3.355469-7.5-7.5-7.5zm0 0"/><path d="m271.453125 296.539062c-2.535156-3.273437-7.25-3.871093-10.519531-1.332031-10.789063 8.367188-25.855469 8.367188-36.640625 0-3.273438-2.539062-7.988281-1.945312-10.523438 1.332031-2.539062 3.273438-1.945312 7.984376 1.328125 10.523438 8.101563 6.28125 17.808594 9.421875 27.515625 9.421875s19.414063-3.140625 27.511719-9.421875c3.273438-2.539062 3.867188-7.25 1.328125-10.523438zm0 0"/></svg>