<svg height="512pt" viewBox="-19 0 512 512.00105" width="512pt" xmlns="http://www.w3.org/2000/svg"><path d="m83.15625 504.5h308.113281c30.152344 0 44.433594-37.058594 22.167969-57.390625-35.359375-32.285156-92.429688-66.183594-176.226562-66.183594-83.792969 0-140.867188 33.898438-176.222657 66.183594-22.261719 20.332031-7.984375 57.390625 22.167969 57.390625zm0 0" fill="#def8fc"/><path d="m441.070312 280.457031c-2.734374-28.335937-5.074218-58.746093-6.730468-90.875-9.613282-186.253906-197.222656-182.070312-197.222656-182.070312s-187.605469-4.183594-197.21875 182.070312c-1.660157 32.125-3.996094 62.539063-6.730469 90.875zm0 0" fill="#898890"/><path d="m176.097656 219.089844c-32.9375-96.054688-15.230468-167.027344-.535156-202.613282-55.632812 15.53125-129.71875 57.867188-135.664062 173.105469-1.660157 32.125-3.996094 62.539063-6.730469 90.875h136.742187zm0 0" fill="#7a797f"/><path d="m444.796875 315.875c6.753906 59.195312 14.875 107.21875 21.191406 139.992188 4.863281 25.230468-14.488281 48.632812-40.183593 48.632812h-86.394532l-28.992187-143.179688zm0 0" fill="#898890"/><path d="m163.820312 361.320312-28.996093 143.179688h-86.394531c-25.695313 0-45.046876-23.402344-40.183594-48.632812 6.316406-32.773438 14.4375-80.796876 21.191406-139.992188zm0 0" fill="#7a797f"/><path d="m125.585938 297.199219c0 28.867187-23.402344 52.269531-52.269532 52.269531-28.871094 0-52.273437-23.402344-52.273437-52.269531 0-28.871094 23.402343-52.273438 52.273437-52.273438 28.867188 0 52.269532 23.402344 52.269532 52.273438zm0 0" fill="#a4ad9a"/><path d="m453.382812 297.199219c0 28.867187-23.402343 52.269531-52.269531 52.269531-28.871093 0-52.273437-23.402344-52.273437-52.269531 0-28.871094 23.402344-52.273438 52.273437-52.273438 28.867188 0 52.269531 23.402344 52.269531 52.273438zm0 0" fill="#bbc6b0"/><path d="m237.742188 451.941406h-1.058594c-89.851563 0-163.367188-73.515625-163.367188-163.371094v-86.117187c0-89.851563 73.515625-163.367187 163.367188-163.367187h1.058594c89.851562 0 163.371093 73.515624 163.371093 163.367187v86.117187c0 89.855469-73.519531 163.371094-163.371093 163.371094zm0 0" fill="#cbd8bf"/><path d="m237.214844 39.085938c-90.144532 0-163.898438 73.753906-163.898438 163.898437v85.058594c0 81.917969 60.917969 150.300781 139.683594 162.101562-39.75-36.59375-53.4375-90.980469-56.640625-138.390625-3.210937-47.480468 13.269531-94.414062 45.78125-129.160156 43.488281-46.480469 60.507813-113.152344 65.933594-140.574219-10-1.925781-20.316407-2.933593-30.859375-2.933593zm0 0" fill="#bbc6b0"/><path d="m257.320312 245.800781c21.503907 0 20.023438-23.191406 20.023438-23.191406 0-9.527344 7.792969-17.320313 17.320312-17.320313 9.527344 0 17.324219 7.792969 17.324219 17.320313v15.605469c0 11.011718 9.007813 20.019531 20.019531 20.019531 11.011719 0 20.023438-9.007813 20.023438-20.019531v-60.105469l-114.730469-29.640625v77.308594c0 11.011718 9.007813 20.023437 20.019531 20.023437zm0 0" fill="#ff737d"/><path d="m237.214844 39.085938c-90.144532 0-163.898438 73.753906-163.898438 163.898437v41.941406s55.394532-81.050781 163.898438-81.050781c108.5 0 163.898437 81.050781 163.898437 81.050781v-41.941406c0-90.144531-73.757812-163.898437-163.898437-163.898437zm0 0" fill="#def8fc"/><path d="m163.160156 56.886719c-53.199218 27.164062-89.84375 82.558593-89.84375 146.097656v41.941406s30.683594-44.875 91.09375-67.84375c-10.398437-48.808593-7.785156-89.457031-1.25-120.195312zm0 0" fill="#ceeef2"/><path d="m237.210938 349.835938c-15.519532 0-28.097657-12.582032-28.097657-28.101563v-20.429687c0-4.234376 3.433594-7.667969 7.671875-7.667969h40.859375c4.234375 0 7.667969 3.433593 7.667969 7.667969v20.429687c0 15.519531-12.578125 28.101563-28.101562 28.101563zm0 0" fill="#57565c"/><path d="m173.191406 321.734375c0-13.179687-13.417968-23.867187-29.972656-23.867187s-29.972656 10.6875-29.972656 23.867187c0 13.183594 13.417968 23.871094 29.972656 23.871094s29.972656-10.6875 29.972656-23.871094zm0 0" fill="#ffa6bb"/><path d="m361.179688 321.734375c0-13.179687-13.417969-23.867187-29.972657-23.867187-16.550781 0-29.972656 10.6875-29.972656 23.867187 0 13.183594 13.421875 23.871094 29.972656 23.871094 16.554688 0 29.972657-10.6875 29.972657-23.871094zm0 0" fill="#ffa6bb"/><path d="m473.355469 454.449219c-5.386719-27.941407-13.160157-72.765625-19.832031-128.550781 4.6875-8.523438 7.359374-18.304688 7.359374-28.703126 0-14.753906-5.382812-28.265624-14.277343-38.703124-1.980469-23.054688-3.59375-46.351563-4.777344-69.296876-2.269531-43.972656-14.488281-81.34375-36.316406-111.078124-17.515625-23.859376-41.148438-42.773438-70.242188-56.222657-48.15625-22.261719-94.492187-21.941406-98.152343-21.8867185-3.65625-.0625-49.992188-.3750005-98.152344 21.8867185-29.09375 13.449219-52.726563 32.363281-70.242188 56.226563-21.828125 29.730468-34.046875 67.101562-36.316406 111.074218-1.1875 23.046876-2.808594 46.425782-4.796875 69.542969-8.765625 10.402344-14.0625 23.820313-14.0625 38.460938 0 10.28125 2.609375 19.964843 7.203125 28.425781-6.683594 55.910156-14.472656 100.835938-19.867188 128.824219-2.742187 14.222656.976563 28.785156 10.199219 39.957031 9.234375 11.183594 22.847657 17.59375 37.347657 17.59375h377.375c14.503906 0 28.117187-6.414062 37.351562-17.597656 9.222656-11.171875 12.9375-25.734375 10.199219-39.953125zm-64.742188-166.40625v-34.976563c21.125 3.582032 37.269531 22 37.269531 44.132813 0 24.6875-21.59375 41.558593-45.949218 44.738281 5.710937-17.175781 8.679687-35.316406 8.679687-53.894531zm-327.980469-200.800781c15.921876-21.78125 37.507813-39.113282 64.160157-51.519532 46-21.40625 91.710937-20.722656 92.15625-20.714844.113281.003907.226562.003907.335937 0 .449219-.003906 45.699219-.761718 91.691406 20.5 26.765626 12.375 48.449219 29.695313 64.445313 51.488282 20.0625 27.332031 31.3125 61.976562 33.425781 102.972656.945313 18.269531 2.15625 36.765625 3.605469 55.183594-6.605469-3.738282-13.988281-6.25-21.839844-7.238282v-34.929687c0-44.039063-16.835937-85.960937-47.402343-118.046875-2.859376-2.996094-7.605469-3.113281-10.605469-.257812-3 2.859374-3.113281 7.605468-.257813 10.605468 27.898438 29.285156 43.265625 67.53125 43.265625 107.699219v21.300781c-7.046875-7.464844-16.808593-16.679687-29.304687-25.917968-25.917969-19.15625-69.003906-41.992188-127.09375-41.992188s-101.179688 22.835938-127.097656 41.992188c-12.492188 9.238281-22.257813 18.453124-29.300782 25.917968v-21.300781c0-41.59375 16.316406-80.820313 45.945313-110.449219 29.632812-29.628906 68.855469-45.949218 110.453125-45.949218 33.113281 0 64.816406 10.339843 91.679687 29.902343 3.351563 2.4375 8.039063 1.699219 10.480469-1.652343 2.4375-3.347657 1.699219-8.039063-1.648438-10.476563-29.449218-21.441406-64.203124-32.773437-100.515624-32.773437-45.597657 0-88.589844 17.878906-121.054688 50.339843-32.460938 32.464844-50.339844 75.457031-50.339844 121.058594v34.929687c-7.933594.996094-15.382812 3.550782-22.042968 7.355469 1.453124-18.445312 2.667968-36.980469 3.613281-55.300781 2.109375-40.871094 13.296875-75.433594 33.246093-102.726562zm214.03125 110.546874c-13.6875 0-24.820312 11.132813-24.820312 24.820313 0 .128906.644531 15.691406-12.523438 15.691406-6.902343 0-12.519531-5.617187-12.519531-12.523437v-54.265625c36.035157 1.292969 69.5 11.832031 99.730469 31.402343v35.296876c0 6.90625-5.617188 12.523437-12.519531 12.523437-6.90625 0-12.523438-5.617187-12.523438-12.523437v-15.601563c0-13.6875-11.136719-24.820313-24.824219-24.820313zm-266.121093 99.410157c0-22.132813 16.144531-40.550781 37.273437-44.132813v34.976563c0 18.457031 2.980469 36.617187 8.742188 53.894531-23.074219-1.214844-46.015625-20.054688-46.015625-44.738281zm100.148437 199.800781h-80.261718c-10.011719 0-19.40625-4.425781-25.78125-12.144531-6.363282-7.710938-8.929688-17.757813-7.039063-27.566407 4.960937-25.742187 11.933594-65.691406 18.230469-115.265624 10.539062 9.289062 29.21875 16.449218 46.375 14.535156 3.777344 8.589844 8.25 16.914062 13.449218 24.863281 1.441407 2.203125 6.070313 5.234375 10.382813 2.171875 3.378906-2.398438 4.441406-6.914062 2.171875-10.382812-16.617188-25.410157-25.402344-54.863282-25.402344-85.167969v-40.667969c8.546875-11.285156 59.097656-72.613281 148.984375-75.855469v54.257813c0 15.175781 12.34375 27.523437 27.519531 27.523437 10.226563 0 16.382813-4.277343 19.75-7.863281 7.980469-8.503906 7.882813-20.550781 7.773438-22.996094.089844-5.339844 4.460938-9.65625 9.820312-9.65625 5.414063 0 9.820313 4.40625 9.820313 9.824219v15.601563c0 15.175781 12.347656 27.523437 27.523437 27.523437 15.175782 0 27.523438-12.347656 27.523438-27.523437v-24.636719c18.910156 14.726562 30.394531 28.929687 34.078125 33.800781v40.667969c0 41.59375-16.316406 80.816406-45.949219 110.449219-29.628906 29.628906-68.855468 45.945312-110.449218 45.945312-42.925782 0-83.03125-17.21875-112.929688-48.484375-2.863281-2.992187-7.609375-3.097656-10.605469-.234375-2.992187 2.859375-3.097656 7.609375-.234375 10.601562 8.808594 9.214844 18.433594 17.300782 28.707032 24.21875zm201.550782 0h-28.996094c8.609375-7.398438 16.808594-15.003906 24.441406-22.480469zm-8.164063-40.308594c-13.199219 13.375-28.460937 27.597656-44.640625 40.308594h-80.445312c-16.246094-12.761719-31.566407-27.046875-44.800782-40.46875l3.585938-17.707031c24.714844 13.46875 52.484375 20.617187 81.433594 20.617187 28.792968 0 56.539062-7.136718 81.257812-20.558594zm-173.496094 17.671875c7.675781 7.523438 15.929688 15.1875 24.597657 22.636719h-29.183594zm303.003907 10.488281c-6.371094 7.722657-15.769532 12.148438-25.78125 12.148438h-80.261719l-13.4375-66.363281c9.292969-6.234375 18.058593-13.433594 26.164062-21.539063 15.417969-15.414062 27.535157-33.210937 36.023438-52.53125 2.257812.257813 31.460937-.902344 46.121093-14.394531 6.292969 49.503906 13.253907 89.398437 18.210938 115.117187 1.890625 9.808594-.671875 19.855469-7.039062 27.5625zm0 0"/><path d="m317.871094 308.632812c4.140625 0 7.5-3.359374 7.5-7.5v-12.449218c0-4.144532-3.359375-7.5-7.5-7.5-4.144532 0-7.5 3.355468-7.5 7.5v12.449218c0 4.140626 3.355468 7.5 7.5 7.5zm0 0"/><path d="m156.554688 308.632812c4.144531 0 7.5-3.359374 7.5-7.5v-12.449218c0-4.144532-3.355469-7.5-7.5-7.5-4.140626 0-7.5 3.355468-7.5 7.5v12.449218c0 4.140626 3.359374 7.5 7.5 7.5zm0 0"/><path d="m237.210938 357.335938c19.628906 0 35.601562-15.96875 35.601562-35.601563v-20.429687c0-8.363282-6.804688-15.167969-15.167969-15.167969h-40.859375c-8.367187 0-15.171875 6.804687-15.171875 15.167969v20.429687c0 19.628906 15.96875 35.601563 35.597657 35.601563zm-20.597657-56.03125c0-.09375 41.199219-.09375 41.199219 0v20.429687c0 11.359375-9.242188 20.601563-20.601562 20.601563-11.355469 0-20.597657-9.242188-20.597657-20.601563zm0 0"/></svg>