<svg height="512pt" viewBox="-12 0 511 512" width="512pt" xmlns="http://www.w3.org/2000/svg"><path d="m474.234375 347.324219c18.242187-101.023438-4.054687-57.078125-22.296875-183.765625-18.242188-126.683594-133.941406-124.453125-133.941406-124.453125h-146.914063s-115.695312-2.230469-133.9375 124.453125c-18.246093 126.6875-40.542969 82.742187-22.296875 183.765625 8.808594 48.78125 7.523438 87.089843 3.84375 113.671875-3.183594 23.003906 14.804688 43.480468 38.027344 43.480468h375.644531c23.222657 0 41.210938-20.476562 38.027344-43.480468-3.683594-26.582032-4.964844-64.890625 3.84375-113.671875zm0 0" fill="#c68d6d"/><path d="m476.339844 335.242188c-9.730469-40.121094-19.796875-58.320313-19.796875-58.320313h-424.144531s-10.011719 18.089844-19.714844 57.976563c.648437 3.882812 1.363281 8.015624 2.164062 12.425781 8.808594 48.78125 7.523438 87.089843 3.84375 113.671875-3.183594 23.003906 14.804688 43.480468 38.027344 43.480468h375.644531c23.222657 0 41.210938-20.476562 38.027344-43.480468-3.683594-26.582032-4.964844-64.890625 3.84375-113.671875.773437-4.28125 1.472656-8.296875 2.105469-12.082031zm0 0" fill="#a56c53"/><path d="m132.855469 297.191406c0 28.867188-23.402344 52.265625-52.269531 52.265625-28.863282 0-52.265626-23.398437-52.265626-52.265625 0-28.867187 23.402344-52.265625 52.265626-52.265625 28.867187 0 52.269531 23.398438 52.269531 52.265625zm0 0" fill="#c6c5ca"/><path d="m460.621094 297.191406c0 28.867188-23.398438 52.265625-52.265625 52.265625-28.867188 0-52.269531-23.398437-52.269531-52.265625 0-28.867187 23.402343-52.265625 52.269531-52.265625 28.867187 0 52.265625 23.398438 52.265625 52.265625zm0 0" fill="#d8d7da"/><path d="m90.429688 504.476562h308.082031c30.152343 0 44.429687-37.054687 22.164062-57.386718-35.351562-32.28125-92.417969-66.175782-176.207031-66.175782-83.785156 0-140.851562 33.894532-176.207031 66.175782-22.261719 20.332031-7.984375 57.386718 22.167969 57.386718zm0 0" fill="#ff929f"/><path d="m342.867188 418.855469v-20.175781c-27.566407-10.726563-60.195313-17.765626-98.394532-17.765626-83.789062 0-140.855468 33.890626-176.210937 66.175782-22.261719 20.332031-7.984375 57.386718 22.167969 57.386718h154.042968c76.355469-35.183593 98.394532-85.621093 98.394532-85.621093zm0 0" fill="#ff737d"/><path d="m369.3125 464.757812c12.417969-8.8125 19.730469-23.195312 27.515625-36.941406-35.390625-25.210937-85.3125-46.902344-152.355469-46.902344-67.042968 0-116.972656 21.691407-152.363281 46.90625 7.789063 13.746094 15.101563 28.125 27.519531 36.9375 17.4375 12.371094 42.15625 11.507813 62.972656 18.128907 20.085938 6.386719 39.664063 21.589843 61.867188 21.589843 22.207031 0 41.78125-15.203124 61.871094-21.589843 20.816406-6.621094 45.535156-5.757813 62.972656-18.128907zm0 0" fill="#abebf4"/><path d="m342.867188 418.855469v-20.175781c-27.5625-10.730469-60.195313-17.765626-98.394532-17.765626-67.042968 0-116.972656 21.691407-152.363281 46.90625 7.789063 13.746094 15.101563 28.125 27.519531 36.9375 17.4375 12.371094 42.15625 11.507813 62.972656 18.128907 20.089844 6.386719 39.664063 21.589843 61.871094 21.589843 76.355469-35.183593 98.394532-85.621093 98.394532-85.621093zm0 0" fill="#8ed7e8"/><path d="m244.472656 451.921875c-90.136718 0-163.886718-73.75-163.886718-163.886719v-85.050781c0-90.132813 73.75-163.882813 163.886718-163.882813 90.132813 0 163.882813 73.75 163.882813 163.882813v85.050781c0 90.136719-73.75 163.886719-163.882813 163.886719zm0 0" fill="#eaeaea"/><path d="m244.472656 39.105469c-90.136718 0-163.886718 73.746093-163.886718 163.882812v85.050781c0 59.960938 32.648437 112.679688 81.039062 141.246094-8.191406-37.699218-7.605469-75.484375-4.261719-106.183594 3.714844-34.089843 20.535157-65.46875 46.832031-87.484374 52.960938-44.347657 68.351563-133.863282 72.53125-193.304688-10.4375-2.105469-21.222656-3.207031-32.253906-3.207031zm0 0" fill="#d8d7da"/><path d="m197.363281 265.015625c-6.765625-15.410156-20.652343-15.789063-29.882812-13.933594-5.234375 1.050781-10.625-.292969-14.734375-3.699219-8.347656-6.910156-20.457032-8.203124-30.300782-2.347656-10.082031 5.996094-14.707031 17.660156-12.238281 28.511719 1.003907 4.398437.480469 9.066406-1.984375 12.84375-5.722656 8.78125-5.867187 20.515625.535156 29.605469 5.546876 7.863281 14.609376 11.777344 23.554688 11.105468 4.511719-.339843 8.855469 1.488282 12.191406 4.542969 8.253906 7.542969 20.746094 9.261719 30.953125 3.386719 9.789063-5.632812 14.59375-16.59375 12.871094-27.121094-.84375-5.144531.871094-10.398437 4.390625-14.242187 6.882812-7.519531 9.011719-18.703125 4.644531-28.652344zm0 0" fill="#898890"/><path d="m291.578125 265.015625c6.765625-15.410156 20.652344-15.789063 29.882813-13.933594 5.230468 1.050781 10.625-.292969 14.734374-3.699219 8.34375-6.910156 20.457032-8.203124 30.300782-2.347656 10.082031 5.996094 14.707031 17.660156 12.234375 28.511719-1 4.398437-.476563 9.066406 1.984375 12.84375 5.722656 8.78125 5.867187 20.515625-.535156 29.605469-5.542969 7.863281-14.605469 11.777344-23.554688 11.105468-4.507812-.339843-8.851562 1.488282-12.191406 4.542969-8.25 7.542969-20.746094 9.261719-30.953125 3.386719-9.789063-5.632812-14.59375-16.59375-12.871094-27.121094.84375-5.144531-.871094-10.398437-4.390625-14.242187-6.878906-7.519531-9.007812-18.703125-4.640625-28.652344zm0 0" fill="#898890"/><path d="m244.472656 39.105469s-209.132812-17.503907-163.886718 205.820312c54.042968-21.214843 90.496093-97.519531 90.496093-97.519531h146.773438s36.453125 76.304688 90.5 97.519531c46.410156-220.46875-163.882813-205.820312-163.882813-205.820312zm0 0" fill="#c68d6d"/><path d="m215.351562 148.738281c-15.050781 37.027344-53.21875 37.027344-68.269531 0-3.566406-8.765625-10.496093-15.699219-19.265625-19.265625-37.023437-15.050781-37.023437-53.21875 0-68.269531 8.769532-3.5625 15.699219-10.496094 19.265625-19.265625 15.050781-37.023438 53.21875-37.023438 68.269531 0 3.5625 8.769531 10.496094 15.703125 19.265626 19.265625 37.023437 15.050781 37.023437 53.21875 0 68.269531-8.769532 3.566406-15.703126 10.496094-19.265626 19.265625zm0 0" fill="#ffeb99"/><path d="m345.191406 148.738281c-15.050781 37.027344-53.21875 37.027344-68.269531 0-3.5625-8.765625-10.496094-15.699219-19.261719-19.265625-37.027344-15.050781-37.027344-53.21875 0-68.269531 8.765625-3.5625 15.699219-10.496094 19.261719-19.265625 15.050781-37.023438 53.21875-37.023438 68.269531 0 3.566406 8.769531 10.5 15.703125 19.265625 19.265625 37.027344 15.050781 37.027344 53.21875 0 68.269531-8.765625 3.566406-15.699219 10.496094-19.265625 19.265625zm0 0" fill="#abebf4"/><path d="m278.605469 142.09375c-15.050781 37.023438-53.21875 37.023438-68.269531 0-3.5625-8.769531-10.496094-15.703125-19.265626-19.265625-37.023437-15.050781-37.023437-53.21875 0-68.269531 8.769532-3.566406 15.703126-10.496094 19.265626-19.265625 15.050781-37.027344 53.21875-37.027344 68.269531 0 3.566406 8.769531 10.496093 15.699219 19.265625 19.265625 37.023437 15.050781 37.023437 53.21875 0 68.269531-8.769532 3.5625-15.699219 10.496094-19.265625 19.265625zm0 0" fill="#ff929f"/><path d="m153.859375 366.433594-62.109375-19.109375c15.46875 39.535156 45.902344 71.730469 84.238281 89.511719 2.96875-11.671876 4.085938-23.539063 4.304688-33.757813.355469-16.753906-10.414063-31.71875-26.433594-36.644531zm0 0" fill="#acabb1"/><path d="m335.082031 366.433594 62.105469-19.109375c-15.46875 39.535156-45.898438 71.71875-84.234375 89.5-2.972656-11.671875-4.085937-23.527344-4.304687-33.746094-.355469-16.753906 10.414062-31.71875 26.433593-36.644531zm0 0" fill="#acabb1"/><path d="m325.382812 307.992188c4.15625 0 7.523438-3.371094 7.523438-7.523438v-12.492188c0-4.152343-3.367188-7.523437-7.523438-7.523437s-7.523437 3.371094-7.523437 7.523437v12.492188c0 4.152344 3.367187 7.523438 7.523437 7.523438zm0 0"/><path d="m163.558594 280.457031c-4.15625 0-7.523438 3.367188-7.523438 7.523438v12.488281c0 4.15625 3.367188 7.523438 7.523438 7.523438s7.523437-3.367188 7.523437-7.523438v-12.488281c0-4.15625-3.367187-7.523438-7.523437-7.523438zm0 0"/><path d="m216.871094 306.417969c8.125 6.300781 17.863281 9.453125 27.601562 9.453125 9.734375 0 19.472656-3.152344 27.597656-9.453125 3.285157-2.546875 3.882813-7.273438 1.335938-10.558594-2.546875-3.28125-7.277344-3.878906-10.558594-1.332031-10.820312 8.390625-25.933594 8.390625-36.753906 0-3.285156-2.546875-8.011719-1.953125-10.558594 1.332031-2.542968 3.285156-1.949218 8.011719 1.335938 10.558594zm0 0"/><path d="m195.753906 306.695312c-.453125-2.761718.488282-5.734374 2.515625-7.949218 9.082031-9.917969 11.429688-24.347656 5.984375-36.753906-6.65625-15.167969-20.59375-21.832032-38.253906-18.289063-3.015625.609375-6.097656-.164063-8.457031-2.113281-11.007813-9.117188-26.65625-10.332032-38.945313-3.023438-12.679687 7.542969-18.996094 22.269532-15.726562 36.644532.609375 2.683593.273437 5.191406-.949219 7.070312-7.625 11.699219-7.355469 26.628906.6875 38.042969 6.832031 9.695312 18.414063 15.164062 30.269531 14.277343 2.1875-.164062 4.570313.78125 6.550782 2.589844 6.425781 5.878906 21.347656 13.65625 39.78125 4.355469 12.527343-6.320313 18.808593-21.003906 16.542968-34.851563zm-8.582031-18.109374c-5.117187 5.585937-7.460937 13.265624-6.269531 20.542968 1.261718 7.699219-2.433594 15.488282-9.199219 19.382813-7.152344 4.113281-16.039063 3.140625-22.121094-2.421875-4.660156-4.261719-10.367187-6.0625-16.167969-6.554688-9.027343-.765625-14.648437-2.402344-18.503906-7.875-4.472656-6.347656-4.625-14.65625-.382812-21.160156 3.46875-5.320312 4.539062-11.9375 3.015625-18.625-1.816407-7.992188 1.699219-16.179688 8.746093-20.375 6.835938-4.0625 15.539063-3.386719 21.660157 1.679688 5.871093 4.859374 13.53125 6.785156 21.011719 5.277343 15.902343-3.195312 20.128906 6.421875 21.515624 9.582031 3.050782 6.953126 1.753907 15.019532-3.304687 20.546876zm0 0"/><path d="m293.1875 306.695312c-2.269531 13.84375 4.382812 27.851563 16.542969 34.855469 5.304687 3.050781 23.171875 9.820313 39.78125-4.355469 2.039062-1.742187 4.371093-2.753906 6.554687-2.59375 11.835938.890626 23.433594-4.582031 30.265625-14.273437 8.042969-11.414063 8.3125-26.347656.6875-38.046875-1.222656-1.875-1.5625-4.386719-.949219-7.066406 3.273438-14.378906-3.046874-29.101563-15.726562-36.644532-12.285156-7.308593-27.9375-6.097656-38.945312 3.019532-2.355469 1.949218-5.4375 2.722656-8.457032 2.117187-17.65625-3.550781-31.597656 3.117188-38.253906 18.285157-5.445312 12.40625-3.097656 26.835937 5.984375 36.753906 2.027344 2.214844 2.96875 5.1875 2.515625 7.949218zm5.28125-38.65625c1.191406-2.71875 7.644531-12.039062 21.511719-9.582031 7.519531 1.335938 15.144531-.417969 21.015625-5.277343 6.117187-5.070313 14.820312-5.742188 21.65625-1.679688 7.046875 4.195312 10.5625 12.382812 8.746094 20.375-1.523438 6.6875-.449219 13.304688 3.015624 18.625 4.242188 6.503906 4.089844 14.8125-.382812 21.160156-3.855469 5.472656-10.167969 8.441406-16.839844 7.9375-6.402344-.476562-12.730468 1.828125-17.832031 6.492188-6.082031 5.5625-14.972656 6.535156-22.121094 2.421875-6.765625-3.894531-10.460937-11.683594-9.199219-19.386719 1.191407-7.273438-1.152343-14.953125-6.265624-20.539062-5.0625-5.527344-6.359376-13.59375-3.304688-20.546876zm0 0"/><path d="m480.535156 252.839844c-5.796875-16.402344-13.734375-38.867188-21.148437-90.351563-12.804688-88.90625-71.753907-117.382812-108.578125-126.488281-8.171875-17.652344-22.171875-28.535156-37.972656-29.308594-12.214844-.59375-23.804688 4.953125-32.621094 15.230469-8.734375-13.910156-21.542969-21.921875-35.742188-21.921875-13.460937 0-25.664062 7.203125-34.339844 19.796875-8.726562-9.085937-19.824218-13.847656-31.347656-13.070313-15.261718 1.027344-28.824218 11.558594-36.921875 28.425782-17.488281 3.90625-41.464843 12.363281-62.898437 30.664062-26.742188 22.832032-43.320313 55.359375-49.269532 96.671875-7.414062 51.484375-15.351562 73.949219-21.148437 90.351563-9.253906 26.191406-11.679687 37.269531-1.105469 95.820312 7.214844 39.953125 8.496094 77.402344 3.796875 111.304688-1.808593 13.070312 2.132813 26.289062 10.820313 36.261718 8.734375 10.023438 21.363281 15.773438 34.660156 15.773438h375.644531c13.296875 0 25.925781-5.75 34.660157-15.773438 8.6875-9.972656 12.628906-23.191406 10.820312-36.261718-4.695312-33.902344-3.417969-71.347656 3.796875-111.304688 10.570313-58.550781 8.148437-69.628906-1.105469-95.820312zm-36.042968-88.207032c7.625 52.953126 15.847656 76.226563 21.851562 93.21875 4.867188 13.769532 7.855469 22.234376 7.011719 40.117188-5.363281-15.46875-18.71875-56.644531-63.402344-60.527344-30.800781-12.644531-55.933594-45.082031-69.914063-66.570312 4.875-5.125 9.003907-11.625 12.125-19.296875 2.816407-6.9375 8.191407-12.3125 15.125-15.128907 20.328126-8.261718 32.460938-23.628906 32.460938-41.105468 0-9.910156-3.902344-19.136719-10.984375-26.777344 4.503906 2.972656 8.972656 6.351562 13.304687 10.199219 22.871094 20.316406 37.140626 49.207031 42.421876 85.871093zm-89.597657 233.828126c-10.996093 10.996093-23.316406 20.152343-36.585937 27.328124-1.242188-7.15625-1.964844-14.804687-2.136719-22.871093-.285156-13.332031 8.402344-25.382813 21.121094-29.292969l46.230469-14.226562c-7.355469 14.214843-16.953126 27.386718-28.628907 39.0625zm-249.476562-39.058594 46.230469 14.222656c12.71875 3.914062 21.40625 15.960938 21.121093 29.296875-.167969 8.0625-.894531 15.710937-2.132812 22.867187-13.273438-7.171874-25.59375-16.332031-36.589844-27.328124-11.675781-11.675782-21.273437-24.847657-28.628906-39.058594zm-32.355469-106.308594v34.941406c0 18.566406 2.964844 36.699219 8.671875 53.867188-21.292969 2.074218-45.890625-20.039063-45.890625-44.710938 0-22.105468 16.121094-40.507812 37.21875-44.097656zm83.011719 106.148438-58.640625-18.039063c-6.125-16.84375-9.324219-34.769531-9.324219-53.164063v-38.152343c15.441406-7.023438 54.398437-36.953125 73.734375-71.308594 5.613281 3.351563 11.011719 5.453125 19.394531 5.453125 13.296875 0 25.582031-7.199219 34.289063-19.769531 8.03125 8.429687 18.078125 13.121093 28.945312 13.121093 11.746094 0 22.535156-5.488281 30.855469-15.253906 8.734375 13.898438 21.535156 21.902344 35.730469 21.902344 5.957031 0 11.667968-1.414062 16.9375-4.078125 27.535156 42.207031 53.9375 61.324219 72.835937 69.941406v38.140625c0 18.394532-3.195312 36.324219-9.320312 53.164063l-58.644531 18.042969c-19.109376 5.878906-32.164063 23.972656-31.738282 43.996093.21875 10.371094 1.28125 20.171875 3.132813 29.257813-18.730469 7.808594-38.960938 11.902344-59.789063 11.902344s-41.0625-4.09375-59.792968-11.902344c1.851562-9.082032 2.914062-18.886719 3.132812-29.257813.425781-20.023437-12.625-38.117187-31.738281-43.996093zm259.804687-71.203126v-34.945312c21.097656 3.589844 37.21875 21.992188 37.21875 44.097656 0 24.671875-22.535156 44.550782-45.886718 44.710938 5.703124-17.164063 8.667968-35.296875 8.667968-53.863282zm-171.40625-272.992187c11.132813 0 21.289063 8.628906 27.164063 23.078125 4.296875 10.574219 12.828125 19.105469 23.402343 23.402344 3.847657 1.566406 8.234376-.289063 9.800782-4.136719 1.566406-3.851563-.289063-8.238281-4.136719-9.804687-5.371094-2.179688-9.796875-5.902344-12.835937-10.6875 6.25-10.136719 14.949218-15.632813 24.230468-15.179688 10.707032.527344 20.472656 9.144531 26.125 23.054688 4.300782 10.570312 12.828125 19.101562 23.402344 23.398437 14.449219 5.875 23.078125 16.03125 23.078125 27.167969 0 11.136718-8.628906 21.289062-23.078125 27.164062-10.574219 4.296875-19.101562 12.828125-23.402344 23.402344-5.875 14.449219-16.027344 23.078125-27.164062 23.078125-10.753906 0-20.578125-8.0625-26.53125-21.625.359375-.800781 3.390625-11.636719 16.175781-17.5625 15.175781-7.039063 26.355469-16.789063 30.578125-29.535156 3.460938-10.445313 2.125-21.539063-3.757812-31.242188-2.152344-3.554687-6.777344-4.6875-10.332032-2.53125-3.554687 2.152344-4.6875 6.78125-2.535156 10.332031 3.613281 5.957032 4.421875 12.425782 2.339844 18.710938-2.8125 8.492188-10.609375 15.710938-21.957032 20.324219-10.574218 4.296875-19.105468 12.828125-23.402343 23.402343-5.875 14.453126-16.03125 23.078126-27.164063 23.078126-11.136718 0-21.292968-8.625-27.164062-23.078126-4.300782-10.574218-12.832032-19.101562-23.402344-23.402343-14.453125-5.871094-23.082031-16.027344-23.082031-27.164063 0-11.136718 8.628906-21.289062 23.082031-27.164062 10.570312-4.296875 19.101562-12.828125 23.402344-23.402344 5.871094-14.449219 16.027344-23.078125 27.164062-23.078125zm-90.421875 29.726563c5.574219-13.714844 15.199219-22.324219 25.742188-23.03125 8.527343-.5625 16.632812 3.914062 22.800781 12.429687-2.96875 6.105469-8.003906 10.835937-14.355469 13.417969-20.328125 8.261718-32.460937 23.625-32.460937 41.101562 0 17.476563 12.125 32.867188 32.460937 41.105469 13.015625 5.273437 16.875 19.148437 17.847657 21.03125-6.160157 11.695313-15.601563 18.4375-25.515626 18.148437-10.871093-.332031-20.785156-8.957031-26.519531-23.070312-4.296875-10.574219-12.828125-19.105469-23.402343-23.402344-14.449219-5.875-23.078126-16.027344-23.078126-27.164062 0-11.136719 8.628907-21.292969 23.078126-27.167969 10.574218-4.296875 19.105468-12.828125 23.402343-23.398437zm-131.316406 213.078124c6.003906-16.992187 14.230469-40.265624 21.855469-93.21875 8.167968-56.730468 36.777344-86.21875 64.878906-101.535156-10.820312 8.492188-16.945312 19.832032-16.945312 32.242188 0 17.476562 12.136718 32.84375 32.460937 41.105468 6.933594 2.816407 12.308594 8.191407 15.125 15.125 2.691406 6.613282 6.152344 12.367188 10.199219 17.121094-14.070313 22.054688-39.6875 55.765625-71.320313 68.75-47.40625 3.882813-57.96875 44.914063-63.28125 60.171875-.785156-17.644531 2.195313-26.085937 7.027344-39.761719zm10.671875 228.488282c-5.867188-6.65625-8.371094-15.539063-7.261719-24.3125 7.824219-61.925782-5.210937-123.433594-5.78125-126.828125 1.488281-6.03125 2.980469-11.535157 4.4375-16.53125 8.648438 22.386719 34.316407 42.785156 62.59375 37.925781 7.433594 16.910156 17.652344 32.652344 30.429688 46.65625-19.683594 10.273438-38.144531 22.992188-54.632813 38.289062-24.960937 23.148438-6.878906 52.242188-4.382812 55.414063 0 0-17.085938-1.171875-25.402344-10.613281zm33.320312-5.597656c-3.054687-7.875-2.921874-19.390626 6.609376-28.09375 16.824218-15.367188 35.53125-28.203126 55.660156-38.207032 31.734375 29.074219 72.441406 45.003906 115.476562 45.003906 43.03125 0 83.734375-15.925781 115.46875-45 9.308594 4.625 18.3125 9.859376 26.964844 15.664063-6.386719 11.351563-12.640625 21.910156-21.949219 28.511719-9.777343 6.9375-22.730469 9.226562-36.441406 11.648437-8.101563 1.429688-32.433594 8.117188-46.761719 14.890625-12.710937 6.007813-24.667968 11.792969-37.28125 11.792969-12.617187 0-24.589844-5.746094-37.285156-11.792969-15.664062-7.460937-38.660156-13.460937-46.761719-14.890625-13.710937-2.421875-26.664062-4.707031-36.441406-11.648437-3.113281-2.210938-6.027344-4.957032-8.90625-8.398438-2.664063-3.1875-7.410156-3.613281-10.597656-.945312-3.1875 2.664062-3.613281 7.410156-.945313 10.597656 3.71875 4.445312 7.558594 8.050781 11.742188 11.019531 12.539062 8.894531 27.785156 11.589844 42.53125 14.191407 7.96875 1.40625 25.621094 5.015624 39.144531 11.867187h-106.523437c-12.839844 0-20.664063-8.375-23.703126-16.210937zm225.261719 16.210937c14.253907-6.679687 31.175781-10.460937 39.144531-11.867187 14.746094-2.601563 29.992188-5.296876 42.53125-14.191407 11.488282-8.152343 18.800782-20.050781 25.539063-31.960937 5.640625 4.320312 11.117187 8.890625 16.402344 13.714844 9.53125 8.703124 9.664062 20.222656 6.609375 28.09375-3.039063 7.835937-10.863282 16.210937-23.703125 16.210937zm170.949219-34.925781c4.433594 30.667968-32.804688 34.925781-32.804688 34.925781 2.496094-3.171875 4.566407-6.78125 6.109376-10.769531 6.199218-15.972656 1.914062-32.796875-10.488282-44.648438-15.566406-14.867187-44.28125-32.882812-54.636718-38.285156 12.777343-14.003906 23-29.746094 30.433593-46.660156 27.546875.210937 53.941407-15.535156 62.589844-37.921875 1.484375 5.089843 3.007813 10.710937 4.523437 16.871093-.558593 3.292969-14.535156 65.535157-5.726562 126.488282zm0 0"/></svg>