<svg height="512pt" viewBox="-9 0 512 512.00053" width="512pt" xmlns="http://www.w3.org/2000/svg"><path d="m410.6875 276.96875h-327.828125s-55.175781 110.824219 20.210937 197.316406c-.792968-.792968 288.199219-.792968 287.40625 0 75.386719-86.492187 20.210938-197.316406 20.210938-197.316406zm0 0" fill="#eac16e"/><path d="m361.78125 42.941406h-230.011719s-159.078125 103.335938-117.253906 420.175782c3.117187 23.628906 23.234375 41.308593 47.0625 41.347656 85.828125.136718 284.5625.136718 370.390625 0 23.832031-.039063 43.945312-17.71875 47.066406-41.347656 41.820313-316.839844-117.253906-420.175782-117.253906-420.175782zm0 0" fill="#ff737d"/><path d="m245.175781 42.941406h-113.40625s-159.078125 103.335938-117.253906 420.175782c3.117187 23.628906 23.230469 41.308593 47.0625 41.347656 42.988281.070312 114.300781.101562 185.5625.101562zm0 0" fill="#f46262"/><path d="m92.703125 504.566406h308.140625c30.15625 0 44.4375-37.058594 22.167969-57.394531-35.359375-32.289063-92.4375-66.1875-176.238281-66.1875-83.800782 0-140.878907 33.898437-176.238282 66.1875-22.269531 20.335937-7.988281 57.394531 22.167969 57.394531zm0 0" fill="#def8fc"/><path d="m349.824219 420.933594c0-35.644532-46.136719-64.539063-103.050781-64.539063-56.914063 0-103.050782 28.894531-103.050782 64.539063 0 35.644531 46.136719 64.539062 103.050782 64.539062 56.914062 0 103.050781-28.894531 103.050781-64.539062zm0 0" fill="#ff737d"/><path d="m135.136719 297.246094c0 28.871094-23.40625 52.277344-52.277344 52.277344s-52.277344-23.40625-52.277344-52.277344 23.40625-52.277344 52.277344-52.277344 52.277344 23.40625 52.277344 52.277344zm0 0" fill="#ffaea1"/><path d="m462.964844 297.246094c0 28.871094-23.40625 52.277344-52.277344 52.277344s-52.277344-23.40625-52.277344-52.277344 23.40625-52.277344 52.277344-52.277344 52.277344 23.40625 52.277344 52.277344zm0 0" fill="#ffcfc2"/><path d="m246.773438 452.003906c-90.152344 0-163.914063-73.761718-163.914063-163.914062v-85.066406c0-90.152344 73.761719-163.914063 163.914063-163.914063 90.152343 0 163.914062 73.761719 163.914062 163.914063v85.066406c0 90.152344-73.761719 163.914062-163.914062 163.914062zm0 0" fill="#ffe2d9"/><path d="m246.773438 39.109375c-90.152344 0-163.914063 73.761719-163.914063 163.914063v85.066406c0 81.925781 60.914063 150.308594 139.6875 162.109375-39.753906-36.59375-53.433594-90.980469-56.636719-138.394531-3.210937-47.484376 13.269532-94.421876 45.785156-129.175782 43.492188-46.484375 60.515626-113.160156 65.945313-140.582031-10.003906-1.925781-20.324219-2.9375-30.867187-2.9375zm0 0" fill="#ffcfc2"/><path d="m341.082031 62.777344s7.324219 79.46875-77.929687 117.101562c-13.523438 5.96875-25.503906 14.917969-35.417969 25.878906-20.820313 23.023438-66.699219 58.011719-144.875 39.210938 0 0-24.152344-133.148438 75.464844-190.722656 99.613281-57.574219 182.757812 8.53125 182.757812 8.53125zm0 0" fill="#eac16e"/><path d="m246.773438 349.386719c-15.570313 0-28.195313-12.621094-28.195313-28.191407v-20.5c0-4.25 3.445313-7.695312 7.699219-7.695312h40.992187c4.253907 0 7.699219 3.445312 7.699219 7.695312v20.5c-.003906 15.570313-12.625 28.191407-28.195312 28.191407zm0 0" fill="#57565c"/><path d="m182.539062 321.195312c0-13.226562-13.464843-23.949218-30.074218-23.949218s-30.074219 10.722656-30.074219 23.949218c0 13.226563 13.464844 23.949219 30.074219 23.949219s30.074218-10.722656 30.074218-23.949219zm0 0" fill="#ffa6bb"/><path d="m371.15625 321.195312c0-13.226562-13.464844-23.949218-30.074219-23.949218s-30.074219 10.722656-30.074219 23.949218c0 13.226563 13.464844 23.949219 30.074219 23.949219s30.074219-10.722656 30.074219-23.949219zm0 0" fill="#ffa6bb"/><path d="m82.859375 244.96875s35.453125-185.925781 163.914063-185.925781c128.460937 0 163.914062 185.925781 163.914062 185.925781s52.660156-237.445312-163.914062-237.445312c-216.574219 0-163.914063 237.445312-163.914063 237.445312zm0 0" fill="#ff929f"/><path d="m246.773438 469.867188c-19.164063 0-34.703126 15.535156-34.703126 34.699218h69.402344c.003906-19.164062-15.535156-34.699218-34.699218-34.699218zm0 0" fill="#ffa5b5"/><path d="m150.773438 58.90625c-90.800782 59.78125-67.917969 186.066406-67.917969 186.066406 38.527343 9.265625 69.199219 5.472656 92.902343-3.523437-38.738281-64.351563-34.527343-135.757813-24.984374-182.542969zm0 0" fill="#ddaf5e"/><path d="m82.859375 244.96875s15.171875-79.558594 61.625-134.59375c1.386719-36.269531 9.273437-67.121094 15.0625-85.316406-113.273437 54.910156-76.6875 219.910156-76.6875 219.910156zm0 0" fill="#ff737d"/><path d="m327.699219 280.507812c-4.15625 0-7.527344 3.367188-7.527344 7.523438v12.492188c0 4.15625 3.371094 7.523437 7.527344 7.523437s7.523437-3.367187 7.523437-7.523437v-12.492188c0-4.15625-3.367187-7.523438-7.523437-7.523438zm0 0"/><path d="m165.847656 280.507812c-4.15625 0-7.523437 3.367188-7.523437 7.523438v12.492188c0 4.15625 3.367187 7.523437 7.523437 7.523437s7.523438-3.367187 7.523438-7.523437v-12.492188c0-4.15625-3.367188-7.523438-7.523438-7.523438zm0 0"/><path d="m267.269531 285.476562h-40.992187c-8.394532 0-15.222656 6.828126-15.222656 15.21875v20.5c0 19.695313 16.023437 35.71875 35.71875 35.71875 19.695312 0 35.71875-16.023437 35.71875-35.71875v-20.5c0-8.390624-6.828126-15.21875-15.222657-15.21875zm.171875 35.71875c0 11.394532-9.269531 20.667969-20.667968 20.667969-11.398438 0-20.667969-9.269531-20.667969-20.667969v-20.5c0-.09375 41.335937-.09375 41.335937 0zm0 0"/><path d="m485.78125 262.5625c-8.125-48.789062-22.601562-93.152344-43.035156-131.859375-33.675782-63.800781-72.023438-90.820313-76.484375-93.820313-29.421875-24.492187-69.472657-36.882812-119.488281-36.882812-50.023438 0-90.078126 12.394531-119.503907 36.894531-4.539062 3.058594-42.835937 30.089844-76.46875 93.808594-20.429687 38.707031-34.910156 83.070313-43.03125 131.859375-10.113281 60.722656-10.351562 128.53125-.71875 201.539062 3.597657 27.257813 27.035157 47.84375 54.515625 47.886719 8.597656.015625 361.816406.015625 370.410156 0 27.484376-.042969 50.917969-20.628906 54.519532-47.886719 9.632812-73.007812 9.394531-140.816406-.714844-201.539062zm-112-196.65625c33.921875 42.226562 36.734375 102.136719 34.234375 140.394531-5.453125-16.664062-21.847656-75.003906-76.683594-124.039062-24.070312-21.523438-53.480469-30.742188-84.558593-30.742188-22.179688 0-43.164063 5.304688-62.378907 15.769531-3.648437 1.988282-4.992187 6.558594-3.007812 10.207032 1.988281 3.652344 6.558593 5 10.210937 3.011718 16.976563-9.25 35.542969-13.941406 55.175782-13.941406 27.46875 0 61.832031 11.550782 81.847656 33.261719-7.328125 23.636719-25.222656 54.058594-68.507813 73.167969-14.242187 6.289062-27.015625 15.613281-37.957031 27.714844-9.308594 10.289062-25.203125 24.425781-48.078125 33.324218-24.539063 9.546875-52.171875 11.277344-82.234375 5.203125 5.585938-23.292969 26.617188-98.042969 74.960938-141.121093 3.105468-2.765626 3.378906-7.523438.613281-10.625-2.765625-3.101563-7.519531-3.378907-10.625-.609376-38.148438 33.992188-60.011719 84.785157-71.273438 119.28125-2.484375-38.265624.367188-98.082031 34.246094-140.257812 27.109375-33.746094 69.84375-50.855469 127.007813-50.855469 57.164062 0 99.898437 17.109375 127.007812 50.855469zm50.769531 414.921875c-2.910156 7.507813-10.226562 15.488281-22.117187 16.148437-32.074219.035157-72.109375.054688-114.117188.0625-.542968-2.988281-1.390625-5.867187-2.527344-8.601562 18.710938-4.527344 34.898438-12.339844 47.570313-22.4375 25.5-20.328125 23.972656-46.429688 23.945313-47.109375 1.675781-1.425781 3.332031-2.882813 4.960937-4.375 20.136719 10.007813 38.84375 22.847656 55.671875 38.210937 9.535156 8.710938 9.667969 20.226563 6.613281 28.101563zm-203.894531 16.214844c3.269531-11.335938 13.742188-19.652344 26.117188-19.652344s22.84375 8.316406 26.117187 19.652344c-.40625 0-51.828125 0-52.234375 0zm-151.660156-16.214844c-3.054688-7.875-2.921875-19.394531 6.613281-28.097656 16.828125-15.371094 35.539063-28.199219 55.675781-38.207031 1.632813 1.492187 3.285156 2.949218 4.964844 4.371093-.027344.679688-1.113281 41.703125 46.839844 61.109375 1.03125.417969 7.445312 1.847656 9.96875-3.726562 1.710937-3.789063.054687-8.246094-3.726563-9.96875-19.035156-8.675782-31.9375-21.234375-36.375-34.871094 27.699219 18.273438 60.039063 28.089844 93.816407 28.089844 33.785156 0 66.136718-9.820313 93.839843-28.105469-6.40625 19.96875-30.707031 36.933594-63.730469 43.578125-7.664062-7.804688-18.328124-12.660156-30.109374-12.660156-20.714844 0-37.980469 14.996094-41.539063 34.699218-42.011719-.007812-82.046875-.027343-114.121094-.0625-11.890625-.660156-19.203125-8.640624-22.117187-16.148437zm15.007812-138.863281c-24.320312 1.117187-45.894531-20.042969-45.894531-44.71875 0-22.113282 16.121094-40.515625 37.226563-44.105469v34.949219c0 18.570312 2.964843 36.707031 8.667968 53.875zm256.378906-230.101563c45.3125 53.042969 61.871094 129.445313 62.78125 133.855469v42.371094c0 41.589844-16.316406 80.8125-45.945312 110.441406s-68.851562 45.945312-110.445312 45.945312c-41.589844 0-80.8125-16.316406-110.441407-45.945312-29.628906-29.625-45.945312-68.851562-45.945312-110.441406v-33.804688c12.59375 2.449219 24.367187 3.558594 35.320312 3.558594 55.460938 0 89.953125-28.046875 107.609375-47.039062 13.824219-14.871094 33.707032-24.425782 34.128906-24.613282-.003906 0 57.839844-24.511718 72.9375-74.328125zm-318.410156 350.269531c-9.398437-71.203124-9.230468-137.242187.503906-196.285156 7.765626-47.097656 21.597657-89.875 41.121094-127.144531 5.421875-10.351563 10.992188-19.683594 16.515625-28.085937-6.359375 20.546874-9.871093 43.601562-10.355469 68.609374-.507812 25.949219 2.292969 47.566407 4.167969 58.886719-28.75 4.324219-50.867187 29.191407-50.867187 59.132813 0 32.972656 22.722656 61.882812 66.609375 59.410156 7.433593 16.917969 17.65625 32.664062 30.441406 46.671875-19.691406 10.273437-38.035156 23.117187-54.652344 38.289063-12.667969 11.566406-20.894531 30.628906-4.46875 55.308593-19.710937-.332031-36.425781-15.183593-39.015625-34.792969zm449.601563 0c-2.589844 19.609376-19.304688 34.460938-39.015625 34.792969 15.164062-18.964843 8.199218-43.738281-4.46875-55.308593-16.609375-15.167969-34.957032-28.019532-54.644532-38.292969 28.925782-31.699219 44.769532-72.308594 44.769532-115.234375v-34.949219c21.101562 3.589844 37.226562 21.992187 37.226562 44.105469 0 18.027344-10.730468 34.214844-27.335937 41.238281-3.828125 1.617187-5.679688 6.0625-4 9.863281 2.59375 5.859375 8.90625 4.402344 9.863281 3.996094 22.1875-9.382812 36.519531-31.011719 36.519531-55.097656 0-29.9375-22.113281-54.804688-50.867187-59.132813 1.875-11.316406 4.675781-32.9375 4.171875-58.886719-.488281-25.03125-4.007813-48.113281-10.378907-68.675781 5.351563 8.144531 10.75 17.183594 16.023438 27.175781 19.679688 37.28125 33.640625 80.113282 41.5 127.308594 9.863281 59.253906 10.078125 125.566406.636719 197.097656zm0 0"/></svg>