<svg height="512pt" viewBox="-33 0 511 512" width="512pt" xmlns="http://www.w3.org/2000/svg"><path d="m112.207031 297.867188c0 28.773437-23.328125 52.101562-52.105469 52.101562-28.773437 0-52.101562-23.328125-52.101562-52.101562 0-28.777344 23.328125-52.105469 52.101562-52.105469 28.777344 0 52.105469 23.328125 52.105469 52.105469zm0 0" fill="#ffaea1"/><path d="m438.945312 297.867188c0 28.773437-23.328124 52.101562-52.101562 52.101562-28.777344 0-52.105469-23.328125-52.105469-52.101562 0-28.777344 23.328125-52.105469 52.105469-52.105469 28.773438 0 52.101562 23.328125 52.101562 52.105469zm0 0" fill="#ffcfc2"/><path d="m69.226562 504.5h307.117188c30.054688 0 44.289062-36.9375 22.09375-57.203125-35.242188-32.183594-92.128906-65.972656-175.652344-65.972656-83.523437 0-140.414062 33.789062-175.65625 65.972656-22.191406 20.265625-7.957031 57.203125 22.097656 57.203125zm0 0" fill="#bde5ef"/><path d="m314.519531 424.195312v-27.535156c-26.105469-9.34375-56.546875-15.335937-91.734375-15.335937-83.523437 0-140.414062 33.789062-175.65625 65.972656-22.195312 20.265625-7.960937 57.203125 22.09375 57.203125h153.5625c71.042969-32.984375 91.734375-80.304688 91.734375-80.304688zm0 0" fill="#afd4dd"/><path d="m223.472656 452.109375c-89.855468 0-163.371094-73.515625-163.371094-163.371094v-84.78125c0-89.855469 73.515626-163.371093 163.371094-163.371093 89.851563 0 163.371094 73.515624 163.371094 163.371093v84.78125c0 89.855469-73.515625 163.371094-163.371094 163.371094zm0 0" fill="#ffe2d9"/><path d="m223.472656 40.585938c-89.851562 0-163.371094 73.515624-163.371094 163.371093v84.785157c0 59.773437 32.554688 112.328124 80.789063 140.808593-8.164063-37.582031-7.585937-75.253906-4.25-105.855469 3.703125-33.984374 20.46875-65.261718 46.683594-87.210937 52.796875-44.210937 68.144531-133.441406 72.308593-192.699219-10.40625-2.097656-21.160156-3.199218-32.160156-3.199218zm0 0" fill="#ffcfc2"/><g fill="#57565c"><path d="m304.128906 308.632812c-4.140625 0-7.5-3.359374-7.5-7.5v-12.453124c0-4.140626 3.359375-7.5 7.5-7.5 4.144532 0 7.5 3.359374 7.5 7.5v12.453124c0 4.140626-3.355468 7.5-7.5 7.5zm0 0"/><path d="m142.816406 308.632812c-4.144531 0-7.5-3.359374-7.5-7.5v-12.453124c0-4.140626 3.355469-7.5 7.5-7.5 4.144532 0 7.5 3.359374 7.5 7.5v12.453124c0 4.140626-3.355468 7.5-7.5 7.5zm0 0"/><path d="m223.472656 316.484375c-9.707031 0-19.414062-3.140625-27.511718-9.421875-3.273438-2.539062-3.871094-7.25-1.332032-10.523438 2.539063-3.273437 7.25-3.871093 10.523438-1.332031 10.785156 8.367188 25.855468 8.367188 36.640625 0 3.269531-2.539062 7.984375-1.941406 10.523437 1.332031 2.539063 3.273438 1.941406 7.984376-1.332031 10.523438-8.097656 6.28125-17.804687 9.421875-27.511719 9.421875zm0 0"/></g><path d="m386.84375 175.664062h-326.742188v-102.292968c0-25.417969 17.445313-47.5 42.164063-53.402344 26.625-6.355469 66.460937-12.46875 121.207031-12.46875 54.75 0 94.582032 6.113281 121.207032 12.46875 24.71875 5.902344 42.164062 27.984375 42.164062 53.402344zm0 0" fill="#bde5ef"/><path d="m183.4375 8.65625c-34.695312 2.066406-61.535156 6.625-81.171875 11.3125-24.71875 5.902344-42.164063 27.984375-42.164063 53.398438v102.296874h90.214844c-8.226562-110.640624 16.046875-151.839843 33.121094-167.007812zm0 0" fill="#afd4dd"/><path d="m60.101562 106.601562h326.742188v32.96875h-326.742188zm0 0" fill="#898890"/><path d="m386.84375 73.371094c0-10.875-3.203125-21.132813-8.789062-29.777344h-309.164063c-5.585937 8.644531-8.789063 18.902344-8.789063 29.777344v3.191406h326.742188zm0 0" fill="#898890"/><path d="m385.871094 436.5625c-7.523438-6.023438-15.828125-11.957031-24.945313-17.578125-34.96875 34.207031-83.96875 55.515625-138.140625 55.515625s-103.171875-21.308594-138.140625-55.515625c-9.121093 5.621094-17.421875 11.554687-24.945312 17.578125 2.039062 2.097656 4.117187 4.171875 6.253906 6.203125 41.933594 39.808594 97.628906 61.734375 156.832031 61.734375s114.898438-21.925781 156.832032-61.734375c2.136718-2.03125 4.214843-4.105469 6.253906-6.203125zm0 0" fill="#898890"/><path d="m60.101562 139.570312h88.597657c-.144531-11.984374.152343-22.945312.8125-32.96875h-89.410157zm0 0" fill="#74747c"/><path d="m60.101562 73.371094v3.191406h92.851563c2.230469-13.089844 5.1875-23.953125 8.527344-32.96875h-92.589844c-5.585937 8.644531-8.789063 18.902344-8.789063 29.777344zm0 0" fill="#74747c"/><path d="m112.207031 297.867188c0 28.773437-23.328125 52.101562-52.105469 52.101562-28.773437 0-52.101562-23.328125-52.101562-52.101562 0-28.777344 23.328125-52.105469 52.101562-52.105469 28.777344 0 52.105469 23.328125 52.105469 52.105469zm0 0" fill="#ffaea1"/><path d="m438.945312 297.867188c0 28.773437-23.328124 52.101562-52.101562 52.101562-28.777344 0-52.105469-23.328125-52.105469-52.101562 0-28.777344 23.328125-52.105469 52.105469-52.105469 28.773438 0 52.101562 23.328125 52.101562 52.105469zm0 0" fill="#ffcfc2"/><path d="m69.226562 504.5h307.117188c30.054688 0 44.289062-36.9375 22.09375-57.203125-35.242188-32.183594-92.128906-65.972656-175.652344-65.972656-83.523437 0-140.414062 33.789062-175.65625 65.972656-22.191406 20.265625-7.957031 57.203125 22.097656 57.203125zm0 0" fill="#bde5ef"/><path d="m314.519531 424.195312v-27.535156c-26.105469-9.34375-56.546875-15.335937-91.734375-15.335937-83.523437 0-140.414062 33.789062-175.65625 65.972656-22.195312 20.265625-7.960937 57.203125 22.09375 57.203125h153.5625c71.042969-32.984375 91.734375-80.304688 91.734375-80.304688zm0 0" fill="#afd4dd"/><path d="m223.472656 452.109375c-89.855468 0-163.371094-73.515625-163.371094-163.371094v-84.78125c0-89.855469 73.515626-163.371093 163.371094-163.371093 89.851563 0 163.371094 73.515624 163.371094 163.371093v84.78125c0 89.855469-73.515625 163.371094-163.371094 163.371094zm0 0" fill="#ffe2d9"/><path d="m223.472656 40.585938c-89.851562 0-163.371094 73.515624-163.371094 163.371093v84.785157c0 59.773437 32.554688 112.328124 80.789063 140.808593-8.164063-37.582031-7.585937-75.253906-4.25-105.855469 3.703125-33.984374 20.46875-65.261718 46.683594-87.210937 52.796875-44.210937 68.144531-133.441406 72.308593-192.699219-10.40625-2.097656-21.160156-3.199218-32.160156-3.199218zm0 0" fill="#ffcfc2"/><path d="m129.476562 139.570312s124.414063 78.339844 233.628907 111.753907c15.21875 4.65625 31.167969-3.605469 32.171875-19.488281 1.0625-16.808594-.054688-38.078126-8.433594-56.171876zm0 0" fill="#e2af54"/><path d="m281.601562 115.871094s-59.792968 124.234375-208.839843 145.105468c-16.464844 2.308594-31.039063-11.015624-30.058594-27.613281 1.039063-17.550781 5.210937-39.585937 17.398437-57.699219zm0 0" fill="#eac16e"/><path d="m150.160156 151.355469-90.058594 24.308593c-12.1875 18.113282-16.359374 40.148438-17.398437 57.699219-.980469 16.597657 13.59375 29.921875 30.058594 27.613281 32.066406-4.488281 59.996093-13.761718 84.09375-25.554687-12.558594-24.402344-6.695313-84.066406-6.695313-84.066406zm0 0" fill="#e2af54"/><path d="m386.84375 175.664062h-326.742188v-102.292968c0-25.417969 17.445313-47.5 42.164063-53.402344 26.625-6.355469 66.460937-12.46875 121.207031-12.46875 54.75 0 94.582032 6.113281 121.207032 12.46875 24.71875 5.902344 42.164062 27.984375 42.164062 53.402344zm0 0" fill="#bde5ef"/><path d="m183.4375 8.65625c-34.695312 2.066406-61.535156 6.625-81.171875 11.3125-24.71875 5.902344-42.164063 27.984375-42.164063 53.398438v102.296874h90.214844c-8.226562-110.640624 16.046875-151.839843 33.121094-167.007812zm0 0" fill="#afd4dd"/><path d="m60.101562 106.601562h326.742188v32.96875h-326.742188zm0 0" fill="#898890"/><path d="m386.84375 73.371094c0-10.875-3.203125-21.132813-8.789062-29.777344h-309.164063c-5.585937 8.644531-8.789063 18.902344-8.789063 29.777344v3.191406h326.742188zm0 0" fill="#898890"/><path d="m385.871094 436.5625c-7.523438-6.023438-15.828125-11.957031-24.945313-17.578125-34.96875 34.207031-83.96875 55.515625-138.140625 55.515625s-103.171875-21.308594-138.140625-55.515625c-9.121093 5.621094-17.421875 11.554687-24.945312 17.578125 2.039062 2.097656 4.117187 4.171875 6.253906 6.203125 41.933594 39.808594 97.628906 61.734375 156.832031 61.734375s114.898438-21.925781 156.832032-61.734375c2.136718-2.03125 4.214843-4.105469 6.253906-6.203125zm0 0" fill="#898890"/><path d="m60.101562 139.570312h88.597657c-.144531-11.984374.152343-22.945312.8125-32.96875h-89.410157zm0 0" fill="#74747c"/><path d="m60.101562 73.371094v3.191406h92.851563c2.230469-13.089844 5.1875-23.953125 8.527344-32.96875h-92.589844c-5.585937 8.644531-8.789063 18.902344-8.789063 29.777344zm0 0" fill="#74747c"/><path d="m222.785156 474.5c-54.171875 0-103.171875-21.308594-138.140625-55.515625-9.121093 5.621094-17.421875 11.554687-24.945312 17.578125 2.039062 2.097656 4.117187 4.171875 6.253906 6.203125 41.933594 39.808594 97.628906 61.734375 156.832031 61.734375 25.882813-12.015625 45.066406-25.925781 59.015625-38.765625-18.605469 5.695313-38.429687 8.765625-59.015625 8.765625zm0 0" fill="#74747c"/><path d="m304.128906 308.632812c4.144532 0 7.5-3.359374 7.5-7.5v-12.453124c0-4.140626-3.355468-7.5-7.5-7.5-4.140625 0-7.5 3.359374-7.5 7.5v12.453124c0 4.140626 3.359375 7.5 7.5 7.5zm0 0"/><path d="m142.816406 281.179688c-4.144531 0-7.5 3.359374-7.5 7.5v12.453124c0 4.140626 3.355469 7.5 7.5 7.5 4.144532 0 7.5-3.359374 7.5-7.5v-12.453124c0-4.140626-3.355468-7.5-7.5-7.5zm0 0"/><path d="m241.792969 295.210938c-10.785157 8.363281-25.851563 8.363281-36.640625 0-3.273438-2.539063-7.984375-1.945313-10.523438 1.328124-2.539062 3.273438-1.941406 7.984376 1.332032 10.523438 8.097656 6.28125 17.804687 9.421875 27.511718 9.421875 9.707032 0 19.414063-3.140625 27.515625-9.421875 3.273438-2.539062 3.867188-7.25 1.328125-10.523438-2.539062-3.273437-7.25-3.867187-10.523437-1.328124zm0 0"/><path d="m446.445312 297.867188c0-27.894532-19.261718-51.363282-45.183593-57.832032 3.65625-17.359375 1.777343-46.046875-6.917969-65.917968v-100.746094c0-29-19.707031-53.960938-47.921875-60.695313-35.226563-8.410156-76.59375-12.675781-122.949219-12.675781-46.355468 0-87.722656 4.265625-122.945312 12.675781-28.21875 6.734375-47.925782 31.695313-47.925782 60.695313v100.113281c-20.746093 32.8125-17.238281 66.441406-16.386718 69.773437-21.375 9.375-35.714844 30.78125-35.714844 54.609376 0 32.863281 23.070312 63.125 66.390625 59.214843 7.363281 16.761719 17.472656 32.371094 30.109375 46.269531-19.800781 10.28125-38.242188 23.167969-54.929688 38.40625-12.625 11.53125-16.632812 28.585938-10.457031 44.507813 6.15625 15.875 20.570313 25.734375 37.613281 25.734375h307.117188c17.042969 0 31.457031-9.859375 37.613281-25.734375 6.175781-15.921875 2.167969-32.976563-10.460937-44.507813-16.425782-15-34.554688-27.722656-54.003906-37.921874 12.847656-14.023438 23.117187-29.800782 30.566406-46.765626 39.5 2.867188 66.386718-26.339843 66.386718-59.203124zm-52.101562-43.960938c21.035156 3.578125 37.101562 21.921875 37.101562 43.960938 0 24.59375-18.890624 42.925781-45.746093 44.574218 5.6875-17.117187 8.644531-35.191406 8.644531-53.703125zm-6.550781-22.546875c-.128907 8.738281-8.078125 17.195313-22.492188 12.792969-38.042969-11.621094-81.96875-29.972656-130.707031-54.542969 2.25-2.171875 4.40625-4.324219 6.46875-6.445313h140.792969c6.308593 16.414063 6.128906 34.980469 5.9375 48.195313zm-283.785157-204.09375c34.085938-8.140625 74.28125-12.265625 119.464844-12.265625s85.378906 4.125 119.464844 12.265625c6.863281 1.636719 13.0625 4.703125 18.320312 8.828125h-275.570312c5.257812-4.125 11.457031-7.191406 18.320312-8.828125zm-30.875 23.828125h300.679688c2.902344 5.46875 4.757812 11.550781 5.335938 17.96875h-311.347657c.574219-6.417969 2.429688-12.5 5.332031-17.96875zm-5.53125 32.96875h311.742188v15.039062h-311.742188zm0 63.007812h289.035157c4.140625 0 7.5-3.355468 7.5-7.5 0-4.140624-3.359375-7.5-7.5-7.5h-289.035157v-17.96875h311.742188v54.0625h-311.742188zm-52.101562 150.796876c0-18.15625 11.121094-34.4375 27.597656-41.246094.914063 1.082031 4.390625 5.757812 9.503906 7.84375v24.273437c0 18.507813 2.957032 36.585938 8.644532 53.699219-26.03125.582031-45.746094-19.976562-45.746094-44.570312zm40.71875-49.175782c-4.164062-3.839844-6.359375-9.265625-6.027344-14.886718.832032-14.058594 3.976563-33.863282 14.03125-50.640626h155.363282c-31.472657 29.105469-80.066407 60.890626-147.863282 70.386719-5.652344.789063-11.300781-.980469-15.503906-4.859375zm13.007812 248.308594c-12.800781 0-20.597656-8.347656-23.628906-16.15625-3.042968-7.851562-2.914062-19.332031 6.589844-28.007812 2.300781-2.105469 4.640625-4.15625 7.011719-6.164063.535156.523437 29.980469 32.40625 79.78125 50.328125zm324.15625-44.164062c9.5 8.675781 9.632813 20.15625 6.589844 28.007812-3.03125 7.808594-10.828125 16.15625-23.628906 16.15625h-69.753906c44.273437-15.003906 79.242187-49.804688 79.78125-50.328125 2.371094 2.007813 4.710937 4.058594 7.011718 6.164063zm-31.53125-24.398438c4.304688 2.800781 8.527344 5.746094 12.664063 8.824219-.023437.019531-.042969.042969-.066406.0625-40.53125 38.484375-94.394531 59.675781-151.664063 59.675781-57.273437 0-111.136718-21.191406-151.667968-59.675781-.019532-.019531-.042969-.042969-.0625-.0625 11.683593-8.703125 24.078124-16.3125 37.074218-22.734375 31.664063 29.121094 72.335938 45.082031 115.34375 45.082031 42.789063 0 83.269532-15.792969 114.867188-44.636719 3.410156 1.703125 6.777344 3.492188 10.101562 5.355469-34.292968 30.164063-78.53125 46.671875-125.65625 46.671875-39.230468 0-76.726562-11.507812-108.429687-33.277344-3.414063-2.34375-8.082031-1.476562-10.425781 1.933594-2.347657 3.417969-1.480469 8.085938 1.933593 10.429688 34.214844 23.496093 74.644531 35.914062 116.921875 35.914062 52.421875 0 101.5625-18.980469 139.066406-53.5625zm17.492188-139.699219c0 41.457031-16.265625 80.546875-45.792969 110.078125-29.53125 29.53125-68.625 45.792969-110.078125 45.792969s-80.546875-16.261719-110.078125-45.792969c-29.527343-29.53125-45.792969-68.621094-45.792969-110.078125v-20.035156c.484376.019531 78.847657-1.601563 155.1875-68.265625 23.179688 11.804688 77.058594 37.230469 138.121094 58.054688 3.488282 1.191406 11.703125 2.746093 18.433594.738281zm0 0"/></svg>