<svg height="511pt" viewBox="-33 0 511 511.99955" width="511pt" xmlns="http://www.w3.org/2000/svg"><path d="m386.398438 288.75h-326.722657s-30.347656 134.226562 25.589844 197.15625h274.542969c55.9375-62.929688 26.589844-197.15625 26.589844-197.15625zm0 0" fill="#c68d6d"/><path d="m112.199219 297.875c0 28.773438-23.324219 52.101562-52.097657 52.101562-28.777343 0-52.101562-23.328124-52.101562-52.101562s23.324219-52.101562 52.101562-52.101562c28.773438 0 52.097657 23.328124 52.097657 52.101562zm0 0" fill="#ffaea1"/><path d="m438.925781 297.875c0 28.773438-23.324219 52.101562-52.097656 52.101562-28.777344 0-52.101563-23.328124-52.101563-52.101562s23.324219-52.101562 52.101563-52.101562c28.773437 0 52.097656 23.328124 52.097656 52.101562zm0 0" fill="#ffcfc2"/><path d="m69.222656 504.5h307.105469c30.054687 0 44.285156-36.933594 22.09375-57.203125-35.242187-32.179687-92.128906-65.964844-175.648437-65.964844-83.519532 0-140.40625 33.785157-175.644532 65.964844-22.195312 20.269531-7.960937 57.203125 22.09375 57.203125zm0 0" fill="#bde5ef"/><path d="m314.507812 424.203125v-27.535156c-26.105468-9.347657-56.546874-15.335938-91.734374-15.335938-83.519532 0-140.40625 33.785157-175.648438 65.964844-22.191406 20.269531-7.957031 57.203125 22.097656 57.203125h153.550782c71.042968-32.984375 91.734374-80.296875 91.734374-80.296875zm0 0" fill="#afd4dd"/><path d="m223.464844 452.113281c-89.851563 0-163.363282-73.511719-163.363282-163.363281v-84.78125c0-89.847656 73.511719-163.363281 163.363282-163.363281 89.847656 0 163.363281 73.515625 163.363281 163.363281v84.78125c0 89.851562-73.515625 163.363281-163.363281 163.363281zm0 0" fill="#ffe2d9"/><path d="m223.464844 40.609375c-89.851563 0-163.363282 73.511719-163.363282 163.363281v84.777344c0 59.773438 32.542969 112.324219 80.777344 140.800781-8.164062-37.578125-7.578125-75.246093-4.246094-105.847656 3.703126-33.984375 20.472657-65.257813 46.683594-87.207031 52.792969-44.207032 68.128906-133.4375 72.292969-192.691406-10.402344-2.097657-21.148437-3.195313-32.144531-3.195313zm0 0" fill="#ffcfc2"/><path d="m209.996094 206.230469s-39.25 42.289062-149.894532 39.542969c0 0-7.613281-20.578126-.667968-47.296876l135.929687-38.734374zm0 0" fill="#c68d6d"/><path d="m162.757812 167.589844s26.289063 51.761718 119.039063 52.355468c92.753906.59375 105.03125 68.804688 105.03125 68.804688s30.722656-58.332031-2.972656-129.011719zm0 0" fill="#dd9f80"/><path d="m383.855469 159.742188-324.421875 38.734374-12.125-101.570312c-3.015625-25.238281 11.6875-49.230469 35.53125-58.019531 25.679687-9.46875 64.507812-20.261719 118.867187-26.75 54.359375-6.492188 94.636719-5.140625 121.824219-1.988281 25.246094 2.929687 45.183594 22.789062 48.195312 48.023437zm0 0" fill="#bde5ef"/><path d="m149.523438 20.4375c-28.109376 5.695312-50.132813 12.347656-66.683594 18.449219-23.84375 8.792969-38.546875 32.785156-35.53125 58.019531l12.125 101.570312 86.683594-10.351562c-20.960938-97.171875-6.980469-146.648438 3.40625-167.6875zm0 0" fill="#afd4dd"/><g fill="#898890"><path d="m379.574219 123.914062-324.40625 38.75-3.910157-32.738281 324.40625-38.75zm0 0"/><path d="m371.730469 58.171875c-1.289063-10.796875-5.683594-20.601563-12.257813-28.523437l-306.96875 36.648437c-4.523437 9.25-6.484375 19.8125-5.195312 30.609375l.378906 3.171875 324.417969-38.734375zm0 0"/><path d="m385.855469 436.566406c-7.523438-6.019531-15.828125-11.957031-24.945313-17.578125-34.964844 34.207031-83.964844 55.515625-138.136718 55.515625-54.167969 0-103.167969-21.308594-138.136719-55.515625-9.117188 5.621094-17.417969 11.558594-24.945313 17.578125 2.042969 2.097656 4.121094 4.171875 6.257813 6.199219 41.929687 39.8125 97.625 61.734375 156.824219 61.734375 59.199218 0 114.894531-21.921875 156.824218-61.734375 2.140625-2.027344 4.214844-4.101563 6.257813-6.199219zm0 0"/></g><path d="m222.773438 474.503906c-54.167969 0-103.167969-21.308594-138.132813-55.515625-9.117187 5.621094-17.421875 11.558594-24.945313 17.578125 2.039063 2.097656 4.117188 4.171875 6.253907 6.199219 41.933593 39.8125 97.625 61.734375 156.824219 61.734375 25.882812-12.015625 45.070312-25.925781 59.019531-38.765625-18.605469 5.695313-38.433594 8.769531-59.019531 8.769531zm0 0" fill="#74747c"/><path d="m223.460938 349.84375c-15.519532 0-28.097657-12.582031-28.097657-28.101562v-20.425782c0-4.238281 3.433594-7.671875 7.671875-7.671875h40.855469c4.238281 0 7.671875 3.433594 7.671875 7.671875v20.425782c0 15.519531-12.582031 28.101562-28.101562 28.101562zm0 0" fill="#57565c"/><path d="m159.441406 321.742188c0-13.179688-13.417968-23.867188-29.96875-23.867188-16.554687 0-29.972656 10.6875-29.972656 23.867188 0 13.183593 13.417969 23.867187 29.972656 23.867187 16.550782 0 29.96875-10.683594 29.96875-23.867187zm0 0" fill="#ffa6bb"/><path d="m347.425781 321.742188c0-13.179688-13.417969-23.867188-29.972656-23.867188-16.550781 0-29.96875 10.6875-29.96875 23.867188 0 13.183593 13.417969 23.867187 29.96875 23.867187 16.554687 0 29.972656-10.683594 29.972656-23.867187zm0 0" fill="#ffa6bb"/><path d="m55.15625 162.636719 84.460938-10.082031c-1.730469-11.773438-2.894532-22.683594-3.582032-32.777344l-84.789062 10.125zm0 0" fill="#74747c"/><path d="m47.308594 96.90625.378906 3.171875 87.648438-10.464844c.339843-12.941406 1.527343-24.078125 3.203124-33.585937l-86.035156 10.269531c-4.523437 9.25-6.484375 19.8125-5.195312 30.609375zm0 0" fill="#74747c"/><path d="m304.117188 281.191406c-4.144532 0-7.5 3.359375-7.5 7.5v12.449219c0 4.144531 3.355468 7.5 7.5 7.5 4.140624 0 7.5-3.355469 7.5-7.5v-12.449219c0-4.140625-3.359376-7.5-7.5-7.5zm0 0"/><path d="m142.808594 281.191406c-4.140625 0-7.5 3.359375-7.5 7.5v12.449219c0 4.144531 3.359375 7.5 7.5 7.5 4.144531 0 7.5-3.355469 7.5-7.5v-12.449219c0-4.140625-3.355469-7.5-7.5-7.5zm0 0"/><path d="m259.0625 321.742188v-20.425782c0-8.367187-6.804688-15.171875-15.171875-15.171875h-40.855469c-8.367187 0-15.171875 6.804688-15.171875 15.171875v20.425782c0 19.628906 15.96875 35.601562 35.597657 35.601562 19.628906 0 35.601562-15.972656 35.601562-35.601562zm-56.199219 0v-20.425782c0-.097656 41.199219-.097656 41.199219 0v20.425782c0 11.359374-9.242188 20.601562-20.601562 20.601562-11.355469 0-20.597657-9.242188-20.597657-20.601562zm0 0"/><path d="m446.425781 297.875c0-25.4375-16.300781-47.910156-39.75-56.203125 1.929688-23.039063-.644531-52.25-15.515625-84.003906l-11.984375-100.386719c-3.4375-28.792969-25.964843-51.238281-54.777343-54.582031-35.972657-4.175781-77.550782-3.503907-123.578126 1.988281-46.03125 5.5-86.597656 14.636719-120.570312 27.160156-27.21875 10.035156-43.828125 37.152344-40.390625 65.949219l11.964844 100.21875c-4.203125 17.238281-2.890625 32.007813-1.175781 41.019531-28.386719 4.542969-50.148438 29.195313-50.148438 58.839844 0 27.363281 18.539062 50.457031 43.707031 57.433594-1.074219 29.527344 1.277344 55.882812 7.019531 78.484375-3.105468 2.582031-6.160156 5.234375-9.15625 7.96875-12.625 11.53125-16.632812 28.582031-10.460937 44.503906 6.15625 15.875 20.570313 25.734375 37.613281 25.734375h307.105469c17.039063 0 31.453125-9.859375 37.609375-25.734375 6.175781-15.921875 2.167969-32.972656-10.460938-44.503906-3.082031-2.816407-6.230468-5.542969-9.433593-8.199219 5.769531-22.460938 8.246093-48.613281 7.382812-77.902344 25.828125-6.53125 45-29.957031 45-57.785156zm-67.121093-130.039062c22.273437 44.257812 8.929687 94.351562 7.46875 99.542968-6.175782-11.851562-17.167969-26.699218-36.324219-38.039062-3.5625-2.113282-8.164063-.933594-10.273438 2.632812-2.109375 3.5625-.929687 8.164063 2.632813 10.273438 28.671875 16.972656 35.535156 42.863281 36.507812 47.226562-.1875 41.183594-16.425781 79.992188-45.78125 109.351563-29.527344 29.527343-65.089844 45.789062-110.070312 45.789062-73.15625 0-113.726563-49.53125-115.472656-51.457031 0 0-40.394532-43.179688-40.394532-104.40625v-35.363281c.925782.007812 95.15625 2.625 143.933594-38.390625 17.894531 7.117187 40.914062 12.257812 70.21875 12.449218 12.441406.078126 24.082031 1.265626 34.464844 4.070313 4.894531 1.324219 8.246094-2.039063 9.101562-5.441406 1.011719-4.015625-1.425781-8.09375-5.441406-9.101563-11.59375-2.917968-24.390625-4.441406-38.03125-4.527344-41.546875-.265624-69.007812-11.070312-86.546875-22.640624zm.738281 189.242187c2.132812.242187 4.277343.375 6.425781.386719.636719 24.570312-1.191406 46.679687-5.4375 65.972656-10.054688-7.304688-20.59375-13.847656-31.550781-19.597656 12.84375-14.019532 23.109375-29.800782 30.5625-46.761719zm-31.617188 63.257813c-34.292969 30.160156-78.527343 46.664062-125.652343 46.664062s-91.359376-16.503906-125.652344-46.667969c3.617187-2.03125 7.285156-3.964843 11-5.800781 31.664062 29.121094 72.335937 45.082031 115.34375 45.082031 42.785156 0 83.265625-15.792969 114.859375-44.636719 3.410156 1.703126 6.777343 3.492188 10.101562 5.359376zm-281.542969-63.257813c7.363282 16.765625 17.476563 32.378906 30.113282 46.277344-11.386719 5.914062-22.324219 12.6875-32.738282 20.277343-4.191406-19.339843-5.910156-41.519531-5.113281-66.183593.320313.007812 4.257813.429687 7.738281-.371094zm-1.300781-151.785156 108.390625-12.941407c5.757813 5.09375 13.085938 10.484376 22.238282 15.476563-15.746094 10.953125-55.316407 31.410156-130.394532 30.550781-1.425781-6.332031-3.117187-18.410156-.234375-33.085937zm309.9375-52.109375-309.527343 36.957031-2.503907-20.945313 309.53125-36.953124zm-8.1875-68.574219-286.148437 34.164063c-4.113282.492187-7.050782 4.226562-6.558594 8.335937.453125 3.8125 2.980469 7.097656 8.335938 6.558594l286.148437-34.164063 2.128906 17.84375-309.523437 36.953125-5.691406-47.664062 309.527343-36.957031zm-281.894531-38.6875c32.875-12.117187 72.292969-20.980469 117.160156-26.339844 25.597656-3.054687 49.742188-4.585937 72.222656-4.585937 16.917969 0 32.898438.867187 47.847657 2.605468 7.007812.8125 13.527343 3.117188 19.238281 6.589844l-273.613281 32.667969c4.730469-4.71875 10.519531-8.496094 17.144531-10.9375zm-27.832031 27.320313 298.542969-35.644532c3.53125 5.085938 6.09375 10.902344 7.425781 17.210938l-309.136719 36.910156c-.1875-6.445312.933594-12.703125 3.167969-18.476562zm-42.105469 224.632812c0-22.035156 16.066406-40.378906 37.101562-43.957031v34.832031c0 18.507812 2.953126 36.585938 8.640626 53.699219-24.929688-1.515625-45.742188-19.980469-45.742188-44.574219zm86.183594 181.28125c11.882812 7.058594 24.378906 13.015625 37.328125 17.84375h-69.789063c-12.800781 0-20.597656-8.34375-23.628906-16.15625-3.042969-7.851562-2.910156-19.328125 6.589844-28.007812 2.304687-2.101563 4.640625-4.152344 7.011718-6.160157.535157.523438 11.058594 10.25 16.089844 14.1875 4.742188 3.714844 9.0625.6875 10.542969-1.160156 2.589844-3.230469 2.070313-7.949219-1.160156-10.542969-4.660157-3.734375-9.21875-7.714844-13.554688-11.832031-.023437-.019531-.042969-.039063-.0625-.058594 4.132813-3.082031 8.359375-6.027343 12.667969-8.828125 37.496094 34.582032 86.632812 53.5625 139.054688 53.5625 52.421874 0 101.558593-18.980468 139.058593-53.5625 4.308594 2.800782 8.53125 5.746094 12.664063 8.828125-.019532.019531-.042969.039063-.0625.058594-40.53125 38.480469-94.390625 59.675781-151.660156 59.675781-40.359376 0-79.582032-10.632812-113.429688-30.742187-3.558594-2.109375-8.164062-.941407-10.277344 2.617187-2.113281 3.5625-.941406 8.164063 2.617188 10.277344zm298.269531 1.6875c-3.03125 7.808594-10.828125 16.15625-23.625 16.15625h-69.753906c46.308593-16.640625 79.242187-49.800781 79.78125-50.324219 2.371093 2.003907 4.707031 4.058594 7.007812 6.160157 9.503907 8.679687 9.636719 20.15625 6.589844 28.007812zm-14.269531-138.394531c5.5-16.5625 8.433594-34.023438 8.621094-51.90625 2.046874-4.320313 7.1875-16.296875 10.335937-33.558594 15.941406 6.96875 26.785156 22.941406 26.785156 40.890625 0 24.59375-20.507812 45.054688-45.742187 44.574219zm0 0"/></svg>