<svg height="511pt" viewBox="-15 0 511 511.99901" width="511pt" xmlns="http://www.w3.org/2000/svg"><path d="m90.15625 116.9375s-35.851562-45.574219-34.511719-94.042969c.394531-14.402343 18.386719-20.859375 27.648438-9.820312 15.65625 18.664062 42.960937 38.886719 86.257812 34.570312.335938 1.144531-79.394531 69.292969-79.394531 69.292969zm0 0" fill="#ff929f"/><path d="m392.691406 116.9375s35.847656-45.574219 34.511719-94.042969c-.398437-14.40625-18.386719-20.859375-27.648437-9.820312-15.660157 18.660156-42.964844 38.886719-86.257813 34.566406-.335937 1.148437 79.394531 69.296875 79.394531 69.296875zm0 0" fill="#ff929f"/><path d="m443.785156 211.867188c0-129.628907-94.113281-157.707032-94.113281-157.707032l-204.046875-22.890625s-109.125 30.890625-106.558594 160.492188c2.382813 120.40625-38.011718 121.121093-29.542968 274.484375 1.179687 21.375 18.769531 38.152344 40.179687 38.226562 86.050781.289063 297.476563.289063 383.484375 0 21.371094-.074218 38.945312-16.792968 40.175781-38.125 8.761719-152.140625-29.578125-144.152344-29.578125-254.480468zm0 0" fill="#6a6a72"/><path d="m87.804688 504.6875h307.234374c30.066407 0 44.304688-36.949219 22.105469-57.226562-35.257812-32.191407-92.167969-65.992188-175.722656-65.992188s-140.464844 33.800781-175.722656 65.992188c-22.199219 20.277343-7.960938 57.226562 22.105469 57.226562zm0 0" fill="#cf92ff"/><path d="m144.441406 504.6875h193.964844l62.164062-71.113281c-35.605468-27.332031-87.605468-52.105469-159.148437-52.105469-71.539063 0-123.539063 24.773438-159.148437 52.105469zm0 0" fill="#dfaeff"/><path d="m314.605469 429.691406c0-28.199218-32.765625-51.0625-73.183594-51.0625s-73.183594 22.863282-73.183594 51.0625c0 28.203125 32.765625 51.066406 73.183594 51.066406s73.183594-22.863281 73.183594-51.066406zm0 0" fill="#fc7e84"/><path d="m422.847656 337.742188c-19.828125 19.828124-51.976562 19.828124-71.800781 0-19.828125-19.828126-19.828125-51.976563 0-71.804688 19.824219-19.828125 82.945313-50.796875 102.773437-30.96875 19.828126 19.828125-11.144531 82.945312-30.972656 102.773438zm0 0" fill="#ff929f"/><path d="m59.996094 337.742188c19.828125 19.828124 51.976562 19.828124 71.804687 0 19.828125-19.828126 19.828125-51.976563 0-71.804688s-82.945312-50.796875-102.773437-30.96875 11.140625 82.945312 30.96875 102.773438zm0 0" fill="#ff737d"/><path d="m241.421875 452.28125c-89.886719 0-163.429687-73.546875-163.429687-163.433594v-84.816406c0-89.886719 73.542968-163.429688 163.429687-163.429688s163.433594 73.542969 163.433594 163.429688v84.816406c0 89.886719-73.546875 163.433594-163.433594 163.433594zm0 0" fill="#ffa5b5"/><path d="m241.421875 40.601562c-89.886719 0-163.429687 73.542969-163.429687 163.433594v84.8125c0 59.800782 32.554687 112.367188 80.808593 140.859375-8.167969-37.59375-7.578125-75.277343-4.242187-105.886719 3.703125-34 20.476562-65.289062 46.699218-87.246093 52.816407-44.226563 68.160157-133.496094 72.328126-192.773438-10.40625-2.097656-21.160157-3.199219-32.164063-3.199219zm0 0" fill="#ff929f"/><path d="m289.757812 159.785156s24.527344 62.644532 115.09375 75.363282c0 0 37.828126-176.273438-103.03125-197.148438zm0 0" fill="#78787f"/><path d="m294.195312 168.433594c-14.050781 10.53125-33.628906 19.039062-59.226562 16.777344-17.859375-1.574219-35.078125 6.683593-45.257812 21.441406-18.511719 26.832031-54.136719 49.046875-111.71875 28.046875 0 0-41.25-227.195313 163.429687-227.195313 0 0 109.234375 3.925782 87.136719 106.320313-4.683594 21.695312-16.601563 41.300781-34.363282 54.609375zm0 0" fill="#898890"/><path d="m77.988281 234.699219c48.679688 17.75 81.660157 4.628906 101.882813-16.066407-36.992188-66.328124-27.589844-167.21875-12.984375-198.117187-119.019531 48.238281-88.898438 214.183594-88.898438 214.183594zm0 0" fill="#78787f"/><path d="m322.109375 281.285156c-4.144531 0-7.503906 3.359375-7.503906 7.503906v12.457032c0 4.140625 3.359375 7.5 7.503906 7.5s7.503906-3.359375 7.503906-7.5v-12.457032c0-4.144531-3.359375-7.503906-7.503906-7.503906zm0 0"/><path d="m160.734375 281.285156c-4.144531 0-7.5 3.359375-7.5 7.503906v12.457032c0 4.140625 3.355469 7.5 7.5 7.5s7.503906-3.359375 7.503906-7.5v-12.457032c0-4.144531-3.359375-7.503906-7.503906-7.503906zm0 0"/><path d="m259.75 295.320312c-10.792969 8.371094-25.863281 8.371094-36.65625 0-3.273438-2.539062-7.988281-1.945312-10.523438 1.328126-2.542968 3.277343-1.945312 7.988281 1.328126 10.527343 8.101562 6.285157 17.8125 9.429688 27.523437 9.429688s19.421875-3.144531 27.523437-9.429688c3.277344-2.539062 3.871094-7.25 1.332032-10.527343-2.539063-3.273438-7.253906-3.867188-10.527344-1.328126zm0 0"/><path d="m460.160156 289.171875c.023438-.066406 21.65625-49.492187-8.695312-64.816406-.117188-4.050781 2.484375-87.78125-35.878906-129.851563 9.644531-18.394531 19.871093-44.542968 19.117187-71.816406-.269531-9.765625-6.410156-18.152344-15.644531-21.371094-9.136719-3.183594-19.046875-.460937-25.253906 6.9375-15.171876 18.082032-34.078126 28.703125-56.207032 31.628906-5.609375-2.300781-11.507812-4.246093-17.671875-5.847656-27.929687-31.851562-76.125-33.957031-78.234375-34.03124975-.089844 0-.179687-.00390625-.269531-.00390625-39.289063 0-72.378906 8.183594-98.914063 24.375-2.789062.875-10.628906 3.558594-20.953124 8.875-12.238282-5.464844-23.167969-13.855469-32.515626-24.996094-6.203124-7.398437-16.117187-10.117187-25.25-6.9375-9.234374 3.21875-15.375 11.605469-15.648437 21.371094-.527344 19.1875 4.214844 39.878906 14.09375 61.558594-17.390625 24.523437-31.625 59.433594-30.671875 107.664062.230469 11.59375.070312 22.304688-.484375 32.582032-17 5.511718-21.535156 29.429687-8.5 64.398437 0 0-28.953125 59.351563-20.550781 177.765625 1.796875 25.300781 22.328125 45.230469 47.648437 45.316406 10.03125.035156 373.5.035156 383.535157 0 25.257812-.082031 46.28125-19.929687 47.640624-45.195312 6.132813-114.164063-18.90625-170.507813-20.691406-177.605469zm-13.984375-5.441406c-7.851562 21.03125-20.347656 40.421875-28.632812 48.707031-3.953125 3.953125-8.523438 7.035156-13.527344 9.179688 5.484375-16.839844 8.339844-34.59375 8.339844-52.769532v-48.726562c17.296875-5.367188 30.628906-5.378906 36.160156.152344 6.332031 6.332031 5.457031 22.574218-2.339844 43.457031zm-27.5 197.289062c-2.820312 7.273438-9.777343 15-21.046875 16.039063-13.058594.027344-27.394531.050781-42.648437.066406l46.535156-53.234375c3.597656 2.933594 7.125 5.96875 10.566406 9.113281 9.507813 8.679688 9.640625 20.164063 6.59375 28.015625zm-83.640625 16.125c-26.074218.027344-161.164062.027344-187.222656 0l-54.53125-62.378906c10.476562-7.507813 21.496094-14.152344 32.988281-19.863281 31.644531 28.996094 72.238281 44.878906 115.15625 44.878906 20.191407 0 39.871094-3.523438 58.347657-10.265625-11.054688 14.085937-33.382813 23.738281-58.347657 23.738281-19.394531 0-37.746093-5.746094-50.351562-15.761718-3.242188-2.574219-7.960938-2.035157-10.539063 1.207031-2.578125 3.242187-2.039062 7.964843 1.203125 10.542969 15.207031 12.085937 36.964844 19.015624 59.6875 19.015624 39.445313 0 72.597657-20.402343 79.394531-48.101562 12.804688-6.773438 24.816407-15.226562 35.753907-25.25 11.492187 5.710938 22.515625 12.351562 32.992187 19.859375zm-270.867187-16.125c-3.042969-7.851562-2.914063-19.335937 6.59375-28.015625 3.445312-3.144531 6.96875-6.179687 10.566406-9.113281l46.535156 53.234375c-15.25-.015625-29.585937-.039062-42.640625-.066406-11.273437-1.035156-18.230468-8.761719-21.054687-16.039063zm287.375-82.054687c-11.71875 11.71875-56.191407 45.8125-110.121094 45.8125-41.46875 0-80.574219-16.269532-110.117187-45.8125-29.542969-29.539063-45.808594-68.648438-45.808594-110.117188v-43.78125c12.375 3.640625 24.214844 5.46875 35.445312 5.46875 10.546875 0 20.5625-1.605468 29.988282-4.820312 17.921874-6.113282 33.472656-18.152344 44.960937-34.804688 8.667969-12.566406 23.394531-19.542968 38.417969-18.222656 21.042968 1.859375 40.433594-2.757812 57.761718-13.695312 13.355469 19.3125 44.375 52.128906 105.28125 62.578124v47.277344c0 41.46875-16.269531 80.578125-45.808593 110.117188zm84.835937-177.855469c-7.164062-.214844-14.785156.996094-22.050781 2.851563 2.195313-15.945313 4.683594-44.875.035156-75.859376-2.800781-18.648437-7.804687-35.261718-14.890625-49.75 39.191406 38.222657 36.84375 119.726563 36.90625 122.757813zm-31.078125-203.210937c3.300781-3.9375 7.585938-2.839844 8.820313-2.410157 1.269531.445313 5.433594 2.304688 5.582031 7.613281.597656 21.613282-6.816406 42.824219-14.6875 59.042969-16.375-15.175781-35.929687-28.066406-45.316406-32.160156 17.402343-6.097656 32.902343-16.953125 45.601562-32.085937zm-94.308593 28.871093c12.648437 16.300781 16.089843 38.328125 10.234374 65.472657-.875 4.050781 1.699219 8.042968 5.75 8.917968 4.058594.875 8.042969-1.703125 8.917969-5.753906 5.097657-23.625 3.949219-44.195312-3.386719-61.40625 37.101563 15.378906 59.605469 47.558594 66.957032 95.957031 4.929687 32.417969 1.371094 63.234375-.71875 76.625-55.359375-9.835937-82.984375-39.5-94.632813-56.554687 7.164063-6.242188 13.390625-13.53125 18.535157-21.78125 2.195312-3.515625 1.121093-8.144532-2.394532-10.335938s-8.144531-1.121094-10.335937 2.394532c-5.421875 8.691406-12.222657 16.132812-20.21875 22.125-15.910157 11.921874-34.097657 17.070312-54.070313 15.3125-20.398437-1.8125-40.359375 7.644531-52.089844 24.648437-28.554687 41.390625-72.558593 35.378906-98.808593 26.710937-2.804688-20.433593-11.753907-109.546874 35.1875-165.71875 26.796875-32.066406 67.617187-48.34375 121.335937-48.378906 2.558594.132813 47.300782 2.84375 69.738282 31.765625zm-247.847657-23.667969c.144531-5.308593 4.308594-7.167968 5.582031-7.613281 1.234376-.429687 5.515626-1.527343 8.816407 2.410157 8.4375 10.050781 18.027343 18.183593 28.628906 24.316406-15.46875 9.132812-28.800781 23.5625-33.339844 28.6875-6.835937-16.941406-10.097656-32.980469-9.6875-47.800782zm-16.578125 168.511719c-1.011718-51.195312 22.417969-99.160156 52.652344-125.546875-18.363281 27.507813-29.238281 63.546875-31.628906 105.289063-1.273438 22.246093.085937 41.179687 1.371094 52.71875-7.46875-1.933594-15.328126-3.203125-22.695313-2.957031.40625-9.363282.507813-19.09375.300781-29.503907zm-12.234375 48.660157c5.527344-5.527344 18.859375-5.519532 36.15625-.152344v48.726562c0 18.175782 2.855469 35.929688 8.339844 52.769532-5-2.144532-9.570313-5.230469-13.523437-9.183594-8.285157-8.28125-20.78125-27.671875-28.632813-48.707032-7.796875-20.878906-8.671875-37.121093-2.339844-43.453124zm-17.316406 225.558593c-4.554687-82.429687 5.199219-120.101562 14.632813-156.53125.003906-.011719.007812-.023437.007812-.03125 7.070312 13.703125 15.507812 26.25 23.035156 33.777344 8.535156 8.53125 19.203125 14.085937 30.988282 16.167969 7.328124 16.105468 17.210937 31.117187 29.445312 44.527344-19.628906 10.242187-37.910156 23.070312-54.480469 38.179687-26.085937 23.78125-6.941406 51.953125-4.519531 55.066406-26.957031 0-38.148438-13.753906-39.109375-31.15625zm448.855469.082031c-1.199219 17.34375-17.027344 31.074219-39.148438 31.074219 2.421875-3.113281 19.84375-30.957031-4.519531-55.066406-15.945313-15.773437-34.855469-27.933594-54.484375-38.179687 12.234375-13.410157 22.117188-28.421876 29.449219-44.527344 11.78125-2.078125 35.308593-9.117188 53.285156-48.535156.324219 1.132812 22.1875 57.136718 15.417969 155.234374zm0 0"/></svg>