<svg height="512pt" viewBox="-14 0 512 512" width="512pt" xmlns="http://www.w3.org/2000/svg"><path d="m57.964844 64.84375s-67.019532 35.382812-46.691406 288.257812c1.863281 23.183594 21.175781 41.074219 44.433593 41.074219h102.023438v-329.332031zm0 0" fill="#ffcd00"/><path d="m426.375 64.84375s67.019531 35.382812 46.695312 288.257812c-1.867187 23.183594-21.179687 41.074219-44.4375 41.074219h-102.023437v-329.332031zm0 0" fill="#ffcd00"/><path d="m148.402344 99.117188c0 32.324218-26.207032 58.527343-58.53125 58.527343-32.324219 0-58.527344-26.203125-58.527344-58.527343 0-32.324219 26.203125-58.53125 58.527344-58.53125 32.324218 0 58.53125 26.207031 58.53125 58.53125zm0 0" fill="#8ed7e8"/><path d="m445.433594 99.117188c0 32.324218-26.207032 58.527343-58.53125 58.527343-32.324219 0-58.527344-26.203125-58.527344-58.527343 0-32.324219 26.203125-58.53125 58.527344-58.53125 32.324218 0 58.53125 26.207031 58.53125 58.53125zm0 0" fill="#8ed7e8"/><path d="m88.609375 504.5h307.121094c30.054687 0 44.289062-36.9375 22.09375-57.203125-35.242188-32.183594-92.128907-65.972656-175.65625-65.972656-83.523438 0-140.410157 33.789062-175.652344 65.972656-22.195313 20.265625-7.960937 57.203125 22.09375 57.203125zm0 0" fill="#bde5ef"/><path d="m242.171875 381.324219c-61.761719 0-108.957031 18.472656-143.609375 41.113281l143.925781 82.0625 143.289063-82.066406c-34.652344-22.636719-81.84375-41.109375-143.605469-41.109375zm0 0" fill="#ff929f"/><path d="m130.902344 297.867188c0 28.773437-23.328125 52.101562-52.101563 52.101562-28.777343 0-52.101562-23.328125-52.101562-52.101562 0-28.777344 23.324219-52.105469 52.101562-52.105469 28.773438 0 52.101563 23.328125 52.101563 52.105469zm0 0" fill="#ffaea1"/><path d="m457.644531 297.867188c0 28.773437-23.328125 52.101562-52.105469 52.101562-28.773437 0-52.101562-23.328125-52.101562-52.101562 0-28.777344 23.328125-52.105469 52.101562-52.105469 28.777344 0 52.105469 23.328125 52.105469 52.105469zm0 0" fill="#ffaea1"/><path d="m242.171875 452.109375c-89.855469 0-163.371094-73.515625-163.371094-163.371094v-84.78125c0-89.855469 73.515625-163.371093 163.371094-163.371093 89.851563 0 163.367187 73.515624 163.367187 163.371093v84.78125c0 89.855469-73.515624 163.371094-163.367187 163.371094zm0 0" fill="#ffe2d9"/><path d="m242.171875 40.585938c-89.855469 0-163.371094 73.515624-163.371094 163.371093v84.785157c0 81.652343 60.710938 149.816406 139.222657 161.574218-39.621094-36.472656-53.253907-90.679687-56.449219-137.941406-3.199219-47.324219 13.226562-94.109375 45.632812-128.746094 43.351563-46.328125 60.3125-112.785156 65.722657-140.117187-9.96875-1.917969-20.25-2.925781-30.757813-2.925781zm0 0" fill="#ffcfc2"/><path d="m163.890625 157.644531v85.308594c0 9.820313 8.03125 17.851563 17.847656 17.851563 9.816407 0 17.847657-8.03125 17.847657-17.851563v-13.441406s-.378907-12.289063 14.257812-12.289063c7.171875 0 13.136719 5.371094 14.105469 12.289063 0 0 .183593 15.9375 18.003906 15.9375 9.816406 0 17.847656-8.035157 17.847656-17.851563v-69.953125zm0 0" fill="#ff929f"/><path d="m242.171875 349.835938c-15.519531 0-28.101563-12.582032-28.101563-28.101563v-20.429687c0-4.238282 3.433594-7.671876 7.671876-7.671876h40.859374c4.234376 0 7.667969 3.433594 7.667969 7.671876v20.429687c0 15.519531-12.578125 28.101563-28.097656 28.101563zm0 0" fill="#57565c"/><path d="m178.148438 321.734375c0-13.183594-13.421876-23.867187-29.972657-23.867187-16.554687 0-29.972656 10.683593-29.972656 23.867187s13.417969 23.871094 29.972656 23.871094c16.550781 0 29.972657-10.6875 29.972657-23.871094zm0 0" fill="#ffa6bb"/><path d="m366.140625 321.734375c0-13.183594-13.421875-23.867187-29.972656-23.867187-16.554688 0-29.972657 10.683593-29.972657 23.867187s13.417969 23.871094 29.972657 23.871094c16.550781 0 29.972656-10.6875 29.972656-23.871094zm0 0" fill="#ffa6bb"/><path d="m284.324219 141.394531s-2.570313 33.902344 61.839843 80.46875c21.507813 15.546875 35.507813 49.421875 44.375 81.707031 4.066407 14.8125 25.59375 13.207032 27.386719-2.046874 12.054688-102.589844 15.664063-271.171876-139.101562-270.089844zm0 0" fill="#ffde55"/><path d="m273.667969 28.273438c49.882812 28.140624 55.140625 97.664062 10 132.917968-22.78125 17.792969-51.765625 34.335938-85.691407 40.945313-46.644531 9.089843-75.714843 58.425781-92.699218 102.578125-6.921875 17.988281-33.21875 15.140625-36.046875-3.925782-12.171875-82.101562-17.472657-207.320312 48.972656-262.316406 53.792969-44.527344 112.101563-34.664062 155.464844-10.199218zm0 0" fill="#ffeb99"/><path d="m118.203125 38.472656c-66.445313 54.996094-61.144531 180.214844-48.972656 262.316406 2.828125 19.066407 29.125 21.914063 36.046875 3.925782 12.390625-32.214844 31.21875-67.191406 58.613281-87.277344 0 0-70.234375-59.792969-32.714844-188.617188-4.347656 2.882813-8.675781 6.09375-12.972656 9.652344zm0 0" fill="#ffde55"/><path d="m322.828125 308.632812c4.140625 0 7.5-3.359374 7.5-7.5v-12.453124c0-4.140626-3.359375-7.5-7.5-7.5-4.144531 0-7.5 3.359374-7.5 7.5v12.453124c0 4.140626 3.355469 7.5 7.5 7.5zm0 0"/><path d="m161.511719 281.179688c-4.140625 0-7.5 3.359374-7.5 7.5v12.453124c0 4.140626 3.359375 7.5 7.5 7.5 4.144531 0 7.5-3.359374 7.5-7.5v-12.453124c0-4.140626-3.355469-7.5-7.5-7.5zm0 0"/><path d="m262.601562 286.136719h-40.859374c-8.367188 0-15.171876 6.804687-15.171876 15.167969v20.429687c0 19.632813 15.972657 35.601563 35.601563 35.601563s35.597656-15.96875 35.601563-35.601563v-20.429687c-.003907-8.363282-6.808594-15.167969-15.171876-15.167969zm.167969 35.597656c0 11.359375-9.238281 20.601563-20.597656 20.601563s-20.601563-9.242188-20.601563-20.601563c0 0 .074219-20.597656.171876-20.597656 0 0 41.027343.074219 41.027343.167969zm0 0"/><path d="m477.511719 165.46875c-5.71875-35.660156-14.828125-63.984375-27.066407-84.257812-7.828124-27.734376-33.339843-48.125-63.542968-48.125-11.25 0-22.160156 2.832031-31.894532 8.214843-20.644531-11.445312-45.390624-17.269531-73.992187-17.367187-1.203125-.753906-34.519531-23.933594-80.976563-23.933594-55.230468 0-89.234374 34.925781-90.515624 36.078125-6.335938-1.972656-12.925782-2.992187-19.652344-2.992187-36.40625 0-64.476563 26.914062-65.988282 68.199218-27.914062 67.382813-26.371093 174.230469-20.085937 252.417969 1.054687 13.097656 6.941406 25.222656 16.578125 34.136719 9.644531 8.921875 22.195312 13.835937 35.332031 13.835937h58.5c.570313.644531 1.144531 1.277344 1.722657 1.910157-19.628907 10.242187-37.914063 23.050781-54.472657 38.171874-12.628906 11.53125-16.636719 28.585938-10.460937 44.507813 6.160156 15.875 20.570312 25.734375 37.613281 25.734375h307.121094c17.042969 0 31.453125-9.859375 37.609375-25.734375 6.175781-15.921875 2.171875-32.976563-10.457032-44.507813-16.542968-15.105468-34.808593-27.898437-54.410156-38.132812.585938-.644531 1.171875-1.292969 1.75-1.949219h58.410156c13.136719 0 25.6875-4.914062 35.332032-13.835937 9.636718-8.914063 15.523437-21.039063 16.578125-34.136719 6.015625-74.828125 4.996093-138.15625-3.03125-188.234375zm-90.609375-117.382812c28.136718 0 51.027344 22.894531 51.027344 51.027343 0 14.40625-6.183594 28.0625-16.605469 37.636719-7.335938-29.128906-19.0625-52.578125-35.238281-70.640625-5.003907-5.585937-10.429688-10.609375-16.257813-15.089844 5.4375-1.929687 11.195313-2.933593 17.074219-2.933593zm-81.371094 391.351562c1.289062 2.691406 4.578125 5.894531 10.003906 3.523438 15.703125-6.859376 29.480469-16.949219 41.789063-28.1875 4.671875 2.324218 9.261719 4.800781 13.773437 7.425781l-128.621094 73.660156-129.210937-73.671875c4.519531-2.628906 9.117187-5.117188 13.796875-7.441406 1.171875 1.070312 48.804688 44.863281 115.105469 44.863281 13.285156 0 26.53125-1.550781 39.371093-4.605469 4.03125-.960937 6.519532-5.003906 5.558594-9.035156-.957031-4.027344-4.996094-6.523438-9.03125-5.558594-11.703125 2.785156-23.78125 4.199219-35.898437 4.199219-37.257813 0-73.386719-13.503906-101.730469-38.03125-25.085938-21.703125-42.574219-50.648437-50.046875-82.445313 9.78125-.921874 18.210937-7.175781 21.886719-16.726562 9.582031-24.914062 23.929687-53.515625 44.109375-73.589844v9.136719c0 13.980469 11.371093 25.351563 25.351562 25.351563 13.976563 0 25.347657-11.371094 25.347657-25.351563v-13.441406s.140624-4.789063 6.757812-4.789063c3.230469 0 6.019531 2.339844 6.625 5.496094.394531 9.367188 7.375 22.730469 25.484375 22.730469 13.976563 0 25.347656-11.371094 25.347656-25.351563v-48.304687c4.722657-3.105469 9.40625-6.433594 14.054688-9.960938 8.191406 15.03125 24.394531 35.457031 56.417969 58.605469 16.5 11.929688 30.863281 38.773438 41.535156 77.617188 1.78125 6.488281 6.0625 11.394531 11.652344 13.917968-9.652344 47.839844-41.328126 88.597656-85.910157 109.960938-3.734375 1.789062-5.3125 6.269531-3.519531 10.003906zm-243.71875-137.546875c1.207031 8.121094 5.871094 14.835937 12.5 18.730469 1.417969 7.410156 3.324219 14.695312 5.699219 21.8125-24.3125-.328125-45.8125-19.972656-45.8125-44.566406 0-16.375 8.742187-30.980469 22.5-38.773438 1.242187 13.832031 2.933593 28.09375 5.113281 42.796875zm109.578125-80.511719c8.488281-5.722656 17.8125-9.890625 28.023437-11.878906 19.300782-3.761719 38.332032-10.839844 56.886719-21.121094v39.222656c0 5.703126-4.640625 10.347657-10.347656 10.347657-8.769531 0-10.351563-5.335938-10.503906-8.566407.003906-.363281-.21875-19.65625-21.605469-19.65625-21.984375 0-21.769531 18.390626-21.757812 19.820313v13.410156c0 5.703125-4.644532 10.347657-10.347657 10.347657-5.707031 0-10.351562-4.644532-10.351562-10.347657v-21.578125zm238.65625 99.144532c8.308594-2.289063 14.273437-9.132813 15.332031-18.125 1.726563-14.726563 3.015625-28.824219 3.875-42.328126 12.800782 8.03125 20.890625 22.199219 20.890625 37.796876 0 24.59375-21.503906 45.414062-45.800781 44.566406 2.367188-7.125 4.285156-14.4375 5.703125-21.910156zm-287.0625-276.273438c57.746094-47.800781 116.886719-26.433594 146.996094-9.445312 1.605469.90625 4.523437 3.875 8.898437 4.128906 0 0 56.816406-3.621094 96.03125 37.183594 21.953125 22.84375 34.183594 58.988281 38.769532 105.1875 3.335937 33.582031 1.40625 72.523437-3.199219 119.34375-.785157 7.984374-11.03125 7.984374-12.707031.9375-10.269532-43.160157-27.636719-71.648438-47.214844-85.800782-32.234375-23.304687-46.886719-42.96875-53.53125-56.5 12.515625-12.742187 20.847656-28.925781 23.800781-46.585937 3.464844-20.734375-.566406-42.011719-11.351563-59.910157-2.140624-3.550781-6.75-4.691406-10.296874-2.554687-3.546876 2.140625-4.6875 6.746094-2.550782 10.296875 8.941406 14.835938 12.28125 32.484375 9.402344 49.695312-2.976562 17.789063-12.554688 33.792969-26.980469 45.054688-26.511719 20.707031-54.269531 33.996094-82.507812 39.496094-40.316407 7.855468-74.296875 44.941406-98.269531 107.246094-2.304688 5.988281-7.585938 7.625-11.769532 7.167968-4.152344-.460937-8.917968-3.195312-9.851562-9.5-7.796875-52.558594-9.464844-99.453125-4.964844-139.382812 6.070312-53.863282 23.328125-92.910156 51.296875-116.058594zm-25.546875 4.398438c-18.753906 22.433593-31.488281 53.039062-38.027344 91.394531-12.738281-9.523438-20.777344-24.6875-20.566406-40.929688.484375-36.917969 32.378906-55.503906 58.59375-50.464843zm-41.730469 338.027343c-19.183593 0-35.417969-15.011719-36.957031-34.175781-9.246094-114.992188-.242188-183.964844 11.722656-224.660156 5.734375 11.820312 14.929688 21.875 26.578125 28.566406-3.558593 20.667969-3.585937 56.015625-1.605469 86.613281-21.90625 9.269531-36.246093 30.609375-36.246093 54.847657 0 32.863281 24.046875 63.914062 66.460937 59.199218 4.566406 10.382813 10.164063 20.304688 16.707032 29.609375zm9.277344 94.164063c-3.046875-7.847656-2.914063-19.328125 6.589844-28.003906 8.625-7.878907 17.75-15.082032 27.304687-21.585938l115.3125 65.75h-125.578125c-12.800781 0-20.601562-8.347656-23.628906-16.160156zm354.371094 0c-3.027344 7.8125-10.828125 16.160156-23.625 16.160156h-125.058594l114.792969-65.742188c9.554687 6.5 18.675781 13.699219 27.300781 21.578126 9.503906 8.675781 9.636719 20.15625 6.589844 28.003906zm46.238281-128.339844c-1.542969 19.164062-17.777344 34.175781-36.960938 34.175781h-46.5625c6.507813-9.265625 12.082032-19.179687 16.648438-29.597656 39.4375 5.132813 66.425781-26.347656 66.425781-59.210937 0-23.605469-13.875-44.753907-35.050781-54.316407 1.300781-34.261719-.4375-64.335937-5.238281-90.410156 12.511719-8.820313 21.519531-21.726563 25.609375-36.261719 23.796875 67.628906 20.136718 173.285156 15.128906 235.621094zm0 0"/></svg>