<svg height="512pt" viewBox="-22 0 512 512" width="512pt" xmlns="http://www.w3.org/2000/svg"><path d="m439.398438 204.453125c-13.621094-116.210937-124.519532-168.832031-124.519532-168.832031h-161.339844s-110.570312 52.621094-124.1875 168.832031c-12.195312 104.074219 14.003907 141.136719-20.175781 256.335937-6.46875 21.808594 9.832031 43.710938 32.578125 43.710938h385.242188c22.746094 0 39.046875-21.902344 32.578125-43.710938-34.179688-115.199218-7.980469-152.261718-20.175781-256.335937zm0 0" fill="#c68d6d"/><path d="m122.925781 297.835938c0 28.78125-23.332031 52.109374-52.109375 52.109374-28.78125 0-52.109375-23.328124-52.109375-52.109374 0-28.777344 23.328125-52.109376 52.109375-52.109376 28.777344 0 52.109375 23.332032 52.109375 52.109376zm0 0" fill="#ffaea1"/><path d="m449.710938 297.835938c0 28.78125-23.332032 52.109374-52.109376 52.109374-28.78125 0-52.113281-23.328124-52.113281-52.109374 0-28.777344 23.332031-52.109376 52.113281-52.109376 28.777344 0 52.109376 23.332032 52.109376 52.109376zm0 0" fill="#ffcfc2"/><path d="m80.625 504.5h307.164062c30.058594 0 44.292969-36.941406 22.097657-57.214844-35.246094-32.1875-92.144531-65.980468-175.679688-65.980468-83.535156 0-140.433593 33.792968-175.679687 65.980468-22.195313 20.273438-7.960938 57.214844 22.097656 57.214844zm0 0" fill="#c2e8ef"/><path d="m122.238281 385.195312-35.378906 14.425782c-11.238281 4.578125-12.542969 19.96875-2.238281 26.375l20.046875 12.460937-10.25 19.789063c-3.953125 7.632812-.621094 17.015625 7.257812 20.453125l59.191407 25.800781h53.949218l-51.441406-119.300781h-41.136719zm0 0" fill="#def4f9"/><path d="m346.175781 385.195312 35.382813 14.425782c11.234375 4.578125 12.539062 19.96875 2.234375 26.375l-20.042969 12.460937 10.246094 19.789063c3.953125 7.632812.621094 17.015625-7.257813 20.453125l-59.191406 25.800781h-53.949219l51.445313-119.300781h41.132812zm0 0" fill="#def4f9"/><path d="m234.207031 452.101562c-89.867187 0-163.390625-73.527343-163.390625-163.390624v-84.796876c0-89.867187 73.523438-163.390624 163.390625-163.390624 89.867188 0 163.394531 73.523437 163.394531 163.390624v84.796876c-.003906 89.863281-73.527343 163.390624-163.394531 163.390624zm0 0" fill="#ffe2d9"/><path d="m234.207031 40.523438c-89.867187 0-163.390625 73.523437-163.390625 163.390624v84.796876c0 59.785156 32.558594 112.347656 80.800782 140.832031-8.164063-37.585938-7.589844-75.265625-4.253907-105.871094 3.703125-33.992187 20.472657-65.273437 46.6875-87.222656 52.808594-44.21875 68.148438-133.460938 72.316407-192.726563-10.40625-2.097656-21.160157-3.199218-32.160157-3.199218zm0 0" fill="#ffcfc2"/><path d="m212.332031 168.207031v54.917969c0 9 7.363281 16.363281 16.363281 16.363281 16.363282 0 16.363282-13.816406 16.363282-13.816406v-15.496094c0-8.136719 6.65625-14.796875 14.792968-14.796875 8.136719 0 14.792969 6.660156 14.792969 14.796875v29.429688c.003907 8.996093 7.367188 16.359375 16.367188 16.359375s16.363281-7.363282 16.363281-16.363282v-71.394531c0-.039062-95.042969 0-95.042969 0zm0 0" fill="#ff929f"/><path d="m234.207031 20.632812c-208.105469 0-163.390625 225.09375-163.390625 225.09375 104-10.960937 113.046875-88.132812 113.046875-88.132812h100.6875s9.046875 77.171875 113.050781 88.132812c0 0 44.714844-225.09375-163.394531-225.09375zm0 0" fill="#dd9f80"/><path d="m234.207031 7.5c-43.238281 0-74.335937 13.015625-93.882812 25.089844-15.46875 9.554687-21.894531 28.800781-15.390625 45.777344l28.324218 73.886718c4.6875 12.230469 16.433594 20.304688 29.53125 20.304688h103.203126c13.101562 0 24.84375-8.074219 29.53125-20.304688l28.292968-73.804687c6.519532-17.007813.050782-36.277344-15.460937-45.820313-19.640625-12.089844-50.863281-25.128906-94.148438-25.128906zm0 0" fill="#def4f9"/><path d="m201.953125 100.695312c-2.910156-16.355468 2.53125-33.183593 14.632813-44.566406 20.46875-19.246094 26.722656-37.195312 28.476562-48.351562-3.53125-.179688-7.148438-.277344-10.855469-.277344-43.238281 0-74.335937 13.015625-93.886719 25.089844-15.464843 9.554687-21.894531 28.800781-15.386718 45.777344l28.320312 73.886718c4.691406 12.230469 16.433594 20.304688 29.53125 20.304688h55.871094c-23.105469-20.457032-32.777344-49.785156-36.703125-71.863282zm0 0" fill="#c2e8ef"/><path d="m284.886719 90.03125c0 27.894531-22.613281 50.511719-50.511719 50.511719s-50.511719-22.617188-50.511719-50.511719c0-27.898438 22.613281-50.511719 50.511719-50.511719s50.511719 22.613281 50.511719 50.511719zm0 0" fill="#ff929f"/><path d="m314.875 281.148438c-4.144531 0-7.5 3.359374-7.5 7.503906v12.449218c0 4.144532 3.355469 7.503907 7.5 7.503907s7.5-3.359375 7.5-7.503907v-12.449218c0-4.144532-3.355469-7.503906-7.5-7.503906zm0 0"/><path d="m153.539062 281.148438c-4.144531 0-7.5 3.359374-7.5 7.503906v12.449218c0 4.144532 3.355469 7.503907 7.5 7.503907 4.144532 0 7.5-3.359375 7.5-7.503907v-12.449218c0-4.144532-3.355468-7.503906-7.5-7.503906zm0 0"/><path d="m252.53125 295.179688c-10.789062 8.367187-25.859375 8.367187-36.648438 0-3.269531-2.539063-7.984374-1.945313-10.523437 1.328124-2.539063 3.273438-1.941406 7.984376 1.332031 10.523438 8.101563 6.285156 17.808594 9.425781 27.515625 9.425781 9.710938 0 19.417969-3.140625 27.519531-9.425781 3.273438-2.539062 3.867188-7.25 1.328126-10.523438-2.539063-3.273437-7.253907-3.867187-10.523438-1.328124zm0 0"/><path d="m234.375 118.273438c4.144531 0 7.5-3.355469 7.5-7.5v-13.242188h13.242188c4.144531 0 7.503906-3.355469 7.503906-7.5s-3.359375-7.503906-7.503906-7.503906h-13.242188v-13.238282c0-4.144531-3.355469-7.503906-7.5-7.503906s-7.5 3.359375-7.5 7.503906v13.238282h-13.242188c-4.144531 0-7.5 3.359375-7.5 7.503906s3.355469 7.5 7.5 7.5h13.242188v13.242188c0 4.140624 3.355469 7.5 7.5 7.5zm0 0"/><path d="m234.375 148.042969c12.730469 0 24.816406-4.046875 34.949219-11.703125 3.304687-2.5 3.957031-7.203125 1.460937-10.507813-2.496094-3.304687-7.203125-3.960937-10.507812-1.460937-7.507813 5.671875-16.464844 8.671875-25.902344 8.671875-23.714844 0-43.011719-19.296875-43.011719-43.011719 0-23.71875 19.296875-43.011719 43.011719-43.011719s43.011719 19.292969 43.011719 43.011719c0 3.570312-.4375 7.117188-1.300781 10.535156-1.011719 4.019532 1.425781 8.09375 5.441406 9.105469 4.011718 1.011719 8.09375-1.421875 9.105468-5.441406 1.164063-4.613281 1.753907-9.394531 1.753907-14.199219 0-31.988281-26.023438-58.015625-58.011719-58.015625-31.992188 0-58.015625 26.027344-58.015625 58.015625s26.027344 58.011719 58.015625 58.011719zm0 0"/><path d="m466.761719 458.65625c-15.996094-53.925781-18.839844-90.054688-18.011719-130.246094 5.367188-8.945312 13.640625-33.53125 1.644531-58.203125.167969-23.289062-.957031-44.527343-3.546875-66.628906-9.027344-77.015625-60.144531-129.546875-95.921875-154.6875-3.433593-9.15625-9.816406-17.222656-18.636719-22.652344-19.457031-11.96875-52.265624-26.238281-98.082031-26.238281-45.789062 0-78.472656 14.253906-97.824219 26.207031-8.691406 5.371094-15.011718 13.308594-18.460937 22.332031-42.847656 29.355469-87.085937 78.804688-96.019531 155.039063-2.574219 21.984375-3.703125 42.972656-3.5625 66-12.105469 25.300781-3.90625 50.335937 1.671875 59.40625.792969 39.9375-2.070313 75.894531-18.027344 129.671875-3.765625 12.699219-7.152344 53.34375 39.769531 53.34375h385.242188c45.65625 0 43.535156-40.644531 39.765625-53.34375zm-206.910157-270.777344c-12.292968 0-22.292968 10.003906-22.292968 22.296875v15.496094c0 1.480469-.640625 6.316406-8.863282 6.316406-4.886718 0-8.863281-3.976562-8.863281-8.863281v-43.0625h63.636719c3.367188 7.871094 8.550781 17.320312 16.40625 26.804688v32.734374c0 4.886719-3.976562 8.863282-8.863281 8.863282s-8.863281-3.976563-8.863281-8.863282v-29.429687c-.003907-12.289063-10.003907-22.292969-22.296876-22.292969zm39.066407-10.046875c10.636719-3.765625 19.453125-12.042969 23.609375-22.894531l28.292968-73.804688c1.195313-3.125 2.023438-6.3125 2.507813-9.511718 22.726563 24.300781 36.097656 58.378906 39.8125 101.589844 2.425781 28.195312-.164063 52.738281-1.789063 64.191406-57.496093-8.113282-82.054687-37.867188-92.433593-59.570313zm106.183593 110.878907v-34.839844c21.035157 3.578125 37.109376 21.925781 37.109376 43.964844 0 24.597656-21.507813 41.238281-45.777344 44.578124 5.679687-17.097656 8.667968-35.183593 8.667968-53.703124zm30.125-37.066407c-8.136718-6.640625-18.050781-11.179687-28.917968-12.777343 1.75-12.398438 4.277344-37.363282 1.8125-66.542969-1.769532-20.917969-5.835938-40.128907-12.0625-57.394531 20.007812 27.601562 32.089844 58 35.886718 90.394531 1.820313 15.511719 2.882813 30.601562 3.28125 46.320312zm-290.960937-212.671875c17.699219-10.9375 47.675781-23.96875 89.941406-23.96875 42.308594 0 72.414063 13.058594 90.21875 24.011719 12.410157 7.636719 17.621094 23.09375 12.386719 36.746094l-28.292969 73.808593c-3.550781 9.261719-12.601562 15.488282-22.527343 15.488282h-103.203126c-9.921874 0-18.976562-6.226563-22.527343-15.488282l-28.320313-73.890624c-5.226562-13.628907-.042968-29.066407 12.324219-36.707032zm-118.058594 258.863282c0-22.039063 16.070313-40.386719 37.109375-43.964844v34.839844c0 18.511718 2.953125 36.589843 8.640625 53.703124-26.433593-2.121093-45.75-19.980468-45.75-44.578124zm50.859375-60.433594c-1.628906-11.484375-4.230468-36.113282-1.773437-64.390625 3.757812-43.3125 17.222656-77.425781 40.09375-101.707031.476562 3.277343 1.316406 6.546874 2.546875 9.746093l28.320312 73.886719c4.117188 10.746094 12.800782 18.96875 23.300782 22.78125-10.355469 21.722656-34.902344 51.554688-92.488282 59.683594zm-5.074218-121.476563c-6.003907 16.949219-9.9375 35.753907-11.683594 56.1875-2.496094 29.269531.042968 54.324219 1.792968 66.753907-10.714843 1.578124-20.507812 6.019531-28.582031 12.515624.402344-15.597656 1.46875-30.582031 3.28125-46.058593 4.222657-36.011719 18.296875-65.75 35.191407-89.398438zm-55.625 346.996094c14.144531-47.675781 18.335937-82.847656 18.730468-117.390625 9.960938 7.476562 23.21875 12.730469 42.5 11.523438 4.78125 10.871093 10.714844 21.253906 17.746094 31.003906l-11.316406 4.613281c-17.566406 7.765625-16.015625 24.148437-10.535156 32.542969-6.925782 5.160156-13.636719 10.699218-20.023438 16.53125-12.628906 11.535156-16.636719 28.589844-10.460938 44.515625 1.542969 3.976562 3.601563 7.574219 6.09375 10.734375h-7.347656c-29.539062 0-27.792968-25.957032-25.386718-34.074219zm40.628906 17.914063c-3.046875-7.851563-2.914063-19.332032 6.589844-28.011719 6.871093-6.269531 14.136718-12.179688 21.648437-17.613281l9.582031 5.957031-7.058594 13.625c-2.835937 5.476562-3.277343 11.949219-1.21875 17.757812 2.0625 5.8125 6.488282 10.558594 12.140626 13.023438l26.210937 11.425781h-44.265625c-12.800781-.003906-20.597656-8.351562-23.628906-16.164062zm105.433594 16.160156-57.757813-25.175782c-1.886719-.820312-6.328125-4.296874-3.589844-10.128906l10.246094-19.785156c1.800781-3.476562.621094-7.753906-2.703125-9.820312l-20.042969-12.457032c-5.292969-4.136718-4.1875-10.777344 1.105469-13.0625l15.34375-6.253906c2.703125 3.113281 5.527344 6.148438 8.476562 9.097656 20.09375 20.097656 44.242188 34.582032 70.542969 42.679688l19.363281 44.90625zm57.320312 0-17.414062-40.382813c10.40625 1.972657 21.066406 2.988281 31.871093 2.988281 10.824219 0 21.457031-1.011718 31.871094-2.988281l-17.414063 40.382813zm45.25 0 19.378906-44.933594c9.230469-2.863281 18.257813-6.527344 27.03125-11.003906 3.691406-1.882813 5.15625-6.402344 3.273438-10.09375-1.882813-3.6875-6.402344-5.152344-10.089844-3.269532-21.984375 11.21875-45.664062 16.90625-70.386719 16.90625-41.457031 0-80.554687-16.265624-110.089843-45.800781-29.535157-29.535156-45.800782-68.632812-45.800782-110.089843v-36.339844c31.371094-4.300782 57.226563-15.03125 76.925782-31.953125 15.78125-13.558594 24.71875-28.683594 29.703124-40.355469h19.886719v43.0625c0 13.160156 10.703125 23.867188 23.863281 23.867188 17.511719 0 23.863282-12.75 23.863282-21.320313v-15.496094c0-4.023437 3.273437-7.292969 7.292968-7.292969 4.023438 0 7.292969 3.269532 7.292969 7.292969v29.429688c.003907 13.15625 10.710938 23.859375 23.867188 23.859375s23.863281-10.703125 23.863281-23.863282v-17.789062c19.480469 16.109375 44.742188 26.378906 75.222656 30.558594v36.339844c0 47.460937-21.4375 91.835937-58.8125 121.742187-3.234375 2.585937-3.761718 7.308594-1.171875 10.542969 1.480469 1.851562 6.222657 4.21875 10.542969 1.171875 8.710938-6.144531 15.910156-13.984375 22.742188-21.851563l15.328124 6.25c5.894532 2.53125 5.894532 9.246094 1.105469 13.0625l-20.042969 12.457032c-3.324218 2.070312-4.5 6.34375-2.699218 9.820312l10.246094 19.789062c.945312 1.828126 1.59375 8.394532-3.59375 10.125l-57.757813 25.179688h-40.984375zm78.527344 0 26.210937-11.421875c5.652344-2.464844 10.074219-7.210938 12.136719-13.023438s1.617188-12.28125-1.21875-17.757812l-7.058594-13.628907 9.582032-5.957031c7.511718 5.4375 14.78125 11.34375 21.648437 17.617188 9.503906 8.679687 9.636719 20.160156 6.589844 28.011719-3.027344 7.8125-10.828125 16.160156-23.628907 16.160156zm83.46875 0h-7.683594c2.488281-3.160156 4.550781-6.757813 6.09375-10.734375 6.175781-15.921875 2.167969-32.980469-10.460938-44.511719-6.386718-5.835938-13.097656-11.375-20.023437-16.535156 7.472656-10.195313 5.695313-24.609375-10.535156-32.542969l-11.289063-4.601563c7-9.722656 12.929688-20.117187 17.707032-31.015624 15.167968 1.011718 32.796874-4.140626 42.8125-11.757813.269531 29.796875 3.554687 66.367187 18.761718 117.628906 2.410156 8.113281 3.324219 34.070313-25.382812 34.070313zm0 0"/></svg>