<svg height="511pt" viewBox="-18 0 511 511.99815" width="511pt" xmlns="http://www.w3.org/2000/svg"><path d="m61.125 471.863281c-5.871094 13.808594-26.339844 30.859375-40.148438 24.988281-13.808593-5.875-15.726562-32.445312-9.855468-46.253906s21.824218-20.242187 35.632812-14.367187c13.808594 5.871093 20.242188 21.824219 14.371094 35.632812zm0 0" fill="#74747c"/><path d="m93.117188 306.390625c-18.101563-6.648437-39.351563 5.847656-47.460938 27.921875-3.15625 8.59375-3.851562 17.367188-2.457031 25.273438 1.113281 6.3125-1.332031 12.65625-6.253907 16.765624-6.121093 5.113282-11.21875 12.210938-14.355468 20.742188-8.109375 22.070312-.007813 45.355469 18.097656 52.003906 18.101562 6.652344 39.351562-5.847656 47.460938-27.917968 3.15625-8.59375 3.851562-17.367188 2.457031-25.273438-1.113281-6.3125 1.332031-12.65625 6.253906-16.765625 6.121094-5.117187 11.21875-12.210937 14.355469-20.746094 8.109375-22.070312.007812-45.351562-18.097656-52.003906zm0 0" fill="#898890"/><path d="m415.527344 471.863281c5.871094 13.808594 26.339844 30.859375 40.148437 24.988281 13.808594-5.875 15.726563-32.445312 9.855469-46.253906s-21.828125-20.242187-35.632812-14.367187c-13.808594 5.871093-20.242188 21.824219-14.371094 35.632812zm0 0" fill="#74747c"/><path d="m383.535156 306.390625c18.101563-6.648437 39.351563 5.847656 47.457032 27.921875 3.160156 8.59375 3.855468 17.367188 2.460937 25.273438-1.113281 6.3125 1.332031 12.65625 6.25 16.765624 6.125 5.113282 11.222656 12.210938 14.359375 20.742188 8.109375 22.070312.003906 45.355469-18.097656 52.003906-18.101563 6.652344-39.351563-5.847656-47.460938-27.917968-3.15625-8.59375-3.851562-17.367188-2.457031-25.273438 1.113281-6.3125-1.332031-12.65625-6.253906-16.765625-6.121094-5.117187-11.21875-12.210937-14.355469-20.746094-8.109375-22.070312-.007812-45.351562 18.097656-52.003906zm0 0" fill="#898890"/><path d="m84.773438 504.5h307.105468c30.054688 0 44.289063-36.933594 22.09375-57.203125-35.238281-32.179687-92.125-65.964844-175.648437-65.964844-83.519531 0-140.40625 33.785157-175.648438 65.964844-22.191406 20.269531-7.960937 57.203125 22.097657 57.203125zm0 0" fill="#5f5f68"/><path d="m238.328125 381.332031c-68.386719 0-118.910156 22.644531-154.324219 48.519531l81.167969 74.648438 73.15625-52.386719 73.152344 52.386719 81.167969-74.648438c-35.414063-25.875-85.9375-48.519531-154.320313-48.519531zm0 0" fill="#def4f9"/><path d="m127.0625 297.875c0 28.773438-23.324219 52.101562-52.101562 52.101562-28.773438 0-52.101563-23.328124-52.101563-52.101562 0-28.777344 23.328125-52.101562 52.101563-52.101562 28.777343 0 52.101562 23.324218 52.101562 52.101562zm0 0" fill="#ffaea1"/><path d="m453.792969 297.875c0 28.773438-23.328125 52.101562-52.101563 52.101562-28.777344 0-52.101562-23.328124-52.101562-52.101562 0-28.777344 23.324218-52.101562 52.101562-52.101562 28.773438 0 52.101563 23.324218 52.101563 52.101562zm0 0" fill="#ffcfc2"/><path d="m238.328125 452.113281c-89.851563 0-163.367187-73.511719-163.367187-163.363281v-84.78125c0-89.851562 73.515624-163.367188 163.367187-163.367188 89.847656 0 163.363281 73.515626 163.363281 163.367188v84.78125c0 89.847656-73.515625 163.363281-163.363281 163.363281zm0 0" fill="#ffe2d9"/><path d="m238.328125 40.601562c-89.851563 0-163.367187 73.515626-163.367187 163.367188v84.78125c0 81.648438 60.71875 149.8125 139.226562 161.570312-39.621094-36.472656-53.257812-90.679687-56.453125-137.9375-3.199219-47.324218 13.222656-94.105468 45.632813-128.742187 43.347656-46.328125 60.3125-112.78125 65.722656-140.113281-9.972656-1.917969-20.253906-2.925782-30.761719-2.925782zm0 0" fill="#ffcfc2"/><path d="m238.324219 349.839844c-15.519531 0-28.097657-12.578125-28.097657-28.097656v-20.429688c0-4.234375 3.433594-7.671875 7.671876-7.671875h40.855468c4.238282 0 7.671875 3.4375 7.671875 7.671875v20.429688c0 15.519531-12.582031 28.097656-28.101562 28.097656zm0 0" fill="#57565c"/><path d="m174.304688 321.742188c0-13.183594-13.417969-23.867188-29.972657-23.867188-16.550781 0-29.96875 10.683594-29.96875 23.867188 0 13.179687 13.417969 23.867187 29.96875 23.867187 16.554688 0 29.972657-10.6875 29.972657-23.867187zm0 0" fill="#ffa6bb"/><path d="m362.289062 321.742188c0-13.183594-13.417968-23.867188-29.972656-23.867188-16.550781 0-29.96875 10.683594-29.96875 23.867188 0 13.179687 13.417969 23.867187 29.96875 23.867187 16.554688 0 29.972656-10.6875 29.972656-23.867187zm0 0" fill="#ffa6bb"/><path d="m391.671875 66.976562c-47.527344-65.808593-108.140625-62.671874-137.128906-56.300781-11.140625 2.449219-22.707031 2.449219-33.847657 0-28.988281-6.371093-89.601562-9.511719-137.128906 56.300781-38.355468 53.113282-8.605468 178.796876-8.605468 178.796876 135.59375 8.949218 161.890624-107.746094 162.660156-111.296876.765625 3.550782 28.476562 120.246094 164.070312 111.296876 0 0 28.335938-125.683594-10.019531-178.796876zm0 0" fill="#898890"/><path d="m155 12.933594c-23.589844 7.238281-48.972656 22.941406-71.433594 54.042968-38.355468 53.113282-8.605468 178.796876-8.605468 178.796876 44.546874 2.941406 77.285156-7.671876 101.207031-23.386719-42.449219-87.078125-32.027344-167.335938-21.167969-209.453125zm0 0" fill="#74747c"/><path d="m318.980469 308.640625c4.140625 0 7.5-3.359375 7.5-7.5v-12.449219c0-4.144531-3.359375-7.5-7.5-7.5-4.144531 0-7.5 3.355469-7.5 7.5v12.449219c0 4.140625 3.355469 7.5 7.5 7.5zm0 0"/><path d="m157.671875 308.640625c4.144531 0 7.5-3.359375 7.5-7.5v-12.449219c0-4.144531-3.355469-7.5-7.5-7.5s-7.5 3.355469-7.5 7.5v12.449219c0 4.140625 3.355469 7.5 7.5 7.5zm0 0"/><path d="m238.324219 357.339844c19.628906 0 35.601562-15.96875 35.601562-35.597656v-20.429688c0-8.363281-6.804687-15.171875-15.171875-15.171875h-40.855468c-8.367188 0-15.171876 6.808594-15.171876 15.171875v20.429688c0 19.628906 15.96875 35.597656 35.597657 35.597656zm-20.597657-56.027344c0-.09375 41.199219-.09375 41.199219 0v20.429688c0 11.359374-9.242187 20.601562-20.601562 20.601562s-20.597657-9.242188-20.597657-20.601562zm0 0"/><path d="m475.988281 463.460938c-.300781-4.128907-3.886719-7.214844-8.023437-6.933594-4.132813.304687-7.234375 3.898437-6.933594 8.027344.882812 12.089843-2.683594 23.007812-8.289062 25.390624-4.992188 2.125-13.875-1.675781-21.558594-9.082031 1.875-7.734375 1.449218-15.554687-1.125-22.730469 2.902344-.328124 5.75-.988281 8.492187-1.996093 21.953125-8.066407 32.070313-35.714844 22.546875-61.628907-3.484375-9.492187-9.222656-17.761718-16.585937-23.914062-2.894531-2.417969-4.304688-6.140625-3.675781-9.707031 1.035156-5.859375 1.035156-12.0625.058593-18.179688 12.488281-10.933593 20.394531-26.972656 20.394531-44.835937 0-29.785156-21.960937-54.535156-50.542968-58.914063 5.726562-29.734375 21.394531-128.75-12.992188-176.371093-2.425781-3.359376-7.113281-4.113282-10.472656-1.6875-3.359375 2.421874-4.113281 7.113281-1.6875 10.46875 31.519531 43.648437 14.699219 142.75 9.914062 167.226562-51.195312 2.082031-91.78125-14.265625-120.671874-48.609375-23.328126-27.734375-29.824219-56.804687-29.886719-57.09375-.746094-3.453125-3.800781-5.914063-7.332031-5.914063s-6.582032 2.464844-7.328126 5.914063c-.992187 4.585937-25.386718 110.738281-149.210937 105.695313-5.027344-24.332032-22.960937-123.558594 8.566406-167.21875 44.367188-61.433594 100.144531-59.804688 129.441407-53.367188 12.125 2.667969 24.941406 2.667969 37.066406 0 24.09375-5.292969 70.671875-8.082031 111.894531 32.730469 2.945313 2.914062 7.691406 2.890625 10.605469-.054688 2.914062-2.941406 2.890625-7.6875-.050782-10.605469-46.273437-45.808593-98.59375-42.667968-125.667968-36.71875-10.019532 2.203126-20.609375 2.203126-30.628906 0-15.269532-3.35546825-38.972657-5.878906-65.167969 1.164063-31.054688 8.347656-57.851563 27.886719-79.648438 58.070313-34.390625 47.621093-17.730469 146.566406-11.671875 176.386718-28.539062 4.414063-50.457031 29.144532-50.457031 58.898438 0 17.863281 7.910156 33.902344 20.398437 44.835937-.980468 6.117188-.976562 12.320313.054688 18.175781.628906 3.570313-.777344 7.292969-3.671875 9.710938-7.363281 6.152344-13.101563 14.421875-16.585937 23.914062-4.953126 13.472657-4.582032 27.410157-.015626 38.824219-4.949218 3.644531-8.863281 8.554688-11.320312 14.332031-3.503906 8.242188-4.636719 19.824219-2.953125 30.230469 2.09375 12.964844 7.980469 22.320313 16.777344 25.855469 13.015625 5.230469 26.382812-2.492188 33.863281-8.574219 7.394531 10.5625 19.292969 16.824219 32.867188 16.824219h307.109374c13.558594 0 25.445313-6.246094 32.84375-16.792969 9.039063 7.464844 21.304688 13.246094 33.886719 8.542969 6.769531-2.53125 11.738281-8.878906 14.707031-17.492188 2.304688-6.6875 3.253907-14.785156 2.667969-22.796874zm-49.921875-105.179688c-1.558594 8.84375 1.824219 17.972656 8.828125 23.824219 5.351563 4.472656 9.546875 10.546875 12.125 17.574219 6.671875 18.152343.550781 37.164062-13.644531 42.378906-4.203125 1.546875-8.6875 1.746094-13.324219.601562 0 0-14.539062-12.609375-21.683593-17.898437-1.085938-1.964844-7.066407-12.519531-4.9375-27.550781 1.175781-8.296876-1.394532-16.753907-7.476563-22.609376 3.328125-5.679687 6.320313-11.527343 8.957031-17.523437 2.246094.253906 17.136719 2.421875 31.71875-5.089844-.015625 2.136719-.203125 4.25-.5625 6.292969zm-137.941406 138.71875h-99.601562l49.800781-35.664062zm-28.324219-38.734375c34.855469-4.382813 67.332031-19.417969 93.628907-43.511719 9.421874 4.683594 18.53125 9.988282 27.28125 15.886719l-69.820313 64.214844zm117.589844-70.492187c1.199219 2.066406 1.683594 4.476562 1.269531 6.832031-.964844 5.46875-1.050781 11.125-.285156 16.761719-4.523438-2.734376-9.125-5.328126-13.808594-7.769532 4.617188-5.054687 8.890625-10.339844 12.824219-15.824218zm68.902344-89.898438c0 24.59375-18.800781 41.101562-45.746094 44.570312 5.6875-17.113281 8.644531-35.1875 8.644531-53.695312v-34.832031c21.03125 3.574219 37.101563 21.917969 37.101563 43.957031zm-233.667969-98.277344c12.261719-14.796875 20.171875-29.886718 25.101562-41.679687 5.054688 11.769531 13.144532 26.878906 25.628907 41.722656 21.234375 25.242187 60.339843 54.003906 130.832031 54.003906v35.101563c0 41.453125-16.261719 80.546875-45.789062 110.074218-29.53125 29.53125-68.621094 45.792969-110.074219 45.792969-21.976563 0-43.25-4.539062-63.238281-13.488281-3.785157-1.695312-8.21875-.003906-9.910157 3.777344-1.695312 3.78125-.003906 8.21875 3.777344 9.910156 15.351563 6.875 31.390625 11.367188 47.902344 13.449219l-51.09375 36.59375-69.820313-64.214844c8.75-5.898437 17.859375-11.203125 27.285156-15.886719 5.121094 4.6875 10.550782 9.09375 16.273438 13.175782 1.320312.941406 6.441406 3.515624 10.460938-1.75 2.511718-3.292969 1.621093-8.058594-1.75-10.460938-41.171876-29.363281-65.75-76.828125-65.75-126.972656v-35.101563c67.710937 0 109.226562-28.785156 130.164062-54.046875zm-114.632812 195.007813c-.417969-2.378907.082031-4.8125 1.308593-6.894531 3.9375 5.523437 8.210938 10.824218 12.804688 15.875-4.691407 2.445312-9.296875 5.042968-13.828125 7.777343.765625-5.632812.679687-11.289062-.285156-16.757812zm-67.632813-96.730469c0-22.035156 16.070313-40.378906 37.101563-43.957031v34.832031c0 18.441406 3.046874 36.550781 8.777343 53.695312-24.375.144532-45.878906-19.980468-45.878906-44.570312zm-.726563 101.804688c2.582032-7.027344 6.773438-13.101563 12.125-17.574219 7.003907-5.851563 10.386719-14.980469 8.828126-23.824219-.359376-2.042969-.546876-4.15625-.5625-6.292969 7.59375 3.511719 18.328124 6.4375 31.851562 5.074219 2.632812 5.980469 5.605469 11.808594 8.902344 17.457031-6.136719 5.859375-8.695313 14.351563-7.558594 22.691407 2.007812 14.699218-3.847656 25.589843-4.933594 27.550781-7.148437 5.292969-21.339844 17.632812-21.671875 17.953125 0 0-7.511719 1.695312-13.339843-.65625-14.023438-5.652344-20.3125-24.222656-13.640626-42.378906zm-5.722656 90.269531c-3.699218-1.574219-6.628906-6.976563-7.839844-14.445313-1.234374-7.648437-.46875-16.273437 1.953126-21.96875 1.226562-2.886718 3.09375-5.390625 5.441406-7.359375 3.980468 4.402344 8.898437 7.855469 14.636718 9.964844 2.742188 1.007813 5.589844 1.667969 8.488282 1.996094-2.570313 7.175781-3 15.003906-1.117188 22.742187-7.570312 7.3125-16.511718 11.214844-21.5625 9.070313zm37.234375-9.105469c-3.046875-7.851562-2.914062-19.328125 6.589844-28.007812 5.09375-4.652344 10.363281-9.058594 15.789063-13.238282l62.414062 57.402344h-61.164062c-12.800782 0-20.597657-8.34375-23.628907-16.15625zm330.734375 16.15625h-61.164062l62.414062-57.402344c5.425782 4.179688 10.695313 8.585938 15.789063 13.238282 9.5 8.679687 9.632812 20.15625 6.589843 28.007812-3.03125 7.8125-10.828124 16.15625-23.628906 16.15625zm0 0"/></svg>