<svg height="512pt" viewBox="-10 0 512 512.00001" width="512pt" xmlns="http://www.w3.org/2000/svg"><path d="m60.980469 73.136719s-81.125.246093-43.417969 339.539062c1.914062 17.203125 23.585938 23.644531 34.582031 10.273438 30.828125-37.472657 75.035157-92.113281 75.035157-92.113281v-230.433594zm0 0" fill="#bf8eed"/><path d="m431.027344 73.136719s81.125.246093 43.417968 339.539062c-1.914062 17.203125-23.585937 23.644531-34.582031 10.273438-30.828125-37.472657-75.035156-92.113281-75.035156-92.113281v-230.433594zm0 0" fill="#bf8eed"/><path d="m60.371094 34.230469c-8.671875 4.453125-12.472656 15.863281-11.136719 29.5625.78125 8.027343-3.429687 15.816406-10.570313 19.566406-12.191406 6.390625-19.652343 15.820313-18.625 25.515625 1.648438 15.503906 24.375 25.804688 50.769532 23.003906 13.347656-1.417968 25.074218-5.917968 33.195312-12.027344.085938-.042968 11.578125-21.3125 11.566406-21.410156.65625-10.136718-2.003906-22.410156-8.136718-34.355468-12.121094-23.609376-33.191406-36.976563-47.0625-29.855469zm0 0" fill="#ff97bd"/><path d="m431.636719 34.230469c8.671875 4.453125 12.46875 15.863281 11.136719 29.5625-.78125 8.027343 3.425781 15.816406 10.570312 19.566406 12.191406 6.390625 19.652344 15.820313 18.621094 25.515625-1.644532 15.503906-24.371094 25.804688-50.765625 23.003906-13.351563-1.417968-25.074219-5.917968-33.195313-12.027344-.089844-.042968-11.582031-21.3125-11.570312-21.410156-.65625-10.136718 2.007812-22.410156 8.136718-34.355468 12.125-23.609376 33.195313-36.976563 47.066407-29.855469zm0 0" fill="#ff97bd"/><path d="m134.738281 297.867188c0 28.777343-23.328125 52.101562-52.105469 52.101562-28.773437 0-52.101562-23.324219-52.101562-52.101562 0-28.777344 23.328125-52.101563 52.101562-52.101563 28.777344 0 52.105469 23.324219 52.105469 52.101563zm0 0" fill="#d8d7da"/><path d="m461.476562 297.867188c0 28.777343-23.328124 52.101562-52.105468 52.101562-28.773438 0-52.101563-23.324219-52.101563-52.101562 0-28.777344 23.328125-52.101563 52.101563-52.101563 28.777344 0 52.105468 23.324219 52.105468 52.101563zm0 0" fill="#eaeaea"/><path d="m92.445312 504.5h307.117188c30.054688 0 44.289062-36.9375 22.09375-57.203125-35.242188-32.183594-92.128906-65.972656-175.652344-65.972656-83.523437 0-140.414062 33.789062-175.65625 65.972656-22.191406 20.265625-7.957031 57.203125 22.097656 57.203125zm0 0" fill="#aadce2"/><path d="m315.613281 436.429688v-46.558594c-20.785156-5.355469-43.933593-8.546875-69.609375-8.546875-83.523437 0-140.410156 33.789062-175.652344 65.96875-22.195312 20.269531-7.960937 57.207031 22.09375 57.207031h134.699219c55.988281-12.878906 88.46875-68.070312 88.46875-68.070312zm0 0" fill="#8fd0db"/><path d="m80.925781 438.160156c5.683594 8.929688 11.835938 18.59375 22.070313 23.234375 13.410156 6.078125 33.21875-1.875 49.835937 2.285157 14.699219 3.675781 28 20.269531 44.601563 22.160156 15.3125 1.738281 32.105468-11.292969 48.570312-11.292969 16.460938 0 33.253906 13.035156 48.566406 11.292969 16.601563-1.890625 29.902344-18.484375 44.601563-22.160156 16.617187-4.15625 36.425781 3.792968 49.835937-2.285157 10.234376-4.640625 16.386719-14.304687 22.074219-23.234375-35.65625-29.128906-89.445312-56.835937-165.078125-56.835937-75.632812 0-129.425781 27.707031-165.078125 56.835937zm0 0" fill="#c2e8ef"/><path d="m315.613281 389.875c-20.785156-5.359375-43.9375-8.550781-69.609375-8.550781-75.632812 0-129.425781 27.707031-165.082031 56.835937 5.6875 8.929688 11.839844 18.59375 22.074219 23.234375 13.410156 6.078125 33.21875-1.875 49.832031 2.285157 14.703125 3.675781 28.003906 20.269531 44.605469 22.160156 15.3125 1.738281 32.105468-11.292969 48.570312-11.292969 9.277344 0 18.664063 4.144531 27.828125 7.445313 26.929688-20.324219 41.78125-45.5625 41.78125-45.5625zm0 0" fill="#aadce2"/><path d="m246.003906 452.109375c-89.855468 0-163.371094-73.515625-163.371094-163.367187v-84.785157c0-89.851562 73.515626-163.367187 163.371094-163.367187 89.851563 0 163.367188 73.515625 163.367188 163.367187v84.785157c0 89.851562-73.515625 163.367187-163.367188 163.367187zm0 0" fill="#f4f4f4"/><path d="m205.148438 262.433594c28.347656-85.007813 13.722656-167.289063-.90625-216.398438-69.792969 18.574219-121.609376 82.492188-121.609376 157.921875v84.785157c0 76.414062 53.183594 141.015624 124.351563 158.628906-15.152344-38.386719-29.070313-103.257813-1.835937-184.9375zm0 0" fill="#eaeaea"/><path d="m169 375.003906c4.273438-28.542968-15.402344-55.144531-43.941406-59.414062-14.074219-2.105469-27.664063 1.617187-38.351563 9.34375 8.054688 35.253906 27.597657 66.257812 54.441407 88.828125 14.460937-7.425781 25.261718-21.457031 27.851562-38.757813zm0 0" fill="#ffb0d0"/><path d="m323.003906 375.003906c-4.269531-28.542968 15.402344-55.144531 43.945313-59.414062 14.070312-2.105469 27.664062 1.617187 38.351562 9.34375-8.054687 35.253906-27.597656 66.257812-54.445312 88.828125-14.457031-7.425781-25.261719-21.457031-27.851563-38.757813zm0 0" fill="#ffb0d0"/><path d="m246.003906 7.5c-226.589844 0-196.476562 259.5625-169.925781 382.042969 3.222656 14.859375 24.566406 14.460937 27.257813-.507813l38.054687-211.625h209.226563l38.054687 211.625c2.691406 14.96875 24.03125 15.367188 27.253906.507813 26.554688-122.480469 56.667969-382.042969-169.921875-382.042969zm0 0" fill="#ce9df4"/><path d="m330.699219 217.523438h-169.394531c-17.546876 0-31.773438-14.226563-31.773438-31.773438v-28.6875c0-64.328125 52.144531-116.472656 116.472656-116.472656 64.324219 0 116.46875 52.144531 116.46875 116.472656v28.6875c0 17.546875-14.222656 31.773438-31.773437 31.773438zm0 0" fill="#eac2ff"/><path d="m234.449219 217.523438c-34.238281-72.929688-21.511719-142.707032-12.394531-174.46875-52.835938 11.042968-92.523438 57.890624-92.523438 114.003906v28.691406c0 17.546875 14.226562 31.773438 31.773438 31.773438zm0 0" fill="#dfaeff"/><path d="m326.660156 308.632812c4.140625 0 7.5-3.359374 7.5-7.5v-12.449218c0-4.144532-3.359375-7.5-7.5-7.5-4.144531 0-7.5 3.355468-7.5 7.5v12.449218c0 4.140626 3.355469 7.5 7.5 7.5zm0 0"/><path d="m165.347656 308.632812c4.144532 0 7.5-3.359374 7.5-7.5v-12.449218c0-4.144532-3.355468-7.5-7.5-7.5-4.144531 0-7.5 3.355468-7.5 7.5v12.449218c0 4.140626 3.355469 7.5 7.5 7.5zm0 0"/><path d="m218.488281 307.0625c8.101563 6.28125 17.808594 9.421875 27.515625 9.421875 9.707032 0 19.414063-3.140625 27.515625-9.421875 3.269531-2.539062 3.867188-7.25 1.328125-10.523438-2.539062-3.273437-7.25-3.867187-10.523437-1.328124-10.785157 8.367187-25.851563 8.367187-36.640625 0-3.269532-2.539063-7.984375-1.945313-10.519532 1.328124-2.542968 3.273438-1.949218 7.984376 1.324219 10.523438zm0 0"/><path d="m476.144531 119.5625c1.769531-3.046875 2.902344-6.359375 3.28125-9.894531 1.328125-12.515625-7.121093-24.835938-22.597656-32.953125-4.425781-2.320313-7.074219-7.222656-6.589844-12.195313 1.695313-17.394531-3.980469-31.210937-15.175781-36.960937-9.171875-4.707032-20.40625-3.378906-31.632812 3.742187-7.304688 4.636719-14.105469 11.453125-19.761719 19.699219-32.714844-33.851562-78.941407-51-137.664063-51s-104.953125 17.148438-137.664062 51c-5.65625-8.246094-12.457032-15.0625-19.765625-19.699219-11.226563-7.121093-22.457031-8.449219-31.628907-3.742187-11.195312 5.75-16.871093 19.566406-15.175781 36.960937.484375 4.976563-2.164062 9.875-6.589843 12.195313-15.476563 8.117187-23.925782 20.4375-22.597657 32.953125.375 3.535156 1.511719 6.847656 3.277344 9.894531-19 58.429688-20.941406 157.242188-5.75 293.941406 1.222656 11.007813 8.605469 19.71875 19.199219 22.960938 12.894531 3.945312 23.339844-2.324219 28.628906-8.75 5.601562-6.8125 12.078125-14.714844 19.296875-23.550782 9.472656 6.601563 27.683594 5.390626 33.0625-11.917968 3 3.914062 6.164063 7.695312 9.484375 11.339844-19.632812 10.242187-37.925781 23.046874-54.488281 38.171874-12.628907 11.53125-16.636719 28.585938-10.460938 44.507813 6.15625 15.875 20.570313 25.734375 37.613281 25.734375h307.117188c17.042969 0 31.453125-9.859375 37.609375-25.734375 6.175781-15.921875 2.167969-32.976563-10.457031-44.507813-16.5625-15.125-34.855469-27.933593-54.484375-38.175781 3.320312-3.640625 6.476562-7.425781 9.476562-11.339843 3.878907 16.828124 24.484375 19.859374 33.0625 11.921874 7.199219 8.808594 13.679688 16.71875 19.300781 23.550782 5.285157 6.429687 14.742188 12.0625 28.625 8.75 10.777344-2.566406 17.976563-11.953125 19.199219-22.960938 15.183594-136.597656 13.242188-235.445312-5.75-293.941406zm-64.679687-75.59375c6.457031-4.097656 12.5625-5.214844 16.746094-3.066406 5.4375 2.792968 8.15625 11.285156 7.097656 22.164062-1.066406 10.984375 4.78125 21.808594 14.554687 26.933594 9.679688 5.078125 15.292969 12.007812 14.644531 18.085938-.972656 9.171874-16.707031 17.769531-38.355468 16.660156-7.800782-24.050782-18.554688-44.765625-32.21875-62.003906 4.894531-8.003907 11.109375-14.699219 17.53125-18.773438zm29.230468 222.152344c8.378907 8.253906 13.28125 19.585937 13.28125 31.746094 0 15.351562-8.007812 29.425781-20.476562 37.5 3.234375-21.53125 5.910156-45.058594 7.195312-69.246094zm-398.550781-176.121094c9.773438-5.125 15.621094-15.949219 14.554688-26.933594-1.058594-10.878906 1.660156-19.371094 7.097656-22.164062 4.183594-2.148438 10.289063-1.03125 16.742187 3.0625 6.425782 4.078125 12.636719 10.769531 17.535157 18.777344-13.664063 17.238281-24.417969 37.953124-32.21875 62.003906-21.644531 1.105468-37.382813-7.488282-38.355469-16.660156-.648438-6.082032 4.964844-13.011719 14.644531-18.085938zm16.363281 245.367188c-12.46875-8.074219-20.476562-22.148438-20.476562-37.5 0-12.140626 4.902344-23.484376 13.28125-31.742188 1.285156 24.183594 3.957031 47.710938 7.195312 69.242188zm-12.15625 82.820312c-3.183593 3.871094-7.957031 5.332031-12.769531 3.898438-4.808593-1.429688-8.011719-5.257813-8.566406-10.238282-17.335937-155.996094-9.007813-237.851562 2.949219-280.464844 8.683594 5.261719 20.390625 8.347657 33.5 8.449219-6.6875 25.738281-10.34375 54.863281-10.910156 87.25-.117188 6.839844-.085938 13.6875.058593 20.511719-17.125 10.902344-27.582031 29.75-27.582031 50.273438 0 24.75 15.574219 47.015624 38.414062 55.722656 2.355469 13.660156 4.859376 26.238281 7.253907 37.308594-8.460938 10.371093-15.96875 19.53125-22.347657 27.289062zm95.074219-198.585938c5.835938 3.4375 12.628907 5.421876 19.878907 5.421876h169.394531c7.253906 0 14.046875-1.984376 19.882812-5.421876l15.910157 88.484376c-30.378907 2.171874-55.78125 35.441406-50.90625 68.027343 2.28125 15.226563 10.410156 28.898438 22.371093 38.246094-4.574219 3.363281-9.320312 6.496094-14.242187 9.351563-23.582032 13.671874-50.453125 20.898437-77.710938 20.898437-27.453125 0-54.496094-7.324219-78.199218-21.183594-4.753907-2.777343-9.335938-5.8125-13.757813-9.066406 11.960937-9.347656 20.09375-23.015625 22.375-38.246094 4.875-32.585937-13.382813-61.105469-50.90625-68.027343zm208.5625 184.960938c-10.492187-6.964844-17.6875-18.113281-19.566406-30.667969-3.652344-24.40625 17.109375-47.207031 38.730469-51.03125l8.746094 48.636719c-7.746094 12.265625-17.160157 23.394531-27.910157 33.0625zm-227.132812-81.699219c29.117187 5.296875 42.382812 26.625 38.730469 51.03125-1.882813 12.554688-9.074219 23.703125-19.566407 30.667969-10.75-9.667969-20.167969-20.789062-27.910156-33.050781zm300.332031 157.976563c-3.027344 7.8125-10.828125 16.160156-23.625 16.160156h-307.117188c-12.800781 0-20.597656-8.347656-23.628906-16.160156-3.042968-7.847656-1.441406-24.757813 10.480469-31.476563 5.121094 7.425781 12.589844 20.378907 32.128906 21.671875 3.78125.25 7.042969-2.863281 7.449219-6.71875.433594-4.117187-2.554688-7.820312-6.671875-8.242187-11.273437-1.148438-17.074219-10.0625-21.269531-16.273438 12.523437-9.671875 25.902344-18.058593 39.984375-25.054687 8.964843 8.199218 18.785156 15.472656 29.316406 21.628906 26 15.203125 55.660156 23.234375 85.769531 23.234375 29.894532 0 59.371094-7.925781 85.234375-22.921875 10.734375-6.222656 20.742188-13.601562 29.863281-21.945312 14.074219 6.996093 27.449219 15.386718 39.972657 25.054687-4.195313 6.214844-8.851563 11.90625-15.164063 14.765625-5.367187 2.433594-13.304687 1.777344-21.707031 1.078125-8.789063-.726563-17.878906-1.480469-26.847656.761719-7.898438 1.976562-14.96875 6.746094-21.804688 11.359375-7.46875 5.035156-14.523437 9.796875-21.828125 10.625-6.238281.707031-13.6875-2.066407-21.570312-5.007813-8.339844-3.113281-16.960938-6.332031-26.148438-6.332031s-17.8125 3.21875-26.152344 6.332031c-7.882812 2.9375-15.324218 5.71875-21.570312 5.007813-7.304688-.828125-14.359375-5.589844-21.828125-10.628907-6.835937-4.609374-17.601563-12.828124-33.84375-12.828124-4.105469 0-7.5625 3.214843-7.644531 7.355468-.078125 4.140625 3.226562 7.351563 7.355468 7.640625 11.140626.78125 19.71875 6.203125 25.746094 10.269531 8.234375 5.554688 17.566406 11.851563 28.519532 13.097657 9.8125 1.113281 19.316406-2.433594 28.511718-5.859375 7.417969-2.769532 14.425782-5.382813 20.90625-5.382813 6.476563 0 13.484375 2.613281 20.90625 5.382813 8.011719 2.988281 16.265625 6.066406 24.75 6.066406 12.863282 0 24.042969-7.75 32.277344-13.304688 6.027344-4.066406 11.71875-7.90625 17.054688-9.238281 6.5625-1.644531 14.394531-.992187 21.96875-.363281 9.941406.824219 20.222656 1.675781 29.140624-2.367188 9.265626-4.203124 15.484376-11.4375 20.609376-18.859374 14.007812 10.753906 13.523437 23.625 10.476562 31.472656zm-20.941406-87.863282c-1.234375-.023437-5.332032-.46875-6.191406-5.265624l-32.464844-180.53125c4.03125-6.167969 6.386718-13.527344 6.386718-21.429688v-28.691406c0-30.679688-11.296874-60.121094-31.800781-82.90625-2.773437-3.078125-7.515625-3.328125-10.59375-.558594-3.078125 2.773438-3.328125 7.515625-.554687 10.59375 18.023437 20.023438 27.949218 45.90625 27.949218 72.871094v28.691406c0 13.382812-10.890624 24.273438-24.273437 24.273438h-169.398437c-13.382813 0-24.273438-10.890626-24.273438-24.273438v-28.691406c0-60.085938 48.886719-108.96875 108.972656-108.96875 21.140625 0 41.640625 6.058594 59.285156 17.519531 3.472657 2.257813 8.117188 1.269531 10.375-2.203125 2.257813-3.472656 1.269532-8.117188-2.203124-10.375-20.082032-13.046875-43.40625-19.941406-67.457032-19.941406-68.359375 0-123.972656 55.613281-123.972656 123.96875v28.691406c0 7.902344 2.355469 15.261719 6.386719 21.429688l-32.464844 180.53125c-.863281 4.796874-4.957031 5.242187-6.191406 5.265624-1.222657.011719-5.320313-.273437-6.351563-5.023437-18.070312-83.347656-38.5625-235.34375 27.183594-316.875 30.011719-37.210937 75.566406-56.078125 135.410156-56.078125 59.839844 0 105.398438 18.867188 135.410156 56.082031 65.746094 81.527344 45.25 233.523438 27.183594 316.871094-1.03125 4.75-5.125 5.035156-6.351562 5.023437zm64.742187 18.871094c-.550781 4.980469-3.753906 8.808594-8.5625 10.238282-4.8125 1.429687-9.585937-.027344-12.769531-3.898438-6.402344-7.78125-13.917969-16.957031-22.351562-27.285156 2.398437-11.070313 4.898437-23.652344 7.257812-37.3125 22.835938-8.707032 38.414062-30.972656 38.414062-55.722656 0-20.5625-10.449218-39.375-27.585937-50.273438.148437-6.824219.179687-13.667969.058594-20.511719-.5625-32.386719-4.21875-61.507812-10.90625-87.246093 13.113281-.105469 24.824219-3.195313 33.507812-8.460938 20.125 71.3125 12.914063 190.710938 2.9375 280.472656zm0 0"/></svg>