<svg height="512pt" viewBox="-33 0 512 512.00023" width="512pt" xmlns="http://www.w3.org/2000/svg"><path d="m118.035156 53.738281s-88.171875 48.332031-92.515625 244.125c-.835937 48.855469-1.03125 84.082031-.953125 108.953125.09375 29.074219 24.257813 52.285156 53.3125 51.203125l311.5625-11.601562 6.65625-221.1875zm0 0" fill="#9ad880"/><path d="m111.710938 297.863281c0 28.777344-23.328126 52.105469-52.105469 52.105469-28.777344 0-52.105469-23.328125-52.105469-52.105469 0-28.777343 23.328125-52.105469 52.105469-52.105469 28.777343 0 52.105469 23.328126 52.105469 52.105469zm0 0" fill="#d8d7da"/><path d="m72.425781 504.503906h307.128907c30.054687 0 44.289062-36.9375 22.09375-57.207031-35.242188-32.183594-92.132813-65.972656-175.660157-65.972656-83.523437 0-140.414062 33.789062-175.65625 65.972656-22.195312 20.265625-7.960937 57.207031 22.09375 57.207031zm0 0" fill="#9dad92"/><path d="m269.949219 445.179688v-60.5625c-13.75-2.121094-28.390625-3.292969-43.960938-3.292969-83.523437 0-140.414062 33.789062-175.65625 65.972656-22.195312 20.265625-7.960937 57.207031 22.09375 57.207031h117.390625c60.824219-13.742187 80.132813-59.324218 80.132813-59.324218zm0 0" fill="#8e9b84"/><path d="m136.648438 395.824219c-37.035157 12.835937-65.46875 32.433593-86.316407 51.472656-22.195312 20.265625-7.960937 57.207031 22.09375 57.207031h88.789063zm0 0" fill="#9479bc"/><path d="m315.335938 395.824219c37.03125 12.835937 65.464843 32.433593 86.3125 51.472656 22.195312 20.265625 7.960937 57.207031-22.09375 57.207031h-88.789063zm0 0" fill="#aa85d6"/><path d="m222.980469 452.113281c-89.855469 0-163.375-73.519531-163.375-163.375v-84.785156c0-89.855469 73.519531-163.375 163.375-163.375s163.375 73.515625 163.375 163.375v84.785156c0 89.855469-73.519531 163.375-163.375 163.375zm0 0" fill="#f4f4f4"/><path d="m222.980469 40.578125c-89.855469 0-163.375 73.515625-163.375 163.375v84.785156c0 59.777344 32.550781 112.332031 80.789062 140.8125-8.167969-37.582031-7.585937-75.253906-4.25-105.855469 3.703125-33.988281 20.46875-65.265624 46.683594-87.214843 52.800781-44.210938 68.136719-133.445313 72.300781-192.703125-10.402344-2.097656-21.152344-3.199219-32.148437-3.199219zm0 0" fill="#eaeaea"/><path d="m176.007812 294.902344c0-22.46875-15.082031-40.6875-33.6875-40.6875-18.605468 0-33.6875 18.21875-33.6875 40.6875 0 22.472656 15.082032 40.6875 33.6875 40.6875 18.605469 0 33.6875-18.214844 33.6875-40.6875zm0 0" fill="#898890"/><path d="m337.328125 294.902344c0-22.46875-15.085937-40.6875-33.6875-40.6875-18.605469 0-33.691406 18.21875-33.691406 40.6875 0 22.472656 15.085937 40.6875 33.691406 40.6875 18.601563 0 33.6875-18.214844 33.6875-40.6875zm0 0" fill="#898890"/><path d="m222.980469 349.835938c-15.519531 0-28.101563-12.582032-28.101563-28.101563v-20.429687c0-4.238282 3.433594-7.671876 7.671875-7.671876h40.859375c4.238282 0 7.671875 3.433594 7.671875 7.671876v20.429687c0 15.519531-12.582031 28.101563-28.101562 28.101563zm0 0" fill="#57565c"/><path d="m198.917969 108.382812s-28.578125 56.519532-71.761719 74.933594c-43.183594 18.417969-67.550781 62.441406-67.550781 62.441406s-36.597657-213.453124 139.3125-213.453124zm0 0" fill="#9ad880"/><path d="m136.636719 178.5625c37.835937-21.835938 62.28125-70.179688 62.28125-70.179688s0-74.9375 0-76.078124c-34.113281 0-60.226563 8.023437-80.175781 20.964843-5.4375 34.15625-7.175782 84.847657 17.894531 125.292969zm0 0" fill="#8dc971"/><path d="m166.792969 96.695312c9.910156 25.609376 29.542969 52.5 68.042969 67.117188 10.070312 3.824219 18.265624 11.402344 23.03125 21.0625 10.609374 21.515625 34.902343 59.976562 81.347656 84.632812 13.207031 7.007813 21.648437 20.546876 22.496094 35.472657 1.6875 29.871093 3.394531 80.242187-.761719 123.246093-1.546875 15.984376 19.050781 23.730469 28.492187 10.742188 21.476563-29.535156 44.691406-76.386719 47.835938-143.164062 5.582031-118.582032-30.714844-164.625-67.390625-220.9375-27.847657-42.757813-89.292969-75.714844-152.671875-65.511719-40.792969 6.566406-65.332032 48.808593-50.421875 87.339843zm0 0" fill="#b2e59c"/><path d="m296.136719 288.679688v12.449218c0 4.144532 3.359375 7.5 7.503906 7.5 4.140625 0 7.5-3.355468 7.5-7.5v-12.449218c0-4.144532-3.359375-7.5-7.5-7.5-4.144531 0-7.503906 3.355468-7.503906 7.5zm0 0"/><path d="m142.320312 281.179688c-4.144531 0-7.5 3.355468-7.5 7.5v12.449218c0 4.144532 3.355469 7.5 7.5 7.5 4.144532 0 7.5-3.355468 7.5-7.5v-12.449218c0-4.144532-3.355468-7.5-7.5-7.5zm0 0"/><path d="m142.320312 246.714844c-22.710937 0-41.1875 21.617187-41.1875 48.1875 0 26.570312 18.476563 48.1875 41.1875 48.1875 22.710938 0 41.1875-21.617188 41.1875-48.1875 0-26.570313-18.476562-48.1875-41.1875-48.1875zm0 81.375c-14.4375 0-26.1875-14.886719-26.1875-33.1875 0-18.296875 11.746094-33.183594 26.1875-33.183594 14.441407 0 26.1875 14.886719 26.1875 33.183594 0 18.300781-11.746093 33.1875-26.1875 33.1875zm0 0"/><path d="m187.378906 321.734375c0 19.628906 15.96875 35.601563 35.601563 35.601563 19.628906 0 35.597656-15.972657 35.601562-35.601563v-20.429687c0-8.367188-6.808593-15.171876-15.171875-15.171876h-40.859375c-8.367187 0-15.171875 6.804688-15.171875 15.171876zm15-20.429687c0-.097657 41.203125-.097657 41.203125 0v20.429687c-.003906 11.355469-9.242187 20.597656-20.601562 20.597656s-20.601563-9.238281-20.601563-20.597656zm0 0"/><path d="m383.449219 81.867188c-1.335938-2.027344-6.691407-13.597657-14.402344-8.261719-7.714844 5.335937.539063 14.480469 1.878906 16.515625 34.316407 52.085937 63.957031 97.074218 58.859375 205.332031-3.132812 66.53125-26.96875 112.371094-46.410156 139.105469-2.75 3.785156-6.800781 3.972656-9.675781 2.875-1.382813-.519532-5.847657-2.683594-5.285157-8.488282 4.078126-42.195312 2.679688-90.933593.785157-124.390624-.996094-17.566407-11.136719-33.539063-26.46875-41.671876-44.824219-23.796874-68.195313-61.167968-78.140625-81.328124-5.660156-11.476563-15.28125-20.269532-27.09375-24.753907-30.648438-11.636719-52.085938-32.769531-63.710938-62.8125-6.246094-16.148437-4.890625-34.015625 3.722656-49.023437 8.6875-15.140625 23.597657-25.421875 40.898438-28.207032 24.078125-3.875 49.46875-1.3125 73.425781 7.40625 22.238281 8.101563 42.207031 20.96875 57.746094 37.214844 2.863281 2.996094 7.609375 3.101563 10.605469.238282 2.992187-2.863282 3.101562-7.609376.234375-10.605469-17.117188-17.902344-39.0625-32.058594-63.453125-40.941407-26.351563-9.59375-54.335938-12.40625-80.941406-8.121093-17.308594 2.785156-32.703126 11.550781-43.800782 24.59375-53.554687 8.335937-79.734375 34-100.003906 63.867187-34.390625 50.671875-47.058594 115.6875-51.589844 162.410156-12.621094 10.9375-20.628906 27.066407-20.628906 45.039063 0 16.398437 6.65625 31.269531 17.410156 42.054687-.289062 24.984376-.40625 47.484376-.34375 66.921876.054688 17.234374 7.570313 33.339843 20.425782 44.417968-6.207032 10.425782-7.324219 23.039063-2.679688 35.011719 6.15625 15.875 20.570312 25.734375 37.613281 25.734375h307.128907c17.042968 0 31.453124-9.859375 37.609374-25.734375 6.179688-15.921875-3.09375-40.746094-16.6875-50.011719 19.542969-29.097656 41.242188-75.410156 44.289063-140.097656 5.328125-113.132812-27.042969-162.269531-61.316406-214.289062zm-28.34375 323.257812c-1.636719-.878906-3.285157-1.738281-4.941407-2.582031 1.828126-2.039063 3.601563-4.121094 5.332032-6.246094-.109375 2.949219-.242188 5.894531-.390625 8.828125zm-25.277344-110.21875c0 18.296875-11.75 33.183594-26.1875 33.183594-14.441406 0-26.191406-14.886719-26.191406-33.183594 0-18.300781 11.75-33.1875 26.191406-33.1875 14.4375 0 26.1875 14.886719 26.1875 33.1875zm-97.65625-124.082031c8.253906 3.132812 14.988281 9.300781 18.964844 17.367187 7.265625 14.730469 21.195312 37.976563 44.460937 59.453125-18.875 4.386719-33.148437 23.90625-33.148437 47.257813 0 26.570312 18.476562 48.1875 41.191406 48.1875 22.707031 0 41.1875-21.617188 41.1875-48.1875 0-4.628906-.574219-9.105469-1.621094-13.347656 6.441407 6.125 10.492188 14.667968 11.015625 23.847656.871094 15.398437 1.875 38.871094 1.792969 64.265625-13.550781 22.128906-32.484375 40.707031-54.898437 53.796875-23.6875 13.832031-47.316407 22.058594-89.320313 20.746094-4.136719-.128907-7.71875 2.8125-8.015625 6.945312s2.820312 7.640625 6.945312 8.015625c30.496094 2.777344 63.304688-5.429687 86.347657-16.589844l-12.300781 54.417969h-117.566407l-11.597656-51.308594c6.628906 2.863282 13.382813 5.757813 20.558594 7.359375 5.335937 1.191407 8.332031-1.851562 9.277343-5.140625 1.140626-3.984375-1.160156-8.136718-5.144531-9.277344-66.648437-19.109374-113.195312-80.75-113.195312-149.898437v-40.9375c4.730469-7.816406 27.15625-42.296875 62.992187-57.582031 23.753906-10.128906 43.132813-30.703125 56.488282-48.566406 12.328124 12.566406 27.550781 22.328124 45.585937 29.175781zm-148.230469-70.964844c19.53125-29.160156 40.542969-47.535156 77.394532-56.132813-7.949219 17.550782-8.582032 37.476563-1.539063 55.675782 4.375 11.308594 9.976563 21.5 16.765625 30.5625-12.214844 16.875-30.394531 37.089844-52.347656 46.453125-38.074219 16.238281-61.890625 50.628906-68.976563 62.019531-6.484375.472656-12.683593 1.976562-18.429687 4.363281 5.199218-43.292969 17.683594-98.96875 47.132812-142.941406zm-31.835937 154.042969v34.835937c0 18.582031 3.074219 36.667969 8.777343 53.695313-21.367187-1.234375-45.882812-19.976563-45.882812-44.570313 0-22.039062 16.070312-40.382812 37.105469-43.960937zm-20.039063 152.890625c-.050781-16.546875.027344-35.324219.230469-55.976563 8.1875 4.238282 20.421875 7.796875 34.242187 6.242188 7.707032 17.492187 18.285157 33.582031 31.21875 47.582031-18.074218 9.636719-34.988281 21.46875-50.433593 35.277344-9.597657-8.257813-15.214844-20.269531-15.257813-33.125zm16.730469 74.050781c-3.042969-7.851562-2.910156-19.332031 6.589844-28.007812 16.234375-14.828126 34.242187-27.292969 53.585937-37.125 8.933594 8.054687 18.738282 15.203124 29.289063 21.277343l13.566406 60.015625h-79.402344c-12.800781-.003906-20.597656-8.347656-23.628906-16.160156zm354.382813 0c-3.027344 7.8125-10.828126 16.15625-23.625 16.15625h-79.402344l14.527344-64.273438c8.703124-5.574218 16.886718-11.917968 24.4375-18.9375 5.042968 2.453126 10.019531 5.089844 14.882812 7.890626-.160156 1.953124-.332031 3.898437-.519531 5.824218-1.019531 10.5625 4.707031 20.953125 14.898437 23.957032 9.964844 2.941406 18.632813-.203126 22.734375-3.480469 13.648438 10.074219 15.113281 25.011719 12.066407 32.863281zm0 0"/></svg>