<svg height="511pt" viewBox="-7 0 511 511.99942" width="511pt" xmlns="http://www.w3.org/2000/svg"><path d="m95.683594 504.5h307.121094c30.054687 0 44.289062-36.9375 22.09375-57.203125-35.242188-32.183594-92.128907-65.972656-175.65625-65.972656-83.523438 0-140.410157 33.789062-175.652344 65.972656-22.195313 20.265625-7.960938 57.203125 22.09375 57.203125zm0 0" fill="#c2e8ef"/><path d="m424.898438 447.296875c-35.242188-32.183594-92.128907-65.972656-175.652344-65.972656-59.867188 0-106.050782 17.355469-140.386719 39.042969 3.175781 20.238281 10.875 53.164062 29.285156 84.132812h264.660157c30.054687 0 44.289062-36.9375 22.09375-57.203125zm0 0" fill="#def4f9"/><path d="m484.710938 196.980469-40.476563-47.660157 29.988281-64.792968c5.210938-11.261719-2.214844-24.300782-14.558594-25.566406l-78.011718-7.984376 13.507812-24.410156c5.195313-9.394531-2.742187-20.640625-13.335937-18.886718 0 0-89.519531 24.632812-132.269531 24.632812s-132.582032-24.632812-132.582032-24.632812c-10.59375-1.753907-18.53125 9.492187-13.332031 18.886718l13.503906 24.410156-78.011719 7.984376c-12.34375 1.265624-19.769531 14.304687-14.558593 25.566406l29.988281 64.792968-40.476562 47.660157c-8.746094 10.300781-8.0625 25.605469 1.570312 35.082031l47.117188 46.347656-42.667969 60.90625c-10.097657 14.414063-1.949219 34.449219 15.347656 37.722656l125.632813 23.765626h176.621093l125.636719-23.765626c17.296875-3.273437 25.445312-23.308593 15.347656-37.722656l-42.667968-60.90625 47.113281-46.347656c9.636719-9.476562 10.324219-24.78125 1.574219-35.082031zm0 0" fill="#d8d7da"/><path d="m199.582031 26.550781c-40.34375-7.28125-82.609375-18.871093-82.609375-18.871093-10.589844-1.753907-18.53125 9.492187-13.332031 18.886718l13.503906 24.410156-78.011719 7.984376c-12.339843 1.265624-19.765624 14.304687-14.554687 25.566406l29.984375 64.792968-40.472656 47.660157c-8.75 10.300781-8.066406 25.605469 1.570312 35.082031l47.117188 46.347656-42.667969 60.90625c-10.101563 14.414063-1.949219 34.449219 15.34375 37.722656l125.636719 23.765626h77.007812c-81.273437-177.367188-58.113281-312.195313-38.515625-374.253907zm0 0" fill="#c6c5ca"/><path d="m137.976562 297.867188c0 28.773437-23.324218 52.101562-52.101562 52.101562s-52.101562-23.328125-52.101562-52.101562c0-28.777344 23.324218-52.105469 52.101562-52.105469s52.101562 23.328125 52.101562 52.105469zm0 0" fill="#ffaea1"/><path d="m464.71875 297.867188c0 28.773437-23.328125 52.101562-52.105469 52.101562-28.773437 0-52.101562-23.328125-52.101562-52.101562 0-28.777344 23.328125-52.105469 52.101562-52.105469 28.777344 0 52.105469 23.328125 52.105469 52.105469zm0 0" fill="#ffcfc2"/><path d="m249.246094 452.109375c-89.855469 0-163.371094-73.515625-163.371094-163.371094v-84.78125c0-89.855469 73.515625-163.371093 163.371094-163.371093 89.851562 0 163.367187 73.515624 163.367187 163.371093v84.78125c0 89.855469-73.515625 163.371094-163.367187 163.371094zm0 0" fill="#ffe2d9"/><path d="m249.246094 40.585938c-89.855469 0-163.371094 73.515624-163.371094 163.371093v84.785157c0 59.773437 32.546875 112.328124 80.785156 140.808593-8.164062-37.582031-7.582031-75.253906-4.25-105.855469 3.703125-33.984374 20.472656-65.261718 46.683594-87.210937 52.796875-44.207031 68.136719-133.441406 72.300781-192.699219-10.402343-2.097656-21.152343-3.199218-32.148437-3.199218zm0 0" fill="#ffcfc2"/><path d="m249.246094 32.3125c-214.511719 0-163.371094 213.449219-163.371094 213.449219l63.027344-71.359375 100.34375-49.121094 100.339844 49.121094 63.027343 71.359375s51.140625-213.449219-163.367187-213.449219zm0 0" fill="#d8d7da"/><path d="m196.332031 37.449219c-152.574219 32.5-110.460937 208.3125-110.460937 208.3125l63.03125-71.359375 31.894531-15.613282c-.335937-51.207031 7.394531-92.367187 15.535156-121.339843zm0 0" fill="#c6c5ca"/><path d="m270.78125 144.710938c-5.710938-5.714844-13.304688-8.859376-21.382812-8.859376-8.078126 0-15.671876 3.144532-21.382813 8.859376l-21.210937-21.214844c11.375-11.378906 26.503906-17.644532 42.59375-17.644532 16.089843 0 31.21875 6.265626 42.597656 17.644532zm0 0" fill="#8e9b84"/><path d="m233.988281 134.105469c0 35.15625-28.496093 63.65625-63.652343 63.65625s-63.652344-28.5-63.652344-63.65625c0-35.152344 28.496094-63.652344 63.652344-63.652344s63.652343 28.5 63.652343 63.652344zm0 0" fill="#9dad92"/><path d="m170.335938 167.757812c-18.558594 0-33.652344-15.09375-33.652344-33.652343 0-18.554688 15.097656-33.652344 33.652344-33.652344 18.554687 0 33.652343 15.097656 33.652343 33.652344 0 18.558593-15.097656 33.652343-33.652343 33.652343zm0 0" fill="#ccf8ff"/><path d="m391.804688 134.105469c0 35.15625-28.496094 63.65625-63.652344 63.65625-35.152344 0-63.652344-28.5-63.652344-63.65625 0-35.152344 28.5-63.652344 63.652344-63.652344 35.15625 0 63.652344 28.5 63.652344 63.652344zm0 0" fill="#9dad92"/><path d="m328.152344 167.757812c-18.554688 0-33.652344-15.09375-33.652344-33.652343 0-18.554688 15.097656-33.652344 33.652344-33.652344 18.554687 0 33.652344 15.097656 33.652344 33.652344 0 18.558593-15.097657 33.652343-33.652344 33.652343zm0 0" fill="#ccf8ff"/><path d="m288.640625 305.386719c-9.734375-6.929688-22.207031-7.171875-31.960937-1.652344-4.640626 2.625-10.230469 2.625-14.871094 0-9.753906-5.519531-22.226563-5.277344-31.960938 1.652344-13.40625 9.542969-44.019531 47.707031-34.480468 61.113281 7.605468 10.683594 49.105468-5.378906 66.367187-13.140625 4.777344-2.148437 10.242187-2.148437 15.019531 0 17.261719 7.761719 58.761719 23.824219 66.363282 13.140625 9.542968-13.40625-21.070313-51.570312-34.476563-61.113281zm0 0" fill="#c6c5ca"/><path d="m329.902344 308.632812c4.140625 0 7.5-3.359374 7.5-7.5v-12.453124c0-4.140626-3.359375-7.5-7.5-7.5-4.144532 0-7.5 3.359374-7.5 7.5v12.453124c0 4.140626 3.355468 7.5 7.5 7.5zm0 0"/><path d="m176.089844 301.132812v-12.453124c0-4.140626-3.359375-7.5-7.5-7.5-4.144532 0-7.5 3.359374-7.5 7.5v12.453124c0 4.140626 3.355468 7.5 7.5 7.5 4.140625 0 7.5-3.359374 7.5-7.5zm0 0"/><path d="m158.558594 452.109375c0 4.140625-3.359375 7.5-7.5 7.5-4.144532 0-7.5-3.359375-7.5-7.5s3.355468-7.5 7.5-7.5c4.140625 0 7.5 3.359375 7.5 7.5zm0 0"/><path d="m172.558594 478.785156c0 4.140625-3.359375 7.5-7.5 7.5-4.144532 0-7.5-3.359375-7.5-7.5s3.355468-7.5 7.5-7.5c4.140625 0 7.5 3.359375 7.5 7.5zm0 0"/><path d="m170.335938 175.257812c22.691406 0 41.152343-18.460937 41.152343-41.152343 0-22.691407-18.460937-41.152344-41.152343-41.152344-22.691407 0-41.152344 18.460937-41.152344 41.152344 0 22.691406 18.460937 41.152343 41.152344 41.152343zm0-67.304687c14.421874 0 26.152343 11.730469 26.152343 26.152344s-11.730469 26.152343-26.152343 26.152343c-14.421876 0-26.152344-11.730468-26.152344-26.152343 0-14.417969 11.730468-26.152344 26.152344-26.152344zm0 0"/><path d="m328.152344 92.953125c-22.691406 0-41.152344 18.460937-41.152344 41.152344 0 22.691406 18.460938 41.152343 41.152344 41.152343s41.152344-18.460937 41.152344-41.152343c0-22.691407-18.460938-41.152344-41.152344-41.152344zm0 67.304687c-14.417969 0-26.152344-11.730468-26.152344-26.152343 0-14.417969 11.734375-26.152344 26.152344-26.152344 14.421875 0 26.152344 11.734375 26.152344 26.152344 0 14.421875-11.730469 26.152343-26.152344 26.152343zm0 0"/><path d="m253.679688 360.199219c39.0625 17.328125 68.722656 20.121093 75.550781 10.648437 6.292969-8.726562 3.386719-22.378906-8.472657-40.464844-8.078124-12.324218-19.757812-25.40625-27.769531-31.105468-11.746093-8.363282-27.445312-9.175782-40.003906-2.070313-2.34375 1.324219-5.140625 1.324219-7.484375 0-12.550781-7.105469-28.253906-6.289062-40.003906 2.070313-8.007813 5.699218-19.6875 18.78125-27.765625 31.105468-11.859375 18.085938-18.488281 47.144532 7.980469 47.144532 20.78125 0 54.351562-15.191406 59.097656-17.328125 2.820312-1.265625 6.046875-1.253907 8.871094 0zm-48.460938-1.21875c-17.789062 5.105469-22.996094 3.375-23.847656 2.980469-.796875-1.679688-.675782-8.746094 8.902344-23.355469 7.761718-11.832031 18.257812-23.074219 23.921874-27.109375 7.023438-4.996094 16.414063-5.480469 23.917969-1.234375 6.96875 3.941406 15.289063 3.945312 22.257813 0 7.511718-4.246094 16.898437-3.761719 23.917968 1.234375 5.667969 4.035156 16.164063 15.277344 23.925782 27.109375 9.578125 14.613281 9.699218 21.679687 8.902344 23.355469-.851563.394531-6.058594 2.125-23.847657-2.980469-14.695312-4.21875-29.3125-10.605469-33.441406-12.460938-3.363281-1.511719-6.972656-2.269531-10.585937-2.269531-3.609376 0-7.222657.757812-10.585938 2.269531-4.128906 1.855469-18.742188 8.242188-33.4375 12.460938zm0 0"/><path d="m470.019531 313.867188c1.421875-5.097657 2.199219-10.457032 2.199219-16 0-12.636719-3.964844-24.359376-10.699219-34.011719l26.878907-26.445313c12.371093-12.167968 13.261718-32.058594 2.03125-45.285156l-37.375-44.003906 27.972656-60.445313c3.464844-7.480469 3.097656-16.226562-.984375-23.390625-4.078125-7.164062-11.410157-11.941406-19.613281-12.78125l-66.714844-6.832031 8.007812-14.472656c3.808594-6.882813 3.355469-15.152344-1.183594-21.578125-4.535156-6.429688-12.171874-9.625-19.9375-8.339844-.257812.042969-89.808593 24.53125-131.046874 24.53125-41.246094 0-131.105469-24.492188-131.359376-24.53125-7.769531-1.285156-15.402343 1.910156-19.9375 8.339844-4.535156 6.425781-4.988281 14.695312-1.179687 21.578125l8.007813 14.472656-15.777344 1.617187c-4.121094.421876-7.117188 4.101563-6.695313 8.222657.421875 4.121093 4.089844 7.117187 8.222657 6.699219l27.074218-2.773438c6.902344-.988281 7.8125-7.167969 5.796875-11.089844l-13.503906-24.410156c-2.476563-4.019531-1.386719-8.929688 5.238281-7.902344 7.738282 2.109375 91.964844 24.78125 134.113282 24.78125 42.140624 0 126.058593-22.664062 133.808593-24.78125 5.339844-1.277344 8.230469 2.628906 5.234375 7.902344l-13.507812 24.410156c-2.9375 6.550782.480468 10.675782 5.800781 11.089844l78.011719 7.988281c3.441406.351563 6.398437 2.277344 8.109375 5.28125 1.710937 3.007813 1.855469 6.53125.402343 9.667969l-29.984374 64.796875c-1.226563 2.652344-.800782 5.777344 1.089843 8.007813l40.476563 47.65625c6.171875 7.265624 5.683594 18.195312-1.113282 24.882812l-26.425781 25.996094c-9.617187-8.285156-21.894531-13.5625-35.363281-14.339844l-43.242188-48.960938c16.125-13.054687 26.457032-32.992187 26.457032-55.304687 0-9.601563-1.882813-18.921875-5.59375-27.699219-1.613282-3.816406-6.015625-5.597656-9.832032-3.984375-3.8125 1.613281-5.597656 6.011719-3.984374 9.828125 2.925781 6.917969 4.410156 14.273438 4.410156 21.855469 0 30.960937-25.191406 56.152344-56.152344 56.152344-30.964844 0-56.152344-25.191407-56.152344-56.152344 0-30.964844 25.1875-56.152344 56.152344-56.152344 13.289062 0 26.175781 4.726563 36.296875 13.304688 3.15625 2.683593 7.890625 2.292969 10.570313-.867188 2.679687-3.160156 2.289062-7.894531-.871094-10.570312-12.824219-10.875-29.160156-16.867188-45.996094-16.867188-27.003906 0-50.542969 15.125-62.59375 37.34375-5.257812-1.285156-16.316406-2.804687-32.597656.066407-12.039063-22.257813-35.597656-37.410157-62.625-37.410157-39.234375 0-71.152344 31.917969-71.152344 71.152344 0 22.292969 10.3125 42.214844 26.410156 55.269531l-43.203125 48.996094c-13.386719.777344-25.601562 5.996094-35.191406 14.195312l-26.28125-25.851562c-6.796875-6.6875-7.285156-17.617188-1.113281-24.882812l40.472656-47.65625c1.894531-2.230469 2.320312-5.351563 1.089844-8.007813l-29.988282-64.796875c-1.453124-3.140625-1.304687-6.664062.40625-9.667969 1.710938-3.003906 4.664063-4.929687 8.105469-5.285156l16.660157-1.703125c4.121093-.421875 7.121093-4.101562 6.699218-8.226562-.421875-4.117188-4.089844-7.113282-8.226562-6.695313l-16.660156 1.703125c-8.203126.839844-15.535157 5.621094-19.613282 12.785156-4.078125 7.164063-4.449218 15.90625-.984375 23.390625l27.972657 60.445313-37.371094 44.003906c-11.234375 13.226562-10.34375 33.117188 2.027344 45.285156l26.699218 26.265625c-6.8125 9.6875-10.824218 21.476563-10.824218 34.191407 0 5.65625.808593 11.121093 2.285156 16.3125l-14.59375 20.835937c-6.210938 8.863281-7.484375 20.144531-3.40625 30.167969 4.078125 10.027344 12.863281 17.210937 23.5 19.226562l86.429687 16.347656c.832031.953126 1.671875 1.898438 2.523438 2.832032-19.628907 10.242187-37.917969 23.042968-54.480469 38.167968-12.628906 11.53125-16.636719 28.585938-10.460938 44.507813 6.160157 15.875 20.570313 25.734375 37.613282 25.734375h307.121094c17.042968 0 31.453124-9.859375 37.609374-25.734375 6.179688-15.921875 2.171876-32.976563-10.457031-44.507813-16.550781-15.117187-34.84375-27.925781-54.464843-38.164062.835937-.917969 1.65625-1.839844 2.46875-2.769531l86.777343-16.414063c10.636719-2.015625 19.421875-9.199218 23.5-19.226562 4.078125-10.023438 2.804688-21.304688-3.40625-30.167969zm-49.90625-25.128907v-34.832031c21.035157 3.578125 37.105469 21.921875 37.105469 43.960938 0 24.59375-17.171875 44.132812-45.746094 44.570312 5.6875-17.113281 8.640625-35.191406 8.640625-53.699219zm-160.308593-174.359375c-1.371094 4.746094-2.261719 9.695313-2.613282 14.789063-2.550781-.535157-7.949218-1.457031-15.886718.070312-.347657-5.097656-1.234376-10.050781-2.605469-14.800781 8.589843-1.835938 17.703125-.734375 21.105469-.058594zm-145.621094 19.726563c0-30.960938 25.1875-56.148438 56.152344-56.148438 30.964843 0 56.152343 25.1875 56.152343 56.148438 0 30.964843-25.1875 56.15625-56.152343 56.15625-30.964844 0-56.152344-25.191407-56.152344-56.15625zm-35.808594 119.800781v34.832031c0 18.492188 2.9375 36.546875 8.648438 53.695313-24.25 2.144531-45.75-19.976563-45.75-44.566406 0-22.039063 16.066406-40.382813 37.101562-43.960938zm-41.527344 115.761719c-5.695312-1.074219-10.210937-4.769531-12.394531-10.136719s-1.527344-11.167969 1.792969-15.910156l9.503906-13.566406c10.617188 16.472656 28.324219 29.457031 56.933594 27.027343 3.9375 8.9375 8.667968 17.574219 14.167968 25.828125zm58.835938 127.332031c-12.796875 0-20.597656-8.347656-23.625-16.160156-3.046875-7.847656-2.914063-19.328125 6.589844-28.007813 7.882812-7.199219 16.179687-13.839843 24.84375-19.894531 3.683593 18.320312 10.25 41.242188 21.949218 64.0625zm263.636718-98.183594c-29.527343 29.53125-68.621093 45.792969-110.074218 45.792969-5.039063 0-10.121094-.246094-15.109375-.730469-4.144531-.410156-7.789063 2.613282-8.191407 6.738282-.402343 4.121093 2.613282 7.789062 6.738282 8.191406 5.46875.53125 11.039062.800781 16.5625.800781 42.898437 0 83.476562-15.875 115.105468-44.859375 20.066407 9.976562 38.722657 22.769531 55.492188 38.082031 9.5 8.679688 9.632812 20.160157 6.589844 28.007813-3.03125 7.8125-10.832032 16.160156-23.628906 16.160156h-260.332032c-14.699218-26.042969-21.878906-53.082031-25.382812-72.886719 5.570312-3.359375 11.269531-6.488281 17.089844-9.378906 18.503906 16.875 40.664062 29.539063 64.382812 37.15625 5.300781 1.703125 8.394531-1.710937 9.394531-4.917969 1.238281-3.953125-.964843-8.160156-4.917969-9.398437-31.023437-9.703125-58.9375-29.5-78.597656-55.742188-20.324218-27.132812-31.070312-59.324219-31.070312-93.089843v-40.144532l44.949218-50.976562c9.632813 4.875 20.503907 7.640625 32.015626 7.640625 35.496093 0 65-26.128907 70.300781-60.164063 8.605469-2.097656 14.53125-1.183594 17.191406-.128906 1.546875 10.0625 5.226563 19.421875 10.53125 27.636719 0 0 21.40625 32.65625 59.792969 32.65625 11.488281 0 22.339844-2.753907 31.957031-7.609375l45.003906 50.949218v40.140626c0 41.453124-16.261719 80.542968-45.792969 110.074218zm115.023438-39.285156c-2.183594 5.363281-6.699219 9.0625-12.394531 10.136719l-70.308594 13.300781c5.5-8.238281 10.234375-16.894531 14.1875-25.886719 22.101563 3.097657 46.464844-10.65625 57.058594-27.257812l9.664062 13.796875c3.324219 4.742187 3.976563 10.542968 1.792969 15.910156zm0 0"/></svg>