<svg height="512pt" viewBox="-32 0 512 512.00001" width="512pt" xmlns="http://www.w3.org/2000/svg"><path d="m424.761719 303.660156c-20.921875-62.0625-31.761719-127.308594-31.761719-127.308594h-340.058594s-10.839844 65.246094-31.761718 127.308594c-15.066407 44.699219-12.769532 129.191406-10.308594 172.96875.882812 15.644532 13.820312 27.871094 29.488281 27.871094h365.222656c15.667969 0 28.605469-12.226562 29.488281-27.871094 2.464844-43.777344 4.757813-128.269531-10.308593-172.96875zm0 0" fill="#898890"/><path d="m223.140625 176.351562h-170.199219s-10.839844 65.246094-31.761718 127.308594c-15.066407 44.699219-12.769532 129.191406-10.308594 172.96875.882812 15.644532 13.820312 27.871094 29.488281 27.871094h182.78125zm0 0" fill="#717077"/><path d="m439.839844 135.910156c0 23.078125-18.707032 41.785156-41.78125 41.785156-23.078125 0-41.785156-18.707031-41.785156-41.785156 0-23.074218 18.707031-128.410156 41.785156-128.410156 23.074218 0 41.78125 105.335938 41.78125 128.410156zm0 0" fill="#ffeb99"/><path d="m69.414062 504.5h307.117188c30.054688 0 44.289062-36.9375 22.09375-57.203125-35.242188-32.183594-92.128906-65.972656-175.65625-65.972656-83.523438 0-140.410156 33.789062-175.652344 65.972656-22.191406 20.265625-7.957031 57.203125 22.097656 57.203125zm0 0" fill="#efcbb4"/><path d="m153.882812 389.777344c-47.082031 12.035156-82.070312 35.152344-106.566406 57.519531-22.191406 20.265625-7.957031 57.203125 22.097656 57.203125h284.574219zm0 0" fill="#dd9f80"/><path d="m267.921875 455.15625-114.039063-65.378906c-47.082031 12.035156-82.070312 35.148437-106.566406 57.519531-22.191406 20.265625-7.957031 57.203125 22.097656 57.203125h147.96875c26.996094-16.621094 42.742188-36.949219 50.539063-49.34375zm0 0" fill="#c68d6d"/><path d="m175.164062 385.238281c-23.25 3.925781-43.863281 10.578125-62.0625 18.765625l177.296876 100.496094h86.136718zm0 0" fill="#c68d6d"/><path d="m274.125 443.847656-98.960938-58.609375c-23.25 3.925781-43.863281 10.578125-62.0625 18.765625l134.703126 76.351563c18.992187-19.238281 26.320312-36.507813 26.320312-36.507813zm0 0" fill="#b2785b"/><path d="m111.707031 297.867188c0 28.777343-23.328125 52.101562-52.105469 52.101562-28.773437 0-52.101562-23.324219-52.101562-52.101562 0-28.777344 23.328125-52.101563 52.101562-52.101563 28.777344 0 52.105469 23.324219 52.105469 52.101563zm0 0" fill="#e2b9a3"/><path d="m438.445312 297.867188c0 28.777343-23.328124 52.101562-52.105468 52.101562-28.773438 0-52.101563-23.324219-52.101563-52.101562 0-28.777344 23.328125-52.101563 52.101563-52.101563 28.777344 0 52.105468 23.324219 52.105468 52.101563zm0 0" fill="#efcbb4"/><path d="m222.972656 452.109375c-89.855468 0-163.371094-73.515625-163.371094-163.367187v-84.785157c0-89.851562 73.515626-163.367187 163.371094-163.367187 89.851563 0 163.367188 73.515625 163.367188 163.367187v84.785157c0 89.851562-73.515625 163.367187-163.367188 163.367187zm0 0" fill="#f9dcc5"/><path d="m222.972656 40.589844c-89.855468 0-163.371094 73.515625-163.371094 163.367187v84.785157c0 81.652343 60.722657 149.816406 139.230469 161.578124-39.621093-36.472656-53.261719-90.683593-56.457031-137.945312-3.199219-47.324219 13.226562-94.105469 45.636719-128.742188 43.347656-46.332031 60.308593-112.773437 65.71875-140.105468-9.96875-1.917969-20.25-2.9375-30.757813-2.9375zm0 0" fill="#efcbb4"/><path d="m222.972656 7.5c-162.46875 0-175.089844 144.230469-175.089844 144.230469h350.175782s-12.621094-144.230469-175.085938-144.230469zm0 0" fill="#898890"/><path d="m180.796875 11.125c-122.558594 22.359375-132.914063 140.605469-132.914063 140.605469h140.144532c-18.859375-54.578125-12.519532-111.882813-7.230469-140.605469zm0 0" fill="#717077"/><path d="m381.179688 130.933594c0-.578125-316.417969-.578125-316.417969 0-24.285157 46.835937-5.160157 114.832031-5.160157 114.832031 57.867188-7.175781 82.714844-54.117187 82.714844-54.117187h161.3125s24.84375 46.9375 82.710938 54.117187c0 0 19.125-67.996094-5.160156-114.832031zm0 0" fill="#898890"/><path d="m223.140625 130.5c-79.164063 0-158.378906.144531-158.378906.433594-24.285157 46.835937-5.160157 114.832031-5.160157 114.832031 57.867188-7.175781 82.714844-54.117187 82.714844-54.117187h80.824219zm0 0" fill="#717077"/><path d="m222.96875 349.835938c-15.519531 0-28.097656-12.582032-28.097656-28.101563v-20.429687c0-4.234376 3.433594-7.667969 7.671875-7.667969h40.859375c4.234375 0 7.667968 3.433593 7.667968 7.667969v20.429687c0 15.519531-12.578124 28.101563-28.101562 28.101563zm0 0" fill="#57565c"/><path d="m158.949219 321.734375c0-13.179687-13.417969-23.867187-29.972657-23.867187-16.554687 0-29.972656 10.6875-29.972656 23.867187 0 13.183594 13.417969 23.871094 29.972656 23.871094 16.554688 0 29.972657-10.6875 29.972657-23.871094zm0 0" fill="#ffa6bb"/><path d="m346.9375 321.734375c0-13.179687-13.417969-23.867187-29.972656-23.867187-16.550782 0-29.972656 10.6875-29.972656 23.867187 0 13.183594 13.421874 23.871094 29.972656 23.871094 16.554687 0 29.972656-10.6875 29.972656-23.871094zm0 0" fill="#ffa6bb"/><path d="m372.621094 204.152344h-299.300782c-16.101562 0-29.152343-13.050782-29.152343-29.148438v-46.546875c0-16.097656 13.050781-29.152343 29.152343-29.152343h299.300782c16.101562 0 29.152344 13.050781 29.152344 29.152343v46.546875c0 16.097656-13.050782 29.148438-29.152344 29.148438zm0 0" fill="#ff929f"/><path d="m73.320312 99.304688c-16.101562 0-29.152343 13.050781-29.152343 29.152343v46.546875c0 16.097656 13.050781 29.148438 29.152343 29.148438h142.875c-25.210937-32.246094-35.898437-70.113282-39.414062-104.847656zm0 0" fill="#ff737d"/><path d="m401.773438 131.421875-47.867188 14.621094-58.660156-17.917969c-4.441406-1.355469-9.1875-1.355469-13.628906 0l-58.652344 17.917969-58.652344-17.917969c-4.441406-1.355469-9.1875-1.355469-13.632812 0l-58.644532 17.917969-47.867187-14.621094v31.371094l41.050781 12.539062c4.441406 1.355469 9.1875 1.355469 13.632812 0l58.648438-17.917969 58.648438 17.917969c4.441406 1.355469 9.1875 1.355469 13.632812 0l58.652344-17.917969 58.65625 17.917969c4.441406 1.355469 9.1875 1.355469 13.628906 0l41.054688-12.542969zm0 0" fill="#c8efb9"/><path d="m98.851562 175.332031 58.648438-17.917969 37.347656 11.410157c-5.246094-11.519531-9.210937-23.3125-12.140625-35.078125l-18.394531-5.621094c-4.441406-1.355469-9.1875-1.355469-13.628906 0l-58.648438 17.917969-47.867187-14.621094v31.371094l41.050781 12.539062c4.441406 1.355469 9.1875 1.355469 13.632812 0zm0 0" fill="#b2e59c"/><path d="m303.628906 281.183594c-4.144531 0-7.5 3.355468-7.5 7.5v12.449218c0 4.140626 3.355469 7.5 7.5 7.5 4.140625 0 7.5-3.359374 7.5-7.5v-12.449218c0-4.144532-3.359375-7.5-7.5-7.5zm0 0"/><path d="m142.316406 281.183594c-4.144531 0-7.5 3.355468-7.5 7.5v12.449218c0 4.140626 3.355469 7.5 7.5 7.5 4.140625 0 7.5-3.359374 7.5-7.5v-12.449218c0-4.144532-3.359375-7.5-7.5-7.5zm0 0"/><path d="m243.402344 286.136719h-40.859375c-8.367188 0-15.171875 6.804687-15.171875 15.171875v20.429687c0 19.628907 15.972656 35.597657 35.601562 35.597657s35.597656-15.96875 35.601563-35.597657v-20.429687c-.003907-8.367188-6.808594-15.171875-15.171875-15.171875zm.167968 35.597656c0 11.359375-9.242187 20.601563-20.601562 20.601563-11.355469 0-20.597656-9.242188-20.597656-20.601563 0 0 .074218-20.597656.167968-20.597656 0 0 41.03125.074219 41.03125.171875zm0 0"/><path d="m415.714844 246.039062c-5.363282-21.035156-9.328125-39.652343-11.785156-52 1.851562-3.035156 3.277343-6.359374 4.1875-9.886718 10.023437-2.082032 39.222656-13.46875 39.222656-48.242188 0-12.808594-5.011719-45.894531-12.476563-74.738281-14.191406-54.828125-27.800781-61.171875-36.804687-61.171875-8.867188 0-21.855469 6.144531-35.386719 55.789062-7.6875-8.617187-16.226563-16.328124-25.617187-23.054687-30.3125-21.71875-68.695313-32.734375-114.082032-32.734375-39.339844 0-73.546875 8.3125-101.671875 24.699219-3.578125 2.085937-4.789062 6.675781-2.703125 10.257812 2.085938 3.578125 6.679688 4.789063 10.257813 2.703125 25.796875-15.035156 57.464843-22.660156 94.117187-22.660156 83.453125 0 125.746094 39.238281 147.109375 76.808594h-294.21875c7.960938-14 17.714844-26.296875 29.113281-36.65625 3.0625-2.785156 3.289063-7.527344.503907-10.59375-2.785157-3.0625-7.527344-3.289063-10.59375-.503906-15.574219 14.15625-28.34375 31.53125-37.96875 51.644531-11.996094 6.027343-20.25 18.441406-20.25 32.757812v34.332031.078126 12.136718c0 6.964844 1.957031 13.484375 5.347656 19.035156-2.546875 12.800782-6.496094 31.246094-11.789063 52-18.03125 10.257813-30.226562 29.640626-30.226562 51.828126 0 10.644531 2.816406 20.632812 7.722656 29.289062-8.410156 47.53125-6.359375 113.988281-4.339844 149.894531 1.105469 19.597657 17.347657 34.949219 36.976563 34.949219h365.222656c19.632813 0 35.871094-15.351562 36.976563-34.949219 2.015625-35.847656 4.074218-102.355469-4.339844-149.890625 4.90625-8.660156 7.726562-18.648437 7.726562-29.292968-.003906-22.1875-12.199218-41.570313-30.230468-51.828126zm15.226562 51.828126c0 24.59375-21.5 43.902343-45.742187 44.570312 5.683593-17.113281 8.640625-35.1875 8.640625-53.695312v-34.832032c21.035156 3.578125 37.101562 21.921875 37.101562 43.957032zm-157.679687 154.1875 75.886719 44.945312h-56.769532l-66.039062-37.429688c16.113281-.3125 31.871094-2.867187 46.921875-7.515624zm126.894531 28.789062c-2.875 7.410156-10.046875 15.289062-21.703125 16.078125l-87.128906-51.601563c16.957031-7.453124 32.734375-17.722656 46.753906-30.570312 20.070313 9.976562 38.71875 22.769531 55.488281 38.085938 9.503906 8.675781 9.636719 20.15625 6.589844 28.007812zm-67.109375-82.027344c-29.527344 29.53125-68.621094 45.792969-110.074219 45.792969s-80.546875-16.261719-110.078125-45.792969c-29.527343-29.527344-45.792969-68.621094-45.792969-110.074218v-36.542969c35.378907-6.367188 58.289063-26.820313 70.085938-40.546875h171.570312c11.792969 13.722656 34.703126 34.179687 70.082032 40.546875v36.542969c0 41.453124-16.261719 80.546874-45.792969 110.074218zm-281.378906-225.890625 31.359375 9.578125c5.890625 1.800782 12.121094 1.800782 18.015625 0l56.457031-17.246094 56.457031 17.246094c2.945313.902344 9.710938 2.636719 18.015625 0l56.460938-17.246094 18.507812 5.652344c3.964844 1.210938 8.15625-1.019531 9.363282-4.980468 1.210937-3.960938-1.019532-8.15625-4.980469-9.363282l-20.699219-6.324218c-1.429688-.4375-2.957031-.4375-4.382812 0l-58.652344 17.917968c-3.027344.925782-6.226563.921875-9.25 0l-58.648438-17.917968c-1.429687-.4375-2.957031-.4375-4.382812 0l-58.648438 17.917968c-3.027344.925782-6.226562.921875-9.25 0l-35.742187-10.921875v-15.683593l38.175781 11.664062c.710938.21875 2.597656.605469 4.382812 0l58.648438-17.917969c3.023438-.925781 6.222656-.925781 9.25 0l58.648438 17.917969c1.429687.433594 2.957031.433594 4.382812 0l58.652344-17.917969c3.023437-.925781 6.222656-.925781 9.246094 0l58.660156 17.917969c1.429687.433594 2.953125.433594 4.382812 0l38.175782-11.664062v15.683593l-35.746094 10.921875c-3.023438.925782-6.21875.921875-9.246094 0l-9.652344-2.949218c-3.953125-1.207032-8.152344 1.019531-9.363281 4.980468-1.210937 3.960938 1.019531 8.15625 4.984375 9.363282l9.648438 2.949218c2.949218.898438 10.472656 2.414063 18.015624 0l31.359376-9.582031s.695312 23.730469-21.648438 23.730469h-299.304688c-22.246093 0-21.652343-23.726563-21.652343-23.726563zm21.652343-66.117187h299.300782c11.082031 0 20.238281 8.363281 21.5 19.109375l-40.214844 12.285156-56.464844-17.246094c-5.894531-1.800781-12.121094-1.800781-18.015625 0l-56.460937 17.246094-56.460938-17.246094c-5.886718-1.800781-12.117187-1.800781-18.015625 0l-56.453125 17.246094-40.210937-12.285156c1.261719-10.746094 10.417969-19.109375 21.496093-19.109375zm313.652344 131.472656c-26.078125-3.304688-44.984375-15.417969-57.328125-26.628906h42.976563c6.773437 0 13.113281-1.851563 18.5625-5.066406 1.9375 9.265624 4.429687 20.542968 7.457031 32.960937-3.773437-.792969-7.671875-1.222656-11.667969-1.265625zm11.085938-223.28125c1.976562 0 11.554687 8.476562 22.28125 49.929688 7.730468 29.855468 12 60.921874 12 70.980468 0 14.761719-9.636719 27.679688-23.066406 32.382813v-5.425781c0-.027344 0-34.410157 0-34.410157 0-14.324219-8.265626-26.746093-20.273438-32.773437-4.285156-8.957032-9.160156-17.351563-14.632812-25.144532 11.183593-46 21.492187-55.539062 23.691406-55.539062zm-343.296875 191.585938c5.445312 3.214843 11.789062 5.066406 18.558593 5.066406h42.976563c-12.339844 11.210937-31.25 23.320312-57.328125 26.628906-3.992188.042969-7.894531.472656-11.664062 1.265625 3.003906-12.328125 5.488281-23.5625 7.457031-32.960937zm-2.660157 47.324218v34.832032c0 18.507812 2.957032 36.582031 8.644532 53.695312-24.242188.410156-45.746094-19.976562-45.746094-44.570312 0-22.035157 16.070312-40.378907 37.101562-43.957032zm-6.316406 226.933594c-3.046875-7.851562-2.914062-19.332031 6.589844-28.007812 10.121094-9.246094 21.042969-17.660157 32.464844-25.011719 3.480468-2.242188 4.488281-6.882813 2.246094-10.363281-2.242188-3.484376-6.882813-4.488282-10.367188-2.25-12.125 7.808593-23.71875 16.738281-34.460938 26.546874-12.625 11.53125-16.632812 28.585938-10.457031 44.507813 1.515625 3.90625 3.53125 7.445313 5.964844 10.566406-10.484375-1.238281-18.796875-9.84375-19.402344-20.621093-1.804687-32.042969-3.644531-88.792969 2.148438-133.40625 10.472656 9.121093 24.398437 15.492187 45.875 14.277343 8.460937 19.25 20.539062 36.980469 35.902343 52.34375 24.53125 24.53125 55.09375 40.699219 88.246094 47.089844l71.425782 40.484375h-192.546876c-12.800781 0-20.597656-8.347656-23.628906-16.15625zm381.796875-4.636719c-.609375 10.78125-8.921875 19.386719-19.402343 20.625 2.429687-3.121093 4.449218-6.660156 5.960937-10.566406 6.179687-15.921875 2.171875-32.976563-10.457031-44.507813-16.554688-15.121093-34.839844-27.921874-54.464844-38.164062 12.738281-13.960938 22.929688-29.652344 30.335938-46.515625 16.480468 1.257813 35.402343-5.152344 45.878906-14.277344 5.792968 44.632813 3.949218 101.417969 2.148437 133.40625zm0 0"/></svg>