<svg height="512pt" viewBox="-33 0 511 512" width="512pt" xmlns="http://www.w3.org/2000/svg"><path d="m69.910156 504.5h307.121094c30.058594 0 44.289062-36.9375 22.097656-57.203125-35.242187-32.183594-92.132812-65.972656-175.65625-65.972656-83.523437 0-140.414062 33.789062-175.65625 65.972656-22.195312 20.265625-7.960937 57.203125 22.09375 57.203125zm0 0" fill="#c3dfed"/><path d="m223.472656 381.324219c-83.523437 0-140.414062 33.789062-175.65625 65.972656-22.195312 20.265625-7.960937 57.203125 22.09375 57.203125h164.214844c31.957031-14.589844 47.214844-30.398438 47.214844-30.398438v-86.964843c-17.667969-3.6875-36.929688-5.8125-57.867188-5.8125zm0 0" fill="#a7ccdb"/><path d="m112.203125 297.867188c0 28.773437-23.324219 52.101562-52.101563 52.101562-28.773437 0-52.101562-23.328125-52.101562-52.101562 0-28.777344 23.328125-52.105469 52.101562-52.105469 28.777344 0 52.101563 23.328125 52.101563 52.105469zm0 0" fill="#ffaea1"/><path d="m438.945312 297.867188c0 28.773437-23.328124 52.101562-52.101562 52.101562-28.777344 0-52.105469-23.328125-52.105469-52.101562 0-28.777344 23.328125-52.105469 52.105469-52.105469 28.773438 0 52.101562 23.328125 52.101562 52.105469zm0 0" fill="#ffcfc2"/><path d="m223.472656 452.109375c-89.855468 0-163.371094-73.515625-163.371094-163.371094v-84.78125c0-89.855469 73.515626-163.371093 163.371094-163.371093 89.851563 0 163.371094 73.515624 163.371094 163.371093v84.78125c0 89.855469-73.519531 163.371094-163.371094 163.371094zm0 0" fill="#ffe2d9"/><path d="m223.472656 40.585938c-89.855468 0-163.371094 73.515624-163.371094 163.371093v84.785157c0 59.773437 32.542969 112.324218 80.78125 140.804687-8.167968-37.582031-7.578124-75.25-4.242187-105.851563 3.703125-33.984374 20.46875-65.261718 46.679687-87.210937 52.800782-44.207031 68.136719-133.445313 72.300782-192.699219-10.402344-2.097656-21.152344-3.199218-32.148438-3.199218zm0 0" fill="#ffcfc2"/><path d="m244.628906 158.914062v57.789063c0 10.097656 8.261719 18.355469 18.355469 18.355469 19.757813 0 18.355469-19.1875 18.355469-19.1875 0-8.660156 7.085937-15.746094 15.746094-15.746094 8.660156 0 15.746093 7.085938 15.746093 15.746094v27.132812c0 10.09375 8.257813 18.355469 18.355469 18.355469 10.09375 0 18.351562-8.261719 18.351562-18.355469v-70.902344zm0 0" fill="#ff929f"/><path d="m281.339844 474.101562h-115.734375c-18.140625 0-32.84375-14.707031-32.84375-32.84375v-38.441406c0-18.140625 14.703125-32.847656 32.84375-32.847656h115.734375c18.140625 0 32.84375 14.707031 32.84375 32.847656v38.441406c0 18.136719-14.703125 32.84375-32.84375 32.84375zm0 0" fill="#def4f9"/><path d="m203.1875 369.972656h-37.582031c-18.140625 0-32.84375 14.703125-32.84375 32.84375v38.441406c0 18.140626 14.703125 32.84375 32.84375 32.84375h43.738281c-25.082031-37.125-13.75-82.863281-6.15625-104.128906zm0 0" fill="#c3dfed"/><path d="m223.472656 7.5c-189.746094 0-163.371094 197.046875-163.371094 197.046875s65.640626-38.558594 163.371094-38.558594c97.730469 0 163.371094 38.558594 163.371094 38.558594s26.375-197.046875-163.371094-197.046875zm0 0" fill="#def4f9"/><path d="m189.65625 9.816406c-152.660156 22.085938-129.554688 194.730469-129.554688 194.730469s51.488282-30.246094 131.160157-37.164063c-22.695313-70.171874-8.714844-133.476562-1.605469-157.566406zm0 0" fill="#c3dfed"/><path d="m147.683594 105.289062c-19.945313-2.808593-45.421875-4.152343-76.269532-1.472656-6.964843 19.234375-10.242187 38.574219-11.644531 55.097656 22.054688-10.507812 53.675781-23.539062 88.800781-31.675781 12.078126-2.796875 11.390626-20.21875-.886718-21.949219zm0 0" fill="#a7ccdb"/><path d="m299.261719 105.289062c-12.28125 1.726563-12.964844 19.152344-.886719 21.949219 35.121094 8.136719 66.742188 21.167969 88.800781 31.675781-1.402343-16.523437-4.683593-35.863281-11.648437-55.097656-30.84375-2.679687-56.320313-1.335937-76.265625 1.472656zm0 0" fill="#c3dfed"/><path d="m304.128906 308.632812c4.144532 0 7.5-3.359374 7.5-7.5v-12.453124c0-4.140626-3.355468-7.5-7.5-7.5-4.144531 0-7.5 3.359374-7.5 7.5v12.453124c0 4.140626 3.355469 7.5 7.5 7.5zm0 0"/><path d="m142.816406 308.632812c4.140625 0 7.5-3.359374 7.5-7.5v-12.453124c0-4.140626-3.359375-7.5-7.5-7.5-4.144531 0-7.5 3.359374-7.5 7.5v12.453124c0 4.140626 3.355469 7.5 7.5 7.5zm0 0"/><path d="m195.957031 307.0625c8.101563 6.28125 17.808594 9.421875 27.515625 9.421875 9.707032 0 19.414063-3.140625 27.511719-9.421875 3.273437-2.539062 3.871094-7.25 1.332031-10.523438-2.539062-3.273437-7.253906-3.867187-10.523437-1.332031-10.785157 8.367188-25.851563 8.367188-36.640625 0-3.273438-2.539062-7.984375-1.941406-10.523438 1.332031-2.539062 3.273438-1.945312 7.984376 1.328125 10.523438zm0 0"/><path d="m379.972656 357.070312c39.273438.496094 66.472656-26.339843 66.472656-59.203124 0-30.324219-22.769531-55.414063-52.105468-59.113282 0 0 2.800781-59.167968-.382813-87.488281-4.570312-40.605469-18.550781-75.289063-40.4375-100.300781-29.59375-33.816406-73.347656-50.964844-130.046875-50.964844-56.699218 0-100.453125 17.148438-130.046875 50.96875-21.886719 25.007812-35.871093 59.691406-40.4375 100.296875-3.183593 28.3125-.386719 87.488281-.386719 87.488281-29.332031 3.699219-52.101562 28.789063-52.101562 59.113282 0 32.863281 24.699219 62.5625 66.464844 59.203124 1.75 3.988282 11.460937 30.257813 30.144531 46.585938-19.574219 10.230469-37.835937 23.023438-54.347656 38.101562-12.628907 11.53125-16.636719 28.585938-10.460938 44.507813 6.15625 15.875 20.566407 25.734375 37.609375 25.734375h307.121094c17.042969 0 31.457031-9.859375 37.613281-25.734375 6.175781-15.921875 2.167969-32.976563-10.460937-44.507813-16.414063-14.988281-34.535156-27.710937-53.96875-37.910156 15.285156-16.769531 24.960937-32.546875 29.757812-46.777344zm51.472656-59.203124c0 24.59375-17.636718 41.957031-45.832031 44.566406 5.746094-17.253906 8.730469-35.394532 8.730469-53.695313v-34.832031c21.03125 3.578125 37.101562 21.921875 37.101562 43.960938zm-326.734374-237.023438c26.621093-30.417969 66.578124-45.84375 118.761718-45.84375 52.144532 0 92.082032 15.402344 118.703125 45.777344 9.335938 10.65625 16.449219 22.511718 21.863281 34.703125-23.144531-1.308594-45.238281-.515625-65.824218 2.378906-9.035156 1.273437-15.621094 8.523437-16.023438 17.628906-.398437 9.152344 5.558594 16.988281 14.492188 19.058594 18.132812 4.199219 37.019531 10.214844 56.222656 17.664063 5.539062 2.148437 8.558594-1.285157 9.71875-4.242188 1.515625-3.855469-.386719-8.207031-4.242188-9.722656-19.851562-7.785156-39.472656-13.949219-58.3125-18.3125-2.632812-.609375-2.941406-2.636719-2.890624-3.789063.050781-1.121093.519531-3.0625 3.128906-3.429687 21.605468-3.042969 45.019531-3.652344 69.664062-1.820313 10.820313 32.746094 11.082032 65.351563 10.289063 81.757813-22.457031-10.878906-79.546875-34.164063-156.789063-34.164063-77.25 0-134.351562 23.292969-156.796875 34.167969-.351562-7.042969-.503906-17.082031.289063-28.839844 20.386718-9.476562 50.277344-21.621094 83.296875-29.269531 8.933593-2.070313 14.894531-9.90625 14.492187-19.058594-.398437-9.105469-6.988281-16.355469-16.023437-17.625-20.589844-2.902343-42.691407-3.691406-65.84375-2.378906 5.40625-12.160156 12.507812-23.988281 21.824219-34.640625zm192.375 131.78125c-12.820313 0-23.246094 10.429688-23.246094 23.246094 0 .183594 0 .292968.015625.476562.078125 1.488282-.257813 5.925782-2.730469 8.53125-1.710938 1.804688-4.375 2.679688-8.140625 2.679688-5.984375 0-10.855469-4.867188-10.855469-10.855469v-42.070313c36.605469 2.910157 67.402344 10.9375 89.910156 18.714844v49.65625c0 5.984375-4.867187 10.851563-10.851562 10.851563-5.988281 0-10.855469-4.867188-10.855469-10.851563v-27.132812c0-12.816406-10.429687-23.246094-23.246093-23.246094zm-220.144532-81.726562c24.65625-1.835938 48.082032-1.226563 69.695313 1.816406 2.609375.367187 3.082031 2.308594 3.128906 3.429687.050781 1.152344-.257813 3.179688-2.886719 3.789063-30.09375 6.96875-57.597656 17.5-78.121094 26.597656 1.585938-11.308594 4.152344-23.457031 8.183594-35.632812zm-61.441406 186.96875c0-22.039063 16.066406-40.382813 37.101562-43.960938v34.832031c0 18.269531 2.988282 36.429688 8.734376 53.695313-24.332032-.847656-45.835938-19.972656-45.835938-44.566406zm69.734375 62.621093c-11.535156-22.078125-17.632813-46.808593-17.632813-71.75v-79.726562c14.957032-7.773438 74.105469-35.523438 155.871094-35.523438 4.625 0 9.179688.089844 13.65625.261719v42.957031c0 14.253907 11.601563 25.855469 25.855469 25.855469 10.070313 0 15.988281-4.089844 19.175781-7.523438 6.800782-7.3125 6.785156-17.074218 6.683594-19.339843.089844-4.46875 3.753906-8.074219 8.242188-8.074219 4.546874 0 8.246093 3.699219 8.246093 8.246094v27.132812c0 14.257813 11.597657 25.855469 25.855469 25.855469 14.253906 0 25.855469-11.597656 25.855469-25.855469v-44.070312c10.546875 4.222656 18.132812 7.925781 22.300781 10.085937v79.722657c0 25.152343-6.167969 49.984374-17.867188 72.199218-23.300781 18.347656-45.347656 21.082032-45.550781 21.125-7.066406-11.730468-19.921875-19.59375-34.585937-19.59375h-73.421875c-4.140625 0-7.5 3.355469-7.5 7.5 0 4.140625 3.359375 7.5 7.5 7.5h73.421875c13.976562 0 25.34375 11.367188 25.34375 25.34375v38.441406c0 13.976563-11.367188 25.34375-25.34375 25.34375h-115.734375c-13.976563 0-25.34375-11.367187-25.34375-25.34375v-38.441406c0-13.976562 11.367187-25.34375 25.34375-25.34375h9.871093c4.144532 0 7.5-3.359375 7.5-7.5 0-4.144531-3.355468-7.5-7.5-7.5h-9.871093c-14.632813 0-27.46875 7.832032-34.542969 19.519532-.085938-.015626-.160156-.027344-.246094-.046876-10.328125-2.207031-26.535156-7.742187-45.582031-21.457031zm236.449219 48.851563s-.191406-10.9375-.539063-13.070313c6.445313-1.472656 13.914063-3.820312 22.195313-7.535156-5.917969 7.113281-13.199219 14.503906-21.65625 20.605469zm-196.421875-.320313c-8.25-6.03125-15.375-13.277343-21.191407-20.253906 8.089844 3.621094 15.40625 5.941406 21.746094 7.417969-.359375 2.160156-.554687 12.835937-.554687 12.835937zm275.398437 71.820313c-3.03125 7.8125-10.828125 16.160156-23.628906 16.160156h-307.121094c-12.796875 0-20.59375-8.347656-23.625-16.160156-3.046875-7.847656-2.914062-19.328125 6.589844-28.003906 16.726562-15.277344 35.355469-28.066407 55.375-38.027344 5.523438 4.957031 11.203125 9.226562 17.011719 12.667968v13.78125c0 22.246094 18.097656 40.34375 40.34375 40.34375h115.734375c22.246094 0 40.34375-18.097656 40.34375-40.34375v-13.960937c6.265625-3.582031 12.023437-7.828125 17.246094-12.378906 19.933593 9.949219 38.46875 22.691406 55.140624 37.917969 9.5 8.675781 9.632813 20.15625 6.589844 28.003906zm0 0"/></svg>