<svg height="512pt" viewBox="-33 0 512 512.0002" width="512pt" xmlns="http://www.w3.org/2000/svg"><path d="m69.410156 504.5h307.113282c30.054687 0 44.289062-36.9375 22.097656-57.203125-35.242188-32.183594-92.132813-65.96875-175.652344-65.96875-83.523438 0-140.410156 33.785156-175.652344 65.96875-22.191406 20.265625-7.960937 57.203125 22.09375 57.203125zm0 0" fill="#b1bfa6"/><path d="m222.96875 381.328125c-83.523438 0-140.410156 33.785156-175.652344 65.96875-22.191406 20.265625-7.960937 57.203125 22.09375 57.203125h154.128906c41.425782-26.429688 50.601563-60.65625 50.601563-60.65625l.75-57.875c-16.023437-2.964844-33.304687-4.640625-51.921875-4.640625zm0 0" fill="#9dad92"/><path d="m168.789062 504.5c-7.777343-50.007812-27.390624-89.222656-38.046874-107.660156-35.625 12.839844-63.121094 31.914062-83.425782 50.457031-22.191406 20.265625-7.960937 57.203125 22.09375 57.203125zm0 0" fill="#c98d9b"/><path d="m277.148438 504.5c7.777343-50.007812 27.390624-89.222656 38.046874-107.660156 35.625 12.839844 63.121094 31.914062 83.425782 50.457031 22.191406 20.265625 7.960937 57.203125-22.09375 57.203125zm0 0" fill="#d6a1ab"/><path d="m210.363281 38.011719-91.265625-29.574219c-10.316406-3.296875-21.339844 2.484375-24.492187 12.847656l-7.453125 24.515625-38.308594 2.121094c-12.597656.695313-21.507812 12.605469-18.617188 24.886719l8.214844 34.914062-22.53125 17.078125c-10.15625 7.699219-10.789062 22.746094-1.308594 31.269531l58.308594 52.417969zm0 0" fill="#dd9f80"/><path d="m236.304688 37.449219 90.535156-29.011719c10.320312-3.296875 21.339844 2.484375 24.492187 12.847656l7.457031 24.515625 38.308594 2.121094c12.597656.695313 21.503906 12.605469 18.617188 24.886719l-8.21875 34.914062 22.53125 17.078125c10.160156 7.699219 10.789062 22.746094 1.308594 31.269531l-58.304688 52.417969zm0 0" fill="#dd9f80"/><path d="m111.703125 297.871094c0 28.773437-23.324219 52.101562-52.101563 52.101562-28.773437 0-52.101562-23.328125-52.101562-52.101562 0-28.777344 23.328125-52.101563 52.101562-52.101563 28.777344 0 52.101563 23.324219 52.101563 52.101563zm0 0" fill="#ffaea1"/><path d="m438.4375 297.871094c0 28.773437-23.328125 52.101562-52.101562 52.101562-28.777344 0-52.101563-23.328125-52.101563-52.101562 0-28.777344 23.324219-52.101563 52.101563-52.101563 28.773437 0 52.101562 23.324219 52.101562 52.101563zm0 0" fill="#ffcfc2"/><path d="m222.96875 452.113281c-89.851562 0-163.367188-73.515625-163.367188-163.367187v-84.785156c0-89.851563 73.515626-163.367188 163.367188-163.367188s163.367188 73.515625 163.367188 163.367188v84.785156c0 89.851562-73.515626 163.367187-163.367188 163.367187zm0 0" fill="#eaeaea"/><path d="m222.96875 40.597656c-89.851562 0-163.367188 73.511719-163.367188 163.367188v84.78125c0 59.773437 32.550782 112.328125 80.785157 140.808594-8.164063-37.582032-7.585938-75.253907-4.25-105.855469 3.703125-33.984375 20.46875-65.261719 46.683593-87.207031 52.796876-44.210938 68.136719-133.441407 72.300782-192.695313-10.402344-2.101563-21.15625-3.199219-32.152344-3.199219zm0 0" fill="#d8d7da"/><g fill="#898890"><path d="m183.703125 289.992188c0 22.503906-18.246094 40.75-40.753906 40.75-22.503907 0-40.75-18.246094-40.75-40.75 0-22.507813 18.246093-40.753907 40.75-40.753907 22.507812 0 40.753906 18.246094 40.753906 40.753907zm0 0"/><path d="m343.738281 289.992188c0 22.503906-18.246093 40.75-40.75 40.75-22.507812 0-40.753906-18.246094-40.753906-40.75 0-22.507813 18.246094-40.753907 40.753906-40.753907 22.503907 0 40.75 18.246094 40.75 40.753907zm0 0"/><path d="m205.414062 349.972656h35.109376c8.867187 0 13.308593-10.722656 7.039062-16.992187l-11.21875-11.21875c-7.652344-7.65625-20.105469-7.507813-27.578125.320312l-10.554687 11.066407c-6.042969 6.332031-1.550782 16.824218 7.203124 16.824218zm0 0"/><path d="m237.101562 77.921875h-28.265624c-7.894532 0-14.289063-6.398437-14.289063-14.289063v-18.207031c0-7.890625 6.394531-14.289062 14.289063-14.289062h28.265624c7.894532 0 14.289063 6.398437 14.289063 14.289062v18.207031c0 7.890626-6.394531 14.289063-14.289063 14.289063zm0 0"/></g><path d="m195.179688 377.828125c0 4.140625-3.359376 7.5-7.5 7.5-4.140626 0-7.5-3.359375-7.5-7.5s3.359374-7.5 7.5-7.5c4.140624 0 7.5 3.359375 7.5 7.5zm0 0"/><path d="m147.382812 374.828125c0 4.140625-3.355468 7.5-7.5 7.5-4.140624 0-7.5-3.359375-7.5-7.5s3.359376-7.5 7.5-7.5c4.144532 0 7.5 3.359375 7.5 7.5zm0 0"/><path d="m179.296875 411.046875c0 4.140625-3.355469 7.5-7.5 7.5-4.140625 0-7.496094-3.359375-7.496094-7.5 0-4.144531 3.355469-7.5 7.496094-7.5 4.144531 0 7.5 3.355469 7.5 7.5zm0 0"/><path d="m265.757812 377.828125c0 4.140625-3.359374 7.5-7.5 7.5-4.140624 0-7.5-3.359375-7.5-7.5s3.359376-7.5 7.5-7.5c4.140626 0 7.5 3.359375 7.5 7.5zm0 0"/><path d="m230.46875 205.226562c0 4.140626-3.359375 7.5-7.5 7.5s-7.5-3.359374-7.5-7.5c0-4.140624 3.359375-7.5 7.5-7.5s7.5 3.359376 7.5 7.5zm0 0"/><path d="m171.796875 194.152344c0 4.140625-3.355469 7.5-7.496094 7.5-4.144531 0-7.5-3.359375-7.5-7.5s3.355469-7.5 7.5-7.5c4.140625 0 7.496094 3.359375 7.496094 7.5zm0 0"/><path d="m113.320312 191.726562c0 4.140626-3.355468 7.5-7.5 7.5-4.140624 0-7.5-3.359374-7.5-7.5 0-4.140624 3.359376-7.5 7.5-7.5 4.144532 0 7.5 3.359376 7.5 7.5zm0 0"/><path d="m160.574219 152.097656c0 4.140625-3.359375 7.5-7.5 7.5-4.144531 0-7.5-3.359375-7.5-7.5 0-4.144531 3.355469-7.5 7.5-7.5 4.140625 0 7.5 3.355469 7.5 7.5zm0 0"/><path d="m230.46875 159.597656c0 4.140625-3.359375 7.5-7.5 7.5s-7.5-3.359375-7.5-7.5c0-4.144531 3.359375-7.5 7.5-7.5s7.5 3.355469 7.5 7.5zm0 0"/><path d="m230.46875 113.964844c0 4.144531-3.359375 7.5-7.5 7.5s-7.5-3.355469-7.5-7.5c0-4.140625 3.359375-7.5 7.5-7.5s7.5 3.359375 7.5 7.5zm0 0"/><path d="m289.140625 194.152344c0 4.140625-3.359375 7.5-7.5 7.5-4.144531 0-7.5-3.359375-7.5-7.5s3.355469-7.5 7.5-7.5c4.140625 0 7.5 3.359375 7.5 7.5zm0 0"/><path d="m347.617188 191.726562c0 4.140626-3.359376 7.5-7.5 7.5-4.144532 0-7.5-3.359374-7.5-7.5 0-4.140624 3.355468-7.5 7.5-7.5 4.140624 0 7.5 3.359376 7.5 7.5zm0 0"/><path d="m300.363281 152.097656c0 4.140625-3.355469 7.5-7.5 7.5-4.140625 0-7.5-3.359375-7.5-7.5 0-4.144531 3.359375-7.5 7.5-7.5 4.144531 0 7.5 3.355469 7.5 7.5zm0 0"/><path d="m313.554688 374.828125c0 4.140625-3.359376 7.5-7.5 7.5-4.144532 0-7.5-3.359375-7.5-7.5s3.355468-7.5 7.5-7.5c4.140624 0 7.5 3.359375 7.5 7.5zm0 0"/><path d="m281.640625 411.046875c0 4.140625-3.359375 7.5-7.5 7.5-4.144531 0-7.5-3.359375-7.5-7.5 0-4.144531 3.355469-7.5 7.5-7.5 4.140625 0 7.5 3.355469 7.5 7.5zm0 0"/><path d="m191.203125 289.988281c0-26.605469-21.644531-48.25-48.253906-48.25-26.605469 0-48.25 21.644531-48.25 48.25 0 26.609375 21.644531 48.253907 48.25 48.253907 26.609375 0 48.253906-21.644532 48.253906-48.253907zm-81.507813 0c0-18.335937 14.917969-33.25 33.253907-33.25 18.335937 0 33.253906 14.914063 33.253906 33.25 0 18.335938-14.917969 33.253907-33.253906 33.253907-18.335938 0-33.253907-14.917969-33.253907-33.253907zm0 0"/><path d="m302.988281 338.242188c26.605469 0 48.253907-21.644532 48.253907-48.253907 0-26.605469-21.648438-48.25-48.253907-48.25s-48.253906 21.644531-48.253906 48.25c0 26.609375 21.648437 48.253907 48.253906 48.253907zm0-81.503907c18.335938 0 33.253907 14.914063 33.253907 33.25 0 18.335938-14.917969 33.253907-33.253907 33.253907-18.335937 0-33.253906-14.917969-33.253906-33.253907 0-18.335937 14.917969-33.25 33.253906-33.25zm0 0"/><path d="m189.367188 346.886719c2.796874 6.527343 8.941406 10.585937 16.046874 10.585937h35.109376c7.082031 0 13.414062-4.230468 16.125-10.773437 2.710937-6.546875 1.226562-14.011719-3.785157-19.023438l-11.21875-11.21875c-5.140625-5.140625-11.972656-7.929687-19.246093-7.839843-7.269532.085937-14.039063 3.027343-19.058594 8.289062l-10.554688 11.066406c-4.902344 5.136719-6.210937 12.386719-3.417968 18.914063zm14.269531-8.5625 10.558593-11.0625c2.207032-2.3125 5.183594-3.609375 8.378907-3.648438h.144531c3.144531 0 6.09375 1.222657 8.320312 3.449219l11.222657 11.21875c1.988281 2.128906.511719 4.292969-1.734375 4.191406h-35.113282c-2.316406-.191406-3.597656-2.0625-1.777343-4.148437zm0 0"/><path d="m445.9375 297.871094c0-30.324219-22.769531-55.410156-52.101562-59.113282 0 0-.019532-37.496093-.050782-38.84375l42.5625-38.265624c6.191406-5.5625 9.539063-13.523438 9.191406-21.835938-.347656-8.3125-4.351562-15.960938-10.980468-20.988281l-18.644532-14.132813 7.097657-30.167968c1.886719-8.019532.140625-16.398438-4.796875-22.996094-4.933594-6.597656-12.480469-10.640625-20.703125-11.097656l-33.074219-1.828126-5.929688-19.5c-2.113281-6.945312-6.820312-12.628906-13.25-16.003906-6.433593-3.375-13.785156-4.015625-20.730468-1.792968l-77.046875 24.96875c-3.085938-1.679688-6.625-2.636719-10.378907-2.636719h-28.265624c-3.757813 0-7.292969.957031-10.378907 2.636719l-77.078125-24.980469c-6.914062-2.210938-14.269531-1.570313-20.699218 1.804687-6.429688 3.371094-11.136719 9.058594-13.25 16.003906l-5.929688 19.5-33.070312 1.828126c-8.226563.457031-15.773438 4.5-20.707032 11.097656-4.9375 6.597656-6.683594 14.980468-4.796875 22.996094l7.097657 30.167968-18.644532 14.132813c-6.628906 5.027343-10.632812 12.675781-10.980468 20.988281-.3476568 8.3125 3 16.273438 9.191406 21.835938l42.5625 38.265624c-.03125 1.347657-.050782 38.84375-.050782 38.84375-29.332031 3.703126-52.101562 28.789063-52.101562 59.113282 0 24.007812 14.289062 45.5625 36.398438 54.914062.957031.402344 1.945312.59375 2.917968.59375 2.925782 0 5.703125-1.71875 6.914063-4.578125 1.613281-3.816406-.171875-8.21875-3.988281-9.832031-16.546876-6.996094-27.242188-23.128906-27.242188-41.097656 0-22.039063 16.070312-40.382813 37.101562-43.957032v34.832032c0 42.777344 15.789063 83.253906 44.621094 114.847656-19.625 10.238281-37.910156 23.046875-54.464844 38.164062-12.625 11.53125-16.632812 28.585938-10.457031 44.507813 6.15625 15.875 20.566407 25.734375 37.609375 25.734375h307.113282c17.042968 0 31.453124-9.859375 37.613281-25.734375 6.175781-15.921875 2.167969-32.976563-10.460938-44.507813-16.554687-15.117187-34.839843-27.917968-54.464843-38.160156 12.738281-13.960937 22.929687-29.652344 30.335937-46.511718 39.125 2.292968 66.390625-26.351563 66.390625-59.214844zm-15 0c0 24.59375-21.5 44.300781-45.742188 44.570312 5.683594-17.113281 8.640626-35.1875 8.640626-53.695312v-34.832032c21.03125 3.574219 37.101562 21.917969 37.101562 43.957032zm-228.890625-252.445313c0-3.742187 3.042969-6.789062 6.789063-6.789062h28.265624c3.746094 0 6.789063 3.046875 6.789063 6.789062v18.207031c0 3.742188-3.046875 6.789063-6.789063 6.789063h-28.265624c-3.746094 0-6.789063-3.046875-6.789063-6.789063zm-182.429687 105.066407c-2.847657-2.5625-4.390626-6.226563-4.230469-10.050782.160156-3.828125 2.003906-7.351562 5.054687-9.664062l22.53125-17.078125c2.363282-1.792969 3.449219-4.808594 2.769532-7.695313l-8.214844-34.914062c-.867188-3.6875-.0625-7.542969 2.207031-10.578125 2.269531-3.035157 5.738281-4.894531 9.523437-5.105469l38.308594-2.117188c3.144532-.175781 5.84375-2.292968 6.761719-5.308593l7.453125-24.515625c.9375-3.074219 3.019531-5.59375 5.867188-7.085938 2.847656-1.492187 6.105468-1.777344 9.136718-.808594l67.691406 21.9375c-35.609374 8.292969-67.996093 28.082032-91.914062 56.34375-21.105469 24.9375-34.535156 55.289063-38.898438 87.246094zm47.484374 53.472656c0-36.636719 13.105469-72.300782 36.90625-100.421875 21.652344-25.582031 50.886719-43.554688 83.039063-51.230469v11.320312c0 12.015626 9.773437 21.789063 21.789063 21.789063h28.265624c12.015626 0 21.789063-9.773437 21.789063-21.789063v-11.328124c17.828125 4.238281 34.519531 11.75 50.082031 21.851562 4.296875 2.789062 8.957032.085938 10.398438-2.082031 2.296875-3.445313 1.367187-8.101563-2.082032-10.398438-17.183593-11.453125-35.921874-19.5625-55.808593-24.175781l67.640625-21.917969c3.066406-.976562 6.320312-.695312 9.167968.796875 2.847657 1.496094 4.929688 4.011719 5.867188 7.085938l7.453125 24.515625c.917969 3.015625 3.617187 5.132812 6.761719 5.308593l38.308594 2.117188c3.785156.210938 7.253906 2.070312 9.523437 5.105469 2.269531 3.035156 3.074219 6.890625 2.207031 10.578125l-8.21875 34.914062c-.675781 2.886719.410156 5.902344 2.773438 7.695313l22.53125 17.078125c3.050781 2.3125 4.894531 5.835937 5.054687 9.664062.160157 3.824219-1.382812 7.488282-4.230469 10.050782l-34.023437 30.589843c-4.9375-36.765625-21.730469-70.828125-48.527344-97.679687-2.929687-2.933594-7.675781-2.9375-10.609375-.011719-2.929687 2.925781-2.933594 7.675781-.007812 10.605469 29.457031 29.519531 45.683594 68.570312 45.683594 109.96875v84.78125c0 41.453125-16.261719 80.542968-45.792969 110.074218-29.527344 29.527344-68.621094 45.792969-110.074219 45.792969s-80.542969-16.265625-110.074219-45.792969c-29.53125-29.53125-45.792969-68.621093-45.792969-110.074218zm216.414063 244.554687c-5.578125 16.042969-9.832031 32.273438-12.710937 48.480469h-95.671876c-2.878906-16.207031-7.132812-32.4375-12.710937-48.480469 19.109375 7.28125 39.550781 11.09375 60.546875 11.09375s41.4375-3.8125 60.546875-11.09375zm-237.730469 32.324219c-3.042968-7.851562-2.914062-19.332031 6.589844-28.007812 16.769531-15.316407 35.417969-28.113282 55.484375-38.085938 10.804687 9.898438 22.648437 18.269531 35.273437 25 7.542969 18.867188 13.167969 38.074219 16.761719 57.25h-90.484375c-12.796875 0-20.59375-8.347656-23.625-16.15625zm354.367188 0c-3.03125 7.8125-10.828125 16.15625-23.625 16.15625h-90.484375c3.589843-19.175781 9.21875-38.382812 16.761719-57.25 12.625-6.730469 24.464843-15.101562 35.269531-24.996094 20.070312 9.976563 38.714843 22.765625 55.488281 38.082032 9.503906 8.675781 9.632812 20.15625 6.589844 28.007812zm0 0"/></svg>