<svg height="512pt" viewBox="-13 0 512 512" width="512pt" xmlns="http://www.w3.org/2000/svg"><path d="m123.371094 225.609375-85.914063-15.339844c-17.988281-3.210937-33.386719 12.988281-29.304687 30.796875 9.761718 42.585938 29.429687 109.535156 60.628906 134.558594 0 .660156-12.945312-.925781-26.328125-2.742188-14.765625-2.007812-26.171875 12.796876-20.382813 26.53125 13.152344 31.191407 45.246094 75.058594 121.824219 75.800782 0 1.15625 114.402344-64.710938 114.402344-64.710938zm0 0" fill="#666670"/><path d="m361.925781 225.609375 85.914063-15.339844c17.988281-3.210937 33.386718 12.988281 29.304687 30.796875-9.761719 42.585938-29.429687 109.535156-60.628906 134.558594 0 .660156 12.945313-.925781 26.328125-2.742188 14.769531-2.007812 26.171875 12.796876 20.382812 26.53125-13.148437 31.191407-45.242187 75.058594-121.824218 75.800782 0 1.15625-114.402344-64.710938-114.402344-64.710938zm0 0" fill="#666670"/><path d="m239.40625 145.914062c-39.109375 0-76.09375-5.417968-104.148438-15.25-14.667968-5.140624-26.457031-11.351562-35.039062-18.464843-15.082031-12.492188-18.246094-26.195313-18.246094-35.492188s3.164063-23 18.246094-35.492187c8.582031-7.113282 20.371094-13.324219 35.039062-18.464844 28.054688-9.835938 65.039063-15.25 104.148438-15.25 39.105469 0 76.089844 5.414062 104.144531 15.246094 14.667969 5.140625 26.457031 11.355468 35.039063 18.464844 15.082031 12.496093 18.246094 26.199218 18.246094 35.496093 0 9.292969-3.164063 22.996094-18.246094 35.492188-8.582032 7.113281-20.371094 13.324219-35.039063 18.464843-28.054687 9.832032-65.039062 15.25-104.144531 15.25zm0 0" fill="#77777f"/><path d="m89.089844 504.5h307.117187c30.058594 0 44.289063-36.9375 22.097657-57.203125-35.242188-32.183594-92.132813-65.972656-175.65625-65.972656-83.523438 0-140.414063 33.789062-175.65625 65.972656-22.191407 20.265625-7.957032 57.203125 22.097656 57.203125zm0 0" fill="#898890"/><path d="m312.25 436.4375v-46.566406c-20.785156-5.355469-43.929688-8.546875-69.601562-8.546875-83.523438 0-140.410157 33.789062-175.652344 65.972656-22.195313 20.265625-7.960938 57.203125 22.09375 57.203125h153.558594c47.527343-28.121094 69.601562-68.0625 69.601562-68.0625zm0 0" fill="#77777f"/><path d="m242.648438 381.324219c-61.394532 0-108.394532 18.253906-142.988282 40.707031 19.234375 20.996094 71.289063 70.601562 142.988282 82.46875 71.703124-11.867188 123.753906-61.472656 142.988281-82.46875-34.59375-22.453125-81.589844-40.707031-142.988281-40.707031zm0 0" fill="#acabb1"/><path d="m312.25 436.4375v-46.566406c-20.785156-5.359375-43.925781-8.546875-69.601562-8.546875-61.394532 0-108.394532 18.253906-142.988282 40.707031 19.234375 20.996094 71.289063 70.601562 142.988282 82.46875 47.527343-28.121094 69.601562-68.0625 69.601562-68.0625zm0 0" fill="#898890"/><path d="m131.382812 297.867188c0 28.773437-23.328124 52.101562-52.101562 52.101562-28.777344 0-52.105469-23.328125-52.105469-52.101562 0-28.777344 23.328125-52.105469 52.105469-52.105469 28.773438 0 52.101562 23.328125 52.101562 52.105469zm0 0" fill="#ffaea1"/><path d="m458.121094 297.867188c0 28.773437-23.328125 52.101562-52.101563 52.101562-28.777343 0-52.105469-23.328125-52.105469-52.101562 0-28.777344 23.328126-52.105469 52.105469-52.105469 28.773438 0 52.101563 23.328125 52.101563 52.105469zm0 0" fill="#ffcfc2"/><path d="m242.648438 452.109375c-89.851563 0-163.367188-73.515625-163.367188-163.371094v-84.78125c0-89.855469 73.515625-163.371093 163.367188-163.371093 89.855468 0 163.371093 73.515624 163.371093 163.371093v84.78125c0 89.855469-73.515625 163.371094-163.371093 163.371094zm0 0" fill="#ffe2d9"/><path d="m242.648438 40.585938c-89.851563 0-163.367188 73.515624-163.367188 163.371093v84.785157c0 59.773437 32.539062 112.324218 80.777344 140.804687-8.164063-37.582031-7.578125-75.25-4.242188-105.851563 3.703125-33.984374 20.472656-65.261718 46.683594-87.210937 52.796875-44.207031 68.136719-133.441406 72.304688-192.699219-10.40625-2.097656-21.15625-3.199218-32.15625-3.199218zm0 0" fill="#ffcfc2"/><path d="m273.066406 164.496094s30.628906 71.386718 103.257813 109.417968c16.988281 8.894532 37.585937-2.261718 39.160156-21.371093 5.203125-63.210938-17.859375-211.957031-127.34375-203.152344zm0 0" fill="#c68d6d"/><path d="m323.792969 126.359375c-34.347657 48.417969-104.109375 122.335937-222.527344 149.882813-17.492187 4.070312-34.492187-8.332032-36.152344-26.210938-4.847656-52.257812-2.578125-153.828125 79.347657-195.511719 70.796874-36.023437 124.121093-26.683593 158.773437-9.730469 30.5 14.925782 40.203125 53.875 20.558594 81.570313zm0 0" fill="#dd9f80"/><path d="m167.917969 43.941406c-7.59375 2.980469-15.410157 6.484375-23.457031 10.578125-81.925782 41.683594-84.195313 143.253907-79.347657 195.511719 1.660157 17.878906 18.664063 30.28125 36.152344 26.214844 34.21875-7.960938 64.367187-19.789063 90.777344-33.761719-2.53125-9.0625-2.941407-18.144531-2.261719-26.390625 1.367188-16.652344 10.507812-31.835938 24.675781-40.691406 19.308594-12.066406 24.949219-29.488282 24.949219-29.488282-50.433594-21.472656-66.699219-67.355468-71.488281-101.972656zm0 0" fill="#c68d6d"/><path d="m363.253906 75.789062c-3.175781 3.695313-14.308594 12.097657-36.183594 18.746094-24.140624 7.335938-55.277343 11.378906-87.667968 11.378906s-63.523438-4.042968-87.664063-11.378906c-21.875-6.648437-34.027343-15.589844-37.199219-19.285156 0 0-12.839843-6.652344-22.359374-26.019531-8.234376 10.0625-10.207032 20.144531-10.207032 27.476562 0 9.292969 3.164063 22.996094 18.246094 35.492188 8.582031 7.113281 20.371094 13.324219 35.035156 18.464843 28.054688 9.832032 65.042969 15.246094 104.148438 15.246094 39.109375 0 76.09375-5.414062 104.148437-15.246094 14.667969-5.140624 26.457031-11.351562 35.039063-18.464843 15.078125-12.496094 18.246094-26.199219 18.246094-35.492188 0-6.734375-1.667969-15.78125-8.3125-25.003906-10.574219 14.523437-25.269532 24.085937-25.269532 24.085937zm0 0" fill="#898890"/><path d="m323.304688 308.632812c-4.140626 0-7.5-3.359374-7.5-7.5v-12.453124c0-4.140626 3.359374-7.5 7.5-7.5 4.144531 0 7.5 3.359374 7.5 7.5v12.453124c0 4.140626-3.355469 7.5-7.5 7.5zm0 0"/><path d="m161.992188 308.632812c-4.144532 0-7.5-3.359374-7.5-7.5v-12.453124c0-4.140626 3.355468-7.5 7.5-7.5 4.144531 0 7.5 3.359374 7.5 7.5v12.453124c0 4.140626-3.359376 7.5-7.5 7.5zm0 0"/><path d="m242.648438 316.484375c-9.707032 0-19.414063-3.140625-27.511719-9.421875-3.273438-2.539062-3.871094-7.25-1.332031-10.523438 2.539062-3.273437 7.25-3.871093 10.523437-1.332031 10.789063 8.367188 25.855469 8.367188 36.640625 0 3.273438-2.539062 7.984375-1.941406 10.523438 1.332031 2.539062 3.273438 1.941406 7.984376-1.328126 10.523438-8.101562 6.28125-17.808593 9.421875-27.515624 9.421875zm0 0"/><path d="m484.457031 242.742188c2.0625-10.921876-.609375-22.101563-8.269531-30.144532-7.652344-8.03125-18.734375-11.664062-29.667969-9.710937l-24.152343 4.3125c-3.082032-33.417969-11.785157-70.925781-27.761719-101.082031 7.785156-10.769532 9.730469-21.453126 9.730469-29.410157 0-43.289062-42.796876-55.605469-58.304688-61.035156-28.832031-10.105469-66.699219-15.671875-106.628906-15.671875-39.929688 0-77.796875 5.566406-106.628906 15.671875-15.503907 5.433594-58.300782 18.214844-58.300782 61.035156 0 7.351563 1.660156 17.027344 8.050782 26.949219-12.023438 20.847656-24.578126 53.890625-26.28125 102.347656l-17.464844-3.117187c-10.925782-1.953125-22.015625 1.679687-29.667969 9.710937-7.660156 8.042969-10.75 19.3125-8.269531 30.144532 6.621094 28.886718 14.601562 68.1875 48.730468 123.523437-1.847656-.242187-3.878906-.515625-6.109374-.816406-9.660157-1.316407-18.960938 2.527343-24.890626 10.269531-5.90625 7.71875-7.183593 17.664062-3.410156 26.609375 8.621094 20.449219 21.632813 37.949219 37.832032 51.03125-5.164063 9.992187-5.851563 21.726563-1.515626 32.90625 6.15625 15.875 20.570313 25.734375 37.613282 25.734375h307.117187c17.042969 0 31.457031-9.859375 37.613281-25.734375 4.335938-11.179687 3.644532-22.914063-1.519531-32.90625 16.203125-13.082031 29.214844-30.582031 37.835938-51.035156 3.773437-8.941407 2.496093-18.886719-3.410157-26.605469-5.929687-7.742188-15.234374-11.582031-24.890624-10.269531-2.234376.300781-4.265626.574219-6.113282.816406 7.070313-9.210937 34.027344-45.679687 48.734375-123.523437zm-35.296875-25.089844c6.042969-1.078125 11.933594.851562 16.164063 5.292968 4.242187 4.453126 5.886719 10.445313 4.511719 16.445313-2.941407 12.835937-5.96875 24.453125-9.035157 34.980469-6.789062-15.824219-20.25-28.253906-37.203125-33.460938.148438-5.914062.082032-12.167968-.203125-18.660156zm-26.640625 38.761718c16.691407 6.621094 28.101563 22.890626 28.101563 41.453126 0 3.769531-5.082032 42.34375-45.746094 44.574218 11.289062-29.757812 8.644531-68.40625 8.644531-68.40625 4.648438-4.8125 7.796875-10.925781 9-17.621094zm-69.792969 142.402344c-29.128906 29.929688-68.625 45.792969-110.078124 45.792969-41.453126 0-80.546876-16.261719-110.074219-45.792969-29.53125-29.53125-45.792969-68.621094-45.792969-110.078125v-5.085937c4.613281 1.882812 13.417969.542968 16.183594-.101563 77.636718-18.0625 134.824218-55.574219 175.304687-93.613281 16.027344 26.230469 46.203125 65.292969 94.578125 90.621094 5.027344 2.632812 15.085938 6.890625 25.671875 2.539062 0-.003906 2.640625 65.957032-45.792969 115.71875zm55.285157-146.886718c-.535157 6.496093-4.117188 12.023437-9.832031 15.167968-5.792969 3.1875-12.488282 3.253906-18.375.171875-48.171876-25.222656-77.46875-66.234375-90.503907-88.117187 11.390625-11.578125 21.265625-23.039063 29.71875-33.847656 44.265625-8.492188 64.5625-27.507813 64.667969-27.59375 20.78125 42.175781 27.308594 97.980468 24.324219 134.21875zm-270.277344-222.105469c27.234375-9.6875 63.386719-14.824219 101.667969-14.824219 38.285156 0 74.390625 5.265625 101.667968 14.824219 13.824219 4.847656 33.34375 15.480469 37.824219 21.976562-5.332031 6.265625-11.171875 11.253907-15.105469 14.320313-14.3125-12.433594-30.773437-20.234375-49.023437-23.210938-2.597656-1.808594-5.34375-3.441406-8.234375-4.855468-61.621094-30.148438-123.996094-11.320313-165.472656 9.78125-9.785156 4.980468-18.847656 10.992187-27.039063 17.894531-3.328125-2.757813-8.21875-7.652344-12.722656-15.359375 5.910156-6.429688 13.757813-12.472656 36.4375-20.546875zm213.96875 45.730469c-2.804687 1.824218-6.605469 3.957031-11.492187 6.136718-1.25-6.128906-3.394532-11.972656-6.320313-17.367187 6.277344 2.925781 12.222656 6.679687 17.8125 11.230469zm-25.789063 11.484374c-.339843.105469-38.535156 11.371094-86.511718 11.371094-31.667969 0-62.027344-3.925781-85.484375-11.050781-13.160157-4-22.222657-8.761719-27.652344-12.292969 6.625-5.277344 13.859375-9.925781 21.597656-13.863281 31.085938-15.816406 61.214844-23.863281 89.550781-23.914063h.28125c21.988282 0 42.929688 4.789063 62.242188 14.238282 14.03125 6.863281 23.621094 20.167968 25.976562 35.511718zm-232.957031 28.777344c.792969.722656 12.804688 11.054688 25.644531 16.25 3.839844 1.554688 8.21875.070313 9.941407-3.699218 1.722656-3.765626.066406-8.214844-3.699219-9.9375-7.9375-3.632813-14.609375-7.671876-19.839844-12.003907-12.835937-10.636719-15.53125-22.03125-15.53125-29.71875 0-4.5.867188-8.839843 2.589844-12.980469 7.296875 10.351563 32.851562 49.6875 147.34375 49.6875 114.488281 0 139.667969-39.652343 147.832031-48.425781 1.394531 3.765625 2.097657 7.683594 2.097657 11.71875 0 7.6875-2.695313 19.082031-15.53125 29.71875-7.894532 6.542969-18.910157 12.316407-32.730469 17.160157-27.277344 9.5625-63.386719 14.828124-101.667969 14.828124-32 0-62.304688-3.628906-87.628906-10.492187-4-1.082031-8.117188 1.277344-9.199219 5.277344-1.082031 3.996093 1.277344 8.117187 5.277344 9.199219 26.585937 7.207031 58.242187 11.015624 91.550781 11.015624 19.726562 0 38.945312-1.363281 56.824219-3.957031-38.71875 45.128907-101.816407 97.421875-196.664063 119.484375-6.179687 1.4375-12.683594.128906-17.84375-3.59375-5.214844-3.761718-8.542968-9.59375-9.140625-16.007812-6.300781-67.953125 8.621094-111.082032 20.375-133.523438zm-21.179687 160.804688s-4.519532 34.308594 8.644531 65.816406c-42.699219-2.242188-45.746094-40.800781-45.746094-44.570312 0-16.890626 9.730469-32.269532 24.421875-39.773438 2.210938 7.289062 6.613282 13.773438 12.679688 18.527344zm-51.804688-53.675782c4.230469-4.441406 10.121094-6.371093 16.167969-5.292968l19.945313 3.558594c.082031 6.847656.371093 13.96875.902343 21.378906-14.722656 5.960937-26.316406 17.605468-32.460937 31.867187-3.078125-10.550781-6.113282-22.195312-9.0625-35.066406-1.378906-6 .265625-11.992187 4.507812-16.445313zm9.011719 173.550782c-1.652344-3.914063-1.09375-8.273438 1.5-11.65625 2.609375-3.414063 6.699219-5.105469 10.960937-4.527344 7.539063 1.023438 13.59375 1.792969 17.992188 2.28125 8.484375.945312 11.34375 1.265625 14.253906-1.277344 1.632813-1.421875 4.367188-7.28125-.21875-11.542968-3.621094-3.367188-8.777344-8.023438-14.324218-15.808594 6.292968 2.261718 16.980468 4.644531 26.917968 3.117187 7.40625 16.859375 17.597656 32.554688 30.335938 46.515625-20.8125 9.355469-43.765625 28.421875-54.207032 37.925782-14.3125-11.5625-25.476562-26.671876-33.210937-45.027344zm36.476563 84.34375c-3.042969-7.847656-2.910157-19.328125 6.589843-28.003906 8.382813-7.65625 17.238281-14.671876 26.5-21.03125 16.625 17.296874 48.960938 46.5 92.570313 65.195312h-102.03125c-12.800782 0-20.597656-8.347656-23.628906-16.160156zm354.375 0c-3.03125 7.8125-10.828126 16.160156-23.628907 16.160156h-102.007812c14.835937-6.355469 29.476562-14.386719 43.824219-24.101562 3.429687-2.320313 4.328124-6.984376 2.003906-10.414063-2.320313-3.429687-6.984375-4.328125-10.414063-2.003906-28.179687 19.078125-57.429687 31.324219-86.964843 36.414062-62.15625-10.707031-109.105469-50.835937-131.210938-73.351562 5.257812-3.136719 10.628906-6.070313 16.105469-8.792969 31.632812 28.980469 72.207031 44.859375 115.105469 44.859375 42.898437 0 83.476562-15.878906 115.105468-44.859375 5.480469 2.722656 10.847656 5.65625 16.105469 8.792969-4.871094 4.957031-11.117187 10.949219-18.5625 17.316406-3.144531 2.695313-3.515625 7.429687-.824219 10.574219 1.484375 1.734375 6.199219 4.15625 10.578125.824218 9.394531-7.148437 16.304688-14.847656 21.695313-20.453124 9.261718 6.355468 18.117187 13.371093 26.5 21.027343 9.503906 8.679688 9.636718 20.160157 6.589844 28.007813zm24.019531-100.527344c4.25-.578125 8.351562 1.113281 10.960937 4.523438 2.589844 3.386718 3.152344 7.746093 1.5 11.660156-7.738281 18.355468-18.902344 33.464844-33.214844 45.027344-24.703124-21.855469-47.171874-34.257813-54.207031-37.929688 12.742188-13.960938 22.933594-29.660156 30.34375-46.523438 2.246094.253907 13.066407 1.519532 26.914063-3.109374-5.550782 7.789062-10.683594 12.464843-14.328125 15.8125-4.644531 4.269531-1.847657 10.117187-.214844 11.542968 2.90625 2.542969 5.769531 2.222656 14.25 1.277344 4.398437-.492188 10.457031-1.257812 17.996094-2.28125zm0 0"/></svg>