<svg height="512pt" viewBox="-21 0 511 512" width="512pt" xmlns="http://www.w3.org/2000/svg"><path d="m433.832031 297.867188c-4.726562-92.691407-35.675781-145.511719-35.675781-145.511719h-326.738281s-30.949219 52.820312-35.675781 145.511719c-2.648438 51.953124-15.09375 94.125-25.523438 121.15625-7.226562 18.730468 3.742188 39.507812 23.242188 44.253906 39.273437 9.5625 107.789062 21.789062 201.324218 21.789062 93.539063 0 162.054688-12.230468 201.324219-21.789062 19.503906-4.746094 30.46875-25.523438 23.246094-44.253906-10.429688-27.03125-22.875-69.203126-25.523438-121.15625zm0 0" fill="#c68d6d"/><path d="m81.226562 504.5h307.117188c30.058594 0 44.289062-36.9375 22.097656-57.203125-35.242187-32.183594-92.132812-65.972656-175.65625-65.972656-83.523437 0-140.414062 33.789062-175.65625 65.972656-22.191406 20.265625-7.957031 57.203125 22.097656 57.203125zm0 0" fill="#b99ce2"/><path d="m234.785156 381.324219c-83.523437 0-140.410156 33.789062-175.652344 65.972656-22.195312 20.265625-7.960937 57.203125 22.09375 57.203125h171.480469c50.222657-27.003906 62.738281-73.835938 62.738281-73.835938v-37.679687c-23.542968-7.210937-50.335937-11.660156-80.660156-11.660156zm0 0" fill="#a78ad6"/><path d="m123.519531 297.867188c0 28.773437-23.328125 52.101562-52.101562 52.101562-28.777344 0-52.105469-23.328125-52.105469-52.101562 0-28.777344 23.328125-52.105469 52.105469-52.105469 28.773437 0 52.101562 23.328125 52.101562 52.105469zm0 0" fill="#ffaea1"/><path d="m450.257812 297.867188c0 28.773437-23.324218 52.101562-52.101562 52.101562-28.773438 0-52.101562-23.328125-52.101562-52.101562 0-28.777344 23.328124-52.105469 52.101562-52.105469 28.777344 0 52.101562 23.328125 52.101562 52.105469zm0 0" fill="#ffcfc2"/><path d="m99.246094 358.03125c0 15.074219-12.222656 27.292969-27.292969 27.292969-15.074219 0-27.292969-12.21875-27.292969-27.292969s12.21875-27.292969 27.292969-27.292969c15.070313 0 27.292969 12.21875 27.292969 27.292969zm0 0" fill="#ffde55"/><path d="m424.914062 358.03125c0 15.074219-12.21875 27.292969-27.292968 27.292969-15.074219 0-27.292969-12.21875-27.292969-27.292969s12.21875-27.292969 27.292969-27.292969c15.074218 0 27.292968 12.21875 27.292968 27.292969zm0 0" fill="#ffeb99"/><path d="m234.785156 452.109375c-89.851562 0-163.367187-73.515625-163.367187-163.371094v-84.78125c0-89.855469 73.515625-163.371093 163.367187-163.371093 89.855469 0 163.371094 73.515624 163.371094 163.371093v84.78125c0 89.855469-73.515625 163.371094-163.371094 163.371094zm0 0" fill="#ffe2d9"/><path d="m234.785156 40.585938c-89.851562 0-163.367187 73.515624-163.367187 163.371093v84.785157c0 81.652343 60.714843 149.816406 139.226562 161.578124-39.621093-36.472656-53.257812-90.683593-56.453125-137.945312-3.199218-47.324219 13.226563-94.109375 45.632813-128.742188 43.351562-46.332031 60.3125-112.789062 65.722656-140.121093-9.96875-1.917969-20.25-2.925781-30.761719-2.925781zm0 0" fill="#ffcfc2"/><path d="m322.941406 54.519531h-176.3125s-68.0625 23.691407-66.8125 97.835938h309.941406c1.25-74.144531-66.816406-97.835938-66.816406-97.835938zm0 0" fill="#dd9f80"/><path d="m234.785156 349.835938c-15.519531 0-28.097656-12.582032-28.097656-28.101563v-20.429687c0-4.238282 3.433594-7.671876 7.667969-7.671876h40.859375c4.238281 0 7.671875 3.433594 7.671875 7.671876v20.429687c0 15.519531-12.582031 28.101563-28.101563 28.101563zm0 0" fill="#57565c"/><path d="m170.761719 321.734375c0-13.183594-13.417969-23.867187-29.972657-23.867187-16.550781 0-29.972656 10.683593-29.972656 23.867187s13.421875 23.871094 29.972656 23.871094c16.554688 0 29.972657-10.6875 29.972657-23.871094zm0 0" fill="#ffa6bb"/><path d="m358.753906 321.734375c0-13.183594-13.417968-23.867187-29.972656-23.867187s-29.972656 10.683593-29.972656 23.867187 13.417968 23.871094 29.972656 23.871094 29.972656-10.6875 29.972656-23.871094zm0 0" fill="#ffa6bb"/><path d="m174.316406 25.792969s-22.980468-1.472657-44.996094 13.679687c-9.316406 6.414063-9.910156 19.9375-1.441406 27.4375 15.816406 14.011719 39.269532 40 46.4375 75.46875h49.628906zm0 0" fill="#c6c5ca"/><path d="m295.253906 25.792969s22.984375-1.472657 44.996094 13.679687c9.320312 6.414063 9.914062 19.9375 1.445312 27.4375-15.820312 14.011719-39.273437 40-46.441406 75.46875h-49.628906zm0 0" fill="#c6c5ca"/><path d="m234.785156 7.5c-22.414062 0-39.367187 3.03125-51.28125 6.40625-10.730468 3.039062-15.59375 15.59375-9.574218 24.984375 25.53125 39.839844 32.757812 97.476563 32.757812 97.476563h56.199219s7.226562-57.636719 32.757812-97.476563c6.015625-9.390625 1.152344-21.945313-9.578125-24.984375-11.914062-3.375-28.867187-6.40625-51.28125-6.40625zm0 0" fill="#d8d7da"/><path d="m121.90625 173.992188s5.15625 30.324218-50.488281 71.769531c0 0-22.667969-45.835938 8.398437-93.40625zm0 0" fill="#dd9f80"/><path d="m347.664062 173.992188s-5.15625 30.324218 50.492188 71.769531c0 0 22.664062-45.835938-8.398438-93.40625zm0 0" fill="#dd9f80"/><path d="m381.480469 195.011719h-293.386719c-14.402344 0-26.078125-11.675781-26.078125-26.078125v-18.6875c0-14.402344 11.675781-26.078125 26.078125-26.078125h293.386719c14.402343 0 26.074219 11.675781 26.074219 26.078125v18.6875c.003906 14.402344-11.671876 26.078125-26.074219 26.078125zm0 0" fill="#b99ce2"/><path d="m272.984375 159.589844c0-24.984375-17.101563-45.238282-38.199219-45.238282-21.09375 0-38.195312 20.253907-38.195312 45.238282 0 24.980468 17.101562 45.234375 38.195312 45.234375 21.097656 0 38.199219-20.253907 38.199219-45.234375zm0 0" fill="#9ad880"/><path d="m144.445312 124.167969h-56.351562c-14.402344 0-26.078125 11.675781-26.078125 26.078125v18.6875c0 14.402344 11.675781 26.078125 26.078125 26.078125h56.515625c-9.132813-29.101563-3.636719-57.871094-.164063-70.84375zm0 0" fill="#a78ad6"/><path d="m315.441406 308.632812c4.144532 0 7.5-3.359374 7.5-7.5v-12.453124c0-4.140626-3.355468-7.5-7.5-7.5-4.140625 0-7.5 3.359374-7.5 7.5v12.453124c0 4.140626 3.359375 7.5 7.5 7.5zm0 0"/><path d="m154.128906 281.179688c-4.140625 0-7.5 3.359374-7.5 7.5v12.453124c0 4.140626 3.359375 7.5 7.5 7.5 4.144532 0 7.5-3.359374 7.5-7.5v-12.453124c0-4.140626-3.355468-7.5-7.5-7.5zm0 0"/><path d="m234.785156 357.335938c19.628906 0 35.601563-15.972657 35.601563-35.601563v-20.429687c0-8.363282-6.804688-15.171876-15.171875-15.171876h-40.859375c-8.363281 0-15.167969 6.808594-15.167969 15.171876v20.429687c0 19.628906 15.96875 35.601563 35.597656 35.601563zm-20.597656-56.03125c0-.09375 41.027344-.167969 41.027344-.167969.097656 0 .171875 20.597656.171875 20.597656 0 11.359375-9.242188 20.601563-20.601563 20.601563s-20.597656-9.242188-20.597656-20.601563zm0 0"/><path d="m466.351562 416.324219c-6.921874-17.941407-16.101562-46.398438-21.320312-81.566407 8.121094-10.292968 12.726562-23.171874 12.726562-36.890624 0-18.144532-8.160156-34.414063-20.992187-45.351563-5.5625-36.28125-14.550781-63.851563-21.761719-81.730469.03125-.613281.050782-20.539062.050782-20.539062 0-14.523438-9.269532-26.921875-22.203126-31.59375-7.839843-26.671875-24.679687-44.46875-39.507812-55.566406 1.382812-3.421876 4.804688-20.414063-8.839844-29.792969-15.921875-10.941407-32.230468-13.984375-41.660156-14.777344-3.089844-5.769531-8.3125-10.007813-14.734375-11.824219-15.671875-4.441406-33.613281-6.691406-53.324219-6.691406-19.707031 0-37.648437 2.25-53.324218 6.6875-6.417969 1.820312-11.644532 6.058594-14.730469 11.828125-9.429688.789063-25.746094 3.824219-41.660157 14.777344-6.28125 4.320312-14.96875 15.527343-8.84375 29.792969-14.828124 11.097656-31.667968 28.894531-39.507812 55.566406-12.933594 4.671875-22.203125 17.066406-22.203125 31.589844 0 0 .019531 19.925781.054687 20.539062-7.214843 17.882812-16.203124 45.453125-21.765624 81.730469-12.832032 10.941406-20.992188 27.207031-20.992188 45.351562 0 13.726563 4.609375 26.605469 12.730469 36.898438-5.21875 35.1875-14.417969 63.664062-21.324219 81.5625-4.207031 10.902343-3.507812 23.105469 1.914062 33.476562 5.449219 10.414063 15.886719 17.550781 35.652344 22.898438.160156 4.511719 1.089844 9.082031 2.828125 13.5625 6.160157 15.878906 20.570313 25.738281 37.613281 25.738281h307.117188c17.042969 0 31.457031-9.859375 37.613281-25.734375 1.738281-4.480469 2.671875-9.050781 2.828125-13.5625 15.628906-3.585937 30.203125-12.484375 35.652344-22.902344 5.425781-10.367187 6.121094-22.570312 1.914062-33.476562zm-52.945312-202.609375c2.308594 8.667968 4.503906 18.222656 6.433594 28.648437-3.574219-1.398437-7.3125-2.460937-11.179688-3.152343 1.953125-6.195313 4.054688-14.980469 4.746094-25.496094zm-7.75 75.023437v-34.832031c21.035156 3.578125 37.101562 21.921875 37.101562 43.960938 0 14.9375-7.292968 28.546874-19.378906 36.796874-5.421875-5.972656-12.894531-10.046874-21.289062-11.128906 2.351562-11.332031 3.566406-22.972656 3.566406-34.796875zm-7.320312 49.539063c10.582031.378906 19.078124 9.082031 19.078124 19.753906 0 10.914062-8.878906 19.792969-19.792968 19.792969-5.21875 0-10.152344-2.054688-13.816406-5.625 6.082031-10.765625 10.949218-22.128907 14.53125-33.921875zm-3.664063-104.722656c-14.582031-11.863282-23.738281-22.433594-29.496094-31.042969h16.300781c6.089844 0 11.800782-1.640625 16.730469-4.484375 1.378907 14.875-1.171875 27.570312-3.535156 35.527344zm5.382813-83.308594v18.6875c0 1.128906-1.898438 18.578125-18.574219 18.578125h-107.953125c4.402344-8.105469 6.957031-17.671875 6.957031-27.921875s-2.554687-19.820313-6.957031-27.921875h107.953125c10.242187 0 18.574219 8.332031 18.574219 18.578125zm-23.675782-33.578125h-64.308594c8.980469-18.0625 21.601563-32.1875 31.996094-41.785157 11.714844 8.710938 24.910156 22.191407 32.3125 41.785157zm-190.832031-95.546875c14.425781-3.773438 30.914063-6.121094 49.238281-6.121094 18.328125 0 34.960938 1.832031 49.238282 6.121094 6.390624 1.921875 8.867187 8.289062 5.304687 13.722656-5.03125 7.683594-9.585937 16.640625-13.765625 26.472656-1.621094 3.8125.15625 8.21875 3.96875 9.835938 3.816406 1.625 8.21875-.15625 9.835938-3.96875 3.851562-9.0625 8.089843-17.21875 12.589843-24.246094 1.796875-2.800781 2.964844-5.863281 3.492188-9.019531 7.855469 1.113281 19.640625 3.714843 30.550781 11.734375 6.054688 4.449218 4.640625 12.054687.722656 15.644531-12.851562 11.777344-30.410156 30.3125-41.195312 55.371094h-21.472656c1.355468-6.230469 3.171874-13.734375 5.527343-21.792969 1.164063-3.976562-1.117187-8.140625-5.09375-9.304688-3.976562-1.167968-8.140625 1.117188-9.300781 5.09375-2.660156 9.085938-4.664062 17.5-6.105469 24.292969-7.046875-5.125-15.375-8.105469-24.296875-8.105469-8.925781 0-17.25 2.980469-24.296875 8.101563-4.511719-21.257813-13.671875-54.097656-30.246093-80.109375-4.25-6.671875-.003907-12.332031 5.304687-13.722656zm79.9375 138.46875c0 20.808594-13.769531 37.734375-30.699219 37.734375-16.925781 0-30.695312-16.929688-30.695312-37.734375 0-20.808594 13.769531-37.734375 30.695312-37.734375 16.929688 0 30.699219 16.925781 30.699219 37.734375zm-131.910156-113.9375c10.941406-7.980469 22.695312-10.621094 30.550781-11.734375.527344 3.15625 1.695312 6.21875 3.488281 9.019531 15.0625 23.5 23.546875 53.597656 27.90625 73.726562h-21.496093c-10.804688-25.097656-28.335938-43.714843-41.171876-55.367187-4.796874-4.355469-4.484374-11.847656.722657-15.644531zm-8.070313 29.230468c10.355469 9.5625 23.015625 23.6875 32.015625 41.785157h-64.324219c7.398438-19.59375 20.59375-33.074219 32.308594-41.785157zm-55.988281 94.050782v-18.6875c0-10.246094 8.335937-18.578125 18.578125-18.578125h107.953125c-4.402344 8.101562-6.957031 17.671875-6.957031 27.921875s2.554687 19.816406 6.957031 27.921875h-107.953125c-19.414062 0-18.578125-17.449219-18.578125-18.578125zm1.847656 29.09375c4.929688 2.84375 10.640625 4.484375 16.730469 4.484375h16.304688c-5.757813 8.605469-14.914063 19.179687-29.496094 31.042969-2.367188-7.960938-4.914063-20.65625-3.539063-35.527344zm14.441407 174.128906c-3.664063 3.597656-8.609376 5.667969-13.851563 5.667969-10.914063 0-19.792969-8.878907-19.792969-19.792969 0-10.695312 8.535156-19.417969 19.152344-19.761719 3.597656 11.804688 8.460938 23.164063 14.492188 33.886719zm-29.640626-158.441406c.695313 10.515625 2.796876 19.300781 4.746094 25.496094-3.867187.691406-7.605468 1.753906-11.175781 3.152343 1.929687-10.425781 4.125-19.984375 6.429687-28.648437zm7.753907 40.191406v34.832031c0 11.8125 1.242187 23.457031 3.613281 34.792969-8.414062 1.070312-15.90625 5.152344-21.339844 11.136719-12.085937-8.25-19.378906-21.859375-19.378906-36.800781 0-22.039063 16.070312-40.382813 37.105469-43.960938zm-20.769531 203.949219c-31.988282-4.492188-28.585938-29.253907-25.933594-36.132813 6.507812-16.863281 21.183594-74.226562 21.507812-74.011718-1.015625 3.261718-1.5625 6.730468-1.5625 10.320312 0 19.1875 15.605469 34.792969 34.792969 34.792969 8.089844 0 15.78125-2.800781 21.894531-7.753907 4.445313 6.480469 9.347656 12.671876 14.679688 18.523438-19.621094 10.242188-37.902344 23.050781-54.453125 38.164062-5.0625 4.621094-8.734375 10.132813-10.925781 16.097657zm368.824218 22.988281c-3.027344 7.808594-10.828125 16.15625-23.628906 16.15625h-307.117188c-12.800781 0-20.597656-8.347656-23.625-16.15625-3.046874-7.851562-2.914062-19.332031 6.589844-28.007812 16.765625-15.316407 35.414063-28.113282 55.480469-38.085938 6.144531 5.609375 12.5 11.175781 19.734375 15.570312 4.671875 2.839844 8.964844.136719 10.414062-2.003906 2.320313-3.429687 1.421876-8.09375-2.003906-10.414062-43.144531-29.210938-68.898437-77.496094-68.898437-129.164063v-39.257812c2.863281-2.195313 26.15625-18.503907 42.945312-46.96875h86.421875c7.484375 6.167969 16.628906 9.8125 26.5 9.8125 9.875 0 19.019532-3.644531 26.5-9.8125h86.421875c8.292969 15.671875 22.703125 31.4375 42.949219 46.96875v39.257812c0 41.457031-16.261719 80.546875-45.792969 110.078125s-68.621093 45.792969-110.078125 45.792969c-20.480468 0-40.421875-3.960937-59.269531-11.777344-3.824219-1.585937-8.214844.230469-9.800781 4.054688-1.585938 3.828125.230468 8.214843 4.054687 9.800781 20.675781 8.574219 42.550781 12.921875 65.015625 12.921875 42.898438 0 83.476563-15.875 115.109375-44.859375 20.070313 9.976562 38.71875 22.769531 55.488281 38.085938 9.503907 8.675781 9.636719 20.15625 6.589844 28.007812zm14.449219-22.988281c-2.1875-5.964844-5.859375-11.476563-10.921875-16.097657-16.558594-15.121093-34.84375-27.921874-54.46875-38.164062 5.363281-5.878906 10.269531-12.066406 14.710938-18.515625 6.117187 4.949219 13.800781 7.746094 21.878906 7.746094 19.183594 0 34.792968-15.609375 34.792968-34.792969 0-3.59375-.546874-7.058594-1.5625-10.320312.324219-.214844 14.984376 57.105468 21.507813 74.011718 2.652344 6.878906 6.234375 29.855469-25.9375 36.132813zm0 0"/></svg>