<svg height="512pt" viewBox="-33 0 512 512.00001" width="512pt" xmlns="http://www.w3.org/2000/svg"><path d="m406.660156 387.394531c-8.257812-19.511719 0-70.929687 0-70.929687h-318.171875l-30.484375-7.855469s-16.066406 59.273437-24.324218 78.785156c-8.257813 19.507813-20.324219 73.386719 30.464843 95.246094 2.589844-1.148437 309.460938-1.148437 312.050781 0 50.785157-21.859375 38.722657-75.738281 30.464844-95.246094zm0 0" fill="#ff9478"/><path d="m145.273438 80.132812c-14.554688-7.09375-32.40625-2.980468-42.359376 9.792969-4.535156 5.816407-6.902343 12.535157-7.300781 19.265625-.351562 5.960938-4.359375 11.105469-9.960937 13.1875-7.90625 2.9375-14.695313 8.890625-18.492188 17.164063-7.601562 16.570312-.335937 36.160156 16.234375 43.761719 16.566407 7.601562 84.867188 6.957031 81.371094-72.480469-.546875-12.449219-6.964844-24.582031-19.492187-30.691407zm0 0" fill="#ffd9e8"/><path d="m66.59375 504.5h307.152344c30.058594 0 44.292968-36.941406 22.097656-57.210938-35.246094-32.1875-92.140625-65.976562-175.675781-65.976562-83.53125 0-140.425781 33.789062-175.671875 65.976562-22.195313 20.269532-7.960938 57.210938 22.097656 57.210938zm0 0" fill="#9dad92"/><path d="m395.84375 447.289062c-31.140625-28.4375-79.191406-58.128906-147.570312-64.660156v27.65625s-83.382813 71.539063-186.789063 22.796875c-6.140625 4.695313-11.800781 9.46875-16.988281 14.207031-22.195313 20.269532-7.960938 57.210938 22.097656 57.210938h307.152344c30.058594 0 44.292968-36.941406 22.097656-57.210938zm0 0" fill="#add9f2"/><path d="m111.714844 297.84375c0 28.777344-23.328125 52.109375-52.109375 52.109375-28.777344 0-52.105469-23.332031-52.105469-52.109375s23.328125-52.109375 52.105469-52.109375c28.78125 0 52.109375 23.332031 52.109375 52.109375zm0 0" fill="#9dad92"/><path d="m438.492188 297.84375c0 28.777344-23.332032 52.109375-52.109376 52.109375-28.78125 0-52.109374-23.332031-52.109374-52.109375s23.328124-52.109375 52.109374-52.109375c28.777344 0 52.109376 23.332031 52.109376 52.109375zm0 0" fill="#b0c4a5"/><path d="m168.261719 293.132812c0 22.03125-17.859375 39.886719-39.886719 39.886719s-39.886719-17.855469-39.886719-39.886719c0-22.027343 17.859375-39.886718 39.886719-39.886718s39.886719 17.859375 39.886719 39.886718zm0 0" fill="#ba9bd3"/><path d="m347.488281 293.132812c0 22.03125-17.859375 39.886719-39.886719 39.886719-22.03125 0-39.886718-17.855469-39.886718-39.886719 0-22.027343 17.855468-39.886718 39.886718-39.886718 22.027344 0 39.886719 17.859375 39.886719 39.886718zm0 0" fill="#ba9bd3"/><path d="m220.171875 40.539062c-23.117187 0-45.148437 4.867188-65.125 13.625-12.007813 5.261719-19.203125 17.714844-17.609375 30.726563l6.46875 52.804687c1.59375 12.988282-9.234375 24.121094-22.261719 22.894532l-31.453125-2.96875c-15.894531-1.5-30.09375 9.890625-32.109375 25.730468-.855469 6.742188-1.300781 13.609376-1.300781 20.574219v84.792969c0 89.863281 73.527344 163.386719 163.390625 163.386719 89.859375 0 163.386719-73.523438 163.386719-163.386719v-84.792969c-.003906-89.863281-73.527344-163.386719-163.386719-163.386719zm0 0" fill="#c2d6b9"/><path d="m157.574219 387.777344c-15.910157-19.640625-17.878907-47.136719-4.929688-68.839844 17.671875-29.628906 26.105469-68.074219 29.800781-90.789062 1.707032-10.496094 2.542969-21.109376 2.542969-31.742188v-152.027344c-10.480469 2.324219-20.589843 5.675782-30.222656 9.917969-11.894531 5.242187-18.90625 17.707031-17.324219 30.605469l6.464844 52.792968c1.59375 12.988282-9.234375 24.121094-22.265625 22.894532l-31.453125-2.96875c-15.894531-1.5-30.09375 9.894531-32.105469 25.730468-.855469 6.742188-1.300781 13.609376-1.300781 20.574219v84.792969c0 89.863281 73.527344 163.386719 163.390625 163.386719 12.800781 0 25.285156-1.496094 37.257813-4.3125-49.4375-10.304688-80.847657-36.550781-99.855469-60.015625zm0 0" fill="#b0c4a5"/><path d="m170.441406 293.132812c0 22.03125-17.855468 39.886719-39.882812 39.886719-22.03125 0-39.886719-17.855469-39.886719-39.886719 0-22.027343 17.855469-39.886718 39.886719-39.886718 22.027344 0 39.882812 17.859375 39.882812 39.886718zm0 0" fill="#ba9bd3"/><path d="m349.667969 293.132812c0 22.03125-17.855469 39.886719-39.886719 39.886719-22.027344 0-39.886719-17.855469-39.886719-39.886719 0-22.027343 17.859375-39.886718 39.886719-39.886718 22.03125 0 39.886719 17.859375 39.886719 39.886718zm0 0" fill="#ba9bd3"/><path d="m220.167969 349.820312c-15.519531 0-28.101563-12.582031-28.101563-28.105468v-20.429688c0-4.238281 3.433594-7.671875 7.671875-7.671875h40.863281c4.238282 0 7.671876 3.433594 7.671876 7.671875v20.429688c0 15.523437-12.582032 28.105468-28.105469 28.105468zm0 0" fill="#57565c"/><path d="m383.554688 245.8125s1.917968-.078125 2.828124-.078125c10.785157 0 20.808594 3.28125 29.121094 8.894531 4.042969-37.75 11.585938-173.375-81.230468-219.945312-38.46875-19.304688-69.476563-26.25-93.464844-27.1875-39.242188-1.535156-69.382813 34.476562-60.964844 72.835937 6.976562 31.789063 25.242188 68.582031 70.742188 86.34375 12.722656 4.964844 23.605468 13.820313 30.835937 25.410157 13.949219 22.359374 44.207031 56.117187 102.132813 53.726562zm0 0" fill="#ff9478"/><path d="m288.945312 386.5c-18.457031 13.589844-25.347656 37.042969-18.792968 57.738281 32.464844-10.507812 60.570312-30.957031 80.675781-57.710937-17.902344-13.222656-43.023437-13.914063-61.882813-.027344zm0 0" fill="#ff737d"/><path d="m293.332031 141.167969c-56.464843-43.59375-54.191406-113.226563-52.523437-133.671875-39.242188-1.535156-69.382813 34.476562-60.964844 72.835937 6.976562 31.789063 25.242188 68.582031 70.742188 86.34375 12.722656 4.964844 23.605468 13.820313 30.835937 25.410157 12.113281 19.414062 36.5625 47.4375 80.699219 52.902343-8.097656-28.734375-26.675782-71.308593-68.789063-103.820312zm0 0" fill="#ff7956"/><path d="m300.835938 308.609375c4.140624 0 7.5-3.355469 7.5-7.5v-12.453125c0-4.140625-3.359376-7.5-7.5-7.5-4.144532 0-7.503907 3.359375-7.503907 7.5v12.453125c0 4.144531 3.359375 7.5 7.503907 7.5zm0 0"/><path d="m139.503906 308.609375c4.144532 0 7.5-3.355469 7.5-7.5v-12.453125c0-4.140625-3.355468-7.5-7.5-7.5-4.144531 0-7.5 3.359375-7.5 7.5v12.453125c0 4.144531 3.355469 7.5 7.5 7.5zm0 0"/><path d="m220.167969 357.320312c19.632812 0 35.605469-15.972656 35.605469-35.605468v-20.433594c0-8.363281-6.804688-15.171875-15.171876-15.171875h-40.863281c-8.367187 0-15.171875 6.808594-15.171875 15.171875v20.433594c0 19.632812 15.972656 35.605468 35.601563 35.605468zm-20.429688-56.207031h40.863281c.097657 0 .171876 20.601563.171876 20.601563-.003907 11.359375-9.242188 20.601562-20.605469 20.601562-11.359375 0-20.601563-9.242187-20.601563-20.601562 0 0 .078125-20.601563.171875-20.601563zm0 0"/><path d="m83.167969 293.132812c0 26.128907 21.261719 47.386719 47.390625 47.386719 26.125 0 47.386718-21.257812 47.386718-47.386719 0-26.128906-21.261718-47.386718-47.386718-47.386718-26.128906 0-47.390625 21.257812-47.390625 47.386718zm47.390625-32.382812c17.855468 0 32.382812 14.527344 32.382812 32.382812 0 17.859376-14.527344 32.386719-32.382812 32.386719-17.859375 0-32.386719-14.527343-32.386719-32.386719 0-17.855468 14.527344-32.382812 32.386719-32.382812zm0 0"/><path d="m309.78125 340.519531c26.128906 0 47.386719-21.257812 47.386719-47.386719 0-26.128906-21.257813-47.386718-47.386719-47.386718s-47.386719 21.257812-47.386719 47.386718c0 26.128907 21.257813 47.386719 47.386719 47.386719zm0-79.769531c17.859375 0 32.386719 14.527344 32.386719 32.382812 0 17.859376-14.527344 32.386719-32.386719 32.386719-17.855469 0-32.382812-14.527343-32.382812-32.386719 0-17.855468 14.527343-32.382812 32.382812-32.382812zm0 0"/><path d="m445.988281 297.84375c0-18.304688-8.371093-35.449219-22.59375-46.722656 3.570313-38.125 7.191407-145.820313-56.25-203.007813-3.074219-2.777343-7.820312-2.53125-10.59375.546875-2.769531 3.078125-2.527343 7.820313.550781 10.59375 54.914063 49.503906 54.957032 142.550782 51.945313 183.441406-12.019531-6.160156-25.785156-4.378906-25.800781-4.378906-51.679688 2.113282-80.4375-26.121094-95.460938-50.199218-7.960937-12.765626-20.203125-22.859376-34.472656-28.429688-35.105469-13.699219-57.359375-40.941406-66.144531-80.960938-3.507813-15.996093.515625-32.382812 11.035156-44.957031 10.523437-12.574219 25.945313-19.402343 42.3125-18.777343 27.1875 1.0625 57.601563 9.941406 90.394531 26.394531 3.699219 1.859375 8.210938.363281 10.066406-3.339844 1.859376-3.703125.363282-8.210937-3.339843-10.066406-34.714844-17.421875-67.171875-27.980469-96.535157-27.980469-49.964843 0-61.179687 33.40625-63.609374 38.480469-8.691407 2.257812-17.226563 5.203125-25.460938 8.8125-9.855469 4.320312-17.039062 12.355469-20.328125 21.9375-13.335937-.449219-26.410156 5.4375-34.707031 16.085937-5.300782 6.804688-8.367188 14.90625-8.871094 23.433594-.171875 2.925781-2.167969 5.515625-5.085938 6.597656-10.128906 3.765625-18.1875 11.246094-22.695312 21.070313-4.046875 8.816406-4.785156 18.570312-2.183594 27.804687-3.960937 5.089844-6.640625 11.289063-7.519531 18.179688-.902344 7.097656-1.359375 14.335937-1.359375 21.523437v35.222657c-27.960938 4.90625-49.28125 29.351562-49.28125 58.695312 0 25.019531 15.5 46.46875 37.394531 55.296875-4.492187 14.695313-8.136719 25.457031-10.621093 31.328125-2.066407 4.882812-6.972657 18.035156-7.921876 34.675781-.902343 15.839844 2.046876 29.792969 8.738282 41.558594-2.300782 8.160156-1.921875 17.023437 1.390625 25.558594 6.15625 15.878906 20.570312 25.738281 37.613281 25.738281h307.152344c17.046875 0 31.457031-9.859375 37.617187-25.738281 3.308594-8.53125 3.691407-17.382813 1.394531-25.542969 18.421876-32.339844 2.75-71.667969.8125-76.25-1.480468-3.488281-3.707031-12.199219-2.90625-32.207031 20.792969-9.316407 35.324219-30.195313 35.324219-54.417969zm-34.679687-37s0 0 .003906.003906c12.320312 8.320313 19.675781 22.148438 19.675781 36.996094 0 24.597656-21.71875 42.675781-48.519531 44.417969 5.652344-17.070313 8.589844-35.09375 8.589844-53.546875v-35.230469c7.25.753906 14.175781 3.257813 20.25 7.359375zm-267.671875-101.140625c5.9375-6.109375 8.75-14.464844 7.714843-22.921875l-6.46875-52.804688c-1.195312-9.746093 4.101563-18.964843 13.171876-22.941406 4.539062-1.992187 9.179687-3.753906 13.890624-5.300781-1.503906 8.546875-1.355468 17.421875.574219 26.207031 9.785157 44.585938 35.835938 76.304688 75.339844 91.722656 11.277344 4.398438 20.9375 12.355469 27.199219 22.394532 9.941406 15.929687 22.320312 28.859375 36.804687 38.429687 18.597657 12.292969 40.175781 18.621094 64.195313 18.910157v35.320312c0 31.667969-9.503906 61.957031-27.148438 87.660156-20.253906-11.355468-45.289062-10-64.414062 4.082032-10.140625 7.464843-17.535156 17.734374-21.386719 29.695312-1.269531 3.941406.738281 8.882812 4.84375 9.4375 4.695313.636719 8.414063-1.664062 9.4375-4.84375 2.878906-8.941406 8.410156-16.621094 16-22.207031 13.726563-10.109375 31.515625-11.453125 46.316406-4.0625-2.980469 3.554687-6.125 7.003906-9.449219 10.324219-29.53125 29.535156-68.628906 45.796874-110.085937 45.796874-41.460937 0-80.558594-16.261718-110.089844-45.796874-29.535156-29.53125-45.796875-68.628907-45.796875-110.089844v-84.792969c0-6.554687.414063-13.15625 1.238282-19.625 1.511718-11.898437 12.050781-20.332031 23.960937-19.210937l31.453125 2.96875c8.488281.800781 16.757812-2.246094 22.699219-8.351563zm-38.585938 255.035156c12.214844 11.195313 25.769531 20.429688 40.273438 27.550781-23.253907 1.457032-46.246094-2.183593-68.707031-10.878906 9.101562-6.207031 18.59375-11.78125 28.433593-16.671875zm-16.785156-285.328125c8.578125-2.925781 13.648437-10.984375 14.835937-19.777344 2.734376-20.234374 18.609376-25.320312 26.730469-25.441406.042969.535156 6.628907 54.414063 6.628907 54.414063.480468 3.925781-.824219 7.800781-3.582032 10.636719-2.757812 2.835937-6.597656 4.246093-10.53125 3.878906l-31.453125-2.972656c-6.863281-.644532-13.453125.59375-19.25 3.308593-.023437-3.675781 2.011719-19.066406 16.621094-24.046875zm-73.265625 168.433594c0-21.039062 14.648438-38.714844 34.28125-43.386719v34.261719c0 18.503906 2.953125 36.578125 8.640625 53.691406-23.816406-.894531-42.921875-20.535156-42.921875-44.566406zm25.585938 92.472656c2.753906-6.503906 6.558593-17.71875 11.332031-33.375 2.519531.324219 6.089843 1.199219 11.753906.359375 7.398437 16.773438 17.554687 32.386719 30.238281 46.28125-29.179687 13.96875-56.316406 39.9375-57.167968 40.863281-6.464844-19.644531-1.164063-42.292968 3.84375-54.128906zm356.789062 90.519532c-3.03125 7.816406-10.828125 16.164062-23.628906 16.164062h-307.152344c-12.800781 0-20.601562-8.347656-23.628906-16.164062-3.046875-7.847657-2.914063-19.328126 6.589844-28.007813 4.203124-3.839844 8.53125-7.511719 12.960937-11.03125 23.75 10.539063 48.09375 15.824219 72.769531 15.824219 12.859375 0 25.816406-1.453125 38.816406-4.324219 14.824219 4.15625 30.289063 6.308594 46.070313 6.308594 42.902344 0 83.480469-15.878907 115.117187-44.863281 20.070313 9.976562 38.71875 22.765624 55.496094 38.085937 9.503906 8.679687 9.636719 20.160156 6.589844 28.007813zm2.378906-90.519532c5.0625 11.960938 10.300782 34.523438 3.84375 54.128906-.851562-.925781-30.8125-28.105468-57.167968-40.863281 12.832031-14.0625 23.074218-29.882812 30.5-46.882812 3.117187.496093 9.453124.972656 18.597656.050781-.261719 15.03125 1.152344 26.304688 4.226562 33.566406zm0 0"/></svg>