<svg height="512pt" viewBox="-32 0 512 512.00101" width="512pt" xmlns="http://www.w3.org/2000/svg"><path d="m71.589844 504.5h307.117187c30.058594 0 44.289063-36.9375 22.097657-57.203125-35.242188-32.183594-92.132813-65.972656-175.65625-65.972656-83.523438 0-140.410157 33.789062-175.652344 65.972656-22.191406 20.265625-7.960938 57.203125 22.09375 57.203125zm0 0" fill="#c68d6d"/><path d="m293.433594 437.054688v-47.519532c-20.445313-5.15625-43.148438-8.210937-68.28125-8.210937-83.523438 0-140.414063 33.789062-175.65625 65.972656-22.191406 20.265625-7.960938 57.203125 22.09375 57.203125h153.5625c54.234375-29.242188 68.28125-67.445312 68.28125-67.445312zm0 0" fill="#b2785b"/><path d="m378.902344 429.429688c-35.382813-25.699219-85.734375-48.105469-153.75-48.105469-68.019532 0-118.367188 22.40625-153.753906 48.101562 24.351562 21.355469 75.589843 58.222657 153.753906 75.074219 78.160156-16.847656 129.398437-53.71875 153.75-75.070312zm0 0" fill="#dd9f80"/><path d="m293.433594 437.054688v-47.519532c-20.445313-5.152344-43.152344-8.210937-68.28125-8.210937-68.019532 0-118.367188 22.40625-153.753906 48.105469 24.351562 21.351562 75.589843 58.222656 153.753906 75.070312 54.234375-29.242188 68.28125-67.445312 68.28125-67.445312zm0 0" fill="#c68d6d"/><path d="m423.191406 293.636719c-15.050781-41.695313-27.574218-97.898438-27.574218-97.898438h-340.597657s-12.523437 56.203125-27.574219 97.898438c-15.050781 41.691406 1.378907 110.691406 109.550782 101.777343h176.644531c108.167969 8.914063 124.597656-60.085937 109.550781-101.777343zm0 0" fill="#898890"/><path d="m225.152344 195.738281h-170.132813s-12.523437 56.203125-27.574219 97.894531c-15.050781 41.695313 1.378907 110.695313 109.550782 101.78125h88.15625zm0 0" fill="#717077"/><path d="m100.140625 126.289062c7.664063 21.769532-3.769531 45.625-25.539063 53.285157-21.765624 7.664062-45.621093-3.773438-53.285156-25.539063-7.660156-21.765625-24.988281-127.335937-3.21875-135 21.765625-7.660156 74.382813 85.488282 82.042969 107.253906zm0 0" fill="#abebf4"/><path d="m113.882812 297.867188c0 28.773437-23.324218 52.101562-52.101562 52.101562-28.773438 0-52.101562-23.328125-52.101562-52.101562 0-28.777344 23.328124-52.105469 52.101562-52.105469 28.777344 0 52.101562 23.328125 52.101562 52.105469zm0 0" fill="#e2b9a3"/><path d="m440.621094 297.867188c0 28.773437-23.324219 52.101562-52.101563 52.101562-28.773437 0-52.101562-23.328125-52.101562-52.101562 0-28.777344 23.328125-52.105469 52.101562-52.105469 28.777344 0 52.101563 23.328125 52.101563 52.105469zm0 0" fill="#efcbb4"/><path d="m225.152344 452.109375c-89.855469 0-163.371094-73.515625-163.371094-163.367187v-84.785157c0-89.851562 73.515625-163.367187 163.371094-163.367187 89.851562 0 163.367187 73.515625 163.367187 163.367187v84.785157c0 89.851562-73.515625 163.367187-163.367187 163.367187zm0 0" fill="#f9dcc5"/><path d="m225.152344 40.589844c-89.855469 0-163.371094 73.515625-163.371094 163.367187v84.785157c0 81.652343 60.722656 149.816406 139.230469 161.578124-39.621094-36.476562-53.261719-90.683593-56.457031-137.945312-3.199219-47.324219 13.226562-94.109375 45.636718-128.742188 43.347656-46.332031 60.3125-112.789062 65.722656-140.117187-9.96875-1.921875-20.253906-2.925781-30.761718-2.925781zm0 0" fill="#efcbb4"/><path d="m225.152344 7.5c-162.46875 0-175.085938 144.226562-175.085938 144.226562h350.171875c0 .003907-12.621093-144.226562-175.085937-144.226562zm0 0" fill="#898890"/><path d="m182.972656 11.121094c-122.554687 22.363281-132.90625 140.609375-132.90625 140.609375h140.140625c-18.859375-54.578125-12.519531-111.882813-7.234375-140.609375zm0 0" fill="#717077"/><path d="m383.359375 130.933594c0-.578125-316.417969-.578125-316.417969 0-24.285156 46.835937-5.160156 114.828125-5.160156 114.828125 57.871094-7.175781 82.714844-54.113281 82.714844-54.113281h161.3125s24.84375 46.9375 82.710937 54.113281c0 .003906 19.125-67.992188-5.160156-114.828125zm0 0" fill="#898890"/><path d="m225.316406 130.5c-79.160156 0-158.375.144531-158.375.433594-24.285156 46.835937-5.160156 114.832031-5.160156 114.832031 57.867188-7.175781 82.714844-54.117187 82.714844-54.117187h80.820312zm0 0" fill="#717077"/><path d="m374.800781 204.152344h-299.300781c-16.101562 0-29.152344-13.050782-29.152344-29.152344v-46.542969c0-16.101562 13.050782-29.152343 29.152344-29.152343h299.300781c16.101563 0 29.152344 13.050781 29.152344 29.152343v46.542969c0 16.101562-13.050781 29.152344-29.152344 29.152344zm0 0" fill="#b2e59c"/><path d="m178.96875 99.304688h-103.46875c-16.101562 0-29.152344 13.050781-29.152344 29.152343v46.546875c0 16.097656 13.050782 29.148438 29.152344 29.148438h98.285156c-23.441406-74.652344 5.183594-104.847656 5.183594-104.847656zm0 0" fill="#9ad880"/><path d="m403.953125 163.496094v-30.886719c-6.910156 1.355469-12.179687 3.242187-17.082031 5.003906-7.628906 2.746094-14.21875 5.117188-28.285156 5.117188-14.0625 0-20.652344-2.371094-28.285157-5.117188-8.972656-3.226562-19.140625-6.882812-38.4375-6.882812s-29.464843 3.65625-38.4375 6.882812c-7.628906 2.746094-14.21875 5.117188-28.28125 5.117188-14.066406 0-20.65625-2.371094-28.285156-5.117188-8.96875-3.226562-19.140625-6.882812-38.433594-6.882812-19.296875 0-29.464843 3.65625-38.4375 6.882812-7.628906 2.746094-14.214843 5.117188-28.28125 5.117188-14.0625 0-20.648437-2.371094-28.28125-5.117188-4.898437-1.761719-10.171875-3.648437-17.078125-5.003906v30.886719c2.371094.710937 22.925782 9.234375 45.359375 9.234375 19.296875 0 29.464844-3.660157 38.4375-6.886719 7.628907-2.742188 14.214844-5.113281 28.28125-5.113281 14.0625 0 20.652344 2.371093 28.28125 5.113281 8.972657 3.226562 19.140625 6.886719 38.4375 6.886719 19.292969 0 29.464844-3.660157 38.4375-6.886719 7.628907-2.742188 14.21875-5.113281 28.28125-5.113281 14.066407 0 20.65625 2.371093 28.285157 5.113281 8.972656 3.226562 19.144531 6.886719 38.4375 6.886719 23.347656 0 42.992187-8.523438 45.367187-9.234375zm0 0" fill="#ffeb99"/><path d="m164.992188 160.925781c-.917969-11.8125-.296876-21.761719 1.09375-29.988281-2.394532-.136719-4.925782-.207031-7.660157-.207031-19.296875 0-29.464843 3.65625-38.4375 6.882812-7.628906 2.746094-14.214843 5.117188-28.28125 5.117188-14.0625 0-20.648437-2.371094-28.28125-5.117188-4.898437-1.761719-10.171875-3.648437-17.078125-5.003906v30.886719c2.371094.710937 22.925782 9.234375 45.359375 9.234375 19.296875 0 29.464844-3.660157 38.4375-6.886719 7.628907-2.742188 14.214844-5.113281 28.28125-5.113281 2.398438 0 4.5625.066406 6.566407.195312zm0 0" fill="#ffde55"/><path d="m305.808594 308.632812c4.140625 0 7.5-3.359374 7.5-7.5v-12.453124c0-4.140626-3.359375-7.5-7.5-7.5-4.144532 0-7.5 3.359374-7.5 7.5v12.453124c0 4.140626 3.355468 7.5 7.5 7.5zm0 0"/><path d="m144.496094 308.632812c4.140625 0 7.5-3.359374 7.5-7.5v-12.453124c0-4.140626-3.359375-7.5-7.5-7.5-4.144532 0-7.5 3.359374-7.5 7.5v12.453124c0 4.140626 3.355468 7.5 7.5 7.5zm0 0"/><path d="m197.636719 307.0625c8.101562 6.28125 17.808593 9.421875 27.515625 9.421875 9.707031 0 19.414062-3.140625 27.511718-9.421875 3.273438-2.539062 3.867188-7.25 1.328126-10.523438-2.535157-3.273437-7.25-3.867187-10.519532-1.328124-10.789062 8.367187-25.855468 8.367187-36.640625 0-3.273437-2.539063-7.984375-1.945313-10.523437 1.328124-2.539063 3.273438-1.945313 7.984376 1.328125 10.523438zm0 0"/><path d="m164.421875 337.949219c0-4.144531-3.359375-7.5-7.5-7.5h-51.066406c-4.140625 0-7.5 3.355469-7.5 7.5 0 4.140625 3.359375 7.5 7.5 7.5h51.066406c4.140625 0 7.5-3.359375 7.5-7.5zm0 0"/><path d="m293.378906 345.449219h51.066406c4.140626 0 7.5-3.359375 7.5-7.5 0-4.144531-3.359374-7.5-7.5-7.5h-51.066406c-4.140625 0-7.5 3.355469-7.5 7.5 0 4.140625 3.359375 7.5 7.5 7.5zm0 0"/><path d="m405.863281 441.757812c-16.566406-15.125-53.863281-38.832031-53.5625-39.167968 23.96875-2.710938 43.351563-10.417969 57.621094-22.960938 12.777344-11.230468 21.152344-26.261718 24.222656-43.46875 8.714844-10.367187 13.976563-23.722656 13.976563-38.292968 0-23.042969-13.148438-43.054688-32.332032-52.972657-5.898437-21.199219-10.359374-39.980469-12.078124-47.40625 4.847656-6.210937 7.742187-14.015625 7.742187-22.484375v-46.546875c0-14.324219-8.265625-26.75-20.273437-32.773437-12.410157-25.949219-29.863282-47.128906-51.945313-62.949219-30.3125-21.71875-68.695313-32.734375-114.082031-32.734375-45.390625 0-83.773438 11.015625-114.085938 32.734375-13.15625 9.429687-24.667968 20.765625-34.453125 33.867187-7.351562-11.566406-16.660156-25.089843-26.136719-35.855468-8.957031-10.183594-22.320312-23.203125-34.871093-18.785156-8.496094 2.988281-19.226563 13.492187-14.40625 69.925781 2.535156 29.679687 8.789062 62.558593 13.042969 74.640625 4.480468 12.730468 13.84375 22.890625 25.996093 28.4375 1.339844 4.742187 3.613281 9.097656 6.613281 12.855468-1.765624 7.609376-6.15625 26.050782-11.949218 46.875-19.394532 9.847657-32.722656 29.976563-32.722656 53.171876 0 14.8125 5.445312 28.367187 14.421874 38.804687 6.773438 36.824219 36.21875 60.644531 81.40625 65.890625.304688.339844-20.761718 13.371094-30.898437 20.722656-.101563.074219-.203125.140625-.300781.21875-7.757813 5.644532-15.226563 11.734375-22.367188 18.253906-12.628906 11.53125-16.636718 28.585938-10.460937 44.507813 6.15625 15.875 20.570312 25.734375 37.613281 25.734375h307.113281c17.042969 0 31.457031-9.859375 37.613281-25.734375 6.175782-15.921875 2.167969-32.976563-10.457031-44.507813zm-39.695312-56.765624c6.085937-8.84375 11.292969-18.1875 15.570312-27.921876 10.355469.390626 23.699219-1.480468 31.140625-4.828124-7.046875 12.992187-20.636718 26.425781-46.710937 32.75zm66.953125-87.125c0 24.59375-17.097656 40.082031-45.746094 44.574218 5.6875-17.113281 8.644531-35.191406 8.644531-53.699218v-34.835938c21.03125 3.578125 37.101563 21.921875 37.101563 43.960938zm-101.292969-86.214844s50.855469 2.496094 58.945313-3.667969c1.816406 7.601563 4.546874 18.664063 7.898437 31.164063-32.929687.273437-54.503906-16.285157-66.84375-27.496094zm-256.328125-15c-20.480469 0-21.652344-22.679688-21.652344-22.679688 9.050782 2.8125 22.929688 6.253906 37.863282 6.253906 20.601562 0 31.898437-4.0625 40.972656-7.328124 7.253906-2.609376 12.988281-4.671876 25.742187-4.671876 12.753907 0 18.488281 2.0625 25.742188 4.671876 9.078125 3.265624 20.371093 7.328124 40.976562 7.328124 20.601563 0 31.898438-4.0625 40.976563-7.328124 7.253906-2.609376 12.988281-4.671876 25.742187-4.671876 12.757813 0 18.488281 2.0625 25.746094 4.671876 9.078125 3.265624 20.375 7.328124 40.980469 7.328124 15.324218 0 28.984375-3.382812 37.863281-6.179687 0 0-.832031 22.605469-21.648437 22.605469zm320.953125-38.417969c-7.320313 2.582031-21.667969 6.996094-37.867187 6.996094-17.988282 0-27.09375-3.277344-35.902344-6.445313-7.945313-2.855468-15.449219-5.554687-30.820313-5.554687-15.371093 0-22.878906 2.699219-30.824219 5.554687-8.804687 3.167969-17.910156 6.445313-35.898437 6.445313s-27.089844-3.277344-35.898437-6.445313c-7.941407-2.855468-15.445313-5.554687-30.816407-5.554687-15.371093 0-22.875 2.699219-30.820312 5.554687-8.804688 3.167969-17.910157 6.445313-35.898438 6.445313-15.628906 0-30.308593-4.441407-37.859375-7.039063v-15.933594c2.480469.777344 17.578125 7.972657 37.859375 7.972657 15.371094 0 22.875-2.699219 30.820313-5.558594 8.804687-3.167969 17.910156-6.441406 35.898437-6.441406s27.089844 3.273437 35.898438 6.441406c7.945312 2.855469 15.449219 5.558594 30.820312 5.558594 15.371094 0 22.875-2.699219 30.820313-5.558594 8.804687-3.167969 17.910156-6.441406 35.898437-6.441406s27.09375 3.273437 35.902344 6.441406c7.945313 2.855469 15.449219 5.558594 30.820313 5.558594 23.019531 0 35.386718-7.195313 37.867187-7.972657zm-171.300781-143.234375c83.453125 0 125.746094 39.238281 147.109375 76.804688h-26.371094c-4.140625 0-7.5 3.359374-7.5 7.5 0 4.144531 3.359375 7.5 7.5 7.5h28.914063c11.335937 0 20.65625 8.761718 21.570312 19.867187-4.625 1.226563-18.800781 8.558594-37.789062 8.558594-12.753907 0-18.488282-2.0625-25.746094-4.671875-9.074219-3.265625-20.371094-7.328125-40.976563-7.328125s-31.898437 4.0625-40.976562 7.328125c-7.257813 2.609375-12.988281 4.671875-25.742188 4.671875-12.757812 0-18.488281-2.0625-25.746093-4.671875-9.074219-3.265625-20.371094-7.328125-40.972657-7.328125-20.605469 0-31.898437 4.0625-40.976562 7.328125-7.253907 2.609375-12.984375 4.671875-25.742188 4.671875-18.507812 0-33.160156-7.332031-37.777343-8.558594.910156-11.105469 10.230468-19.867187 21.570312-19.867187h237.597656c4.140625 0 7.5-3.355469 7.5-7.5 0-4.140626-3.359375-7.5-7.5-7.5h-235.054687c21.359375-37.566407 63.652343-76.804688 147.109375-76.804688zm-196.761719 136.546875c-3.339844-9.492187-9.621094-40.210937-12.246094-70.9375-3.644531-42.667969 2.574219-53.84375 4.441407-54.5.9375-.320313 6.859374 1.167969 18.632812 14.542969 10.421875 11.847656 20.792969 27.5 28.226562 39.578125-2.988281 4.941406-5.761718 10.097656-8.324218 15.453125-12.007813 6.023437-20.269532 18.449218-20.269532 32.773437v38.101563c-4.726562-3.914063-8.363281-9.058594-10.460937-15.011719zm31.4375 56.578125c10.367187 7.902344 58.644531 3.527344 58.644531 3.527344-26.449218 24.003906-63.503906 26.933594-66.492187 27.429687 3.324219-12.390625 6.035156-23.375 7.847656-30.957031zm-5.546875 45.78125v34.835938c0 18.453124 3.042969 36.558593 8.765625 53.691406-24.363281-.835938-45.867187-19.972656-45.867187-44.566406 0-22.039063 16.066406-40.382813 37.101562-43.960938zm-16.445312 98.523438c7.332031 3.230468 19.230468 6.105468 30.855468 4.632812 4.277344 9.730469 9.449219 19.066406 15.46875 27.867188-25.714844-6.300782-39.25-19.519532-46.324218-32.5zm10.128906 128.410156c-3.046875-7.847656-2.914063-19.328125 6.589844-28.007813 5.320312-4.859375 10.835937-9.460937 16.523437-13.804687 19.601563 16.425781 53.515625 40.265625 101.453125 57.972656h-100.941406c-12.796875 0-20.59375-8.347656-23.625-16.160156zm354.371094 0c-3.027344 7.8125-10.828126 16.160156-23.625 16.160156h-100.75c27.652343-10.191406 53.558593-23.53125 77.421874-39.902344 3.414063-2.34375 4.285157-7.011718 1.9375-10.425781-2.339843-3.417969-7.007812-4.285156-10.425781-1.941406-24.832031 17.039062-66.03125 39.828125-121.742187 52.09375-68.761719-15.132813-116.027344-46.121094-141.445313-66.816407 8.464844-5.648437 17.261719-10.742187 26.347657-15.257812 5.339843 4.886719 11.011718 9.472656 17.007812 13.703125 1.316406.925781 6.90625 2.917969 10.453125-1.808594 2.488281-3.3125 1.578125-8.0625-1.804687-10.449219-41.597657-29.335937-66.429688-76.980468-66.429688-127.453124v-36.542969c35.378906-6.367188 58.289062-26.820313 70.085938-40.546875h171.570312c11.792969 13.726562 34.703125 34.179687 70.082031 40.546875v36.542969c0 41.453124-16.261719 80.542968-45.792969 110.074218s-68.621093 45.792969-110.078124 45.792969c-21.78125 0-42.886719-4.460937-62.726563-13.261719-3.789063-1.679687-8.21875.03125-9.898437 3.816406-1.675782 3.785157.03125 8.21875 3.816406 9.894532 21.769531 9.65625 44.921875 14.550781 68.8125 14.550781 42.894531 0 83.46875-15.878906 115.101562-44.855469 20.070313 9.972656 38.714844 22.753906 55.492188 38.078125 9.503906 8.679688 9.636718 20.160157 6.589844 28.007813zm0 0"/></svg>