<svg height="511pt" viewBox="-16 1 511 511.99901" width="511pt" xmlns="http://www.w3.org/2000/svg"><path d="m102.917969 504.5h307.117187c30.054688 0 44.289063-36.9375 22.09375-57.203125-35.242187-32.183594-92.128906-65.972656-175.652344-65.972656-83.523437 0-140.414062 33.789062-175.65625 65.972656-22.191406 20.265625-7.957031 57.203125 22.097657 57.203125zm0 0" fill="#c2e8ef"/><path d="m256.476562 381.324219c-83.523437 0-140.410156 33.789062-175.652343 65.972656-22.195313 20.265625-7.960938 57.203125 22.09375 57.203125h159.496093c58.601563-25.078125 74.71875-73.835938 74.71875-73.835938v-37.679687c-23.539062-7.210937-50.335937-11.660156-80.65625-11.660156zm0 0" fill="#afd8e2"/><path d="m294.167969 40.113281c0-18.011719-16.875-32.613281-37.691407-32.613281-20.816406 0-37.691406 14.601562-37.691406 32.613281s16.875 32.613281 37.691406 32.613281c20.816407 0 37.691407-14.601562 37.691407-32.613281zm0 0" fill="#ffa5b5"/><path d="m145.210938 297.867188c0 28.773437-23.328126 52.101562-52.101563 52.101562-28.777344 0-52.105469-23.328125-52.105469-52.101562 0-28.777344 23.328125-52.105469 52.105469-52.105469 28.773437 0 52.101563 23.328125 52.101563 52.105469zm0 0" fill="#ffaea1"/><path d="m471.949219 297.867188c0 28.773437-23.328125 52.101562-52.101563 52.101562-28.777344 0-52.105468-23.328125-52.105468-52.101562 0-28.777344 23.328124-52.105469 52.105468-52.105469 28.773438 0 52.101563 23.328125 52.101563 52.105469zm0 0" fill="#ffcfc2"/><path d="m256.476562 452.109375c-89.851562 0-163.367187-73.515625-163.367187-163.367187v-84.785157c0-89.851562 73.515625-163.367187 163.367187-163.367187 89.851563 0 163.371094 73.515625 163.371094 163.367187v84.785157c0 89.851562-73.519531 163.367187-163.371094 163.367187zm0 0" fill="#ffe2d9"/><path d="m256.476562 40.589844c-89.851562 0-163.367187 73.515625-163.367187 163.367187v84.785157c0 81.652343 60.71875 149.816406 139.226563 161.578124-39.621094-36.476562-53.257813-90.683593-56.453126-137.945312-3.199218-47.324219 13.222657-94.105469 45.632813-128.742188 43.347656-46.332031 60.335937-112.785156 65.746094-140.113281-9.96875-1.921875-20.277344-2.929687-30.785157-2.929687zm0 0" fill="#ffcfc2"/><path d="m229.453125 181.789062v54.972657c0 10.109375 8.269531 18.378906 18.378906 18.378906 18.378907 0 18.378907-14.984375 18.378907-14.984375 0-7.335938 6.003906-13.339844 13.339843-13.339844 7.335938 0 13.335938 6.003906 13.335938 13.339844v5.210938c0 10.109374 8.273437 18.382812 18.378906 18.382812 10.109375 0 18.382813-8.273438 18.382813-18.382812v-63.578126zm0 0" fill="#ff929f"/><path d="m256.476562 349.835938c-15.519531 0-28.097656-12.582032-28.097656-28.101563v-20.429687c0-4.234376 3.433594-7.667969 7.667969-7.667969h40.859375c4.238281 0 7.671875 3.433593 7.671875 7.667969v20.429687c-.003906 15.519531-12.582031 28.101563-28.101563 28.101563zm0 0" fill="#57565c"/><path d="m192.453125 321.734375c0-13.183594-13.417969-23.867187-29.972656-23.867187-16.550781 0-29.972657 10.683593-29.972657 23.867187s13.421876 23.871094 29.972657 23.871094c16.554687 0 29.972656-10.6875 29.972656-23.871094zm0 0" fill="#ffa6bb"/><path d="m380.445312 321.734375c0-13.183594-13.417968-23.867187-29.972656-23.867187-16.554687 0-29.972656 10.683593-29.972656 23.867187s13.417969 23.871094 29.972656 23.871094c16.554688 0 29.972656-10.6875 29.972656-23.871094zm0 0" fill="#ffa6bb"/><path d="m168.320312 195.738281s-8.386718 51.621094-51.570312 71.589844c-12.4375 5.753906-26.964844-2.265625-28.992188-15.816406-2.152343-14.386719-2.542968-32.945313 5.351563-47.359375 0-.195313 75.210937-8.414063 75.210937-8.414063zm0 0" fill="#c68d6d"/><path d="m344.632812 195.542969s8.386719 51.625 51.570313 71.59375c12.4375 5.75 26.964844-2.269531 28.992187-15.820313 2.15625-14.386718 2.542969-32.75-5.347656-47.164062zm0 0" fill="#c68d6d"/><path d="m228.597656 36.015625s-166.171875 5.15625-135.488281 168.136719h104.039063zm0 0" fill="#c2e8ef"/><path d="m284.332031 36s166.199219 5.171875 135.515625 168.152344h-103.746094zm0 0" fill="#c2e8ef"/><path d="m228.960938 35.804688c-33.59375 19.269531-84.964844 65.84375-76.296876 168.347656h207.625c8.671876-102.503906-42.699218-149.078125-76.296874-168.347656-17.046876-9.777344-37.984376-9.777344-55.03125 0zm0 0" fill="#def4f9"/><path d="m183.558594 204.152344h145.835937c0-24.703125-32.644531-44.726563-72.917969-44.726563-40.269531 0-72.917968 20.023438-72.917968 44.726563zm0 0" fill="#898890"/><path d="m159.996094 504.5c-4.140625-87.871094-28.222656-211.875-34.273438-237.414062-9.390625-39.636719-39.503906-51.453126-71.410156-43.894532-31.902344 7.558594-53.515625 31.632813-44.125 71.265625 5.296875 22.359375 32.109375 118.371094 62.671875 195.875 3.375 8.5625 11.660156 14.167969 20.863281 14.167969zm0 0" fill="#ffdaaa"/><path d="m131.972656 297.015625-113.9375 26.996094c2.625 9.375 5.769532 20.289062 9.339844 32.25l110.71875-26.234375c-2.175781-12.292969-4.261719-23.453125-6.121094-33.011719zm0 0" fill="#acabb1"/><path d="m51.46875 431.789062 98.980469-23.449218c-1.546875-11.300782-3.191407-22.476563-4.875-33.308594l-104.695313 24.804688c3.359375 10.4375 6.902344 21.160156 10.589844 31.953124zm0 0" fill="#acabb1"/><path d="m337.132812 308.632812c4.144532 0 7.5-3.359374 7.5-7.5v-12.453124c0-4.140626-3.355468-7.5-7.5-7.5-4.140624 0-7.5 3.359374-7.5 7.5v12.453124c0 4.140626 3.359376 7.5 7.5 7.5zm0 0"/><path d="m175.820312 281.183594c-4.144531 0-7.5 3.355468-7.5 7.5v12.449218c0 4.140626 3.355469 7.5 7.5 7.5 4.144532 0 7.5-3.359374 7.5-7.5v-12.449218c0-4.144532-3.355468-7.5-7.5-7.5zm0 0"/><path d="m292.078125 301.304688c0-8.363282-6.804687-15.167969-15.171875-15.167969h-40.859375c-8.363281 0-15.167969 6.804687-15.167969 15.167969v20.429687c0 19.632813 15.96875 35.601563 35.597656 35.601563 19.628907 0 35.601563-15.96875 35.601563-35.601563zm-15 20.429687c0 11.359375-9.242187 20.601563-20.601563 20.601563-11.359374 0-20.597656-9.242188-20.597656-20.601563v-20.429687c0-.09375 41.199219-.09375 41.199219 0zm0 0"/><path d="m413.066406 357.070312c44.570313-1.824218 66.382813-26.339843 66.382813-59.203124 0-27.707032-19.183594-51.550782-45.5625-57.921876.75-14.433593-1.320313-26.824218-6.214844-36.960937 8.722656-49.078125.871094-89.253906-23.371094-119.429687-30.726562-38.246094-79.253906-49.957032-104.074219-53.515626-5.050781-17.257812-22.75-30.039062-43.75-30.039062-21.003906 0-38.707031 12.785156-43.75 30.046875-24.8125 3.554687-73.34375 15.253906-104.074218 53.503906-24.246094 30.175781-32.09375 70.351563-23.371094 119.433594-1.65625 3.4375-2.984375 7.179687-3.996094 11.171875-8.964844-1.210938-18.628906-.652344-28.699218 1.738281-18.472657 4.375-32.992188 13.589844-41.996094 26.644531-9.9375 14.410157-12.597656 32.964844-7.699219 53.648438 4.863281 20.527344 31.859375 117.949219 62.992187 196.894531 4.53125 11.492188 15.457032 18.917969 27.835938 18.917969h316.316406c17.042969 0 31.453125-9.859375 37.609375-25.734375 6.175781-15.921875 2.167969-32.976563-10.457031-44.507813-16.5625-15.125-34.851562-27.929687-54.476562-38.171874 2.859374-3.136719 5.613281-6.375 8.238281-9.722657 9.003906-11.476562 16.398437-23.8125 22.117187-36.792969zm2.046875-145.417968c4.050781 9.894531 4.878907 23.089844 2.667969 38.554687-1.300781 9.078125-12.152344 13.542969-18.429688 10.121094-23.242187-12.667969-36.367187-33.511719-42.234374-48.675781zm49.335938 86.214844c0 24.59375-16.542969 42.359374-45.742188 44.574218 5.703125-17.128906 8.640625-35.171875 8.640625-53.699218v-23.625c2.230469-2.992188 3.851563-6.421876 4.757813-10.140626 18.828125 5.367188 32.34375 22.769532 32.34375 42.890626zm-71.839844-204.917969c20.8125 25.910156 27.847656 60.773437 20.933594 103.703125h-77.449219c-5.445312-25.609375-38.453125-44.730469-79.617188-44.730469-41.164062 0-74.167968 19.121094-79.613281 44.730469h-17.21875c-2.410156-40.6875 4.902344-75.664063 21.769531-104.058594 15.542969-26.164062 36.464844-41.785156 51.28125-50.28125 14.667969-8.414062 32.894532-8.417969 47.566407 0 18.550781 10.640625 34.019531 24.777344 45.976562 42.023438 16.652344 24.023437 25.84375 53.476562 27.3125 87.53125.175781 4.136718 3.667969 7.367187 7.816407 7.167968 4.136718-.179687 7.347656-3.675781 7.167968-7.816406-1.59375-36.929688-11.675781-69.039062-29.972656-95.429688-7.160156-10.332031-15.46875-19.644531-24.824219-27.886718 23.875 5.496094 56.953125 17.765625 78.871094 45.046875zm-113.058594 126.367187c-11.457031 0-20.78125 9.292969-20.839843 20.734375-.125 2.851563-1.714844 7.589844-10.878907 7.589844-6 0-10.878906-4.878906-10.878906-10.878906v-25.109375h85.195313v33.714844c0 6-4.882813 10.882812-10.878907 10.882812-6 0-10.882812-4.882812-10.882812-10.882812v-5.210938c0-11.492188-9.347657-20.839844-20.835938-20.839844zm-87.097656-22.664062c6.292969-16.730469 33.0625-29.730469 64.023437-29.730469 30.964844 0 57.730469 13 64.023438 29.730469zm64.023437-181.652344c10.488282 0 19.742188 4.472656 25.15625 11.246094-15.992187-6.972656-34.320312-6.972656-50.3125-.003906 5.414063-6.769532 14.667969-11.242188 25.15625-11.242188zm-136.191406 78.019531c21.875-27.273437 55.039063-39.566406 78.953125-45.082031-10.640625 9.382812-21.527343 21.519531-30.722656 36.996094-18.300781 30.8125-26.320313 68.363281-23.890625 111.71875h-45.214844c-6.90625-42.890625.105469-77.730469 20.875-103.632813zm-22.441406 118.632813h58.097656c-4.675781 12.308594-13.027344 27.992187-27.492187 39.632812-10.355469-25.320312-30.5-32.5-32.652344-33.359375.5625-2.214843 1.242187-4.3125 2.046875-6.273437zm-32.164062 182.308594c.816406 3.449218 3.894531 5.773437 7.292968 5.773437.574219 0 1.15625-.066406 1.734375-.207031l64.652344-15.316406c.917969 6.0625 1.816406 12.210937 2.691406 18.410156l-85.667969 20.296875c-7.238281-21.464844-13.855468-42.445313-19.523437-61.195313l95.195313-22.558594c1.652343 9.554688 3.339843 19.679688 5.003906 30.179688l-65.808594 15.589844c-4.03125.957031-6.523438 4.996094-5.570312 9.027344zm-33.117188-46.636719c-1.867188-6.324219-3.59375-12.292969-5.167969-17.824219l98.679688-23.378906c1.074219 5.660156 2.203125 11.777344 3.371093 18.25zm-9.621094-96.269531c6.859375-9.949219 18.304688-17.058594 33.101563-20.566407 6.0625-1.433593 11.550781-2.078125 16.523437-2.078125 32.382813 0 42.753906 27.296875 45.859375 40.402344 1.089844 4.605469 2.761719 12.394531 4.785157 22.570312l-99.867188 23.664063c-2.824219-10.261719-4.835938-18.007813-5.855469-22.320313-3.949219-16.671874-2.117187-30.695312 5.453125-41.671874zm70.78125 245.945312c-6.179687 0-11.628906-3.695312-13.882812-9.417969-6.429688-16.296875-12.675782-33.382812-18.582032-50.402343l82.832032-19.625c3.585937 27.128906 6.53125 54.617187 8 79.445312zm339.941406-16.160156c-3.03125 7.8125-10.832031 16.160156-23.628906 16.160156h-242.921875c-1.21875-21.140625-3.457031-43.984375-6.25-66.859375 28.15625 19.089844 61.550781 29.46875 95.613281 29.46875 4.144532 0 8.332032-.152344 12.449219-.449219 4.128907-.300781 7.234375-3.894531 6.933594-8.023437-.300781-4.132813-3.886719-7.246094-8.023437-6.9375-3.753907.273437-7.578126.414062-11.359376.414062-35.65625 0-70.519531-12.476562-98.277343-35.136719-8.636719-63.785156-20.453125-123.804687-24.929688-143.0625 22.269531-15.65625 33.347657-38.976562 38.589844-54.761718h50.09375v25.109375c0 14.273437 11.609375 25.882812 25.878906 25.882812 18.988281 0 25.878907-13.449219 25.878907-22.488281 0-3.21875 2.621093-5.835938 5.839843-5.835938s5.839844 2.617188 5.839844 5.835938v5.214844c0 14.269531 11.609375 25.878906 25.878906 25.878906s25.878907-11.609375 25.878907-25.878906v-33.71875h4.027343c5.761719 17.078125 20.300781 47.1875 51.878907 62.292968 6.15625 2.945313 13.808593 2.40625 19.292968 1.5v13.296876c0 35.027343-11.480468 68.175781-33.199218 95.867187-21.058594 26.851563-50.65625 46.363281-83.339844 54.941406-4.007813 1.054688-6.402344 5.152344-5.351563 9.160157.886719 3.367187 4.945313 6.464843 9.160157 5.347656 26.675781-7.050782 51.492187-20.65625 71.945312-39.316406 20.074219 9.972656 38.730469 22.769531 55.511719 38.09375 9.5 8.675781 9.632812 20.15625 6.589843 28.003906zm0 0"/></svg>