<svg height="511pt" viewBox="-24 0 511 511.99952" width="511pt" xmlns="http://www.w3.org/2000/svg"><path d="m78.632812 504.5h307.125c30.054688 0 44.289063-36.9375 22.09375-57.207031-35.242187-32.183594-92.132812-65.96875-175.65625-65.96875-83.523437 0-140.414062 33.785156-175.65625 65.96875-22.195312 20.269531-7.960937 57.207031 22.09375 57.207031zm0 0" fill="#c3dfed"/><path d="m312.703125 392.9375c-23.503906-7.183594-50.25-11.617188-80.507813-11.617188-83.523437 0-140.414062 33.789063-175.65625 65.972657-22.195312 20.265625-7.960937 57.207031 22.09375 57.207031h153.5625c70.644532-25.425781 79.429688-96.121094 80.507813-111.5625zm0 0" fill="#a6cddd"/><path d="m357.929688 373.5625h-251.46875s-121.472657 87.664062 125.734374 130.9375c247.207032-43.273438 125.734376-130.9375 125.734376-130.9375zm0 0" fill="#ff929f"/><path d="m312.851562 389.945312v-16.382812h-206.390624s-121.472657 87.664062 125.734374 130.9375c79.503907-28.617188 80.65625-114.554688 80.65625-114.554688zm0 0" fill="#ff737d"/><path d="m120.925781 297.863281c0 28.773438-23.328125 52.101563-52.101562 52.101563-28.777344 0-52.105469-23.328125-52.105469-52.101563 0-28.777343 23.328125-52.105469 52.105469-52.105469 28.773437 0 52.101562 23.328126 52.101562 52.105469zm0 0" fill="#ffaea1"/><path d="m447.671875 297.863281c0 28.773438-23.328125 52.101563-52.105469 52.101563s-52.101562-23.328125-52.101562-52.101563c0-28.777343 23.324218-52.105469 52.101562-52.105469s52.105469 23.328126 52.105469 52.105469zm0 0" fill="#ffcfc2"/><path d="m232.195312 452.109375c-89.855468 0-163.371093-73.519531-163.371093-163.371094v-84.785156c0-89.855469 73.515625-163.375 163.371093-163.375 89.851563 0 163.371094 73.519531 163.371094 163.375v84.785156c0 89.851563-73.515625 163.371094-163.371094 163.371094zm0 0" fill="#ffe2d9"/><path d="m232.195312 40.582031c-89.855468 0-163.371093 73.515625-163.371093 163.371094v84.785156c0 59.777344 32.546875 112.328125 80.785156 140.808594-8.164063-37.582031-7.585937-75.253906-4.25-105.855469 3.703125-33.984375 20.472656-65.261718 46.683594-87.210937 52.800781-44.210938 68.136719-133.445313 72.304687-192.703125-10.40625-2.097656-21.152344-3.195313-32.152344-3.195313zm0 0" fill="#ffcfc2"/><path d="m136.242188 213.34375s-10.507813 34.9375-43.566407 56.480469c-12.289062 8.011719-28.851562 1.410156-32.367187-12.832031-4.847656-19.640626-8.351563-49.742188.738281-84.664063-.855469-.855469 75.195313 41.015625 75.195313 41.015625zm0 0" fill="#898890"/><path d="m328.148438 213.34375s10.507812 34.9375 43.566406 56.480469c12.289062 8.011719 28.851562 1.410156 32.367187-12.832031 4.847657-19.640626 8.351563-49.742188-.738281-84.664063.855469-.855469-75.195312 41.015625-75.195312 41.015625zm0 0" fill="#898890"/><path d="m232.195312 53.570312s-97.894531 36.972657-184.511718 28.808594c-25.15625-2.371094-45.074219 21.171875-38.414063 45.546875 13.757813 50.347657 62.421875 117.832031 222.925781 117.832031 160.503907 0 209.164063-67.484374 222.921876-117.832031 6.660156-24.375-13.257813-47.917969-38.414063-45.546875-86.613281 8.164063-184.507813-28.808594-184.507813-28.808594zm0 0" fill="#c68d6d"/><path d="m326.550781 168.335938v-90.410157c-52.859375-8.6875-94.355469-24.355469-94.355469-24.355469s-97.894531 36.972657-184.511718 28.808594c-25.15625-2.371094-45.074219 21.171875-38.414063 45.546875 12.625 46.1875 54.59375 106.796875 185.359375 116.496094 95.167969-19.433594 131.921875-76.085937 131.921875-76.085937zm0 0" fill="#b2785b"/><path d="m265.066406 9.089844c-13.703125 4.320312-32.871094 10.449218-32.871094 10.449218s-19.171874-6.128906-32.871093-10.449218c-9.023438-2.84375-18.84375-1.882813-27.074219 2.777344-51.777344 29.316406-76.929688 76.894531-88.4375 107.976562-6.277344 16.964844 3.363281 35.648438 20.773438 40.566406 27.238281 7.6875 71.84375 17.042969 127.609374 17.042969 55.769532 0 100.371094-9.355469 127.613282-17.042969 17.410156-4.914062 27.050781-23.601562 20.769531-40.566406-11.507813-31.082031-36.660156-78.660156-88.4375-107.976562-8.230469-4.660157-18.054687-5.621094-27.074219-2.777344zm0 0" fill="#dd9f80"/><path d="m135.390625 39.390625c-27.679687 26.644531-43.226563 57.898437-51.578125 80.453125-6.28125 16.964844 3.359375 35.648438 20.769531 40.566406 24.738281 6.980469 63.792969 15.339844 112.523438 16.816406-53.371094-33.394531-74.136719-101.050781-81.714844-137.835937zm0 0" fill="#c68d6d"/><path d="m312.851562 308.628906c4.144532 0 7.5-3.359375 7.5-7.5v-12.453125c0-4.140625-3.355468-7.5-7.5-7.5-4.140624 0-7.5 3.359375-7.5 7.5v12.453125c0 4.140625 3.359376 7.5 7.5 7.5zm0 0"/><path d="m151.539062 281.179688c-4.144531 0-7.5 3.355468-7.5 7.5v12.449218c0 4.144532 3.355469 7.5 7.5 7.5 4.140626 0 7.5-3.355468 7.5-7.5v-12.449218c0-4.144532-3.359374-7.5-7.5-7.5zm0 0"/><path d="m250.515625 295.207031c-10.785156 8.367188-25.851563 8.367188-36.640625 0-3.273438-2.539062-7.984375-1.945312-10.523438 1.328125-2.539062 3.273438-1.941406 7.984375 1.328126 10.523438 8.101562 6.28125 17.808593 9.425781 27.515624 9.425781 9.707032 0 19.414063-3.144531 27.515626-9.425781 3.273437-2.539063 3.867187-7.25 1.328124-10.523438-2.539062-3.273437-7.253906-3.867187-10.523437-1.328125zm0 0"/><path d="m462.355469 129.902344c3.765625-13.785156.507812-28.566406-8.71875-39.542969-9.265625-11.023437-23.328125-16.792969-37.636719-15.445313-14.96875 1.410157-31.363281 1.496094-48.746094.285157-15.472656-25.203125-38.203125-51.050781-71.417968-69.855469-9.960938-5.640625-21.996094-6.882812-33.023438-3.40625 0 0 0 0-.003906 0-10.785156 3.402344-25.109375 7.972656-30.613282 9.730469-5.503906-1.757813-19.828124-6.328125-30.617187-9.730469-11.027344-3.476562-23.0625-2.234375-33.023437 3.40625-33.21875 18.804688-55.945313 44.652344-71.417969 69.855469-17.386719 1.210937-33.777344 1.125-48.75-.285157-14.304688-1.347656-28.371094 4.425782-37.632813 15.445313-9.226562 10.976563-12.484375 25.757813-8.71875 39.542969 7.839844 28.691406 23.433594 52.90625 46.429688 72.171875-1.164063 14.867187-.335938 28.230469 1.226562 39.324219-24.101562 8.09375-40.472656 30.519531-40.472656 56.464843 0 32.863281 26.613281 63.027344 66.390625 59.214844 3.527344 8.027344 7.683594 15.792969 12.449219 23.230469-10.097656 11.050781-20.484375 23.46875-18.660156 46.523437-6.167969 4.695313-12.1875 9.691407-17.917969 14.921875-12.628907 11.53125-16.632813 28.589844-10.457031 44.511719 6.15625 15.875 20.566406 25.734375 37.609374 25.734375h307.125c17.042969 0 31.453126-9.859375 37.609376-25.734375 6.175781-15.921875 2.171874-32.976563-10.457032-44.511719-5.726562-5.226562-11.742187-10.21875-17.90625-14.914062 2.117188-19.175782-9.042968-35.929688-18.675781-46.523438 4.765625-7.445312 8.925781-15.214844 12.457031-23.246094 41.648438 2.507813 66.386719-26.339843 66.386719-59.207031 0-25.699219-16.640625-48.371093-40.472656-56.453125 1.558593-11.082031 2.386719-24.421875 1.234375-39.261718 26.890625-22.578126 40.113281-49.167969 46.421875-72.246094zm-286.410157-111.507813c3.972657-2.25 13.210938-4.742187 21.121094-2.152343 13.484375 4.414062 32.652344 10.378906 32.84375 10.441406 1.484375.476562 3.082032.476562 4.566406 0 .191407-.0625 19.316407-6.175782 32.84375-10.441406 7.070313-2.226563 14.773438-1.441407 21.125 2.152343 48.703126 27.574219 73.15625 71.804688 85.097657 104.050781 2.285156 6.171876 1.890625 12.808594-1.101563 18.695313-3.027344 5.953125-8.242187 10.230469-14.675781 12.046875-27.089844 7.648438-70.867187 16.765625-125.570313 16.765625-54.707031 0-98.484374-9.117187-125.574218-16.765625-6.433594-1.816406-11.648438-6.09375-14.671875-12.046875-2.996094-5.886719-3.386719-12.523437-1.101563-18.695313 11.9375-32.246093 36.390625-76.472656 85.097656-104.050781zm-159.441406 107.554688c-2.503906-9.171875-.414062-18.625 5.734375-25.9375 6.183594-7.359375 15.203125-11.0625 24.742188-10.164063 12.933593 1.21875 26.832031 1.503906 41.441406.875-4.757813 9.292969-8.589844 18.273438-11.640625 26.515625-3.699219 9.996094-3.042969 21.1875 1.796875 30.707031 4.878906 9.585938 13.613281 16.757813 23.96875 19.683594 28.003906 7.902344 73.226563 17.328125 129.648437 17.328125 56.421876 0 101.648438-9.425781 129.648438-17.328125 10.355469-2.925781 19.09375-10.097656 23.96875-19.683594 4.84375-9.519531 5.496094-20.710937 1.796875-30.707031-3.050781-8.242187-6.882813-17.222656-11.640625-26.515625 14.609375.628906 28.507812.34375 41.441406-.875 9.542969-.902344 18.558594 2.804688 24.746094 10.164063 6.148438 7.3125 8.234375 16.765625 5.730469 25.9375-19.21875 70.3125-86.175781 96.476562-138.96875 106.042969-4.074219.738281-6.78125 4.640624-6.042969 8.714843.660156 3.625 4.128906 6.777344 8.71875 6.042969 7.851562-1.257812 15.257812-3.046875 22.324219-4.863281 6.929687 10.640625 17.457031 24.453125 33.703125 34.222656 10.019531 6.027344 18.839844 4.550781 20.445312 4.273437v8.355469c0 61.230469-39.113281 103.398438-45.792968 110.078125-29.53125 29.53125-68.625 45.792969-110.078126 45.792969-41.453124 0-80.546874-16.261719-110.078124-45.792969s-45.792969-68.621094-45.792969-110.078125v-8.355469c1.609375.277344 11.730469 1.542969 20.445312-4.273437 15.78125-10.527344 26.792969-23.601563 33.71875-34.246094 29.460938 7.574219 63.433594 11.398438 101.707031 11.398438 16 0 31.449219-.675781 45.917969-2.003907 4.125-.378906 7.160157-4.03125 6.78125-8.15625-.378906-4.125-4.027343-7.164062-8.152343-6.78125-14.015626 1.289063-29.003907 1.941407-44.546876 1.941407-70.007812 0-124.601562-13.03125-162.265624-38.730469-27.175782-18.546875-45.148438-43.304688-53.425782-73.582031zm46.449219 86.949219c15.105469 10.078124 32.585937 18.285156 52.367187 24.605468-6.0625 8.523438-14.796874 18.253906-26.738281 26.039063-3.777343 2.457031-8.363281 2.914062-12.582031 1.253906-4.253906-1.679687-7.320312-5.179687-8.410156-9.601563-2.476563-10.035156-4.976563-24.746093-4.636719-42.296874zm-38.730469 84.964843c0-18.671875 11.324219-34.90625 28.222656-41.507812.195313.832031 1.53125 11.035156 8.878907 16.566406v15.816406c0 18.507813 2.953125 36.582031 8.640625 53.695313-23.394532.691406-45.742188-19.976563-45.742188-44.570313zm385.160156 182.976563c-3.027343 7.8125-10.828124 16.160156-23.625 16.160156h-86.144531c20.207031-5.855469 37.246094-12.359375 50.945313-19.476562 19.828125-10.300782 33.15625-22.148438 39.796875-35.289063 4.257812 3.398437 8.425781 6.933594 12.441406 10.597656 9.5 8.679688 9.632813 20.15625 6.585937 28.007813zm-30.394531-50.277344c-6.03125 19.519531-36.433593 46.832031-146.792969 66.320312-42.660156-7.535156-76.789062-16.910156-101.441406-27.867187-3.785156-1.6875-8.214844.019531-9.898437 3.804687-1.683594 3.785157.019531 8.21875 3.804687 9.902344 11.496094 5.109375 24.890625 9.875 40.09375 14.277344h-86.121094c-12.796874 0-20.597656-8.351562-23.625-16.160156-3.046874-7.851563-2.914062-19.332032 6.589844-28.007813 4.003906-3.660156 8.167969-7.191406 12.421875-10.585937 4.324219 8.578125 11.667969 16.382812 21.488281 24.003906 4.6875 3.636719 9.019532.417969 10.488282-1.570312 2.464844-3.328126 1.761718-8.023438-1.570313-10.488282-12.695312-9.394531-19.503906-19.527344-20.238281-30.113281-.832031-11.96875 6.140625-23.265625 12.777344-31.160156 4.460937 5.753906 9.3125 11.265625 14.546875 16.503906 32.363281 32.363281 75.222656 50.1875 120.683593 50.1875 45.460938 0 88.320313-17.824219 120.6875-50.1875 5.238282-5.242187 10.09375-10.761719 14.558594-16.519531 14.617188 17.25 13.679688 30.753906 11.546875 37.660156zm61.179688-132.699219c0 24.59375-19.675781 43.308594-45.742188 44.574219 5.6875-17.113281 8.640625-35.191406 8.640625-53.699219v-15.816406c4.019532-3.773437 7.878906-8.824219 8.875-16.558594 16.726563 6.613281 28.226563 23.011719 28.226563 41.5zm-43.367188-42.667969c-1.089843 4.421876-4.15625 7.921876-8.410156 9.601563-4.21875 1.664063-8.804687 1.207031-12.582031-1.253906-11.929688-7.777344-20.65625-17.496094-26.71875-26.015625 20.863281-6.652344 38.113281-15.058594 52.347656-24.535156.328125 17.507812-2.167969 32.1875-4.636719 42.203124zm0 0"/></svg>