<svg height="511pt" viewBox="-33 1 511 511.99994" width="511pt" xmlns="http://www.w3.org/2000/svg"><path d="m392.011719 74.878906c-9.625-10.910156-29.007813-11.796875-42.234375-20.386718-12.234375-7.945313-20.476563-25.433594-35.175782-30.949219-13.734374-5.148438-31.546874 2.382812-46.9375-.285157-14.511718-2.515624-28.625-15.757812-44.191406-15.757812s-29.683594 13.242188-44.195312 15.757812c-15.386719 2.664063-33.199219-4.867187-46.933594.285157-14.703125 5.515625-22.941406 23.003906-35.175781 30.949219-13.230469 8.589843-32.609375 9.476562-42.238281 20.382812-3.433594 3.894531-5.507813 8.59375-6.9375 13.636719-5.007813 17.675781 2.660156 36.5 18.449218 45.886719l42.371094 25.179687h229.320312l42.371094-25.179687c15.789063-9.386719 23.457032-28.210938 18.449219-45.886719-1.429687-5.039063-3.503906-9.738281-6.941406-13.632813zm0 0" fill="#def4f9"/><path d="m152.1875 22.152344c-7.035156-.6875-13.832031-.863282-19.84375 1.390625-14.703125 5.515625-22.941406 23.003906-35.175781 30.949219-13.230469 8.589843-32.609375 9.476562-42.238281 20.382812-3.433594 3.894531-5.507813 8.59375-6.9375 13.636719-5.007813 17.675781 2.660156 36.5 18.449218 45.886719l42.371094 25.179687h31.585938c-2.726563-54.589844 5.914062-108.359375 11.789062-137.425781zm0 0" fill="#c2e8ef"/><path d="m184.296875 373.566406c0 42.023438-34.066406 76.089844-76.089844 76.089844-42.023437 0-76.089843-34.066406-76.089843-76.089844 0-42.023437 34.066406-76.089844 76.089843-76.089844 42.023438 0 76.089844 34.066407 76.089844 76.089844zm0 0" fill="#dd9f80"/><path d="m69.914062 504.5h307.117188c30.054688 0 44.289062-36.9375 22.09375-57.203125-35.242188-32.183594-92.128906-65.972656-175.652344-65.972656-83.523437 0-140.414062 33.789062-175.65625 65.972656-22.191406 20.265625-7.957031 57.203125 22.097656 57.203125zm0 0" fill="#898890"/><path d="m296.628906 434.699219v-43.886719c-21.691406-5.921875-46.007812-9.488281-73.15625-9.488281-83.523437 0-140.414062 33.789062-175.652344 65.972656-22.195312 20.265625-7.960937 57.203125 22.09375 57.203125h153.558594c59.035156-24.296875 73.15625-69.800781 73.15625-69.800781zm0 0" fill="#77777f"/><path d="m223.472656 381.324219c-72.429687 0-124.824218 25.402343-160.445312 53.140625l87.289062 70.035156 58.398438-24.78125c9.429687-4.003906 20.085937-4.003906 29.515625 0l58.398437 24.78125 87.292969-70.035156c-35.625-27.734375-88.019531-53.140625-160.449219-53.140625zm0 0" fill="#c2e8ef"/><path d="m296.628906 390.8125c-21.6875-5.921875-46.015625-9.488281-73.15625-9.488281-72.429687 0-124.824218 25.402343-160.445312 53.140625l87.289062 70.035156 58.398438-24.78125c9.429687-4.003906 20.085937-4.003906 29.515625 0l16.921875 7.179688c32.6875-23.882813 41.476562-52.199219 41.476562-52.199219zm0 0" fill="#afd8e2"/><path d="m112.207031 297.867188c0 28.773437-23.328125 52.101562-52.105469 52.101562-28.773437 0-52.101562-23.328125-52.101562-52.101562 0-28.777344 23.328125-52.101563 52.101562-52.101563 28.777344 0 52.105469 23.324219 52.105469 52.101563zm0 0" fill="#ffaea1"/><path d="m438.945312 297.867188c0 28.773437-23.328124 52.101562-52.105468 52.101562-28.773438 0-52.101563-23.328125-52.101563-52.101562 0-28.777344 23.328125-52.101563 52.101563-52.101563 28.777344 0 52.105468 23.324219 52.105468 52.101563zm0 0" fill="#ffcfc2"/><path d="m223.472656 452.109375c-89.855468 0-163.371094-73.515625-163.371094-163.367187v-84.785157c0-89.851562 73.515626-163.367187 163.371094-163.367187 89.851563 0 163.367188 73.515625 163.367188 163.367187v84.785157c0 89.851562-73.515625 163.367187-163.367188 163.367187zm0 0" fill="#ffe2d9"/><path d="m223.472656 40.589844c-89.855468 0-163.371094 73.515625-163.371094 163.367187v84.785157c0 81.652343 60.722657 149.816406 139.234376 161.578124-39.625-36.472656-53.265626-90.6875-56.460938-137.945312-3.199219-47.324219 13.226562-94.109375 45.636719-128.742188 43.347656-46.332031 60.3125-112.789062 65.722656-140.117187-9.972656-1.921875-20.253906-2.925781-30.761719-2.925781zm0 0" fill="#ffcfc2"/><path d="m223.472656 349.835938c-15.519531 0-28.101562-12.582032-28.101562-28.097657v-20.433593c0-4.234376 3.433594-7.667969 7.671875-7.667969h40.859375c4.238281 0 7.671875 3.433593 7.671875 7.667969v20.433593c-.003907 15.515625-12.582031 28.097657-28.101563 28.097657zm0 0" fill="#57565c"/><path d="m159.449219 321.734375c0-13.179687-13.417969-23.867187-29.972657-23.867187-16.554687 0-29.972656 10.6875-29.972656 23.867187 0 13.183594 13.417969 23.871094 29.972656 23.871094 16.554688 0 29.972657-10.6875 29.972657-23.871094zm0 0" fill="#ffa6bb"/><path d="m347.441406 321.734375c0-13.179687-13.421875-23.867187-29.972656-23.867187-16.554688 0-29.972656 10.6875-29.972656 23.867187 0 13.183594 13.417968 23.871094 29.972656 23.871094 16.550781 0 29.972656-10.6875 29.972656-23.871094zm0 0" fill="#ffa6bb"/><path d="m223.472656 40.589844c-163.34375 0-179.925781 140.246094-169.152344 197.945312 2.707032 14.492188 16.390626 24.28125 30.96875 22.0625 103.492188-15.753906 138.183594-103.9375 138.183594-103.9375s34.691406 88.183594 138.183594 103.9375c14.578125 2.21875 28.257812-7.570312 30.964844-22.0625 10.777344-57.699218-5.808594-197.945312-169.148438-197.945312zm0 0" fill="#eab9a4"/><path d="m146.617188 53.78125c-91.714844 36.253906-101.0625 137.820312-92.296876 184.753906 2.707032 14.492188 16.390626 24.28125 30.964844 22.0625 27.402344-4.171875 49.976563-13.417968 68.367188-24.761718-19.898438-59.027344-14.453125-132.878907-7.035156-182.054688zm0 0" fill="#dd9f80"/><path d="m304.128906 308.632812c4.144532 0 7.5-3.359374 7.5-7.5v-12.449218c0-4.144532-3.355468-7.5-7.5-7.5-4.144531 0-7.5 3.355468-7.5 7.5v12.449218c0 4.140626 3.355469 7.5 7.5 7.5zm0 0"/><path d="m150.316406 288.683594c0-4.144532-3.359375-7.5-7.5-7.5-4.144531 0-7.5 3.355468-7.5 7.5v12.449218c0 4.144532 3.355469 7.5 7.5 7.5 4.140625 0 7.5-3.355468 7.5-7.5zm0 0"/><path d="m223.472656 357.335938c19.628906 0 35.597656-15.96875 35.601563-35.601563v-20.429687c0-8.363282-6.808594-15.171876-15.171875-15.171876h-40.859375c-8.363281 0-15.171875 6.808594-15.171875 15.171876v20.429687c0 19.632813 15.972656 35.601563 35.601562 35.601563zm-20.601562-56.03125c0-.09375 41.199218-.09375 41.199218 0v20.433593c0 11.355469-9.238281 20.597657-20.597656 20.597657s-20.601562-9.238282-20.601562-20.597657zm0 0"/><path d="m446.445312 297.867188c0-28.269532-19.511718-52.105469-46.417968-58.128907 4.34375-23.453125 4.746094-63.933593-9.816406-103.011719 14.695312-11.988281 21.214843-31.710937 15.957031-50.257812-1.933594-6.824219-4.726563-12.238281-8.53125-16.554688-6.878907-7.792968-16.882813-11.160156-26.558594-14.414062-6.382813-2.144531-12.410156-4.175781-17.21875-7.296875-4.296875-2.792969-8.320313-7.359375-12.585937-12.199219-6.460938-7.328125-13.78125-15.632812-24.035157-19.480468-9.277343-3.480469-19.238281-2.332032-28.871093-1.214844-6.988282.804687-13.589844 1.566406-19.421876.558594-5.269531-.910157-10.9375-3.765626-16.9375-6.789063-8.445312-4.257813-18.019531-9.078125-28.535156-9.078125-10.519531 0-20.089844 4.820312-28.535156 9.078125-6 3.019531-11.667969 5.875-16.9375 6.789063-5.832031 1.007812-12.433594.246093-19.421875-.5625-9.636719-1.113282-19.59375-2.265626-28.871094 1.214843-10.253906 3.851563-17.574219 12.15625-24.035156 19.484375-4.265625 4.839844-8.292969 9.40625-12.589844 12.199219-4.808593 3.121094-10.835937 5.148437-17.214843 7.296875-9.675782 3.253906-19.683594 6.621094-26.5625 14.414062-3.804688 4.3125-6.59375 9.730469-8.53125 16.554688-5.257813 18.554688 1.269531 38.285156 15.980468 50.273438-14.773437 39.535156-14.066406 80.167968-9.835937 102.996093-26.90625 6.023438-46.417969 29.859375-46.417969 58.128907 0 21.261718 11.199219 39.949218 28 50.5-2.566406 8.117187-3.886719 16.5625-3.886719 25.199218 0 23.101563 9.734375 45.261719 26.417969 60.960938-2.800781 2.351562-5.5625 4.753906-8.273438 7.230468-12.625 11.53125-16.632812 28.585938-10.457031 44.507813 6.15625 15.875 20.570313 25.734375 37.613281 25.734375h307.113282c17.042968 0 31.457031-9.859375 37.613281-25.734375 6.175781-15.921875 2.167969-32.976563-10.457031-44.507813-16.558594-15.117187-34.84375-27.929687-54.464844-38.167968 12.742188-13.960938 22.929688-29.65625 30.339844-46.519532 37.515625 1.535157 66.386718-26.339843 66.386718-59.203124zm-52.105468-9.125v-34.839844c21.347656 3.582031 37.105468 21.984375 37.105468 43.964844 0 24.59375-19.027343 42.578124-45.746093 44.574218 5.6875-17.113281 8.640625-35.191406 8.640625-53.699218zm-378.839844 9.125c0-21.980469 15.757812-40.382813 37.105469-43.964844v34.839844c0 18.433593 3.042969 36.542968 8.78125 53.691406-21.992188.648437-45.886719-19.972656-45.886719-44.566406zm24.117188 75.699218c0-6.441406.890624-12.746094 2.628906-18.835937 5.640625 1.777343 15.320312 3.363281 24.785156 2.332031 7.453125 16.949219 17.640625 32.683594 30.210938 46.515625-11.957032 6.242187-23.414063 13.445313-34.292969 21.53125-14.894531-13.027344-23.332031-31.515625-23.332031-51.542969zm30.296874 123.433594c-12.800781 0-20.597656-8.347656-23.628906-16.160156-3.042968-7.847656-2.914062-19.328125 6.589844-28.007813 3.308594-3.019531 6.6875-5.941406 10.136719-8.761719l65.972656 52.929688zm117.273438 0 24.453125-10.378906c7.519531-3.191406 16.144531-3.191406 23.660156 0l24.457031 10.378906zm206.882812-44.167969c9.5 8.679688 9.632813 20.160157 6.585938 28.007813-3.027344 7.8125-10.828125 16.160156-23.625 16.160156h-59.070312l65.96875-52.929688c3.449218 2.820313 6.832031 5.742188 10.140624 8.761719zm-14.730468-164.089843c0 41.453124-16.261719 80.542968-45.792969 110.074218-29.527344 29.53125-68.621094 45.792969-110.074219 45.792969-22.398437 0-44.054687-4.707031-64.363281-13.996094-3.769531-1.726562-8.21875-.0625-9.9375 3.703125-1.722656 3.765625-.066406 8.214844 3.699219 9.9375 22.28125 10.1875 46.035156 15.355469 70.601562 15.355469 42.898438 0 83.480469-15.878906 115.113282-44.863281 11.523437 5.726562 22.578124 12.398437 33.082031 19.929687l-76.234375 61.167969-54.273438-23.03125c-11.238281-4.769531-24.136718-4.769531-35.375 0l-54.269531 23.03125-76.238281-61.167969c10.503906-7.535156 21.5625-14.203125 33.089844-19.933593 4.953124 4.539062 10.023437 9.066406 15.714843 12.78125 4.949219 3.226562 9.003907.328124 10.46875-1.710938 2.417969-3.363281 1.652344-8.046875-1.710937-10.46875-40.847656-29.382812-65.238282-76.710938-65.238282-126.605469v-23.050781c4.179688 1.765625 12.441407 3.40625 18.8125 2.324219 70.753907-12.015625 108.304688-55.917969 108.304688-55.917969 1.410156-1.472656 18.003906-18.207031 28.753906-38.601562 5.066406 8.984374 13.085938 21.328124 24.707032 34.242187 8.644531 9.609375 48.449218 50.855469 112.347656 60.273437 7.523437 1.109376 14.636718-.558593 18.816406-2.320312v23.054688zm-16.554688-35.558594c-41.113281-5.042969-75.621094-24.75-103.054687-55.035156-20.625-22.769532-29.199219-44.03125-29.28125-44.234376-1.125-2.863281-3.890625-4.746093-6.96875-4.75-.003907 0-.007813 0-.011719 0-3.074219 0-5.839844 1.882813-6.972656 4.738282-.085938.214844-8.660156 21.476562-29.28125 44.246094-27.433594 30.285156-62.445313 46.898437-103.058594 55.035156-14.066406 2.816406-20.820312-7.730469-22.464844-16.023438-5.84375-29.46875-4.699218-91.726562 33.335938-137.519531 28.40625-34.207031 71.621094-51.550781 128.441406-51.550781 30.808594 0 57.929688 5.1875 80.609375 15.417968 3.78125 1.703126 8.21875.023438 9.921875-3.753906 1.703125-3.773437.023438-8.214844-3.753906-9.917968-24.632813-11.113282-53.832032-16.746094-86.777344-16.746094-61.492188 0-108.585938 19.164062-139.980469 56.964844-8.398437 10.113281-15.136719 20.941406-20.496093 32.050781-7.816407-8.316407-10.988282-20.253907-7.785157-31.546875 1.324219-4.683594 3.027344-8.089844 5.347657-10.71875 4.222656-4.78125 11.929687-7.378906 20.09375-10.125 6.984374-2.347656 14.207031-4.777344 20.605468-8.933594 6.019532-3.910156 10.925782-9.476562 15.671875-14.859375 5.8125-6.59375 11.304688-12.824219 18.050781-15.355469 5.882813-2.207031 13.652344-1.308594 21.878907-.359375 7.738281.898438 15.742187 1.820313 23.703125.441407 7.46875-1.292969 14.410156-4.792969 21.125-8.175782 7.628906-3.84375 14.835937-7.472656 21.789062-7.472656s14.15625 3.628906 21.785156 7.472656c6.714844 3.382813 13.660157 6.882813 21.128907 8.175782 7.960937 1.378906 15.964843.453124 23.703125-.441407 8.226562-.949219 15.996094-1.847656 21.878906.359375 6.746094 2.53125 12.238281 8.761719 18.050781 15.355469 4.746094 5.382813 9.652344 10.949219 15.671875 14.859375 6.398438 4.15625 13.621094 6.585938 20.605469 8.933594 8.160156 2.746094 15.871094 5.34375 20.09375 10.125 2.320313 2.628906 4.019531 6.035156 5.347656 10.71875 3.195313 11.277344.035157 23.203125-7.757812 31.519531-10.003907-20.773437-24.785157-40.460937-46.089844-56.148437-3.335937-2.453126-8.03125-1.742188-10.488281 1.59375-2.453125 3.335937-1.742188 8.03125 1.59375 10.488281 31.988281 23.542969 46.167968 56.898437 52.429687 80.738281 6.761719 25.730469 7.113281 54.863281 3.828125 78.40625-.894531 6.394531-7.054687 17.917969-22.46875 16.027344zm0 0"/></svg>