<svg height="512pt" viewBox="-33 0 512 512.00094" width="512pt" xmlns="http://www.w3.org/2000/svg"><path d="m69.414062 504.5h307.117188c30.054688 0 44.285156-36.9375 22.09375-57.203125-35.242188-32.183594-92.132812-65.972656-175.652344-65.972656-83.523437 0-140.414062 33.789062-175.65625 65.972656-22.191406 20.265625-7.957031 57.203125 22.097656 57.203125zm0 0" fill="#ff929f"/><path d="m103.277344 379.476562v61.574219c0 13.25 6.691406 25.589844 17.796875 32.816407 19.921875 12.960937 55.570312 30.632812 101.898437 30.632812s81.976563-17.671875 101.898438-30.632812c11.105468-7.226563 17.796875-19.566407 17.796875-32.816407v-61.574219zm0 0" fill="#898890"/><path d="m222.972656 504.5c46.324219 0 81.976563-17.671875 101.898438-30.632812 11.101562-7.226563 17.796875-19.566407 17.796875-32.816407v-61.574219h-119.695313zm0 0" fill="#77777f"/><path d="m111.707031 297.867188c0 28.773437-23.328125 52.101562-52.105469 52.101562-28.773437 0-52.101562-23.328125-52.101562-52.101562 0-28.777344 23.328125-52.101563 52.101562-52.101563 28.777344 0 52.105469 23.324219 52.105469 52.101563zm0 0" fill="#ffaea1"/><path d="m438.441406 297.867188c0 28.773437-23.324218 52.101562-52.101562 52.101562-28.773438 0-52.101563-23.328125-52.101563-52.101562 0-28.777344 23.328125-52.101563 52.101563-52.101563 28.777344 0 52.101562 23.324219 52.101562 52.101563zm0 0" fill="#ffcfc2"/><path d="m222.972656 452.109375c-89.855468 0-163.371094-73.515625-163.371094-163.367187v-84.785157c0-89.851562 73.515626-163.367187 163.371094-163.367187 89.851563 0 163.367188 73.515625 163.367188 163.367187v84.785157c0 89.851562-73.515625 163.367187-163.367188 163.367187zm0 0" fill="#ffe2d9"/><path d="m222.972656 40.589844c-89.855468 0-163.371094 73.515625-163.371094 163.367187v84.785157c0 59.773437 32.546876 112.324218 80.78125 140.804687-8.164062-37.578125-7.578124-75.25-4.242187-105.847656 3.703125-33.988281 20.46875-65.265625 46.679687-87.214844 52.800782-44.207031 68.140626-133.4375 72.304688-192.695313-10.402344-2.097656-21.15625-3.199218-32.152344-3.199218zm0 0" fill="#ffcfc2"/><path d="m159.914062 176.425781s-16.585937 56.957031-70.113281 95.066407c-15.371093 10.945312-36.867187 1.410156-38.941406-17.34375-1.9375-17.488282-1.039063-40.128907 8.742187-64.382813zm0 0" fill="#dd9f80"/><path d="m286.117188 176.425781s16.574218 56.925781 70.066406 95.03125c15.378906 10.957031 36.898437 1.402344 38.945312-17.371093 1.90625-17.476563.984375-40.09375-8.789062-64.324219zm0 0" fill="#dd9f80"/><path d="m222.972656 7.5c-67.503906 0-113.234375 17.488281-138.761718 31.246094-15.140626 8.164062-24.609376 23.941406-24.609376 41.144531v109.875h326.738282v-109.875c0-17.203125-9.464844-32.980469-24.609375-41.144531-25.527344-13.757813-71.253907-31.246094-138.757813-31.246094zm0 0" fill="#ff929f"/><path d="m59.601562 79.890625v109.871094h132.667969c-15.214843-18.449219-25.0625-37.792969-31.398437-55.597657-11.5-32.304687-.152344-68.132812 27.308594-88.667968 23.277343-17.398438 34.792968-37.996094 34.792968-37.996094-67.503906 0-113.234375 17.488281-138.761718 31.246094-15.140626 8.164062-24.609376 23.941406-24.609376 41.144531zm0 0" fill="#ff737d"/><path d="m59.601562 118.207031h326.738282v71.558594h-326.738282zm0 0" fill="#ffeb99"/><path d="m59.601562 189.765625h132.667969c-15.214843-18.453125-25.0625-37.796875-31.398437-55.601563-1.871094-5.253906-3.136719-10.597656-3.828125-15.957031h-97.441407zm0 0" fill="#ffde55"/><path d="m222.972656 151.394531c-56.734375 0-102.722656 17.179688-102.722656 38.371094h205.445312c0-21.191406-45.992187-38.371094-102.722656-38.371094zm0 0" fill="#898890"/><path d="m120.25 189.765625h72.019531c-8.957031-10.863281-16.054687-22.03125-21.667969-33.015625-30.148437 6.683594-50.351562 18.96875-50.351562 33.015625zm0 0" fill="#77777f"/><path d="m303.628906 281.183594c-4.144531 0-7.5 3.355468-7.5 7.5v12.449218c0 4.144532 3.355469 7.5 7.5 7.5 4.140625 0 7.5-3.355468 7.5-7.5v-12.449218c0-4.144532-3.359375-7.5-7.5-7.5zm0 0"/><path d="m142.316406 281.183594c-4.144531 0-7.5 3.355468-7.5 7.5v12.449218c0 4.144532 3.355469 7.5 7.5 7.5 4.140625 0 7.5-3.355468 7.5-7.5v-12.449218c0-4.144532-3.359375-7.5-7.5-7.5zm0 0"/><path d="m241.292969 295.210938c-10.789063 8.367187-25.855469 8.367187-36.640625 0-3.273438-2.539063-7.988282-1.945313-10.523438 1.328124-2.539062 3.273438-1.945312 7.984376 1.328125 10.523438 8.101563 6.28125 17.808594 9.425781 27.515625 9.425781 9.703125 0 19.410156-3.144531 27.511719-9.425781 3.273437-2.539062 3.867187-7.25 1.328125-10.523438-2.535156-3.273437-7.25-3.867187-10.519531-1.328124zm0 0"/><path d="m403.992188 338.84375c-3.804688 1.640625-5.558594 6.054688-3.917969 9.855469 1.222656 2.835937 4.851562 6.019531 9.855469 3.917969 21.964843-9.234376 36.011718-30.929688 36.011718-54.75 0-26.425782-17.59375-49.664063-42.515625-57.113282.21875-18.019531-2.992187-35.597656-9.585937-52.445312v-108.417969c0-19.960937-10.941406-38.253906-28.550782-47.746094-27.210937-14.664062-73.988281-32.144531-142.316406-32.144531-68.332031 0-115.109375 17.480469-142.320312 32.144531-17.609375 9.492188-28.550782 27.785157-28.550782 47.746094v108.480469c-6.578124 16.824218-9.78125 34.382812-9.5625 52.375-24.933593 7.445312-42.539062 30.6875-42.539062 57.121094 0 32.863281 24.703125 61.582031 66.386719 59.214843 7.222656 16.4375 17.09375 31.761719 29.386719 45.457031 0 0-19.144532 12.449219-28.117188 18.785157-3.382812 2.386719-4.191406 7.066406-1.804688 10.453125 1.464844 2.066406 5.464844 4.898437 10.453126 1.800781 6.523437-4.046875 12.792968-8.5625 19.46875-12.375v19.847656c0 15.84375 7.929687 30.460938 21.207031 39.101563 8.585937 5.585937 19.273437 11.582031 31.847656 16.847656h-79.414063c-12.800781 0-20.597656-8.347656-23.628906-16.15625-3.046875-7.851562-2.914062-19.332031 6.589844-28.007812 3.058594-2.792969 3.273438-7.539063.480469-10.597657-2.792969-3.058593-7.539063-3.273437-10.597657-.480469-12.625 11.53125-16.632812 28.585938-10.457031 44.507813 6.15625 15.875 20.566407 25.734375 37.609375 25.734375h307.117188c17.042968 0 31.457031-9.859375 37.613281-25.734375 6.175781-15.921875 2.167969-32.976563-10.460937-44.507813-16.273438-14.859374-53.515626-39.21875-53.515626-39.21875 28.230469-31.4375 43.675782-71.488281 43.675782-113.796874v-15.035157c4.535156-4.707031 7.53125-10.746093 8.539062-17.464843 16.90625 6.527343 28.5625 23.015624 28.5625 41.625 0 17.828124-10.578125 33.910156-26.949218 40.976562zm-336.890626-213.136719h287.804688c4.144531 0 7.5-3.355469 7.5-7.5s-3.355469-7.5-7.5-7.5h-287.804688v-30.816406c0-14.433594 7.921876-27.671875 20.667969-34.539063 25.691407-13.847656 70-30.351562 135.203125-30.351562 65.199219 0 109.511719 16.503906 135.199219 30.351562 12.75 6.867188 20.667969 20.105469 20.667969 34.539063v102.375h-46.945313c-3.726562-10.535156-15.355469-19.820313-33.664062-26.660156-20.21875-7.550781-46.945313-11.710938-75.257813-11.710938s-55.039062 4.160157-75.261718 11.710938c-18.308594 6.839843-29.9375 16.125-33.660157 26.660156h-46.949219zm247.488282 56.558594h-183.234375c10.519531-11.40625 43.492187-23.371094 91.617187-23.371094s81.097656 11.964844 91.617188 23.371094zm-299.589844 115.601563c0-18.617188 11.664062-35.109376 28.585938-41.632813 1.003906 6.707031 3.992187 12.746094 8.515624 17.449219 0 0-2.070312 34.949218 8.644532 68.753906-24.242188-.160156-45.746094-19.976562-45.746094-44.570312zm43.3125-44.542969c-2.132812-19.296875.050781-38.128907 6.472656-56.0625h78.304688c-9.730469 19.222656-27.660156 46.78125-57.636719 68.121093-5.054687 3.597657-11.445313 4.234376-17.101563 1.703126-5.609374-2.511719-9.359374-7.65625-10.039062-13.761719zm157.160156 243.511719c-39.855468-1.699219-70.886718-16.617188-90.308594-29.257813-9.011718-5.859375-14.390624-15.777344-14.390624-26.527344v-23.695312c29.3125 25.675781 65.878906 40.398437 104.699218 42.082031zm178.097656-44.003907c9.5 8.679688 9.632813 20.160157 6.585938 28.007813-3.027344 7.8125-10.828125 16.160156-23.625 16.160156h-79.417969c12.574219-5.269531 23.265625-11.261719 31.847657-16.847656 13.28125-8.640625 21.207031-23.257813 21.207031-39.101563v-19.859375c15.5 8.847656 30.058593 19.460938 43.402343 31.640625zm-163.097656 44.003907v-37.398438c38.816406-1.683594 75.386719-16.40625 104.695313-42.082031v23.695312c0 10.75-5.378907 20.664063-14.390625 26.527344-19.421875 12.640625-50.453125 27.558594-90.304688 29.257813zm102.574219-98.019532c-31.21875 27.738282-68.621094 45.792969-110.074219 45.792969s-80.894531-15.917969-110.078125-45.792969c-50.589843-51.789062-45.792969-116.296875-45.792969-116.296875 2.761719.746094 14.941407 3.636719 27.050782-4.917969 36.265625-25.625 56.101562-59.761718 65.597656-80.339843h126.46875c1.457031 3.15625 22.828125 49.085937 65.597656 80.339843 5.5625 4.066407 16.699219 8.269532 27.023438 4.925782 0 0 .414062 75.238281-45.792969 116.289062zm54.605469-145.492187c-.675782 6.105469-4.429688 11.25-10.035156 13.761719-5.65625 2.53125-12.046876 1.894531-17.101563-1.703126-29.980469-21.339843-47.910156-48.898437-57.636719-68.117187h78.304688c6.417968 17.929687 8.605468 36.761719 6.46875 56.058594zm0 0"/></svg>