<svg height="512pt" viewBox="-15 0 512 512.00053" width="512pt" xmlns="http://www.w3.org/2000/svg"><path d="m87.761719 504.5h307.125c30.054687 0 44.289062-36.9375 22.09375-57.207031-35.242188-32.179688-92.132813-65.96875-175.65625-65.96875-83.523438 0-140.414063 33.789062-175.65625 65.96875-22.195313 20.269531-7.960938 57.207031 22.09375 57.207031zm0 0" fill="#c3dfed"/><path d="m321.660156 392.886719c-23.464844-7.15625-50.152344-11.5625-80.335937-11.5625-83.523438 0-140.414063 33.785156-175.65625 65.96875-22.195313 20.269531-7.960938 57.207031 22.09375 57.207031h153.5625c64.242187-24.039062 77.785156-81.421875 80.335937-111.613281zm0 0" fill="#afd0dd"/><path d="m125.789062 387.761719c-18.351562 18.351562-95.78125 66.03125-114.128906 47.683593-18.347656-18.351562 29.332032-95.78125 47.679688-114.128906 18.351562-18.351562 48.097656-18.351562 66.449218 0 18.347657 18.347656 18.347657 48.097656 0 66.445313zm0 0" fill="#ff7956"/><path d="m356.859375 387.761719c18.351563 18.351562 95.78125 66.03125 114.128906 47.683593 18.347657-18.351562-29.332031-95.78125-47.679687-114.128906-18.351563-18.351562-48.097656-18.351562-66.449219 0-18.347656 18.347656-18.347656 48.097656 0 66.445313zm0 0" fill="#ff7956"/><path d="m367.058594 373.5625h-251.46875s-121.472656 87.664062 125.734375 130.9375c247.207031-43.273438 125.734375-130.9375 125.734375-130.9375zm0 0" fill="#f46262"/><path d="m321.980469 373.5625h-206.390625s-121.472656 87.664062 125.734375 130.9375c89.167969-33.363281 80.65625-130.9375 80.65625-130.9375zm0 0" fill="#d65b5b"/><path d="m130.054688 297.863281c0 28.777344-23.324219 52.105469-52.101563 52.105469s-52.105469-23.328125-52.105469-52.105469c0-28.777343 23.328125-52.101562 52.105469-52.101562s52.101563 23.324219 52.101563 52.101562zm0 0" fill="#ffaea1"/><path d="m456.796875 297.863281c0 28.777344-23.324219 52.105469-52.101563 52.105469-28.777343 0-52.105468-23.328125-52.105468-52.105469 0-28.777343 23.328125-52.101562 52.105468-52.101562 28.777344 0 52.101563 23.324219 52.101563 52.101562zm0 0" fill="#ffcfc2"/><path d="m241.324219 452.109375c-89.855469 0-163.371094-73.515625-163.371094-163.371094v-84.785156c0-89.855469 73.515625-163.371094 163.371094-163.371094s163.371093 73.515625 163.371093 163.371094v84.785156c0 89.855469-73.515624 163.371094-163.371093 163.371094zm0 0" fill="#ffe2d9"/><path d="m241.324219 40.582031c-89.855469 0-163.371094 73.515625-163.371094 163.371094v84.785156c0 59.777344 32.554687 112.332031 80.792969 140.8125-8.167969-37.582031-7.589844-75.257812-4.257813-105.855469 3.707031-33.988281 20.472657-65.265624 46.683594-87.214843 52.800781-44.210938 68.136719-133.445313 72.304687-192.699219-10.40625-2.097656-21.152343-3.199219-32.152343-3.199219zm0 0" fill="#ffcfc2"/><path d="m290.292969 167.433594s-71.660157 93.089844-198.707031 117.164062c-15.203126 2.878906-29.492188-8.296875-30.183594-23.753906-1.15625-25.765625-.074219-64.410156 11.898437-93.410156.765625.765625 216.992188 0 216.992188 0zm0 0" fill="#ff9478"/><path d="m326.332031 173.566406s2.800781 72.910156 57.8125 103.609375c16.226563 9.054688 36.367188-2.140625 37.527344-20.6875 1.503906-24.042969-.539063-57.105469-16.976563-82.921875zm0 0" fill="#ff9478"/><path d="m274.195312 9.089844c-13.699218 4.320312-32.871093 10.453125-32.871093 10.453125s-19.167969-6.132813-32.871094-10.453125c-9.019531-2.84375-18.84375-1.878906-27.074219 2.78125-51.773437 29.316406-76.929687 76.890625-88.433594 107.972656-6.28125 16.964844 3.359376 35.652344 20.769532 40.566406 27.238281 7.6875 71.84375 17.046875 127.609375 17.046875 55.769531 0 100.371093-9.359375 127.613281-17.046875 17.410156-4.914062 27.050781-23.601562 20.769531-40.566406-11.507812-31.082031-36.660156-78.65625-88.4375-107.972656-8.230469-4.660156-18.054687-5.625-27.074219-2.78125zm0 0" fill="#c68d6d"/><path d="m165.945312 21.660156c-41.46875 29.328125-62.703124 70.367188-73.003906 98.183594-6.277344 16.964844 3.363282 35.652344 20.773438 40.566406 27.238281 7.6875 71.84375 17.042969 127.609375 17.042969 40.664062 0 75.382812-4.972656 101.773437-10.648437v-70.890626s-65.476562-39.929687-115.5625-44.484374c-34.625-3.148438-53.339844-19.792969-61.589844-29.769532zm0 0" fill="#b2785b"/><path d="m241.324219 76.910156c-119.566407 0-189.667969 69.5625-222.644531 114.855469-10.300782 14.152344 1.632812 33.667969 18.917968 30.921875 50.421875-8.019531 136.5-19.90625 203.726563-19.90625 67.222656 0 153.304687 11.886719 203.726562 19.90625 17.285157 2.746094 29.214844-16.769531 18.917969-30.921875-32.976562-45.292969-103.078125-114.855469-222.644531-114.855469zm0 0" fill="#dd9f80"/><path d="m241.324219 76.910156c-119.566407 0-189.667969 69.5625-222.644531 114.855469-10.300782 14.152344 1.632812 33.667969 18.917968 30.921875 36.535156-5.8125 91.789063-13.648438 145.03125-17.527344-7.476562-11.109375-13.472656-26.386718-14.464844-47.183594-2.902343-61.011718 73.160157-81.066406 73.160157-81.066406zm0 0" fill="#c68d6d"/><path d="m241.324219 349.832031c-15.519531 0-28.101563-12.582031-28.101563-28.097656v-20.433594c0-4.234375 3.433594-7.667969 7.671875-7.667969h40.859375c4.238282 0 7.671875 3.433594 7.671875 7.667969v20.433594c0 15.519531-12.582031 28.097656-28.101562 28.097656zm0 0" fill="#57565c"/><path d="m177.300781 321.734375c0-13.183594-13.417969-23.871094-29.972656-23.871094s-29.972656 10.6875-29.972656 23.871094c0 13.179687 13.417969 23.867187 29.972656 23.867187s29.972656-10.6875 29.972656-23.867187zm0 0" fill="#ffa6bb"/><path d="m365.292969 321.734375c0-13.183594-13.417969-23.871094-29.972657-23.871094-16.554687 0-29.972656 10.6875-29.972656 23.871094 0 13.179687 13.417969 23.867187 29.972656 23.867187 16.554688 0 29.972657-10.6875 29.972657-23.867187zm0 0" fill="#ffa6bb"/><path d="m321.980469 281.179688c-4.140625 0-7.5 3.359374-7.5 7.5v12.449218c0 4.144532 3.359375 7.5 7.5 7.5 4.144531 0 7.5-3.355468 7.5-7.5v-12.449218c0-4.140626-3.355469-7.5-7.5-7.5zm0 0"/><path d="m160.667969 281.179688c-4.144531 0-7.5 3.359374-7.5 7.5v12.449218c0 4.144532 3.355469 7.5 7.5 7.5 4.140625 0 7.5-3.355468 7.5-7.5v-12.449218c0-4.140626-3.359375-7.5-7.5-7.5zm0 0"/><path d="m261.753906 286.132812h-40.859375c-8.363281 0-15.171875 6.804688-15.171875 15.171876v20.429687c0 19.628906 15.972656 35.601563 35.601563 35.601563 19.628906 0 35.601562-15.972657 35.601562-35.601563v-20.429687c0-8.367188-6.808593-15.171876-15.171875-15.171876zm.171875 35.601563c0 11.355469-9.242187 20.597656-20.601562 20.597656s-20.601563-9.238281-20.601563-20.597656c0 0 .078125-20.601563.171875-20.601563 0 0 41.03125.074219 41.03125.167969zm0 0"/><path d="m474.386719 389.863281c-6.339844-15.433593-16.367188-33.765625-27.339844-50.113281 10.65625-10.773438 17.253906-25.574219 17.253906-41.886719 0-23.546875-13.71875-44.554687-34.734375-54.175781.003906-5.421875-.203125-10.738281-.632812-15.914062 5.34375.808593 10.300781 2.015624 14.941406 2.320312 12.921875.84375 22.324219-4.367188 27.367188-12.601562 5.84375-9.539063 5.378906-21.085938-1.210938-30.140626-14.609375-20.0625-39-48.253906-73.925781-71.789062-13.03125-34.4375-39.332031-80.886719-91.140625-110.21875-9.960938-5.640625-22-6.882812-33.023438-3.40625-10.789062 3.402344-25.113281 7.972656-30.617187 9.730469-5.503907-1.757813-19.828125-6.328125-30.617188-9.730469-11.023437-3.476562-23.0625-2.234375-33.023437 3.40625-51.785156 29.320312-78.085938 75.738281-91.121094 110.171875-33.449219 22.5-57.640625 49.445313-73.945312 71.835937-6.589844 9.054688-7.054688 20.601563-1.210938 30.140626 5.835938 9.527343 16.328125 14.355468 27.367188 12.601562 4.671874-.742188 9.769531-1.535156 15.214843-2.363281-.269531 5.148437-.414062 10.402343-.4375 15.746093-21.277343 9.523438-35.203125 30.667969-35.203125 54.386719 0 16.316407 6.597656 31.117188 17.253906 41.886719-10.972656 16.347656-21 34.679688-27.339843 50.113281-10.34375 25.175781-10.96875 41.820313-1.90625 50.882813 3.511719 3.515625 20.605469 17.574218 64.949219-8.234375-3.652344 2.988281-7.222657 6.074219-10.695313 9.246093-12.628906 11.53125-16.632813 28.585938-10.457031 44.507813 6.15625 15.875 20.566406 25.734375 37.609375 25.734375h307.125c17.042969 0 31.453125-9.859375 37.609375-25.734375 6.175781-15.921875 2.171875-32.976563-10.457032-44.507813-3.480468-3.179687-7.070312-6.269531-10.730468-9.265624 42.230468 22.367187 61.472656 11.769531 64.984375 8.253906 9.0625-9.0625 8.4375-25.707032-1.90625-50.882813zm-25.089844-92c0 24.59375-21.5 45.015625-45.746094 44.574219 11.382813-28.574219 8.644531-58.703125 8.644531-58.703125 8.925782-4.9375 14.941407-13.535156 16.570313-23.441406 12.597656 8.054687 20.53125 22.078125 20.53125 37.570312zm-97.894531 100.953125c-29.53125 29.53125-68.625 45.792969-110.078125 45.792969s-80.546875-16.261719-110.078125-45.792969c-28.632813-28.632812-44.789063-66.25-45.746094-106.296875 8.976562 2.386719 102.257812-17.324219 172.785156-82 22.074219.597657 45.628906 2.261719 68.789063 4.464844 29.285156 73.503906 69.832031 72.863281 70.121093 72.855469 0 0 5.414063 59.765625-45.792968 110.976562zm62.785156-142.796875c-.386719 6.191407-3.882812 11.664063-9.347656 14.648438-5.449219 2.976562-11.660156 2.960937-17.039063-.039063-23.578125-13.160156-36.804687-34.980468-44.175781-53.972656 25.210938 2.683594 49.390625 5.871094 70.023438 8.851562 1.015624 9.648438 1.203124 19.882813.539062 30.511719zm-377.769531-40.742187c-5.007813.800781-9.578125-1.304688-12.21875-5.621094-2.652344-4.324219-2.445313-9.363281.546875-13.476562 24.632812-33.835938 68.1875-78.613282 135.800781-99.789063 3.953125-1.234375 6.152344-5.445313 4.914063-9.398437-1.238282-3.953126-5.445313-6.148438-9.398438-4.914063-17.289062 5.414063-33.070312 12.289063-47.453125 20.089844 13.914063-28.78125 37.375-61.640625 76.464844-83.773438 6.355469-3.597656 14.054687-4.378906 21.125-2.152343 13.527343 4.269531 32.648437 10.382812 32.839843 10.441406 1.488282.476562 3.085938.476562 4.570313 0 .191406-.0625 19.3125-6.175782 32.839844-10.4375 7.074219-2.230469 14.773437-1.445313 21.125 2.148437 39.101562 22.140625 62.566406 55.007813 76.476562 83.796875-40.035156-21.757812-84.597656-32.78125-132.726562-32.78125-18.03125 0-35.800781 1.570313-52.804688 4.675782-4.078125.742187-6.777343 4.648437-6.035156 8.722656.742187 4.074218 4.648437 6.769531 8.726563 6.03125 16.121093-2.9375 32.980468-4.429688 50.113281-4.429688 51.378906 0 98.414062 13.21875 139.796875 39.289063 36.667968 23.097656 61.992187 52.164062 76.785156 72.480469 2.992188 4.113281 3.195312 9.152343.546875 13.476562-2.644531 4.316406-7.214844 6.417969-12.222656 5.621094-46.960938-7.464844-136.023438-19.996094-204.90625-19.996094-68.878907 0-157.945313 12.53125-204.90625 19.996094zm198.515625-4.960938c-33.367188 26.140625-82.222656 55.066406-144.746094 66.910156-5.148438.980469-10.453125-.324218-14.554688-3.566406-4.054687-3.207031-6.507812-8-6.738281-13.148437-.535156-11.921875-.441406-23.902344.253907-35.023438 46.839843-6.769531 111.910156-14.582031 165.785156-15.171875zm-181.058594 49.980469c-.183594 20.882813 16.578125 28.441406 16.578125 28.441406 0 18.507813 2.953125 36.582031 8.640625 53.691407-25.226562-1.527344-45.746094-19.972657-45.746094-44.566407.003906-15.488281 7.933594-29.507812 20.527344-37.566406zm-36.910156 169.84375c-2.957032-2.953125-3.375-13.78125 5.171875-34.578125 5.859375-14.269531 15.109375-31.234375 25.292969-46.53125 8.933593 5.351562 22.992187 9.3125 37.308593 8.042969 3.527344 8.035156 7.6875 15.800781 12.453125 23.242187-6.84375 7.527344-14.503906 18.226563-17.570312 30.710938-34.183594 19.503906-57.351563 24.417968-62.65625 19.113281zm47.171875 50.699219c-3.046875-7.847656-2.914063-19.328125 6.589843-28.007813 4.011719-3.664062 8.183594-7.195312 12.4375-10.59375 6.644532 13.148438 19.984376 25 39.835938 35.308594 13.695312 7.105469 30.71875 13.605469 50.90625 19.453125h-86.144531c-12.796875 0-20.597657-8.347656-23.625-16.160156zm354.375 0c-3.03125 7.8125-10.828125 16.160156-23.625 16.160156h-86.136719c12.386719-3.585938 23.582031-7.40625 33.492188-11.457031 3.832031-1.566407 5.671874-5.945313 4.105468-9.78125-1.570312-3.832031-5.945312-5.671875-9.78125-4.105469-24.023437 9.820312-56.058594 18.308594-95.242187 25.230469-110.3125-19.480469-140.726563-46.78125-146.78125-66.285157-2.144531-6.902343-3.101563-20.417968 11.539062-37.695312 4.460938 5.757812 9.316407 11.277344 14.558594 16.515625 32.363281 32.363281 75.222656 50.1875 120.683594 50.1875 45.460937 0 88.320312-17.824219 120.683593-50.1875 5.238282-5.234375 10.085938-10.75 14.550782-16.503906 6.914062 8.21875 14.003906 19.890625 12.679687 32.226562-1.289062 12.054688-10.476562 23.457031-27.308593 33.886719-3.519532 2.179688-4.605469 6.804688-2.421876 10.324219 1.417969 2.289062 5.332032 5 10.324219 2.425781 14.972657-7.730469 24.25-18.761719 29.679688-29.523438 4.246093 3.394532 8.40625 6.917969 12.414062 10.574219 9.5 8.679688 9.632813 20.160157 6.585938 28.007813zm47.171875-50.699219c-5.3125 5.308594-28.507813.382813-62.726563-19.152344-2.121093-8.652343-7.050781-19.238281-17.5-30.675781 4.765625-7.441406 8.925781-15.210938 12.457031-23.242188 13.613282 1.761719 28.367188-2.6875 37.300782-8.039062 10.1875 15.296875 19.433594 32.261719 25.296875 46.53125 8.546875 20.796875 8.128906 31.625 5.171875 34.578125zm0 0"/></svg>