<svg height="512pt" viewBox="-25 0 512 512.00182" width="512pt" xmlns="http://www.w3.org/2000/svg"><path d="m81.53125 45.332031-39.988281-15.96875c-7.644531-3.050781-15.230469 4.53125-12.175781 12.179688l15.96875 39.988281-30.625 9.101562c-8.726563 2.59375-9.816407 14.507813-1.707032 18.644532l54.507813 27.792968 69.558593-69.558593-27.792968-54.507813c-4.132813-8.109375-16.050782-7.019531-18.644532 1.707032zm0 0" fill="#ffb0d0"/><path d="m38.304688 288.234375s-11.285157 90.574219-22.042969 178.253906c-2.472657 20.167969 13.234375 37.964844 33.554687 38 58.414063.097657 163.351563-.5 163.351563-.5v-215.753906zm0 0" fill="#ffde55"/><path d="m80.097656 504.496094h307.117188c30.054687 0 44.289062-36.933594 22.09375-57.203125-35.242188-32.183594-92.128906-65.96875-175.652344-65.96875-83.527344 0-140.414062 33.785156-175.65625 65.96875-22.191406 20.269531-7.957031 57.203125 22.097656 57.203125zm0 0" fill="#ff97bd"/><path d="m340.621094 385.285156h-213.929688s-18.695312 4.734375-37.84375 15.460938c-13.015625 7.292968-11.511718 26.578125 2.472656 31.777344 23.40625 8.710937 58.359376 28.339843 101.769532 71.972656.625-.195313 80.507812-.195313 81.132812 0 43.410156-43.632813 78.359375-63.261719 101.769532-71.972656 13.984374-5.199219 15.488281-24.484376 2.46875-31.777344-19.148438-10.726563-37.839844-15.460938-37.839844-15.460938zm0 0" fill="#ffc7de"/><path d="m122.390625 297.863281c0 28.777344-23.328125 52.105469-52.105469 52.105469-28.773437 0-52.101562-23.328125-52.101562-52.105469 0-28.773437 23.328125-52.101562 52.101562-52.101562 28.777344 0 52.105469 23.328125 52.105469 52.101562zm0 0" fill="#9ad880"/><path d="m449.128906 297.863281c0 28.777344-23.328125 52.105469-52.105468 52.105469-28.773438 0-52.101563-23.328125-52.101563-52.105469 0-28.773437 23.328125-52.101562 52.101563-52.101562 28.777343 0 52.105468 23.328125 52.105468 52.101562zm0 0" fill="#ffcfc2"/><path d="m233.65625 452.109375c-89.851562 0-163.371094-73.515625-163.371094-163.371094v-84.78125c0-89.855469 73.515625-163.371093 163.371094-163.371093 89.851562 0 163.367188 73.515624 163.367188 163.371093v84.78125c0 89.855469-73.515626 163.371094-163.367188 163.371094zm0 0" fill="#c8efb9"/><path d="m233.65625 40.585938c-89.851562 0-163.371094 73.515624-163.371094 163.371093v84.78125c0 59.777344 32.535156 112.320313 80.773438 140.800781-8.164063-37.582031-7.570313-75.246093-4.238282-105.84375 3.707032-33.984374 20.472657-65.261718 46.683594-87.210937 52.796875-44.207031 68.136719-133.441406 72.300782-192.699219-10.402344-2.097656-21.152344-3.199218-32.148438-3.199218zm0 0" fill="#b2e59c"/><path d="m299.097656 114.097656-20.960937 56.691406c-1.621094 4.386719-2.199219 9.089844-1.6875 13.738282l4.480469 40.804687c1.179687 10.746094 16.144531 12.367188 19.597656 2.121094l8.132812-24.117187c3.703125-10.976563 10.222656-20.792969 18.910156-28.464844l38.148438-33.683594zm0 0" fill="#ff929f"/><path d="m441.78125 398.605469c8.324219-47.4375 25.980469-242.898438-44.757812-316.96875-63.664063-66.660157-153.617188-70.734375-189.304688-55.699219-7.289062 3.070312-14.984375 5.074219-22.882812 5.527344-22.121094 1.265625-67.453126 10.417968-98.179688 61.015625-30.230469 49.773437-43.363281 125.644531-48.351562 164.265625 8.828124-6.875 19.921874-10.984375 31.980468-10.984375 0 0 25.292969-80.683594 66.90625-95.828125 21.308594-7.753906 41.527344-4.335938 56.1875.847656 13.523438 4.78125 28.546875 1.613281 39.101563-8.101562 10.722656-9.875 26.300781-19.28125 45.320312-16.746094 37.449219 4.992187 106.558594 52.964844 75.765625 207.757812-30.789062 154.792969-22.46875 170.804688-22.46875 170.804688h101.695313c15.910156 0 26.714843-16.058594 20.847656-30.847656-8.355469-21.054688-16.316406-49.632813-11.859375-75.042969zm0 0" fill="#ffeb99"/><path d="m180.617188 397.121094c-20.589844-12.070313-45.972657-8.6875-62.699219 6.636718 23.542969 23.6875 54.25 40.253907 88.496093 46.0625 2.675782-20.503906-6.832031-41.582031-25.796874-52.699218zm0 0" fill="#ff929f"/><path d="m147.828125 39.582031c-20.355469 7.972657-43.246094 23.382813-61.171875 52.898438-30.226562 49.773437-43.359375 125.644531-48.347656 164.265625 8.828125-6.875 19.921875-10.984375 31.980468-10.984375 0 0 25.292969-80.683594 66.902344-95.828125 6.347656-2.308594 12.59375-3.628906 18.628906-4.203125-15.761718-41.984375-12.390624-82.574219-7.992187-106.148438zm0 0" fill="#ffde55"/><path d="m314.3125 308.632812c4.140625 0 7.5-3.359374 7.5-7.5v-12.453124c0-4.140626-3.359375-7.5-7.5-7.5-4.144531 0-7.5 3.359374-7.5 7.5v12.453124c0 4.140626 3.355469 7.5 7.5 7.5zm0 0"/><path d="m153 308.632812c4.140625 0 7.5-3.359374 7.5-7.5v-12.453124c0-4.140626-3.359375-7.5-7.5-7.5-4.144531 0-7.5 3.359374-7.5 7.5v12.453124c0 4.140626 3.355469 7.5 7.5 7.5zm0 0"/><path d="m206.140625 307.058594c8.101563 6.285156 17.808594 9.425781 27.515625 9.425781s19.414062-3.140625 27.511719-9.425781c3.273437-2.539063 3.871093-7.25 1.332031-10.523438-2.539062-3.269531-7.253906-3.867187-10.523438-1.328125-10.789062 8.367188-25.851562 8.367188-36.640624 0-3.273438-2.539062-7.984376-1.945312-10.523438 1.328125-2.539062 3.273438-1.945312 7.988282 1.328125 10.523438zm0 0"/><path d="m460.613281 470.882812c-7.558593-19.050781-15.679687-46.828124-11.441406-70.980468 7.683594-43.804688 20.785156-189.140625-18.480469-279.289063-1.652344-3.796875-6.070312-5.53125-9.871094-3.878906-3.796874 1.652344-5.535156 6.074219-3.878906 9.871094 16.054688 36.863281 24.878906 89.726562 25.519532 152.871093.539062 53.644532-4.816407 99.308594-8.066407 117.832032-4.839843 27.605468 4.003907 58.257812 12.273438 79.105468 1.878906 4.734376 1.320312 9.855469-1.527344 14.050782-2.820313 4.152344-7.320313 6.535156-12.347656 6.535156h-95.164063c-.484375-12.0625 1.15625-50.554688 23.296875-161.847656 19.046875-95.75-.429687-148.664063-20.125-176.191406-15.9375-22.28125-39.121093-37.40625-62.007812-40.460938-17.78125-2.367188-35.554688 4.082031-51.390625 18.660156-8.566406 7.890625-20.644532 10.394532-31.523438 6.550782-21.074218-7.449219-42.257812-7.738282-61.253906-.824219-38.746094 14.101562-63.335938 77.117187-69.816406 95.621093-5.875.53125-11.570313 1.914063-16.964844 4.113282 12.335938-82.4375 33.363281-126.722656 45.222656-146.25 28.542969-46.996094 70.019532-56.148438 92.199219-57.417969 8.351563-.480469 16.886719-2.53125 25.367187-6.105469 18.566407-7.820312 49.839844-8.75 79.679688-2.363281 27.230469 5.832031 66.90625 20.335937 101.289062 56.332031 4.179688 4.378906 8.167969 9.375 11.855469 14.851563 2.3125 3.433593 6.976563 4.34375 10.410157 2.027343 3.4375-2.3125 4.347656-6.972656 2.03125-10.40625-4.160157-6.179687-8.683594-11.839843-13.449219-16.832031-37.019531-38.757812-79.707031-54.367187-109-60.640625-33.140625-7.09375-67.105469-5.863281-88.640625 3.207032-6.898438 2.90625-13.761719 4.570312-20.398438 4.953124-13.4375.769532-33.117187 4.082032-53.429687 15.078126l-15.019531-29.457032c-3.285157-6.445312-10.0625-10.179687-17.265626-9.5234372-7.203124.6601562-13.1875 5.5664062-15.25 12.5000002l-6.765624 22.746093-32.355469-12.921874c-6.367188-2.542969-13.335938-1.109376-18.1875 3.738281-4.847657 4.851562-6.277344 11.816406-3.734375 18.1875l12.921875 32.355469-22.75 6.765624c-6.933594 2.0625-11.839844 8.046876-12.5000002 15.25-.6562498 7.203126 3.0820312 13.980469 9.5234372 17.265626l47.191406 24.0625c-14.144531 40.59375-21.730468 84.3125-25.53125 112.800781-13.109374 11.34375-20.574218 27.582031-20.574218 45.039062 0 14.636719 5.3125 28.046875 14.09375 38.429688-4.148438 33.4375-10.148438 81.941406-15.957032 129.285156-1.441406 11.742187 2.222657 23.566406 10.054688 32.433594 7.828125 8.863281 19.101562 13.957031 30.925781 13.976562 4.429688.007813 382.992188.011719 382.992188.011719 9.925781 0 19.183593-4.898438 24.757812-13.105469 5.601563-8.253906 6.746094-18.722656 3.0625-28.011719zm-445.601562-370.820312c.058593-.652344 32.457031-11.34375 32.457031-11.34375 2.023438-.601562 7.371094-3.296875 4.828125-9.972656 0 0-16.128906-41.425782-15.550781-42.003906.578125-.574219 42.003906 15.554687 42.003906 15.554687 1.953125.78125 8.589844.984375 9.96875-4.828125 0 0 10.691406-32.398438 11.34375-32.457031.644531-.0625 18.140625 32.007812 18.140625 32.007812-13.425781 9.535157-26.617187 22.894531-37.957031 41.566407-6.90625 11.375-12.933594 24.035156-18.191406 37.28125 0 0-47.101563-25.15625-47.042969-25.804688zm65.074219 396.933594c-13.457032 0-20.609376-8.398438-23.617188-16.15625-3.042969-7.851563-2.914062-19.332032 6.589844-28.007813 6.332031-5.78125 13-11.25 19.878906-16.324219 1.753906 1.234376 19.859375 9.4375 27.539062 13.007813 5.578126 2.589844 8.804688-.535156 10.15625-3.054687 1.960938-3.648438.59375-8.195313-3.054687-10.15625-8.0625-4.335938-16.078125-7.808594-23.644531-10.808594-7.953125-3.152344-10.445313-12.292969-1.421875-18.207032 3.78125-2.476562 8.167969-4.3125 12.59375-6.28125 2.519531 2.875 5.136719 5.683594 7.867187 8.414063 32.363282 32.363281 75.222656 50.1875 120.683594 50.1875 33.910156 0 67.046875-10.234375 95.097656-29.113281-1.101562 7.472656-2.023437 14.25-2.785156 20.363281-17.917969 12.269531-36.324219 27.746094-54.792969 46.082031-4.96875-.082031-15.242187-.089844-37.523437-.089844s-32.550782.007813-37.519532.089844c-17.144531-17.023437-34.273437-31.617187-50.953124-43.417968-3.378907-2.390626-8.0625-1.589844-10.453126 1.792968-2.394531 3.382813-1.589843 8.0625 1.792969 10.453125 12.449219 8.808594 25.195313 19.277344 38.035157 31.230469zm49.328124-92.632813c14.234376-9.050781 32.410157-9.566406 47.410157-.773437 13.484375 7.90625 21.785156 21.960937 22.484375 37.207031-25.84375-5.839844-49.808594-18.261719-69.894532-36.433594zm194.386719 66.515625c-1.085937 12.207032-1.296875 20.492188-1.09375 26.117188h-29.949219c10.449219-9.722656 20.820313-18.453125 31.042969-26.117188zm3.132813-305.449218s-17.257813 11.214843-25.378906 35.511718l-8.132813 24.117188c-.925781 3.113281-4.945313 2.777344-5.039063-.546875l-4.480468-40.800781c-.382813-3.476563.058594-7.042969 1.269531-10.320313l12.285156-33.230469c9.109375 4.65625 19.734375 12.402344 29.476563 25.269532zm-187.175782-8.445313c19.816407-7.214844 38.738282-3.511719 51.121094.867187 16.128906 5.707032 34.019532 2.007813 46.683594-9.652343 12.628906-11.628907 29.1875-18.757813 45.910156-13.464844l-12.371094 33.453125c-2.011718 5.453125-2.742187 11.386719-2.109374 17.164062l4.484374 40.800782c.921876 8.402344 7.1875 14.660156 15.59375 15.570312.683594.074219 14.710938.75 18.566407-11.871094l8.132812-24.117187c6.855469-18.945313 19.417969-27.582031 19.417969-27.582031 25.179688 45.15625 20.226562 107.820312 11.023438 154.078125-6.117188 30.765625-10.71875 56.160156-14.160157 77.148437-27.800781 22.734375-62.628906 35.230469-98.394531 35.230469-6.5 0-12.945312-.398437-19.300781-1.1875.191406-21.523437-11.046875-41.691406-29.945313-52.769531-20.9375-12.273438-46.539062-10.910156-65.832031 2.925781-1.832031-2.003906-40.789063-43.605469-40.789063-104.835937v-41.789063c1.433594-4.339844 7.367188-21.523437 16.992188-39.953125 14.199219-27.179688 29.75-44.476562 44.976562-50.015625zm-96.960937 105.757813c.039063-.027344.082031-.050782.121094-.078126 5.890625-4.589843 12.65625-7.5625 19.871093-8.777343v34.851562c0 18.507813 2.953126 36.585938 8.640626 53.699219-23.234376-.492188-45.746094-19.980469-45.746094-44.574219 0-13.804687 6.238281-26.597656 17.113281-35.121093zm-12.679687 225.335937c-4.992188-5.652344-7.328126-13.1875-6.410157-20.675781 5.25-42.777344 10.65625-86.511719 14.707031-119.210938 9.226563 5.863282 23.921876 9.398438 38.65625 8.886719 4.917969 11.195313 11.066407 21.871094 18.371094 31.867187-3.558594 1.679688-7.066406 3.3125-10.261718 5.257813-17.894532 10.898437-12.039063 28.273437-11.304688 30.351563-7.242188 5.351562-14.261719 11.113281-20.929688 17.199218-12.628906 11.53125-16.636718 28.589844-10.460937 44.511719 1.535156 3.953125 3.582031 7.535156 6.054687 10.683594-7.0625-.355469-13.714843-3.542969-18.421874-8.871094zm0 0"/></svg>