<svg height="511pt" viewBox="-14 1 511 511.99894" width="511pt" xmlns="http://www.w3.org/2000/svg"><path d="m41.492188 460.945312h99.109374v-298.148437h-62.742187c-36.640625 0-66.34375 29.703125-66.34375 66.34375v201.828125c0 16.554688 13.421875 29.976562 29.976563 29.976562zm0 0" fill="#bf4c4c"/><path d="m455.902344 373.726562c-38.09375-46.144531-50.1875-127.960937-50.1875-127.960937h-326.738282s-12.089843 81.8125-50.1875 127.960937c-19.847656 24.042969-22.320312 58.53125-20.136718 86.054688 2.003906 25.265625 23.152344 44.71875 48.496094 44.71875h370.394531c25.347656 0 46.496093-19.453125 48.5-44.71875 2.179687-27.523438-.292969-62.011719-20.140625-86.054688zm0 0" fill="#ff9478"/><path d="m131.082031 297.867188c0 28.773437-23.328125 52.101562-52.105469 52.101562-28.773437 0-52.101562-23.328125-52.101562-52.101562 0-28.777344 23.328125-52.105469 52.101562-52.105469 28.777344 0 52.105469 23.328125 52.105469 52.105469zm0 0" fill="#e2b9a3"/><path d="m457.816406 297.867188c0 28.773437-23.324218 52.101562-52.101562 52.101562-28.773438 0-52.101563-23.328125-52.101563-52.101562 0-28.777344 23.328125-52.105469 52.101563-52.105469 28.777344 0 52.101562 23.328125 52.101562 52.105469zm0 0" fill="#efcbb4"/><path d="m88.789062 504.496094h307.117188c30.054688 0 44.289062-36.933594 22.09375-57.203125-35.242188-32.183594-92.128906-65.96875-175.652344-65.96875-83.523437 0-140.414062 33.785156-175.65625 65.96875-22.191406 20.269531-7.957031 57.203125 22.097656 57.203125zm0 0" fill="#c68d6d"/><path d="m396.28125 429.5625c-35.402344-25.820312-85.976562-48.238281-154.246094-48.238281-67.867187 0-118.042968 22.457031-153.414062 48.085937 0 0 50.59375 75.089844 153.792968 75.089844 100.242188-.003906 151.046876-70.886719 153.867188-74.9375zm0 0" fill="#def4f9"/><path d="m242.347656 452.109375c-89.855468 0-163.371094-73.515625-163.371094-163.371094v-84.78125c0-89.851562 73.515626-163.371093 163.371094-163.371093 89.851563 0 163.367188 73.515624 163.367188 163.371093v84.78125c0 89.855469-73.515625 163.371094-163.367188 163.371094zm0 0" fill="#f9dcc5"/><path d="m179.757812 387.785156c-15.90625-19.632812-17.992187-47.195312-4.929687-68.832031 14.519531-24.046875 17.1875-108.179687 17.1875-108.179687l15.15625-166.347657c-73.089844 16.203125-128.195313 81.746094-128.195313 159.53125v84.78125c0 89.855469 73.515626 163.371094 163.371094 163.371094 12.800782 0 25.28125-1.496094 37.253906-4.316406-49.429687-10.300781-80.835937-36.542969-99.84375-60.007813zm0 0" fill="#efcbb4"/><path d="m126.828125 178.441406c0 26.425782-21.421875 47.851563-47.851563 47.851563-26.425781 0-47.847656-21.425781-47.847656-47.851563 0-26.425781 21.421875-47.851562 47.847656-47.851562 26.429688 0 47.851563 21.425781 47.851563 47.851562zm0 0" fill="#d65b5b"/><path d="m242.347656 349.835938c-15.519531 0-28.101562-12.582032-28.101562-28.101563v-20.429687c0-4.238282 3.433594-7.671876 7.671875-7.671876h40.859375c4.234375 0 7.667968 3.433594 7.667968 7.671876v20.429687c0 15.519531-12.578124 28.101563-28.097656 28.101563zm0 0" fill="#57565c"/><path d="m178.324219 321.734375c0-13.183594-13.417969-23.871094-29.972657-23.871094-16.554687 0-29.972656 10.6875-29.972656 23.871094 0 13.179687 13.417969 23.867187 29.972656 23.867187 16.554688 0 29.972657-10.6875 29.972657-23.867187zm0 0" fill="#ffa6bb"/><path d="m366.3125 321.734375c0-13.183594-13.417969-23.871094-29.972656-23.871094-16.550782 0-29.972656 10.6875-29.972656 23.871094 0 13.179687 13.421874 23.867187 29.972656 23.867187 16.554687 0 29.972656-10.6875 29.972656-23.867187zm0 0" fill="#ffa6bb"/><path d="m323.003906 308.632812c-4.144531 0-7.5-3.359374-7.5-7.5v-12.453124c0-4.140626 3.355469-7.5 7.5-7.5 4.140625 0 7.5 3.359374 7.5 7.5v12.453124c0 4.140626-3.359375 7.5-7.5 7.5zm0 0" fill="#57565c"/><path d="m336.339844 322.550781c-21.449219 0-38.839844-17.390625-38.839844-38.839843v-72.9375h77.679688v72.9375c0 21.449218-17.386719 38.839843-38.839844 38.839843zm0 0" fill="#78787f"/><path d="m354.78125 44.441406c-47.386719-31.023437-80.34375-36.941406-112.433594-36.941406s-65.046875 5.917969-112.4375 36.941406c-23.742187 15.542969-58.023437 24.183594-86.324218 28.9375-14.78125 2.484375-20.023438 21.101563-8.59375 30.800782 33.847656 28.71875 47.832031 64.625 47.832031 64.625l159.523437 43.171874 159.519532-43.171874s13.984374-35.90625 47.832031-64.625c11.429687-9.699219 6.1875-28.316407-8.59375-30.800782-28.300781-4.753906-62.582031-13.394531-86.324219-28.9375zm0 0" fill="#898890"/><path d="m139.59375 38.324219c-3.164062 1.921875-6.382812 3.957031-9.683594 6.117187-23.742187 15.542969-58.023437 24.183594-86.324218 28.9375-14.78125 2.484375-20.023438 21.101563-8.59375 30.800782 33.847656 28.71875 47.832031 64.628906 47.832031 64.628906l97.5625 26.398437c-2.53125-23.800781-7.855469-50.488281-18.695313-71.78125-15.0625-29.582031-20.324218-62.664062-22.097656-85.101562zm0 0" fill="#7a7982"/><path d="m405.714844 245.761719v-41.804688c0-12.058593-1.335938-23.824219-3.847656-35.15625-105.792969 15.378907-213.25 15.378907-319.042969 0-2.507813 11.332031-3.847657 23.097657-3.847657 35.15625v41.804688c108.394532 15.015625 218.34375 15.015625 326.738282 0zm0 0" fill="#ff737d"/><path d="m178.171875 178.476562c-31.871094-1.847656-63.6875-5.070312-95.347656-9.671874-2.507813 11.332031-3.847657 23.09375-3.847657 35.15625v41.804687c34.234376 4.742187 68.621094 7.984375 103.0625 9.730469.007813-.085938 2.5-37.269532-3.867187-77.019532zm0 0" fill="#f46262"/><path d="m161.691406 281.179688c-4.144531 0-7.5 3.359374-7.5 7.5v12.449218c0 4.144532 3.355469 7.5 7.5 7.5 4.140625 0 7.5-3.355468 7.5-7.5v-12.449218c0-4.140626-3.359375-7.5-7.5-7.5zm0 0"/><path d="m262.777344 286.132812h-40.859375c-8.367188 0-15.171875 6.808594-15.171875 15.171876v20.429687c0 19.628906 15.96875 35.601563 35.601562 35.601563 19.628906 0 35.597656-15.96875 35.597656-35.601563v-20.429687c0-8.367188-6.804687-15.171876-15.167968-15.171876zm.167968 35.601563c0 11.359375-9.238281 20.601563-20.597656 20.601563s-20.601562-9.242188-20.601562-20.601563c0 0 .078125-20.601563.171875-20.601563 0 0 41.027343.078126 41.027343.171876zm0 0"/><path d="m461.6875 368.953125c-6.011719-7.277344-11.726562-16.019531-17.042969-26.011719 12.644531-10.9375 20.671875-27.082031 20.671875-45.078125 0-30.320312-22.765625-55.410156-52.101562-59.113281v-34.792969c0-11.53125-1.195313-23.082031-3.527344-34.375 3.386719-7.628906 17.335938-36.324219 44.863281-59.683593 7.511719-6.371094 10.550781-16.230469 7.933594-25.734376-2.632813-9.570312-10.347656-16.535156-20.136719-18.179687-36.054687-6.058594-64.914062-15.679687-83.460937-27.820313-3.464844-2.269531-8.113281-1.296874-10.382813 2.167969-2.269531 3.464844-1.296875 8.113281 2.167969 10.382813 20.558594 13.457031 50.5625 23.570312 89.191406 30.058594 4.023438.679687 7.074219 3.433593 8.160157 7.367187 1.0625 3.871094-.121094 7.730469-3.175782 10.320313-28.496094 24.175781-43.371094 52.925781-48.195312 63.5-102.414063 14.492187-206.199219 14.492187-308.617188 0-4.824218-10.574219-19.699218-39.324219-48.195312-63.5-3.050782-2.589844-4.238282-6.449219-3.171875-10.320313 1.082031-3.933594 4.132812-6.6875 8.160156-7.363281 38.625-6.492188 68.632813-16.605469 89.1875-30.0625 47.949219-31.386719 80.402344-35.714844 108.332031-35.714844 20.785156 0 46.621094 2.324219 80.628906 19.554688 3.691407 1.875 8.207032.394531 10.082032-3.300782 1.871094-3.691406.394531-8.207031-3.304688-10.078125-36.824218-18.660156-64.847656-21.175781-87.40625-21.175781-30.253906 0-65.308594 4.625-116.542968 38.164062-18.546876 12.140626-47.40625 21.761719-83.460938 27.820313-9.789062 1.644531-17.503906 8.609375-20.136719 18.179687-2.617187 9.503907.421875 19.363282 7.933594 25.734376 7.957031 6.753906 14.78125 13.953124 20.542969 20.960937-16.644532 9.882813-27.058594 27.835937-27.058594 47.582031 0 .460938-19.609375 16.765625-19.609375 50.699219v180.671875c-3.050781 13.59375-4.453125 30.246094-2.839844 50.558594 2.292969 28.949218 26.882813 51.628906 55.972657 51.628906h370.390624c29.09375 0 53.679688-22.679688 55.976563-51.628906 3.890625-48.996094-9.726563-76.757813-21.828125-91.417969zm-11.371094-71.089844c0 24.597657-19.019531 41.804688-45.742187 44.574219 5.6875-17.113281 8.640625-35.191406 8.640625-53.699219v-34.832031c21.035156 3.578125 37.101562 21.921875 37.101562 43.957031zm-97.894531 100.953125c-29.527344 29.527344-68.621094 45.792969-110.074219 45.792969-19.632812 0-38.800781-3.652344-56.976562-10.847656-3.847656-1.523438-8.207032.359375-9.734375 4.210937-1.523438 3.851563.359375 8.207032 4.210937 9.734375 19.941406 7.894531 40.964844 11.898438 62.496094 11.898438 42.898438 0 83.476562-15.875 115.109375-44.855469 9.710937 4.824219 19.089844 10.316406 28.085937 16.429688-14.34375 17.261718-61.929687 65.816406-143.125 65.816406-40.949218 0-78.183593-12.019532-110.667968-35.730469-15.960938-11.648437-26.789063-23.421875-32.402344-30.214844 8.945312-6.066406 18.265625-11.519531 27.914062-16.3125 7.453126 6.816407 15.4375 13.089844 24.042969 18.421875 4.855469 3.007813 8.921875-.066406 10.351563-2.320312 2.214844-3.496094 1.179687-8.128906-2.320313-10.347656-45.621093-28.921876-72.855469-78.175782-72.855469-131.753907v-34.402343c51.738282 6.789062 103.804688 10.191406 155.871094 10.191406 15.886719 0 31.777344-.328125 47.65625-.960938v20.144532c0 25.550781 20.785156 46.339843 46.335938 46.339843 25.554687 0 46.339844-20.789062 46.339844-46.339843v-27.445313c5.183593-.609375 10.359374-1.25 15.535156-1.929687v34.402343c0 41.457031-16.261719 80.546875-45.792969 110.078125zm-265.253906 41.0625c6 7.378906 17.671875 20.230469 35.210937 33.117188 10.972656 8.066406 25.304688 16.824218 42.832032 24.003906h-76.421876c-12.800781 0-20.597656-8.351562-23.628906-16.160156-3.042968-7.851563-2.910156-19.332032 6.589844-28.007813 4.976562-4.542969 10.125-8.859375 15.417969-12.953125zm332.363281 40.960938c-3.027344 7.808594-10.828125 16.160156-23.625 16.160156h-76.234375c14.257813-5.820312 27.855469-13.289062 40.5625-22.339844 18.640625-13.28125 31.132813-26.921875 37.464844-34.644531 5.234375 4.050781 10.324219 8.320313 15.242187 12.816406 9.503906 8.675781 9.636719 20.15625 6.589844 28.007813zm-385.15625-182.976563c0-22.035156 16.070312-40.378906 37.105469-43.957031v34.832031c0 18.285157 2.972656 36.4375 8.714843 53.695313-24.316406.511718-45.820312-19.972656-45.820312-44.570313zm270.628906-34.980469c20.921875-1.097656 41.820313-2.742187 62.679688-4.9375v25.765626c0 17.28125-14.058594 31.339843-31.339844 31.339843s-31.339844-14.058593-31.339844-31.339843zm90.890625-85.65625c1.542969 8.816407 2.320313 17.78125 2.320313 26.730469v35.253907c-103.460938 13.753906-208.273438 13.753906-311.738282 0v-35.253907c0-8.949219.78125-17.910156 2.320313-26.730469 101.9375 14.15625 205.164063 14.15625 307.097656 0zm-336.097656-34.273437c8.46875 12.257813 13.378906 22.515625 15.207031 26.628906-2.332031 11.296875-3.527344 22.84375-3.527344 34.375v14.125c-18.675781-3.527343-32.847656-19.953125-32.847656-39.640625 0-14.953125 8.199219-28.484375 21.167969-35.488281zm-40.78125 86.1875c0-10.824219 2.964844-21.308594 8.476563-30.421875 7.226562 18.28125 23.90625 31.816406 43.984374 34.550781v5.480469c-29.332031 3.703125-52.101562 28.792969-52.101562 59.113281 0 17.996094 8.027344 34.140625 20.675781 45.078125-5.320312 9.992188-13.175781 22.128906-21.035156 31.300782zm-2.886719 230.046875c-3.488281-43.992188 8.105469-68.160156 18.445313-80.6875 6.378906-7.726562 12.414062-16.871094 18.011719-27.210938 7.960937 3.945313 19.042968 6.046876 33.25 5.78125 9.285156 22.476563 21.601562 36.976563 30.289062 46.507813-19.632812 10.242187-37.925781 23.050781-54.488281 38.175781-12.628907 11.53125-16.636719 28.589844-10.460938 44.511719 1.542969 3.972656 3.605469 7.574219 6.09375 10.734375h-.117187c-21.324219 0-39.34375-16.609375-41.023438-37.8125zm452.4375 0c-1.683594 21.203125-19.703125 37.8125-41.023437 37.8125h-.117188c2.488281-3.160156 4.550781-6.761719 6.09375-10.734375 6.175781-15.921875 2.167969-32.976563-10.460937-44.511719-16.550782-15.113281-34.839844-27.921875-54.464844-38.164062 12.738281-13.957032 22.929688-29.648438 30.335938-46.507813 13.4375 1.519531 25.21875-1.84375 33.179687-5.792969 5.597656 10.34375 11.632813 19.488282 18.011719 27.210938 18.734375 22.695312 20.371094 56.40625 18.445312 80.6875zm0 0"/></svg>