<svg height="511pt" viewBox="-14 0 511 511.99843" width="511pt" xmlns="http://www.w3.org/2000/svg"><path d="m62.570312 46.710938c0 15.070312-12.21875 27.285156-27.285156 27.285156-15.070312 0-27.285156-12.214844-27.285156-27.285156 0-15.070313 12.214844-27.285157 27.285156-27.285157 15.066406 0 27.285156 12.214844 27.285156 27.285157zm0 0" fill="#ffeb99"/><path d="m476.941406 46.710938c0 15.070312-12.214844 27.285156-27.285156 27.285156s-27.285156-12.214844-27.285156-27.285156c0-15.070313 12.214844-27.285157 27.285156-27.285157s27.285156 12.214844 27.285156 27.285157zm0 0" fill="#ffeb99"/><path d="m88.929688 504.5h307.078124c30.050782 0 44.28125-36.929688 22.089844-57.195312-35.234375-32.179688-92.117187-65.964844-175.628906-65.964844s-140.394531 33.785156-175.628906 65.964844c-22.191406 20.265624-7.960938 57.195312 22.089844 57.195312zm0 0" fill="#ff737d"/><path d="m299.488281 441.78125v-54.800781c-17.4375-3.582031-36.414062-5.636719-57.019531-5.636719-83.511719 0-140.394531 33.78125-175.628906 65.960938-22.191406 20.265624-7.960938 57.195312 22.089844 57.195312h153.539062c41.191406-14.453125 57.019531-62.71875 57.019531-62.71875zm0 0" fill="#f46262"/><path d="m370.640625 471.171875c14.472656-8.570313 23.160156-23.359375 31.765625-37.078125-35.609375-27.582031-87.84375-52.75-159.9375-52.75s-124.328125 25.167969-159.9375 52.753906c8.605469 13.71875 17.296875 28.503906 31.769531 37.074219 17.898438 10.597656 42.796875 7.992187 64.894531 13.582031 20.320313 5.144532 40.625 19.746094 63.273438 19.746094 22.652344 0 42.957031-14.605469 63.277344-19.746094 22.09375-5.589844 46.996094-2.984375 64.894531-13.582031zm0 0" fill="#cff3ff"/><path d="m299.488281 441.78125v-54.800781c-17.4375-3.585938-36.414062-5.636719-57.019531-5.636719-72.09375 0-124.328125 25.167969-159.9375 52.753906 8.609375 13.71875 17.292969 28.5 31.769531 37.074219 17.898438 10.597656 42.796875 7.992187 64.894531 13.582031 20.320313 5.144532 40.625 19.746094 63.273438 19.746094 41.191406-14.453125 57.019531-62.71875 57.019531-62.71875zm0 0" fill="#bde5ef"/><path d="m131.21875 297.894531c0 28.773438-23.324219 52.097657-52.097656 52.097657-28.769532 0-52.09375-23.324219-52.09375-52.097657 0-28.769531 23.324218-52.09375 52.09375-52.09375 28.773437 0 52.097656 23.324219 52.097656 52.09375zm0 0" fill="#c6c5ca"/><path d="m457.910156 297.894531c0 28.773438-23.324218 52.097657-52.09375 52.097657-28.773437 0-52.097656-23.324219-52.097656-52.097657 0-28.769531 23.324219-52.09375 52.097656-52.09375 28.769532 0 52.09375 23.324219 52.09375 52.09375zm0 0" fill="#d8d7da"/><path d="m242.46875 452.117188c-89.839844 0-163.347656-73.503907-163.347656-163.347657v-84.769531c0-89.84375 73.507812-163.347656 163.347656-163.347656s163.347656 73.503906 163.347656 163.347656v84.769531c0 89.84375-73.507812 163.347657-163.347656 163.347657zm0 0" fill="#eaeaea"/><path d="m242.46875 40.652344c-89.839844 0-163.347656 73.503906-163.347656 163.347656v84.769531c0 59.769531 32.542968 112.3125 80.773437 140.792969-8.164062-37.578125-7.582031-75.246094-4.246093-105.839844 3.703124-33.980468 20.46875-65.253906 46.675781-87.199218 52.789062-44.203126 68.128906-133.425782 72.292969-192.671876-10.402344-2.101562-21.152344-3.199218-32.148438-3.199218zm0 0" fill="#d8d7da"/><path d="m196.445312 294.96875c0-30.386719-15.460937-55.023438-34.535156-55.023438-19.074218 0-34.535156 24.636719-34.535156 55.023438s15.460938 55.023438 34.535156 55.023438c19.074219 0 34.535156-24.636719 34.535156-55.023438zm0 0" fill="#898890"/><path d="m357.652344 294.96875c0-30.386719-15.464844-55.023438-34.539063-55.023438s-34.535156 24.636719-34.535156 55.023438 15.460937 55.023438 34.535156 55.023438 34.539063-24.636719 34.539063-55.023438zm0 0" fill="#898890"/><path d="m446.964844 43.308594c0-.835938-85.699219-60.984375-204.496094-23.390625-118.796875-37.59375-204.492188 22.554687-204.492188 23.390625 51.792969 30.074218 41.144532 153.53125 41.144532 153.53125s54.253906-27.390625 163.347656-27.390625c109.097656 0 163.347656 27.390625 163.347656 27.390625s-10.648437-123.457032 41.148438-153.53125zm0 0" fill="#ff929f"/><path d="m405.816406 196.839844s-10.644531-123.460938 41.148438-153.53125c0-.835938-85.699219-60.984375-204.496094-23.390625v149.53125c109.097656 0 163.347656 27.390625 163.347656 27.390625zm0 0" fill="#898890"/><path d="m37.976562 43.300781c51.792969 30.074219 41.144532 153.53125 41.144532 153.53125s24.792968-12.507812 74.539062-20.617187c-1.78125-40.75-6.355468-72.519532-9.816406-91.75-4.28125-23.796875 6.164062-47.863282 26.550781-60.867188 14.351563-9.152344 28.253907-13.550781 28.429688-13.609375-95.578125-13.3125-160.847657 32.582031-160.847657 33.3125zm0 0" fill="#ff737d"/><path d="m323.113281 308.660156c4.144531 0 7.5-3.359375 7.5-7.5v-12.449218c0-4.140626-3.355469-7.496094-7.5-7.496094-4.140625 0-7.496093 3.355468-7.496093 7.496094v12.449218c0 4.140625 3.355468 7.5 7.496093 7.5zm0 0"/><path d="m161.824219 281.210938c-4.144531 0-7.5 3.359374-7.5 7.5v12.449218c0 4.140625 3.355469 7.5 7.5 7.5 4.140625 0 7.5-3.359375 7.5-7.5v-12.449218c0-4.140626-3.359375-7.5-7.5-7.5zm0 0"/><path d="m213.628906 296.566406c-2.535156 3.273438-1.941406 7.984375 1.332032 10.523438 8.097656 6.28125 17.804687 9.421875 27.507812 9.421875 9.707031 0 19.414062-3.140625 27.511719-9.421875 3.273437-2.539063 3.867187-7.25 1.328125-10.523438-2.539063-3.273437-7.25-3.867187-10.519532-1.328125-10.789062 8.363281-25.851562 8.363281-36.636718 0-3.273438-2.539062-7.984375-1.945312-10.523438 1.328125zm0 0"/><path d="m401.257812 117.417969c-.644531 4.089843 2.152344 7.929687 6.242188 8.574219 4.085938.636718 7.929688-2.152344 8.574219-6.246094 2.832031-18.027344 7.269531-33.105469 13.148437-44.898438 5.859375 4.257813 12.976563 6.648438 20.433594 6.648438 19.179688 0 34.78125-15.605469 34.78125-34.785156 0-19.179688-15.601562-34.78125-34.78125-34.78125-9.429688 0-18.332031 3.804687-24.8125 10.40625-10.988281-4.988282-24.699219-10.171876-40.363281-14.210938-46.660157-12.019531-94.425781-10.695312-142.011719 3.9375-47.582031-14.632812-95.347656-15.960938-142.007812-3.9375-15.667969 4.035156-29.375 9.21875-40.367188 14.207031-6.480469-6.601562-15.382812-10.40625-24.808594-10.40625-19.183594 0-34.785156 15.605469-34.785156 34.785157 0 19.179687 15.601562 34.78125 34.785156 34.78125 7.464844 0 14.59375-2.394532 20.457032-6.667969 8.523437 17.164062 12.714843 38.777343 14.75 57.121093 3.71875 33.519532 1.132812 106.84375 1.132812 106.84375-29.332031 3.699219-52.097656 28.785157-52.097656 59.105469 0 22.875 13.324218 44.0625 34.015625 53.839844 4.679687 2.210937 8.710937-.851563 9.996093-3.550781 1.777344-3.738282.1875-8.214844-3.550781-9.992188-15.46875-7.359375-25.460937-23.175781-25.460937-40.296875 0-22.035156 16.066406-40.375 37.097656-43.953125v34.828125c0 42.777344 15.785156 83.246094 44.613281 114.835938-13.371093 6.980469-39.773437 24.402343-54.457031 38.160156-12.476562 11.691406-16.632812 28.582031-10.457031 44.503906 6.15625 15.871094 20.566406 25.730469 37.605469 25.730469h307.078124c17.039063 0 31.449219-9.859375 37.605469-25.730469 6.175781-15.921875 1.875-32.65625-10.457031-44.503906-11.558594-11.101563-41.089844-31.179687-54.457031-38.15625 12.734375-13.960937 22.925781-29.652344 30.332031-46.507813 40.40625 2.597657 66.378906-26.347656 66.378906-59.207031 0-30.320312-22.761718-55.40625-52.09375-59.105469 0 0-1.664062-62.09375-.453125-86.765624.203125-4.136719-2.984375-7.652344-7.125-7.855469-4.121093-.199219-7.652343 2.984375-7.855469 7.121093-.671874 13.71875-.515624 25.695313-.214843 34.019532-7.03125-2.632813-17.285157-6.039063-30.785157-9.4375-42.214843-10.625-85.675781-13.496094-116.914062-13.875v-136.523438c44.882812-13.226562 89.800781-13.933594 133.585938-2.078125 22.988281 6.222657 40.515624 14.753907 50.210937 20.269531-16.136719 14.328126-27.054687 39.0625-32.507813 73.753907zm-365.972656-50.921875c-10.914062 0-19.789062-8.875-19.789062-19.785156 0-10.910157 8.875-19.785157 19.789062-19.785157 3.613282 0 7.085938.988281 10.101563 2.777344-4.855469 2.695313-8.640625 4.964844-10.9375 6.804687-4.191407 3.363282-5.113281 10.203126-.238281 13.285157 5.097656 3.222656 9.71875 7.214843 13.609374 12.214843-3.492187 2.867188-7.902343 4.488282-12.535156 4.488282zm15.867188-22.820313c9.691406-5.519531 27.226562-14.054687 50.230468-20.28125 43.789063-11.855469 88.703126-11.148437 133.585938 2.078125v136.527344c-53.308594.625-92.804688 7.804688-116.914062 13.871094-13.484376 3.394531-23.730469 6.800781-30.761719 9.429687 1.15625-30.46875.332031-109.089843-36.140625-141.625zm14.15625 437.167969c-3.046875-7.847656-2.914063-19.328125 6.585937-28.003906 2.867188-2.617188 5.792969-5.152344 8.765625-7.621094 7.5625 11.910156 16.417969 24.46875 29.820313 32.40625 12.523437 7.414062 27.585937 9.03125 42.152343 10.597656 8.292969.894532 28.992188 3.097656 39.113282 8.777344h-102.816406c-12.796876 0-20.59375-8.34375-23.621094-16.15625zm354.324218 0c-3.03125 7.8125-10.828124 16.15625-23.625 16.15625h-102.8125c12.046876-5.039062 30.773438-7.851562 39.058594-8.722656 8.890625-.933594 18.082032-1.898438 26.617188-4.203125 4-1.082031 6.363281-5.199219 5.285156-9.199219-1.082031-3.996094-5.203125-6.359375-9.195312-5.28125-7.382813 1.996094-15.585938 2.855469-24.273438 3.769531-8.808594.921875-17.917969 1.878907-26.78125 4.121094-8.246094 2.085937-16.382812 5.578125-24.253906 8.953125-12.105469 5.191406-24.625 10.5625-37.183594 10.5625s-25.074219-5.371094-37.183594-10.5625c-7.867187-3.375-16.003906-6.867188-24.25-8.953125-8.875-2.246094-17.988281-3.226563-26.800781-4.171875-13.570313-1.460938-26.390625-2.839844-36.113281-8.597656-10.945313-6.480469-18.515625-17.5625-25.578125-28.765625 11.023437-8.054688 22.667969-15.140625 34.832031-21.1875 31.628906 28.980469 72.203125 44.855469 115.09375 44.855469 42.894531 0 83.464844-15.875 115.09375-44.855469 12.171875 6.050781 23.824219 13.140625 34.851562 21.207031-4.40625 7.050781-9.066406 14.109375-14.753906 19.988281-2.878906 2.976563-2.800781 7.722657.175782 10.605469 1.453124 1.40625 6.839843 3.632812 10.601562-.175781 6.40625-6.480469 11.273438-13.863281 15.863281-21.148438 2.964844 2.464844 5.882813 4.992188 8.742188 7.601563 9.5 8.675781 9.632812 20.15625 6.589843 28.003906zm30.78125-182.949219c0 24.589844-19.621093 43.832031-45.738281 44.566407 5.683594-17.113282 8.640625-35.183594 8.640625-53.691407v-34.828125c21.03125 3.578125 37.097656 21.917969 37.097656 43.953125zm-52.097656-96.195312v87.070312c0 41.449219-16.257812 80.535157-45.785156 110.0625-29.527344 29.527344-68.613281 45.785157-110.0625 45.785157s-80.535156-16.257813-110.0625-45.785157c-29.523438-29.527343-45.785156-68.613281-45.785156-110.0625v-87.070312c5.824218-2.4375 17.789062-6.964844 35.765625-11.453125 24.304687-6.066406 64.867187-13.296875 120.082031-13.296875 55.21875 0 95.78125 7.230469 120.085938 13.296875 17.976562 4.492187 29.941406 9.015625 35.761718 11.453125zm51.339844-174.773438c10.910156 0 19.785156 8.875 19.785156 19.785157 0 10.910156-8.875 19.785156-19.785156 19.785156-4.621094 0-9.015625-1.609375-12.503906-4.457032 4.074218-5.253906 8.660156-9.273437 13.574218-12.246093 5.097657-3.082031 3.972657-10.042969-.238281-13.285157-2.332031-1.796874-6.082031-4.109374-10.933593-6.804687 3.011718-1.789063 6.488281-2.777344 10.101562-2.777344zm0 0"/><path d="m169.410156 233.417969v-21.804688c0-4.144531-3.359375-7.5-7.5-7.5-4.144531 0-7.5 3.355469-7.5 7.5v21.804688c-19.871094 5.121093-34.535156 30.3125-34.535156 61.550781s14.664062 56.429688 34.535156 61.550781v21.804688c0 4.140625 3.355469 7.5 7.5 7.5 4.140625 0 7.5-3.359375 7.5-7.5v-21.804688c19.867188-5.121093 34.535156-30.3125 34.535156-61.550781s-14.664062-56.429688-34.535156-61.550781zm-7.5 109.074219c-14.65625 0-27.039062-21.765626-27.039062-47.523438s12.382812-47.523438 27.039062-47.523438 27.035156 21.765626 27.035156 47.523438-12.378906 47.523438-27.035156 47.523438zm0 0"/><path d="m315.617188 356.519531v21.804688c0 4.140625 3.355468 7.5 7.5 7.5 4.140624 0 7.496093-3.359375 7.496093-7.5v-21.804688c19.871094-5.121093 34.539063-30.3125 34.539063-61.550781s-14.667969-56.429688-34.539063-61.550781v-21.804688c0-4.144531-3.355469-7.5-7.496093-7.5-4.144532 0-7.5 3.355469-7.5 7.5v21.804688c-19.871094 5.121093-34.539063 30.308593-34.539063 61.550781s14.667969 56.429688 34.539063 61.550781zm7.496093-109.074219c14.65625 0 27.039063 21.761719 27.039063 47.523438 0 25.757812-12.382813 47.523438-27.039063 47.523438s-27.035156-21.765626-27.035156-47.523438c0-25.761719 12.378906-47.523438 27.035156-47.523438zm0 0"/></svg>