<svg height="511pt" viewBox="-27 0 511 511.99801" width="511pt" xmlns="http://www.w3.org/2000/svg"><path d="m140.601562 388.070312c-13.433593 25.394532-77.089843 95.925782-102.484374 82.492188-25.394532-13.433594-2.910157-105.742188 10.523437-131.136719s44.910156-35.089843 70.300781-21.65625c25.398438 13.433594 35.09375 44.910157 21.660156 70.300781zm0 0" fill="#dd9f80"/><path d="m327.980469 388.070312c13.433593 25.394532 77.09375 95.925782 102.484375 82.492188 25.394531-13.433594 2.910156-105.742188-10.523438-131.136719s-44.910156-35.089843-70.300781-21.65625c-25.394531 13.433594-35.089844 44.910157-21.660156 70.300781zm0 0" fill="#dd9f80"/><path d="m80.734375 504.5h307.117187c30.054688 0 44.285157-36.9375 22.09375-57.203125-35.242187-32.183594-92.132812-65.972656-175.65625-65.972656-83.523437 0-140.410156 33.789062-175.652343 65.972656-22.191407 20.265625-7.960938 57.203125 22.097656 57.203125zm0 0" fill="#c2e8ef"/><path d="m234.292969 381.324219c-83.523438 0-140.414063 33.789062-175.65625 65.972656-22.191407 20.265625-7.960938 57.203125 22.097656 57.203125h159.496094c58.601562-25.078125 74.71875-73.835938 74.71875-73.835938v-37.675781c-23.539063-7.214843-50.335938-11.664062-80.65625-11.664062zm0 0" fill="#afd8e2"/><path d="m271.984375 40.113281c0-18.011719-16.875-32.613281-37.691406-32.613281-20.820313 0-37.695313 14.601562-37.695313 32.613281s16.875 32.613281 37.695313 32.613281c20.816406 0 37.691406-14.601562 37.691406-32.613281zm0 0" fill="#898890"/><path d="m123.023438 297.867188c0 28.777343-23.324219 52.101562-52.101563 52.101562-28.773437 0-52.101563-23.324219-52.101563-52.101562 0-28.777344 23.328126-52.101563 52.101563-52.101563 28.777344 0 52.101563 23.324219 52.101563 52.101563zm0 0" fill="#ffaea1"/><path d="m449.761719 297.867188c0 28.777343-23.324219 52.101562-52.101563 52.101562-28.773437 0-52.101562-23.324219-52.101562-52.101562 0-28.777344 23.328125-52.101563 52.101562-52.101563 28.777344 0 52.101563 23.324219 52.101563 52.101563zm0 0" fill="#ffcfc2"/><path d="m234.292969 452.109375c-89.855469 0-163.371094-73.515625-163.371094-163.367187v-84.785157c0-89.851562 73.515625-163.367187 163.371094-163.367187 89.851562 0 163.367187 73.515625 163.367187 163.367187v84.785157c0 89.851562-73.515625 163.367187-163.367187 163.367187zm0 0" fill="#ffe2d9"/><path d="m234.292969 40.589844c-89.855469 0-163.371094 73.515625-163.371094 163.367187v84.785157c0 81.652343 60.722656 149.816406 139.234375 161.578124-39.625-36.472656-53.265625-90.683593-56.460938-137.945312-3.199218-47.324219 13.226563-94.105469 45.632813-128.742188 43.351563-46.332031 60.3125-112.789062 65.722656-140.117187-9.96875-1.921875-20.25-2.925781-30.757812-2.925781zm0 0" fill="#ffcfc2"/><path d="m253.886719 187.019531v54.972657c0 10.109374 8.273437 18.378906 18.382812 18.378906 18.378907 0 18.378907-14.988282 18.378907-14.988282 0-7.335937 6-13.335937 13.335937-13.335937s13.339844 6 13.339844 13.335937v5.214844c0 10.109375 8.269531 18.378906 18.378906 18.378906s18.378906-8.269531 18.378906-18.378906v-63.578125zm0 0" fill="#ff929f"/><path d="m196.597656 190.476562s-8.261718 65.03125-110 87.6875c-9.222656 2.054688-18.4375-3.59375-20.730468-12.757812-4.046876-16.15625-7.234376-41.617188 5.054687-61.253906 0-.195313 125.675781-13.675782 125.675781-13.675782zm0 0" fill="#dd9f80"/><path d="m345.558594 187.292969s.222656 46.21875 25.671875 75.351562c10.09375 11.550781 29.074219 5.617188 30.609375-9.644531 1.761718-17.535156 2.15625-38.625-4.179688-48.847656 0-.195313-52.101562-16.859375-52.101562-16.859375zm0 0" fill="#dd9f80"/><path d="m234.292969 349.835938c-15.519531 0-28.101563-12.582032-28.101563-28.101563v-20.429687c0-4.234376 3.433594-7.667969 7.671875-7.667969h40.859375c4.234375 0 7.667969 3.433593 7.667969 7.667969v20.429687c0 15.519531-12.578125 28.101563-28.097656 28.101563zm0 0" fill="#57565c"/><path d="m170.269531 321.734375c0-13.183594-13.417969-23.867187-29.972656-23.867187s-29.972656 10.683593-29.972656 23.867187 13.417969 23.871094 29.972656 23.871094 29.972656-10.6875 29.972656-23.871094zm0 0" fill="#ffa6bb"/><path d="m358.261719 321.734375c0-13.183594-13.421875-23.867187-29.976563-23.867187-16.550781 0-29.972656 10.683593-29.972656 23.867187s13.421875 23.871094 29.972656 23.871094c16.554688 0 29.976563-10.6875 29.976563-23.871094zm0 0" fill="#ffa6bb"/><path d="m206.414062 36.015625s-166.175781 5.15625-135.492187 168.136719h104.039063zm0 0" fill="#63b4ea"/><path d="m262.144531 36s166.199219 5.171875 135.515625 168.152344h-103.742187zm0 0" fill="#63b4ea"/><path d="m206.777344 35.804688c-33.597656 19.269531-84.96875 65.84375-76.296875 168.347656h207.621093c8.671876-102.503906-42.699218-149.078125-76.296874-168.347656-17.042969-9.773438-37.980469-9.773438-55.027344 0zm0 0" fill="#8ac7f9"/><path d="m161.375 204.152344h145.835938c0-24.703125-32.648438-44.726563-72.917969-44.726563-40.273438 0-72.917969 20.023438-72.917969 44.726563zm0 0" fill="#898890"/><path d="m41.625 504.5h80.421875c15.382813-13.21875 24.894531-33.082031 24.035156-55.148438-1.417969-36.40625-31.425781-65.703124-67.859375-66.300781-38.675781-.632812-70.222656 30.53125-70.222656 69.058594 0 16.792969 6 32.179687 15.96875 44.148437 4.363281 5.234376 10.84375 8.242188 17.65625 8.242188zm0 0" fill="#def4f9"/><path d="m314.949219 308.632812c4.140625 0 7.5-3.359374 7.5-7.5v-12.449218c0-4.144532-3.359375-7.5-7.5-7.5-4.144531 0-7.5 3.355468-7.5 7.5v12.449218c0 4.140626 3.355469 7.5 7.5 7.5zm0 0"/><path d="m153.636719 281.183594c-4.144531 0-7.5 3.355468-7.5 7.5v12.449218c0 4.140626 3.355469 7.5 7.5 7.5 4.140625 0 7.5-3.359374 7.5-7.5v-12.449218c0-4.144532-3.359375-7.5-7.5-7.5zm0 0"/><path d="m254.722656 286.136719h-40.859375c-8.367187 0-15.171875 6.804687-15.171875 15.167969v20.429687c0 19.632813 15.972656 35.601563 35.601563 35.601563 19.628906 0 35.597656-15.96875 35.601562-35.601563v-20.429687c-.003906-8.363282-6.808593-15.167969-15.171875-15.167969zm.167969 35.597656c0 11.359375-9.238281 20.601563-20.597656 20.601563s-20.601563-9.242188-20.601563-20.601563c0 0 .078125-20.601563.171875-20.601563 0 0 41.027344.078126 41.027344.171876zm0 0"/><path d="m431.457031 346.921875c15.574219-10.761719 25.804688-28.734375 25.804688-49.054687 0-14.355469-5.175781-28.226563-14.574219-39.054688-8.46875-9.753906-19.851562-16.46875-32.359375-19.183594.683594-16.484375-.917969-28.585937-4.828125-36.710937 8.703125-49.046875.851562-89.199219-23.382812-119.363281-30.726563-38.246094-79.257813-49.957032-104.078126-53.515626-5.046874-17.257812-22.746093-30.039062-43.746093-30.039062-21.007813 0-38.707031 12.785156-43.753907 30.046875-24.808593 3.554687-73.339843 15.257813-104.074218 53.503906-24.203125 30.125-32.066406 70.21875-23.414063 119.191407-4.652343 8.386718-8.726562 20.691406-8.304687 37.757812-25.398438 7.15625-43.425782 30.621094-43.425782 57.367188 0 20.316406 10.226563 38.285156 25.796876 49.050781-5.34375 13.777343-10.558594 32.722656-13.925782 50.792969-14.632812 14.488281-22.691406 33.796874-22.691406 54.398437 0 17.855469 6.289062 35.234375 17.707031 48.945313 5.792969 6.953124 14.328125 10.941406 23.417969 10.941406h346.226562c32.910157 0 39.160157-30.308594 39.632813-32.609375 20.800781-2.695313 24.785156-30.53125 20.507813-65.066407-3.140626-25.371093-10.4375-51.589843-16.535157-67.398437zm10.804688-49.054687c0 24.59375-21.5 45.644531-45.753907 44.574218 5.71875-17.152344 8.652344-35.210937 8.652344-53.699218v-23.4375c2.078125-3.074219 3.457032-6.648438 4.003906-10.53125 19.171876 5.132812 33.097657 22.855468 33.097657 43.09375zm-138.277344-73.320313c-11.453125 0-20.78125 9.292969-20.835937 20.734375-.125 2.851562-1.71875 7.589844-10.878907 7.589844-6 0-10.882812-4.878906-10.882812-10.878906v-30.339844h79.335937c1.285156 6.886718 3.15625 14.472656 5.859375 22.175781v16.769531c0 6-4.878906 10.878906-10.878906 10.878906s-10.878906-4.878906-10.878906-10.878906v-5.214844c0-11.488281-9.347657-20.835937-20.839844-20.835937zm-230.84375 39.039063c-3.054687-12.195313-6.574219-34.457032 2.167969-51.933594h105.039062c-11.628906 19.699218-37.648437 46.332031-95.382812 59.191406-5.226563 1.160156-10.53125-2.09375-11.824219-7.257812zm97.128906-66.933594c6.292969-16.730469 33.058594-29.730469 64.023438-29.730469 30.960937 0 57.726562 13 64.019531 29.730469zm185.734375 15h36.894532c2.757812 7.957031 3.316406 22.328125 1.480468 40.597656-.410156 4.058594-2.964844 7.222656-6.835937 8.457031-3.941407 1.261719-7.925781.136719-10.664063-3-7.066406-8.089843-16.035156-22.425781-20.875-46.054687zm14.417969-118.703125c20.816406 25.910156 27.851563 60.773437 20.9375 103.703125h-45.21875c4.34375-77.601563-25.597656-123.136719-54.671875-148.773438 23.878906 5.488282 57.011719 17.757813 78.953125 45.070313zm-136.128906-77.949219c10.488281 0 19.738281 4.472656 25.152343 11.246094-15.992187-6.972656-34.316406-6.972656-50.308593 0 5.414062-6.773438 14.667969-11.246094 25.15625-11.246094zm-136.191407 78.019531c21.847657-27.246093 54.964844-39.542969 78.875-45.066406-8.820312 7.78125-16.710937 16.511719-23.585937 26.152344-2.40625 3.371093-1.621094 8.054687 1.75 10.460937 3.375 2.40625 8.054687 1.621094 10.460937-1.75 11.8125-16.5625 26.917969-30.191406 44.90625-40.503906 14.671876-8.414062 32.898438-8.414062 47.566407 0 14.816406 8.496094 35.738281 24.117188 51.28125 50.28125 16.867187 28.394531 24.179687 63.371094 21.769531 104.058594h-17.21875c-5.445312-25.609375-38.453125-44.730469-79.613281-44.730469-41.164063 0-74.171875 19.121094-79.613281 44.730469h-17.21875c-1.960938-33.167969 2.554687-62.667969 13.453124-87.777344 1.648438-3.800781-.097656-8.214844-3.898437-9.863281-3.800781-1.648438-8.214844.09375-9.863281 3.894531-11.742188 27.058594-16.671875 58.566406-14.707032 93.746094h-45.222656c-6.902344-42.890625.109375-77.730469 20.878906-103.632813zm-71.78125 204.847657c0-19.097657 12.265626-35.960938 29.890626-42.121094.597656 3.65625.617187 14.082031 7.210937 21.175781v11.820313c0 18.503906 2.9375 36.554687 8.648437 53.695312-22.328124 1.789062-45.75-19.976562-45.75-44.570312zm51.402344 59.210937c2.898438 6.582031 6.230469 12.996094 9.984375 19.21875-3.070312-.425781-26.351562-3.332031-46.320312 8.039063 2.875-11.882813 6.171875-22.515626 9.144531-30.460938 6.363281 2.324219 16.140625 4.328125 27.191406 3.203125zm-47.988281 134.378906c-9.179687-11.019531-14.234375-24.992187-14.234375-39.347656 0-16.636719 6.53125-32.222656 18.394531-43.894531 11.609375-11.421875 26.675781-17.664063 44.207031-17.664063 48.015626 0 60.488282 50.292969 60.488282 59.09375 0 33.664063-22.128906 47.355469-22.128906 47.355469-2.324219-8-.8125-14.167969 1.183593-22.191406 1.996094-8.007813 4.480469-17.976563 3.382813-31.640625-1.632813-20.324219-13.875-29.425781-23.855469-33.484375-9.292969-3.777344-18.027344-3.773438-20.101563-3.714844-2.078124-.0625-10.8125-.0625-20.105468 3.714844-9.980469 4.058594-22.222656 13.160156-23.855469 33.484375-1.097656 13.664062 1.386719 23.632812 3.378906 31.640625 1.957031 7.855468 3.445313 13.941406 1.324219 21.703125-3.140625-.789063-5.972656-2.527344-8.078125-5.054688zm23.398437 5.542969c1.898438-9.746094-.054687-17.644531-2.089843-25.8125-1.910157-7.667969-3.882813-15.597656-2.980469-26.816406 1.910156-23.800782 24.722656-23.402344 29.378906-23.402344 4.652344 0 26.671875-1.039062 28.632813 23.402344.902343 11.21875-1.074219 19.148437-2.984375 26.816406-2.035156 8.171875-3.984375 16.070312-2.089844 25.8125zm358.34375-16.160156c-3.027343 7.8125-10.828124 16.160156-23.625 16.160156h-248.757812c9.992188-13.75 19.582031-34.699219 13.34375-58.394531 25.027344 13.789062 52.949219 21.003906 81.855469 21.003906 6.078125 0 12.214843-.324219 18.242187-.972656 4.117188-.441407 7.097656-4.140625 6.65625-8.257813-.441406-4.117187-4.128906-7.101562-8.257812-6.65625-5.496094.589844-11.097656.890625-16.644532.890625-32.308593 0-63.28125-9.890625-89.695312-28.605469-7.675781-14.335937-19.765625-25.929687-34.453125-32.972656l.164063-.125c-20.855469-27.351562-31.882813-59.914062-31.882813-94.167968v-3.011719c1.386719.242187 79.296875-7.144531 118.914063-74.078125h49.050781v30.339844c0 14.273437 11.609375 25.882812 25.882812 25.882812 18.984375 0 25.878907-13.449219 25.878907-22.488281 0-3.21875 2.617187-5.839844 5.835937-5.839844 3.222656 0 5.839844 2.621094 5.839844 5.839844v5.214843c0 14.269532 11.609375 25.878907 25.878906 25.878907 10.910156 0 20.261719-6.789063 24.0625-16.363281 1.789063 2.566406 11.039063 19.898437 30.394531 15.421874v13.207032c0 33.699218-10.707031 65.839844-30.960937 92.945312-19.585938 26.210938-47.414063 46.019532-78.355469 55.777344-3.949219 1.246094-6.144531 5.457031-4.894531 9.40625 1.007812 3.203125 5.730469 6.070312 9.40625 4.898438 23.609375-7.523438 45.597656-20.253907 64.007812-37.042969 20.078125 9.976562 38.742188 22.777343 55.523438 38.105469 9.503906 8.675781 9.636719 20.15625 6.589843 28.003906zm16.066407-17.265625c-1.640625-8.152344-5.894531-15.75-12.539063-21.816407-16.5625-15.121093-34.851562-27.933593-54.476562-38.171874 3.769531-4.125 20.363281-22.261719 30.328125-46.515626 10.4375 1.339844 20.835937-.871093 27.203125-3.199218 5.613281 14.96875 12.15625 38.941406 15.046875 62.292968 3.675781 29.699219-.363281 43.839844-5.5625 47.410157zm0 0"/></svg>