<svg height="512pt" viewBox="0 0 512.00001 512" width="512pt" xmlns="http://www.w3.org/2000/svg"><path d="m504.460938 207.910156c0 75.5-56.105469 96.179688-128.238282 175.367188v121.183594h-240.445312v-121.183594c-72.132813-79.1875-128.238282-99.867188-128.238282-175.367188 0-110.683594 111.246094-200.371094 248.460938-200.371094s248.460938 89.6875 248.460938 200.371094zm0 0" fill="#95adc0"/><path d="m95.703125 207.910156c0-98.542968 88.203125-180.378906 204.378906-197.164062-14.316406-2.066406-29.03125-3.207032-44.082031-3.207032-137.214844 0-248.460938 89.6875-248.460938 200.371094 0 75.5 56.105469 96.179688 128.238282 175.367188v121.183594h88.164062v-121.183594c-72.132812-79.1875-128.238281-99.867188-128.238281-175.367188zm0 0" fill="#7b90a0"/><path d="m352.175781 95.703125c44.242188 0 80.148438 35.90625 80.148438 80.148437 0 44.242188-35.90625 80.148438-80.148438 80.148438l-80.144531-80.148438c0-44.242187 35.90625-80.148437 80.144531-80.148437zm0 0" fill="#f2f2f2"/><path d="m256 247.984375 32.058594 64.121094h-64.117188zm0 0" fill="#f2f2f2"/><path d="m239.96875 175.851562-80.148438 80.148438c-44.242187 0-80.148437-35.90625-80.148437-80.148438 0-44.242187 35.90625-80.148437 80.148437-80.148437 44.242188 0 80.148438 35.90625 80.148438 80.148437zm0 0" fill="#f2f2f2"/><path d="m320.59375 384.238281h15.078125v56.101563h-15.078125zm0 0" fill="#fff"/><path d="m224.417969 384.238281h15.078125v56.101563h-15.078125zm0 0" fill="#fff"/><path d="m176.328125 456.371094h15.078125v16.03125h-15.078125zm0 0" fill="#fff"/><path d="m272.503906 456.371094h15.078125v16.03125h-15.078125zm0 0" fill="#fff"/><path d="m207.910156 336.625h96.179688v15.078125h-96.179688zm0 0" fill="#fff"/><g fill="#231f20"><path d="m377.132812 24.671875-6.03125 13.820313c77.609376 33.878906 125.820313 98.796874 125.820313 169.417968 0 50.214844-25.546875 73.75-67.871094 112.742188-17.425781 16.050781-37.179687 34.25-58.402343 57.546875l-1.964844 2.15625v116.566406h-225.367188v-48.566406h-15.078125v63.644531h255.523438v-125.796875c20.042969-21.792969 38.851562-39.121094 55.503906-54.464844 42.226563-38.898437 72.734375-67.003906 72.734375-123.828125 0-76.710937-51.679688-146.921875-134.867188-183.238281zm0 0"/><path d="m128.238281 424.3125h15.078125v-43.957031l-1.964844-2.15625c-21.222656-23.296875-40.976562-41.496094-58.402343-57.546875-42.324219-38.992188-67.871094-62.527344-67.871094-112.742188 0-106.328125 108.078125-192.832031 240.921875-192.832031 33.015625 0 65.003906 5.253906 95.082031 15.617187l4.910157-14.257812c-31.660157-10.90625-65.304688-16.4375-99.992188-16.4375-68.082031 0-132.15625 21.433594-180.417969 60.347656-48.742187 39.304688-75.582031 91.707032-75.582031 147.5625 0 56.824219 30.507812 84.929688 72.734375 123.828125 16.652344 15.34375 35.460937 32.671875 55.503906 54.464844zm0 0"/><path d="m176.328125 384.238281h15.078125v56.101563h-15.078125zm0 0"/><path d="m272.503906 384.238281h15.078125v56.101563h-15.078125zm0 0"/><path d="m224.417969 456.371094h15.078125v16.03125h-15.078125zm0 0"/><path d="m320.59375 456.371094h15.078125v16.03125h-15.078125zm0 0"/><path d="m247.507812 175.851562c0-48.351562-39.335937-87.6875-87.6875-87.6875-48.351562 0-87.6875 39.335938-87.6875 87.6875 0 48.351563 39.335938 87.6875 87.6875 87.6875h3.125l84.5625-84.566406zm-90.746093 72.546876c-38.625-1.609376-69.550781-33.535157-69.550781-72.546876 0-40.039062 32.574218-72.609374 72.609374-72.609374 39.015626 0 70.941407 30.925781 72.546876 69.550781zm0 0"/><path d="m352.175781 263.539062c48.351563 0 87.6875-39.335937 87.6875-87.6875 0-48.351562-39.335937-87.6875-87.6875-87.6875-48.347656 0-87.683593 39.335938-87.683593 87.6875v3.121094l26.25 26.253906 10.660156-10.660156-21.769532-21.773437c1.605469-38.625 33.53125-69.550781 72.542969-69.550781 40.039063 0 72.613281 32.570312 72.613281 72.609374 0 39.011719-30.925781 70.9375-69.550781 72.542969l-37.804687-37.800781-10.660156 10.660156 42.28125 42.285156zm0 0"/><path d="m256 231.125-44.257812 88.515625h88.515624zm0 33.71875 19.859375 39.722656h-39.722656zm0 0"/><path d="m247.984375 48.089844h16.03125v15.078125h-16.03125zm0 0"/></g><path d="m280.042969 48.089844h16.03125v15.078125h-16.03125zm0 0" fill="#fff"/><path d="m215.925781 48.089844h16.03125v15.078125h-16.03125zm0 0" fill="#fff"/></svg>