<svg height="512pt" viewBox="-80 0 512 512.00001" width="512pt" xmlns="http://www.w3.org/2000/svg"><path d="m296.074219 336.148438c0 66.363281-53.859375 120.222656-120.222657 120.222656-66.363281 0-120.222656-53.859375-120.222656-120.222656l48.089844-24.042969 40.074219 24.042969 48.089843-24.042969 40.074219 16.027343 40.074219-16.027343zm0 0" fill="#31e8bb"/><path d="m207.910156 170.960938c77.585938 14.988281 136.253906 83.195312 136.253906 165.1875 0 92.972656-75.339843 168.3125-168.3125 168.3125-92.972656 0-168.3125-75.339844-168.3125-168.3125 0-81.992188 58.671876-150.199219 136.253907-165.1875v-99.300782h64.117187zm88.164063 165.1875-24.042969-24.042969-40.074219 16.027343-40.074219-16.027343-48.089843 24.042969-40.074219-24.042969-48.089844 24.042969c0 66.363281 53.859375 120.222656 120.222656 120.222656 66.363282 0 120.222657-53.859375 120.222657-120.222656zm0 0" fill="#d9eef7"/><path d="m159.824219 31.582031h32.058593v40.074219h-32.058593zm0 0" fill="#d9eef7"/><path d="m159.824219 7.539062h32.058593v24.042969h-32.058593zm0 0" fill="#d9eef7"/><path d="m104.136719 312.355469-.417969-.25-48.089844 24.042969c0 66.363281 53.859375 120.222656 120.222656 120.222656 35.125 0 66.648438-15.183594 88.636719-39.230469-12.6875 4.558594-26.300781 7.171875-40.546875 7.171875-63.574218 0-115.535156-49.460938-119.804687-111.957031zm0 0" fill="#1cb28b"/><path d="m159.824219 7.539062h16.027343v64.117188h-16.027343zm0 0" fill="#aac4da"/><path d="m78.191406 279.882812-13.0625-7.53125c15.226563-26.414062 39.425782-46.558593 68.132813-56.71875l5.03125 14.214844c-25.320313 8.960938-46.667969 26.730469-60.101563 50.035156zm0 0" fill="#fff"/><path d="m111.734375 368.683594h16.027344v15.078125h-16.027344zm0 0" fill="#fff"/><path d="m127.761719 384.714844h16.03125v15.078125h-16.03125zm0 0" fill="#fff"/><path d="m183.867188 360.667969h16.027343v15.078125h-16.027343zm0 0" fill="#fff"/><g fill="#231f20"><path d="m215.449219 164.851562v-37.089843h-15.078125v49.421875l6.109375 1.179687c75.410156 14.570313 130.144531 80.925781 130.144531 157.785157 0 15.640624-2.238281 31.097656-6.652344 45.941406l14.449219 4.296875c4.832031-16.238281 7.28125-33.140625 7.28125-50.238281 0-81.980469-56.929687-153.039063-136.253906-171.296876zm0 0"/><path d="m266.339844 469.070312c-26.71875 18.222657-58.007813 27.851563-90.488282 27.851563-88.648437 0-160.773437-72.121094-160.773437-160.773437 0-36.519532 11.945313-70.933594 34.542969-99.519532l-11.828125-9.351562c-24.722657 31.277344-37.792969 68.921875-37.792969 108.871094 0 96.964843 78.886719 175.851562 175.851562 175.851562 35.523438 0 69.75-10.539062 98.980469-30.472656 28.53125-19.457032 50.546875-46.566406 63.660157-78.386719l-13.9375-5.746094c-11.992188 29.09375-32.121094 53.878907-58.214844 71.675781zm0 0"/><path d="m136.253906 64.121094v100.730468c-31.429687 7.234376-60.152344 22.949219-83.394531 45.683594l10.542969 10.777344c22.625-22.125 50.914062-36.976562 81.820312-42.949219l6.109375-1.179687v-97.988282h49.039063v24.523438h15.078125v-39.597656h-16.027344v-25h16.503906v-15.078125h-16.503906v-24.042969h-47.136719v24.042969h-16.507812v15.078125h16.507812v24.996094h-16.03125zm31.109375 0v-25h16.980469v24.996094h-16.980469zm0-49.042969h16.980469v8.964844h-16.980469zm0 0"/><path d="m175.851562 463.910156c70.449219 0 127.761719-57.3125 127.761719-127.761718v-3.121094l-29.765625-29.769532-41.890625 16.757813-40.417969-16.167969-47.414062 23.707032-40.074219-24.042969-55.960937 27.976562v4.660157c0 70.449218 57.3125 127.761718 127.761718 127.761718zm-72.464843-143.210937 40.074219 24.042969 48.765624-24.382813 39.730469 15.894531 38.257813-15.304687 18.28125 18.28125c-1.640625 60.714843-51.539063 109.601562-112.644532 109.601562-60.589843 0-110.164062-48.0625-112.589843-108.070312zm0 0"/><path d="m159.824219 408.757812h16.027343v15.078126h-16.027343zm0 0"/><path d="m215.925781 400.742188h16.03125v15.078124h-16.03125zm0 0"/><path d="m231.957031 384.714844h16.027344v15.078125h-16.027344zm0 0"/><path d="m247.984375 368.683594h16.03125v15.078125h-16.03125zm0 0"/><path d="m47.613281 288.535156h16.03125v15.078125h-16.03125zm0 0"/></g></svg>