<svg height="512pt" viewBox="-80 0 512 512.00001" width="512pt" xmlns="http://www.w3.org/2000/svg"><path d="m344.164062 175.851562c0 92.957032-75.355468 168.3125-168.3125 168.3125-92.957031 0-168.3125-75.355468-168.3125-168.3125 0-92.957031 75.355469-168.3125 168.3125-168.3125 92.957032 0 168.3125 75.355469 168.3125 168.3125zm0 0" fill="#31e8bb"/><path d="m304.089844 175.851562c0 70.824219-57.414063 128.238282-128.238282 128.238282-70.824218 0-128.238281-57.414063-128.238281-128.238282 0-70.824218 57.414063-128.238281 128.238281-128.238281 70.824219 0 128.238282 57.414063 128.238282 128.238281zm0 0" fill="#835cc5"/><path d="m272.03125 175.851562c0 53.117188-43.0625 96.179688-96.179688 96.179688-53.117187 0-96.179687-43.0625-96.179687-96.179688 0-53.117187 43.0625-96.179687 96.179687-96.179687 53.117188 0 96.179688 43.0625 96.179688 96.179687zm0 0" fill="#d9eef7"/><path d="m191.882812 344.164062v160.296876h-32.058593v-160.296876l.078125-.800781c5.289062.558594 10.578125.800781 15.949218.800781 5.371094 0 10.660157-.242187 15.949219-.800781zm0 0" fill="#d9eef7"/><path d="m231.957031 159.820312c0 19.15625-13.144531 35.667969-32.0625 43.359376v28.777343h-48.089843v-28.777343c-18.914063-7.691407-32.058594-24.203126-32.058594-43.359376 0-26.527343 25.085937-48.089843 56.105468-48.089843 31.015626 0 56.105469 21.5625 56.105469 48.089843zm0 0" fill="#95adc0"/><path d="m151.808594 159.820312c0-21.757812 16.886718-40.152343 40.074218-46.070312-5.082031-1.296875-10.457031-2.015625-16.03125-2.015625-31.019531 0-56.105468 21.558594-56.105468 48.089844 0 19.152343 13.144531 35.664062 32.0625 43.359375v28.773437h32.058594v-28.773437c-18.914063-7.695313-32.058594-24.207032-32.058594-43.363282zm0 0" fill="#788c9b"/><path d="m40.074219 143.792969h15.078125v16.027343h-15.078125zm0 0" fill="#fff"/><g fill="#231f20"><path d="m311.628906 175.851562c0-74.867187-60.910156-135.777343-135.777344-135.777343v15.078125c66.550782 0 120.699219 54.144531 120.699219 120.699218 0 66.554688-54.148437 120.699219-120.699219 120.699219-66.554687 0-120.699218-54.148437-120.699218-120.699219h-15.078125c0 74.867188 60.910156 135.777344 135.777343 135.777344 74.867188 0 135.777344-60.910156 135.777344-135.777344zm0 0"/><path d="m15.078125 175.851562c0-88.652343 72.121094-160.773437 160.773437-160.773437 38.152344 0 75.140626 13.59375 104.144532 38.273437l9.769531-11.480468c-31.726563-27-72.183594-41.871094-113.914063-41.871094-96.964843 0-175.851562 78.886719-175.851562 175.851562 0 54.210938 24.417969 104.5625 66.988281 138.140626l9.335938-11.839844c-38.921875-30.699219-61.246094-76.734375-61.246094-126.300782zm0 0"/><path d="m306.933594 58.613281-11.234375 10.054688c26.390625 29.492187 40.925781 67.554687 40.925781 107.183593 0 40.308594-14.964844 78.855469-42.132812 108.539063-27.011719 29.507813-63.726563 47.785156-103.488282 51.476563-4.816406.507812-9.773437.757812-15.152344.757812-5.378906 0-10.335937-.25-15.253906-.769531-24.128906-2.238281-46.882812-9.707031-67.628906-22.195313l-7.773438 12.917969c20.726563 12.480469 43.292969 20.363281 67.089844 23.5v161.921875h47.136719v-161.921875c40.734375-5.417969 78.226563-24.953125 106.191406-55.507813 29.722657-32.46875 46.089844-74.632812 46.089844-118.71875 0-43.34375-15.898437-84.980468-44.769531-117.238281zm-139.574219 438.308594v-145.425781c2.75.136718 5.566406.207031 8.492187.207031 2.929688 0 5.75-.070313 8.492188-.207031v145.425781zm0 0"/><path d="m207.433594 239.496094v-31.457032c19.636718-9.8125 32.0625-28.269531 32.0625-48.21875 0-30.671874-28.550782-55.628906-63.644532-55.628906s-63.640624 24.957032-63.640624 55.628906c0 19.949219 12.421874 38.40625 32.058593 48.21875v31.457032zm-80.148438-79.675782c0-22.359374 21.785156-40.546874 48.566406-40.546874 26.777344 0 48.566407 18.1875 48.566407 40.546874 0 15.339844-10.742188 29.617188-27.363281 36.378907l-4.695313 1.910156v26.308594h-33.011719v-26.308594l-4.699218-1.910156c-16.621094-6.761719-27.363282-21.039063-27.363282-36.378907zm0 0"/><path d="m151.808594 152.28125h16.027344v15.078125h-16.027344zm0 0"/><path d="m183.867188 152.28125h16.027343v15.078125h-16.027343zm0 0"/><path d="m270.160156 219.070312c6.242188-13.601562 9.40625-28.144531 9.40625-43.21875 0-57.191406-46.527344-103.71875-103.714844-103.71875-57.191406 0-103.71875 46.527344-103.71875 103.71875 0 57.1875 46.527344 103.714844 103.71875 103.714844 33.289063 0 64.785157-16.152344 84.25-43.207031l-12.242187-8.808594c-16.640625 23.128907-43.558594 36.9375-72.007813 36.9375-48.875 0-88.640624-39.761719-88.640624-88.636719 0-48.878906 39.765624-88.640624 88.640624-88.640624s88.640626 39.761718 88.640626 88.640624c0 12.890626-2.703126 25.3125-8.035157 36.929688zm0 0"/><path d="m48.089844 111.734375h15.078125v16.027344h-15.078125zm0 0"/><path d="m144.269531 39.597656h15.078125v16.03125h-15.078125zm0 0"/></g><path d="m120.222656 47.613281h15.078125v16.03125h-15.078125zm0 0" fill="#fff"/></svg>