<svg height="511.99901pt" viewBox="1 1 511.99901 511.99901" width="511.99901pt" xmlns="http://www.w3.org/2000/svg"><path d="m55.628906 256c0 57.386719 24.125 109.160156 62.757813 145.628906l-34.066407 34.0625c-47.285156-45.28125-76.78125-109.082031-76.78125-179.691406zm0 0" fill="#95adc0"/><path d="m393.613281 401.628906 34.066407 34.0625c-44.644532 42.558594-105.078126 68.769532-171.679688 68.769532v-48.089844c53.21875 0 101.707031-20.839844 137.613281-54.742188zm0 0" fill="#95adc0"/><path d="m504.460938 256h-48.089844c0-57.386719-24.125-109.164062-62.757813-145.628906l34.066407-34.066406c47.285156 45.285156 76.78125 109.082031 76.78125 179.695312zm0 0" fill="#95adc0"/><path d="m256 7.539062v48.089844c-53.21875 0-101.707031 20.835938-137.613281 54.742188l-34.066407-34.066406c44.644532-42.558594 105.074219-68.765626 171.679688-68.765626zm0 0" fill="#95adc0"/><path d="m256 456.371094v48.089844c-66.601562 0-127.035156-26.207032-171.679688-68.765626l34.066407-34.066406c35.90625 33.902344 84.394531 54.742188 137.613281 54.742188zm0 0" fill="#f2f2f2"/><path d="m456.371094 256h48.089844c0 70.609375-29.496094 134.410156-76.78125 179.691406l-34.0625-34.0625c38.628906-36.46875 62.753906-88.242187 62.753906-145.628906zm0 0" fill="#f2f2f2"/><path d="m427.679688 76.304688-34.066407 34.066406c-35.90625-33.90625-84.394531-54.742188-137.613281-54.742188v-48.089844c66.605469 0 127.035156 26.207032 171.679688 68.765626zm0 0" fill="#f2f2f2"/><path d="m118.386719 110.371094c-38.632813 36.464844-62.757813 88.242187-62.757813 145.628906h-48.089844c0-70.613281 29.496094-134.410156 76.78125-179.695312zm0 0" fill="#f2f2f2"/><path d="m393.613281 110.371094c38.632813 36.464844 62.757813 88.242187 62.757813 145.628906s-24.125 109.160156-62.757813 145.628906c-35.90625 33.902344-84.394531 54.742188-137.613281 54.742188s-101.710938-20.839844-137.617188-54.742188c-38.628906-36.46875-62.753906-88.242187-62.753906-145.628906s24.125-109.164062 62.753906-145.628906c35.90625-33.90625 84.398438-54.742188 137.617188-54.742188s101.707031 20.835938 137.613281 54.742188zm0 0" fill="#31e8bb"/><path d="m151.808594 256c0-57.386719 24.121094-109.164062 62.753906-145.632812 24.730469-23.347657 55.425781-40.496094 89.527344-48.910157-15.414063-3.804687-31.523438-5.828125-48.089844-5.828125-53.21875 0-101.710938 20.835938-137.617188 54.738282-38.628906 36.46875-62.753906 88.246093-62.753906 145.632812s24.125 109.160156 62.753906 145.628906c35.90625 33.902344 84.398438 54.742188 137.617188 54.742188 16.566406 0 32.675781-2.023438 48.089844-5.828125-34.101563-8.417969-64.796875-25.566407-89.527344-48.914063-38.632812-36.46875-62.753906-88.242187-62.753906-145.628906zm0 0" fill="#1cb28b"/><path d="m143.792969 320.117188h224.414062c0 31.019531-50.25 64.121093-112.207031 64.121093-61.953125 0-112.207031-33.101562-112.207031-64.121093zm0 0" fill="#f2f2f2"/><path d="m311.945312 207.910156 80.148438-48.089844c0 72.132813-24.046875 80.148438-24.046875 80.148438zm0 0" fill="#f2f2f2"/><path d="m256 191.882812 32.058594 64.117188h-64.117188zm0 0" fill="#f2f2f2"/><path d="m199.894531 207.910156-56.101562 32.058594s-24.042969-8.011719-24.042969-80.148438zm0 0" fill="#f2f2f2"/><path d="m207.910156 280.519531h96.179688v15.078125h-96.179688zm0 0" fill="#fff"/><path d="m280.042969 112.207031h16.03125v15.078125h-16.03125zm0 0" fill="#fff"/><path d="m215.925781 112.207031h16.03125v15.078125h-16.03125zm0 0" fill="#fff"/><g fill="#231f20"><path d="m487.222656 366.007812c16.441406-34.496093 24.777344-71.511718 24.777344-110.007812 0-68.378906-26.628906-132.667969-74.980469-181.019531-48.351562-48.351563-112.640625-74.980469-181.019531-74.980469-31.21875 0-61.71875 5.558594-90.65625 16.515625l5.339844 14.101563c24.890625-9.425782 51.023437-14.589844 77.777344-15.410157v33.035157c-49.628907 1.777343-94.875 21.027343-129.765626 51.777343l-23.46875-23.46875c17.089844-15.320312 36.34375-28.199219 57.257813-38.164062l-6.484375-13.613281c-43.054688 20.519531-79.488281 52.601562-105.371094 92.78125-26.578125 41.265624-40.628906 89.140624-40.628906 138.445312 0 68.378906 26.628906 132.667969 74.980469 181.019531 48.351562 48.351563 112.640625 74.980469 181.019531 74.980469 44.898438 0 89.070312-11.792969 127.742188-34.101562 37.511718-21.640626 69.171874-52.679688 91.5625-89.765626l-12.90625-7.792968c-9.796876 16.230468-21.503907 31.207031-34.75 44.660156l-23.394532-23.394531c35.230469-35.863281 57.582032-84.402344 59.507813-138.066407h33.039062c-1.015625 33.527344-8.796875 65.785157-23.1875 95.980469zm-82.96875-255.613281 23.410156-23.414062c42.902344 43.558593 67.269532 100.574219 69.128907 161.480469h-33.03125c-1.925781-53.664063-24.277344-102.203126-59.507813-138.066407zm-10.949218-10.375c-34.890626-30.75-80.136719-50-129.765626-51.777343v-33.035157c57.125 1.746094 110.835938 23.285157 153.222657 61.355469zm-340 25.699219c9.035156-14.023438 19.433593-26.996094 31.011718-38.757812l23.429688 23.433593c-35.230469 35.863281-57.582032 84.402344-59.503906 138.066407h-33.039063c1.351563-43.734376 14.449219-86.019532 38.101563-122.742188zm195.15625 371.074219c-57.125-1.746094-110.835938-23.285157-153.222657-61.355469l23.457031-23.457031c34.894532 30.75 80.136719 50 129.765626 51.777343zm-164.125-71.777344c-42.902344-43.554687-67.269532-100.574219-69.128907-161.476563h33.035157c1.921874 53.664063 24.273437 102.203126 59.503906 138.066407zm291.871093 39.824219c-34.214843 19.738281-73.015625 30.722656-112.667969 31.960937v-33.042969c49.628907-1.777343 94.875-21.027343 129.765626-51.777343l23.433593 23.433593c-12.4375 11.152344-26.007812 21.046876-40.53125 29.425782zm-120.207031-16.007813c-106.328125 0-192.832031-86.503906-192.832031-192.832031s86.503906-192.832031 192.832031-192.832031 192.832031 86.503906 192.832031 192.832031-86.503906 192.832031-192.832031 192.832031zm0 0"/><path d="m141.410156 247.121094 3.195313 1.066406 70.210937-40.117188-102.605468-61.566406v13.316406c0 31.191407 4.351562 54.992188 12.941406 70.734376 7.070312 12.96875 14.78125 16.074218 16.257812 16.566406zm43.566406-39.367188-40.863281 23.351563c-4.671875-4.433594-14.640625-18.402344-16.519531-57.785157zm0 0"/><path d="m367.234375 248.1875 3.199219-1.066406c1.472656-.492188 9.183594-3.597656 16.253906-16.566406 8.589844-15.742188 12.945312-39.542969 12.945312-70.734376v-13.316406l-102.605468 61.566406zm.492187-17.082031-40.863281-23.351563 57.382813-34.433594c-1.878906 39.382813-11.847656 53.351563-16.519532 57.785157zm0 0"/><path d="m272.03125 327.65625h40.546875v16.507812h15.078125v-16.507812h31.742188c-3.371094 10.253906-13.289063 20.921875-27.933594 29.683594-20.554688 12.304687-48.0625 19.359375-75.464844 19.359375s-54.90625-7.054688-75.464844-19.359375c-14.644531-8.761719-24.5625-19.429688-27.929687-29.683594h31.738281v16.507812h15.078125v-16.507812h48.5625v-15.078125h-111.730469v7.539063c0 17.984374 13.316406 36.265624 36.539063 50.160156 23.164062 13.863281 52.714843 21.5 83.207031 21.5s60.042969-7.636719 83.207031-21.5c23.222657-13.894532 36.539063-32.175782 36.539063-50.160156v-7.539063h-103.714844zm0 0"/><path d="m211.742188 263.539062h88.515624l-44.257812-88.515624zm24.398437-15.078124 19.859375-39.722657 19.863281 39.722657zm0 0"/><path d="m247.984375 112.207031h16.03125v15.078125h-16.03125zm0 0"/><path d="m376.222656 280.519531h16.027344v15.078125h-16.027344zm0 0"/><path d="m392.253906 264.492188h16.027344v15.074218h-16.027344zm0 0"/><path d="m127.761719 280.519531h16.03125v15.078125h-16.03125zm0 0"/><path d="m111.734375 264.492188h16.027344v15.074218h-16.027344zm0 0"/></g></svg>