<svg height="512pt" viewBox="-40 0 512 512.00001" width="512pt" xmlns="http://www.w3.org/2000/svg"><path d="m7.539062 7.539062h32.058594v496.921876h-32.058594zm0 0" fill="#95adc0"/><path d="m304.089844 408.28125h80.148437v56.105469h-80.148437zm0 0" fill="#f2f2f2"/><path d="m39.597656 504.460938v-496.921876h48.089844v200.371094l48.089844-48.089844 48.089844 48.089844v-56.101562h48.089843v200.371094h48.089844v-200.371094h88.164063v-48.089844h-88.164063v-56.105469h-48.089844v56.105469h-48.089843v-96.179688h224.417968l16.027344 16.03125v464.859376l-16.027344 16.03125zm344.640625-40.074219v-56.105469h-80.148437v56.105469zm0 0" fill="#835cc5"/><path d="m368.207031 103.71875v48.089844h-88.164062v200.367187h-48.085938v-200.367187h-48.089843v-48.089844h48.089843v-56.105469h48.085938v56.105469zm0 0" fill="#d9eef7"/><path d="m87.6875 7.539062h96.179688v200.371094l-48.089844-48.089844-48.089844 48.089844zm0 0" fill="#fd6149"/><path d="m87.6875 7.539062v200.371094l48.089844-48.089844v-152.28125zm0 0" fill="#df412d"/><path d="m39.597656 7.539062h48.089844v496.921876h-48.089844zm0 0" fill="#8327c5"/><path d="m128.238281 55.628906h15.078125v16.027344h-15.078125zm0 0" fill="#fff"/><path d="m399.792969 87.6875h-15.078125v-40.550781h-32.535156v-15.078125h47.613281zm0 0" fill="#fff"/><path d="m63.644531 464.859375h16.027344v15.078125h-16.027344zm0 0" fill="#fff"/><path d="m63.644531 432.800781h16.027344v15.078125h-16.027344zm0 0" fill="#fff"/><g fill="#231f20"><path d="m411.40625 0h-115.332031v15.078125h109.085937l11.613282 11.613281v458.617188l-11.613282 11.613281h-358.023437v-481.84375h33.011719v211.03125l55.628906-55.625 55.628906 55.628906v-66.765625h33.011719v200.371094h63.167969v-103.71875h-15.078126v88.640625h-33.011718v-200.375h-48.089844v-33.007813h48.089844v-56.105468h33.011718v56.105468h88.164063v33.007813h-88.164063v87.6875h15.078126v-72.609375h88.164062v-63.164062h-88.164062v-56.105469h-63.167969v56.105469h-33.011719v-81.101563h80.625v-15.078125h-272.03125v280.042969h15.078125v-264.964844h16.980469v481.84375h-16.980469v-192.832031h-15.078125v207.910156h411.402344l20.449218-20.445312v-471.109376zm-235.078125 189.710938-33.011719-33.011719v-69.011719h-15.078125v69.011719l-33.011719 33.011719v-174.632813h81.101563zm0 0"/><path d="m128.238281 31.582031h15.078125v16.03125h-15.078125zm0 0"/><path d="m95.703125 464.859375h16.027344v15.078125h-16.027344zm0 0"/><path d="m296.550781 471.925781h95.226563v-71.183593h-95.226563zm15.078125-56.105469h65.070313v41.027344h-65.070313zm0 0"/><path d="m143.792969 448.832031h128.238281v15.078125h-128.238281zm0 0"/></g><path d="m183.867188 416.773438h88.164062v15.078124h-88.164062zm0 0" fill="#fff"/></svg>