<svg height="512pt" viewBox="0 -44 512.00001 512" width="512pt" xmlns="http://www.w3.org/2000/svg"><path d="m39.597656 112.207031h432.804688v272.507813h-432.804688zm0 0" fill="#fd6149"/><path d="m472.402344 112.207031h-432.804688v272.507813h432.804688zm0-32.058593h32.058594v336.625h-496.921876v-336.625zm0 0" fill="#d9eef7"/><path d="m39.597656 32.058594h432.804688v48.089844h-432.804688zm0 0" fill="#31e8bb"/><path d="m39.597656 112.207031h64.121094v272.507813h-64.121094zm0 0" fill="#df412d"/><path d="m39.597656 32.058594h88.164063v48.089844h-88.164063zm0 0" fill="#1cb28b"/><path d="m183.867188 232.433594c8.816406 0 16.027343 7.210937 16.027343 16.027344 0 8.816406-7.210937 16.03125-16.027343 16.03125-8.816407 0-16.03125-7.214844-16.03125-16.03125 0-8.816407 7.214843-16.027344 16.03125-16.027344zm0 0" fill="#aac4da"/><path d="m135.777344 232.433594c8.816406 0 16.03125 7.210937 16.03125 16.027344 0 8.816406-7.214844 16.03125-16.03125 16.03125s-16.03125-7.214844-16.03125-16.03125c0-8.816407 7.214844-16.027344 16.03125-16.027344zm0 0" fill="#aac4da"/><path d="m151.808594 248.460938c0-8.816407-7.214844-16.03125-16.03125-16.03125s-16.03125 7.214843-16.03125 16.03125c0 8.816406 7.214844 16.03125 16.03125 16.03125s16.03125-7.214844 16.03125-16.03125zm16.027344 0c0 8.816406 7.214843 16.03125 16.03125 16.03125 8.816406 0 16.027343-7.214844 16.027343-16.03125 0-8.816407-7.210937-16.03125-16.027343-16.03125-8.816407.003906-16.03125 7.214843-16.03125 16.03125zm64.121093 0c0 28.292968-16.351562 52.738281-40.074219 64.519531v39.671875h-64.121093v-39.671875c-23.722657-11.78125-40.074219-36.226563-40.074219-64.519531 0-39.832032 32.300781-72.132813 72.136719-72.132813 39.832031 0 72.132812 32.296875 72.132812 72.132813zm0 0" fill="#d9eef7"/><path d="m343.6875 176.804688h-79.195312v31.582031h15.078124v-16.503907h49.039063v45.441407l-11.613281 11.613281h-36.953125v15.078125h36.953125l11.613281 11.613281v45.441406h-49.039063v-16.503906h-15.078124v31.582032h79.195312v-66.765626l-12.90625-12.90625 12.90625-12.90625zm0 0" fill="#fff"/><path d="m407.804688 336.625h-15.078126v-144.742188h-24.519531v-15.078124h39.597657zm0 0" fill="#fff"/><path d="m63.644531 345.113281h16.027344v15.078125h-16.027344zm0 0" fill="#fff"/><path d="m432.328125 313.054688h16.027344v15.078124h-16.027344zm0 0" fill="#fff"/><g fill="#231f20"><path d="m479.941406 72.609375v-48.089844h-56.105468v-24.519531h-15.078126v24.519531h-65.070312v-24.519531h-15.078125v24.519531h-65.070313v-24.519531h-15.078124v24.519531h-65.070313v-24.519531h-15.078125v24.519531h-65.070312v-24.519531h-15.078126v24.519531h-56.105468v48.089844h-32.058594v79.671875h15.078125v-64.59375h345.113281v-15.078125h-313.054687v-33.011719h41.027343v16.507813h15.078126v-16.507813h65.070312v16.507813h15.078125v-16.507813h65.070313v16.507813h15.078124v-16.507813h65.070313v16.507813h15.078125v-16.507813h65.070312v16.507813h15.078126v-16.507813h41.027343v33.011719h-80.625v15.078125h112.683594v321.546875h-481.84375v-232.90625h-15.078125v247.984375h512v-351.703125zm0 0"/><path d="m368.207031 392.253906h111.734375v-287.585937h-447.882812v287.585937h312.105468v-15.078125h-297.027343v-257.429687h417.726562v257.429687h-96.65625zm0 0"/><path d="m199.421875 360.191406v-42.667968c24.835937-14.207032 40.074219-40.253907 40.074219-69.0625 0-43.933594-35.742188-79.671876-79.675782-79.671876-43.929687 0-79.671874 35.738282-79.671874 79.671876 0 28.808593 15.234374 54.855468 40.074218 69.0625v42.667968zm-104.195313-111.730468c0-35.617188 28.976563-64.59375 64.59375-64.59375 35.617188 0 64.597657 28.976562 64.597657 64.59375 0 24.632812-13.757813 46.777343-35.894531 57.796874l-4.179688 2.082032v36.773437h-16.984375v-24.519531h-15.078125v24.519531h-16.980469v-36.773437l-4.179687-2.082032c-22.140625-11.019531-35.894532-33.164062-35.894532-57.796874zm0 0"/><path d="m159.347656 248.460938c0-12.996094-10.574218-23.570313-23.570312-23.570313s-23.570313 10.574219-23.570313 23.570313c0 12.996093 10.574219 23.570312 23.570313 23.570312s23.570312-10.574219 23.570312-23.570312zm-32.0625 0c0-4.683594 3.808594-8.492188 8.492188-8.492188s8.492187 3.808594 8.492187 8.492188c0 4.683593-3.808593 8.492187-8.492187 8.492187s-8.492188-3.808594-8.492188-8.492187zm0 0"/><path d="m183.867188 272.03125c12.996093 0 23.566406-10.574219 23.566406-23.570312 0-12.996094-10.570313-23.570313-23.566406-23.570313-12.996094 0-23.570313 10.574219-23.570313 23.570313 0 12.996093 10.574219 23.570312 23.570313 23.570312zm0-32.0625c4.679687 0 8.492187 3.808594 8.492187 8.492188 0 4.683593-3.8125 8.492187-8.492187 8.492187-4.683594 0-8.492188-3.8125-8.492188-8.492187 0-4.679688 3.808594-8.492188 8.492188-8.492188zm0 0"/><path d="m151.808594 280.996094h16.027344v15.078125h-16.027344zm0 0"/><path d="m63.644531 136.730469h16.027344v15.078125h-16.027344zm0 0"/><path d="m432.328125 345.113281h16.027344v15.078125h-16.027344zm0 0"/><path d="m432.328125 280.996094h16.027344v15.078125h-16.027344zm0 0"/><path d="m400.265625 136.730469h16.03125v15.078125h-16.03125zm0 0"/><path d="m368.207031 136.730469h16.03125v15.078125h-16.03125zm0 0"/><path d="m432.328125 136.730469h16.027344v15.078125h-16.027344zm0 0"/></g><path d="m95.703125 136.730469h256.472656v15.078125h-256.472656zm0 0" fill="#fff"/></svg>