<svg height="512pt" viewBox="-7 0 512 512.00001" width="512pt" xmlns="http://www.w3.org/2000/svg"><path d="m472.222656 368.449219 17.550782 39.832031-88.160157 96.179688h-304.566406l-88.164063-96.179688 17.554688-39.832031 110.683594 15.789062 112.128906-16.03125 112.289062 16.03125zm0 0" fill="#ffe451"/><path d="m401.613281 207.910156 35.585938 80.871094-91.691407 15.308594-96.257812-16.03125-96.097656 16.03125-91.691406-15.308594 35.585937-80.871094 76.140625 16.03125 76.0625-16.03125 76.21875 16.03125zm0 0" fill="#ffe451"/><path d="m331.964844 49.617188 34.703125 78.945312-57.226563 15.230469-60.113281-16.03125-60.109375 16.03125-57.226562-15.230469 34.703124-78.945312 38.472657 14.027343 44.082031-16.03125 44.160156 16.03125zm0 0" fill="#ffe451"/><path d="m437.199219 288.78125 35.023437 79.667969-110.683594 15.789062-112.289062-16.03125-112.128906 16.03125-110.683594-15.789062 35.023438-79.667969 91.691406 15.308594 96.097656-16.03125 96.257812 16.03125zm0 0" fill="#835cc5"/><path d="m189.21875 143.792969 60.109375-16.03125 60.113281 16.03125 57.226563-15.230469 34.945312 79.347656-76.144531 16.03125-76.21875-16.03125-76.0625 16.03125-76.140625-16.03125 34.945313-79.347656zm0 0" fill="#835cc5"/><path d="m313.449219 7.539062 18.515625 42.078126-38.554688 14.027343-44.160156-16.03125-44.082031 16.03125-38.472657-14.027343 18.515626-42.078126zm0 0" fill="#835cc5"/><path d="m101.84375 379.207031-75.40625-10.757812-17.554688 39.832031 88.164063 96.179688h80.148437l-88.164062-96.179688zm0 0" fill="#fbb03b"/><path d="m141.609375 288.78125 28.789063-65.425781-73.351563-15.445313-35.585937 80.871094 74.667968 12.464844zm0 0" fill="#fbb03b"/><path d="m207.589844 138.890625 4.550781-10.328125 34.703125-78.945312.59375-1.34375-42.269531 15.371093-38.472657-14.027343-34.703124 78.945312 57.226562 15.230469zm0 0" fill="#fbb03b"/><path d="m106.585938 368.449219 29.542968-67.203125-74.667968-12.464844-35.023438 79.667969 75.40625 10.757812zm0 0" fill="#8327c5"/><path d="m177.195312 207.910156 30.394532-69.019531-18.371094 4.902344-57.226562-15.230469-34.945313 79.347656 73.351563 15.445313zm0 0" fill="#8327c5"/><path d="m247.4375 48.273438 17.921875-40.734376h-80.148437l-18.515626 42.078126 38.472657 14.027343zm0 0" fill="#8327c5"/><path d="m105.0625 456.847656h208.386719v15.078125h-208.386719zm0 0" fill="#fff"/><path d="m361.539062 456.847656h16.027344v15.078125h-16.027344zm0 0" fill="#fff"/><path d="m113.078125 248.460938h16.027344v15.078124h-16.027344zm0 0" fill="#fff"/><path d="m129.105469 264.492188h16.03125v15.074218h-16.03125zm0 0" fill="#fff"/><path d="m273.375 88.164062h16.027344v15.078126h-16.027344zm0 0" fill="#fff"/><path d="m241.316406 320.59375h16.027344v15.078125h-16.027344zm0 0" fill="#fff"/><g fill="#231f20"><path d="m318.367188 0h-69.039063v15.078125h59.199219l13.296875 30.210937-28.414063 10.332032-44.164062-16.027344-44.074219 16.027344-28.335937-10.332032 13.292968-30.210937h27.140625v-15.078125h-36.976562l-100.726563 228.917969 13.800782 6.074219 8.121093-18.441407 71.699219 15.09375 76.0625-16.027343 76.21875 16.027343 71.707031-15.09375 29.214844 66.390625-80.886719 13.503906-96.257812-16.03125-96.09375 16.03125-80.886719-13.503906 10.519531-23.90625-13.800781-6.074218-14.425781 32.785156-35.019532 79.660156-19.539062 44.339844 93.730469 102.253906h171.628906v-15.078125h-164.996094l-82.597656-90.105469 13.273437-30.117187 106.082032 15.152343 112.128906-16.027343 112.289062 16.027343 106.089844-15.132812 13.261719 30.097656-82.59375 90.105469h-108.894531v15.078125h115.523437l93.734375-102.253906zm-147.617188 59.128906 34.414062 12.539063 44.085938-16.035157 44.164062 16.03125 34.488282-12.546874 28.320312 64.425781-46.78125 12.445312-60.113281-16.027343-60.113281 16.027343-46.78125-12.445312zm154.71875 157.109375-76.222656-16.03125-76.058594 16.03125-65.492188-13.789062 28.605469-64.964844 52.921875 14.109375 60.105469-16.027344 60.113281 16.027344 52.929688-14.082031 28.597656 64.9375zm36.070312 160.382813-112.289062-16.027344-112.128906 16.027344-99.785156-14.234375 28.65625-65.183594 87.15625 14.527344 96.101562-16.03125 96.257812 16.03125 87.148438-14.550781 28.664062 65.207031zm0 0"/><path d="m329.476562 456.847656h16.03125v15.078125h-16.03125zm0 0"/><path d="m401.609375 320.59375h16.03125v15.078125h-16.03125zm0 0"/><path d="m385.582031 336.625h16.03125v15.078125h-16.03125zm0 0"/><path d="m377.566406 248.460938h16.03125v15.078124h-16.03125zm0 0"/><path d="m217.269531 152.28125h16.03125v15.078125h-16.03125zm0 0"/><path d="m233.300781 168.3125h16.027344v15.078125h-16.027344zm0 0"/><path d="m305.433594 88.164062h16.03125v15.078126h-16.03125zm0 0"/><path d="m201.242188 328.609375h16.027343v15.078125h-16.027343zm0 0"/></g></svg>