<svg height="512pt" viewBox="-89 0 512 512" width="512pt" xmlns="http://www.w3.org/2000/svg"><path d="m257.695312 414.015625h-180.71875v-246.433594h-32.859374v-49.289062h246.4375v49.289062h-32.859376zm0 0" fill="#31e8bb"/><path d="m167.335938 93.648438c-18.152344 0-32.855469-14.703126-32.855469-32.855469 0-7.886719 2.875-15.035157 7.554687-20.703125l25.300782-28.585938 25.300781 28.585938c4.683593 5.667968 7.558593 12.816406 7.558593 20.703125 0 18.152343-14.703124 32.855469-32.859374 32.855469zm0 0" fill="#fd6149"/><path d="m134.480469 479.730469h65.714843v24.644531h-65.714843zm0 0" fill="#95adc0"/><path d="m200.195312 479.730469h-82.144531l-16.429687-24.640625h-73.929688l-16.429687-41.074219h312.152343l-16.429687 41.074219h-73.929687l-16.429688 24.640625zm0 0" fill="#d9eef7"/><path d="m44.117188 118.292969h123.21875v49.289062h-123.21875zm0 0" fill="#1cb28b"/><path d="m76.976562 167.582031h57.503907v246.433594h-57.503907zm0 0" fill="#1cb28b"/><path d="m101.621094 455.089844 16.429687 24.640625h65.714844l-16.429687-24.640625zm0 0" fill="#aac4da"/><path d="m11.261719 414.015625 16.429687 41.074219h65.714844l-16.429688-41.074219zm0 0" fill="#aac4da"/><path d="m175.550781 159.957031h16.429688v15.246094h-16.429688zm0 0" fill="#fff"/><path d="m117.460938 323.65625h-15.25v-130.84375h40.484374v15.25h-25.234374zm0 0" fill="#fff"/><path d="m217.214844 372.941406h15.25v16.429688h-15.25zm0 0" fill="#fff"/><g fill="#231f20"><path d="m282.929688 159.957031h-32.855469v81.554688h15.246093v-66.308594h32.859376v-64.535156h-123.21875v-10.121094c18.691406-3.578125 32.859374-20.039063 32.859374-39.753906 0-9.351563-3.21875-18.191407-9.304687-25.558594l-31.179687-35.234375-31.007813 35.039062-.167969.195313c-6.089844 7.367187-9.304687 16.207031-9.304687 25.558594 0 19.714843 14.167969 36.171875 32.855469 39.75v10.125h-41.660157v15.25h164.878907zm-140.828126-99.164062c0-5.726563 1.984376-11.171875 5.734376-15.753907l19.5-22.03125 19.5 22.03125c3.75 4.582032 5.734374 10.027344 5.734374 15.753907 0 12.054687-8.5 22.15625-19.824218 24.640625h-10.820313c-11.320312-2.484375-19.824219-12.585938-19.824219-24.640625zm0 0"/><path d="m265.320312 406.390625v-140.238281h-15.246093v140.238281h-165.472657v-231.1875h74.523438v-15.246094h-107.382812v-34.039062h41.664062v-15.25h-56.910156v64.535156h32.855468v231.1875h-69.351562l22.527344 56.320313h29.808594v-15.246094h-19.484376l-10.328124-25.824219h289.628906l-10.328125 25.824219h-72.851563l-16.429687 24.640625h-90.410157l-6.265624-9.394531h84.328124v-15.246094h-123.21875v15.246094h20.566407l16.425781 24.644531h12.886719v24.644531h80.964843v-24.644531h12.882813l16.429687-24.644531h75.015626l22.523437-56.320313zm-72.75 90.359375h-50.46875v-9.394531h50.46875zm0 0"/><path d="m208.410156 159.957031h16.429688v15.246094h-16.429688zm0 0"/><path d="m102.210938 340.085938h15.25v16.429687h-15.25zm0 0"/><path d="m217.214844 340.085938h15.25v16.429687h-15.25zm0 0"/><path d="m184.355469 372.941406h15.25v16.429688h-15.25zm0 0"/></g></svg>