<svg height="512.00001pt" viewBox="0 0 512.00001 512.00001" width="512.00001pt" xmlns="http://www.w3.org/2000/svg"><path d="m320.117188 103.71875h-40.074219v8.015625h-48.085938v8.011719h-56.105469v8.015625h-96.179687v-104.191407l16.03125-16.03125h320.59375l16.03125 16.03125v104.191407h-112.210937zm0 0" fill="#95adc0"/><path d="m504.460938 135.777344v96.179687h-32.058594v-24.046875h-40.074219v-48.089844h40.074219v-24.042968zm0 0" fill="#95adc0"/><path d="m39.597656 207.910156v24.046875h-32.058594v-96.179687h32.058594v24.042968h40.074219v48.089844zm0 0" fill="#95adc0"/><path d="m432.328125 207.910156v248.460938l-48.089844 48.089844h-256.476562l-48.089844-48.089844v-328.609375h96.179687v-8.015625h56.105469v-8.011719h48.085938v-8.015625h40.074219v24.042969h112.210937zm0 0" fill="#31e8bb"/><path d="m151.808594 207.910156v-80.148437h-72.136719v328.609375l48.089844 48.089844h72.132812l-48.085937-48.089844zm0 0" fill="#1cb28b"/><path d="m167.835938 7.539062h-72.132813l-16.03125 16.03125v104.191407h72.136719v-104.191407zm0 0" fill="#8095a6"/><path d="m376.222656 207.910156v40.074219s0 24.046875-24.042968 24.046875h-24.046876l-48.089843-48.089844 16.03125-16.03125zm0 0" fill="#ffe451"/><path d="m231.957031 223.941406-48.089843 48.089844h-24.046876c-24.042968 0-24.042968-24.046875-24.042968-24.046875v-40.074219h80.148437zm0 0" fill="#ffe451"/><path d="m119.273438 87.6875h-15.078126v-43.199219l12.429688-12.429687h27.167969v15.078125h-20.921875l-3.597656 3.597656zm0 0" fill="#fff"/><path d="m392.253906 56.105469h16.027344v15.078125h-16.027344zm0 0" fill="#fff"/><path d="m103.71875 376.699219h16.027344v15.078125h-16.027344zm0 0" fill="#fff"/><g fill="#231f20"><path d="m424.789062 453.25-43.671874 43.671875h-250.234376l-43.671874-43.671875v-52.984375h-15.078126v59.230469l52.507813 52.503906h262.71875l52.507813-52.503906v-147.390625h-15.078126zm0 0"/><path d="m464.863281 128.238281v24.042969h-24.996093v-131.835938l-20.449219-20.445312h-163.417969v15.078125h157.175781l11.613281 11.613281v93.53125h-97.132812v-40.546875h-15.078125v16.503907h-24.996094v-16.503907h-15.078125v24.519531h-33.007812v-32.535156h-15.078125v40.550782h-41.027344v-40.550782h-15.078125v48.5625h-81.101562v-93.53125l11.613281-11.613281h133.132812v-15.078125h-139.375l-20.449219 20.445312v131.839844h-24.996093v-24.046875h-47.136719v111.257813h47.136719v-24.046875h24.996093v160.773437h15.078126v-240.921875h96.179687v-8.015625h56.105469v-8.011718h48.085937v-8.015626h24.996094v24.042969h112.210937v152.757813h15.078126v-72.609375h24.996093v24.046875h47.136719v-111.257813zm-432.804687 72.132813v24.046875h-16.980469v-81.101563h16.980469v40.550782h15.078125v-16.507813h24.996093v33.011719zm464.863281 24.046875h-16.980469v-24.046875h-40.074218v-33.011719h24.996093v16.507813h15.078125v-40.550782h16.980469zm0 0"/><path d="m159.820312 32.058594h16.03125v15.078125h-16.03125zm0 0"/><path d="m392.253906 88.164062h16.027344v15.078126h-16.027344zm0 0"/><path d="m392.253906 24.042969h16.027344v15.078125h-16.027344zm0 0"/><path d="m327.65625 456.371094v-16.503906h24.523438v-15.078126h-24.523438v-16.507812h-15.078125v16.507812h-16.980469v-16.507812h-15.078125v16.507812h-16.980469v-16.507812h-15.078124v16.507812h-16.980469v-16.507812h-15.078125v16.507812h-16.980469v-16.507812h-15.078125v16.507812h-24.523438v15.078126h24.523438v16.503906h15.078125v-16.503906h16.980469v16.503906h15.078125v-16.503906h16.980469v16.503906h15.078124v-16.503906h16.980469v16.503906h15.078125v-16.503906h16.980469v16.503906zm0 0"/><path d="m383.761719 247.984375v-32.535156h16.507812v-15.078125h-107.316406l-16.03125 16.03125h-41.84375l-16.027344-16.03125h-107.316406v15.078125h16.503906v32.535156c0 12.695313 8.410157 31.582031 31.585938 31.582031h27.164062l48.089844-48.085937h41.84375l48.089844 48.085937h27.164062c23.175781.003906 31.585938-18.886718 31.585938-31.582031zm-203.019531 16.507813h-20.917969c-15.480469 0-16.46875-13.792969-16.507813-16.507813v-32.535156h69.488282l8.488281 8.492187zm109.964843-40.550782 8.488281-8.492187h69.488282v32.535156c0 1.691406-.464844 16.507813-16.507813 16.507813h-20.917969zm0 0"/><path d="m240.445312 264.015625v71.65625h39.597657v-15.078125h-24.519531v-56.578125zm0 0"/><path d="m103.71875 408.757812h16.027344v15.078126h-16.027344zm0 0"/><path d="m103.71875 344.640625h16.027344v15.074219h-16.027344zm0 0"/></g><path d="m368.207031 320.59375h16.03125v15.078125h-16.03125zm0 0" fill="#fff"/><path d="m352.179688 336.625h16.027343v15.078125h-16.027343zm0 0" fill="#fff"/><path d="m336.148438 352.652344h16.027343v15.078125h-16.027343zm0 0" fill="#fff"/></svg>