<svg height="512pt" viewBox="0 -25 512.001 512" width="512pt" xmlns="http://www.w3.org/2000/svg"><path d="m239.4375 7.546875h33.125v99.382813h-33.125zm0 0" fill="#31e8bb"/><path d="m504.453125 131.773438v298.144531c0 13.746093-11.097656 24.84375-24.84375 24.84375h-115.945313c-13.75 0-24.847656-11.097657-24.847656-24.84375 0 13.746093-11.097656 24.84375-24.84375 24.84375h-115.945312c-13.746094 0-24.84375-11.097657-24.84375-24.84375 0 13.746093-11.097656 24.84375-24.847656 24.84375h-115.945313c-13.746094 0-24.84375-11.097657-24.84375-24.84375v-298.144531c0-13.746094 11.097656-24.84375 24.84375-24.84375h115.945313c13.75 0 24.847656 11.097656 24.847656 24.84375 0-13.746094 11.097656-24.84375 24.84375-24.84375h115.945312c13.75 0 24.847656 11.097656 24.847656 24.84375 0-13.746094 11.097657-24.84375 24.84375-24.84375h115.945313c13.746094 0 24.84375 11.097656 24.84375 24.84375zm0 0" fill="#fd6149"/><path d="m82.082031 429.917969v-298.144531c0-13.746094 11.097657-24.84375 24.847657-24.84375h-74.539063c-13.746094 0-24.84375 11.097656-24.84375 24.84375v298.144531c0 13.746093 11.097656 24.84375 24.84375 24.84375h74.539063c-13.75 0-24.847657-11.097657-24.847657-24.84375zm0 0" fill="#df412d"/><path d="m313.808594 222.875 82.816406-49.691406c0 74.535156-24.84375 82.816406-24.84375 82.816406zm0 0" fill="#f2f2f2"/><path d="m140.054688 338.816406h231.890624c0 32.050782-51.925781 66.253906-115.945312 66.253906-64.015625 0-115.945312-34.203124-115.945312-66.253906zm0 0" fill="#f2f2f2"/><path d="m256 206.308594 33.128906 66.257812h-66.253906zm0 0" fill="#f2f2f2"/><path d="m198.027344 222.875-57.972656 33.125s-24.84375-8.28125-24.84375-82.816406zm0 0" fill="#f2f2f2"/><path d="m48.21875 272.5625h-15.09375v-140.054688h40.675781v15.09375h-25.582031zm0 0" fill="#fff"/><path d="m463.78125 413.355469h15.09375v16.5625h-15.09375zm0 0" fill="#fff"/><path d="m463.78125 380.226562h15.09375v16.5625h-15.09375zm0 0" fill="#fff"/><g fill="#231f20"><path d="m479.609375 99.382812h-115.945313c-9.96875 0-18.898437 4.523438-24.847656 11.628907-5.945312-7.105469-14.875-11.628907-24.84375-11.628907h-33.863281v-50.425781h-15.09375v50.425781h-18.03125v-84.289062h18.03125v9.015625h15.09375v-24.109375h-48.21875v99.382812h-33.863281c-9.96875 0-18.898438 4.523438-24.84375 11.628907-5.945313-7.105469-14.878906-11.628907-24.847656-11.628907h-115.945313c-17.859375 0-32.390625 14.527344-32.390625 32.390626v298.144531c0 17.859375 14.53125 32.390625 32.390625 32.390625h33.128906v-15.09375h-33.128906c-9.539063 0-17.296875-7.757813-17.296875-17.296875v-298.144531c0-9.539063 7.757812-17.296876 17.296875-17.296876h115.945313c9.539062 0 17.300781 7.757813 17.300781 17.296876v33.128906h15.09375v-33.128906c0-9.539063 7.757812-17.296876 17.296875-17.296876h115.945312c9.539063 0 17.296875 7.757813 17.296875 17.296876h15.09375c0-9.539063 7.761719-17.296876 17.300781-17.296876h115.945313c9.539063 0 17.296875 7.757813 17.296875 17.296876v66.253906h15.09375v-66.253906c0-17.863282-14.53125-32.390626-32.390625-32.390626zm0 0"/><path d="m496.90625 429.917969c0 9.539062-7.757812 17.296875-17.296875 17.296875h-115.945313c-9.539062 0-17.300781-7.757813-17.300781-17.296875v-24.847657h-15.09375v24.847657c0 9.539062-7.757812 17.296875-17.296875 17.296875h-115.945312c-9.539063 0-17.296875-7.757813-17.296875-17.296875h-15.09375c0 9.539062-7.761719 17.296875-17.300781 17.296875h-57.972657v15.09375h57.972657c9.96875 0 18.902343-4.523438 24.847656-11.628906 5.945312 7.105468 14.875 11.628906 24.84375 11.628906h115.945312c9.96875 0 18.898438-4.523438 24.84375-11.628906 5.949219 7.105468 14.878906 11.628906 24.847656 11.628906h115.945313c17.859375 0 32.390625-14.53125 32.390625-32.390625v-207.042969h-15.09375zm0 0"/><path d="m107.664062 173.183594c0 77.730468 26.933594 88.953125 30.003907 89.976562l3.203125 1.066406 72.089844-41.195312-105.296876-63.179688zm75.429688 49.53125-42.796875 24.457031c-4.632813-4.398437-15.308594-18.96875-17.238281-60.480469zm0 0"/><path d="m390.828125 246.15625c8.855469-16.234375 13.34375-40.785156 13.34375-72.972656v-13.332032l-105.296875 63.179688 72.089844 41.195312 3.203125-1.066406c1.503906-.503906 9.394531-3.683594 16.660156-17.003906zm-19.34375.984375-42.742187-24.425781 60.039062-36.023438c-1.910156 41.445313-12.453125 55.933594-17.296875 60.449219zm0 0"/><path d="m132.507812 338.816406c0 18.496094 13.71875 37.308594 37.636719 51.625 23.902344 14.300782 54.390625 22.175782 85.855469 22.175782s61.953125-7.875 85.855469-22.175782c23.917969-14.316406 37.636719-33.128906 37.636719-51.625v-7.542968h-246.984376zm49.691407 7.546875v17.300781h15.09375v-17.300781h117.414062v17.300781h15.09375v-17.300781h33.371094c-3.402344 10.75-13.738281 21.953125-29.066406 31.125-21.28125 12.734375-49.75 20.039063-78.105469 20.039063-28.359375 0-56.824219-7.304688-78.105469-20.039063-15.328125-9.171875-25.664062-20.375-29.070312-31.125zm0 0"/><path d="m210.660156 280.109375h90.679688l-45.339844-90.675781zm24.425782-15.09375 20.914062-41.832031 20.917969 41.832031zm0 0"/><path d="m206.308594 298.144531h99.382812v15.09375h-99.382812zm0 0"/><path d="m33.125 289.128906h15.09375v16.5625h-15.09375zm0 0"/><path d="m430.652344 413.355469h15.09375v16.5625h-15.09375zm0 0"/></g></svg>