<svg height="511.99901pt" viewBox="1 1 511.99901 511.99901" width="511.99901pt" xmlns="http://www.w3.org/2000/svg"><path d="m256 7.539062c137.214844 0 248.460938 111.246094 248.460938 248.460938s-111.246094 248.460938-248.460938 248.460938-248.460938-111.246094-248.460938-248.460938 111.246094-248.460938 248.460938-248.460938zm0 0" fill="#95adc0"/><path d="m103.71875 256c0-120.757812 86.175781-221.363281 200.371094-243.769531-15.5625-3.050781-31.632813-4.691407-48.089844-4.691407-137.214844 0-248.460938 111.246094-248.460938 248.460938s111.246094 248.460938 248.460938 248.460938c16.457031 0 32.527344-1.640626 48.089844-4.695313-114.195313-22.402344-200.371094-123.007813-200.371094-243.765625zm0 0" fill="#8095a6"/><path d="m279.882812 191.882812 80.148438-48.089843c0 72.132812-24.042969 80.148437-24.042969 80.148437zm0 0" fill="#f2f2f2"/><path d="m231.957031 191.882812-56.105469 32.058594s-24.042968-8.015625-24.042968-80.148437zm0 0" fill="#f2f2f2"/><path d="m280.042969 248.460938h16.03125v15.078124h-16.03125zm0 0" fill="#fff"/><path d="m215.925781 248.460938h16.03125v15.078124h-16.03125zm0 0" fill="#fff"/><path d="m349.738281 78.320312c-28.667969-15.15625-61.082031-23.167968-93.738281-23.167968s-65.070312 8.011718-93.738281 23.167968l-7.050781-13.328124c30.832031-16.300782 65.683593-24.917969 100.789062-24.917969 35.101562 0 69.953125 8.617187 100.789062 24.917969zm0 0" fill="#fff"/><path d="m448.355469 216.402344h16.03125v15.078125h-16.03125zm0 0" fill="#fff"/><g fill="#231f20"><path d="m15.078125 256c0-64.351562 25.0625-124.851562 70.566406-170.355469 45.503907-45.503906 106.003907-70.566406 170.355469-70.566406 47.175781 0 92.859375 13.632813 132.113281 39.421875l8.277344-12.597656c-41.714844-27.414063-90.265625-41.902344-140.390625-41.902344-68.378906 0-132.664062 26.628906-181.015625 74.984375-48.355469 48.351563-74.984375 112.636719-74.984375 181.015625 0 86.949219 43.566406 167.214844 116.539062 214.707031l8.222657-12.636719c-68.679688-44.699218-109.683594-120.242187-109.683594-202.070312zm0 0"/><path d="m485.058594 141.566406c-17.042969-34.046875-41.992188-64.425781-72.152344-87.851562l-9.246094 11.90625c28.386719 22.054687 51.875 50.648437 67.914063 82.695312 16.820312 33.601563 25.347656 69.832032 25.347656 107.683594 0 64.351562-25.0625 124.851562-70.566406 170.355469-45.503907 45.503906-106.007813 70.566406-170.355469 70.566406-40.800781 0-81.109375-10.382813-116.570312-30.03125l-7.308594 13.191406c37.691406 20.878907 80.527344 31.917969 123.878906 31.917969 68.375 0 132.664062-26.628906 181.015625-74.984375 48.351563-48.351563 74.984375-112.640625 74.984375-181.015625 0-40.21875-9.066406-78.71875-26.941406-114.433594zm0 0"/><path d="m173.464844 231.09375 3.199218 1.066406 70.210938-40.121094-102.605469-61.5625v13.316407c0 31.191406 4.351563 54.988281 12.941407 70.734375 7.074218 12.964844 14.78125 16.074218 16.253906 16.566406zm43.570312-39.371094-40.929687 23.390625c-4.464844-4.300781-14.550781-18.3125-16.449219-57.820312zm0 0"/><path d="m335.171875 232.160156 3.199219-1.070312c1.476562-.488282 9.183594-3.597656 16.257812-16.566406 8.589844-15.742188 12.941406-39.542969 12.941406-70.734376v-13.316406l-102.605468 61.566406zm.496094-17.085937-40.867188-23.351563 57.382813-34.429687c-1.878906 39.378906-11.84375 53.347656-16.515625 57.78125zm0 0"/><path d="m142.484375 428.269531 18.183594-18.1875c11.214843 7.769531 23.421875 14.210938 36.386719 19.089844l-10.226563 20.445313 13.488281 6.742187 11.238282-22.476563c11.835937 3.253907 24.1875 5.242188 36.90625 5.804688v24.699219h15.078124v-24.699219c12.847657-.570312 25.328126-2.59375 37.277344-5.90625l12.632813 22.105469 13.089843-7.480469-11.097656-19.421875c10.953125-4.164063 21.367188-9.433594 31.089844-15.6875l22.984375 22.984375 10.660156-10.660156-21.171875-21.175782c12.476563-9.726562 23.542969-21.175781 32.851563-33.988281l17.734375 17.734375 10.660156-10.660156-19.925781-19.925781c13.714843-23.046875 22.070312-49.632813 23.332031-78.039063h16.683594v-15.074218h-48.089844v15.074218h16.320312c-1.183593 24.238282-8.050781 47.003906-19.277343 67.003906l-14.378907-14.375-10.664062 10.660157 16.804688 16.800781c-9.117188 12.96875-20.191407 24.460938-32.800782 34.042969l-13.414062-13.417969-10.660156 10.660156 11.417968 11.421875c-8.710937 5.339844-17.996094 9.828125-27.734375 13.355469l-13.132812-22.984375-13.09375 7.480469 11.4375 20.015625c-9.527344 2.382812-19.402344 3.875-29.535157 4.371093v-24.335937h-15.078124v24.335937c-10.304688-.503906-20.34375-2.035156-30.019532-4.492187l10.550782-21.101563-13.484376-6.742187-11.675781 23.34375c-11.472656-4.179687-22.304687-9.707031-32.3125-16.375l16.304688-16.304687-10.664063-10.660157-17.894531 17.894531c-10.765625-8.828124-20.300781-19.097656-28.316406-30.507812l16.800781-16.800781-10.664062-10.660157-14.375 14.375c-11.230469-20-18.09375-42.765624-19.277344-67.003906h16.316406v-15.074218h-48.09375v15.074218h16.683594c1.261718 28.40625 9.617187 54.992188 23.332031 78.039063l-19.925781 19.925781 10.660156 10.660156 17.738281-17.734375c8.1875 11.273438 17.738281 21.492188 28.414063 30.410157l-16.738282 16.738281zm0 0"/><path d="m247.984375 248.460938h16.03125v15.078124h-16.03125zm0 0"/><path d="m135.777344 80.148438h16.027344v15.078124h-16.027344zm0 0"/><path d="m360.191406 80.148438h16.03125v15.078124h-16.03125zm0 0"/><path d="m448.355469 184.34375h16.03125v15.078125h-16.03125zm0 0"/><path d="m55.628906 192.355469h16.027344v15.078125h-16.027344zm0 0"/><path d="m39.597656 208.386719h16.03125v15.078125h-16.03125zm0 0"/><path d="m55.628906 224.417969h16.027344v15.078125h-16.027344zm0 0"/></g></svg>