<svg height="511pt" viewBox="-8 1 511 511.99901" width="511pt" xmlns="http://www.w3.org/2000/svg"><path d="m456.871094 135.777344v32.058594h-104.191406c-13.304688 0-24.046876 10.742187-24.046876 24.046874 0-13.304687-10.738281-24.046874-24.042968-24.046874h-112.210938c-13.304687 0-24.042968 10.742187-24.042968 24.046874 0-13.304687-10.738282-24.046874-24.042969-24.046874h-104.195313v-32.058594zm0 0" fill="#95adc0"/><path d="m112.230469 7.539062h272.507812v40.074219h-272.507812zm0 0" fill="#31e8bb"/><path d="m464.886719 167.835938c13.304687 0 24.042969 10.742187 24.042969 24.046874v288.53125c0 13.304688-10.738282 24.046876-24.042969 24.046876h-112.207031c-13.304688 0-24.046876-10.742188-24.046876-24.046876 0 13.304688-10.738281 24.046876-24.042968 24.046876h-112.210938c-13.304687 0-24.042968-10.742188-24.042968-24.046876 0 13.304688-10.738282 24.046876-24.042969 24.046876h-112.210938c-13.304687 0-24.042969-10.742188-24.042969-24.046876v-288.53125c0-13.304687 10.738282-24.046874 24.042969-24.046874h112.210938c13.304687 0 24.042969 10.742187 24.042969 24.046874 0-13.304687 10.738281-24.046874 24.042968-24.046874h112.210938c13.304687 0 24.042968 10.742187 24.042968 24.046874 0-13.304687 10.738282-24.046874 24.042969-24.046874zm0 0" fill="#fd6149"/><path d="m112.230469 7.539062h80.148437v40.074219h-80.148437zm0 0" fill="#1cb28b"/><path d="m40.097656 135.777344h96.179688v32.058594h-96.179688zm0 0" fill="#aac4da"/><path d="m88.1875 480.414062v-288.53125c0-13.304687 10.742188-24.046874 24.042969-24.046874h-80.148438c-13.304687 0-24.042969 10.742187-24.042969 24.046874v288.53125c0 13.304688 10.742188 24.046876 24.042969 24.046876h80.148438c-13.304688 0-24.042969-10.742188-24.042969-24.046876zm0 0" fill="#df412d"/><path d="m304.429688 304.089844 80.148437-48.089844c0 72.132812-24.046875 80.148438-24.046875 80.148438zm0 0" fill="#f2f2f2"/><path d="m248.484375 288.058594 32.058594 64.121094h-64.117188zm0 0" fill="#f2f2f2"/><path d="m192.378906 304.089844-56.101562 32.058594s-24.046875-8.015626-24.046875-80.148438zm0 0" fill="#f2f2f2"/><path d="m47.636719 328.132812h-15.078125v-135.777343h39.597656v15.078125h-24.519531zm0 0" fill="#fff"/><path d="m449.332031 464.386719h15.078125v16.03125h-15.078125zm0 0" fill="#fff"/><g fill="#231f20"><path d="m464.886719 160.296875h-.476563v-32.058594h-32.058594v-48.566406c0-.480469-.066406-11.929687-5.804687-23.40625-4.921875-9.84375-14.792969-21.367187-34.269531-23.753906v-32.511719h-111.734375v15.078125h96.65625v24.996094h-257.429688v-24.996094h136.730469v-15.078125h-151.808594v32.511719c-19.476562 2.386719-29.347656 13.910156-34.265625 23.753906-5.742187 11.476563-5.808593 22.925781-5.808593 23.40625v48.566406h-32.058594v32.058594h-.476563c-17.414062 0-31.582031 14.167969-31.582031 31.585937v80.148438h15.078125v-80.148438c0-9.101562 7.402344-16.507812 16.503906-16.507812h112.207031c9.101563 0 16.507813 7.40625 16.507813 16.507812v32.058594h15.078125v-32.058594c0-9.101562 7.402344-16.507812 16.503906-16.507812h112.210938c9.101562 0 16.503906 7.40625 16.503906 16.507812h15.078125c0-9.101562 7.40625-16.507812 16.503906-16.507812h112.210938c9.101562 0 16.503906 7.40625 16.503906 16.507812v192.355469h15.078125v-192.355469c0-17.417968-14.167969-31.585937-31.582031-31.585937zm-385.191407-80.625c0-1.214844.328126-27.414063 24.996094-31.875v7.355469h287.585938v-7.40625c9.492187 1.617187 16.265625 6.511718 20.574218 14.855468 4.300782 8.316407 4.421876 17.015626 4.421876 17.070313v48.566406h-337.578126zm248.9375 91.753906c-5.796874-6.804687-14.425781-11.128906-24.042968-11.128906h-112.210938c-9.617187 0-18.246094 4.324219-24.042968 11.128906-5.796876-6.804687-14.425782-11.128906-24.042969-11.128906h-96.65625v-16.980469h401.695312v16.980469h-96.652343c-9.621094 0-18.25 4.324219-24.046876 11.128906zm0 0"/><path d="m481.390625 480.417969c0 9.101562-7.402344 16.503906-16.503906 16.503906h-112.207031c-9.101563 0-16.507813-7.402344-16.507813-16.503906v-24.046875h-15.078125v24.046875c0 9.101562-7.402344 16.503906-16.503906 16.503906h-112.210938c-9.097656 0-16.503906-7.402344-16.503906-16.503906h-15.078125c0 9.101562-7.402344 16.503906-16.503906 16.503906h-112.210938c-9.097656 0-16.503906-7.402344-16.503906-16.503906v-184.34375h-15.078125v184.339843c0 17.417969 14.167969 31.585938 31.582031 31.585938h112.210938c9.617187 0 18.246093-4.324219 24.042969-11.125 5.796874 6.800781 14.425781 11.125 24.042968 11.125h112.210938c9.617187 0 18.246094-4.324219 24.042968-11.125 5.796876 6.800781 14.425782 11.125 24.042969 11.125h112.210938c17.414062 0 31.582031-14.167969 31.582031-31.585938v-72.132812h-15.078125zm0 0"/><path d="m104.691406 256c0 31.191406 4.355469 54.988281 12.945313 70.734375 7.074219 12.96875 14.78125 16.074219 16.257812 16.566406l3.195313 1.066407 70.207031-40.121094-102.605469-61.5625zm72.773438 47.929688-40.933594 23.390624c-4.464844-4.300781-14.550781-18.3125-16.449219-57.820312zm0 0"/><path d="m362.917969 343.300781c1.472656-.492187 9.183593-3.597656 16.257812-16.566406 8.585938-15.746094 12.941407-39.542969 12.941407-70.734375v-13.316406l-102.605469 61.5625 70.207031 40.121094zm13.8125-73.800781c-1.878907 39.382812-11.847657 53.347656-16.519531 57.78125l-40.863282-23.351562zm0 0"/><path d="m204.226562 359.714844h88.515626l-44.257813-88.511719zm24.398438-15.074219 19.859375-39.722656 19.859375 39.722656zm0 0"/><path d="m32.558594 344.164062h15.078125v16.027344h-15.078125zm0 0"/><path d="m449.332031 432.328125h15.078125v16.027344h-15.078125zm0 0"/><path d="m417.273438 464.386719h15.078124v16.03125h-15.078124zm0 0"/><path d="m320.144531 432.328125v-16.507813h24.519531v-15.078124h-24.519531v-16.503907h-15.078125v16.503907h-16.984375v-16.503907h-15.078125v16.503907h-16.980468v-16.503907h-15.078126v16.503907h-16.980468v-16.503907h-15.078125v16.503907h-16.980469v-16.503907h-15.078125v16.503907h-24.523437v15.078124h24.523437v16.507813h15.078125v-16.507813h16.980469v16.507813h15.078125v-16.507813h16.980468v16.507813h15.078126v-16.507813h16.980468v16.507813h15.078125v-16.507813h16.984375v16.507813zm0 0"/></g></svg>