<svg height="512pt" viewBox="0 -60 512.00001 512" width="512pt" xmlns="http://www.w3.org/2000/svg"><path d="m472.402344 336.148438 16.027344 48.089843h-464.859376l16.027344-48.089843 24.046875-16.03125h384.710938zm0 0" fill="#835cc5"/><path d="m7.539062 55.628906v-48.089844h496.921876v48.089844l-16.03125 16.027344h-464.859376zm0 0" fill="#835cc5"/><path d="m175.851562 247.984375 40.074219 72.132813h-80.148437zm0 0" fill="#95adc0"/><path d="m336.148438 247.984375 40.074218 72.132813h-80.148437zm0 0" fill="#95adc0"/><path d="m440.339844 71.65625-40.074219 72.136719-32.058594-56.105469-.640625-.402344 8.65625-15.628906zm0 0" fill="#95adc0"/><path d="m296.074219 71.65625-40.074219 88.164062-40.074219-88.164062zm0 0" fill="#95adc0"/><path d="m135.777344 71.65625 8.65625 15.628906-.640625.402344-32.058594 56.105469-40.074219-72.136719zm0 0" fill="#95adc0"/><g fill="#d9eef7"><path d="m135.777344 320.117188h-48.089844v-72.132813s48.089844 8.015625 48.089844 72.132813zm0 0"/><path d="m256 231.957031 40.074219 88.160157h-80.148438zm0 0"/><path d="m424.3125 247.984375v72.132813h-48.089844c0-64.117188 48.089844-72.132813 48.089844-72.132813zm0 0"/><path d="m488.429688 71.65625v72.136719s-48.089844-8.015625-48.089844-72.136719zm0 0"/><path d="m376.222656 71.65625-8.65625 15.628906-31.417968 56.507813-40.074219-72.136719zm0 0"/><path d="m215.925781 71.65625-40.074219 72.136719-31.417968-56.507813-8.65625-15.628906zm0 0"/><path d="m23.570312 71.65625h48.089844c0 64.121094-48.089844 72.136719-48.089844 72.136719zm0 0"/></g><path d="m87.6875 7.539062h-80.148438v48.089844l16.03125 16.027344h80.148438l-16.03125-16.027344zm0 0" fill="#8327c5"/><path d="m143.792969 320.117188h-80.148438l-24.046875 16.03125-16.027344 48.089843h80.148438l16.027344-48.089843zm0 0" fill="#8327c5"/><path d="m31.582031 32.058594h352.65625v15.078125h-352.65625zm0 0" fill="#fff"/><path d="m432.328125 32.058594h16.027344v15.078125h-16.027344zm0 0" fill="#fff"/><path d="m223.941406 344.640625h192.355469v15.074219h-192.355469zm0 0" fill="#fff"/><path d="m159.820312 344.640625h16.03125v15.074219h-16.03125zm0 0" fill="#fff"/><path d="m328.132812 0v15.078125h168.789063v37.425781l-11.613281 11.617188h-458.617188l-11.613281-11.617188v-37.425781h289.011719v-15.078125h-304.089844v58.75l16.03125 16.03125v77.910156l8.777344-1.464844c.574218-.09375 14.191406-2.46875 27.632812-13.667968 13.910156-11.589844 20.902344-26.800782 24.179688-41.445313l35.019531 63.035157 32.511719-56.898438 31.703125 57.058594 39.398437-70.914063 40.746094 89.644531 40.75-89.644531 39.394531 70.914063 31.714844-57.035156 32.5 56.875 35.019531-63.03125c3.277344 14.640624 10.273438 29.851562 24.179688 41.445312 13.441406 11.199219 27.058594 13.570312 27.632812 13.667969l8.777344 1.460937v-77.910156l16.03125-16.03125v-58.75zm-297.023437 133.40625v-54.210938h32.757813c-2.382813 35.085938-21.273438 48.972657-32.757813 54.210938zm80.714844-4.972656-27.351563-49.238282h46.871094l4.246094 7.648438zm64.023437-.160156-27.277344-49.074219h54.542969zm51.785156-49.078126h56.734376l-28.367188 62.40625zm108.519532 49.078126-27.265625-49.074219h54.542969zm64.023437.160156-23.757812-41.570313 4.246093-7.667969h46.863282zm47.957031-49.238282h32.757813v54.203126c-11.5-5.242188-30.375-19.132813-32.757813-54.203126zm0 0" fill="#231f20"/><path d="m400.265625 32.058594h16.03125v15.078125h-16.03125zm0 0" fill="#231f20"/><path d="m159.820312 376.699219h200.371094v15.078125h-200.371094zm0 0" fill="#231f20"/><path d="m450.640625 312.578125h-18.789063v-73.492187l-8.777343 1.460937c-.574219.097656-14.195313 2.46875-27.632813 13.667969-13.910156 11.59375-20.902344 26.804687-24.183594 41.445312l-35.109374-63.199218-39.398438 70.921874-40.75-89.644531-40.746094 89.644531-39.402344-70.921874-35.109374 63.199218c-3.277344-14.640625-10.273438-29.851562-24.183594-41.445312-13.4375-11.199219-27.058594-13.570313-27.628906-13.667969l-8.78125-1.460937v73.492187h-18.789063l-28.09375 18.734375-20.15625 60.464844h122.667969v-15.078125h-101.75l11.90625-35.710938 19.992187-13.332031h380.148438l19.992187 13.332031 11.902344 35.710938h-93.730469v15.078125h114.652344l-20.15625-60.464844zm-33.867187-54.207031v54.207031h-32.757813c2.382813-35.082031 21.269531-48.96875 32.757813-54.207031zm-53.363282 54.207031h-54.523437l27.261719-49.070313zm-79.042968 0h-56.734376l28.367188-62.402344zm-81.253907 0h-54.523437l27.261718-49.070313zm-107.886719-54.140625c3.449219 1.582031 7.566407 3.933594 11.679688 7.359375 12.644531 10.539063 19.703125 26.261719 21.070312 46.78125h-32.75zm0 0" fill="#231f20"/><path d="m191.882812 344.640625h16.027344v15.074219h-16.027344zm0 0" fill="#231f20"/><path d="m127.761719 344.640625h16.03125v15.074219h-16.03125zm0 0" fill="#231f20"/><path d="m95.703125 344.640625h16.03125v15.074219h-16.03125zm0 0" fill="#fff"/></svg>