<svg height="512pt" viewBox="-152 0 512 512.00102" width="512pt" xmlns="http://www.w3.org/2000/svg"><path d="m87.6875 392.253906c8.816406 0 16.03125-7.214844 16.03125-16.03125 0 8.816406 7.210938 16.03125 16.027344 16.03125v112.207032h-32.058594zm0 0" fill="#aac4da"/><path d="m87.6875 239.96875c8.816406 0 16.03125-7.210938 16.03125-16.027344 0 8.816406 7.210938 16.027344 16.027344 16.027344h64.121094c8.816406 0 16.027343-7.210938 16.027343-16.027344v56.101563c-24.042969 0-24.042969 32.0625-48.089843 32.0625-24.125 0-24.125-32.0625-48.167969-32.0625s-24.042969 32.0625-48.089844 32.0625c-23.964844 0-23.964844-32.0625-48.007813-32.0625v-56.101563c0 8.816406 7.210938 16.027344 16.027344 16.027344zm0 0" fill="#31e8bb"/><path d="m199.894531 63.644531v64.117188c-24.042969 0-24.042969 32.058593-48.089843 32.058593-24.125 0-24.125-32.058593-48.167969-32.058593s-24.042969 32.058593-48.089844 32.058593c-23.964844 0-23.964844-32.058593-48.007813-32.058593v-64.117188c0-8.816406 7.210938-16.03125 16.027344-16.03125h64.121094c8.816406 0 16.027344 7.214844 16.027344 16.03125 0-8.816406 7.214844-16.03125 16.03125-16.03125h64.117187c8.820313 0 16.03125 7.214844 16.03125 16.03125zm0 0" fill="#31e8bb"/><path d="m103.71875 376.222656c0 8.816406-7.214844 16.03125-16.03125 16.03125h-64.117188c-8.816406 0-16.03125-7.214844-16.03125-16.03125v-96.179687c24.042969 0 24.042969 32.0625 48.007813 32.0625 24.046875 0 24.046875-32.0625 48.089844-32.0625 24.046875 0 24.046875 32.0625 48.171875 32.0625 24.042968 0 24.042968-32.0625 48.089844-32.0625v96.179687c0 8.816406-7.214844 16.03125-16.03125 16.03125h-64.117188c-8.820312 0-16.03125-7.214844-16.03125-16.03125zm0 0" fill="#fd6149"/><path d="m103.71875 223.941406c0 8.816406-7.214844 16.027344-16.03125 16.027344h-64.117188c-8.816406 0-16.03125-7.210938-16.03125-16.027344v-96.179687c24.042969 0 24.042969 32.0625 48.007813 32.0625 24.046875 0 24.046875-32.0625 48.089844-32.0625 24.046875 0 24.046875 32.0625 48.171875 32.0625 24.042968 0 24.042968-32.0625 48.089844-32.0625v96.179687c0 8.816406-7.214844 16.027344-16.03125 16.027344h-64.117188c-8.820312 0-16.03125-7.210938-16.03125-16.027344zm0 0" fill="#fd6149"/><path d="m55.546875 312.105469c.03125 0 .054687-.007813.082031-.007813v-72.128906h-32.058594c-8.816406 0-16.03125-7.210938-16.03125-16.027344v56.101563c24.042969 0 24.042969 32.0625 48.007813 32.0625zm0 0" fill="#1cb28b"/><path d="m55.546875 159.820312c.03125 0 .054687-.007812.082031-.007812v-112.199219h-32.058594c-8.816406 0-16.03125 7.214844-16.03125 16.03125v64.117188c24.042969 0 24.042969 32.058593 48.007813 32.058593zm0 0" fill="#1cb28b"/><path d="m55.546875 312.105469c-23.960937 0-23.960937-32.0625-48.007813-32.0625v96.179687c0 8.816406 7.214844 16.027344 16.03125 16.027344h32.058594v-80.152344c-.027344 0-.050781.007813-.082031.007813zm0 0" fill="#df412d"/><path d="m23.570312 239.96875h32.058594v-80.15625c-.027344 0-.050781.007812-.082031.007812-23.960937 0-23.960937-32.058593-48.007813-32.058593v96.179687c0 8.816406 7.214844 16.027344 16.03125 16.027344zm0 0" fill="#df412d"/><path d="m47.136719 111.734375h-15.078125v-39.601563h23.570312v15.078126h-8.492187zm0 0" fill="#fff"/><path d="m111.730469 80.148438h16.03125v15.078124h-16.03125zm0 0" fill="#fff"/><g fill="#231f20"><path d="m207.433594 159.820312v-96.175781c0-12.996093-10.574219-23.570312-23.566406-23.570312h-64.121094c-2.992188 0-5.851563.570312-8.488282 1.59375v-14.976563l11.613282-11.613281h20.917968v-15.078125h-27.164062l-20.445312 20.445312v21.222657c-2.636719-1.023438-5.5-1.59375-8.492188-1.59375h-64.117188c-12.996093 0-23.570312 10.574219-23.570312 23.570312v256.472657h15.078125v-30.589844c3.605469 2.113281 6.589844 5.894531 10.476563 11.085937 6.347656 8.480469 14.246093 19.03125 29.992187 19.03125 15.792969 0 23.710937-10.5625 30.078125-19.046875 6.230469-8.3125 10.140625-13.015625 18.011719-13.015625 7.863281 0 11.773437 4.699219 18.011719 13 6.378906 8.492188 14.320312 19.0625 30.15625 19.0625 15.792968 0 23.710937-10.5625 30.074218-19.046875 3.890625-5.179687 6.875-8.960937 10.476563-11.070312v86.695312c0 4.683594-3.808594 8.492188-8.492188 8.492188h-56.578125v-.476563h-10.316406c-3.316406-1.152343-5.710938-4.304687-5.710938-8.015625v-40.074218h-15.078124v40.074218c0 3.710938-2.394532 6.863282-5.714844 8.015625h-10.316406v.476563h-56.578126c-4.683593 0-8.492187-3.808594-8.492187-8.492188v-32.058594h-15.078125v32.058594c0 12.996094 10.574219 23.570313 23.570312 23.570313h56.578126v112.207031h47.140624v-55.628906h-15.078124v40.550781h-16.984376v-98.390625c3.1875-1.082031 6.078126-2.800781 8.492188-5.042969 2.414062 2.242188 5.304688 3.960938 8.492188 5.042969v25.78125h15.078124v-24.519531h56.578126c12.996093 0 23.570312-10.574219 23.570312-23.570313v-192.355468h-15.078125v40.074218c0 4.679688-3.808594 8.492188-8.492187 8.492188h-64.117188c-4.683594 0-8.492188-3.8125-8.492188-8.492188v-40.074218h-15.078124v40.074218c0 4.679688-3.808594 8.492188-8.488282 8.492188h-64.121094c-4.679687 0-8.488281-3.8125-8.488281-8.492188v-86.699218c3.605469 2.113281 6.585938 5.898437 10.472657 11.089843 6.347656 8.476563 14.25 19.027344 29.996093 19.027344 15.789063 0 23.710938-10.558594 30.074219-19.042969 6.234375-8.3125 10.144531-13.015625 18.011719-13.015625 7.867187 0 11.777343 4.699219 18.015625 13 6.378906 8.492188 14.316406 19.058594 30.15625 19.058594 15.789062 0 23.710937-10.558594 30.074218-19.042969 3.886719-5.183594 6.871094-8.960937 10.476563-11.070312v22.578125h15.074219zm-183.863282 87.6875h64.117188c6.183594 0 11.820312-2.394531 16.03125-6.304687 2.289062 2.128906 5.015625 3.789063 8.011719 4.878906v1.425781h72.132812c2.996094 0 5.855469-.566406 8.492188-1.589843v27.480469c-10.949219 2.714843-17.277344 11.136718-22.535157 18.152343-6.234374 8.308594-10.144531 13.011719-18.015624 13.011719-7.921876 0-11.84375-4.710938-18.101563-13.039062-6.367187-8.472657-14.289063-19.019532-30.066406-19.019532-15.792969 0-23.714844 10.558594-30.078125 19.046875-6.234375 8.308594-10.140625 13.011719-18.011719 13.011719-7.820313 0-11.714844-4.691406-17.925781-12.988281-5.257813-7.023438-11.582032-15.457031-22.542969-18.175781v-27.480469c2.636719 1.023437 5.496094 1.589843 8.492187 1.589843zm146.25-108.238281c-6.234374 8.308594-10.144531 13.011719-18.011718 13.011719-7.921875 0-11.847656-4.710938-18.105469-13.039062-6.363281-8.472657-14.289063-19.019532-30.066406-19.019532-15.792969 0-23.710938 10.558594-30.074219 19.046875-6.234375 8.308594-10.144531 13.011719-18.015625 13.011719-7.816406 0-11.710937-4.691406-17.925781-12.988281-5.257813-7.023438-11.582032-15.457031-22.542969-18.175781v-57.472657c0-4.683593 3.808594-8.492187 8.492187-8.492187h64.117188c4.683594 0 8.492188 3.808594 8.492188 8.492187h15.078124c0-4.683593 3.808594-8.492187 8.488282-8.492187h64.117187c4.683594 0 8.492188 3.808594 8.492188 8.492187v57.472657c-10.949219 2.714843-17.277344 11.136718-22.535157 18.152343zm0 0"/><path d="m159.820312 72.132812h16.03125v15.078126h-16.03125zm0 0"/><path d="m143.792969 88.164062h16.027343v15.078126h-16.027343zm0 0"/></g></svg>