<svg height="511pt" viewBox="-80 1 511 511.99901" width="511pt" xmlns="http://www.w3.org/2000/svg"><path d="m104.214844 360.191406h144.269531v48.089844h-144.269531zm0 0" fill="#95adc0"/><path d="m201.035156 267.863281c4.570313 5.527344 7.375 12.503907 7.375 20.195313 0 17.714844-14.347656 32.058594-32.058594 32.058594-17.714843 0-32.0625-14.34375-32.0625-32.058594 0-7.695313 2.808594-14.667969 7.375-20.195313l24.6875-27.894531zm0 0" fill="#fd6149"/><path d="m272.527344 480.414062-56.101563 8.015626v16.03125h-80.148437v-16.03125l-56.105469-8.015626v-24.042968h-72.132813v-48.089844h336.625v48.089844h-72.136718zm0 0" fill="#31e8bb"/><path d="m80.171875 55.628906v-24.046875l56.105469-8.011719v-16.03125h80.148437v16.03125l56.101563 8.011719v24.046875h72.136718v48.089844h-336.625v-48.089844zm0 0" fill="#31e8bb"/><path d="m104.214844 360.191406v48.089844h-72.132813l32.058594-112.207031-24.042969-40.074219 24.042969-48.089844-32.058594-104.191406h288.535157l-32.058594 104.191406 24.042968 48.089844-24.042968 40.074219 32.058594 112.207031h-72.132813v-48.089844zm72.136718-40.074218c17.710938 0 32.058594-14.34375 32.058594-32.058594 0-7.695313-2.804687-14.667969-7.375-20.195313l-24.683594-27.894531-24.6875 27.894531c-4.566406 5.527344-7.375 12.503907-7.375 20.195313.003907 17.714844 14.347657 32.058594 32.0625 32.058594zm0 0" fill="#835cc5"/><path d="m8.039062 55.628906h72.132813v48.089844h-72.132813zm0 0" fill="#1cb28b"/><path d="m8.039062 408.28125h72.132813v48.089844h-72.132813zm0 0" fill="#1cb28b"/><path d="m96.203125 256 24.042969-48.089844-32.058594-104.191406h-56.105469l32.058594 104.191406-24.042969 48.089844 24.042969 40.074219-32.058594 112.207031h56.105469l32.058594-112.207031zm0 0" fill="#8327c5"/><g fill="#fff"><path d="m160.320312 48.089844h16.03125v15.078125h-16.03125zm0 0"/><path d="m224.441406 48.089844h16.027344v15.078125h-16.027344zm0 0"/><path d="m176.351562 448.832031h16.027344v15.078125h-16.027344zm0 0"/><path d="m112.230469 448.832031h16.03125v15.078125h-16.03125zm0 0"/><path d="m168.8125 159.820312h15.078125v40.074219h-15.078125zm0 0"/><path d="m235.121094 178.535156 10.660156 10.660156-32.058594 32.058594-10.660156-10.660156zm0 0"/><path d="m117.5625 178.53125 32.058594 32.058594-10.660156 10.664062-32.058594-32.058594zm0 0"/><path d="m80.171875 240.445312h16.03125v15.078126h-16.03125zm0 0"/><path d="m96.203125 256.476562h16.027344v15.078126h-16.027344zm0 0"/><path d="m240.46875 312.578125h16.03125v15.078125h-16.03125zm0 0"/></g><path d="m315.492188 146.007812 10.695312-34.75h26.015625v-63.167968h-72.132813v-23.042969l-56.105468-8.015625v-17.03125h-95.226563v17.03125l-56.101562 8.015625v23.042969h-72.136719v63.167968h26.015625l29.535156 95.984376-24.546875 49.085937 24.492188 40.820313-29.601563 103.59375h-25.894531v63.167968h72.132812v23.042969l56.105469 8.015625v17.03125h95.226563v-17.03125l56.101562-8.015625v-23.042969h72.136719v-63.167968h-25.898437l-29.597657-103.59375 24.488281-40.820313-24.542968-49.085937 11.441406-37.1875-14.410156-4.433594-13.21875 42.960937 23.542968 47.085938-23.597656 39.332031 30.210938 105.742188h-54.597656v-48.089844h-72.132813v-25.722656c18.238281-3.53125 32.058594-19.613282 32.058594-38.871094 0-9.148438-3.148438-17.792969-9.101563-25l-30.496094-34.464844-30.332031 34.269531-.167969.195313c-5.953124 7.207031-9.101562 15.851562-9.101562 25 0 19.253906 13.820312 35.335937 32.0625 38.867187v25.726563h-16.507812v15.078125h88.640624v33.011719h-129.1875v-33.011719h16.503907v-15.078125h-31.582031v48.089844h-54.601563l30.214844-105.742188-23.597657-39.332031 23.542969-47.089844-29.945312-97.324219h158.101562v-15.078125h-184.816406v-33.007812h128.714844v-15.078125h-56.582031v-9.96875l56.105468-8.015625v-15.027344h65.070313v15.03125l56.101562 8.015625v25.042969h72.136719v33.011719h-112.683594v15.078124h85.96875l-9.328125 30.316407zm-163.660157 142.050782c0-5.558594 1.925781-10.847656 5.570313-15.300782l18.949218-21.414062 18.949219 21.414062c3.648438 4.449219 5.570313 9.738282 5.570313 15.300782 0 13.523437-11 24.519531-24.519532 24.519531-13.519531 0-24.519531-10.996094-24.519531-24.519531zm185.292969 127.761718v33.011719h-128.714844v15.078125h56.582032v9.964844l-56.105469 8.015625v15.03125h-65.070313v-15.03125l-56.101562-8.015625v-25.042969h-72.136719v-33.011719zm0 0" fill="#231f20"/><path d="m192.382812 48.089844h16.027344v15.078125h-16.027344zm0 0" fill="#231f20"/><path d="m144.292969 448.832031h16.027343v15.078125h-16.027343zm0 0" fill="#231f20"/><path d="m96.203125 296.550781h16.027344v15.078125h-16.027344zm0 0" fill="#231f20"/><path d="m248.484375 224.417969h16.03125v15.078125h-16.03125zm0 0" fill="#231f20"/><path d="m248.484375 256.476562h16.03125v15.078126h-16.03125zm0 0" fill="#231f20"/><path d="m232.457031 272.503906h16.027344v15.078125h-16.027344zm0 0" fill="#231f20"/><path d="m88.1875 208.386719h16.027344v15.078125h-16.027344zm0 0" fill="#231f20"/></svg>