<svg height="512pt" viewBox="-20 0 512 512.00001" width="512pt" xmlns="http://www.w3.org/2000/svg"><path d="m463.726562 463.726562v40.730469h-456.183593v-40.730469h407.304687l19.550782-9.777343 4.890624 9.777343zm0 0" fill="#835cc5"/><path d="m422.996094 431.140625 11.402344 22.808594-19.550782 9.777343h-382.863281l16.289063-32.585937zm0 0" fill="#835cc5"/><path d="m382.265625 398.554688v32.585937h-293.261719v-32.585937zm0 0" fill="#95adc0"/><path d="m447.433594 219.34375c0 75.429688-39.425782 141.742188-98.894532 179.210938h-225.808593c-59.464844-37.46875-98.894531-103.78125-98.894531-179.210938 0-116.980469 94.820312-211.800781 211.800781-211.800781 116.976562 0 211.796875 94.820312 211.796875 211.800781zm0 0" fill="#ffe451"/><path d="m121.589844 219.34375c0-100.148438 69.519531-183.996094 162.921875-206.066406-15.695313-3.710938-32.046875-5.734375-48.875-5.734375-116.980469 0-211.800781 94.820312-211.800781 211.800781 0 75.429688 39.429687 141.742188 98.894531 179.210938h97.753906c-59.46875-37.46875-98.894531-103.78125-98.894531-179.210938zm0 0" fill="#fbb03b"/><path d="m398.554688 456.179688h16.292968v15.089843h-16.292968zm0 0" fill="#fff"/><path d="m88.402344 211.195312h-15.085938c0-89.503906 72.816406-162.320312 162.320313-162.320312v15.089844c-81.1875 0-147.234375 66.046875-147.234375 147.230468zm0 0" fill="#fff"/><path d="m374.71875 268.21875h15.089844v16.292969h-15.089844zm0 0" fill="#fff"/><path d="m292.054688 80.859375h-15.089844v16.894531h-16.890625v15.085938h16.890625v16.894531h15.089844v-16.894531h16.894531v-15.085938h-16.894531zm0 0" fill="#fff"/><path d="m365.972656 146.628906h-16.894531v-16.894531h-15.089844v16.894531h-16.890625v15.089844h16.890625v16.894531h15.089844v-16.894531h16.894531zm0 0" fill="#fff"/><g fill="#231f20"><path d="m443.949219 456.179688-16.292969-32.582032h-37.847656v-32.585937h-17.675782c22.125-17.609375 40.816407-39.433594 54.726563-64.125 18.394531-32.652344 28.117187-69.839844 28.117187-107.542969 0-52.6875-18.957031-103.625-53.375-143.421875l-11.414062 9.871094c32.050781 37.058593 49.703125 84.484375 49.703125 133.550781 0 35.117188-9.050781 69.742188-26.175781 100.140625-16.273438 28.886719-39.5625 53.566406-67.414063 71.527344h-102.519531v15.089843h130.9375v17.496094h-278.167969v-17.496094h122.792969v-15.089843h-94.371094c-27.851562-17.960938-51.140625-42.640625-67.417968-71.527344-17.121094-30.398437-26.171876-65.023437-26.171876-100.140625 0-112.628906 91.625-204.253906 204.253907-204.253906 51.964843 0 101.484375 19.527344 139.425781 54.988281l10.304688-11.023437c-40.75-38.082032-93.925782-59.054688-149.730469-59.054688-58.59375 0-113.675781 22.816406-155.101563 64.242188-41.429687 41.429687-64.242187 96.507812-64.242187 155.101562 0 37.703125 9.722656 74.890625 28.117187 107.542969 13.910156 24.691406 32.601563 46.515625 54.726563 64.125h-17.675781v32.585937h-37.847657l-16.292969 32.582032h-27.320312v55.820312h89.003906v-15.089844h-73.914062v-25.640625h334.589844v-15.089843h-305.488282l8.746094-17.496094h365.394531l16.292969 32.585937h21.558594v25.640625h-342.738282v15.089844h357.824219v-55.820312zm0 0"/><path d="m365.972656 456.179688h16.292969v15.089843h-16.292969zm0 0"/><path d="m73.316406 227.488281h15.085938v16.292969h-15.085938zm0 0"/><path d="m73.316406 260.074219h15.085938v16.289062h-15.085938zm0 0"/><path d="m358.429688 317.09375h15.085937v16.292969h-15.085937zm0 0"/><path d="m374.71875 300.804688h15.089844v16.289062h-15.089844zm0 0"/><path d="m283.910156 211.195312v-16.890624h16.894532v-15.089844h-16.894532v-16.894532h-15.089844v16.894532h-16.894531v15.089844h16.894531v16.890624zm0 0"/></g></svg>