<svg height="511pt" viewBox="1 -30 511.99898 511" width="511pt" xmlns="http://www.w3.org/2000/svg"><path d="m504.464844 95.214844v78.460937h-39.40625c-10.722656-30.511719-39.753906-52.304687-73.929688-52.304687-34.175781 0-63.207031 21.792968-73.929687 52.304687h-48.121094v-78.460937c0-9.675782-5.234375-18.132813-13.078125-22.667969 3.835938-2.179687 8.28125-3.488281 13.078125-3.488281h76.105469l-49.953125-61.023438h156.925781l-49.953125 61.023438h76.109375c14.472656 0 26.152344 11.683594 26.152344 26.15625zm0 0" fill="#fd6149"/><path d="m365.671875 208.550781c9.59375-.4375 17.089844-8.542969 16.742187-18.136719-.4375-9.589843-8.542968-17.085937-18.136718-16.738281-9.589844.4375-17.085938 8.542969-16.738282 18.132813.4375 9.59375 8.546876 17.089844 18.132813 16.742187zm34.175781-16.738281c.4375 9.589844 8.542969 17.085938 18.136719 16.738281 9.589844-.4375 17.085937-8.542969 16.738281-18.132812-.4375-9.589844-8.542968-17.089844-18.132812-16.742188-9.59375.4375-17.089844 8.546875-16.742188 18.136719zm-8.714844 121.355469h-34.875v-43.15625c-25.804687-12.816407-43.589843-39.40625-43.589843-70.179688 0-9.15625 1.570312-17.960937 4.53125-26.15625 10.726562-30.511719 39.757812-52.308593 73.933593-52.308593 34.171876 0 63.203126 21.796874 73.929688 52.308593 2.960938 8.195313 4.53125 17 4.53125 26.15625 0 30.773438-17.785156 57.363281-43.589844 70.179688v43.15625zm0 0" fill="#95adc0"/><path d="m434.722656 190.414062c.347656 9.59375-7.152344 17.699219-16.742187 18.136719-9.589844.347657-17.695313-7.148437-18.132813-16.742187-.347656-9.589844 7.148438-17.695313 16.738282-18.132813 9.589843-.347656 17.699218 7.152344 18.136718 16.738281zm0 0" fill="#d9eef7"/><path d="m382.414062 190.414062c.347657 9.59375-7.148437 17.699219-16.742187 18.136719-9.589844.347657-17.695313-7.148437-18.132813-16.742187-.347656-9.589844 7.148438-17.695313 16.738282-18.132813 9.589844-.347656 17.699218 7.152344 18.136718 16.738281zm0 0" fill="#d9eef7"/><path d="m269.078125 356.757812v-183.082031h48.121094c-2.960938 8.195313-4.53125 17.003907-4.53125 26.15625 0 30.773438 17.785156 57.367188 43.589843 70.179688v43.15625h69.746094v-43.15625c25.804688-12.816407 43.589844-39.40625 43.589844-70.179688 0-9.152343-1.570312-17.957031-4.535156-26.15625h39.40625v183.082031c0 14.472657-11.679688 26.15625-26.152344 26.15625h-76.109375l49.953125 61.023438h-156.925781l49.957031-61.023438h-76.109375c-4.796875 0-9.242187-1.308593-13.078125-3.488281 7.847656-4.535156 13.078125-12.992187 13.078125-22.667969zm0 0" fill="#835cc5"/><path d="m7.535156 356.757812v-183.082031h52.308594l4.097656 1.394531c-2.703125 7.761719-4.097656 16.128907-4.097656 24.761719 0 30.773438 17.785156 57.363281 43.589844 70.179688v43.15625h69.746094v-43.15625c25.804687-12.816407 43.589843-39.40625 43.589843-70.179688 0-8.632812-1.394531-17-4.097656-24.761719l4.097656-1.394531h52.308594v183.082031c0 9.675782-5.234375 18.132813-13.078125 22.667969-3.835938 2.179688-8.28125 3.488281-13.078125 3.488281h-76.109375l49.953125 61.023438h-156.921875l49.953125-61.023438h-76.109375c-14.46875-.003906-26.152344-11.683593-26.152344-26.15625zm0 0" fill="#835cc5"/><path d="m138.304688 313.167969h-34.871094v-43.15625c-25.804688-12.816407-43.589844-39.40625-43.589844-70.179688 0-8.632812 1.394531-17 4.097656-24.761719 10.289063-31.210937 39.667969-53.703124 74.363282-53.703124 34.699218 0 64.082031 22.492187 74.367187 53.703124 2.703125 7.761719 4.097656 16.128907 4.097656 24.761719 0 30.773438-17.785156 57.363281-43.589843 70.179688v43.15625zm-8.714844-122.054688c0-9.589843-7.847656-17.4375-17.4375-17.4375s-17.4375 7.847657-17.4375 17.4375c0 9.589844 7.847656 17.4375 17.4375 17.4375s17.4375-7.847656 17.4375-17.4375zm17.433594 0c0 9.589844 7.847656 17.4375 17.4375 17.4375 9.589843 0 17.4375-7.847656 17.4375-17.4375 0-9.589843-7.847657-17.4375-17.4375-17.4375-9.589844 0-17.4375 7.847657-17.4375 17.4375zm0 0" fill="#95adc0"/><path d="m164.460938 173.675781c9.589843 0 17.433593 7.847657 17.433593 17.4375 0 9.589844-7.84375 17.4375-17.433593 17.4375-9.589844 0-17.4375-7.847656-17.4375-17.4375 0-9.589843 7.847656-17.4375 17.4375-17.4375zm0 0" fill="#d9eef7"/><path d="m112.152344 173.675781c9.589844 0 17.4375 7.847657 17.4375 17.4375 0 9.589844-7.847656 17.4375-17.4375 17.4375s-17.4375-7.847656-17.4375-17.4375c0-9.589843 7.847656-17.4375 17.4375-17.4375zm0 0" fill="#d9eef7"/><path d="m269.078125 95.214844v78.460937h-52.308594l-4.097656 1.394531c-10.289063-31.210937-39.667969-53.703124-74.367187-53.703124-34.695313 0-64.078126 22.492187-74.363282 53.703124l-4.097656-1.394531h-52.308594v-78.460937c0-14.472656 11.679688-26.15625 26.152344-26.15625h76.109375l-49.953125-61.023438h156.925781l-49.953125 61.023438h76.105469c4.796875 0 9.242187 1.308594 13.078125 3.488281 7.847656 4.535156 13.078125 12.992187 13.078125 22.667969zm0 0" fill="#fd6149"/><path d="m109.796875 382.910156-49.953125 61.027344h52.308594l49.953125-61.027344zm0 0" fill="#8327c5"/><path d="m345.1875 382.910156-49.957031 61.027344h52.308593l49.957032-61.027344zm0 0" fill="#8327c5"/><path d="m59.84375 356.757812v-183.082031h-52.308594v183.082031c0 14.46875 11.683594 26.152344 26.152344 26.152344h52.308594c-14.46875 0-26.152344-11.679687-26.152344-26.152344zm0 0" fill="#8327c5"/><path d="m112.152344 8.035156h-52.308594l49.953125 61.023438h52.308594zm0 0" fill="#df412d"/><path d="m347.539062 8.035156h-52.308593l49.957031 61.023438h52.308594zm0 0" fill="#df412d"/><path d="m59.84375 95.214844c0-14.472656 11.683594-26.15625 26.15625-26.15625h-52.3125c-14.46875 0-26.152344 11.683594-26.152344 26.15625v78.460937h52.308594zm0 0" fill="#df412d"/><path d="m33.6875 340.503906h17.4375v15.070313h-17.4375zm0 0" fill="#fff"/><path d="m295.230469 340.503906h17.4375v15.070313h-17.4375zm0 0" fill="#fff"/><path d="m460.875 96.398438h17.4375v15.070312h-17.4375zm0 0" fill="#fff"/><g fill="#231f20"><path d="m478.3125 61.527344h-60.207031l49.957031-61.027344h-188.734375l49.953125 61.027344h-60.203125c-4.484375 0-8.945313.917968-13.082031 2.648437-4.152344-1.738281-8.601563-2.648437-13.074219-2.648437h-60.203125l49.957031-61.027344h-50.777343v15.070312h18.964843l-49.953125 61.023438h92.011719c3.285156 0 6.433594.84375 9.308594 2.476562 5.746093 3.320313 9.3125 9.507813 9.3125 16.144532v70.929687h-44.179688c-13.324219-31.558593-44.265625-52.308593-79.054687-52.308593-34.792969 0-65.730469 20.75-79.054688 52.308593h-44.183594v-70.929687c0-10.265625 8.351563-18.621094 18.617188-18.621094h92.015625l-49.953125-61.023438h79.992188v-15.070312h-111.804688l49.957031 61.027344h-60.207031c-18.574219 0-33.6875 15.109375-33.6875 33.6875v261.542968c0 18.574219 15.113281 33.6875 33.6875 33.6875h60.207031l-49.957031 61.027344h94.367188v-15.070312h-62.558594l49.957031-61.027344h-92.015625c-10.265625 0-18.617188-8.351562-18.617188-18.617188v-175.546874h39.304688c-1.363281 6.019531-2.066406 12.25-2.066406 18.621093 0 31.234375 16.582031 59.441407 43.589844 74.710938v46.160156h84.8125v-46.160156c27.007812-15.265625 43.589843-43.476563 43.589843-74.710938 0-6.371093-.703125-12.601562-2.066406-18.621093h39.304687v70.929687h15.070313v-70.929687h30.570313c-1.355469 6.058593-2.050782 12.289062-2.050782 18.621093 0 31.234375 16.585938 59.441407 43.59375 74.710938v46.160156h84.8125v-46.160156c27.007813-15.269531 43.589844-43.476563 43.589844-74.710938 0-6.339843-.691406-12.574219-2.046875-18.621093h21.851563v18.621093h15.066406v-104.617187c.003906-18.578125-15.109375-33.6875-33.683594-33.6875zm-308.484375 201.738281-4.183594 2.074219v40.292968h-19.804687v-27.339843h-15.070313v27.339843h-19.800781v-40.292968l-4.183594-2.074219c-24.308594-12.074219-39.40625-36.378906-39.40625-63.433594 0-7.777343 1.238282-15.273437 3.675782-22.28125l.042968-.121093c9.566406-29.023438 36.574219-48.527344 67.207032-48.527344 30.632812 0 57.640624 19.503906 67.210937 48.527344l.039063.121093c2.441406 7.007813 3.679687 14.503907 3.679687 22.28125 0 27.054688-15.101563 51.359375-39.40625 63.433594zm252.824219 0-4.183594 2.074219v40.292968h-19.804688v-27.339843h-15.066406v27.339843h-19.804687v-40.292968l-4.183594-2.074219c-24.304687-12.074219-39.40625-36.378906-39.40625-63.433594 0-8.160156 1.375-16.097656 4.105469-23.65625 9.9375-28.277343 36.789062-47.273437 66.824218-47.273437 30.03125 0 56.882813 18.996094 66.84375 47.335937 2.707032 7.492188 4.082032 15.429688 4.082032 23.59375 0 27.054688-15.101563 51.359375-39.40625 63.433594zm47.546875-97.121094c-13.355469-31.496093-44.46875-52.308593-79.066407-52.308593-34.625 0-65.75 20.835937-79.074218 52.308593h-35.445313v-70.929687c0-6.714844-2.023437-13.175782-5.632812-18.621094h90.109375l-49.953125-61.023438h125.113281l-49.953125 61.023438h92.015625c10.265625 0 18.617188 8.355469 18.617188 18.621094v70.929687zm0 0"/><path d="m496.929688 356.757812c0 10.265626-8.351563 18.617188-18.617188 18.617188h-92.015625l49.953125 61.027344h-125.113281l49.953125-61.027344h-90.105469c3.601563-5.4375 5.628906-11.898438 5.628906-18.617188v-69.746093h-15.070312v69.746093c0 6.636719-3.570313 12.824219-9.265625 16.113282-2.921875 1.664062-6.070313 2.503906-9.355469 2.503906h-92.011719l49.953125 61.027344h-36.402343v15.070312h68.210937l-49.953125-61.027344h60.203125c4.464844 0 8.90625-.910156 13.074219-2.652343 4.152344 1.738281 8.605468 2.652343 13.082031 2.652343h60.203125l-49.957031 61.027344h188.734375l-49.953125-61.027344h60.203125c18.578125 0 33.691406-15.113281 33.691406-33.6875v-130.773437h-15.070312zm0 0"/><path d="m137.125 191.113281c0-13.769531-11.203125-24.96875-24.972656-24.96875-13.769532 0-24.96875 11.199219-24.96875 24.96875s11.199218 24.972657 24.96875 24.972657c13.769531 0 24.972656-11.203126 24.972656-24.972657zm-24.972656 9.902344c-5.460938 0-9.902344-4.441406-9.902344-9.902344 0-5.457031 4.441406-9.898437 9.902344-9.898437 5.460937 0 9.902344 4.441406 9.902344 9.898437 0 5.460938-4.445313 9.902344-9.902344 9.902344zm0 0"/><path d="m164.460938 166.144531c-13.769532 0-24.972657 11.199219-24.972657 24.96875s11.203125 24.972657 24.972657 24.972657c13.769531 0 24.96875-11.203126 24.96875-24.972657s-11.199219-24.96875-24.96875-24.96875zm0 34.871094c-5.460938 0-9.902344-4.441406-9.902344-9.902344 0-5.457031 4.441406-9.898437 9.902344-9.898437 5.460937 0 9.902343 4.441406 9.902343 9.898437 0 5.460938-4.441406 9.902344-9.902343 9.902344zm0 0"/><path d="m389.941406 190.140625-.003906-.066406c-.621094-13.691407-12.261719-24.472657-26-23.925781-13.691406.625-24.425781 12.257812-23.925781 26.003906.609375 13.382812 11.742187 23.941406 25.082031 23.941406.304688 0 .613281-.007812.921875-.019531 13.691406-.621094 24.425781-12.253907 23.925781-25.933594zm-24.542968 10.878906c-5.453126.199219-10.082032-4.085937-10.328126-9.484375-.199218-5.445312 4.085938-10.082031 9.480469-10.328125.121094-.003906.242188-.007812.363281-.007812 5.28125 0 9.707032 4.199219 9.96875 9.523437.179688 5.4375-4.097656 10.050782-9.484374 10.296875zm0 0"/><path d="m442.246094 190.074219c-.621094-13.691407-12.261719-24.472657-26-23.925781-13.691406.625-24.425782 12.257812-23.925782 26.003906.609376 13.382812 11.742188 23.941406 25.082032 23.941406.304687 0 .613281-.007812.921875-.019531 13.691406-.621094 24.421875-12.253907 23.925781-25.933594zm-24.535156 10.945312c-5.457032.199219-10.085938-4.085937-10.332032-9.484375-.199218-5.445312 4.085938-10.082031 9.480469-10.328125.121094-.003906.242187-.007812.363281-.007812 5.28125 0 9.710938 4.199219 9.96875 9.523437.179688 5.4375-4.097656 10.050782-9.480468 10.296875zm0 0"/><path d="m129.589844 235.886719h17.433594v15.070312h-17.433594zm0 0"/><path d="m382.414062 235.886719h17.433594v15.070312h-17.433594zm0 0"/><path d="m33.6875 305.632812h17.4375v15.070313h-17.4375zm0 0"/><path d="m68.5625 340.503906h17.433594v15.070313h-17.433594zm0 0"/><path d="m295.230469 305.632812h17.4375v15.070313h-17.4375zm0 0"/><path d="m330.105469 340.503906h17.433593v15.070313h-17.433593zm0 0"/><path d="m225.488281 96.398438h17.433594v15.070312h-17.433594zm0 0"/></g><path d="m190.613281 96.398438h17.4375v15.070312h-17.4375zm0 0" fill="#fff"/></svg>