<svg height="512pt" viewBox="0 0 512.00102 512" width="512pt" xmlns="http://www.w3.org/2000/svg"><path d="m272.03125 312.105469h48.085938s16.03125 0 16.03125-16.03125v64.117187s0 16.03125 16.03125 16.03125h48.089843s16.027344 0 16.027344-16.03125c0-14.746094 0-152.039062 0-173.519531 53.941406-10.261719 88.164063-25.648437 88.164063-42.882813v280.523438c0 26.527344-21.558594 48.089844-48.089844 48.089844h-136.253906l16.03125 32.058594h-160.296876l16.03125-32.058594h-136.253906c-26.53125 0-48.089844-21.5625-48.089844-48.089844v-280.523438c0 17.234376 34.222657 32.621094 88.164063 42.882813v93.371094s0 16.03125 16.03125 16.03125h48.089844s16.027343 0 16.027343-16.03125v48.089843s0 16.03125 16.03125 16.03125h48.089844s16.027344 0 16.027344-16.03125c0-5.609374 0-18.195312 0-32.058593 0 0 0 16.03125 16.03125 16.03125zm0 0" fill="#95adc0"/><path d="m336.148438 196.929688c29.65625-2.324219 56.746093-5.769532 80.148437-10.257813v173.523437c0 16.027344-16.03125 16.027344-16.03125 16.027344s-32.058594 0-48.089844 0c-16.027343 0-16.027343-16.027344-16.027343-16.027344v-64.121093s0-87.203125 0-99.144531zm0 0" fill="#31e8bb"/><path d="m336.148438 296.074219c0 16.03125-16.03125 16.03125-16.03125 16.03125s-32.058594 0-48.085938 0c-16.03125 0-16.03125-16.03125-16.03125-16.03125v-96.179688c28.050781 0 54.980469-1.039062 80.148438-2.964843zm0 0" fill="#ffe451"/><path d="m175.851562 328.132812v-48.089843s0-76.058594 0-83.113281c25.167969 1.925781 52.097657 2.964843 80.148438 2.964843v96.179688 32.058593c0 16.03125-16.03125 16.03125-16.03125 16.03125s-32.058594 0-48.089844 0c-16.027344 0-16.027344-16.03125-16.027344-16.03125zm0 0" fill="#31e8bb"/><path d="m175.851562 280.042969c0 16.03125-16.03125 16.03125-16.03125 16.03125s-32.058593 0-48.089843 0c-16.027344 0-16.027344-16.03125-16.027344-16.03125v-93.371094c23.402344 4.488281 50.492187 7.933594 80.148437 10.257813zm0 0" fill="#ffe451"/><path d="m344.242188 91.292969c-2.484376 2.246093-5.128907 4.25-8.09375 5.933593v46.566407h-48.089844v-46.566407c-3.605469-2.085937-6.890625-4.570312-9.777344-7.535156-8.816406-8.65625-14.265625-20.757812-14.265625-34.0625 0-26.53125 21.558594-48.089844 48.089844-48.089844 26.527343 0 48.085937 21.558594 48.085937 48.089844 0 14.183594-6.171875 26.847656-15.949218 35.664063zm0 0" fill="#d9eef7"/><path d="m416.296875 186.671875c-23.402344 4.488281-50.492187 7.933594-80.148437 10.257813-25.167969 1.925781-52.097657 2.964843-80.148438 2.964843s-54.980469-1.039062-80.148438-2.964843c-29.65625-2.324219-56.746093-5.769532-80.148437-10.257813-53.941406-10.257813-88.164063-25.648437-88.164063-42.878906 0-31.019531 111.246094-56.105469 248.460938-56.105469 5.371094 0 10.738281 0 16.03125.082031l6.25 1.921875c2.882812 2.964844 6.171875 5.449219 9.777344 7.535156v46.566407h48.089844v-46.566407c2.964843-1.683593 5.609374-3.6875 8.09375-5.933593 93.617187 8.097656 160.21875 28.535156 160.21875 52.5 0 17.230469-34.222657 32.621093-88.164063 42.878906zm0 0" fill="#ffe451"/><path d="m223.941406 186.671875c-53.941406-10.257813-88.164062-25.648437-88.164062-42.878906 0-22.746094 59.863281-42.289063 145.886718-51.101563-1.160156-.960937-2.324218-1.914062-3.382812-3l-6.25-1.925781c-5.292969-.078125-10.660156-.078125-16.03125-.078125-137.214844 0-248.460938 25.085938-248.460938 56.105469 0 17.230469 34.222657 32.621093 88.164063 42.878906 23.402344 4.488281 50.492187 7.933594 80.148437 10.257813 25.167969 1.925781 52.097657 2.964843 80.148438 2.964843 22.195312 0 43.644531-.675781 64.117188-1.898437-5.402344-.324219-10.773438-.664063-16.027344-1.066406-29.65625-2.324219-56.746094-5.769532-80.148438-10.257813zm0 0" fill="#fbb03b"/><path d="m87.6875 424.3125v-239.25c-49.273438-10.226562-80.148438-24.914062-80.148438-41.269531v280.519531c0 26.527344 21.558594 48.089844 48.089844 48.089844h80.148438c-26.53125 0-48.089844-21.5625-48.089844-48.089844zm0 0" fill="#8095a6"/><path d="m103.71875 439.867188h-40.074219c-17.292969 0-23.570312-14.09375-23.570312-23.570313v-40.074219h15.078125v40.074219c.183594 7.65625 5.996094 8.492187 8.492187 8.492187h40.074219zm0 0" fill="#fff"/><path d="m376.699219 215.925781h15.078125v80.148438h-15.078125zm0 0" fill="#fff"/><path d="m199.894531 272.507812h16.03125v15.078126h-16.03125zm0 0" fill="#fff"/><path d="m215.925781 136.253906h16.03125v15.078125h-16.03125zm0 0" fill="#fff"/><g fill="#231f20"><path d="m461.765625 104.414062c-26.292969-8.453124-61.546875-15.066406-102.601563-19.28125 5.53125-8.78125 8.566407-19 8.566407-29.503906 0-30.675781-24.953125-55.628906-55.625-55.628906-30.675781 0-55.628907 24.953125-55.628907 55.628906 0 8.667969 1.980469 17.007813 5.703126 24.527344-2.074219-.007812-4.140626-.007812-6.179688-.007812-24.746094 0-49.1875.8125-72.648438 2.414062l1.027344 15.042969c23.121094-1.578125 47.21875-2.378907 71.621094-2.378907 5.253906 0 10.683594 0 15.917969.078126l.019531-1.332032c.332031.347656.65625.699219 1.003906 1.039063 2.261719 2.316406 4.800782 4.445312 7.578125 6.363281v34.875h-32.535156v15.078125h136.253906v-15.078125h-40.550781v-34.878906c1.023438-.710938 2.035156-1.476563 3.039062-2.289063 44.707032 4.023438 82.835938 10.816407 110.425782 19.683594 37.851562 12.175781 39.769531 22.980469 39.769531 25.023437 0 7.382813-17.277344 23.160157-82.042969 35.476563-23 4.410156-49.6875 7.824219-79.304687 10.148437-25.558594 1.953126-52.332031 2.941407-79.574219 2.941407-27.238281 0-54.011719-.988281-79.558594-2.941407-29.632812-2.324218-56.320312-5.738281-79.328125-10.148437-64.757812-12.316406-82.035156-28.09375-82.035156-35.472656 0-11.777344 39.488281-34.199219 145.453125-44.246094l-1.421875-15.011719c-45.128906 4.28125-83.636719 11.425782-111.359375 20.667969-31.683594 10.5625-47.75 23.546875-47.75 38.589844v72.132812h15.078125v-48.789062c3.691406 2.609375 8.039063 5.121093 13.074219 7.519531 14.707031 7 34.886718 13.121094 60.011718 18.214844v87.175781c0 9.472656 6.277344 23.566406 23.570313 23.566406h48.085937c2.609376 0 5.570313-.480469 8.492188-1.53125v26.050781c0 9.476563 6.277344 23.570313 23.570312 23.570313h48.085938c9.476562 0 23.570312-6.277344 23.570312-23.570313v-9.820312c2.472657.847656 5.292969 1.332031 8.492188 1.332031h48.089844c2.609375 0 5.570312-.480469 8.488281-1.53125v42.082031c0 9.472657 6.277344 23.566407 23.570313 23.566407h48.089843c9.472657 0 23.566407-6.277344 23.566407-23.566407v-167.324218c25.132812-5.097656 45.304687-11.214844 60.011718-18.21875 5.039063-2.398438 9.382813-4.90625 13.074219-7.515625v136.953125h15.078125v-160.296875c0-15.410157-16.902344-28.660157-50.234375-39.378907zm-166.167969 31.839844v-43.378906l-3.765625-2.175781c-3.113281-1.796875-5.851562-3.90625-8.148437-6.265625l-.121094-.121094c-7.742188-7.601562-12.007812-17.789062-12.007812-28.683594 0-22.359375 18.191406-40.550781 40.550781-40.550781s40.546875 18.191406 40.546875 40.550781c0 11.5625-4.777344 22.242188-13.460938 30.074219-2.265625 2.046875-4.480468 3.671875-6.765625 4.96875l-3.816406 2.164063v43.417968zm-135.777344 152.28125h-48.085937c-7.214844 0-8.417969-5.371094-8.492187-8.488281v-84.332031c19.515624 3.398437 41.335937 6.132812 65.070312 8.160156v76.167969c0 7.214843-5.371094 8.417969-8.492188 8.492187zm88.640626 39.597656c0 7.214844-5.371094 8.417969-8.492188 8.492188h-48.089844c-7.210937 0-8.414062-5.371094-8.488281-8.492188v-123.105468c21.082031 1.429687 42.902344 2.226562 65.070313 2.375zm71.65625-23.566406h-48.085938c-7.214844 0-8.417969-5.375-8.492188-8.492187v-88.671875c22.164063-.148438 43.980469-.945313 65.070313-2.375v91.046875c0 7.214843-5.371094 8.417969-8.492187 8.492187zm80.148437 64.117188h-48.085937c-7.214844 0-8.417969-5.371094-8.492188-8.488282v-156.320312c23.730469-2.027344 45.558594-4.761719 65.070312-8.160156v164.480468c0 7.210938-5.371093 8.414063-8.492187 8.488282zm0 0"/><path d="m496.921875 424.3125c0 22.359375-18.191406 40.550781-40.550781 40.550781h-148.449219l16.027344 32.058594h-135.898438l16.027344-32.058594h-148.449219c-22.359375 0-40.550781-18.191406-40.550781-40.550781v-176.328125h-15.078125v176.328125c0 30.671875 24.953125 55.628906 55.628906 55.628906h124.054688l-16.03125 32.058594h184.695312l-16.03125-32.058594h124.054688c30.671875 0 55.625-24.957031 55.625-55.628906v-96.179688h-15.074219zm0 0"/><path d="m119.746094 424.789062h16.03125v15.078126h-16.03125zm0 0"/><path d="m151.804688 424.789062h16.03125v15.078126h-16.03125zm0 0"/><path d="m424.3125 424.789062h16.027344v15.078126h-16.027344zm0 0"/><path d="m440.339844 408.757812h16.03125v15.078126h-16.03125zm0 0"/><path d="m456.371094 392.726562h16.03125v15.078126h-16.03125zm0 0"/><path d="m376.699219 312.105469h15.078125v16.027343h-15.078125zm0 0"/><path d="m199.894531 304.566406h16.03125v15.078125h-16.03125zm0 0"/><path d="m199.894531 240.445312h16.03125v15.078126h-16.03125zm0 0"/><path d="m183.867188 136.253906h16.027343v15.078125h-16.027343zm0 0"/><path d="m167.835938 152.28125h16.03125v15.078125h-16.03125zm0 0"/><path d="m103.71875 128.238281h16.027344v15.078125h-16.027344zm0 0"/></g><path d="m135.777344 128.238281h16.03125v15.078125h-16.03125zm0 0" fill="#fff"/><path d="m424.3125 136.253906h16.027344v15.078125h-16.027344zm0 0" fill="#fff"/></svg>