<svg height="511pt" viewBox="0 1 511 511.99997" width="511pt" xmlns="http://www.w3.org/2000/svg"><path d="m336.246094 112.777344v31.976562h-55.957032v119.90625h-31.976562v-119.90625h-55.957031v-31.976562h55.957031v-39.96875h31.976562v39.96875zm0 0" fill="#fd6149"/><path d="m440.167969 120.773438-79.941407 383.707031h-191.851562l-87.933594-383.707031 183.859375-111.917969zm-103.921875 23.980468v-31.976562h-55.957032v-39.96875h-31.976562v39.96875h-55.957031v31.976562h55.957031v119.90625h31.976562v-119.90625zm0 0" fill="#95adc0"/><path d="m303.382812 33.726562-39.082031-24.871093-183.859375 111.917969 87.933594 383.707031h79.9375l-87.933594-383.707031zm0 0" fill="#8095a6"/><path d="m192.355469 464.984375h143.890625v15.039063h-143.890625zm0 0" fill="#fff"/><g fill="#231f20"><path d="m462.210938 496.960938 24.183593-36.273438-12.515625-8.339844-26.191406 39.289063v-51.109375h-15.039062v43.804687l-17.417969-46.445312-14.078125 5.28125 20.167968 53.792969h-51.84375l56.402344-270.734376-14.722656-3.066406-57.042969 273.800782h-179.75l-24.308593-106.074219-14.65625 3.359375 23.539062 102.714844h-64.449219l24.183594-36.273438-12.511719-8.339844-26.195312 39.289063v-51.109375h-15.039063v43.804687l-17.414062-46.445312-14.082031 5.28125 20.171874 53.792969h-53.101562v15.039062h511.613281v-15.039062zm0 0"/><path d="m144.558594 366.902344-55.578125-242.527344 175.230469-106.660156 167.535156 106.609375-15.59375 74.855469 14.722656 3.066406 17.714844-85.027344-184.203125-117.21875-192.488281 117.167969 58.003906 253.09375zm0 0"/><path d="m343.765625 105.257812h-55.957031v-39.96875h-47.015625v39.96875h-55.957031v47.015626h55.957031v119.910156h47.015625v-119.910156h55.957031zm-15.039063 31.976563h-55.957031v119.910156h-16.9375v-119.910156h-55.957031v-16.9375h55.957031v-39.96875h16.9375v39.96875h55.957031zm0 0"/><path d="m192.355469 433.007812h15.988281v15.039063h-15.988281zm0 0"/><path d="m176.367188 417.019531h15.988281v15.039063h-15.988281zm0 0"/><path d="m320.257812 433.007812h15.988282v15.039063h-15.988282zm0 0"/><path d="m336.246094 417.019531h15.988281v15.039063h-15.988281zm0 0"/></g><path d="m161.0625 346.355469-49.359375-205.65625 37.320313-18.660157 6.726562 13.453126-26.632812 13.316406 46.566406 194.039062zm0 0" fill="#fff"/></svg>