<svg height="512pt" viewBox="-80 0 512 512.00001" width="512pt" xmlns="http://www.w3.org/2000/svg"><path d="m239.96875 328.132812c13.308594 0 24.046875 10.738282 24.046875 24.042969 0 13.308594-10.738281 24.046875-24.046875 24.046875-13.304688 0-24.042969-10.738281-24.042969-24.046875 0-13.300781 10.738281-24.042969 24.042969-24.042969zm0 0" fill="#835cc5"/><path d="m127.761719 392.253906c13.304687 0 24.046875 10.738282 24.046875 24.042969s-10.742188 24.042969-24.046875 24.042969c-13.304688 0-24.042969-10.738282-24.042969-24.042969s10.738281-24.042969 24.042969-24.042969zm0 0" fill="#835cc5"/><path d="m344.164062 296.074219v208.386719h-336.625v-240.445313h88.164063l32.058594 32.058594 24.046875-24.042969h112.207031l24.042969 24.042969zm-80.148437 56.105469c0-13.304688-10.738281-24.046876-24.046875-24.046876-13.304688 0-24.042969 10.742188-24.042969 24.046876 0 13.304687 10.738281 24.042968 24.042969 24.042968 13.308594 0 24.046875-10.738281 24.046875-24.042968zm-112.207031 64.117187c0-13.304687-10.742188-24.042969-24.046875-24.042969-13.304688 0-24.042969 10.738282-24.042969 24.042969s10.738281 24.042969 24.042969 24.042969c13.304687 0 24.046875-10.738282 24.046875-24.042969zm0 0" fill="#31e8bb"/><path d="m344.164062 143.792969v152.28125h-56.105468l-24.042969-24.042969h-112.207031l-24.046875 24.042969-32.058594-32.058594h-88.164063v-120.222656l64.121094-56.105469h208.382813zm0 0" fill="#d9eef7"/><path d="m231.957031 47.613281v40.074219h-112.210937v-40.074219zm0 0" fill="#95adc0"/><path d="m143.792969 7.539062h64.117187v40.074219h-64.117187zm0 0" fill="#d9eef7"/><path d="m7.539062 264.015625h72.132813v240.445313h-72.132813zm0 0" fill="#1cb28b"/><path d="m79.671875 143.792969 64.121094-56.105469h-72.132813l-64.121094 56.105469v120.222656h72.132813zm0 0" fill="#95adc0"/><path d="m55.152344 191.882812h-15.078125v-35.183593l36.476562-36.476563h35.183594v15.078125h-28.9375l-27.644531 27.644531zm0 0" fill="#fff"/><path d="m296.074219 424.789062h16.03125v15.078126h-16.03125zm0 0" fill="#fff"/><path d="m264.015625 456.847656h16.027344v15.078125h-16.027344zm0 0" fill="#fff"/><path d="m63.644531 320.59375h16.027344v15.078125h-16.027344zm0 0" fill="#fff"/><path d="m79.675781 336.625h16.027344v15.078125h-16.027344zm0 0" fill="#fff"/><g fill="#231f20"><path d="m282.878906 80.148438h-43.382812v-40.074219h-24.046875v-40.074219h-79.195313v40.074219h-24.046875v40.074219h-43.382812l-68.824219 60.222656v371.628906h199.894531v-15.078125h-184.816406v-349.707031l59.414063-51.988282h202.71875l59.414062 51.988282v36.652344h15.078125v-43.496094zm-131.546875-65.070313h49.039063v24.996094h-49.039063zm73.085938 65.070313h-97.132813v-24.996094h97.132813zm0 0"/><path d="m336.625 288.535156h-45.441406l-24.046875-24.042968h-118.453125l-20.921875 20.921874-28.9375-28.9375h-67.238281v15.078126h60.992187l35.183594 35.179687 27.167969-27.167969h105.964843l24.042969 24.046875h51.6875v193.308594h-112.683594v15.078125h127.761719v-304.089844h-15.078125zm0 0"/><path d="m40.074219 207.910156h15.078125v16.03125h-15.078125zm0 0"/><path d="m296.074219 456.847656h16.03125v15.078125h-16.03125zm0 0"/><path d="m127.761719 384.714844c-17.414063 0-31.582031 14.167968-31.582031 31.582031s14.167968 31.585937 31.582031 31.585937c17.414062 0 31.585937-14.171874 31.585937-31.585937s-14.171875-31.582031-31.585937-31.582031zm0 48.085937c-9.101563 0-16.503907-7.402343-16.503907-16.503906s7.402344-16.507813 16.503907-16.507813c9.101562 0 16.507812 7.40625 16.507812 16.507813s-7.40625 16.503906-16.507812 16.503906zm0 0"/><path d="m271.554688 352.175781c0-17.414062-14.171876-31.582031-31.585938-31.582031s-31.582031 14.167969-31.582031 31.582031c0 17.417969 14.167969 31.585938 31.582031 31.585938s31.585938-14.167969 31.585938-31.585938zm-48.089844 0c0-9.097656 7.402344-16.503906 16.503906-16.503906s16.507812 7.40625 16.507812 16.503906c0 9.105469-7.40625 16.507813-16.507812 16.507813-9.097656 0-16.503906-7.402344-16.503906-16.507813zm0 0"/><path d="m223.941406 416.773438h16.027344v15.078124h-16.027344zm0 0"/><path d="m47.613281 448.832031h16.03125v15.078125h-16.03125zm0 0"/><path d="m167.835938 312.578125h16.03125v15.078125h-16.03125zm0 0"/></g></svg>