<svg height="512pt" viewBox="0 -12 512.00003 512" width="512pt" xmlns="http://www.w3.org/2000/svg"><path d="m72 447.523438-14.800781 9.839843-1.199219-1.839843v-424l24-24h344l32 24v416h-32l-40 32-56-24-16-16-64 16-56 24-56-24zm0 0" fill="#95adc0"/><path d="m160 7.523438h-80l-24 24v424l1.199219 1.839843 14.800781-9.839843 64 8v-424zm0 0" fill="#7b90a0"/><path d="m137.199219 457.363281 1.214843-.804687-2.414062-1.035156zm0 0" fill="#95adc0"/><g fill="#fff"><path d="m104.699219 401.351562-9.210938-36.847656 32.984375-24.742187v-27.761719h42.035156l34.007813 25.503906-9.03125 12.039063-29.992187-22.492188h-21.96875v20.238281l-31.011719 23.257813 6.789062 27.152344zm0 0"/><path d="m173.320312 388.84375-10.640624-10.640625 3.636718-3.636719-16-24 28.363282-28.363281 10.640624 10.640625-19.636718 19.640625 16 24zm0 0"/><path d="m104.476562 56v143.523438h15.046876v-56.472657h45.359374l19.59375 19.589844v36.882813h15.050782v-43.117188l-13.359375-13.355469h21.355469v-66.640625l-20.40625-20.410156zm87.996094 72h-72.949218v-56.949219h61.359374l11.589844 11.589844zm0 0"/><path d="m288 71.050781v-15.050781h-64v15.050781h24.476562v112.949219h-24.476562v15.050781h64v-15.050781h-24.476562v-112.949219zm0 0"/><path d="m327.527344 199.523438h-15.050782v-143.523438h74.640626l28.40625 28.410156v46.230469l-20.40625 20.410156h-67.589844zm0-63.523438h61.355468l11.59375-11.59375v-33.765625l-19.59375-19.589844h-53.355468zm0 0"/><path d="m416 408h16v15.050781h-16zm0 0"/><path d="m384 408h16v15.050781h-16zm0 0"/><path d="m368 200h16v15.050781h-16zm0 0"/><path d="m384 216h16v15.050781h-16zm0 0"/></g><path d="m448.472656 35.289062v228.234376h15.050782v-235.761719l-37.015626-27.761719h-146.507812v15.050781h141.492188zm0 0" fill="#231f20"/><path d="m63.523438 34.640625 19.59375-19.589844h172.882812v-15.050781h-179.117188l-28.40625 28.410156v147.113282h15.046876zm0 0" fill="#231f20"/><path d="m499.117188 464-24-24h-11.59375v-152.476562h-15.050782v67.824218l-19.519531-9.761718-27.449219-36.597657-41.8125 31.363281 7.128906 35.648438h-22.820312v15.050781h41.179688l-8.871094-44.351562 22.1875-16.640625 20.550781 27.402344 29.425781 14.714843v67.824219h-27.113281l-38.539063 30.832031-50.523437-21.652343-17.988281-17.988282-68.71875 17.179688-53.589844 22.96875-54.011719-23.152344-67.828125-8.476562-6.636718 4.410156v-244.597656h-15.046876v254.617187l-26.757812 17.859375h-21.71875v15.050781h26.28125l35.085938-23.421875 12.472656-8.292968 60.171875 7.523437 57.988281 24.851563 58.410156-25.03125 59.28125-14.820313 14.011719 14.011719 61.476563 26.347656 41.460937-33.167969h42.242187l24 24h19.117188v-15.050781zm0 0" fill="#231f20"/><path d="m218.378906 414.664062 27.570313-9.191406 7.882812-23.648437 24.519531-6.128907 29.132813 21.847657 9.03125-12.039063-34.867187-26.148437-39.480469 9.871093-8.117188 24.347657-20.429687 6.8125zm0 0" fill="#231f20"/><path d="m80 224h16v15.050781h-16zm0 0" fill="#231f20"/><path d="m80 256h16v15.050781h-16zm0 0" fill="#231f20"/><path d="m80 288h16v15.050781h-16zm0 0" fill="#231f20"/><path d="m224 280h16v15.050781h-16zm0 0" fill="#231f20"/><path d="m256 248h16v15.050781h-16zm0 0" fill="#231f20"/><path d="m296 312h16v15.050781h-16zm0 0" fill="#fff"/></svg>