<svg height="512pt" viewBox="-12 0 512 512.00001" width="512pt" xmlns="http://www.w3.org/2000/svg"><path d="m480.414062 127.761719v208.386719h-80.148437l-32.058594 32.058593-24.042969-32.058593h-152.28125v-208.386719zm0 0" fill="#fd6149"/><path d="m406.917969 453.324219c-41.835938 32.0625-94.171875 51.136719-150.917969 51.136719-137.214844 0-248.460938-111.246094-248.460938-248.460938s111.246094-248.460938 248.460938-248.460938c25.566406 0 50.253906 3.847657 73.496094 11.058594-36.386719 27.894532-64.839844 65.5625-81.429688 109.164063h-56.1875v208.386719h72.136719v1.921874c30.9375 54.660157 81.910156 96.421876 142.902344 115.253907zm0 0" fill="#ffe451"/><path d="m191.882812 127.761719h80.148438v208.386719h-80.148438zm0 0" fill="#df412d"/><path d="m79.671875 256c0-124.945312 92.253906-228.324219 212.351563-245.816406-11.769532-1.710938-23.789063-2.644532-36.023438-2.644532-137.214844 0-248.460938 111.246094-248.460938 248.460938s111.246094 248.460938 248.460938 248.460938c12.074219 0 23.898438-1.039063 35.515625-2.707032-119.851563-17.710937-211.84375-120.984375-211.84375-245.753906zm0 0" fill="#fbb03b"/><path d="m79.195312 223.941406h-15.078124c0-88.128906 71.695312-159.824218 159.824218-159.824218v15.078124c-79.8125 0-144.746094 64.933594-144.746094 144.746094zm0 0" fill="#fff"/><path d="m335.671875 303.613281h-63.167969v-31.582031h15.078125v16.503906h33.011719v-36.65625l-41.761719-19.730468 41.761719-20.882813v-35.890625h-33.011719v16.507812h-15.078125v-31.585937h63.167969v60.289063l-22.355469 11.175781 22.355469 10.566406zm0 0" fill="#fff"/><path d="m399.792969 304.089844h-15.078125v-128.714844h-16.507813v-15.078125h31.585938zm0 0" fill="#fff"/><path d="m216.402344 256h15.078125v16.03125h-15.078125zm0 0" fill="#fff"/><path d="m440.816406 256h15.078125v16.03125h-15.078125zm0 0" fill="#fff"/><g fill="#231f20"><path d="m64.117188 239.96875h15.078124v16.03125h-15.078124zm0 0"/><path d="m48.089844 256h15.078125v16.03125h-15.078125zm0 0"/><path d="m64.117188 272.03125h15.078124v16.027344h-15.078124zm0 0"/><path d="m392.253906 120.222656v15.078125h80.625v193.308594h-16.507812v15.078125h31.585937v-223.464844zm0 0"/><path d="m369.023438 356.730469-21.089844-28.121094h-148.511719v-193.308594h168.785156v-15.078125h-108.925781c16.316406-37.601562 42.007812-70.503906 74.800781-95.640625l11.566407-8.863281-13.917969-4.320312c-24.371094-7.5625-49.851563-11.398438-75.730469-11.398438-68.378906 0-132.664062 26.628906-181.015625 74.984375-48.355469 48.351563-74.984375 112.636719-74.984375 181.015625 0 19.507812 2.203125 38.953125 6.554688 57.796875l14.691406-3.390625c-4.09375-17.730469-6.167969-36.039062-6.167969-54.40625 0-64.351562 25.0625-124.847656 70.566406-170.355469 45.503907-45.507812 106.007813-70.566406 170.355469-70.566406 19.5 0 38.75 2.3125 57.414062 6.882813-31.011718 26.71875-55.148437 60.371093-70.460937 98.261718h-58.609375v223.464844h74.214844c15.804687 27.378906 36.273437 51.367188 60.894531 71.304688 21.574219 17.476562 45.476563 31.144531 71.21875 40.761718-39.824219 26.980469-86.089844 41.167969-134.671875 41.167969-103.1875 0-194.859375-65.585937-228.113281-163.203125l-14.269531 4.863281c35.332031 103.726563 132.738281 173.417969 242.382812 173.417969 56.746094 0 110.519531-18.21875 155.503906-52.691406l11.589844-8.878906-13.949219-4.308594c-55.402343-17.105469-102.253906-53.289063-133.007812-102.433594h64.257812l26.996094 36 36-36h28.933594v-15.078125h-35.179688zm0 0"/><path d="m231.480469 167.359375h16.503906v-15.078125h-31.582031v87.6875h15.078125zm0 0"/><path d="m216.402344 288.058594h15.078125v16.03125h-15.078125zm0 0"/><path d="m440.816406 288.058594h15.078125v16.03125h-15.078125zm0 0"/><path d="m440.816406 223.941406h15.078125v16.027344h-15.078125zm0 0"/></g></svg>