<svg height="512pt" viewBox="-80 0 512 512.00001" width="512pt" xmlns="http://www.w3.org/2000/svg"><path d="m344.164062 151.808594v64.117187h-336.625v-64.117187l64.121094-56.105469h208.382813zm0 0" fill="#ffe451"/><path d="m7.539062 456.371094h336.625v48.089844h-336.625zm0 0" fill="#ffe451"/><path d="m7.539062 215.925781h336.625v240.445313h-336.625zm0 0" fill="#fd6149"/><path d="m119.746094 71.660156h112.210937v24.042969h-112.210937zm0 0" fill="#95adc0"/><path d="m143.792969 31.585938h64.117187v40.074218h-64.117187zm0 0" fill="#d9eef7"/><path d="m119.746094 7.539062h112.210937v24.046876h-112.210937zm0 0" fill="#95adc0"/><path d="m87.6875 151.808594 64.121094-56.105469h-80.148438l-64.121094 56.105469v64.117187h80.148438zm0 0" fill="#fbb03b"/><path d="m7.539062 456.371094h80.148438v48.089844h-80.148438zm0 0" fill="#fbb03b"/><path d="m7.539062 215.925781h80.148438v240.445313h-80.148438zm0 0" fill="#df412d"/><path d="m199.894531 296.074219c8.820313 0 16.03125 7.214843 16.03125 16.03125 0 8.816406-7.210937 16.027343-16.03125 16.027343-8.816406 0-16.027343-7.210937-16.027343-16.027343 0-8.816407 7.210937-16.03125 16.027343-16.03125zm0 0" fill="#95adc0"/><path d="m151.808594 296.074219c8.816406 0 16.027344 7.214843 16.027344 16.03125 0 8.816406-7.210938 16.027343-16.027344 16.027343s-16.03125-7.210937-16.03125-16.027343c0-8.816407 7.214844-16.03125 16.03125-16.03125zm0 0" fill="#95adc0"/><path d="m167.835938 312.105469c0-8.816407-7.210938-16.03125-16.027344-16.03125s-16.03125 7.214843-16.03125 16.03125c0 8.816406 7.214844 16.027343 16.03125 16.027343s16.027344-7.210937 16.027344-16.027343zm16.03125 0c0 8.816406 7.210937 16.027343 16.027343 16.027343 8.820313 0 16.03125-7.210937 16.03125-16.027343 0-8.816407-7.210937-16.03125-16.03125-16.03125-8.816406 0-16.027343 7.214843-16.027343 16.03125zm64.117187 8.011719c0 28.292968-16.351563 52.738281-40.074219 64.519531v39.675781h-64.117187v-39.675781c-23.722657-11.78125-40.074219-36.226563-40.074219-64.519531 0-39.832032 32.300781-72.132813 72.132812-72.132813 39.835938 0 72.132813 32.300781 72.132813 72.132813zm0 0" fill="#d9eef7"/><path d="m55.152344 191.882812h-15.078125v-27.167968l36.476562-36.476563h27.167969v15.078125h-20.921875l-27.644531 27.640625zm0 0" fill="#fff"/><path d="m167.835938 352.652344h16.03125v15.078125h-16.03125zm0 0" fill="#fff"/><path d="m151.808594 128.238281h16.027344v15.078125h-16.027344zm0 0" fill="#fff"/><g fill="#231f20"><path d="m282.878906 88.164062h-43.382812v-24.042968h-24.046875v-24.996094h24.046875v-39.125h-55.628906v15.078125h40.550781v8.96875h-97.132813v-8.96875h32.539063v-15.078125h-47.613281v39.125h24.042968v24.996094h-24.042968v24.042968h-43.382813l-26.179687 22.902344 9.929687 11.347656 21.914063-19.171874h202.71875l59.414062 51.988281v53.15625h-40.550781v15.078125h40.550781v64.59375h15.078125v-139.671875zm-82.507812-49.039062v16.980469h-49.039063v-16.980469zm24.046875 49.039062h-97.132813v-8.964843h97.132813zm0 0"/><path d="m336.625 448.832031h-305.039062v15.078125h305.039062v33.011719h-321.546875v-273.457031h256.953125v-15.078125h-256.953125v-53.15625l21.472656-18.789063-9.929687-11.347656-26.621094 23.292969v363.613281h351.703125v-199.894531h-15.078125zm0 0"/><path d="m215.449219 431.851562v-42.691406c24.839843-14.183594 40.074219-40.222656 40.074219-69.042968 0-43.929688-35.742188-79.671876-79.671876-79.671876-43.929687 0-79.671874 35.742188-79.671874 79.671876 0 28.820312 15.234374 54.855468 40.074218 69.042968v42.691406zm-104.191407-111.734374c0-35.617188 28.976563-64.59375 64.59375-64.59375 35.617188 0 64.59375 28.976562 64.59375 64.59375 0 24.640624-13.75 46.773437-35.886718 57.769531l-4.1875 2.078125v36.808594h-16.980469v-24.523438h-15.078125v24.523438h-16.980469v-36.808594l-4.1875-2.078125c-22.136719-10.996094-35.886719-33.128907-35.886719-57.769531zm0 0"/><path d="m175.375 312.105469c0-13-10.570312-23.570313-23.566406-23.570313s-23.570313 10.574219-23.570313 23.570313c0 12.992187 10.574219 23.566406 23.570313 23.566406s23.566406-10.570313 23.566406-23.566406zm-32.058594 0c0-4.683594 3.808594-8.492188 8.492188-8.492188 4.679687 0 8.488281 3.808594 8.488281 8.492188 0 4.679687-3.808594 8.488281-8.488281 8.488281-4.683594 0-8.492188-3.808594-8.492188-8.488281zm0 0"/><path d="m199.894531 335.671875c12.996094 0 23.570313-10.570313 23.570313-23.566406 0-12.996094-10.574219-23.570313-23.570313-23.570313-12.996093 0-23.566406 10.574219-23.566406 23.570313 0 12.996093 10.570313 23.566406 23.566406 23.566406zm0-32.058594c4.683594 0 8.492188 3.808594 8.492188 8.492188 0 4.679687-3.808594 8.488281-8.492188 8.488281-4.679687 0-8.488281-3.808594-8.488281-8.488281 0-4.683594 3.808594-8.492188 8.488281-8.492188zm0 0"/><path d="m119.746094 128.238281h16.03125v15.078125h-16.03125zm0 0"/><path d="m183.867188 128.238281h16.027343v15.078125h-16.027343zm0 0"/><path d="m47.136719 272.03125v-16.507812h16.507812v-15.078126h-31.585937v31.585938zm0 0"/><path d="m304.566406 400.265625v16.507813h-16.507812v15.078124h31.582031v-31.585937zm0 0"/></g></svg>