<svg height="512pt" viewBox="-48 0 512 512.00001" width="512pt" xmlns="http://www.w3.org/2000/svg"><path d="m231.957031 55.628906c8.816407 0 16.027344 7.214844 16.027344 16.03125s-7.210937 16.027344-16.027344 16.027344c-8.820312 0-16.03125-7.210938-16.03125-16.027344s7.210938-16.03125 16.03125-16.03125zm0 0" fill="#95adc0"/><path d="m183.867188 55.628906c8.816406 0 16.027343 7.214844 16.027343 16.03125s-7.210937 16.027344-16.027343 16.027344c-8.816407 0-16.03125-7.210938-16.03125-16.027344s7.214843-16.03125 16.03125-16.03125zm0 0" fill="#95adc0"/><path d="m207.910156 183.867188h-32.058594v-39.671876c-23.644531-11.785156-39.996093-36.148437-40.074218-64.363281 0-.078125 0-.078125 0-.15625 0-39.835937 32.296875-72.136719 72.132812-72.136719 39.832032 0 72.132813 32.300782 72.132813 72.136719v.15625c-.078125 28.214844-16.429688 52.578125-40.074219 64.363281v39.671876zm-8.015625-112.207032c0-8.816406-7.210937-16.03125-16.027343-16.03125-8.816407 0-16.03125 7.214844-16.03125 16.03125s7.214843 16.027344 16.03125 16.027344c8.816406 0 16.027343-7.210938 16.027343-16.027344zm16.03125 0c0 8.816406 7.210938 16.027344 16.03125 16.027344 8.816407 0 16.027344-7.210938 16.027344-16.027344s-7.210937-16.03125-16.027344-16.03125c-8.820312 0-16.03125 7.214844-16.03125 16.03125zm0 0" fill="#d9eef7"/><path d="m39.597656 312.105469h-32.058594v-48.089844h400.742188v48.089844h-32.058594l-24.042968 192.355469h-288.535157zm0 0" fill="#835cc5"/><path d="m376.222656 231.957031c0 10.980469-1.121094 21.636719-3.125 32.058594h-330.375c-2.003906-10.417969-3.125-21.078125-3.125-32.058594 0-67.167969 39.355469-125.113281 96.179688-152.125.078125 28.210938 16.429687 52.578125 40.074218 64.359375v39.675782h64.117188v-39.675782c23.644531-11.78125 39.996094-36.144531 40.074219-64.359375 56.828125 27.011719 96.179687 84.957031 96.179687 152.125zm0 0" fill="#fd6149"/><path d="m111.730469 312.105469v-48.089844h-104.191407v48.089844h32.058594l24.046875 192.355469h104.191407l-24.042969-192.355469zm0 0" fill="#8327c5"/><path d="m155.28125 128.648438c-11.972656-12.824219-19.449219-29.902344-19.503906-48.816407-56.828125 27.011719-96.179688 84.960938-96.179688 152.125 0 10.980469 1.121094 21.640625 3.125 32.058594h80.148438c-2.003906-10.417969-3.125-21.078125-3.125-32.058594 0-38.972656 13.3125-74.785156 35.535156-103.308593zm0 0" fill="#df412d"/><path d="m240.445312 344.164062h15.078126v128.238282h-15.078126zm0 0" fill="#fff"/><path d="m320.59375 344.164062h15.078125v104.191407h-15.078125zm0 0" fill="#fff"/><path d="m160.296875 344.164062h15.078125v128.238282h-15.078125zm0 0" fill="#fff"/><path d="m80.148438 344.164062h15.078124v104.191407h-15.078124zm0 0" fill="#fff"/><path d="m79.671875 184.34375h16.03125v15.078125h-16.03125zm0 0" fill="#fff"/><path d="m95.703125 200.371094h16.03125v15.078125h-16.03125zm0 0" fill="#fff"/><path d="m296.074219 152.28125h16.03125v15.078125h-16.03125zm0 0" fill="#fff"/><g fill="#231f20"><path d="m381.992188 256.476562c1.171874-8.253906 1.769531-16.46875 1.769531-24.519531 0-32.625-9.003907-64.476562-26.035157-92.121093l-12.839843 7.910156c15.570312 25.261718 23.796875 54.382812 23.796875 84.207031 0 8.160156-.644532 16.234375-1.933594 24.523437h-62.660156v15.078126h96.652344v33.007812h-31.175782l-24.042968 192.359375h-113.566407v15.074219h126.878907l24.042968-192.355469h32.941406v-63.164063zm0 0"/><path d="m48.136719 319.640625h223.894531v-15.074219h-256.953125v-33.011718h256.953125v-15.078126h-222.957031c-1.292969-8.289062-1.9375-16.363281-1.9375-24.519531 0-31.003906 8.84375-61.101562 25.574219-87.035156 14.28125-22.132813 33.652343-40.34375 56.449218-53.171875 3.632813 23.863281 17.867188 44.769531 39.152344 56.957031v42.699219h79.195312v-42.699219c21.277344-12.183593 35.511719-33.078125 39.148438-56.9375 16.492188 9.316407 31.46875 21.628907 43.75 36.058594l11.484375-9.769531c-15.050781-17.6875-33.800781-32.480469-54.449219-42.988282-2.394531-41.796874-37.144531-75.070312-79.53125-75.070312-42.390625 0-77.148437 33.285156-79.53125 75.09375-27.796875 14.121094-51.363281 35.347656-68.335937 61.65625-18.308594 28.375-27.984375 61.296875-27.984375 95.207031 0 8.050781.597656 16.265625 1.769531 24.519531h-33.828125v63.167969h32.941406l24.046875 192.355469h142.90625v-15.078125h-129.597656zm95.179687-239.964844c0-35.621093 28.976563-64.597656 64.59375-64.597656 35.617188 0 64.59375 28.976563 64.59375 64.597656v.136719c-.070312 24.550781-13.824218 46.632812-35.898437 57.632812l-4.175781 2.082032v36.800781h-16.980469v-24.519531h-15.078125v24.519531h-16.980469v-36.800781l-4.179687-2.082032c-22.070313-10.996093-35.828126-33.082031-35.894532-57.609374zm0 0"/><path d="m288.058594 304.566406h16.03125v15.074219h-16.03125zm0 0"/><path d="m320.117188 304.566406h16.03125v15.074219h-16.03125zm0 0"/><path d="m200.371094 344.164062h15.078125v128.238282h-15.078125zm0 0"/><path d="m280.519531 344.164062h15.078125v128.238282h-15.078125zm0 0"/><path d="m120.222656 344.164062h15.078125v128.238282h-15.078125zm0 0"/><path d="m183.867188 95.226562c12.996093 0 23.566406-10.574218 23.566406-23.566406 0-12.996094-10.570313-23.570312-23.566406-23.570312-12.996094 0-23.570313 10.574218-23.570313 23.570312 0 12.992188 10.574219 23.566406 23.570313 23.566406zm0-32.058593c4.679687 0 8.488281 3.808593 8.488281 8.492187 0 4.679688-3.808594 8.488282-8.488281 8.488282-4.683594 0-8.492188-3.808594-8.492188-8.488282 0-4.683594 3.808594-8.492187 8.492188-8.492187zm0 0"/><path d="m231.953125 95.226562c12.996094 0 23.570313-10.574218 23.570313-23.566406 0-12.996094-10.574219-23.570312-23.570313-23.570312-12.992187 0-23.566406 10.574218-23.566406 23.570312s10.574219 23.566406 23.566406 23.566406zm0-32.058593c4.683594 0 8.492187 3.808593 8.492187 8.492187 0 4.679688-3.808593 8.488282-8.492187 8.488282-4.679687 0-8.488281-3.808594-8.488281-8.488282 0-4.683594 3.808594-8.492187 8.488281-8.492187zm0 0"/><path d="m199.894531 112.207031h16.03125v15.078125h-16.03125zm0 0"/><path d="m280.042969 208.386719h16.03125v15.078125h-16.03125zm0 0"/><path d="m247.984375 208.386719h16.03125v15.078125h-16.03125zm0 0"/><path d="m167.835938 216.402344h16.03125v15.078125h-16.03125zm0 0"/></g></svg>