<svg height="512pt" viewBox="-95 0 512 512.00002" width="512pt" xmlns="http://www.w3.org/2000/svg"><path d="m172.984375 21.667969c7.53125 4.046875 12.714844 11.984375 12.714844 21.214843 0 13.441407-10.851563 24.292969-24.292969 24.292969s-24.292969-10.851562-24.292969-24.292969c0-9.230468 5.183594-17.164062 12.714844-21.214843l11.578125-11.175781zm0 0" fill="#fd6149"/><path d="m315.261719 277.714844c0 58.628906-32.796875 109.5625-80.976563 135.476562v91.257813h-145.757812v-91.257813c-48.179688-25.914062-80.976563-76.847656-80.976563-135.476562 0-73.851563 52.066407-135.554688 121.464844-150.453125v45.183593h64.78125v-45.183593c69.398437 14.898437 121.464844 76.601562 121.464844 150.453125zm0 0" fill="#95adc0"/><path d="m193.796875 127.261719v45.183593h-64.78125v-80.976562h64.78125zm0 0" fill="#ffe451"/><path d="m88.527344 277.714844c0-40.742188 15.90625-77.738282 41.769531-105.269532h-1.28125v-45.183593c-69.398437 14.898437-121.464844 76.601562-121.464844 150.453125 0 58.628906 32.796875 109.5625 80.976563 135.472656v91.261719h80.976562v-91.261719c-48.179687-25.910156-80.976562-76.84375-80.976562-135.472656zm0 0" fill="#8095a6"/><path d="m129.015625 91.46875h32.390625v80.976562h-32.390625zm0 0" fill="#fbb03b"/><path d="m218.089844 221.03125c22.351562 0 40.488281 18.140625 40.488281 40.488281 0 22.347657-18.140625 40.488281-40.488281 40.488281s-40.488282-18.140624-40.488282-40.488281c0-22.347656 18.140626-40.488281 40.488282-40.488281zm0 0" fill="#d9eef7"/><path d="m104.722656 221.03125c22.347656 0 40.488282 18.140625 40.488282 40.488281 0 22.347657-18.140626 40.488281-40.488282 40.488281s-40.488281-18.140624-40.488281-40.488281c0-22.347656 18.140625-40.488281 40.488281-40.488281zm0 0" fill="#d9eef7"/><path d="m121.464844 415.375h15.101562v64.785156h-15.101562zm0 0" fill="#fff"/><path d="m153.855469 382.984375h15.101562v16.195313h-15.101562zm0 0" fill="#fff"/><path d="m186.246094 382.984375h15.101562v16.195313h-15.101562zm0 0" fill="#fff"/><path d="m153.308594 116.308594h16.195312v15.101562h-16.195312zm0 0" fill="#fff"/><g fill="#231f20"><path d="m248.480469 141.796875-8.15625 12.703125c42.195312 27.101562 67.386719 73.164062 67.386719 123.214844 0 53.917968-29.503907 103.28125-77.003907 128.824218l-3.972656 2.136719v88.222657h-24.839844v15.101562h39.941407v-94.371094c50.066406-28.753906 80.976562-81.945312 80.976562-139.914062 0-55.214844-27.789062-106.027344-74.332031-135.917969zm0 0"/><path d="m96.078125 408.675781-3.976563-2.136719c-47.496093-25.542968-77-74.90625-77-128.824218 0-28.09375 7.984376-55.378906 23.09375-78.914063l-12.707031-8.15625c-16.675781 25.972657-25.488281 56.078125-25.488281 87.070313 0 57.964844 30.910156 111.160156 80.976562 139.914062v94.371094h96.625v-15.101562h-81.523437zm0 0"/><path d="m121.464844 136.9375v27.957031h-16.742188v15.101563h113.367188v-15.101563h-16.742188v-27.976562c8.765625 2.488281 17.296875 5.796875 25.457032 9.882812l6.765624-13.5c-10.28125-5.148437-21.097656-9.167969-32.222656-12.007812v-37.375h-32.390625v-10.105469c13.925781-3.398438 24.292969-15.972656 24.292969-30.929688 0-11.285156-5.996094-21.652343-15.71875-27.324218l-16.125-15.558594-16.125 15.558594c-9.722656 5.671875-15.71875 16.042968-15.71875 27.324218 0 14.957032 10.371094 27.53125 24.292969 30.929688v10.105469h-32.390625v37.363281c-30.375 7.722656-57.582032 24.003906-78.988282 47.328125l11.125 10.210937c18.527344-20.1875 41.84375-34.53125 67.863282-41.882812zm23.199218-94.054688c0-6.085937 3.347657-11.667968 8.738282-14.566406l.917968-.492187 7.085938-6.839844 7.085938 6.839844.917968.492187c5.390625 2.898438 8.742188 8.480469 8.742188 14.566406 0 9.234376-7.511719 16.742188-16.746094 16.742188-9.230469 0-16.742188-7.507812-16.742188-16.742188zm-8.097656 56.136719h49.679688v65.875h-49.679688zm0 0"/><path d="m152.761719 261.519531c0-26.488281-21.550781-48.039062-48.039063-48.039062-26.488281 0-48.039062 21.550781-48.039062 48.039062s21.550781 48.039063 48.039062 48.039063c26.488282 0 48.039063-21.550782 48.039063-48.039063zm-48.039063 32.9375c-18.164062 0-32.9375-14.773437-32.9375-32.9375 0-18.160156 14.773438-32.9375 32.9375-32.9375 18.160156 0 32.9375 14.777344 32.9375 32.9375 0 18.164063-14.773437 32.9375-32.9375 32.9375zm0 0"/><path d="m170.050781 261.519531c0 26.488281 21.550781 48.039063 48.039063 48.039063 26.488281 0 48.039062-21.550782 48.039062-48.039063s-21.550781-48.039062-48.039062-48.039062c-26.488282 0-48.039063 21.550781-48.039063 48.039062zm80.976563 0c0 18.164063-14.777344 32.9375-32.9375 32.9375-18.164063 0-32.941406-14.773437-32.941406-32.9375 0-18.160156 14.777343-32.9375 32.941406-32.9375 18.160156 0 32.9375 14.777344 32.9375 32.9375zm0 0"/><path d="m137.113281 326.851562h16.195313v15.097657h-16.195313zm0 0"/><path d="m169.503906 326.851562h16.195313v15.097657h-16.195313zm0 0"/><path d="m153.855469 415.375h15.101562v64.785156h-15.101562zm0 0"/><path d="m186.246094 415.375h15.101562v64.785156h-15.101562zm0 0"/><path d="m121.464844 382.984375h15.101562v16.195313h-15.101562zm0 0"/><path d="m153.308594 140.601562h16.195312v15.101563h-16.195312zm0 0"/></g></svg>