<svg height="512pt" viewBox="-64 0 512 512.00001" width="512pt" xmlns="http://www.w3.org/2000/svg"><path d="m376.222656 408.28125v24.042969c0 39.835937-32.300781 72.136719-72.132812 72.136719h-224.417969c-39.832031 0-72.132813-32.300782-72.132813-72.136719v-24.042969h128.238282l.480468-.238281c10.980469 19.3125 31.816407 32.296875 55.621094 32.296875 23.804688 0 44.644532-12.984375 55.625-32.296875l.480469.238281zm0 0" fill="#ffe451"/><path d="m135.777344 344.164062.480468.238282c-5.371093 9.378906-8.496093 20.199218-8.496093 31.820312s3.125 22.441406 8.496093 31.820313l-.480468.238281h-128.238282v-64.117188zm0 0" fill="#95adc0"/><path d="m247.503906 344.402344c5.371094 9.378906 8.496094 20.199218 8.496094 31.820312s-3.125 22.441406-8.496094 31.820313c-10.980468 19.316406-31.820312 32.300781-55.625 32.300781-23.804687 0-44.640625-12.984375-55.621094-32.300781-5.371093-9.378907-8.496093-20.199219-8.496093-31.820313s3.125-22.441406 8.496093-31.820312c10.980469-19.316406 31.816407-32.296875 55.621094-32.296875 23.804688 0 44.644532 12.980469 55.625 32.296875zm0 0" fill="#8095a6"/><path d="m376.222656 344.164062v64.117188h-128.238281l-.480469-.238281c5.371094-9.378907 8.496094-20.199219 8.496094-31.820313s-3.125-22.441406-8.496094-31.820312l.480469-.238282zm0 0" fill="#95adc0"/><path d="m376.222656 79.671875v264.492187h-128.238281l-.480469.238282c-10.980468-19.316406-31.820312-32.296875-55.625-32.296875-23.804687 0-44.640625 12.980469-55.621094 32.296875l-.480468-.238282h-128.238282v-264.492187c0-39.832031 32.300782-72.132813 72.132813-72.132813h224.417969c39.832031 0 72.132812 32.300782 72.132812 72.132813zm0 0" fill="#ffe451"/><path d="m95.703125 432.328125v-24.046875h-88.164063v24.046875c0 39.832031 32.300782 72.132813 72.132813 72.132813h88.164063c-39.835938 0-72.132813-32.300782-72.132813-72.132813zm0 0" fill="#fbb03b"/><path d="m7.539062 344.164062h88.164063v64.117188h-88.164063zm0 0" fill="#8095a6"/><path d="m95.703125 79.671875c0-39.832031 32.296875-72.132813 72.132813-72.132813h-88.164063c-39.832031 0-72.132813 32.300782-72.132813 72.132813v264.492187h88.164063zm0 0" fill="#fbb03b"/><path d="m136.414062 408.28125c-.046874-.082031-.109374-.15625-.15625-.238281l-.480468.238281zm0 0" fill="#7ade92"/><path d="m136.257812 344.402344c.046876-.082032.109376-.15625.15625-.238282h-.636718zm0 0" fill="#7ade92"/><path d="m272.03125 167.835938c31.015625 0 56.101562 25.085937 56.101562 56.105468 0 31.015625-25.085937 56.101563-56.101562 56.101563l-56.105469-56.101563c0-31.019531 25.085938-56.105468 56.105469-56.105468zm0 0" fill="#d9eef7"/><path d="m167.835938 223.941406-56.105469 56.101563c-31.015625 0-56.101563-25.085938-56.101563-56.101563 0-31.019531 25.085938-56.105468 56.101563-56.105468 31.019531 0 56.105469 25.085937 56.105469 56.105468zm0 0" fill="#d9eef7"/><path d="m335.667969 408.042969c-.046875.082031-.109375.15625-.160157.238281h.640626zm0 0" fill="#7ade92"/><path d="m136.414062 408.28125c-.046874-.082031-.109374-.15625-.15625-.238281l-.480468.238281zm0 0" fill="#7ade92"/><path d="m136.257812 344.402344c.046876-.082032.109376-.15625.15625-.238282h-.636718zm0 0" fill="#7ade92"/><path d="m335.667969 344.402344.480469-.238282h-.640626c.050782.082032.109376.15625.160157.238282zm0 0" fill="#7ade92"/><path d="m183.867188 72.132812h16.027343v15.078126h-16.027343zm0 0" fill="#fff"/><path d="m183.867188 40.074219h16.027343v15.078125h-16.027343zm0 0" fill="#fff"/><path d="m215.925781 96.179688h16.027344v15.078124h-16.027344zm0 0" fill="#fff"/><path d="m151.804688 96.179688h16.03125v15.078124h-16.03125zm0 0" fill="#fff"/><path d="m183.867188 368.683594h16.027343v15.078125h-16.027343zm0 0" fill="#fff"/><path d="m31.582031 368.683594h72.136719v15.078125h-72.136719zm0 0" fill="#fff"/><path d="m280.042969 368.683594h72.136719v15.078125h-72.136719zm0 0" fill="#fff"/><g fill="#231f20"><path d="m368.683594 336.625h-117.113282c-13.144531-19.886719-35.597656-32.058594-59.6875-32.058594-24.101562 0-46.558593 12.175782-59.691406 32.058594h-117.113281v-192.832031h-15.078125v288.535156c0 43.929687 35.742188 79.671875 79.671875 79.671875h224.417969c43.929687 0 79.671875-35.742188 79.671875-79.671875v-264.492187h-15.078125zm-225.871094 11.503906c9.988281-17.570312 28.789062-28.488281 49.066406-28.488281s39.082032 10.917969 49.070313 28.488281l.011719.019532c4.976562 8.691406 7.5 18.136718 7.5 28.074218 0 9.800782-2.59375 19.507813-7.511719 28.09375-9.988281 17.570313-28.792969 28.488282-49.070313 28.488282s-39.078125-10.917969-49.078125-28.507813c-4.90625-8.566406-7.5-18.273437-7.5-28.074219 0-9.9375 2.523438-19.382812 7.511719-28.09375zm225.871094 84.199219c0 35.617187-28.976563 64.59375-64.59375 64.59375h-224.417969c-35.617187 0-64.59375-28.976563-64.59375-64.59375v-80.625h109.507813c-2.867188 7.847656-4.363282 16.152344-4.363282 24.519531 0 8.367188 1.496094 16.679688 4.363282 24.519532h-93.003907v15.078124h100.609375c13.144532 19.890626 35.597656 32.0625 59.691406 32.0625 24.097657 0 46.558594-12.179687 59.6875-32.0625h117.113282zm0-31.585937h-109.507813c2.867188-7.847657 4.363281-16.152344 4.363281-24.519532 0-8.367187-1.496093-16.671875-4.363281-24.519531h109.507813zm0 0"/><path d="m304.089844 0h-224.417969c-43.929687 0-79.671875 35.742188-79.671875 79.671875v40.074219h15.078125v-40.074219c0-35.617187 28.976563-64.59375 64.59375-64.59375h224.417969c35.617187 0 64.59375 28.976563 64.59375 64.59375v64.121094h15.078125v-64.121094c0-43.929687-35.742188-79.671875-79.671875-79.671875zm0 0"/><path d="m48.089844 223.941406c0 35.089844 28.546875 63.640625 63.640625 63.640625h3.121093l60.523438-60.519531v-3.121094c0-35.09375-28.550781-63.644531-63.644531-63.644531-35.089844 0-63.640625 28.550781-63.640625 63.644531zm112.113281-3.03125-51.5 51.503906c-25.375-1.570312-45.535156-22.710937-45.535156-48.472656 0-26.78125 21.785156-48.566406 48.5625-48.566406 25.761719 0 46.90625 20.160156 48.472656 45.535156zm0 0"/><path d="m275.058594 272.414062-21.742188-21.746093-10.664062 10.660156 26.253906 26.253906h3.121094c35.09375 0 63.644531-28.550781 63.644531-63.640625 0-35.09375-28.550781-63.644531-63.644531-63.644531s-63.640625 28.550781-63.640625 63.644531v3.121094l18.238281 18.238281 10.660156-10.660156-13.726562-13.730469c1.566406-25.375 22.707031-45.535156 48.472656-45.535156 26.777344 0 48.5625 21.785156 48.5625 48.566406 0 25.761719-20.160156 46.902344-45.535156 48.472656zm0 0"/><path d="m116.085938 126.339844 75.792968 42.105468 75.796875-42.105468-7.324219-13.183594-68.472656 38.039062-68.472656-38.039062zm0 0"/><path d="m183.867188 104.191406h16.027343v15.078125h-16.027343zm0 0"/><path d="m215.925781 64.117188h16.027344v15.078124h-16.027344zm0 0"/><path d="m151.804688 64.117188h16.03125v15.078124h-16.03125zm0 0"/><path d="m215.925781 368.683594h16.027344v15.078125h-16.027344zm0 0"/><path d="m183.867188 336.625h16.027343v15.078125h-16.027343zm0 0"/><path d="m183.867188 400.742188h16.027343v15.078124h-16.027343zm0 0"/><path d="m151.804688 368.683594h16.03125v15.078125h-16.03125zm0 0"/><path d="m183.867188 256.476562h16.027343v15.078126h-16.027343zm0 0"/><path d="m167.835938 272.503906h16.027343v15.078125h-16.027343zm0 0"/><path d="m199.894531 272.503906h16.03125v15.078125h-16.03125zm0 0"/></g></svg>