<svg height="512pt" viewBox="-144 0 512 512.00001" width="512pt" xmlns="http://www.w3.org/2000/svg"><path d="m167.835938 55.628906v112.207032c0 4.410156-3.605469 8.015624-8.011719 8.015624h-96.179688c-4.410156 0-8.015625-3.605468-8.015625-8.015624v-112.207032c0-4.40625 3.605469-8.015625 8.015625-8.015625h96.179688c4.40625 0 8.011719 3.609375 8.011719 8.015625zm0 0" fill="#8095a6"/><path d="m215.925781 47.613281v456.847657h-208.386719v-456.847657c0-22.121093 17.953126-40.074219 40.074219-40.074219h128.238281c22.121094 0 40.074219 17.953126 40.074219 40.074219zm-48.089843 120.222657v-112.207032c0-4.40625-3.605469-8.015625-8.011719-8.015625h-96.179688c-4.410156 0-8.015625 3.609375-8.015625 8.015625v112.207032c0 4.410156 3.605469 8.015624 8.015625 8.015624h96.179688c4.40625 0 8.011719-3.605468 8.011719-8.015624zm0 0" fill="#31e8bb"/><path d="m103.71875 167.835938v-112.207032c0-4.40625 3.605469-8.015625 8.015625-8.015625h-48.089844c-4.410156 0-8.015625 3.609375-8.015625 8.015625v112.207032c0 4.410156 3.605469 8.015624 8.015625 8.015624h48.089844c-4.410156 0-8.015625-3.605468-8.015625-8.015624zm0 0" fill="#677987"/><path d="m55.628906 55.628906v-8.015625c0-22.121093 17.953125-40.074219 40.074219-40.074219h-48.089844c-22.121093 0-40.074219 17.953126-40.074219 40.074219v456.847657h48.089844zm0 0" fill="#1cb28b"/><path d="m55.628906 256.476562h112.207032v15.078126h-112.207032zm0 0" fill="#fff"/><path d="m177.492188 359.535156-3.28125-14.714844-24.316407 5.402344-6.863281-24.148437-14.503906 4.121093 6.621094 23.304688-22.585938 5.019531-10.308594-18.089843-13.101562 7.46875 8.007812 14.042968-.039062.011719-6.121094 36.601563-14.511719-12.089844-9.660156 11.578125 19.503906 16.25-18.042969 15.035156-14.886718-17.859375-11.578125 9.65625 14.878906 17.859375-13.914063 11.597656 9.652344 11.582031 13.917969-11.597656 15.535156 18.644532 11.585938-9.648438-15.539063-18.648438 20.164063-16.804687 16.816406 14.011719 9.648437-11.589844-20.15625-16.796875 4.542969-27.144531 12.261719 21.425781 13.085938-7.492187-13.90625-24.292969 18.90625-4.1875 5.257812 18.277343 14.488281-4.164062-5-17.390625zm0 0" fill="#fff"/><path d="m127.761719 72.132812h16.03125v15.078126h-16.03125zm0 0" fill="#fff"/><g fill="#231f20"><path d="m208.386719 496.921875h-193.308594v-104.667969h-15.078125v119.746094h223.464844v-312.105469h-15.078125zm0 0"/><path d="m175.851562 0h-128.238281c-26.253906 0-47.613281 21.359375-47.613281 47.613281v320.59375h15.078125v-320.59375c0-17.941406 14.597656-32.535156 32.535156-32.535156h128.238281c17.941407 0 32.535157 14.59375 32.535157 32.535156v128.238281h15.078125v-128.238281c0-26.253906-21.359375-47.613281-47.613282-47.613281zm0 0"/><path d="m119.746094 40.074219h-56.101563c-8.578125 0-15.554687 6.976562-15.554687 15.554687v112.207032c0 8.578124 6.976562 15.554687 15.554687 15.554687h96.179688c8.574219 0 15.550781-6.976563 15.550781-15.554687v-112.207032c0-8.578125-6.976562-15.554687-15.550781-15.554687h-16.03125v15.078125h16.027343c.246094 0 .476563.230468.476563.476562v112.207032c0 .246093-.230469.476562-.476563.476562h-96.175781c-.246093 0-.476562-.230469-.476562-.476562v-112.207032c0-.246094.230469-.476562.476562-.476562h56.101563zm0 0"/><path d="m55.628906 224.417969h112.207032v15.078125h-112.207032zm0 0"/><path d="m55.628906 288.535156h112.207032v15.078125h-112.207032zm0 0"/><path d="m95.703125 72.132812h16.027344v15.078126h-16.027344zm0 0"/><path d="m127.761719 104.195312h16.03125v15.078126h-16.03125zm0 0"/><path d="m175.851562 464.863281h16.03125v15.078125h-16.03125zm0 0"/><path d="m159.824219 448.832031h16.027343v15.078125h-16.027343zm0 0"/></g></svg>