<svg height="511pt" viewBox="-64 1 511 511.99898" width="511pt" xmlns="http://www.w3.org/2000/svg"><path d="m8.039062 87.6875h368.683594v416.773438h-368.683594zm0 0" fill="#31e8bb"/><path d="m8.039062 87.6875h80.148438v416.773438h-80.148438zm0 0" fill="#1cb28b"/><path d="m248.324219 264.015625 80.148437-48.089844c0 72.132813-24.046875 80.148438-24.046875 80.148438zm0 0" fill="#ffe451"/><path d="m192.378906 247.984375 32.0625 64.121094h-64.121094zm0 0" fill="#ffe451"/><path d="m136.277344 264.015625-56.105469 32.058594s-24.042969-8.015625-24.042969-80.148438zm0 0" fill="#ffe451"/><path d="m152.304688 128.238281h16.03125v15.078125h-16.03125zm0 0" fill="#fff"/><path d="m216.425781 128.238281h16.027344v15.078125h-16.027344zm0 0" fill="#fff"/><path d="m288.558594 360.667969h-24.519532v-16.503907h-15.078124v16.503907h-16.980469v-16.503907h-15.078125v16.503907h-16.984375v-16.503907h-15.078125v16.503907h-16.980469v-16.503907h-15.078125v16.503907h-16.980469v-16.503907h-15.078125v16.503907h-24.519531v15.078125h24.519531v16.507812h15.078125v-16.507812h16.980469v16.507812h15.078125v-16.507812h16.980469v16.507812h15.078125v-16.507812h16.984375v16.507812h15.078125v-16.507812h16.980469v16.507812h15.078124v-16.507812h24.519532zm0 0" fill="#fff"/><g fill="#231f20"><path d="m280.066406 80.148438v-80.148438h-175.375v80.148438h-104.191406v431.851562h383.761719v-431.851562zm-160.296875-65.070313h145.21875v65.070313h-145.21875zm249.414063 481.84375h-353.605469v-401.695313h89.113281v33.011719h-16.503906v15.078125h48.089844v-15.078125h-16.503906v-33.011719h145.21875v33.011719h-16.507813v15.078125h48.089844v-15.078125h-16.507813v-33.011719h89.117188zm0 0"/><path d="m56.128906 128.238281h16.027344v15.078125h-16.027344zm0 0"/><path d="m312.601562 128.238281h16.03125v15.078125h-16.03125zm0 0"/><path d="m48.589844 202.609375v13.316406c0 31.1875 4.355468 54.988281 12.941406 70.734375 7.074219 12.964844 14.78125 16.074219 16.257812 16.566406l3.195313 1.066407 70.207031-40.121094zm31.835937 84.636719c-4.464843-4.300782-14.550781-18.3125-16.449219-57.820313l57.382813 34.429688zm0 0"/><path d="m303.613281 304.292969 3.199219-1.066407c1.472656-.492187 9.183594-3.597656 16.257812-16.566406 8.585938-15.746094 12.941407-39.542968 12.941407-70.734375v-13.316406l-102.605469 61.566406zm.496094-17.085938-40.867187-23.351562 57.382812-34.429688c-1.878906 39.382813-11.847656 53.347657-16.515625 57.78125zm0 0"/><path d="m148.121094 319.644531h88.515625l-44.257813-88.519531zm24.398437-15.078125 19.859375-39.726562 19.863282 39.726562zm0 0"/><path d="m329.109375 464.863281h-64.59375v15.074219h79.671875v-71.65625h-15.078125zm0 0"/></g><path d="m232.453125 464.863281h16.03125v15.074219h-16.03125zm0 0" fill="#fff"/></svg>