<svg height="512pt" viewBox="-94 0 512 512.00199" width="512pt" xmlns="http://www.w3.org/2000/svg"><path d="m311.222656 167.816406c5.667969 5.671875 5.667969 14.902344 0 20.570313l-71.957031 71.957031c-1.816406 1.816406-4.070313 2.980469-6.394531 3.632812v119.492188c2.324218.652344 4.578125 1.816406 6.394531 3.632812l71.957031 71.957032c5.667969 5.667968 5.667969 14.898437 0 20.570312l-20.570312 20.566406c-5.667969 5.671876-14.898438 5.671876-20.570313 0l-71.082031-71.082031h-63.089844l-71.082031 71.082031c-5.671875 5.671876-14.902344 5.671876-20.570313 0l-20.570312-20.566406c-5.667969-5.671875-5.667969-14.902344 0-20.570312l71.957031-71.957032c1.816407-1.816406 4.070313-2.980468 6.394531-3.632812v-119.492188c-2.324218-.652343-4.578124-1.816406-6.394531-3.632812l-71.957031-71.957031c-5.667969-5.667969-5.667969-14.898438 0-20.570313l20.570312-20.566406c5.667969-5.671875 14.898438-5.671875 20.570313 0l37.210937 37.210938v-17.007813c0-4.359375 1.019532-8.429687 2.691407-12.136719-15.121094-15.699218-24.496094-36.996094-24.496094-60.546875 0-48.1875 39.03125-87.21875 87.21875-87.21875 48.191406 0 87.21875 39.03125 87.21875 87.21875 0 23.550781-9.375 44.847657-24.492187 60.546875 1.671874 3.707032 2.6875 7.777344 2.6875 12.136719v17.007813l37.214843-37.210938c5.667969-5.671875 14.898438-5.671875 20.570313 0zm0 0" fill="#835cc5"/><path d="m80.238281 94.773438c0 23.546874 9.375 44.84375 24.492188 60.542968-1.671875 3.707032-2.6875 7.777344-2.6875 12.140625v17.003907l-37.214844-37.210938c-5.667969-5.667969-14.898437-5.667969-20.570313 0l-20.566406 20.570312c-5.671875 5.667969-5.671875 14.898438 0 20.566407l71.953125 71.957031c1.816407 1.816406 4.070313 2.980469 6.398438 3.636719v119.488281c-2.328125.65625-4.582031 1.816406-6.398438 3.632812l-71.953125 71.957032c-5.671875 5.667968-5.671875 14.898437 0 20.570312l20.566406 20.566406c5.671876 5.671876 14.902344 5.671876 20.570313 0l71.085937-71.082031h31.542969v-421.558593c-48.191406 0-87.21875 39.027343-87.21875 87.21875zm0 0" fill="#8327c5"/><path d="m304.097656 27.175781c8.503906 8.503907 8.503906 22.316407 0 30.820313s-22.3125 8.503906-30.816406 0-8.503906-22.316406 0-30.820313c8.503906-8.503906 22.3125-8.503906 30.816406 0zm0 0" fill="#fd6149"/><path d="m291.015625 283.746094c12.066406 0 21.804687 9.738281 21.804687 21.804687 0 12.066407-9.738281 21.804688-21.804687 21.804688s-21.804687-9.738281-21.804687-21.804688c0-12.066406 9.738281-21.804687 21.804687-21.804687zm0 0" fill="#fd6149"/><path d="m54.363281 296.101562c8.503907 8.503907 8.503907 22.316407 0 30.820313-8.503906 8.5-22.316406 8.5-30.820312 0-8.503907-8.503906-8.503907-22.316406 0-30.820313 8.503906-8.503906 22.316406-8.503906 30.820312 0zm0 0" fill="#fd6149"/><path d="m29.359375 72.96875c12.066406 0 21.804687 9.738281 21.804687 21.800781 0 12.066407-9.738281 21.804688-21.804687 21.804688s-21.804687-9.738281-21.804687-21.804688c0-12.0625 9.738281-21.800781 21.804687-21.800781zm0 0" fill="#fd6149"/><path d="m188.976562 109.308594v14.25h-13.96875v-14.25h-15.105468v14.25h-13.964844v-14.25h-15.109375v43.609375h15.109375v-14.253907h13.964844v14.253907h15.105468v-14.253907h13.96875v14.253907h15.105469v-43.609375zm0 0" fill="#fff"/><path d="m159.902344 327.355469h15.105468v14.539062h-15.105468zm0 0" fill="#fff"/><path d="m159.902344 385.5h15.105468v14.539062h-15.105468zm0 0" fill="#fff"/><g fill="#231f20"><path d="m244.605469 265.683594 27.476562-27.472656-10.679687-10.683594-27.476563 27.472656c-.769531.769531-1.808593 1.34375-3.101562 1.707031l-5.507813 1.546875v25.492188h15.109375v-14.835938c1.542969-.910156 2.949219-1.992187 4.179688-3.226562zm0 0"/><path d="m244.605469 381.757812c-1.234375-1.230468-2.640625-2.3125-4.183594-3.222656v-51.179687h-15.105469v61.832031l5.507813 1.550781c1.289062.363281 2.332031.9375 3.101562 1.703125l71.957031 71.957032c1.3125 1.3125 2.039063 3.070312 2.039063 4.941406s-.726563 3.628906-2.039063 4.945312l-20.570312 20.566406c-1.316406 1.316407-3.070312 2.042969-4.945312 2.042969-1.871094 0-3.628907-.726562-4.941407-2.042969l-73.296875-73.292968h-69.347656l-73.296875 73.292968c-1.3125 1.316407-3.070313 2.042969-4.941406 2.042969-1.875 0-3.628907-.726562-4.945313-2.042969l-20.566406-20.566406c-1.316406-1.316406-2.042969-3.074218-2.042969-4.945312s.726563-3.628906 2.039063-4.941406l71.957031-71.957032c.769531-.769531 1.8125-1.339844 3.101563-1.703125l5.507812-1.550781v-130.933594l-5.507812-1.546875c-1.289063-.363281-2.332032-.9375-3.101563-1.707031l-29.945313-29.941406-10.679687 10.679687 29.945313 29.945313c1.230468 1.234375 2.640624 2.316406 4.183593 3.226562v87.453125l-30.140625-30.140625c2.570313-4.421875 3.945313-9.460937 3.945313-14.710937 0-7.84375-3.050781-15.210938-8.589844-20.75-5.539063-5.539063-12.910156-8.589844-20.75-8.589844-7.84375 0-15.210937 3.050781-20.75 8.589844-5.539063 5.539062-8.589844 12.90625-8.589844 20.75 0 7.839843 3.046875 15.210937 8.589844 20.75 5.539063 5.539062 12.90625 8.589843 20.75 8.589843 5.25 0 10.289063-1.375 14.710937-3.945312l40.824219 40.824219v.804687c-1.542969.910156-2.953125 1.992188-4.183593 3.226563l-71.957032 71.953125c-4.167968 4.167968-6.464844 9.71875-6.464844 15.628906 0 5.90625 2.296876 11.457031 6.464844 15.625l20.570313 20.566406c4.167969 4.171875 9.71875 6.46875 15.625 6.46875s11.457031-2.296875 15.625-6.464844l68.871093-68.875h56.832032l68.871094 68.871094c4.167968 4.171875 9.71875 6.46875 15.625 6.46875 5.910156 0 11.457031-2.296875 15.625-6.464844l20.570312-20.570312c4.167969-4.167969 6.464844-9.71875 6.464844-15.625 0-5.910156-2.296875-11.460938-6.464844-15.628906zm-215.71875-60.179687c-2.6875-2.683594-4.167969-6.261719-4.167969-10.066406 0-3.808594 1.480469-7.382813 4.167969-10.066407v-.003906c2.683593-2.683594 6.261719-4.164062 10.066406-4.164062s7.382813 1.480468 10.066406 4.167968c2.6875 2.683594 4.167969 6.257813 4.167969 10.066407 0 3.804687-1.480469 7.382812-4.167969 10.066406-2.683593 2.6875-6.261719 4.167969-10.066406 4.167969s-7.382813-1.480469-10.066406-4.167969zm0 0"/><path d="m316.5625 162.476562-20.570312-20.566406c-4.167969-4.171875-9.714844-6.46875-15.625-6.46875-5.90625 0-11.457032 2.296875-15.625 6.464844l-24.339844 24.339844c-.105469-3.105469-.621094-6.195313-1.535156-9.234375 11.542968-13.234375 19.136718-29.199219 22.042968-46.449219l-14.894531-2.511719c-2.667969 15.808594-10.023437 30.339844-21.277344 42.027344l-3.542969 3.683594 2.101563 4.660156c1.339844 2.972656 2.019531 6.011719 2.019531 9.03125v35.242187l50.109375-50.105468c1.3125-1.316406 3.070313-2.039063 4.941407-2.039063 1.871093 0 3.628906.722657 4.945312 2.039063l20.570312 20.570312c1.3125 1.3125 2.039063 3.070313 2.039063 4.941406 0 1.871094-.726563 3.628907-2.039063 4.941407l-27.476562 27.476562 10.683594 10.679688 27.472656-27.472657c4.167969-4.167968 6.464844-9.71875 6.464844-15.625 0-5.910156-2.296875-11.457031-6.464844-15.625zm0 0"/><path d="m148.460938 44.9375-10.078126 10.078125-10.078124-10.078125-10.679688 10.683594 10.074219 10.078125-10.074219 10.078125 10.679688 10.679687 10.078124-10.074219 10.078126 10.074219 10.679687-10.679687-10.074219-10.078125 10.074219-10.078125zm0 0"/><path d="m186.453125 86.457031 10.074219-10.074219 10.078125 10.074219 10.683593-10.679687-10.078124-10.078125 10.078124-10.078125-10.683593-10.683594-10.078125 10.078125-10.074219-10.078125-10.683594 10.683594 10.078125 10.078125-10.078125 10.078125zm0 0"/><path d="m159.902344 181.992188h15.105468v130.828124h-15.105468zm0 0"/><path d="m159.902344 356.429688h15.105468v14.535156h-15.105468zm0 0"/><path d="m221.691406 98.902344 10.679688 10.683594 41.605468-41.605469c4.421876 2.570312 9.460938 3.945312 14.710938 3.945312 7.84375 0 15.210938-3.050781 20.75-8.589843 11.441406-11.441407 11.441406-30.058594 0-41.5-11.441406-11.441407-30.058594-11.441407-41.5 0-9.59375 9.59375-11.136719 24.234374-4.640625 35.457031zm56.929688-66.382813c2.6875-2.6875 6.261718-4.167969 10.070312-4.167969 3.804688 0 7.382813 1.480469 10.066406 4.164063 5.550782 5.554687 5.550782 14.585937 0 20.136719-2.683593 2.6875-6.261718 4.167968-10.066406 4.167968-3.808594 0-7.382812-1.480468-10.070312-4.167968-5.550782-5.550782-5.550782-14.582032 0-20.132813zm0 0"/><path d="m291.015625 334.910156c16.1875 0 29.359375-13.171875 29.359375-29.359375s-13.171875-29.355469-29.359375-29.355469c-13.578125 0-25.027344 9.265626-28.367187 21.804688h-58.851563v15.105469h58.851563c3.339843 12.539062 14.789062 21.804687 28.367187 21.804687zm0-43.609375c7.859375 0 14.253906 6.394531 14.253906 14.25s-6.394531 14.25-14.253906 14.25-14.25-6.394531-14.25-14.25 6.390625-14.25 14.25-14.25zm0 0"/><path d="m57.726562 102.324219h15.273438c1.601562 20.222656 9.605469 39.277343 23.042969 54.6875-.914063 3.039062-1.429688 6.125-1.535157 9.234375l-24.335937-24.335938c-4.171875-4.171875-9.71875-6.46875-15.628906-6.46875-5.90625 0-11.457031 2.296875-15.625 6.46875l-20.566407 20.566406c-4.167968 4.167969-6.464843 9.71875-6.464843 15.625 0 5.910157 2.296875 11.457032 6.464843 15.628907l27.472657 27.472656 10.679687-10.683594-27.472656-27.472656c-1.316406-1.316406-2.039062-3.070313-2.039062-4.941406 0-1.875.722656-3.628907 2.039062-4.945313l20.570312-20.570312c1.3125-1.316406 3.070313-2.039063 4.941407-2.039063 1.875 0 3.628906.726563 4.945312 2.039063l50.105469 50.109375v-35.242188c0-3.019531.679688-6.058593 2.023438-9.035156l2.101562-4.660156-3.546875-3.683594c-12.664063-13.148437-20.332031-29.882813-22.023437-47.75h28.429687v-15.109375h-28.421875c3.820312-40.398438 37.921875-72.113281 79.300781-72.113281 28.367188 0 54.8125 15.265625 69.019531 39.835937l13.078126-7.558594c-16.898438-29.226562-48.355469-47.382812-82.097657-47.382812-49.714843 0-90.609375 38.480469-94.472656 87.21875h-15.257813c-3.339843-12.539062-14.789062-21.804688-28.367187-21.804688-16.1875 0-29.359375 13.167969-29.359375 29.355469s13.171875 29.359375 29.359375 29.359375c13.578125 0 25.027344-9.265625 28.367187-21.804687zm-42.621093-7.554688c0-7.855469 6.394531-14.25 14.253906-14.25s14.25 6.394531 14.25 14.25c0 7.859375-6.390625 14.253907-14.25 14.253907s-14.253906-6.394532-14.253906-14.253907zm0 0"/></g></svg>