<svg height="512pt" viewBox="0 -40 512.00001 512" width="512pt" xmlns="http://www.w3.org/2000/svg"><path d="m488.429688 320.117188v104.195312h-464.859376v-40.074219l32.058594-8.015625v-32.058594l-32.058594-8.015624v-88.164063l32.058594-8.015625v-32.058594l-32.058594-8.015625v-96.175781h464.859376v168.3125l-32.058594 8.011719v32.0625zm0 0" fill="#ffe451"/><path d="m7.539062 7.539062h496.921876v32.058594h-496.921876zm0 0" fill="#95adc0"/><path d="m143.792969 376.222656v-32.058594l-32.058594-8.015624v-88.164063l32.058594-8.015625v-32.058594l-32.058594-8.015625v-96.175781h-88.164063v96.175781l32.058594 8.015625v32.058594l-32.058594 8.015625v88.164063l32.058594 8.015624v32.058594l-32.058594 8.015625v40.074219h88.164063v-40.074219zm0 0" fill="#fbb03b"/><path d="m280.042969 247.984375c8.820312 0 16.03125 7.214844 16.03125 16.03125s-7.210938 16.027344-16.03125 16.027344c-8.816407 0-16.027344-7.210938-16.027344-16.027344s7.210937-16.03125 16.027344-16.03125zm0 0" fill="#d9eef7"/><path d="m231.957031 247.984375c8.816407 0 16.027344 7.214844 16.027344 16.03125s-7.210937 16.027344-16.027344 16.027344c-8.820312 0-16.03125-7.210938-16.03125-16.027344s7.210938-16.03125 16.03125-16.03125zm0 0" fill="#d9eef7"/><path d="m247.984375 264.015625c0-8.816406-7.210937-16.03125-16.027344-16.03125-8.820312 0-16.03125 7.214844-16.03125 16.03125s7.210938 16.027344 16.03125 16.027344c8.816407 0 16.027344-7.210938 16.027344-16.027344zm16.03125 0c0 8.816406 7.210937 16.027344 16.027344 16.027344 8.820312 0 16.03125-7.210938 16.03125-16.027344s-7.210938-16.03125-16.03125-16.03125c-8.816407 0-16.027344 7.214844-16.027344 16.03125zm64.117187 8.015625c0 28.292969-16.351562 52.738281-40.074218 64.519531v39.671875h-64.117188v-39.671875c-23.722656-11.78125-40.074218-36.226562-40.074218-64.519531 0-39.835938 32.300781-72.136719 72.132812-72.136719 39.835938 0 72.132812 32.300781 72.132812 72.136719zm0 0" fill="#fd6149"/><path d="m448.355469 144.269531h16.03125v15.078125h-16.03125zm0 0" fill="#fff"/><path d="m47.613281 144.269531h16.03125v15.078125h-16.03125zm0 0" fill="#fff"/><path d="m143.792969 144.269531h224.414062v15.078125h-224.414062zm0 0" fill="#fff"/><path d="m127.761719 368.683594h16.03125v15.078125h-16.03125zm0 0" fill="#fff"/><path d="m127.761719 200.371094h16.03125v15.078125h-16.03125zm0 0" fill="#fff"/><g fill="#231f20"><path d="m512 47.136719v-47.136719h-191.882812v15.078125h176.804687v16.980469h-481.84375v-16.980469h280.996094v-15.078125h-296.074219v47.136719h80.148438v49.042969h-64.117188v109.601562l32.058594 8.015625v20.289063l-32.058594 8.015624v99.933594l32.058594 8.015625v20.285157l-32.058594 8.015624v53.5h175.851562v-15.078124h-160.773437v-26.648438l25.449219-6.363281h55.171875v-15.078125h-48.5625v-16.980469h88.636719v-15.078125h-95.25l-25.445313-6.363281v-76.390625l25.445313-6.363282h95.25v-15.074218h-88.636719v-16.984375h48.5625v-15.078125h-55.175781l-25.445313-6.359375v-82.753907h49.039063v48.5625h15.078124v-48.5625h64.59375v-15.078124h-64.59375v-49.042969h321.546876v49.042969h-232.90625v15.078124h232.90625v48.5625h15.078124v-48.5625h49.039063v40.550782h15.078125v-55.628906h-64.117188v-49.042969zm0 0"/><path d="m480.890625 266.144531-25.445313 6.359375h-39.148437v15.078125h32.535156v16.984375h-88.640625v15.074219h95.253906l25.445313 6.363281v90.769532h-264.964844v15.078124h280.042969v-117.617187l-32.058594-8.015625v-20.289062l32.058594-8.015626v-102.0625h-15.078125zm0 0"/><path d="m111.730469 144.269531h16.03125v15.078125h-16.03125zm0 0"/><path d="m384.238281 144.269531h16.027344v15.078125h-16.027344zm0 0"/><path d="m176.328125 272.03125c0 28.808594 15.234375 54.855469 40.074219 69.0625v42.667969h79.195312v-42.667969c24.839844-14.207031 40.074219-40.253906 40.074219-69.0625 0-43.933594-35.742187-79.675781-79.671875-79.675781-12.4375 0-24.351562 2.789062-35.414062 8.289062l6.710937 13.5c8.957031-4.453125 18.617187-6.710937 28.703125-6.710937 35.621094 0 64.597656 28.976562 64.597656 64.597656 0 24.628906-13.753906 46.777344-35.894531 57.796875l-4.179687 2.078125v36.777344h-16.984376v-24.519532h-15.078124v24.519532h-16.980469v-36.773438l-4.179688-2.082031c-22.140625-11.019531-35.894531-33.167969-35.894531-57.796875 0-18.351562 7.847656-35.898438 21.53125-48.148438l-10.058594-11.234374c-16.875 15.105468-26.550781 36.75-26.550781 59.382812zm0 0"/><path d="m231.957031 240.445312c-12.996093 0-23.570312 10.574219-23.570312 23.570313s10.574219 23.566406 23.570312 23.566406c12.996094 0 23.566407-10.570312 23.566407-23.566406s-10.570313-23.570313-23.566407-23.570313zm0 32.058594c-4.683593 0-8.492187-3.808594-8.492187-8.488281 0-4.683594 3.808594-8.492187 8.492187-8.492187 4.679688 0 8.488281 3.808593 8.488281 8.492187 0 4.679687-3.808593 8.488281-8.488281 8.488281zm0 0"/><path d="m303.613281 264.015625c0-12.996094-10.574219-23.570313-23.570312-23.570313-12.992188 0-23.566407 10.574219-23.566407 23.570313s10.574219 23.566406 23.566407 23.566406c12.996093 0 23.570312-10.570312 23.570312-23.566406zm-32.058593 0c0-4.683594 3.808593-8.492187 8.488281-8.492187 4.683593 0 8.492187 3.808593 8.492187 8.492187 0 4.679687-3.808594 8.488281-8.492187 8.488281-4.679688 0-8.488281-3.808594-8.488281-8.488281zm0 0"/><path d="m247.984375 304.566406h16.03125v15.074219h-16.03125zm0 0"/><path d="m440.339844 384.714844h16.03125v15.078125h-16.03125zm0 0"/><path d="m424.3125 368.683594h16.027344v15.078125h-16.027344zm0 0"/><path d="m408.28125 384.714844h16.03125v15.078125h-16.03125zm0 0"/><path d="m384.238281 272.503906h16.027344v15.078125h-16.027344zm0 0"/></g><path d="m352.175781 272.503906h16.03125v15.078125h-16.03125zm0 0" fill="#fff"/></svg>