<svg height="512pt" viewBox="-64 0 512 512.00001" width="512pt" xmlns="http://www.w3.org/2000/svg"><path d="m376.222656 39.597656v160.296875h-96.179687v-160.296875h16.03125c0-17.710937 14.347656-32.058594 32.058593-32.058594 17.714844 0 32.0625 14.347657 32.0625 32.058594zm0 0" fill="#31e8bb"/><path d="m296.074219 199.894531h64.117187v304.566407h-64.117187zm0 0" fill="#d9eef7"/><path d="m280.042969 55.628906v120.222656h-272.503907v-24.042968c0-72.136719 64.117188-96.179688 64.117188-96.179688zm0 0" fill="#95adc0"/><path d="m159.820312 55.628906h-88.164062s-64.117188 24.042969-64.117188 96.179688v24.042968h88.164063v-24.042968c0-72.136719 64.117187-96.179688 64.117187-96.179688zm0 0" fill="#8095a6"/><path d="m296.074219 199.894531h32.058593v304.566407h-32.058593zm0 0" fill="#95adc0"/><path d="m103.71875 87.6875c8.816406 0 16.027344 7.214844 16.027344 16.03125s-7.210938 16.027344-16.027344 16.027344-16.03125-7.210938-16.03125-16.027344 7.214844-16.03125 16.03125-16.03125zm0 0" fill="#e6e7e8"/><path d="m320.117188 32.058594h16.03125v15.078125h-16.03125zm0 0" fill="#fff"/><path d="m143.792969 88.164062h112.207031v15.078126h-112.207031zm0 0" fill="#fff"/><path d="m207.910156 136.253906h16.03125v15.078125h-16.03125zm0 0" fill="#fff"/><path d="m320.59375 456.371094h15.078125v16.03125h-15.078125zm0 0" fill="#fff"/><g fill="#231f20"><path d="m383.761719 87.6875v-55.628906h-16.75c-3.53125-18.238282-19.621094-32.058594-38.878907-32.058594-19.257812 0-35.347656 13.820312-38.878906 32.058594h-16.75v16.03125h-202.214844l-1.277343.480468c-.710938.265626-17.636719 6.722657-34.570313 22.597657-15.710937 14.730469-34.441406 40.675781-34.441406 80.640625v31.582031h151.804688v-15.078125h-136.726563v-16.503906c0-27.542969 9.847656-50.84375 29.261719-69.25 12.394531-11.75 25.003906-17.742188 28.8125-19.390625h199.351562v105.144531h-96.652344v15.078125h96.652344v24.042969h80.148438v289.488281h-49.039063v-264.964844h-15.078125v280.042969h79.195313v-304.566406h16.03125v-87.683594h-15.078125v72.609375h-81.101563v-145.222656h16.03125v-7.539063c0-13.519531 11-24.519531 24.519531-24.519531 13.519532 0 24.519532 11 24.519532 24.519531v7.539063h16.03125v40.550781zm0 0"/><path d="m80.148438 103.71875c0 12.996094 10.574218 23.566406 23.570312 23.566406 12.992188 0 23.566406-10.574218 23.566406-23.566406 0-12.996094-10.574218-23.570312-23.566406-23.570312-12.996094 0-23.570312 10.574218-23.570312 23.570312zm32.0625 0c0 4.679688-3.808594 8.488281-8.492188 8.488281s-8.492188-3.808593-8.492188-8.488281c0-4.683594 3.808594-8.492188 8.492188-8.492188 4.679688 0 8.492188 3.808594 8.492188 8.492188zm0 0"/><path d="m239.96875 136.253906h16.03125v15.078125h-16.03125zm0 0"/><path d="m175.851562 136.253906h16.03125v15.078125h-16.03125zm0 0"/><path d="m320.59375 71.65625h15.078125v96.179688h-15.078125zm0 0"/><path d="m320.59375 424.3125h15.078125v16.027344h-15.078125zm0 0"/></g><path d="m320.59375 392.253906h15.078125v16.027344h-15.078125zm0 0" fill="#fff"/></svg>