<svg height="512pt" viewBox="0 0 512 512.00001" width="512pt" xmlns="http://www.w3.org/2000/svg"><path d="m288.058594 7.539062c22.121094 0 40.074218 17.953126 40.074218 40.074219 0 22.121094-17.953124 40.074219-40.074218 40.074219-2.722656 0-5.449219-.320312-8.015625-.800781v32.859375h-64.117188v-32.859375c-2.5625.480469-5.289062.800781-8.015625.800781-22.121094 0-40.074218-17.953125-40.074218-40.074219 0-22.121093 17.953124-40.074219 40.074218-40.074219s40.074219 17.953126 40.074219 40.074219c0 2.726563-.320313 5.449219-.800781 8.015625h1.601562c-.480468-2.566406-.800781-5.289062-.800781-8.015625 0-22.121093 17.953125-40.074219 40.074219-40.074219zm0 0" fill="#95adc0"/><path d="m248.785156 456.371094h-1.601562c.480468 2.566406.800781 5.289062.800781 8.015625 0 22.121093-17.953125 40.074219-40.074219 40.074219s-40.074218-17.953126-40.074218-40.074219c0-22.121094 17.953124-40.074219 40.074218-40.074219 2.726563 0 5.449219.320312 8.015625.800781v-241.246093h64.117188v241.246093c2.5625-.480469 5.289062-.800781 8.015625-.800781 22.121094 0 40.074218 17.949219 40.074218 40.074219 0 22.121093-17.953124 40.074219-40.074218 40.074219s-40.074219-17.953126-40.074219-40.074219c0-2.726563.320313-5.449219.800781-8.015625zm0 0" fill="#95adc0"/><path d="m456.371094 351.375v1.605469c2.566406-.480469 5.289062-.800781 8.015625-.800781 22.121093 0 40.074219 17.953124 40.074219 40.074218s-17.953126 40.074219-40.074219 40.074219c-22.121094 0-40.074219-17.953125-40.074219-40.074219 0-2.726562.320312-5.449218.800781-8.015625h-145.070312v-64.117187h145.070312c-.480469-2.566406-.800781-5.289063-.800781-8.015625 0-22.121094 17.953125-40.074219 40.074219-40.074219 22.121093 0 40.074219 17.953125 40.074219 40.074219 0 22.121093-17.953126 40.074219-40.074219 40.074219-2.726563-.003907-5.449219-.324219-8.015625-.804688zm0 0" fill="#aac4da"/><path d="m55.628906 352.980469v-1.605469c-2.566406.480469-5.289062.800781-8.015625.800781-22.121093 0-40.074219-17.949219-40.074219-40.070312 0-22.125 17.953126-40.074219 40.074219-40.074219 22.121094 0 40.074219 17.949219 40.074219 40.074219 0 2.722656-.320312 5.449219-.800781 8.011719h129.039062v64.121093h-129.039062c.480469 2.5625.800781 5.289063.800781 8.011719 0 22.121094-17.953125 40.074219-40.074219 40.074219-22.121093 0-40.074219-17.949219-40.074219-40.074219 0-22.121094 17.953126-40.074219 40.074219-40.074219 2.726563 0 5.449219.324219 8.015625.804688zm0 0" fill="#aac4da"/><path d="m464.386719 71.65625c22.121093 0 40.074219 17.953125 40.074219 40.074219 0 22.121093-17.953126 40.074219-40.074219 40.074219-2.726563 0-5.449219-.320313-8.015625-.800782v1.605469c2.566406-.480469 5.289062-.800781 8.015625-.800781 22.121093 0 40.074219 17.949218 40.074219 40.074218 0 22.121094-17.953126 40.074219-40.074219 40.074219-22.121094 0-40.074219-17.953125-40.074219-40.074219 0-2.726562.320312-5.453124.800781-8.015624h-338.226562c.480469 2.5625.800781 5.289062.800781 8.015624 0 22.121094-17.953125 40.074219-40.074219 40.074219-22.121093 0-40.074219-17.957031-40.074219-40.074219 0-22.121093 17.953126-40.074218 40.074219-40.074218 2.726563 0 5.449219.320312 8.015625.800781v-1.605469c-2.566406.480469-5.289062.800782-8.015625.800782-22.121093 0-40.074219-17.953126-40.074219-40.074219 0-22.121094 17.953126-40.074219 40.074219-40.074219 22.121094 0 40.074219 17.953125 40.074219 40.074219 0 2.726562-.320312 5.453125-.800781 8.015625h338.226562c-.480469-2.5625-.800781-5.289063-.800781-8.015625 0-22.121094 17.953125-40.074219 40.074219-40.074219zm0 0" fill="#d9eef7"/><path d="m247.183594 55.628906c.480468-2.566406.800781-5.292968.800781-8.015625 0-22.121093-17.953125-40.074219-40.074219-40.074219s-40.074218 17.953126-40.074218 40.074219c0 22.121094 17.953124 40.074219 40.074218 40.074219 2.726563 0 5.449219-.320312 8.015625-.800781v32.859375h32.058594v-64.117188zm0 0" fill="#7b90a0"/><path d="m247.984375 456.371094v-272.503906h-32.058594v241.246093c-2.566406-.480469-5.289062-.800781-8.015625-.800781-22.121094 0-40.074218 17.949219-40.074218 40.074219 0 22.121093 17.953124 40.074219 40.074218 40.074219s40.074219-17.953126 40.074219-40.074219c0-2.726563-.320313-5.453125-.800781-8.015625zm0 0" fill="#7b90a0"/><path d="m240.445312 312.105469h15.078126v120.21875h-15.078126zm0 0" fill="#fff"/><path d="m87.6875 144.265625h200.371094v15.078125h-200.371094zm0 0" fill="#fff"/><path d="m368.207031 144.265625h16.03125v15.078125h-16.03125zm0 0" fill="#fff"/><path d="m384.238281 344.640625h16.027344v15.074219h-16.027344zm0 0" fill="#fff"/><g fill="#231f20"><path d="m464.386719 239.496094c26.253906 0 47.613281-21.363282 47.613281-47.613282 0-16.808593-8.761719-31.601562-21.953125-40.074218 13.191406-8.476563 21.953125-23.269532 21.953125-40.074219 0-26.253906-21.359375-47.613281-47.613281-47.613281-26.253907 0-47.613281 21.359375-47.613281 47.613281 0 .15625 0 .316406.003906.476563h-129.195313v-16.988282c.160157 0 .320313.003906.476563.003906 26.253906 0 47.613281-21.359374 47.613281-47.613281 0-26.253906-21.359375-47.613281-47.613281-47.613281-16.808594 0-31.601563 8.761719-40.074219 21.953125-8.476563-13.191406-23.265625-21.953125-40.074219-21.953125-26.253906 0-47.613281 21.359375-47.613281 47.613281 0 26.253907 21.359375 47.613281 47.613281 47.613281.15625 0 .316406 0 .476563-.003906v16.984375h-48.5625v15.078125h274.375l-1.675781-8.925781c-.445313-2.378906-.671876-4.609375-.671876-6.625 0-17.941406 14.59375-32.535156 32.535157-32.535156 17.941406 0 32.535156 14.59375 32.535156 32.535156 0 17.9375-14.59375 32.535156-32.535156 32.535156-2.015625 0-4.246094-.226562-6.625-.675781l-8.929688-1.671875v19.769531l8.929688-1.675781c2.378906-.445313 4.609375-.671875 6.625-.671875 17.941406 0 32.535156 14.597656 32.535156 32.535156 0 17.941406-14.59375 32.535156-32.535156 32.535156-17.941407 0-32.535157-14.59375-32.535157-32.535156 0-2.019531.226563-4.246094.671876-6.625l1.675781-8.925781h-356.398438l1.675781 8.925781c.445313 2.378906.671876 4.609375.671876 6.625 0 17.941406-14.597657 32.535156-32.535157 32.535156-17.941406.003907-32.535156-14.59375-32.535156-32.53125 0-17.941406 14.59375-32.535156 32.535156-32.535156 2.015625 0 4.246094.222656 6.625.671875l8.929688 1.671875v-19.769531l-8.929688 1.671875c-2.378906.449219-4.609375.675781-6.625.675781-17.941406-.003906-32.535156-14.597656-32.535156-32.539062 0-17.9375 14.59375-32.535157 32.535156-32.535157 17.941407 0 32.535157 14.597657 32.535157 32.535157 0 2.019531-.226563 4.25-.671876 6.625l-1.675781 8.929687h57.976563v-15.078125h-40.554688c0-.160156.003906-.316406.003906-.476562 0-26.253907-21.359374-47.613281-47.613281-47.613281-26.253906 0-47.613281 21.359374-47.613281 47.613281 0 16.808593 8.761719 31.601562 21.953125 40.074219-13.191406 8.476562-21.953125 23.265624-21.953125 40.078124 0 26.25 21.359375 47.613282 47.613281 47.613282 26.253907 0 47.613281-21.363282 47.613281-47.613282 0-.160156-.003906-.320312-.003906-.476562h113.164063v185.292969h-130.585938l1.675781 8.929687c.445313 2.375.671876 4.605469.671876 6.621094 0 17.941406-14.597657 32.539062-32.535157 32.539062-17.941406 0-32.535156-14.597656-32.535156-32.539062 0-17.9375 14.59375-32.535156 32.535156-32.535156 2.015625 0 4.246094.226562 6.625.671875l8.929688 1.675781v-19.769531l-8.929688 1.671875c-2.378906.449218-4.609375.675781-6.625.675781-17.941406 0-32.535156-14.597656-32.535156-32.535156 0-17.941407 14.59375-32.539063 32.535156-32.539063 17.941407 0 32.535157 14.597656 32.535157 32.539063 0 2.015625-.226563 4.246093-.671876 6.621093l-1.675781 8.929688h106.066407v-15.078125h-88.644532c0-.15625.003906-.316406.003906-.472656 0-26.253907-21.359374-47.613281-47.613281-47.613281-26.253906 0-47.613281 21.359374-47.613281 47.613281 0 16.804687 8.761719 31.597656 21.949219 40.070312-13.1875 8.476563-21.949219 23.269531-21.949219 40.074219 0 26.253906 21.359375 47.613281 47.613281 47.613281 26.253907 0 47.613281-21.359375 47.613281-47.613281 0-.15625-.003906-.316406-.003906-.472656h113.164063v25c-.160157-.003906-.320313-.003906-.476563-.003906-26.253906 0-47.613281 21.359374-47.613281 47.613281 0 26.253906 21.359375 47.613281 47.613281 47.613281 16.804688 0 31.597656-8.761719 40.074219-21.953125 8.472656 13.191406 23.265625 21.953125 40.074219 21.953125 26.253906 0 47.613281-21.359375 47.613281-47.613281 0-26.253907-21.359375-47.613281-47.613281-47.613281-.160156 0-.316406 0-.476563.003906v-25h64.59375v-15.078125h-64.59375v-49.042969h146.613281l-1.675781-8.925781c-.445312-2.378907-.671875-4.609375-.671875-6.625 0-17.941407 14.597656-32.535157 32.535156-32.535157 17.941407 0 32.535157 14.59375 32.535157 32.535157 0 17.9375-14.59375 32.535156-32.535157 32.535156-2.015624 0-4.242187-.226563-6.625-.671875l-8.929687-1.675781v19.769531l8.929687-1.671875c2.378907-.445313 4.609376-.671875 6.625-.671875 17.941407 0 32.535157 14.59375 32.535157 32.535156s-14.59375 32.535156-32.535157 32.535156c-17.9375 0-32.535156-14.59375-32.535156-32.535156 0-2.019531.226563-4.246094.671875-6.625l1.675781-8.929687h-57.976562v15.078125h40.554688c0 .160156-.003907.320312-.003907.476562 0 26.253906 21.359375 47.613282 47.613281 47.613282 26.253907 0 47.613282-21.359376 47.613282-47.613282 0-16.808594-8.761719-31.597656-21.949219-40.074218 13.1875-8.476563 21.949219-23.265626 21.949219-40.074219 0-26.253907-21.359375-47.613281-47.613282-47.613281-26.253906 0-47.613281 21.359374-47.613281 47.613281 0 .15625.003907.316406.003907.476562h-129.191407v-96.65625h-15.078125v218.273438l8.929688-1.675781c2.378906-.445313 4.609375-.671876 6.625-.671876 17.941406 0 32.535156 14.597657 32.535156 32.535157 0 17.941406-14.59375 32.535156-32.535156 32.535156-17.9375 0-32.535156-14.59375-32.535156-32.535156 0-2.015625.226562-4.242188.671874-6.625l1.675782-8.925781h-19.769532l1.671876 8.925781c.445312 2.378906.671874 4.609375.671874 6.625 0 17.941406-14.59375 32.535156-32.535156 32.535156-17.9375 0-32.535156-14.59375-32.535156-32.535156 0-17.9375 14.597656-32.535157 32.535156-32.535157 2.019532 0 4.246094.226563 6.625.671876l8.929688 1.675781v-242.792969h193.3125c0 .15625-.003906.316406-.003906.476562 0 26.25 21.359374 47.613282 47.613281 47.613282zm-191.882813-161.695313v34.40625h-49.039062v-34.40625l-8.929688 1.675781c-2.378906.445313-4.609375.671876-6.625.671876-17.941406 0-32.535156-14.59375-32.535156-32.535157 0-17.941406 14.59375-32.535156 32.535156-32.535156s32.535156 14.59375 32.535156 32.535156c0 2.019531-.226562 4.25-.671874 6.625l-1.675782 8.929688h19.773438l-1.675782-8.929688c-.445312-2.378906-.671874-4.609375-.671874-6.625 0-17.941406 14.59375-32.535156 32.535156-32.535156 17.9375 0 32.535156 14.59375 32.535156 32.535156 0 17.941407-14.597656 32.535157-32.535156 32.535157-2.019532 0-4.246094-.226563-6.625-.671876zm0 0"/><path d="m240.445312 280.042969h15.078126v16.03125h-15.078126zm0 0"/><path d="m240.445312 247.984375h15.078126v16.03125h-15.078126zm0 0"/><path d="m304.089844 144.265625h16.027344v15.078125h-16.027344zm0 0"/><path d="m352.179688 144.265625h-16.03125v15.078125h16.03125zm0 0"/><path d="m416.296875 344.640625h16.027344v15.074219h-16.027344zm0 0"/><path d="m79.671875 344.640625h16.03125v15.074219h-16.03125zm0 0"/></g><path d="m111.730469 344.640625h16.03125v15.074219h-16.03125zm0 0" fill="#fff"/></svg>