<svg height="511pt" viewBox="-67 1 511 511.99901" width="511pt" xmlns="http://www.w3.org/2000/svg"><path d="m281.285156 456.371094h64.117188v48.089844h-64.117188zm0 0" fill="#d9eef7"/><path d="m369.449219 296.074219-8.015625 160.296875h-96.179688l-8.011718-160.296875zm0 0" fill="#fd6149"/><path d="m281.285156 199.894531h64.117188v96.179688h-64.117188zm0 0" fill="#d9eef7"/><path d="m313.34375 7.539062c17.714844 0 32.0625 14.347657 32.0625 32.058594h16.027344v160.296875h-96.179688v-160.296875h16.03125c0-17.710937 14.347656-32.058594 32.058594-32.058594zm0 0" fill="#835cc5"/><path d="m225.179688 55.628906 40.074218-8.015625v144.269531l-40.074218-8.015624v40.074218l-176.324219-16.03125-40.074219-88.164062 40.074219-88.164063 176.324219-16.027343zm0 0" fill="#95adc0"/><path d="m108.136719 26.195312-59.28125 5.386719-40.074219 88.164063 40.074219 88.164062 72.511719 6.59375-48.46875-110.785156zm0 0" fill="#8095a6"/><path d="m281.285156 199.894531h32.058594v96.179688h-32.058594zm0 0" fill="#95adc0"/><path d="m281.285156 456.371094h32.058594v48.089844h-32.058594zm0 0" fill="#95adc0"/><path d="m281.285156 296.074219h-24.042968l8.011718 160.296875h56.105469l-8.015625-160.296875zm0 0" fill="#df412d"/><path d="m305.804688 71.65625h15.078124v96.179688h-15.078124zm0 0" fill="#fff"/><path d="m160.378906 191.375-92.34375-8.398438-17.910156-35.8125 13.488281-6.746093 14.152344 28.304687 83.980469 7.636719zm0 0" fill="#fff"/><path d="m185.109375 48.089844h16.027344v15.078125h-16.027344zm0 0" fill="#fff"/><path d="m289.300781 352.652344h48.089844v15.078125h-48.089844zm0 0" fill="#fff"/><g fill="#231f20"><path d="m305.328125 32.058594h16.03125v15.078125h-16.03125zm0 0"/><path d="m153.046875 48.089844h16.03125v15.078125h-16.03125zm0 0"/><path d="m185.109375 80.148438h16.027344v15.078124h-16.027344zm0 0"/><path d="m377.375 288.535156h-24.433594v-40.550781h-15.078125v40.550781h-49.039062v-81.101562h49.039062v16.507812h15.078125v-16.507812h16.03125v-111.730469h-15.078125v96.652344h-81.101562v-145.21875h16.03125v-7.539063c0-13.519531 11-24.519531 24.519531-24.519531 13.523438 0 24.523438 11 24.523438 24.519531v7.539063h16.027343v16.503906h15.078125v-31.582031h-16.75c-3.53125-18.238282-19.621094-32.058594-38.878906-32.058594-19.253906 0-35.347656 13.820312-38.878906 32.058594h-16.75v9.375l-24.996094 5v-39.136719l-80.351562 7.308594 1.363281 15.015625 63.910156-5.8125v111.96875h15.078125v-73.96875l24.996094-5v125.875l-40.074219-8.015625v41.015625l-163.738281-14.882813-36.839844-81.054687 36.839844-81.050782 75.78125-6.890624-1.363282-15.015626-84.515624 7.683594-43.304688 95.273438 43.304688 95.273437 188.917968 17.175781v-39.136718l24.996094 5v9.375h16.027344v81.101562h-24.429688l3.601563 72.03125 15.058593-.753906-2.808593-56.199219h96.355469l-7.261719 145.21875h-81.835938l-2.847656-56.957031-15.058594.753906 3.5625 71.28125h15.664063v48.089844h79.195312v-48.089844h15.664063zm-39.511719 208.386719h-49.039062v-33.011719h49.039062zm0 0"/><path d="m289.300781 320.59375h48.089844v15.078125h-48.089844zm0 0"/><path d="m289.300781 384.714844h48.089844v15.078125h-48.089844zm0 0"/></g><path d="m289.300781 416.773438h48.089844v15.078124h-48.089844zm0 0" fill="#fff"/></svg>