<svg height="511pt" viewBox="0 -6 511.99799 511" width="511pt" xmlns="http://www.w3.org/2000/svg"><path d="m296.179688 42.324219v20.25c-9.402344-6.347657-20.410157-10.445313-32.222657-11.734375l.078125-.480469v-40.179687s32.144532 8.035156 32.144532 32.144531zm0 0" fill="#fd6149"/><path d="m207.78125 66.433594s0 0 0-24.109375 32.144531-32.144531 32.144531-32.144531v40.179687l.402344 1.6875c-11.8125 2.652344-22.5 8.117187-31.339844 15.75zm0 0" fill="#fd6149"/><path d="m296.179688 62.574219c19.367187 12.9375 32.144531 35.035156 32.144531 60.109375 0 10.285156-2.167969 20.089844-6.105469 28.929687 64.851562 26.277344 110.574219 89.761719 110.574219 163.9375 0 97.636719-79.15625 176.792969-176.792969 176.792969s-176.792969-79.15625-176.792969-176.792969c0-74.171875 45.722657-137.660156 110.574219-163.9375-3.9375-8.839843-6.105469-18.640625-6.105469-28.929687 0-21.9375 9.804688-41.625 25.3125-54.886719 8.839844-7.632813 19.527344-13.097656 31.339844-15.75 5.0625-1.125 10.285156-1.6875 15.667969-1.6875 2.652344 0 5.304687.160156 7.957031.480469 11.816406 1.289062 22.824219 5.386718 32.226563 11.734375zm0 0" fill="#95adc0"/><path d="m159.566406 315.550781c0-74.171875 45.726563-137.660156 110.578125-163.9375-3.9375-8.839843-6.109375-18.640625-6.109375-28.929687 0-21.9375 9.804688-41.625 25.3125-54.886719 2.171875-1.875 4.460938-3.609375 6.84375-5.214844-.003906-.003906-.007812-.007812-.011718-.007812-9.402344-6.347657-20.410157-10.445313-32.226563-11.734375-2.652344-.320313-5.300781-.480469-7.957031-.480469-5.382813 0-10.605469.5625-15.667969 1.6875-11.8125 2.652344-22.5 8.117187-31.339844 15.75-15.511719 13.261719-25.316406 32.949219-25.316406 54.886719 0 10.289062 2.171875 20.089844 6.109375 28.929687-64.851562 26.277344-110.578125 89.765625-110.578125 163.9375 0 97.636719 79.15625 176.792969 176.792969 176.792969 13.828125 0 27.265625-1.640625 40.183594-4.640625-78.273438-18.203125-136.613282-88.34375-136.613282-172.152344zm0 0" fill="#8095a6"/><path d="m234.570312 85.195312 10.691407 10.691407-16.074219 16.070312-10.6875-10.6875zm0 0" fill="#fff"/><path d="m277.421875 85.191406 16.070313 16.070313-10.691407 10.691406-16.070312-16.074219zm0 0" fill="#fff"/><path d="m256 451.6875c-75.066406 0-136.136719-61.070312-136.136719-136.136719h15.117188c0 66.730469 54.289062 121.015625 121.019531 121.015625zm0 0" fill="#fff"/><path d="m385.054688 307.515625h15.117187v16.070313h-15.117187zm0 0" fill="#fff"/><g fill="#231f20"><path d="m256 484.785156c-93.316406 0-169.234375-75.917968-169.234375-169.234375 0-24.625 5.171875-48.363281 15.378906-70.550781l-13.734375-6.316406c-4.5 9.785156-8.089844 19.847656-10.785156 30.136718l-33.9375-20.363281-43.6875 96.109375 13.761719 6.257813 36.675781-80.6875 23.824219 14.296875c-1.730469 10.195312-2.613281 20.578125-2.613281 31.117187 0 33.632813 9.058593 65.191407 24.859374 92.363281l-45.105468-12.886718-43.09375 77.574218 13.214844 7.339844 37.265624-67.078125 50.484376 14.425781.054687-.191406c33.707031 44.214844 86.910156 72.804688 146.671875 72.804688 26.265625 0 51.644531-5.410156 75.421875-16.085938l-6.195313-13.792968c-21.816406 9.796874-45.109374 14.761718-69.226562 14.761718zm0 0"/><path d="m119.863281 283.40625h15.117188v16.070312h-15.117188zm0 0"/><path d="m135.9375 267.332031h15.117188v16.074219h-15.117188zm0 0"/><path d="m152.007812 283.40625h15.117188v16.070312h-15.117188zm0 0"/><path d="m368.980469 355.730469h15.121093v16.070312h-15.121093zm0 0"/><path d="m385.054688 339.660156h15.117187v16.070313h-15.117187zm0 0"/><path d="m415.640625 407.875c15.96875-27.601562 24.710937-59.292969 24.710937-92.324219 0-10.511719-.878906-20.914062-2.617187-31.117187l23.828125-14.296875 36.671875 80.6875 13.761719-6.257813-43.683594-96.109375-33.945312 20.367188c-5.335938-20.414063-14.179688-39.824219-26.316407-57.484375-6.113281-8.894532-12.945312-17.179688-20.398437-24.792969l45.140625-45.136719 58.941406 58.945313 10.691406-10.691407-69.632812-69.632812-56.167969 56.164062c-13.398438-11.609374-28.421875-21.273437-44.730469-28.65625 2.648438-7.960937 3.988281-16.289062 3.988281-24.855468 0-5.984375-.667968-11.957032-1.984374-17.746094l-14.742188 3.347656c1.066406 4.691406 1.609375 9.539063 1.609375 14.398438 0 9.035156-1.835937 17.730468-5.457031 25.855468l-3.179688 7.144532 7.246094 2.9375c30.917969 12.527344 57.273438 33.71875 76.21875 61.28125 19.390625 28.214844 29.640625 61.289062 29.640625 95.648437 0 57.425781-28.761719 110.457031-76.933594 141.867188l8.257813 12.664062c18.019531-11.746093 33.539062-26.273437 46.160156-42.816406l.003906.023437 50.484375-14.425781 37.265625 67.078125 13.214844-7.339844-43.09375-77.574218zm0 0"/><path d="m79.207031 141.410156 45.136719 45.140625c-8.453125 8.640625-16.117188 18.136719-22.839844 28.433594l12.660156 8.261719c19.070313-29.207032 46.199219-51.554688 78.457032-64.625l7.25-2.9375-3.183594-7.144532c-3.621094-8.125-5.453125-16.820312-5.453125-25.855468 0-18.914063 8.261719-36.824219 22.695313-49.164063 7.980468-6.894531 17.683593-11.769531 28.039062-14.09375 4.5-1 9.21875-1.507812 14.027344-1.507812 2.339844 0 4.710937.144531 7.140625.4375 10.363281 1.128906 20.328125 4.753906 28.84375 10.503906 7.097656 4.742187 13.113281 10.75 17.871093 17.851563l12.558594-8.414063c-5.105468-7.617187-11.382812-14.210937-18.671875-19.632813v-16.339843c0-12.597657-6.785156-23.5-19.625-31.523438-8.945312-5.589843-17.871093-7.859375-18.246093-7.953125l-9.390626-2.347656v42.3125c-3.019531-.027344-6.023437.117188-8.992187.433594v-42.746094l-9.390625 2.347656c-.375.09375-9.300781 2.363282-18.246094 7.953125-12.835937 8.023438-19.625 18.925781-19.625 31.523438v23.253906c-15.378906 14.980469-24.109375 35.511719-24.109375 57.105469 0 8.566406 1.339844 16.894531 3.988281 24.855468-16.34375 7.394532-31.371093 17.039063-44.753906 28.632813l-56.144531-56.140625-69.632813 69.632812 10.691407 10.691407zm209.414063-99.085937v7.457031c-5.4375-2.429688-11.160156-4.253906-17.027344-5.410156v-23.246094c7.597656 3.710938 17.027344 10.476562 17.027344 21.199219zm-56.253906-21.203125v25.25c-5.957032 1.859375-11.679688 4.414062-17.023438 7.585937v-11.632812c0-10.722657 9.433594-17.492188 17.023438-21.203125zm0 0"/></g></svg>