<svg height="511pt" viewBox="-144 1 511 511.99901" width="511pt" xmlns="http://www.w3.org/2000/svg"><path d="m113.035156 456.371094h-1.605468c.480468 2.566406.800781 5.289062.800781 8.015625 0 22.121093-17.953125 40.074219-40.074219 40.074219s-40.074219-17.953126-40.074219-40.074219c0-22.121094 17.953125-40.074219 40.074219-40.074219 2.726562 0 5.449219.320312 8.015625.800781v-88.964843h64.117187v88.964843c2.566407-.480469 5.289063-.800781 8.015626-.800781 22.121093 0 40.074218 17.953125 40.074218 40.074219 0 22.121093-17.953125 40.074219-40.074218 40.074219-22.121094 0-40.074219-17.953126-40.074219-40.074219 0-2.726563.320312-5.449219.804687-8.015625zm0 0" fill="#95adc0"/><path d="m112.230469 456.371094v-120.222656h-32.058594v88.964843c-2.566406-.480469-5.289063-.800781-8.015625-.800781-22.121094 0-40.074219 17.953125-40.074219 40.074219 0 22.121093 17.953125 40.074219 40.074219 40.074219s40.074219-17.953126 40.074219-40.074219c0-2.726563-.320313-5.449219-.800781-8.015625zm0 0" fill="#7b90a0"/><path d="m168.335938 55.628906v112.207032c0 4.40625-3.605469 8.015624-8.015626 8.015624h-96.179687c-4.40625 0-8.011719-3.609374-8.011719-8.015624v-112.207032c0-4.410156 3.605469-8.015625 8.011719-8.015625h96.179687c4.410157 0 8.015626 3.605469 8.015626 8.015625zm0 0" fill="#8095a6"/><path d="m216.425781 47.613281v288.535157h-208.386719v-288.535157c0-22.121093 17.953126-40.074219 40.074219-40.074219h128.238281c22.121094 0 40.074219 17.953126 40.074219 40.074219zm-48.089843 120.222657v-112.207032c0-4.410156-3.605469-8.015625-8.015626-8.015625h-96.179687c-4.40625 0-8.011719 3.605469-8.011719 8.015625v112.207032c0 4.40625 3.605469 8.015624 8.011719 8.015624h96.179687c4.410157 0 8.015626-3.605468 8.015626-8.015624zm0 0" fill="#31e8bb"/><path d="m104.214844 167.835938v-112.207032c0-4.410156 3.609375-8.015625 8.015625-8.015625h-48.089844c-4.40625 0-8.011719 3.605469-8.011719 8.015625v112.207032c0 4.40625 3.605469 8.015624 8.011719 8.015624h48.089844c-4.40625 0-8.015625-3.605468-8.015625-8.015624zm0 0" fill="#677987"/><path d="m56.128906 55.628906v-8.015625c0-22.121093 17.949219-40.074219 40.074219-40.074219h-48.089844c-22.121093 0-40.074219 17.953126-40.074219 40.074219v288.535157h48.089844zm0 0" fill="#1cb28b"/><path d="m56.128906 256.476562h112.207032v15.078126h-112.207032zm0 0" fill="#fff"/><path d="m128.261719 72.132812h16.027343v15.078126h-16.027343zm0 0" fill="#fff"/><g fill="#231f20"><path d="m223.964844 175.851562v-128.238281c0-26.253906-21.359375-47.613281-47.613282-47.613281h-128.238281c-26.253906 0-47.613281 21.359375-47.613281 47.613281v296.074219h72.132812v73.089844c-.160156-.003906-.316406-.003906-.476562-.003906-26.253906 0-47.613281 21.359374-47.613281 47.613281 0 26.253906 21.359375 47.613281 47.613281 47.613281 16.808594 0 31.601562-8.761719 40.074219-21.953125 8.476562 13.191406 23.265625 21.953125 40.074219 21.953125 26.253906 0 47.613281-21.359375 47.613281-47.613281 0-26.253907-21.359375-47.613281-47.613281-47.613281-.15625 0-.316407 0-.472657.003906v-73.089844h72.132813v-143.792969h-15.078125v128.714844h-193.308594v-280.996094c0-17.941406 14.59375-32.535156 32.535156-32.535156h128.238281c17.9375 0 32.535157 14.59375 32.535157 32.535156v128.238281zm-78.285156 256.671876c2.382812-.445313 4.609374-.671876 6.625-.671876 17.941406 0 32.535156 14.59375 32.535156 32.535157 0 17.9375-14.59375 32.535156-32.535156 32.535156-17.9375 0-32.535157-14.597656-32.535157-32.535156 0-2.019531.226563-4.246094.671875-6.625l1.675782-8.929688h-19.769532l1.671875 8.925781c.449219 2.382813.671875 4.613282.671875 6.628907 0 17.941406-14.59375 32.535156-32.535156 32.535156-17.9375 0-32.535156-14.597656-32.535156-32.535156 0-17.941407 14.597656-32.535157 32.535156-32.535157 2.015625 0 4.246094.226563 6.625.671876l8.929688 1.675781v-90.511719h49.042968v90.511719zm0 0"/><path d="m175.875 167.835938v-112.207032c0-8.578125-6.976562-15.554687-15.554688-15.554687h-16.03125v15.078125h16.03125c.246094 0 .476563.230468.476563.476562v112.207032c0 .246093-.230469.476562-.476563.476562h-96.179687c-.242187 0-.472656-.230469-.472656-.476562v-112.207032c0-.246094.230469-.476562.472656-.476562h56.105469v-15.078125h-56.105469c-8.574219 0-15.550781 6.976562-15.550781 15.554687v112.207032c0 8.578124 6.976562 15.554687 15.550781 15.554687h96.179687c8.578126 0 15.554688-6.976563 15.554688-15.554687zm0 0"/><path d="m56.128906 224.417969h112.207032v15.078125h-112.207032zm0 0"/><path d="m56.128906 288.535156h112.207032v15.078125h-112.207032zm0 0"/><path d="m96.203125 72.132812h16.027344v15.078126h-16.027344zm0 0"/><path d="m128.261719 104.191406h16.027343v15.078125h-16.027343zm0 0"/></g><path d="m104.691406 360.191406h15.078125v64.121094h-15.078125zm0 0" fill="#fff"/></svg>