<svg height="511pt" viewBox="-152 1 511 511.99998" width="511pt" xmlns="http://www.w3.org/2000/svg"><path d="m32.082031 496.445312v-272.503906h64.121094l16.027344 16.027344 24.046875-24.042969h40.074218v280.519531l-8.015624 8.015626h-128.238282zm0 0" fill="#31e8bb"/><path d="m176.351562 103.71875v112.207031h-40.074218l-24.046875 24.042969-16.027344-16.027344h-64.121094v-120.222656zm0 0" fill="#d9eef7"/><path d="m40.097656 55.628906v-48.089844h128.238282v48.089844h32.058593v48.089844h-192.355469v-48.089844zm0 0" fill="#fd6149"/><path d="m104.21875 55.628906v-48.089844h-64.121094v48.089844h-32.058594v48.089844h64.117188v-48.089844zm0 0" fill="#df412d"/><path d="m88.1875 223.941406h-56.105469v272.503906l8.015625 8.015626h56.105469l-8.015625-8.015626zm0 0" fill="#1cb28b"/><path d="m32.082031 103.71875h56.105469v120.222656h-56.105469zm0 0" fill="#95adc0"/><path d="m128.261719 48.089844h16.03125v15.078125h-16.03125zm0 0" fill="#fff"/><path d="m71.683594 183.867188h-15.078125v-55.628907h39.597656v15.078125h-24.519531zm0 0" fill="#fff"/><path d="m72.15625 448.832031h16.03125v15.078125h-16.03125zm0 0" fill="#fff"/><path d="m128.261719 360.667969h16.03125v15.078125h-16.03125zm0 0" fill="#fff"/><path d="m112.234375 344.636719h16.027344v15.078125h-16.027344zm0 0" fill="#fff"/><path d="m128.261719 272.503906h16.03125v15.078125h-16.03125zm0 0" fill="#fff"/><g fill="#231f20"><path d="m168.8125 208.386719h-35.660156l-20.917969 20.921875-12.910156-12.90625h-43.195313v15.078125h36.949219l19.15625 19.152343 27.164063-27.167968h29.414062v269.859375l-3.597656 3.597656h-121.992188l-3.601562-3.597656v-133.132813h-15.078125v139.375l12.429687 12.433594h134.484375l12.433594-12.433594v-331.730468h-15.078125zm0 0"/><path d="m207.933594 48.089844h-32.058594v-48.089844h-71.65625v15.078125h56.578125v48.089844h32.058594v33.011719h-177.277344v-33.011719h64.59375v-15.078125h-32.535156v-33.011719h32.535156v-15.078125h-47.613281v48.089844h-32.058594v63.167968h24.042969v224.890626h15.078125v-224.890626h129.191406v32.535157h15.078125v-32.535157h24.042969zm0 0"/><path d="m96.203125 48.089844h16.027344v15.078125h-16.027344zm0 0"/><path d="m112.234375 128.238281h16.027344v15.078125h-16.027344zm0 0"/><path d="m56.128906 272.503906h16.027344v15.078125h-16.027344zm0 0"/><path d="m72.15625 288.535156h16.03125v15.078125h-16.03125zm0 0"/><path d="m104.21875 400.742188h16.027344v15.078124h-16.027344zm0 0"/></g></svg>