<svg height="511pt" viewBox="1 -21 511.99998 511" width="511pt" xmlns="http://www.w3.org/2000/svg"><path d="m504.460938 8.039062v352.652344h-165.105469l-115.414063 96.179688-24.046875-96.179688h-192.355469v-352.652344zm0 0" fill="#fd6149"/><path d="m7.539062 8.039062h88.164063v352.652344h-88.164063zm0 0" fill="#df412d"/><path d="m223.941406 353.152344h16.027344v15.078125h-16.027344zm0 0" fill="#fff"/><path d="m287.582031 264.039062h-95.226562v-175.375h95.226562zm-80.148437-15.078124h65.070312v-145.21875h-65.070312zm0 0" fill="#fff"/><path d="m440.816406 240.46875h15.078125v16.03125h-15.078125zm0 0" fill="#fff"/><path d="m47.136719 72.15625h-15.074219v-39.597656h39.597656v15.078125h-24.523437zm0 0" fill="#fff"/><path d="m464.386719 289.035156h16.027343v15.078125h-16.027343zm0 0" fill="#fff"/><g fill="#231f20"><path d="m296.074219.5v15.078125h200.847656v112.683594h15.078125v-127.761719zm0 0"/><path d="m496.921875 353.152344h-208.863281v15.078125h30.472656l-90.191406 75.160156-22.558594-90.238281h-53.976562v15.078125h42.203124l25.53125 102.121093 122.542969-102.121093h169.917969v-215.925781h-15.078125zm0 0"/><path d="m15.078125 15.578125h256.953125v-15.078125h-272.03125v367.730469h127.761719v-15.078125h-112.683594zm0 0"/><path d="m256 353.152344h16.03125v15.078125h-16.03125zm0 0"/><path d="m167.359375 189.257812-12.90625-12.90625 12.90625-12.90625v-54.335937l-20.445313-20.445313h-90.808593v175.375h90.808593l20.445313-20.445312zm-15.078125 48.089844-11.613281 11.613282h-69.484375v-65.070313h69.484375l11.613281 11.613281zm0-80.148437-11.613281 11.613281h-69.484375v-65.070312h69.484375l11.613281 11.613281zm0 0"/><path d="m407.804688 88.664062h-95.226563v175.375h95.226563zm-15.078126 160.296876h-65.070312v-145.21875h65.070312zm0 0"/><path d="m440.816406 96.203125h15.078125v128.234375h-15.078125zm0 0"/><path d="m464.386719 321.09375h16.027343v15.078125h-16.027343zm0 0"/><path d="m432.328125 321.09375h16.027344v15.078125h-16.027344zm0 0"/></g></svg>