<svg height="512pt" viewBox="-56 0 512 512.00001" width="512pt" xmlns="http://www.w3.org/2000/svg"><path d="m336.390625 432.324219h55.863281c0 39.835937-32.300781 72.136719-72.136718 72.136719h-240.445313c-39.832031 0-72.132813-32.300782-72.132813-72.136719zm0 0" fill="#d9eef7"/><path d="m224.179688 432.324219h-216.640626v-80.148438h112.449219zm0 0" fill="#95adc0"/><path d="m336.390625 432.324219h-112.210937l-104.191407-80.148438h104.191407zm0 0" fill="#8095a6"/><path d="m392.253906 352.175781v80.148438h-55.863281l-112.210937-80.148438zm0 0" fill="#95adc0"/><path d="m392.253906 272.03125v80.144531h-208.386718l104.191406-80.144531zm0 0" fill="#d9eef7"/><path d="m288.058594 272.03125-104.191406 80.144531h-112.207032l112.207032-80.144531zm0 0" fill="#8095a6"/><path d="m183.867188 272.03125-112.207032 80.144531h-64.121094v-80.144531zm0 0" fill="#d9eef7"/><path d="m392.253906 167.835938v104.195312h-384.714844v-104.195312h78.625c-4.167968 7.054687-6.492187 15.226562-6.492187 24.042968 0 26.53125 21.5625 48.089844 48.089844 48.089844 26.53125 0 48.089843-21.558594 48.089843-48.089844l-24.042968-24.042968h96.175781l-24.042969 24.042968c0 26.53125 21.5625 48.089844 48.089844 48.089844s48.089844-21.558594 48.089844-48.089844c0-8.816406-2.324219-16.992187-6.492188-24.042968zm0 0" fill="#95adc0"/><path d="m313.628906 167.835938c4.167969 7.054687 6.488282 15.226562 6.488282 24.042968 0 26.53125-21.558594 48.089844-48.085938 48.089844-26.53125 0-48.089844-21.558594-48.089844-48.089844l48.085938-48.085937c17.796875 0 33.34375 9.695312 41.601562 24.042969zm0 0" fill="#fd6149"/><path d="m86.164062 167.835938c8.257813-14.347657 23.804688-24.042969 41.597657-24.042969l24.046875 24.042969 24.042968 24.042968c0 26.53125-21.5625 48.089844-48.089843 48.089844-26.53125 0-48.089844-21.558594-48.089844-48.089844 0-8.816406 2.324219-16.988281 6.492187-24.042968zm0 0" fill="#fd6149"/><path d="m7.539062 167.835938v-80.148438h384.710938v80.148438h-78.621094c-8.257812-14.347657-23.804687-24.042969-41.597656-24.042969l-24.046875 24.042969h-96.175781l-24.046875-24.042969c-17.792969 0-33.339844 9.695312-41.59375 24.042969zm0 0" fill="#d9eef7"/><path d="m392.253906 79.671875v8.015625h-119.984375l-112.207031-80.148438h160.054688c39.835937 0 72.136718 32.300782 72.136718 72.132813zm0 0" fill="#95adc0"/><path d="m272.269531 87.6875h-112.207031l-100.507812-77.261719c6.414062-1.925781 13.144531-2.886719 20.117187-2.886719h80.390625zm0 0" fill="#8095a6"/><path d="m160.0625 87.6875h-152.523438v-8.015625c0-32.859375 21.960938-60.59375 52.015626-69.246094zm0 0" fill="#95adc0"/><path d="m79.671875 432.324219h-72.132813c0 39.835937 32.300782 72.136719 72.132813 72.136719h72.136719c-39.835938 0-72.136719-32.300782-72.136719-72.136719zm0 0" fill="#95adc0"/><path d="m79.671875 352.175781h-72.132813v80.148438h72.132813zm0 0" fill="#8095a6"/><path d="m71.660156 352.175781h8.011719v-5.722656zm0 0" fill="#8095a6"/><path d="m79.671875 346.453125v-74.421875h-72.132813v80.144531h64.121094zm0 0" fill="#95adc0"/><path d="m79.671875 191.878906v-24.042968h-72.132813v104.195312h72.132813zm0 0" fill="#8095a6"/><path d="m7.539062 87.6875h72.132813v80.148438h-72.132813zm0 0" fill="#95adc0"/><path d="m131.691406 10.425781c6.410156-1.925781 13.144532-2.886719 20.117188-2.886719h-72.136719c-6.972656 0-13.703125.960938-20.117187 2.886719l34.289062 26.355469c9.277344-12.519531 22.492188-21.933594 37.847656-26.355469zm0 0" fill="#637482"/><path d="m79.671875 79.671875c0-16.074219 5.28125-30.902344 14.171875-42.890625l-34.289062-26.355469c-30.054688 8.652344-52.015626 36.386719-52.015626 69.246094v8.015625h72.136719v-8.015625zm0 0" fill="#8095a6"/><g fill="#fff"><path d="m351.703125 55.628906h-15.078125c0-2.492187-.835938-8.308594-8.574219-8.492187h-31.976562v-15.078125h32.058593c9.472657 0 23.570313 6.277344 23.570313 23.570312zm0 0"/><path d="m63.644531 112.207031h16.027344v15.078125h-16.027344zm0 0"/><path d="m39.597656 392.726562h16.03125v15.078126h-16.03125zm0 0"/><path d="m55.628906 376.699219h16.03125v15.078125h-16.03125zm0 0"/><path d="m71.660156 392.726562h16.027344v15.078126h-16.027344zm0 0"/><path d="m320.117188 456.847656h16.03125v15.078125h-16.03125zm0 0"/></g><path d="m384.714844 264.492188h-369.636719v-40.550782h-15.078125v208.386719c0 43.929687 35.742188 79.671875 79.671875 79.671875h160.296875v-15.078125h-160.296875c-33.066406 0-60.390625-24.980469-64.140625-57.054687h96.203125v-15.078126h-96.65625v-65.070312h102.34375l84.59375 65.070312h-66.238281v15.078126h248.480468c-3.746093 32.074218-31.074218 57.054687-64.140624 57.054687h-56.101563v15.078125h56.101563c43.933593 0 79.671874-35.742188 79.671874-79.671875v-216.402344h-15.074218zm-178.683594 80.148437 84.59375-65.074219h94.089844v65.074219zm178.683594 15.074219v65.074218h-45.910156l-91.097657-65.074218zm-289.53125-15.074219 91.097656-65.074219h79.613281l-84.589843 65.074219zm-80.105469-65.074219h145.265625l-91.101562 65.074219h-54.164063zm127.074219 80.148438h79.613281l91.097656 65.074218h-86.117187zm0 0" fill="#231f20"/><path d="m320.117188 0h-48.085938v15.078125h48.085938c35.621093 0 64.597656 28.976563 64.597656 64.59375v.476563h-110.03125l-91.097656-65.070313h64.398437v-15.078125h-168.3125c-6.335937 0-12.53125.742188-18.429687 2.171875l-.726563-.570313-.726563.929688c-.777343.207031-1.550781.417969-2.316406.648438-33.839844 9.742187-57.472656 41.199218-57.472656 76.492187v120.222656h15.078125v-24.519531h59.558594c-1.648438 5.292969-2.503907 10.859375-2.503907 16.507812 0 30.671876 24.957032 55.625 55.628907 55.625 30.675781 0 55.628906-24.953124 55.628906-55.625v-3.125l-13.382813-13.382812h59.777344l-13.382812 13.382812v3.125c0 30.671876 24.953125 55.625 55.628906 55.625 30.671875 0 55.628906-24.953124 55.628906-55.625 0-5.65625-.855468-11.226562-2.5-16.507812h59.554688v16.507812h15.078125v-112.210937c0-43.929687-35.742188-79.671875-79.675781-79.671875zm-162.472657 15.078125 91.101563 65.070313h-86.121094l-84.609375-65.042969c.550781-.011719 1.101563-.027344 1.65625-.027344zm-99.539062 3.738281 79.78125 61.332032h-122.808594v-.476563c0-27.335937 17.484375-51.816406 43.027344-60.855469zm69.65625 213.613282c-22.359375 0-40.550781-18.191407-40.550781-40.550782 0-7.296875 1.832031-14.097656 5.488281-20.285156 6.691406-11.625 18.78125-19.15625 32.054687-20.152344l43.449219 43.449219c-1.546875 20.960937-19.09375 37.539063-40.441406 37.539063zm144.269531 0c-21.347656 0-38.894531-16.578126-40.441406-37.539063l43.449218-43.449219c13.273438.996094 25.367188 8.53125 32.097657 20.226563 3.613281 6.113281 5.445312 12.914062 5.445312 20.210937-.003906 22.363282-18.191406 40.550782-40.550781 40.550782zm45.738281-72.132813c-10.289062-14.929687-27.425781-24.042969-45.738281-24.042969h-3.125l-24.042969 24.042969h-89.933593l-24.042969-24.042969h-3.125c-18.335938 0-35.492188 9.136719-45.742188 24.042969h-66.941406v-65.070313h369.636719v65.070313zm0 0" fill="#231f20"/><path d="m31.585938 112.207031h16.027343v15.078125h-16.027343zm0 0" fill="#231f20"/><path d="m352.179688 288.535156h16.027343v15.078125h-16.027343zm0 0" fill="#231f20"/><path d="m336.148438 304.566406h16.03125v15.074219h-16.03125zm0 0" fill="#231f20"/><path d="m288.058594 456.847656h16.03125v15.078125h-16.03125zm0 0" fill="#231f20"/><path d="m256 456.847656h16.03125v15.078125h-16.03125zm0 0" fill="#fff"/></svg>