<svg height="512pt" viewBox="0 -99 512.00001 512" width="512pt" xmlns="http://www.w3.org/2000/svg"><path d="m90.871094 267.050781s.707031 3.382813 2.4375 8.179688l-2.4375.863281-39.316406-9.042969c0-78.628906-24.058594-117.789062-24.058594-117.789062v-.15625h63.375zm0 0" fill="#8095a6"/><path d="m350.042969 196.28125 25.792969 90.195312-1.886719.546876-117.949219-12.109376-117.949219 12.109376-2.121093-.628907 25.710937-90.113281 15.726563-47.175781 23.589843 47.175781 31.453125-47.175781 23.589844 47.175781 26.972656-40.414062 20.207032 40.414062 31.453124-47.175781zm0 0" fill="#8095a6"/><path d="m420.8125 196.28125v70.769531s-.707031 3.382813-2.359375 8.097657c-4.246094 11.5625-14.703125 31.21875-36.957031 31.21875l-5.660156-19.894532-25.792969-90.191406-15.410157-47.179688h86.183594v47.179688zm0 0" fill="#d9eef7"/><path d="m420.8125 149.105469h63.222656s-23.589844 39.316406-23.589844 117.945312l-39.316406 9.042969-2.675781-.941406c1.652344-4.71875 2.359375-8.097656 2.359375-8.097656zm0 0" fill="#8095a6"/><path d="m334.632812 149.105469-31.453124 47.175781-20.207032-40.414062 4.480469-6.761719zm0 0" fill="#d9eef7"/><path d="m279.589844 149.105469 3.382812 6.761719-26.972656 40.414062-23.589844-47.175781zm0 0" fill="#d9eef7"/><path d="m232.410156 149.105469-31.453125 47.175781-23.589843-47.175781zm0 0" fill="#d9eef7"/><path d="m90.871094 149.105469h86.496094l-15.726563 47.175781-25.714844 90.113281-5.738281 19.972657c-22.175781 0-32.632812-19.578126-36.878906-31.136719-1.730469-4.796875-2.4375-8.179688-2.4375-8.179688zm0 0" fill="#d9eef7"/><path d="m491.898438 133.378906 7.863281 15.726563h-487.519531l7.863281-15.726563c0-69.511718 54.492187-125.8125 121.722656-125.8125 52.449219 0 97.03125 30.585938 114.171875 78.632813 17.144531-48.046875 61.726562-78.632813 114.175781-78.632813 67.230469 0 121.722657 56.300782 121.722657 125.8125zm0 0" fill="#fd6149"/><path d="m190.050781 16.976562c-14.789062-6.085937-31.070312-9.410156-48.222656-9.410156-67.230469 0-121.722656 56.300782-121.722656 125.808594l-7.863281 15.726562h94.355468l7.863282-15.726562c0-52.613281 31.25-97.609375 75.589843-116.398438zm0 0" fill="#df412d"/><path d="m130.1875 267.050781v-117.945312h-39.316406v117.945312s.707031 3.382813 2.4375 8.179688c4.246094 11.558593 14.707031 31.136719 36.878906 31.136719l5.742188-19.972657.660156-2.316406c-1.683594-3.148437-2.996094-6.210937-3.964844-8.847656-1.730469-4.796875-2.4375-8.179688-2.4375-8.179688zm0 0" fill="#95adc0"/><path d="m74.847656 117.652344h-15.128906c0-43.195313 35.140625-78.335938 78.332031-78.335938v15.132813c-34.851562-.003907-63.203125 28.351562-63.203125 63.203125zm0 0" fill="#fff"/><path d="m114.761719 172.695312h15.128906v15.726563h-15.128906zm0 0" fill="#fff"/><path d="m382.109375 219.871094h15.132813v15.726562h-15.132813zm0 0" fill="#fff"/><path d="m382.109375 188.421875h15.132813v15.722656h-15.132813zm0 0" fill="#fff"/><g fill="#231f20"><path d="m512 156.667969-12.550781-25.101563c-.945313-72.710937-58.574219-131.566406-129.277344-131.566406-4.222656 0-8.476563.191406-12.632813.566406l1.363282 15.070313c3.707031-.335938 7.5-.507813 11.269531-.507813 62.949219 0 114.160156 53.046875 114.160156 118.246094v1.789062l3.1875 6.375h-463.039062l3.1875-6.375v-1.789062c0-65.199219 51.210937-118.246094 114.160156-118.246094 24.214844 0 47.050781 6.90625 66.039063 19.96875 18.960937 13.046875 33.140624 31.59375 41.007812 53.640625l7.125 19.972657 7.125-19.972657c11.09375-31.085937 35.230469-55.355469 66.21875-66.578125l-5.152344-14.226562c-29.632812 10.734375-53.753906 31.949218-68.183594 59.441406-21.707031-41.441406-64.808593-67.375-114.179687-67.375-70.703125 0-128.332031 58.855469-129.277344 131.566406l-12.550781 25.101563h22.886719c2.15625 4.3125 5.898437 12.632812 9.621093 24.929687 5.238282 17.296875 11.484376 46.164063 11.484376 85.453125v6.023438l44.457031 10.226562c8.855469 19.546875 23.824219 30.632813 41.738281 30.632813h5.699219l5.648437-19.660156 114.464844-11.753907 46.40625 4.765625 1.546875-15.050781-47.953125-4.921875-109.980469 11.289062 13.921875-48.789062-14.550781-4.152344-16.734375 58.648438-4 13.921875c-8.277344-1.753907-17.796875-8.054688-24.230469-25.566407-1.078125-2.992187-1.714843-5.371093-1.988281-6.480468v-109.515625h68.433594l-14.75 45.402343 14.550781 4.152344 12.097656-37.398437 21.25 42.5 31.453125-47.179688 23.585938 47.175781 26.972656-40.417968 20.210938 40.421875 30.039062-45.054688 33.429688 112.304688-32.347657-3.320313-1.546875 15.050782 38.367188 3.9375 5.601562 19.691406h5.714844c10.769531 0 29.898438-4.128906 41.777344-30.570313l44.734375-10.289062v-6.023438c0-39.3125 6.125-68.238281 11.265625-85.582031 3.59375-12.132812 7.210937-20.417969 9.335937-24.800781zm-428.691406 109.921875-24.234375-5.570313c-.820313-53.132812-12.328125-87.785156-19.492188-104.351562h43.726563zm106.300781-109.921875h28.664063l-16.378907 24.574219zm55.042969 0h28.667968l-16.378906 24.578125zm47.179687 0h28.664063l-16.378906 24.574219zm119.5 115.929687c-6.460937 17.550782-16 23.867188-24.285156 25.628906l-3.9375-13.832031-38.046875-127.726562h68.183594v109.519531c-.269532 1.117188-.886719 3.476562-1.914063 6.410156zm41.59375-11.578125-24.546875 5.644531v-109.996093h43.617188c-7.023438 16.625-18.269532 51.308593-19.070313 104.351562zm0 0"/><path d="m397.539062 47.179688h15.726563v15.128906h-15.726563zm0 0"/><path d="m413.265625 62.90625h15.726563v15.128906h-15.726563zm0 0"/><path d="m428.992188 78.632812h15.726562v15.128907h-15.726562zm0 0"/><path d="m114.761719 204.144531h15.128906v15.730469h-15.128906zm0 0"/></g></svg>