<svg height="512pt" viewBox="-138 0 512 512.00101" width="512pt" xmlns="http://www.w3.org/2000/svg"><path d="m39.078125 388.058594v70.917968h-31.519531v-291.546874l23.640625-23.636719h7.878906zm0 0" fill="#c5d8e1"/><path d="m165.152344 451.09375c0 13.082031-8.039063 24.347656-19.382813 29.078125l-12.136719 18.203125-12.132812-18.203125c-11.347656-4.726563-19.386719-15.996094-19.386719-29.078125 0-17.410156 14.105469-31.515625 31.519531-31.515625 17.414063 0 31.519532 14.105469 31.519532 31.515625zm0 0" fill="#fd6149"/><path d="m228.1875 340.78125v47.277344h-47.277344zm0 0" fill="#8095a6"/><path d="m228.1875 254.105469v86.675781l-47.277344 47.277344h-86.675781zm0 0" fill="#fd6149"/><path d="m228.1875 159.550781v94.554688l-133.953125 133.953125h-55.15625v-39.398438zm0 0" fill="#31e8bb"/><path d="m228.1875 88.632812v70.917969l-189.109375 189.109375v-94.554687l156.175781-156.171875c20.5625-4.335938 32.933594-9.300782 32.933594-9.300782zm0 0" fill="#fd6149"/><path d="m195.253906 97.933594-156.175781 156.171875v-78.796875l70.914063-70.914063.082031-.945312c7.40625.628906 15.285156.945312 23.558593.945312 24.269532 0 45.464844-3.074219 61.621094-6.460937zm0 0" fill="#31e8bb"/><path d="m110.074219 103.449219-.078125.945312-70.917969 70.914063v-86.675782s28.523437 11.425782 70.996094 14.816407zm0 0" fill="#fd6149"/><path d="m195.253906 97.933594c-16.15625 3.386718-37.351562 6.460937-61.621094 6.460937-8.273437 0-16.152343-.316406-23.558593-.945312-42.472657-3.390625-70.996094-14.816407-70.996094-14.816407l94.554687-78.792968 94.554688 78.792968s-12.371094 4.964844-32.933594 9.300782zm0 0" fill="#d9eef7"/><path d="m94.234375 388.058594h7.878906v-7.878906zm0 0" fill="#df412d"/><path d="m102.113281 285.625-63.035156 63.035156v39.398438h55.15625l7.878906-7.878906zm0 0" fill="#1cb28b"/><path d="m102.113281 191.070312-63.035156 63.035157v94.554687l63.035156-63.035156zm0 0" fill="#df412d"/><path d="m102.113281 112.273438-63.035156 63.035156v78.796875l63.035156-63.035157zm0 0" fill="#1cb28b"/><path d="m102.113281 104.394531 1.542969-1.542969c-38.886719-3.949218-64.578125-14.21875-64.578125-14.21875v86.675782l63.035156-63.035156zm0 0" fill="#df412d"/><path d="m168.015625 38.492188-34.382813-28.652344-94.554687 78.792968s25.691406 10.269532 64.578125 14.21875zm0 0" fill="#c5d8e1"/><path d="m133.632812 199.269531h15.761719v15.117188h-15.761719zm0 0" fill="#fff"/><path d="m149.394531 183.511719h15.757813v15.117187h-15.757813zm0 0" fill="#fff"/><path d="m173.03125 246.546875h15.757812v15.117187h-15.757812zm0 0" fill="#fff"/><g fill="#231f20"><path d="m235.746094 198.949219v-113.855469l-102.113282-85.09375-42.660156 35.550781 9.679688 11.613281 32.980468-27.488281 79.269532 66.058594c-5.078125 1.484375-11.558594 3.191406-19.203125 4.800781-19.925781 4.179688-40.136719 6.300782-60.066407 6.300782-8.046874 0-15.757812-.3125-22.957031-.921876-24.5-1.957031-44.328125-6.699218-56.296875-10.191406l28.9375-24.113281-9.679687-11.613281-42.117188 35.097656v51.140625h-3.453125l-28.066406 28.066406v137.082031h15.117188v-130.824218l16.402343-16.398438v297.257813h-16.402343v-126.394531h-15.117188v141.511718h31.519531v39.71875h15.117188v-110.636718h79.4375v17.140624c-17.941407 3.53125-31.519531 19.375-31.519531 38.335938 0 15.015625 8.5 28.53125 21.851562 35.066406l17.226562 25.839844 17.226563-25.839844c13.347656-6.535156 21.851563-20.050781 21.851563-35.066406 0-18.960938-13.578126-34.804688-31.519532-38.335938v-17.140624h94.554688v-173.027344h-15.117188v28.386718l-52.941406 52.941407 10.6875 10.691406 42.253906-42.253906v65.292969l-42.851562 42.851562h-65.296875l50.136719-50.132812-10.691407-10.6875-60.824219 60.820312h-44.464843v-28.707031l173.992187-173.992188v21.148438zm-78.152344 252.144531c0 9.699219-5.785156 18.371094-14.734375 22.101562l-2.109375.878907-7.117188 10.671875-7.117187-10.671875-2.109375-.878907c-8.949219-3.730468-14.734375-12.402343-14.734375-22.101562 0-13.207031 10.75-23.957031 23.960937-23.957031 13.210938 0 23.960938 10.746093 23.960938 23.957031zm63.035156-92.0625v21.46875h-21.46875zm-47.492187-249.675781-126.5 126.503906v-57.417969l67.144531-67.144531c6.320312.429687 12.96875.65625 19.851562.65625 13.105469 0 26.320313-.871094 39.503907-2.597656zm-126.5-10.144531c9.9375 3.078124 26.519531 7.445312 47.664062 10.183593l-47.664062 47.667969zm0 231.203124v-73.175781l152.382812-152.386719c8.929688-1.953124 16.242188-3.988281 21.609375-5.648437v57.214844zm0 0"/><path d="m70.917969 411.699219h15.117187v31.515625h-15.117187zm0 0"/><path d="m70.917969 458.976562h15.117187v15.757813h-15.117187zm0 0"/><path d="m70.917969 482.613281h15.117187v15.761719h-15.117187zm0 0"/><path d="m204.871094 411.699219h15.117187v15.757812h-15.117187zm0 0"/><path d="m220.628906 427.457031h15.117188v15.757813h-15.117188zm0 0"/><path d="m189.113281 451.09375h15.117188v39.402344h-15.117188zm0 0"/><path d="m86.355469 238.667969h15.757812v15.117187h-15.757812zm0 0"/><path d="m102.113281 222.910156h15.761719v15.117188h-15.761719zm0 0"/><path d="m173.03125 151.992188h15.757812v15.117187h-15.757812zm0 0"/><path d="m141.511719 278.066406h15.761719v15.117188h-15.761719zm0 0"/></g><path d="m117.875 301.703125h15.757812v15.117187h-15.757812zm0 0" fill="#fff"/><path d="m102.113281 317.464844h15.761719v15.117187h-15.761719zm0 0" fill="#fff"/></svg>