<svg height="512pt" viewBox="-7 0 512 512.00001" width="512pt" xmlns="http://www.w3.org/2000/svg"><path d="m481.777344 456.371094 8.015625 48.089844h-480.894531l8.015624-48.089844zm0 0" fill="#835cc5"/><path d="m49.695312 416.296875c7.535157-95.214844 81.589844-171.679687 175.765626-182.898437 7.773437-.960938 15.789062-1.441407 23.882812-1.441407 10.742188 0 21.320312.878907 31.660156 2.5625 90.40625 14.347657 160.617188 89.207031 167.992188 181.777344h16.75v40.074219h-432.800782v-40.074219zm0 0" fill="#ffe451"/><path d="m385.597656 7.539062h-160.296875l-24.042969 24.042969v40.074219l24.042969 40.074219v120.222656l.160157 1.445313c7.773437-.964844 15.789062-1.445313 23.886718-1.445313 10.738282 0 21.316406.882813 31.65625 2.566406l.402344-2.566406v-128.234375l-16.03125-16.03125v-16.03125l16.03125-16.027344h72.132812l24.046876 32.058594v64.117188l24.042968 24.046874 24.042969-24.046874v-88.160157zm0 0" fill="#95adc0"/><path d="m145.152344 416.296875h.722656c6.878906-86.976563 69.335938-158.132813 151.859375-178.378906-5.488281-1.363281-11.070313-2.5-16.730469-3.398438-10.339844-1.683593-20.917968-2.5625-31.65625-2.5625-8.097656 0-16.113281.480469-23.886718 1.441407-94.175782 11.21875-168.230469 87.679687-175.765626 182.898437h-16.75v40.074219h96.175782v-40.074219zm0 0" fill="#fbb03b"/><path d="m32.945312 456.371094h-16.03125l-8.015624 48.089844h88.164062l8.015625-48.089844zm0 0" fill="#8327c5"/><g fill="#fff"><path d="m305.449219 408.757812h16.03125v15.078126h-16.03125zm0 0"/><path d="m369.570312 408.757812h16.027344v15.078126h-16.027344zm0 0"/><path d="m120.632812 392.253906h-15.078124c0-61.609375 50.121093-111.734375 111.730468-111.734375v15.078125c-53.292968 0-96.652344 43.359375-96.652344 96.65625zm0 0"/><path d="m241.808594 183.867188h15.078125v16.027343h-15.078125zm0 0"/><path d="m241.808594 119.746094h15.078125v16.03125h-15.078125zm0 0"/></g><path d="m281.40625 512h217.285156l-10.527344-63.167969h-14.878906v-40.074219h-17.445312c-5.4375-47.910156-27.410156-92.472656-62.339844-126.128906l-10.460938 10.855469c33.953126 32.722656 54.710938 76.546875 58.441407 123.410156l.554687 6.941407h16.171875v24.996093h-417.722656v-24.996093h216.875v-15.078126h-199.3125c6.332031-51.816406 33.59375-99.101562 75.675781-130.703124l-9.054687-12.054688c-45.859375 34.441406-75.398438 86.164062-81.804688 142.757812h-17.457031v40.074219h-14.878906l-10.527344 63.167969h249.347656v-15.078125h-231.546875l5.5-33.011719h452.089844l5.5 33.011719h-199.484375zm0 0" fill="#231f20"/><path d="m149.542969 249.953125 7.25 13.214844c21.632812-11.863281 45.035156-19.363281 69.59375-22.289063 7.433593-.917968 15.15625-1.386718 22.960937-1.386718 10.148438 0 20.394532.832031 30.476563 2.472656 30.765625 4.882812 60.234375 17.394531 85.214843 36.179687l9.0625-12.050781c-25.117187-18.886719-54.4375-31.882812-85.15625-37.824219v-127.675781l-16.03125-16.027344v-9.785156l11.613282-11.613281h65.242187l20.277344 27.035156v64.726563l31.582031 31.585937 31.582032-31.585937v-93.703126l-43.734376-61.226562h-43.953124v15.078125h36.195312l36.414062 50.980469v82.625l-16.503906 16.507812-16.507812-16.507812v-53.457032h16.507812v-15.078124h-20.277344l-17.859374-23.8125 11.40625-11.40625-10.660157-10.660157-13.820312 13.820313h-61.472657v-24.519532h-15.078124v28.933594l-11.613282 11.613282h-28.9375v15.078124h24.519532v11.613282l16.03125 16.03125v119.058594c-8.144532-.984376-16.359376-1.480469-24.519532-1.480469-5.5625 0-11.085937.238281-16.507812.675781v-115.449219l-24.042969-40.074219v-34.863281l19.628906-19.628906h85.039063v-15.078125h-91.285156l-28.460938 28.460938v45.285156l24.042969 40.074218v113.03125c-23.976563 3.652344-46.898438 11.402344-68.21875 23.101563zm0 0" fill="#231f20"/><path d="m273.390625 408.757812h16.027344v15.078126h-16.027344zm0 0" fill="#231f20"/><path d="m337.507812 408.757812h16.03125v15.078126h-16.03125zm0 0" fill="#231f20"/><path d="m241.808594 151.804688h15.078125v16.03125h-15.078125zm0 0" fill="#231f20"/></svg>