<svg height="511pt" viewBox="-48 1 511 511.99901" width="511pt" xmlns="http://www.w3.org/2000/svg"><path d="m408.78125 207.910156c0 69.089844-34.945312 130-88.164062 165.988282v130.5625h-224.414063v-130.5625c-53.21875-35.988282-88.164063-96.898438-88.164063-165.988282 0-110.683594 89.6875-200.371094 200.371094-200.371094s200.371094 89.6875 200.371094 200.371094zm0 0" fill="#835cc5"/><path d="m104.21875 207.910156c0-94.101562 64.839844-172.988281 152.28125-194.523437-15.410156-3.796875-31.507812-5.847657-48.089844-5.847657-110.683594 0-200.371094 89.6875-200.371094 200.371094 0 69.089844 34.945313 130 88.164063 165.988282v130.5625h96.175781v-130.5625c-53.214844-35.988282-88.160156-96.898438-88.160156-165.988282zm0 0" fill="#8327c5"/><path d="m288.558594 151.808594c31.015625 0 56.105468 25.085937 56.105468 56.101562 0 31.019532-25.089843 56.105469-56.105468 56.105469s-56.105469-25.085937-56.105469-56.105469zm0 0" fill="#ffe451"/><path d="m128.261719 151.808594 56.105469 56.101562c0 31.019532-25.085938 56.105469-56.105469 56.105469-31.015625 0-56.105469-25.085937-56.105469-56.105469 0-31.015625 25.089844-56.101562 56.105469-56.101562zm0 0" fill="#ffe451"/><path d="m184.363281 296.550781h16.03125v15.078125h-16.03125zm0 0" fill="#fff"/><path d="m216.425781 296.550781h16.027344v15.078125h-16.027344zm0 0" fill="#fff"/><path d="m232.929688 400.265625h15.078124v64.121094h-15.078124zm0 0" fill="#fff"/><path d="m168.8125 400.265625h15.078125v64.121094h-15.078125zm0 0" fill="#fff"/><g fill="#231f20"><path d="m395.171875 116.425781-13.539063 6.640625c13.011719 26.519532 19.609376 55.066406 19.609376 84.84375 0 64.101563-31.71875 123.816406-84.847657 159.742188l-3.316406 2.242187v127.027344h-80.625v15.074219h95.703125v-134.140625c55.28125-38.953125 88.164062-102.175781 88.164062-169.945313 0-32.097656-7.113281-62.878906-21.148437-91.484375zm0 0"/><path d="m103.742188 369.894531-3.316407-2.242187c-12.589843-8.511719-23.960937-18.375-34.007812-29.300782l20.089843-13.394531 5.710938-17.132812 14.578125 9.714843 15.191406 22.792969 12.546875-8.363281-16.867187-25.300781-33.511719-22.34375-10.320312 30.957031-17.253907 11.503906c-26.242187-33.484375-41.003906-75.15625-41.003906-118.875 0-37.316406 10.664063-73.515625 30.847656-104.679687l-12.660156-8.195313c-21.761719 33.613282-33.265625 72.644532-33.265625 112.875 0 67.769532 32.882812 130.992188 88.164062 169.945313v134.144531h119.746094v-15.078125h-104.667968zm0 0"/><path d="m111.277344 41.292969 21.878906 21.875h27.640625v21.398437l-13.820313 13.820313 10.660157 10.660156 18.238281-18.238281v-42.71875h-36.476562l-14.179688-14.183594c25.636719-12.257812 53.972656-18.828125 83.191406-18.828125 38.242188 0 74.734375 11.1875 105.613282 31.410156l-27.5625 13.785157 16.96875 33.941406-9.976563 9.980468h-34.371094l-9.734375 29.199219 14.304688 4.765625 6.296875-18.886718h29.75l22.078125-22.082032-15.085938-30.175781 21.144532-10.574219c16.394531 12.949219 30.824218 28.660156 42.5625 46.789063l12.65625-8.195313c-38.53125-59.507812-103.820313-95.035156-174.644532-95.035156-61.882812 0-120.117187 27.28125-159.769531 74.84375l11.578125 9.652344c14.59375-17.5 31.90625-32.03125 51.058594-43.203125zm0 0"/><path d="m288.558594 271.554688c16.777344 0 32.605468-6.460938 44.566406-18.183594l-10.554688-10.769532c-9.125 8.945313-21.207031 13.875-34.011718 13.875-25.761719 0-46.902344-20.164062-48.472656-45.535156l51.503906-51.503906c25.371094 1.570312 45.535156 22.710938 45.535156 48.472656 0 7.292969-1.570312 14.296875-4.660156 20.816406l13.621094 6.460938c4.058593-8.554688 6.117187-17.730469 6.117187-27.277344 0-35.09375-28.550781-63.640625-63.644531-63.640625h-3.121094l-60.519531 60.519531v3.121094c-.003907 35.09375 28.546875 63.644532 63.640625 63.644532zm0 0"/><path d="m191.902344 207.910156v-3.121094l-18.234375-18.238281-10.664063 10.660157 13.730469 13.730468c-1.570313 25.371094-22.710937 45.535156-48.472656 45.535156-26.78125 0-48.566407-21.789062-48.566407-48.566406 0-25.761718 20.164063-46.902344 45.535157-48.472656l21.746093 21.746094 10.660157-10.660156-26.253907-26.253907h-3.121093c-35.09375 0-63.644531 28.546875-63.644531 63.640625s28.550781 63.644532 63.644531 63.644532 63.640625-28.550782 63.640625-63.644532zm0 0"/><path d="m200.871094 400.265625h15.078125v32.0625h-15.078125zm0 0"/><path d="m264.988281 400.265625h15.078125v32.0625h-15.078125zm0 0"/><path d="m136.75 400.265625h15.078125v32.0625h-15.078125zm0 0"/><path d="m136.75 448.355469h15.078125v16.03125h-15.078125zm0 0"/><path d="m200.871094 448.355469h15.078125v16.03125h-15.078125zm0 0"/><path d="m264.988281 448.355469h15.078125v16.03125h-15.078125zm0 0"/></g></svg>