<svg height="512pt" viewBox="-56 0 512 512.00002" width="512pt" xmlns="http://www.w3.org/2000/svg"><path d="m391.890625 223.734375c0 103.933594-65.261719 190.734375-152.144531 211.472656l16.015625 28.75h-112.101563l16.015625-32.03125c-86.882812-20.738281-152.144531-104.257812-152.144531-208.191406 0-119.390625 86.082031-216.203125 192.179688-216.203125 106.097656 0 192.179687 96.8125 192.179687 216.203125zm0 0" fill="#31e8bb"/><path d="m79.597656 223.734375c0-105.527344 67.265625-193.359375 156.144532-212.347656-11.675782-2.496094-23.710938-3.855469-36.03125-3.855469-106.097657 0-192.179688 96.808594-192.179688 216.203125 0 103.933594 65.261719 187.453125 152.144531 208.191406l-16.015625 32.03125h72.066406l16.015626-32.03125c-86.882813-20.738281-152.144532-104.257812-152.144532-208.191406zm0 0" fill="#1cb28b"/><path d="m87.605469 287.792969h224.210937c0 30.988281-50.207031 64.058593-112.105468 64.058593-61.898438 0-112.105469-33.070312-112.105469-64.058593zm0 0" fill="#f2f2f2"/><path d="m255.601562 175.6875 80.074219-48.042969c0 72.066407-24.019531 80.074219-24.019531 80.074219zm0 0" fill="#f2f2f2"/><path d="m199.710938 159.671875 32.027343 64.0625h-64.058593zm0 0" fill="#f2f2f2"/><path d="m143.660156 175.6875-56.054687 32.03125s-24.019531-8.007812-24.019531-80.074219zm0 0" fill="#f2f2f2"/><path d="m95.613281 80.074219h16.015625v15.0625h-16.015625zm0 0" fill="#fff"/><path d="m111.628906 64.058594h16.015625v15.066406h-16.015625zm0 0" fill="#fff"/><path d="m127.644531 48.046875h16.011719v15.0625h-16.011719zm0 0" fill="#fff"/><path d="m303.808594 240.222656h16.011718v15.0625h-16.011718zm0 0" fill="#fff"/><path d="m79.601562 240.222656h16.011719v15.0625h-16.011719zm0 0" fill="#fff"/><g fill="#231f20"><path d="m341.476562 66.152344-11.277343 9.984375c34.921875 39.429687 54.15625 91.847656 54.15625 147.59375 0 48.246093-14.929688 95.300781-42.042969 132.503906-26.601562 36.496094-63.648438 61.941406-104.3125 71.648437l-9.671875 2.308594 14.617187 26.230469h-87.097656l8.480469-16.964844h35.382813v-15.0625h-39.089844c-30.5625-7.453125-59.082032-23.316406-82.511719-45.929687l-10.460937 10.835937c23.234374 22.429688 51.132812 38.738281 81.152343 47.527344l-17.328125 34.660156h60.707032v40.511719h15.0625v-40.511719h61.339843l-17.554687-31.511719c40.375-12.027343 76.828125-38.332031 103.457031-74.871093 28.980469-39.757813 44.9375-89.964844 44.9375-141.375 0-59.429688-20.578125-115.394531-57.945313-157.578125zm0 0"/><path d="m199.710938 15.0625c42.277343 0 82.070312 15.734375 115.066406 45.5l10.089844-11.183594c-35.296876-31.84375-79.746094-49.378906-125.15625-49.378906-110.121094 0-199.710938 100.367188-199.710938 223.734375 0 55.675781 18.539062 108.578125 52.207031 148.957031l11.570313-9.644531c-31.414063-37.679687-48.714844-87.152344-48.714844-139.3125 0-115.0625 82.832031-208.671875 184.648438-208.671875zm0 0"/><path d="m85.222656 214.863281 3.195313 1.066407 70.144531-40.082032-102.511719-61.507812v13.304687c0 31.160157 4.351563 54.9375 12.933594 70.667969 7.066406 12.957031 14.765625 16.058594 16.238281 16.550781zm43.53125-39.332031-40.894531 23.367188c-4.460937-4.296876-14.535156-18.292969-16.433594-57.765626zm0 0"/><path d="m310.839844 215.929688 3.195312-1.066407c1.472656-.492187 9.175782-3.59375 16.242188-16.550781 8.582031-15.730469 12.933594-39.507812 12.933594-70.667969v-13.304687l-102.511719 61.507812zm.492187-17.070313-40.824219-23.328125 57.328126-34.398438c-1.875 39.34375-11.835938 53.296876-16.503907 57.726563zm0 0"/><path d="m116.578125 337.90625c23.144531 13.851562 52.667969 21.476562 83.132813 21.476562 30.460937 0 59.984374-7.625 83.128906-21.476562 23.203125-13.882812 36.507812-32.148438 36.507812-50.113281v-7.53125h-119.636718v15.0625h56.527343v16.492187h15.0625v-16.492187h31.710938c-3.367188 10.242187-13.277344 20.902343-27.90625 29.65625-20.539063 12.289062-48.019531 19.339843-75.394531 19.339843-27.378907 0-54.859376-7.050781-75.394532-19.339843-14.628906-8.753907-24.539062-19.414063-27.90625-29.65625h31.707032v16.492187h15.066406v-16.492187h32.503906v-15.0625h-95.613281v7.53125c0 17.964843 13.304687 36.230469 36.503906 50.113281zm0 0"/><path d="m155.496094 231.265625h88.433594l-44.21875-88.433594zm24.371094-15.066406 19.84375-39.683594 19.84375 39.683594zm0 0"/><path d="m151.664062 248.230469h96.089844v15.0625h-96.089844zm0 0"/><path d="m335.835938 240.222656h16.015624v15.0625h-16.015624zm0 0"/><path d="m47.570312 240.222656h16.015626v15.0625h-16.015626zm0 0"/></g></svg>