<svg height="512.00001pt" viewBox="0 0 512.00001 512.00001" width="512.00001pt" xmlns="http://www.w3.org/2000/svg"><path d="m336.148438 360.191406h-160.296876l80.148438-32.058594zm0 0" fill="#697b89"/><path d="m256 360.191406h80.148438v144.269532h-80.148438zm0 0" fill="#ffe451"/><path d="m175.851562 360.191406h80.148438v144.269532h-80.148438zm0 0" fill="#ffe451"/><path d="m504.460938 504.460938h-168.3125v-144.269532l-80.148438-32.058594-80.148438 32.058594v144.269532h-168.3125v-336.625h96.179688v64.121093h104.191406v-64.121093h96.179688v64.121093h104.191406v-64.121093h96.179688zm0 0" fill="#95adc0"/><path d="m384.238281 71.65625h-256.476562v-64.117188h48.089843v24.042969h56.105469v-24.042969h48.085938v24.042969h56.105469v-24.042969h48.089843zm0 0" fill="#95adc0"/><path d="m360.191406 71.65625v160.300781h-56.101562v-64.121093h-96.179688v64.121093h-56.101562v-160.300781zm0 0" fill="#d9eef7"/><path d="m151.808594 71.65625h56.101562v160.300781h-56.101562zm0 0" fill="#c8dce4"/><path d="m7.539062 167.835938h64.117188v336.625h-64.117188zm0 0" fill="#708492"/><path d="m127.761719 7.539062h48.089843v64.117188h-48.089843zm0 0" fill="#708492"/><path d="m175.851562 360.191406h40.074219v144.269532h-40.074219zm0 0" fill="#fbb03b"/><path d="m464.386719 392.25v32.0625h-80.148438v-32.0625zm0 0" fill="#ffe451"/><path d="m424.3125 312.105469h40.074219v80.144531h-40.074219zm0 0" fill="#fd6149"/><path d="m384.238281 312.105469h40.074219v80.144531h-40.074219zm0 0" fill="#fd6149"/><path d="m127.761719 392.25v32.0625h-80.148438v-32.0625zm0 0" fill="#ffe451"/><path d="m87.6875 312.105469h40.074219v80.144531h-40.074219zm0 0" fill="#fd6149"/><path d="m47.613281 312.105469h40.074219v80.144531h-40.074219zm0 0" fill="#fd6149"/><path d="m191.40625 151.804688h-15.078125v-55.625h47.613281v15.078124h-32.535156zm0 0" fill="#fff"/><path d="m320.117188 128.238281h16.03125v15.078125h-16.03125zm0 0" fill="#fff"/><path d="m103.71875 479.941406h-63.644531v-31.585937h15.078125v16.507812h48.566406zm0 0" fill="#fff"/><path d="m471.925781 479.941406h-71.660156v-15.078125h56.582031v-16.507812h15.078125zm0 0" fill="#fff"/><path d="m448.355469 272.503906h16.03125v15.078125h-16.03125zm0 0" fill="#fff"/><path d="m384.238281 272.503906h16.027344v15.078125h-16.027344zm0 0" fill="#fff"/><path d="m47.613281 272.503906h16.027344v15.078125h-16.027344zm0 0" fill="#fff"/><g fill="#231f20"><path d="m400.742188 160.296875v64.121094h-33.011719v-96.65625h-15.078125v96.65625h-41.023438v-64.121094h-111.257812v64.121094h-41.027344v-145.222657h56.582031v-15.078124h-80.625v-49.039063h33.011719v24.042969h71.183594v-24.042969h33.007812v24.042969h71.183594v-24.042969h33.011719v49.039063h-136.730469v15.078124h112.683594v24.523438h15.078125v-24.523438h24.046875v-79.195312h-63.167969v24.042969h-41.027344v-24.042969h-63.164062v24.042969h-41.027344v-24.042969h-63.167969v79.195312h24.042969v145.222657h-33.007813v-64.121094h-111.257812v119.746094h15.078125v-104.667969h81.101563v49.042969h-32.539063v15.078125h151.808594v-64.121094h81.101562v49.042969h-32.535156v15.078125h151.804687v-64.121094h81.101563v49.042969h-32.535156v15.078125h32.535156v257.425781h-80.625v15.078125h95.703125v-351.703125zm0 0"/><path d="m343.6875 352.652344h-6.085938l-81.601562-32.640625-81.601562 32.640625h-6.085938v144.269531h-153.234375v-192.832031h-15.078125v207.910156h392.253906v-15.078125h-48.566406zm-87.6875-16.398438 41 16.398438h-82.003906zm72.609375 160.667969h-65.070313v-80.625h-15.078124v80.625h-65.070313v-129.191406h65.070313v24.523437h15.078124v-24.523437h65.070313zm0 0"/><path d="m31.582031 224.417969h16.03125v15.078125h-16.03125zm0 0"/><path d="m231.957031 224.417969h16.027344v15.078125h-16.027344zm0 0"/><path d="m432.328125 224.417969h16.027344v15.078125h-16.027344zm0 0"/><path d="m239.96875 96.179688h16.03125v15.078124h-16.03125zm0 0"/><path d="m320.117188 96.179688h16.03125v15.078124h-16.03125zm0 0"/><path d="m280.042969 424.789062h16.03125v15.078126h-16.03125zm0 0"/><path d="m215.925781 424.789062h16.03125v15.078126h-16.03125zm0 0"/><path d="m40.074219 431.851562h95.226562v-127.285156h-95.226562zm55.152343-112.210937h24.996094v65.074219h-24.996094zm-40.074218 0h24.996094v65.074219h-24.996094zm0 80.152344h65.070312v16.980469h-65.070312zm0 0"/><path d="m376.699219 431.851562h95.226562v-127.285156h-95.226562zm55.152343-112.210937h24.996094v65.074219h-24.996094zm-40.074218 0h24.996094v65.074219h-24.996094zm0 80.152344h65.070312v16.980469h-65.070312zm0 0"/><path d="m416.296875 272.503906h16.03125v15.078125h-16.03125zm0 0"/><path d="m79.671875 272.503906h16.03125v15.078125h-16.03125zm0 0"/></g><path d="m111.730469 272.503906h16.03125v15.078125h-16.03125zm0 0" fill="#fff"/></svg>