<svg height="512pt" viewBox="-45 0 512 512.00102" width="512pt" xmlns="http://www.w3.org/2000/svg"><path d="m413.808594 56.296875v406.265625l-32.5 32.5-56.878906-65.003906-56.875 65.003906-65.003907-73.128906-48.75 65.003906-65.003906-65.003906-81.253906 73.128906v-438.765625c0-26.894531 21.859375-48.753906 48.753906-48.753906h308.761719c26.894531 0 48.75 21.859375 48.75 48.753906zm0 0" fill="#95adc0"/><path d="m137.550781 7.542969h-81.253906c-26.894531 0-48.753906 21.859375-48.753906 48.753906v438.765625l81.253906-73.128906v-365.636719c0-26.894531 21.859375-48.753906 48.753906-48.753906zm0 0" fill="#798d9d"/><path d="m96.921875 251.304688h227.507813c0 44.851562-50.945313 81.25-113.753907 81.25-62.808593 0-113.753906-36.398438-113.753906-81.25zm0 0" fill="#d9eef7"/><path d="m243.015625 145.675781 81.253906-48.753906c0 73.128906-24.375 81.253906-24.375 81.253906zm0 0" fill="#d9eef7"/><path d="m178.175781 145.675781-56.875 32.5s-24.378906-8.125-24.378906-81.253906zm0 0" fill="#d9eef7"/><path d="m55.714844 121.296875h-15.085938v-65c0-17.457031 14.226563-23.796875 23.792969-23.796875h32.5v15.089844h-32.5c-3.199219.074218-8.707031 1.308594-8.707031 8.707031zm0 0" fill="#fff"/><path d="m40.628906 178.175781h15.085938v16.25h-15.085938zm0 0" fill="#fff"/><path d="m373.761719 405.683594h15.089843v16.25h-15.089843zm0 0" fill="#fff"/><path d="m373.761719 340.679688h15.089843v16.25h-15.089843zm0 0" fill="#fff"/><g fill="#231f20"><path d="m365.058594 0h-154.382813v15.089844h154.382813c22.71875 0 41.207031 18.484375 41.207031 41.207031v211.257813h15.085937v-211.257813c0-31.042969-25.253906-56.296875-56.292968-56.296875zm0 0"/><path d="m406.265625 459.433594-24.589844 24.589844-57.246093-65.421876-56.921876 65.054688-65.453124-73.636719-49.070313 65.429688-63.914063-63.910157-73.980468 66.582032v-421.824219c0-22.722656 18.484375-41.207031 41.207031-41.207031h130.003906v-15.089844h-130.003906c-31.042969 0-56.296875 25.253906-56.296875 56.296875v455.703125l88.523438-79.671875 66.09375 66.09375 48.429687-64.574219 64.550781 72.617188 56.832032-64.949219 56.511718 64.582031 40.410156-40.414062v-173.753906h-15.085937zm0 0"/><path d="m89.378906 96.921875c0 76.359375 26.511719 87.402344 29.535156 88.410156l3.199219 1.066407 70.988281-40.566407-103.722656-62.234375zm73.867188 48.59375-41.636719 23.792969c-4.742187-4.464844-14.945313-18.648438-16.839844-58.878906zm0 0"/><path d="m302.277344 185.332031c1.488281-.496093 9.273437-3.632812 16.425781-16.746093 8.699219-15.949219 13.109375-40.058594 13.109375-71.664063v-13.324219l-103.726562 62.234375 70.992187 40.566407zm14.140625-74.902343c-1.890625 40.230468-12.09375 54.414062-16.835938 58.878906l-41.636719-23.792969zm0 0"/><path d="m89.378906 251.304688c0 24.195312 12.957032 46.777343 36.480469 63.582031 22.761719 16.257812 52.882813 25.214843 84.816406 25.214843 31.933594 0 62.054688-8.957031 84.816407-25.214843 23.523437-16.804688 36.480468-39.386719 36.480468-63.582031v-7.546876h-242.59375zm48.75 7.542968v24.957032h15.089844v-24.957032h114.917969v24.957032h15.085937v-24.957032h33.109375c-5.460937 37.109375-50.761719 66.164063-105.65625 66.164063s-100.195312-29.054688-105.65625-66.164063zm0 0"/><path d="m186.300781 186.882812h16.25v15.085938h-16.25zm0 0"/><path d="m218.800781 186.882812h16.25v15.085938h-16.25zm0 0"/><path d="m40.628906 137.546875h15.085938v24.378906h-15.085938zm0 0"/><path d="m373.761719 373.183594h15.089843v16.25h-15.089843zm0 0"/><path d="m357.511719 40.046875h15.089843v16.25h-15.089843zm0 0"/><path d="m373.761719 56.296875h15.089843v16.25h-15.089843zm0 0"/></g></svg>