<svg height="512pt" viewBox="-32 0 512 512.00002" width="512pt" xmlns="http://www.w3.org/2000/svg"><path d="m223.734375 72.066406c119.390625 0 216.199219 96.8125 216.199219 216.203125s-96.808594 216.199219-216.199219 216.199219-216.203125-96.8125-216.203125-216.199219c0-119.390625 96.8125-216.203125 216.203125-216.203125zm0 0" fill="#ffe451"/><path d="m103.621094 288.269531c0-102.871093 71.894531-188.914062 168.15625-210.777343-15.457032-3.507813-31.523438-5.425782-48.042969-5.425782-119.390625 0-216.203125 96.8125-216.203125 216.203125s96.8125 216.199219 216.203125 216.199219c16.519531 0 32.585937-1.914062 48.042969-5.425781-96.261719-21.863281-168.15625-107.90625-168.15625-210.773438zm0 0" fill="#fbb03b"/><path d="m223.734375 256.238281c22.097656 0 40.035156 17.9375 40.035156 40.035157 0 22.101562-17.9375 40.039062-40.035156 40.039062-22.101563 0-40.039063-17.9375-40.039063-40.039062 0-22.097657 17.9375-40.035157 40.039063-40.035157zm0 0" fill="#835cc5"/><path d="m223.734375 200.1875c53.089844 0 96.085937 43 96.085937 96.085938 0 53.089843-42.996093 96.089843-96.085937 96.089843s-96.089844-43-96.089844-96.089843c0-53.085938 43-96.085938 96.089844-96.085938zm40.035156 96.085938c0-22.097657-17.9375-40.035157-40.035156-40.035157-22.101563 0-40.039063 17.9375-40.039063 40.035157 0 22.101562 17.9375 40.039062 40.039063 40.039062 22.097656 0 40.035156-17.9375 40.035156-40.039062zm0 0" fill="#f2f2f2"/><path d="m70.753906 239.152344-14.34375-4.601563c16.660156-51.929687 57.316406-93.789062 108.761719-111.972656l5.019531 14.203125c-47.035156 16.625-84.207031 54.894531-99.4375 102.371094zm0 0" fill="#fff"/><path d="m263.769531 112.578125h16.015625v15.066406h-16.015625zm0 0" fill="#fff"/><path d="m279.785156 128.59375h16.015625v15.0625h-16.015625zm0 0" fill="#fff"/><g fill="#231f20"><path d="m15.0625 288.265625c0-115.058594 93.609375-208.667969 208.671875-208.667969 41.496094 0 81.582031 12.152344 115.921875 35.144532l8.378906-12.519532c-35.707031-23.90625-77.199218-36.882812-120.246094-37.652344l-10.378906-15.566406 13.855469-13.855468v-22.253907l-8.007813-8.007812v-4.886719h-15.0625v11.128906l8.003907 8.007813v9.773437l-18.171875 18.175782 11.921875 17.886718c-116.96875 7.144532-209.949219 104.558594-209.949219 223.292969 0 63.550781 27.179688 124.328125 74.574219 166.75l10.046875-11.222656c-44.203125-39.570313-69.558594-96.253907-69.558594-155.527344zm0 0"/><path d="m364.605469 114.453125-9.492188 11.699219c49.117188 39.855468 77.289063 98.945312 77.289063 162.113281 0 115.0625-93.609375 208.671875-208.667969 208.671875-43.691406 0-85.527344-13.363281-120.984375-38.640625l-8.742188 12.265625c38.023438 27.109375 82.878907 41.4375 129.722657 41.4375 123.367187 0 223.734375-100.367188 223.734375-223.734375 0-67.726563-30.199219-131.078125-82.859375-173.8125zm0 0"/><path d="m216.199219 343.242188v25.097656h15.066406v-25.097656c20.207031-3.230469 36.207031-19.226563 39.433594-39.433594h25.101562v-15.066406h-25.101562c-3.226563-20.207032-19.226563-36.203126-39.433594-39.433594v-25.097656h-15.066406v25.097656c-22.660157 3.621094-40.035157 23.300781-40.035157 46.964844 0 23.667968 17.375 43.347656 40.035157 46.96875zm7.535156-79.472657c17.921875 0 32.503906 14.582031 32.503906 32.503907 0 17.925781-14.582031 32.507812-32.503906 32.507812-17.925781 0-32.507813-14.582031-32.507813-32.507812 0-17.921876 14.582032-32.503907 32.507813-32.503907zm0 0"/><path d="m151.664062 288.742188h24.023438v15.066406h-24.023438zm0 0"/><path d="m215.726562 288.742188h16.015626v15.066406h-16.015626zm0 0"/><path d="m120.386719 303.808594c3.625 50.226562 43.207031 90.644531 93.066406 95.578125l-6.9375 20.816406 17.691406 8.84375v7.332031l-20.667969 13.777344 8.355469 12.535156 27.375-18.253906v-24.699219l-14.335937-7.167969 4.273437-12.820312c52.101563-2.726562 94.128907-44.113281 97.871094-95.941406h20.796875l13.152344-19.734375 19.730468 19.734375h19.136719v-15.066406h-12.894531l-28.3125-28.3125-18.875 28.3125h-12.734375c-3.757813-52.082032-46.179687-93.617188-98.632813-95.976563l-3.554687-7.105469 15.46875-15.46875-10.042969-30.125-17.273437-17.273437-10.652344 10.652343 14.757813 14.757813 5.972656 17.917969-16.558594 16.5625 5.324219 10.648437c-49.121094 5.617188-87.914063 45.710938-91.5 95.410157h-19.886719l-13.851562 13.855468-19.273438-12.851562-16.4375-8.214844-6.734375 13.472656 15.59375 7.796875 28.769531 19.179688 18.175782-18.175781h13.644531zm103.347656-96.089844c48.828125 0 88.554687 39.726562 88.554687 88.554688 0 48.832031-39.726562 88.558593-88.554687 88.558593-48.832031 0-88.558594-39.726562-88.558594-88.558593 0-48.828126 39.726563-88.554688 88.558594-88.554688zm0 0"/><path d="m295.800781 432.878906h16.015625v15.0625h-16.015625zm0 0"/><path d="m311.816406 416.863281h16.011719v15.0625h-16.011719zm0 0"/><path d="m327.828125 400.847656h16.015625v15.0625h-16.015625zm0 0"/><path d="m55.578125 248.707031h16.015625v15.0625h-16.015625zm0 0"/></g></svg>