<svg height="512pt" viewBox="-40 0 512 512.00001" width="512pt" xmlns="http://www.w3.org/2000/svg"><path d="m7.539062 7.539062h32.058594v496.921876h-32.058594zm0 0" fill="#95adc0"/><path d="m424.3125 23.570312v464.859376l-16.03125 16.03125h-368.683594v-496.921876h368.683594zm0 0" fill="#835cc5"/><path d="m39.597656 7.539062h64.121094v496.921876h-64.121094zm0 0" fill="#8327c5"/><path d="m287.898438 143.792969 80.148437-48.089844c0 72.132813-24.042969 80.148437-24.042969 80.148437zm0 0" fill="#ffe451"/><path d="m119.746094 256h224.417968c0 31.015625-50.253906 64.117188-112.207031 64.117188-61.957031 0-112.210937-33.101563-112.210937-64.117188zm0 0" fill="#ffe451"/><path d="m231.957031 127.761719 32.058594 64.121093h-64.121094zm0 0" fill="#ffe451"/><path d="m175.851562 143.792969-56.105468 32.058593s-24.042969-8.015624-24.042969-80.148437zm0 0" fill="#ffe451"/><path d="m63.644531 432.800781h16.027344v15.078125h-16.027344zm0 0" fill="#fff"/><path d="m95.703125 464.863281h16.03125v15.078125h-16.03125zm0 0" fill="#fff"/><path d="m379.347656 479.941406h-35.183594v-15.078125h28.9375l11.613282-11.613281v-101.074219h15.078125v107.320313zm0 0" fill="#fff"/><g fill="#231f20"><path d="m47.136719 15.078125h152.757812v-15.078125h-199.894531v512h143.792969v-15.078125h-96.65625zm-32.058594 481.84375v-481.84375h16.980469v481.84375zm0 0"/><path d="m416.773438 485.308594-11.613282 11.613281h-237.324218v15.078125h243.570312l20.445312-20.445312v-251.585938h-15.078124zm0 0"/><path d="m411.40625 0h-187.464844v15.078125h181.21875l11.613282 11.613281v189.234375h15.078124v-195.480469zm0 0"/><path d="m63.644531 464.863281h16.027344v15.078125h-16.027344zm0 0"/><path d="m88.164062 82.386719v13.316406c0 31.191406 4.355469 54.988281 12.941407 70.734375 7.074219 12.96875 14.785156 16.074219 16.257812 16.566406l3.199219 1.066406 70.207031-40.121093zm31.839844 84.636719c-4.464844-4.300782-14.550781-18.3125-16.449218-57.820313l57.378906 34.429687zm0 0"/><path d="m346.386719 183.003906c1.476562-.492187 9.183593-3.597656 16.257812-16.566406 8.589844-15.746094 12.941407-39.542969 12.941407-70.734375v-13.316406l-102.605469 61.5625 70.210937 40.121093zm13.8125-73.800781c-1.878907 39.382813-11.84375 53.351563-16.515625 57.78125l-40.867188-23.351563zm0 0"/><path d="m315.164062 306.160156c23.222657-13.894531 36.539063-32.179687 36.539063-50.160156v-7.539062h-239.496094v7.539062c0 17.980469 13.320313 36.265625 36.539063 50.160156 23.167968 13.863282 52.71875 21.496094 83.210937 21.496094 30.488281 0 60.039063-7.632812 83.207031-21.496094zm-186.605468-42.621094h31.738281v16.503907h15.078125v-16.503907h113.160156v16.503907h15.078125v-16.503907h31.738281c-3.371093 10.25-13.289062 20.917969-27.929687 29.683594-20.558594 12.300782-48.066406 19.355469-75.464844 19.355469-27.402343 0-54.910156-7.054687-75.46875-19.355469-14.640625-8.765625-24.558593-19.433594-27.929687-29.683594zm0 0"/><path d="m187.699219 199.421875h88.515625l-44.257813-88.515625zm24.394531-15.078125 19.863281-39.722656 19.859375 39.722656zm0 0"/><path d="m183.867188 216.402344h96.175781v15.078125h-96.175781zm0 0"/><path d="m384.714844 320.117188h15.078125v16.03125h-15.078125zm0 0"/></g><path d="m384.714844 288.058594h15.078125v16.03125h-15.078125zm0 0" fill="#fff"/></svg>