<svg height="512pt" viewBox="0 -76 512.00102 512" width="512pt" xmlns="http://www.w3.org/2000/svg"><path d="m239.96875 232.429688c0-7.691407 2.808594-14.664063 7.375-20.195313l12.023438-17.554687 12.664062-18.351563 11.058594 16.027344 13.625 19.878906c4.570312 5.53125 7.375 12.503906 7.375 20.195313 0 17.714843-14.347656 32.0625-32.058594 32.0625-17.714844 0-32.0625-14.347657-32.0625-32.0625zm0 0" fill="#df412d"/><path d="m216.566406 300.398438c4.570313 5.53125 7.375 12.503906 7.375 20.195312 0 17.714844-14.347656 32.0625-32.058594 32.0625-17.714843 0-32.0625-14.347656-32.0625-32.0625 0-7.695312 2.804688-14.664062 7.375-20.195312l24.6875-35.90625zm0 0" fill="#df412d"/><path d="m112.375 260.324219c4.566406 5.53125 7.375 12.503906 7.375 20.195312 0 17.714844-14.347656 32.0625-32.0625 32.0625-17.710938 0-32.058594-14.347656-32.058594-32.0625 0-7.691406 2.804688-14.664062 7.375-20.195312l24.683594-35.90625zm0 0" fill="#df412d"/><path d="m360.191406 152.28125v40.074219h-77.101562l-11.058594-16.027344-12.664062 18.351563-3.367188-2.324219h-248.460938v-72.132813c35.265626 0 35.265626 32.058594 70.53125 32.058594 35.265626 0 35.265626-32.058594 70.53125-32.058594 35.265626 0 35.265626 32.058594 70.449219 32.058594 35.34375 0 35.34375-32.058594 70.609375-32.058594s35.269532 32.058594 70.53125 32.058594zm0 0" fill="#fd6149"/><path d="m392.253906 16.03125h112.207032v40.074219h-112.207032zm0 0" fill="#95adc0"/><path d="m360.191406 16.03125h32.0625v40.074219h-32.0625zm0 0" fill="#d9eef7"/><path d="m7.539062 120.222656v-104.191406h352.652344v136.25c-35.261718 0-35.261718-32.058594-70.527344-32.058594-35.265624 0-35.265624 32.058594-70.613281 32.058594-35.183593 0-35.183593-32.058594-70.449219-32.058594-35.265624 0-35.265624 32.058594-70.53125 32.058594-35.265624 0-35.265624-32.058594-70.53125-32.058594zm0 0" fill="#95adc0"/><path d="m7.539062 120.222656v72.132813h56.105469v-42.332031c-21.671875-7.234376-26.476562-29.800782-56.105469-29.800782zm0 0" fill="#df412d"/><path d="m63.644531 16.03125h-56.105469v104.191406c29.628907 0 34.433594 22.566406 56.105469 29.800782zm0 0" fill="#7b90a0"/><path d="m63.644531 40.550781h264.488281v15.078125h-264.488281zm0 0" fill="#fff"/><path d="m280.042969 72.609375h16.03125v15.078125h-16.03125zm0 0" fill="#fff"/><path d="m79.671875 272.980469h16.03125v15.078125h-16.03125zm0 0" fill="#fff"/><g fill="#231f20"><path d="m15.078125 23.570312h200.847656v-15.078124h-215.925781v39.597656h15.078125zm0 0"/><path d="m399.792969 8.492188v-8.492188h-15.078125v8.492188h-144.746094v15.078124h112.683594v120.523438c-9.90625-1.832031-15.90625-7.285156-22.652344-13.417969-9.277344-8.433593-19.789062-17.992187-40.335938-17.992187-20.535156 0-31.050781 9.550781-40.328124 17.972656-8.324219 7.558594-15.515626 14.085938-30.285157 14.085938-14.664062 0-21.820312-6.511719-30.105469-14.050782-9.273437-8.441406-19.785156-18.007812-40.34375-18.007812-20.546874 0-31.0625 9.558594-40.335937 17.992187-8.304687 7.546875-15.476563 14.066407-30.195313 14.066407s-21.890624-6.519532-30.195312-14.066407c-8.066406-7.335937-17.074219-15.515625-32.796875-17.523437v-41.019532h-15.078125v127.761719h246.65625l-5.351562 7.8125c-5.804688 7.152344-8.871094 15.691407-8.871094 24.722657 0 21.835937 17.761718 39.601562 39.597656 39.601562s39.597656-17.765625 39.597656-39.601562c0-9.03125-3.066406-17.570313-8.875-24.722657l-5.355468-7.8125h70.335937v-136.25h16.980469v8.488281h15.078125v-8.488281h32.535156v-15.078125h-32.535156v-24.996094h97.128906v24.996094h-40.546875v15.078125h55.625v-55.152343zm-127.761719 248.460937c-13.523438 0-24.523438-11-24.523438-24.523437 0-5.597657 1.953126-10.921876 5.648438-15.394532l12.421875-18.085937 6.453125-9.347657 18.464844 26.894532.40625.539062c3.695312 4.472656 5.648437 9.796875 5.648437 15.394532 0 13.523437-11 24.523437-24.519531 24.523437zm15.015625-72.136719-15.019531-21.765625-16.027344 23.234375v-1.46875h-240.921875v-56.402344c9.90625 1.828126 15.90625 7.28125 22.65625 13.417969 9.273437 8.429688 19.789063 17.988281 40.335937 17.988281 20.546876 0 31.0625-9.558593 40.335938-17.988281 8.304688-7.550781 15.476562-14.070312 30.195312-14.070312 14.726563 0 21.894532 6.523437 30.195313 14.078125 9.261719 8.429687 19.753906 17.980468 40.253906 17.980468 20.59375 0 31.128907-9.5625 40.417969-18 8.308594-7.542968 15.484375-14.058593 30.195312-14.058593 14.714844 0 21.886719 6.519531 30.191407 14.070312 8.066406 7.332031 17.074219 15.511719 32.796875 17.523438v25.460937zm97.667969-136.25h-16.984375v-24.996094h16.984375zm0 0"/><path d="m31.585938 40.550781h16.027343v15.078125h-16.027343zm0 0"/><path d="m312.105469 72.609375h16.027343v15.078125h-16.027343zm0 0"/><path d="m247.984375 72.609375h16.03125v15.078125h-16.03125zm0 0"/><path d="m87.6875 211.109375-30.71875 44.683594c-5.8125 7.152343-8.878906 15.695312-8.878906 24.730469 0 21.832031 17.761718 39.597656 39.597656 39.597656s39.597656-17.765625 39.597656-39.597656c0-9.035157-3.066406-17.578126-8.878906-24.730469zm0 93.933594c-13.519531 0-24.519531-11-24.519531-24.523438 0-5.597656 1.949219-10.921875 5.644531-15.394531l18.875-27.402344 18.472656 26.871094.398438.53125c3.695312 4.472656 5.648437 9.792969 5.648437 15.394531 0 13.523438-11 24.523438-24.519531 24.523438zm0 0"/><path d="m191.882812 251.183594-30.71875 44.683594c-5.8125 7.152343-8.882812 15.695312-8.882812 24.730468 0 21.832032 17.765625 39.597656 39.601562 39.597656 21.835938 0 39.597657-17.765624 39.597657-39.597656 0-9.035156-3.070313-17.578125-8.878907-24.730468zm0 93.933594c-13.523437 0-24.523437-11-24.523437-24.523438 0-5.597656 1.953125-10.921875 5.648437-15.394531l18.875-27.402344 18.46875 26.871094.402344.53125c3.695313 4.472656 5.648438 9.796875 5.648438 15.394531 0 13.523438-11 24.523438-24.519532 24.523438zm0 0"/><path d="m183.867188 313.054688h16.027343v15.078124h-16.027343zm0 0"/></g><path d="m264.015625 216.878906h16.027344v15.078125h-16.027344zm0 0" fill="#fff"/></svg>