<svg height="512pt" viewBox="-47 0 512 512.00052" width="512pt" xmlns="http://www.w3.org/2000/svg"><path d="m366.378906 232.425781c16.75-1.105469 51.007813-23.34375 43.761719-60.582031-5.589844 4.175781-14.117187 3.523438-20.214844.953125-.339843-.144531 23.480469-30.765625 5.386719-54.945313-7.0625 10.417969-13.191406 19.03125-27.3125 19.453126-12.535156.371093-24.359375-5.320313-35.535156-10.984376-11.175782-5.667968-22.824219-11.582031-35.363282-11.714843-9.53125-.097657-16.824218 2.183593-18.890624 11.304687-1.09375 4.84375-15.265626 100.894532-18.453126 121.945313 13.324219 25.046875 41.492188 41.5 69.941407 40.847656 28.445312-.652344 55.824219-18.382813 67.976562-44.015625-11.125 3.167969-23.8125-3.472656-31.296875-12.261719zm0 0" fill="#ffa436"/><path d="m366.378906 232.425781c16.75-1.105469 51.007813-23.34375 43.761719-60.582031-5.589844 4.175781-14.117187 3.523438-20.214844.953125-.339843-.144531 23.480469-30.765625 5.386719-54.945313-5.421875 8.003907-10.3125 14.921876-18.679688 17.902344 1.160157 19.148438-10.121093 36.929688-9.90625 37.042969 5.007813 2.570313 12.015626 3.222656 16.605469-.953125 5.957031 37.238281-22.191406 59.476562-35.957031 60.582031 6.152344 8.789063 16.574219 15.429688 25.714844 12.261719-9.394532 24.117188-29.867188 41.234375-51.726563 43.71875 2.769531.253906 5.550781.359375 8.335938.296875 28.445312-.652344 55.824219-18.382813 67.976562-44.015625-11.125 3.167969-23.8125-3.472656-31.296875-12.261719zm0 0" fill="#cc6d0e"/><path d="m52.25 232.425781c-16.75-1.105469-51.003906-23.34375-43.757812-60.582031 5.589843 4.175781 14.113281 3.523438 20.210937.953125.339844-.144531-23.480469-30.765625-5.386719-54.945313 7.0625 10.417969 13.195313 19.03125 27.3125 19.453126 12.535156.371093 24.359375-5.320313 35.535156-10.984376 11.175782-5.667968 22.824219-11.582031 35.363282-11.714843 9.53125-.097657 16.828125 2.183593 18.890625 11.304687 1.097656 4.84375 15.269531 100.894532 18.453125 121.945313-13.320313 25.046875-41.492188 41.5-69.9375 40.847656-28.449219-.652344-55.828125-18.382813-67.976563-44.015625 11.125 3.167969 23.808594-3.472656 31.292969-12.261719zm0 0" fill="#ffa436"/><path d="m153.21875 74.953125c2.71875-5.707031 6.644531-10.976563 10.875-15.367187 10.703125-11.105469 24.273438-20.132813 30.589844-35.3125 2.667968 6.863281 3.761718 14.433593 3.152344 21.839843 18.628906-1.976562 35.050781-18.578125 38.191406-38.613281 21.355468 23.335938 44.371094 58.996094 29.097656 92.738281-16.976562 37.5-61.972656 34.796875-92.3125 20.132813-9.683594-4.679688-19.394531-11.929688-22.410156-22.960938-2.078125-7.601562-.5625-15.367187 2.816406-22.457031zm0 0" fill="#ffa436"/><path d="m339.03125 504.5h-259.433594c-2.222656 0-4.023437-1.800781-4.023437-4.023438v-89.25c0-21.246093 13.1875-40.261718 33.085937-47.707031l100.65625-37.664062 100.652344 37.667969c19.898438 7.445312 33.085938 26.460937 33.085938 47.707031v89.246093c0 2.222657-1.800782 4.023438-4.023438 4.023438zm0 0" fill="#80b9f9"/><path d="m339.03125 504.5c2.222656 0 4.023438-1.800781 4.023438-4.023438v-89.25c0-21.246093-13.1875-40.261718-33.085938-47.707031l-100.652344-37.664062v178.644531zm0 0" fill="#81ebc7"/><path d="m309.96875 363.523438-100.652344-37.667969v8.460937l78.042969 29.207032c19.898437 7.445312 33.085937 26.460937 33.085937 47.707031v89.246093c0 2.222657-1.800781 4.023438-4.023437 4.023438h22.609375c2.222656 0 4.023438-1.800781 4.023438-4.023438v-89.246093c0-21.25-13.1875-40.261719-33.085938-47.707031zm0 0" fill="#50b596"/><path d="m327.5625 253.964844h-36.273438v-63.109375h36.273438c10.4375 0 18.898438 8.460937 18.898438 18.898437v25.3125c0 10.4375-8.460938 18.898438-18.898438 18.898438zm0 0" fill="#c5d3d6"/><path d="m91.066406 253.964844h36.273438v-63.109375h-36.273438c-10.4375 0-18.898437 8.460937-18.898437 18.898437v25.3125c0 10.4375 8.460937 18.898438 18.898437 18.898438zm0 0" fill="#c5d3d6"/><path d="m303.707031 342.015625c0-10.167969-8.945312-18.710937-21.066406-21.167969-2.171875-.441406-3.238281-2.601562-2.035156-4.226562 6.175781-8.359375 4.667969-19.203125-4.542969-26.339844-9.421875-7.300781-23.839844-8.363281-34.714844-3.183594-1.839844.875-4.105468-.035156-4.679687-1.78125-3.109375-9.464844-14.171875-16.464844-27.351563-16.464844-13.179687 0-24.242187 7-27.351562 16.464844-.574219 1.746094-2.839844 2.65625-4.679688 1.78125-10.875-5.175781-25.292968-4.117187-34.714844 3.183594-9.210937 7.136719-10.722656 17.980469-4.542968 26.339844 1.203125 1.625.136718 3.789062-2.035156 4.226562-12.121094 2.457032-21.066407 11-21.066407 21.167969 0 10.164063 8.945313 18.707031 21.066407 21.164063 2.171874.441406 3.238281 2.605468 2.035156 4.230468-6.179688 8.355469-4.667969 19.199219 4.542968 26.339844 9.421876 7.300781 23.839844 8.359375 34.714844 3.183594 1.839844-.878906 4.105469.035156 4.679688 1.78125 3.109375 9.460937 14.171875 16.460937 27.351562 16.460937 13.179688 0 24.242188-7 27.351563-16.460937.574219-1.746094 2.839843-2.660156 4.679687-1.78125 10.875 5.175781 25.292969 4.117187 34.714844-3.183594 9.210938-7.140625 10.722656-17.984375 4.542969-26.339844-1.203125-1.628906-.136719-3.789062 2.035156-4.230468 12.121094-2.457032 21.066406-11 21.066406-21.164063zm0 0" fill="#ed6161"/><path d="m282.640625 363.179688c12.121094-2.457032 21.066406-11 21.066406-21.164063 0-10.167969-8.945312-18.710937-21.066406-21.167969-2.171875-.441406-3.238281-2.601562-2.035156-4.226562 6.175781-8.359375 4.667969-19.203125-4.542969-26.339844-7.824219-6.0625-19.085938-7.808594-28.910156-5.265625 3.546875 1.039063 6.882812 2.78125 9.703125 5.265625 8.113281 7.136719 9.445312 17.980469 4.003906 26.339844-1.058594 1.625-.121094 3.789062 1.792969 4.226562 10.675781 2.457032 18.554687 11 18.554687 21.167969 0 10.164063-7.878906 18.707031-18.554687 21.164063-1.914063.441406-2.851563 2.605468-1.792969 4.230468 5.441406 8.355469 4.109375 19.199219-4.003906 26.339844-2.820313 2.480469-6.15625 4.226562-9.703125 5.265625 9.824218 2.539063 21.085937.796875 28.910156-5.265625 9.210938-7.140625 10.722656-17.984375 4.542969-26.339844-1.203125-1.625-.136719-3.789062 2.035156-4.230468zm0 0" fill="#ce4545"/><path d="m169.410156 276.558594v58.695312c0 22.035156 17.867188 39.902344 39.90625 39.902344 22.035156 0 39.902344-17.867188 39.902344-39.902344v-58.695312zm0 0" fill="#e6eff5"/><path d="m169.410156 331.609375c15.503906 9.851563 33.402344 15.476563 52.464844 15.476563 9.15625 0 18.039062-1.296876 26.519531-3.734376.539063-2.617187.824219-5.324218.824219-8.097656v-58.695312h-79.808594zm0 0" fill="#c5d3d6"/><path d="m316.269531 205.359375c0-66.546875-47.886719-120.496094-106.953125-120.496094-59.070312 0-106.957031 53.949219-106.957031 120.496094 0 66.550781 47.886719 120.496094 106.957031 120.496094 59.066406 0 106.953125-53.945313 106.953125-120.496094zm0 0" fill="#e6eff5"/><path d="m258.933594 98.597656c23.328125 22.101563 38.164062 55.226563 38.164062 92.257813 0 66.546875-47.886718 120.496093-106.957031 120.496093-17.910156 0-34.785156-4.96875-49.617187-13.734374 18.597656 17.617187 42.59375 28.238281 68.792968 28.238281 59.070313 0 106.953125-53.949219 106.953125-120.496094 0-46.371094-23.253906-86.617187-57.335937-106.761719zm0 0" fill="#c5d3d6"/><path d="m231.992188 222.410156c0 12.523438-10.152344 22.675782-22.675782 22.675782-12.527344 0-22.679687-10.152344-22.679687-22.675782 0-12.523437 10.152343-22.675781 22.679687-22.675781 12.523438 0 22.675782 10.152344 22.675782 22.675781zm0 0" fill="#ed6161"/><path d="m224.375 275.5625-3.410156 23.085938c-.433594 2.898437-2.929688 5.050781-5.867188 5.050781h-11.566406c-2.9375 0-5.433594-2.152344-5.867188-5.050781l-3.410156-23.085938c4.878906 1.027344 9.921875 1.558594 15.058594 1.558594 5.140625 0 10.183594-.53125 15.0625-1.558594zm0 0" fill="#f9c295"/><path d="m226.8125 466.777344c0 9.664062-7.832031 17.496094-17.496094 17.496094-9.664062 0-17.5-7.832032-17.5-17.496094 0-9.667969 7.835938-17.5 17.5-17.5 9.664063 0 17.496094 7.832031 17.496094 17.5zm0 0" fill="#ef3f61"/><path d="m406.800781 216.039062c10.222657-13.28125 13.921875-29.058593 10.695313-45.632812-.492188-2.53125-2.253906-4.632812-4.664063-5.5625-2.40625-.929688-5.125-.554688-7.1875.988281-1.019531.761719-2.328125 1.210938-3.773437 1.410157 10.523437-20.363282 10.402344-39.242188-.550782-53.882813-1.453124-1.945313-3.746093-3.070313-6.179687-3.007813-2.421875.058594-4.671875 1.28125-6.03125 3.289063-7.066406 10.414063-11.226563 15.863281-21.347656 16.164063-4.167969.125-8.585938-.566407-13.546875-2.128907-3.949219-1.246093-8.160156.953125-9.40625 4.902344-1.242188 3.953125.953125 8.164063 4.902344 9.40625 6.59375 2.074219 12.644531 2.992187 18.507812 2.8125 12.234375-.363281 19.859375-5.785156 25.6875-12.457031 2.882812 13.074218-4.308594 27.160156-9.683594 35.40625-.933594 1.425781-2.492187 3.820312-1.492187 7.1875.625 2.109375 2.152343 3.839844 4.164062 4.730468.039063.015626.078125.03125.117188.046876 4.515625 1.90625 10.613281 3.164062 16.625 2.410156-.03125 8.96875-2.953125 17.269531-8.726563 24.765625-5.433594 7.0625-18.039062 17.332031-29.035156 18.0625-2.828125.1875-5.308594 1.953125-6.410156 4.5625-1.105469 2.613281-.640625 5.625 1.199218 7.78125 5.757813 6.757812 14.398438 12.746093 23.84375 14.878906-12.644531 17.261719-33.445312 28.539063-54.988281 29.03125-8.464843.199219-17.078125-1.304687-25.300781-4.371094 2.957031-4.894531 5.613281-10.03125 7.953125-15.371093h15.390625c14.558594 0 26.402344-11.839844 26.402344-26.390626v-25.320312c0-14.550781-11.84375-26.390625-26.402344-26.390625h-5.492188c-3.597656-23.125-12.761718-44.136719-25.886718-61.242187.28125-.003907.550781-.011719.84375-.007813 8.609375.089844 17.171875 3.636719 24.414062 7.097656 1.042969.5 2.140625.734375 3.226563.734375 2.800781 0 5.484375-1.574218 6.773437-4.269531 1.785156-3.738281.203125-8.214844-3.535156-10-8.722656-4.164063-19.191406-8.441406-30.726562-8.5625-3.566407-.035156-8.257813.164063-12.765626 1.742187-3.449218-3.359374-7.074218-6.488281-10.863281-9.375 7.871094-20.945312 7.550781-53.824218-31.996093-97.039062-1.945313-2.128906-4.941407-2.949219-7.699219-2.117188-2.757813.832032-4.796875 3.171876-5.242188 6.019532-2.152343 13.726562-11.609375 25.515625-23.382812 30.25-.496094-5.15625-1.695313-10.238282-3.558594-15.035156-1.109375-2.855469-3.839844-4.746094-6.902344-4.785157-3.074219-.050781-5.835937 1.792969-7.011719 4.617188-3.984374 9.574219-11.609374 16.582031-19.679687 24.003906-3.121094 2.871094-6.351563 5.84375-9.386719 8.996094-5.15625 5.347656-9.390625 11.34375-12.25 17.335937-4.507812 9.457032-5.640625 19.023438-3.277344 27.660156.117188.425782.253907.851563.390626 1.273438-3.242188 2.554688-6.359376 5.289062-9.34375 8.195312-4.503907-1.578124-9.195313-1.777343-12.761719-1.742187-11.25.113281-21.527344 4.257813-29.222657 7.855469-3.753906 1.753906-5.375 6.21875-3.617187 9.972656 1.273437 2.722656 3.976563 4.324219 6.796875 4.324219 1.0625 0 2.144531-.226563 3.171875-.707031 6.714844-3.140626 14.703125-6.363282 23.023437-6.445313.292969 0 .558594.003906.839844.007813-13.125 17.105468-22.289062 38.121093-25.886718 61.242187h-5.492188c-14.558594 0-26.402344 11.839844-26.402344 26.390625v25.320312c0 14.550782 11.84375 26.390626 26.402344 26.390626h15.390625c2.339844 5.339843 4.996094 10.476562 7.953125 15.371093-8.222656 3.0625-16.835938 4.5625-25.300781 4.371094-21.542969-.496094-42.34375-11.769531-54.988281-29.03125 9.441406-2.132813 18.085937-8.121094 23.84375-14.878906 1.839843-2.15625 2.304687-5.167969 1.199218-7.78125-1.101562-2.609375-3.582031-4.378907-6.414062-4.566407-10.996094-.726562-23.597656-11-29.03125-18.058593-5.773438-7.5-8.691406-15.796875-8.726563-24.765625 6.007813.75 12.109375-.507813 16.625-2.410156.039063-.015626.078125-.035157.117188-.050782 2.011719-.886718 3.539062-2.621094 4.164062-4.730468 1-3.367188-.558593-5.757813-1.492187-7.1875-5.375-8.242188-12.570313-22.328126-9.683594-35.402344 5.824219 6.671875 13.449219 12.09375 25.679688 12.457031 5.867187.179687 11.921874-.738281 18.515624-2.8125 3.949219-1.246094 6.144532-5.457031 4.902344-9.40625-1.246094-3.953125-5.457031-6.148437-9.40625-4.902344-4.957031 1.5625-9.390625 2.253907-13.554687 2.125-10.113281-.300781-14.273438-5.75-21.335938-16.164062-1.363281-2.003907-3.609375-3.230469-6.035156-3.285157-2.414063-.050781-4.726563 1.0625-6.179687 3.003907-10.949219 14.644531-11.066407 33.523437-.546876 53.886719-1.445312-.199219-2.753906-.648438-3.773437-1.410157-2.066406-1.542969-4.78125-1.917969-7.191406-.988281-2.40625.929688-4.167969 3.03125-4.660157 5.5625-3.226562 16.574219.472657 32.351562 10.695313 45.632812 7.066406 9.175782 16.03125 15.644532 24.4375 19.527344-4.355469 2.140625-9.074219 3.097656-13.261719 1.90625-2.828125-.800781-5.871094.125-7.773437 2.371094-1.902344 2.246094-2.3125 5.398438-1.050781 8.058594 13.351562 28.171875 43.328124 47.582031 74.582031 48.296875.601562.011719 1.203125.019531 1.804687.019531 10.996094 0 22.113282-2.308594 32.570313-6.722656 1.796875 2.300781 3.667969 4.53125 5.605469 6.683594-2.511719 6.113281-2.542969 12.832031-.082032 18.953124-12.753906 4.617188-21.234375 15.050782-21.234375 26.875 0 4.507813 1.238281 8.8125 3.464844 12.671876l-4.855469 1.816406c-4.40625 1.648437-8.601562 3.824218-12.464844 6.457031-3.421874 2.332031-4.304687 7-1.972656 10.421875 1.453125 2.128906 3.804688 3.277344 6.203125 3.277344 1.457031 0 2.925781-.421875 4.21875-1.304688 2.875-1.957031 5.992188-3.574218 9.273438-4.800781l11.566406-4.332031c1.808594 1.027344 3.738281 1.933594 5.785156 2.675781-4.332031 10.691406-.914062 22.847656 9.324219 30.789063 10.378906 8.042968 25.769531 10.144531 38.695312 5.605468 4.628907 8.554688 14.042969 14.773438 25.148438 16.734375v20.910157c-10.128906 3.191406-17.496094 12.675781-17.496094 23.847656s7.367188 20.65625 17.496094 23.847656v6.375h-69.5v-50.847656c0-4.140625-3.359375-7.5-7.5-7.5s-7.5 3.359375-7.5 7.5v50.847656h-34.238281v-85.769531c0-5.378907.980469-10.648438 2.917969-15.660157 1.492187-3.863281-.429688-8.203124-4.296876-9.695312-3.863281-1.492188-8.207031.429688-9.695312 4.292969-2.605469 6.742187-3.925781 13.828125-3.925781 21.0625v89.25c0 6.351562 5.167969 11.519531 11.519531 11.519531h259.441406c6.351563 0 11.519532-5.167969 11.519532-11.519531v-89.25c0-24.238281-15.253907-46.234375-37.960938-54.734375l-4.855469-1.816406c2.230469-3.859376 3.464844-8.160157 3.464844-12.667969 0-11.828125-8.476563-22.261719-21.234375-26.875 2.460938-6.125 2.429688-12.84375-.082031-18.957031 1.9375-2.152344 3.808593-4.382813 5.609375-6.683594 10.453125 4.417968 21.570312 6.722656 32.570312 6.722656.597656 0 1.199219-.007812 1.800782-.019531 31.253906-.714844 61.230468-20.125 74.582031-48.296875 1.261719-2.660156.851562-5.8125-1.050781-8.058594-1.902344-2.246094-4.941407-3.171875-7.773438-2.367188-4.1875 1.1875-8.90625.226563-13.261719-1.910156 8.40625-3.882812 17.371094-10.351562 24.4375-19.527344zm-79.234375-17.679687c6.285156 0 11.398438 5.109375 11.398438 11.390625v25.320312c0 6.28125-5.113282 11.390626-11.398438 11.390626h-9.847656c3.921875-12.90625 6.050781-26.730469 6.050781-41.101563 0-2.347656-.0625-4.683594-.171875-7zm-18.796875 7c0 62.308594-44.613281 112.996094-99.453125 112.996094s-99.457031-50.6875-99.457031-112.996094c0-62.304687 44.617187-112.996094 99.457031-112.996094s99.453125 50.691407 99.453125 112.996094zm-131.855469 122.765625c10.277344 3.398438 21.152344 5.230469 32.402344 5.230469s22.121094-1.832031 32.398438-5.230469v7.125c0 8.664062-3.367188 16.800781-9.484375 22.917969-6.121094 6.121093-14.257813 9.492187-22.914063 9.492187-17.867187 0-32.402344-14.539062-32.402344-32.410156zm-16.929687-249.945312c2.171875-4.554688 5.460937-9.183594 9.511719-13.386719 2.722656-2.828125 5.644531-5.515625 8.738281-8.363281 4.144531-3.808594 8.355469-7.679688 12.199219-12-.019532.355468-.042969.710937-.074219 1.0625-.183594 2.226562.632813 4.421874 2.234375 5.980468 1.597656 1.5625 3.804688 2.328125 6.027344 2.09375 17.292968-1.828125 32.945312-14.25 40.558594-30.863281 24.113281 30.226563 25.898437 52.933594 21.410156 68.246094-15.433594-8.683594-32.851563-13.585938-51.273438-13.585938-18.839844 0-36.628906 5.121094-52.316406 14.175781-.265625-4.152343.726562-8.628906 2.984375-13.359374zm-68.917969 168.28125c-6.289062 0-11.402344-5.109376-11.402344-11.390626v-25.320312c0-6.28125 5.113282-11.390625 11.402344-11.390625h3.964844c-.109375 2.316406-.171875 4.652344-.171875 7 0 14.371094 2.128906 28.195313 6.050781 41.101563zm118.222656 210.316406c.011719 0 .019532.003906.027344.003906.007813 0 .015625-.003906.023438-.003906 5.5.015625 9.972656 4.492187 9.972656 10 0 5.511718-4.484375 10-9.996094 10-5.515625 0-10-4.488282-10-10 0-5.507813 4.472656-9.984375 9.972656-10zm126.265626-45.546875v85.769531h-34.238282v-50.847656c0-4.140625-3.359375-7.5-7.5-7.5s-7.5 3.359375-7.5 7.5v50.847656h-69.5v-6.375c10.128906-3.195312 17.496094-12.675781 17.496094-23.847656 0-11.175782-7.367188-20.65625-17.496094-23.851563v-20.910156c11.113282-1.960937 20.535156-8.183594 25.152344-16.730469 12.9375 4.535156 28.316406 2.429688 38.691406-5.609375 10.242188-7.941406 13.660156-20.101562 9.324219-30.785156 2.050781-.742187 3.972656-1.652344 5.785156-2.675781l11.566407 4.328125c16.878906 6.320312 28.21875 22.671875 28.21875 40.6875zm-39.351563-69.222657c0 6.238282-6.332031 12.050782-15.058594 13.820313-3.640625.738281-6.582031 3.175781-7.871093 6.519531-1.230469 3.1875-.746094 6.742188 1.300781 9.523438 3.867187 5.230468 2.648437 11.492187-3.105469 15.953125-7.015625 5.433593-18.328125 6.417969-26.917969 2.328125-2.851562-1.347656-6.160156-1.40625-9.078125-.160156-2.820312 1.203124-4.980468 3.515624-5.933594 6.378906-2.152343 6.550781-10.65625 11.308594-20.226562 11.308594-9.566406 0-18.070312-4.757813-20.234375-11.339844-.941406-2.832032-3.101563-5.144532-5.921875-6.347656-2.917969-1.25-6.226562-1.191407-9.09375.167968-8.574219 4.082032-19.890625 3.097656-26.902344-2.335937-5.753906-4.460938-6.972656-10.722657-3.09375-15.964844 2.035156-2.769531 2.519532-6.324219 1.289063-9.511719-1.289063-3.34375-4.230469-5.777344-7.871094-6.515625-8.726563-1.773437-15.058594-7.582031-15.058594-13.820312 0-6.234375 6.332031-12.042969 15.058594-13.808594 3.640625-.738281 6.582031-3.175781 7.871094-6.519531 1.230469-3.1875.746093-6.742188-1.300781-9.523438-.722657-.972656-1.265626-1.984375-1.640626-3.011718 6.082032 4.917968 12.605469 9.183593 19.5 12.707031v13.394531c0 26.144531 21.265626 47.410156 47.402344 47.410156 12.660156 0 24.566406-4.929687 33.523438-13.886718 8.945312-8.949219 13.875-20.851563 13.875-33.523438v-13.394531c6.894531-3.519531 13.417968-7.789063 19.5-12.703125-.378906 1.027344-.925782 2.042968-1.648438 3.019531-2.039062 2.769531-2.523437 6.324219-1.292968 9.511719 1.289062 3.34375 4.230468 5.78125 7.871093 6.519531 8.726563 1.765625 15.058594 7.574219 15.058594 13.804687zm0 0"/><path d="m179.136719 222.410156c0 16.640625 13.539062 30.175782 30.179687 30.175782 16.636719 0 30.175782-13.539063 30.175782-30.175782 0-16.640625-13.539063-30.175781-30.175782-30.175781-16.640625 0-30.179687 13.535156-30.179687 30.175781zm45.355469 0c0 8.367188-6.808594 15.175782-15.175782 15.175782-8.371094 0-15.179687-6.808594-15.179687-15.175782 0-8.367187 6.808593-15.175781 15.179687-15.175781 8.367188 0 15.175782 6.804687 15.175782 15.175781zm0 0"/><path d="m202.507812 269.265625c-2.261718-.230469-4.5-.578125-6.707031-1.042969-11.136719-2.339844-21.820312-7.683594-30.902343-15.449218-3.148438-2.695313-7.882813-2.324219-10.574219.824218-2.691407 3.144532-2.324219 7.882813.824219 10.574219 9.589843 8.207031 20.710937 14.183594 32.425781 17.46875l2.675781 18.117187c.972656 6.523438 6.683594 11.441407 13.28125 11.441407h11.570312c6.597657 0 12.308594-4.917969 13.28125-11.453125l2.675782-18.105469c11.710937-3.285156 22.832031-9.261719 32.425781-17.46875 3.144531-2.691406 3.515625-7.425781.824219-10.574219-2.695313-3.148437-7.429688-3.515625-10.578125-.824218-9.078125 7.765624-19.761719 13.109374-30.898438 15.449218-6.621093 1.394532-13.550781 1.742188-20.324219 1.042969zm11.238282 26.933594h-8.859375l-1.746094-11.8125c.4375.03125.878906.046875 1.316406.074219.367188.023437.734375.046874 1.105469.0625 1.238281.058593 2.476562.097656 3.71875.097656h.035156.035156c1.242188 0 2.480469-.039063 3.71875-.097656.367188-.015626.738282-.039063 1.105469-.0625.4375-.027344.878907-.042969 1.316407-.074219zm0 0"/><path d="m262.980469 200.164062c-4.140625 0-7.5-3.355468-7.5-7.5v-1c0-4.140624 3.359375-7.5 7.5-7.5s7.5 3.359376 7.5 7.5v1c0 4.144532-3.355469 7.5-7.5 7.5zm0 0"/><path d="m155.648438 200.164062c-4.140626 0-7.5-3.355468-7.5-7.5v-1c0-4.140624 3.359374-7.5 7.5-7.5 4.140624 0 7.5 3.359376 7.5 7.5v1c0 4.144532-3.359376 7.5-7.5 7.5zm0 0"/></svg>