<svg height="512pt" viewBox="-84 0 512 512.001" width="512pt" xmlns="http://www.w3.org/2000/svg"><path d="m172.183594 7.5c-118.8125 0-144.238282 146.515625-134.992188 196.703125h269.984375c9.246094-50.1875-16.183593-196.703125-134.992187-196.703125zm0 0" fill="#6e7093"/><path d="m172.183594 7.5c-2.832032 0-5.597656.109375-8.324219.273438 98.84375 6.6875 120.117187 147.441406 112.125 196.425781h31.191406c9.246094-50.183594-16.183593-196.699219-134.992187-196.699219zm0 0" fill="#4e5173"/><path d="m304.789062 504.5h-265.214843c-2.269531 0-4.113281-1.84375-4.113281-4.113281v-81.015625c0-21.71875 13.480468-41.15625 33.824218-48.769532l102.898438-38.503906 102.898437 38.503906c20.339844 7.613282 33.820313 27.050782 33.820313 48.769532v81.015625c0 2.269531-1.839844 4.113281-4.113282 4.113281zm0 0" fill="#c94343"/><path d="m275.082031 370.601562-102.898437-38.503906v8.648438l79.78125 29.855468c20.34375 7.613282 33.824218 27.050782 33.824218 48.769532v81.015625c0 2.273437-1.84375 4.113281-4.113281 4.113281h23.113281c2.273438 0 4.113282-1.839844 4.113282-4.113281v-81.015625c0-21.71875-13.480469-41.15625-33.820313-48.769532zm0 0" fill="#a02727"/><path d="m214.011719 441.378906 13.761719 19.460938-39.03125 43.660156h-32.71875l-39.199219-43.339844 13.648437-19.539062-35.878906-10.390625 6.628906-55.46875c2.96875-24.820313 23.980469-43.523438 48.96875-43.601563l43.453125-.128906c24.988281-.070312 46.109375 18.507812 49.21875 43.308594l6.960938 55.429687zm0 0" fill="#4e5173"/><path d="m125.949219 281.109375v68.007813c0 25.535156 46.234375 140.382812 46.234375 140.382812s46.234375-114.847656 46.234375-140.382812v-68.007813zm0 0" fill="#ff9292"/><path d="m125.949219 324.6875c20.890625 14.726562 43.1875 21.523438 56.902343 21.523438 9.066407 0 21.882813-2.972657 35.566407-9.238282v-55.863281h-92.46875zm0 0" fill="#ed6161"/><g fill="#ff9292"><path d="m280.765625 185.203125c-14.972656 14.96875-20.652344 35.703125-17.0625 55.058594 19.355469 3.589843 40.089844-2.089844 55.058594-17.0625 14.972656-14.96875 20.652343-35.707031 17.0625-55.058594-19.351563-3.589844-40.089844 2.089844-55.058594 17.0625zm0 0"/><path d="m63.601562 185.203125c14.96875 14.96875 20.652344 35.703125 17.0625 55.058594-19.355468 3.589843-40.089843-2.089844-55.0625-17.0625-14.96875-14.96875-20.652343-35.707031-17.0625-55.058594 19.355469-3.589844 40.089844 2.089844 55.0625 17.0625zm0 0"/><path d="m281.527344 198.695312c0 86.863282-77.625 123.183594-109.34375 123.183594-31.722656 0-109.34375-36.320312-109.34375-123.183594 0-26.152343 4.640625-71.65625 19.554687-89.746093 4.746094-5.757813 12.675781-8.25 22.320313-8.25 29.898437 0 25.8125 43.957031 67.46875 43.957031 41.660156 0 37.570312-43.957031 67.472656-43.957031 9.640625 0 17.570312 2.492187 22.316406 8.25 14.914063 18.089843 19.554688 63.59375 19.554688 89.746093zm0 0"/></g><path d="m261.96875 108.949219c-4.742188-5.757813-12.675781-8.25-22.316406-8.25-3.121094 0-5.867188.484375-8.339844 1.34375 4.191406 1.285156 7.675781 3.53125 10.167969 6.90625 13.382812 18.089843 17.546875 63.59375 17.546875 89.746093 0 81.851563-61.828125 118.820313-92.773438 122.8125 2.109375.246094 4.097656.371094 5.929688.371094 31.71875 0 109.34375-36.320312 109.34375-123.183594 0-26.152343-4.640625-71.65625-19.558594-89.746093zm0 0" fill="#ed6161"/><path d="m172.183594 287.113281s-14.335938 8.710938-23.613282 21.613281c-2.4375 3.390626-3.101562 7.742188-1.804687 11.710938 4.363281 13.316406 15.671875 44.6875 25.417969 44.6875 9.742187 0 21.054687-31.371094 25.414062-44.6875 1.300782-3.96875.636719-8.320312-1.800781-11.710938-9.277344-12.902343-23.613281-21.613281-23.613281-21.613281zm0 0" fill="#4e5173"/><path d="m326.921875 29.765625c-12.441406 42.730469-57.132813 78.953125-86.949219 96.132813-13.796875 7.949218.023438 31.863281 11.5 34.492187 26.613282 6.105469 56.511719-23.496094 67.898438-48.816406 11.382812-25.320313 9.183594-54.148438 7.550781-81.808594zm0 0" fill="#ed6161"/><path d="m17.441406 29.765625c12.445313 42.730469 57.136719 78.953125 86.949219 96.132813 13.796875 7.949218-.019531 31.863281-11.496094 34.492187-26.613281 6.105469-56.515625-23.496094-67.898437-48.816406-11.382813-25.320313-9.183594-54.148438-7.554688-81.808594zm0 0" fill="#ed6161"/><path d="m259.066406 283.058594c8.886719-10.53125 15.816406-22.03125 20.761719-34.421875 16.714844-1.117188 32.261719-8.15625 44.238281-20.132813 16.15625-16.15625 23.308594-39.230468 19.132813-61.730468-.566407-3.054688-2.957031-5.441407-6.007813-6.007813-7.34375-1.359375-14.757812-1.511719-21.972656-.535156-.773438-7.457031-1.914062-15.019531-3.410156-22.609375 5.875-7.21875 10.878906-15.136719 14.40625-22.972656 11.730468-26.089844 10.023437-54.6875 8.375-82.347657l-.179688-2.976562c-.214844-3.644531-3.019531-6.601563-6.644531-7.011719-3.632813-.414062-7.023437 1.851562-8.042969 5.355469-5.011718 17.21875-15.867187 33.691406-29.144531 48.265625-10.824219-20.71875-24.40625-37.523438-40.46875-50.054688-22.019531-17.171875-48.238281-25.878906-77.925781-25.878906-20.402344 0-39.324219 4.15625-56.242188 12.351562-3.726562 1.804688-5.285156 6.292969-3.476562 10.019532 1.804687 3.726562 6.292968 5.285156 10.019531 3.480468 14.859375-7.203124 31.582031-10.851562 49.699219-10.851562 58.816406 0 90.625 38.183594 107.28125 72.203125-5.011719 4.714844-10.210938 9.160156-15.449219 13.289063-4.78125-3.847657-12.40625-7.292969-24.363281-7.292969-17.585938 0-26.039063 11.910156-33.5 22.417969-8.203125 11.5625-15.289063 21.542968-33.96875 21.542968-18.679688 0-25.769532-9.980468-33.972656-21.542968-7.457032-10.507813-15.910157-22.417969-33.496094-22.417969-12.0625 0-19.714844 3.503906-24.492188 7.394531-5.550781-4.359375-10.671875-8.804688-15.371094-13.273438 9.195313-18.859374 20.726563-34.34375 34.320313-46.070312 3.136719-2.707031 3.484375-7.441406.78125-10.578125-2.707031-3.136719-7.441406-3.488281-10.578125-.78125-13.957031 12.039063-25.890625 27.496094-35.574219 46.042969-15.894531-17.773438-25.332031-35.136719-29.15625-48.265625-1.019531-3.503907-4.40625-5.769531-8.039062-5.355469-3.628907.40625-6.433594 3.367188-6.648438 7.007812l-.179687 2.980469c-1.648438 27.65625-3.351563 56.253907 8.378906 82.347657 3.523438 7.835937 8.527344 15.753906 14.40625 22.972656-1.5 7.585937-2.640625 15.152344-3.410156 22.605468-7.21875-.976562-14.632813-.824218-21.976563.539063-3.050781.566406-5.4375 2.957031-6.003906 6.007813-4.179687 22.5 2.976563 45.574218 19.128906 61.730468 11.980469 11.980469 27.523438 19.015625 44.238281 20.132813 4.945313 12.390625 11.871094 23.890625 20.761719 34.421875 10.675781 12.652344 22.46875 21.828125 33.152344 28.378906v23c-6.136719 4.15625-11.363281 9.457031-15.429687 15.53125l-36.367188 13.605469c-2.863281 1.074219-5.671875 2.378906-8.34375 3.878906-3.609375 2.035156-4.886719 6.605469-2.855469 10.214844 1.378907 2.449219 3.921875 3.824219 6.542969 3.824219 1.246094 0 2.507812-.3125 3.671875-.964844 2-1.125 4.097656-2.101563 6.238281-2.902344l22.871094-8.558594c-.433594 1.90625-.769531 3.84375-1.003906 5.804688l-6.632813 55.46875c-.433593 3.648437 1.835938 7.074218 5.363281 8.09375l25.816407 7.476562-7.648438 10.953125c-2.003906 2.867188-1.761719 6.734375.585938 9.328125l27.863281 30.808594h-45.824219v-41.921875c0-4.144531-3.359375-7.5-7.5-7.5-4.144531 0-7.5 3.355469-7.5 7.5v41.921875h-35.335937v-77.628906c0-7.9375 2.125-15.75 6.148437-22.585938 2.105469-3.570312.914063-8.167968-2.65625-10.269531-3.570312-2.101563-8.167969-.910156-10.269531 2.660156-5.378906 9.140625-8.226562 19.582031-8.226562 30.195313v81.019531c0 6.402344 5.210937 11.609375 11.609374 11.609375h265.222657c6.402343 0 11.609375-5.207031 11.609375-11.609375v-81.019531c0-24.714844-15.550782-47.136719-38.691406-55.792969l-36.582032-13.691406c-4.019531-6.019531-9.171875-11.28125-15.214844-15.421875v-23.023438c10.683594-6.554687 22.476563-15.730468 33.152344-28.382812zm70.097656-108.257813c1.367188 15.90625-4.308593 31.703125-15.703124 43.097657-7.910157 7.90625-17.796876 13.0625-28.546876 15.015624 2.734376-10.832031 4.109376-22.253906 4.109376-34.222656 0-3.472656-.078126-7.070312-.226563-10.730468 11.113281-9.679688 25.714844-14.414063 40.367187-13.160157zm-41.605468-4.546875c-.335938-3.390625-.722656-6.746094-1.160156-10.023437 3.144531-1.894531 6.289062-4.097657 9.425781-6.613281 1.039062-.835938 2.074219-1.703126 3.097656-2.597657.65625 4.320313 1.183594 8.617188 1.582031 12.867188-4.507812 1.660156-8.847656 3.789062-12.945312 6.367187zm-242.117188-19.234375c1.023438.894531 2.058594 1.761719 3.101563 2.597657 3.132812 2.515624 6.28125 4.71875 9.425781 6.613281-.4375 3.277343-.828125 6.632812-1.160156 10.019531-4.097656-2.574219-8.4375-4.703125-12.945313-6.363281.398438-4.25.925781-8.546875 1.578125-12.867188zm-14.535156 66.878907c-11.394531-11.398438-17.070312-27.195313-15.707031-43.097657 14.652343-1.257812 29.257812 3.480469 40.371093 13.160157-.148437 3.660156-.226562 7.257812-.226562 10.730468 0 11.972656 1.375 23.394532 4.109375 34.230469-10.75-1.953125-20.640625-7.117187-28.546875-15.023437zm65.855469 55.488281c-8.667969-10.273438-15.222657-21.613281-19.636719-33.929688-.109375-.445312-.261719-.878906-.449219-1.285156-4.210937-12.234375-6.332031-25.421875-6.332031-39.480469 0-4.289062.121094-8.78125.359375-13.34375.007813-.082031.011719-.164062.015625-.246094.320312-6.117187.851562-12.363281 1.554688-18.410156 4.488281 1.347656 8.921874 2.027344 13.265624 2.027344 3.0625 0 6.078126-.339844 9.03125-1.015625 4.039063-.925781 6.5625-4.949219 5.632813-8.988281-.925781-4.039063-4.949219-6.558594-8.984375-5.632813-9.710938 2.226563-21.535156-1.738281-33.292969-11.167969-4.003906-3.210937-7.863281-6.941406-11.414062-10.992187-.144531-.183594-.300781-.359375-.460938-.527344-5.855469-6.769531-10.835937-14.378906-14.214843-21.898437-6.574219-14.617188-8.261719-30.894532-8.214844-47.523438 7.257812 11.617188 16.359375 22.546875 26.28125 32.457032.402344.523437.878906 1 1.417968 1.40625 15.867188 15.578124 33.675782 28.546874 49.328126 37.5625 3.585937 2.066406 8.171874.832031 10.242187-2.753907 2.066406-3.589843.832031-8.175781-2.753906-10.242187-5.214844-3.003906-10.164063-6.109375-14.863281-9.289063 3.613281-1.511719 7.910156-1.910156 11.4375-1.910156 9.382812 0 13.96875 5.816406 21.269531 16.097656 8.808593 12.414063 19.773437 27.859375 46.203125 27.859375 26.425781 0 37.390625-15.445312 46.203125-27.859375 7.296875-10.28125 11.882812-16.097656 21.265625-16.097656 3.5 0 7.753906.390625 11.347656 1.871094-5.046875 3.460937-10.015625 6.585937-14.769531 9.328125-3.589844 2.066406-4.824219 6.652344-2.753907 10.242187 2.066407 3.589844 6.652344 4.820313 10.242188 2.753907 15.652344-9.019532 33.464844-21.992188 49.335938-37.574219.542968-.40625 1.015624-.878907 1.417968-1.398438 9.917969-9.910156 19.015625-20.839843 26.269532-32.453125.046874 16.632813-1.640626 32.90625-8.210938 47.527344-3.378906 7.515625-8.363281 15.128906-14.214844 21.894531-.164062.167969-.316406.347657-.464844.53125-3.546874 4.046875-7.40625 7.777344-11.414062 10.992188-11.753906 9.425781-23.578125 13.390625-33.289062 11.164062-4.039063-.921875-8.0625 1.597657-8.988282 5.632813-.925781 4.039062 1.597656 8.0625 5.632813 8.988281 2.957031.679687 5.972656 1.015625 9.03125 1.015625 4.34375 0 8.78125-.679688 13.265625-2.023438.707031 6.046876 1.234375 12.289063 1.558594 18.410157.003906.078125.007812.160156.011718.242187.238282 4.5625.363282 9.058594.363282 13.34375 0 14.0625-2.121094 27.246094-6.332032 39.480469-.1875.410156-.339844.839844-.453125 1.285156-4.410156 12.320313-10.964843 23.65625-19.636719 33.929688-10.515624 12.46875-22.257812 21.140625-32.527343 27.058593-.257813.128907-.503907.269532-.746094.425782-3.992187 2.265625-7.75 4.109375-11.109375 5.597656-.398438-.730469-.839844-1.4375-1.332031-2.117188-10.050781-13.984374-25.171875-23.257812-25.808594-23.648437-2.394531-1.453125-5.398437-1.453125-7.789063 0-.640624.390625-15.757812 9.664063-25.8125 23.648437-.488281.679688-.933593 1.386719-1.332031 2.117188-3.359375-1.488281-7.117187-3.332031-11.109375-5.597656-.238281-.15625-.488281-.296875-.746094-.425782-10.269531-5.917968-22.007812-14.59375-32.527343-27.058593zm93.710937 44.714843c-9.3125 28.433594-16.019531 36.792969-18.289062 38.972657-2.273438-2.179688-8.976563-10.539063-18.289063-38.972657-.554687-1.691406-.269531-3.5625.765625-4.996093 5.441406-7.570313 12.996094-13.660157 17.53125-16.941407 4.519532 3.265626 12.042969 9.328126 17.515625 16.941407 1.035157 1.433593 1.320313 3.304687.765625 4.996093zm-31.121094 178.898438-32.960937-36.441406 10.230469-14.644532c1.386718-1.980468 1.730468-4.511718.921875-6.792968-.804688-2.28125-2.660157-4.03125-4.984375-4.707032l-29.761719-8.617187 5.871094-49.144531c1.015625-8.476563 4.621093-16.371094 10.132812-22.671875 4.039063 32.339843 41.894531 127.0625 46.425781 138.320312 1.140626 2.839844 3.894532 4.699219 6.957032 4.699219 3.058594 0 5.8125-1.859375 6.957031-4.699219 4.523437-11.242187 42.285156-105.730469 46.410156-138.191406 5.332031 6.203125 8.839844 13.914063 9.871094 22.164063l6.167969 49.113281-29.707032 8.800781c-2.316406.6875-4.164062 2.449219-4.953124 4.734375-.792969 2.285156-.4375 4.8125.960937 6.789063l10.3125 14.582031-32.816406 36.707031zm113.101563-119.375c17.316406 6.476562 28.949219 23.253906 28.949219 41.746094v77.628906h-35.335938v-41.921875c0-4.144531-3.355468-7.5-7.5-7.5-4.144531 0-7.5 3.355469-7.5 7.5v41.921875h-45.558594l27.855469-31.160156c2.328125-2.605469 2.550781-6.476563.53125-9.332032l-7.714843-10.910156 25.773437-7.636718c3.519531-1.042969 5.769531-4.484376 5.308594-8.125l-6.957031-55.429688c-.230469-1.828125-.550782-3.640625-.953126-5.429688zm-61.539063-39.132812c-.003906.066406-.003906.132812 0 .199218v10.429688c0 16.765625-23.773437 81.480468-38.730468 119.957031-14.957032-38.476563-38.730469-103.191406-38.730469-119.957031v-10.410156c0-.085938 0-.175782 0-.261719v-19.003907c2.117187.972657 4.113281 1.824219 5.953125 2.5625.074219.253907.152344.511719.234375.761719 2.484375 7.59375 6.421875 18.660157 11.0625 28.265625 7.210937 14.929688 13.832031 21.589844 21.480469 21.589844 7.644531 0 14.269531-6.660156 21.480468-21.589844 4.636719-9.605468 8.574219-20.671875 11.0625-28.265625.082032-.25.160157-.507812.234376-.761719 1.839843-.738281 3.835937-1.589843 5.953124-2.5625zm0 0"/><path d="m122.433594 201.75c-4.144532 0-7.5-3.359375-7.5-7.5v-2c0-4.140625 3.355468-7.5 7.5-7.5 4.140625 0 7.5 3.359375 7.5 7.5v2c0 4.140625-3.359375 7.5-7.5 7.5zm0 0"/><path d="m221.933594 201.75c-4.144532 0-7.5-3.359375-7.5-7.5v-2c0-4.140625 3.355468-7.5 7.5-7.5 4.140625 0 7.5 3.359375 7.5 7.5v2c0 4.140625-3.359375 7.5-7.5 7.5zm0 0"/><path d="m219.433594 237.210938c0 18.230468-20.480469 33.007812-45.75 33.007812-25.261719 0-45.742188-14.777344-45.742188-33.007812 0-.972657.0625-1.921876.171875-2.871094 7.109375 2.128906 15.101563 3.761718 23.679688 4.761718 6.5.757813 13.328125 1.167969 20.390625 1.167969 7.058594 0 13.890625-.410156 20.390625-1.167969 9.757812-1.140624 18.75-3.089843 26.558593-5.671874.199219 1.242187.300782 2.5.300782 3.78125zm0 0" fill="#a02727"/><path d="m221.925781 232.472656c1.65625-.605468 3.394531.636719 3.34375 2.402344l-.507812 18.714844c-.148438 5.28125-6.367188 8.011718-10.347657 4.542968l-21.839843-19.03125c10.945312-1.28125 20.921875-3.570312 29.351562-6.628906zm0 0" fill="#e6eff5"/><path d="m151.792969 239.101562-21.839844 19.027344c-3.980469 3.472656-10.199219.742188-10.351563-4.539062l-.507812-18.71875c-.046875-1.761719 1.691406-3.003906 3.347656-2.402344 8.425782 3.0625 18.40625 5.351562 29.351563 6.632812zm0 0" fill="#e6eff5"/><path d="m228.632812 226.710938c-2.65625-1.921876-6.113281-2.429688-9.269531-1.289063-20.53125 7.332031-45.855469 8.671875-66.699219 6.226563-27.054687-3.164063-29.644531-10.195313-36.929687-4.9375-2.679687 1.929687-4.230469 5.058593-4.140625 8.367187l.507812 18.722656c.160157 5.378907 3.3125 10.058594 8.242188 12.210938 1.800781.789062 3.679688 1.179687 5.550781 1.179687 2.917969 0 5.789063-.953125 8.207031-2.78125.910157.769532 1.863282 1.511719 2.851563 2.21875 9.910156 7.152344 22.949219 11.089844 36.730469 11.089844s26.828125-3.9375 36.738281-11.089844c.519531-.367187 1.019531-.75 1.511719-1.140625 2.03125 1.121094 4.269531 1.703125 6.550781 1.703125 1.859375 0 3.75-.390625 5.539063-1.179687 4.929687-2.152344 8.078124-6.832031 8.238281-12.222657l.511719-18.710937c.089843-3.308594-1.460938-6.4375-4.140626-8.367187zm-101.609374 24.019531-.242188-8.960938c2.621094.769531 5.339844 1.46875 8.132812 2.089844zm46.660156 11.988281c-10.921875 0-20.949219-3.25-28-8.347656l8.570312-7.472656c11.769532 1.152343 24.089844 1.152343 35.859375 0l9.890625 8.621093c-6.910156 4.441407-16.242187 7.199219-26.320312 7.199219zm36.570312-18.167969-.800781-.691406c.339844-.078125.679687-.148437 1.011719-.230469.066406-.019531.136718-.027344.207031-.050781 2.371094-.546875 4.671875-1.148437 6.910156-1.808594l-.238281 8.960938zm0 0"/></svg>