<svg height="512pt" viewBox="-38 0 512 512.00003" width="512pt" xmlns="http://www.w3.org/2000/svg"><path d="m362.800781 161.210938c-.316406-54.480469 1.671875-142.097657-76.855469-124.550782-31.109374-49.992187-210.914062-49.988281-211.929687 124.550782-.394531 67.277343-3.066406 262.742187 13.558594 268.777343 61.488281 22.328125 200.179687 22.328125 261.667969 0 16.625-6.035156 13.953124-201.5 13.558593-268.777343zm0 0" fill="#f9dc6a"/><g fill="#e5ac51"><path d="m261.683594 36.660156c8.507812-1.898437 16.066406-2.5625 22.792968-2.171875-13.324218-18.242187-47.003906-29.152343-83.613281-26.09375 27.925781 2.386719 51.316407 12.992188 60.820313 28.265625zm0 0"/><path d="m362.800781 161.210938c-.308593-52.996094 1.554688-137.332032-70.625-125.738282 47.472657 9.507813 46.09375 79.535156 46.363281 125.738282.390626 67.277343 3.0625 262.742187-13.5625 268.777343-28.257812 10.261719-72.820312 15.800781-118.703124 16.632813 53.957031.976562 109.734374-4.566406 142.964843-16.632813 16.628907-6.035156 13.957031-201.5 13.5625-268.777343zm0 0"/><path d="m258.511719 111.539062c-12.4375-2.089843-25.957031-2.894531-40.101563-2.894531-18.007812 0-35.015625 1.300781-50.054687 4.894531 7.160156-15.644531 16.996093-31.238281 32.722656-38.003906 14.09375-6.058594 31.527344-3.390625 43.175781 6.589844 8.5 7.296875 13.621094 18.257812 14.257813 29.414062zm0 0"/></g><path d="m367.320312 311.039062c4.792969 46.5-44.316406 84.457032-62.234374 92.824219l27.195312 62.875c58.777344-40.882812 78.621094-3.191406 79.730469 21.804688 45.070312-74.242188-8.027344-171.726563-44.691407-177.503907zm0 0" fill="#ed6161"/><path d="m69.496094 311.039062c-4.792969 46.5 44.316406 84.457032 62.234375 92.824219l-27.195313 62.875c-58.777344-40.882812-78.621094-3.191406-79.730468 21.804688-45.070313-74.242188 8.027343-171.726563 44.691406-177.503907zm0 0" fill="#ed6161"/><path d="m353.421875 504.5h-270.027344c-2.3125 0-4.1875-1.875-4.1875-4.1875v-82.484375c0-22.117187 13.722657-41.90625 34.4375-49.65625l104.765625-39.203125 104.765625 39.203125c20.710938 7.75 34.433594 27.539063 34.433594 49.65625v82.484375c0 2.3125-1.875 4.1875-4.1875 4.1875zm0 0" fill="#6e7093"/><path d="m323.175781 368.171875-104.765625-39.203125-11.710937 4.382812 93.054687 34.820313c20.714844 7.75 34.4375 27.539063 34.4375 49.65625v82.484375c0 2.3125-1.875 4.1875-4.1875 4.1875h23.421875c2.3125 0 4.1875-1.875 4.1875-4.1875v-82.484375c-.003906-22.117187-13.726562-41.90625-34.4375-49.65625zm0 0" fill="#4e5173"/><path d="m259.941406 344.511719v-60.609375h-83.066406v60.609375l-49.148438 18.390625c7.417969 43.375 45.191407 76.390625 90.683594 76.390625 45.488282 0 83.261719-33.015625 90.679688-76.390625zm0 0" fill="#f9c295"/><path d="m176.875 325.980469c16.304688 10.546875 35.199219 16.582031 55.347656 16.582031 9.570313 0 18.855469-1.371094 27.71875-3.929688v-54.730468h-83.066406zm0 0" fill="#e59f6a"/><path d="m324.613281 230.832031c-14.195312 50.84375-56.378906 87.730469-106.207031 87.730469-53.09375 0-97.503906-41.871094-108.632812-97.902344.335937-.257812.667968-.53125.992187-.800781 15.464844-12.738281 26.101563-30.414063 34.3125-48.679687 8.203125-18.277344 14.28125-37.4375 22.421875-55.746094.28125-.636719.5625-1.261719.851562-1.894532 15.042969-3.589843 32.046876-4.890624 50.054688-4.890624 14.144531 0 27.667969.800781 40.105469 2.890624 7.730469 1.292969 15.039062 3.070313 21.824219 5.476563 1.417968 21.710937 4.058593 43.433594 12.84375 63.191406 6.734374 15.164063 16.832031 28.546875 26.074218 42.328125 1.820313 2.726563 3.625 5.484375 5.359375 8.296875zm0 0" fill="#f9c295"/><path d="m309.828125 208.71875c-2.292969 3.882812-4.113281 7.175781-4.742187 9.019531-14.195313 50.847657-56.382813 87.734375-106.207032 87.734375-16.714844 0-32.570312-4.15625-46.800781-11.59375 18.527344 15.507813 41.476563 24.683594 66.328125 24.683594 49.828125 0 92.011719-36.886719 106.207031-87.730469-1.734375-2.8125-3.539062-5.570312-5.359375-8.296875-3.097656-4.621094-6.292968-9.203125-9.425781-13.816406zm0 0" fill="#e59f6a"/><path d="m345.996094 55.046875c-2.128906 17.410156-11.734375 32.078125-25.203125 41.1875-10.902344-14.003906-24.605469-25.726563-40.269531-34.289063 23.941406-4.820312 43.203124-24.476562 46.328124-50.046874.097657-.824219.175782-1.644532.242188-2.464844.136719-1.8125 2.355469-2.601563 3.597656-1.273438 11.367188 12.160156 17.480469 29.074219 15.304688 46.886719zm0 0" fill="#ed6161"/><path d="m156.296875 61.945312c-15.667969 8.5625-29.371094 20.285157-40.273437 34.289063-13.46875-9.109375-23.078126-23.777344-25.203126-41.1875-2.175781-17.8125 3.9375-34.726563 15.304688-46.886719 1.242188-1.328125 3.460938-.539062 3.601562 1.273438.0625.820312.140626 1.640625.238282 2.464844 3.125 25.570312 22.386718 45.226562 46.332031 50.046874zm0 0" fill="#ed6161"/><path d="m73.796875 287.308594h.070313c4.140624-.039063 7.46875-3.429688 7.429687-7.570313-.363281-38.40625-.085937-75.886719.113281-103.253906.042969-5.59375.078125-10.703125.105469-15.230469.167969-28.042968 5.109375-52.730468 14.710937-73.582031 2.761719 3.644531 5.914063 7.015625 9.414063 10.039063-.511719.738281-1.019531 1.484374-1.515625 2.230468-2.292969 3.449219-1.359375 8.105469 2.089844 10.398438 3.449218 2.292968 8.105468 1.359375 10.398437-2.089844 1.695313-2.546875 3.488281-5.042969 5.324219-7.410156 23.535156-30.21875 58.96875-47.210938 96.46875-47.210938 37.257812 0 72.789062 16.90625 96.339844 47.046875.039062.050781.082031.105469.125.160157 1.84375 2.371093 3.636718 4.867187 5.328125 7.414062 1.445312 2.171875 3.828125 3.347656 6.253906 3.347656 1.425781 0 2.871094-.40625 4.144531-1.257812 3.449219-2.292969 4.386719-6.949219 2.09375-10.398438-.5-.746094-1.003906-1.492187-1.515625-2.230468 6.808594-5.886719 12.300781-13.074219 16.179688-21.082032 7.671875 23.6875 7.8125 55.289063 7.917969 79.738282.035156 5.464843-.023438-1 .128906 20.117187.203125 27.367187.480468 64.847656.117187 103.265625-.042969 4.140625 3.285157 7.53125 7.425781 7.570312h.074219c4.109375 0 7.457031-3.3125 7.496094-7.429687.367187-38.542969.089844-76.097656-.113281-103.515625-.296875-40.4375 1.894531-91.277344-16.757813-122.355469 1.734375-18.699219-4.578125-37.183593-17.476562-50.980469-2.59375-2.777343-6.585938-3.757812-10.171875-2.496093-3.589844 1.257812-6.09375 4.523437-6.382813 8.316406-.054687.714844-.125 1.429687-.210937 2.128906-.714844 5.882813-2.425782 11.453125-4.964844 16.539063-7.640625-1.066406-16.082031-.789063-25.210938.832031-10.636718-13.222656-30.136718-22.726563-54.523437-26.390625-19.328125-2.902344-39.886719-1.828125-59.457031 3.109375-19.328125 4.878906-36.683594 13.160156-51.703125 24.660156-3.183594-5.660156-5.308594-11.992187-6.132813-18.730469-.085937-.71875-.15625-1.433593-.210937-2.144531-.289063-3.796875-2.792969-7.0625-6.382813-8.320312-3.585937-1.261719-7.578125-.28125-10.171875 2.496093-13.339843 14.273438-19.636719 33.5625-17.269531 52.917969.671875 5.511719 2.035156 10.863281 4.015625 15.941407-13.648437 24.753906-20.671875 54.761718-20.875 89.265624-.027344 4.523438-.066406 9.625-.105469 15.210938-.203125 27.417969-.480468 64.972656-.113281 103.503906.039063 4.117188 3.390625 7.429688 7.5 7.429688zm258.472656-264.457032c5.363281 9.398438 7.621094 20.328126 6.28125 31.285157-.019531.164062-.042969.332031-.066406.496093-.011719.085938-.023437.171876-.035156.257813-1.648438 12.011719-7.53125 22.960937-16.492188 30.953125-7.175781-8.265625-15.238281-15.59375-24.105469-21.894531 16.703126-8.125 29.289063-23.023438 34.417969-41.097657zm-99.796875-6.050781c22.300782 3.351563 39.910156 12.257813 47.105469 23.828125 1.6875 2.707032 4.894531 4.050782 8.007813 3.355469 5.765624-1.289063 11.15625-1.984375 16.136718-2.085937-6.117187 5.726562-13.675781 9.957031-22.140625 12.113281-19.414062-10.074219-41.191406-15.386719-63.171875-15.386719-21.976562 0-43.753906 5.3125-63.167968 15.390625-8.621094-2.195313-16.308594-6.546875-22.484376-12.429687 31.996094-24.378907 71.9375-28.957032 99.714844-24.785157zm-127.929687 6.054688c5.128906 18.066406 17.714843 32.964843 34.421875 41.09375-8.972656 6.371093-17.066406 13.777343-24.105469 21.894531-9.148437-8.160156-15.089844-19.402344-16.59375-31.710938-1.339844-10.953124.917969-21.882812 6.277344-31.277343zm0 0"/><path d="m421.585938 357.421875c-13.8125-29.769531-34.652344-50.882813-53.097657-53.792969-2.300781-.359375-4.636719.363282-6.328125 1.964844s-2.539062 3.898438-2.300781 6.214844c2.308594 22.316406-9.507813 41.996094-21.488281 55.820312-3.867188-2.617187-8.074219-4.808594-12.5625-6.488281l-14.089844-5.269531c-.003906 0-.007812 0-.011719-.003906l-44.265625-16.5625v-25.015626c7.800782-3.960937 15.257813-8.902343 22.253906-14.78125 15.878907-13.335937 28.304688-30.511718 36.503907-50.304687 3.289062 6.925781 5.449219 13.324219 6.644531 19.535156 1.820312 9.542969 1.109375 19.28125-2.003906 27.414063-1.480469 3.867187.457031 8.203125 4.324218 9.683594.882813.339843 1.789063.5 2.679688.5 3.019531 0 5.863281-1.835938 7.007812-4.820313 4.09375-10.703125 5.0625-23.34375 2.722657-35.59375-2.332031-12.15625-7.601563-24.558594-16.578125-39.035156-24.730469-39.992188-39.011719-46.570313-43.171875-110.359375-.273438-4.1875-.5-8.464844-.714844-12.605469l-.113281-2.125c-.21875-4.136719-3.746094-7.308594-7.886719-7.09375-4.132813.21875-7.3125 3.75-7.09375 7.886719l.113281 2.117187c.035156.675781.070313 1.351563.105469 2.035157-2.238281-.570313-4.542969-1.09375-6.929687-1.578126-1.984376-11.21875-7.695313-21.460937-16.171876-28.734374-13.808593-11.832032-34.3125-14.960938-51.019531-7.78125-19.472656 8.378906-30.191406 27.828124-36.5625 41.734374-.003906.007813-.007812.019532-.011719.027344-.230468.5-.453124.992188-.671874 1.484375-.074219.164063-.144532.328125-.21875.492188-4.089844 9.203125-7.695313 18.671875-11.179688 27.832031-3.515625 9.25-7.15625 18.8125-11.226562 27.886719-9.941407 22.113281-23.632813 43.574219-45.277344 54.484375-3.699219 1.863281-5.1875 6.371094-3.320313 10.070312 1.316407 2.617188 3.957031 4.128906 6.699219 4.128906 1.136719 0 2.289062-.257812 3.371094-.804687 1.808594-.910156 3.585937-1.890625 5.328125-2.933594 4.40625 15.636719 11.4375 30.40625 20.628906 43.226563 2.414063 3.363281 7.097656 4.136718 10.464844 1.722656 3.367187-2.414062 4.140625-7.097656 1.726562-10.464844-9.25-12.898437-16.046875-28.042968-19.800781-44.039062 30.039062-26.472656 39.796875-66.503906 55.609375-103.460938 12.460937-2.613281 27.144531-3.886718 44.738281-3.886718 14.925782 0 27.59375.90625 38.730469 2.769531l.28125.046875c5.652344.949218 10.941406 2.160156 15.785156 3.613281 4.492188 60.039063 19.515625 72.269531 43.261719 109.386719-6.828125 22.1875-19.675781 41.996094-36.417969 56.058594-7.105469 5.964843-14.738281 10.816406-22.753906 14.503906-.308594.117187-.605469.253906-.894531.40625-11.980469 5.363281-24.804688 8.132812-37.992188 8.132812-13.199218 0-26.050781-2.78125-38.054687-8.164062-.25-.132813-.507813-.25-.773438-.351563-7.652343-3.511719-14.957031-8.085937-21.785156-13.671875-3.207031-2.625-7.933594-2.152344-10.554687 1.054688-2.625 3.203125-2.152344 7.929687 1.054687 10.550781 6.652344 5.449219 13.710937 10.058594 21.082031 13.800781v25.023438l-44.269531 16.5625c-.003906 0-.007813.003906-.007813.003906l-14.09375 5.269531c-4.433593 1.660157-8.652343 3.851563-12.5625 6.488281-11.980468-13.824218-23.792968-33.503906-21.488281-55.824218.238281-2.316406-.609375-4.609375-2.300781-6.210938-1.6875-1.605468-4.027344-2.328125-6.328125-1.96875-18.445313 2.910156-39.285156 24.023438-53.097656 53.792969-21.375 46.066406-20.1875 96.539063 3.164062 135.011719 1.382813 2.273437 3.835938 3.605468 6.414063 3.605468.617187 0 1.242187-.074218 1.859375-.234374 3.199219-.820313 5.484375-3.632813 5.632812-6.933594.417969-9.488282 4.296875-22.78125 13.832031-29.023438 7.582032-4.960937 16.929688-4.328125 25.574219-1.738281v42.199219c0 6.449218 5.246094 11.691406 11.691407 11.691406h270.019531c6.445312 0 11.691406-5.242188 11.691406-11.691406v-42.199219c7.578125-2.269531 14.183594-2.582031 19.738281-.945313.117188.039063.234375.074219.355469.105469 1.960937.613281 3.789063 1.472657 5.480469 2.578125 9.539062 6.242188 13.414062 19.535156 13.832031 29.023438.148437 3.300781 2.433594 6.113281 5.632813 6.933594.617187.160156 1.242187.234374 1.859374.234374 2.578126 0 5.03125-1.332031 6.414063-3.605468 23.355469-38.476563 24.539063-88.945313 3.164063-135.011719zm-239.402344-254.066406c6.546875-10.632813 13.65625-17.402344 21.855468-20.929688 11.386719-4.894531 25.914063-2.675781 35.328126 5.390625 4.46875 3.835938 7.882812 9.070313 9.84375 14.863282-9.269532-1.027344-19.441407-1.53125-30.804688-1.53125-13.527344 0-25.507812.726562-36.222656 2.207031zm-2.675782 248.175781c2.929688-1.09375 4.871094-3.894531 4.871094-7.023438v-23.949218c10.925782 3.640625 22.351563 5.503906 34.03125 5.503906 11.6875 0 23.109375-1.863281 34.027344-5.496094v23.941406c0 3.128907 1.941406 5.929688 4.875 7.023438l43.128906 16.136719c-8.636718 35.089843-38.582031 60.648437-74.53125 63.792969v-9.015626c0-4.140624-3.359375-7.5-7.5-7.5-4.144531 0-7.5 3.359376-7.5 7.5v9.015626c-35.953125-3.144532-65.894531-28.703126-74.535156-63.792969zm134.351563 145.46875v-42.820312c0-4.144532-3.359375-7.5-7.5-7.5s-7.5 3.355468-7.5 7.5v42.820312h-160.902344v-42.820312c0-4.144532-3.359375-7.5-7.5-7.5-4.144531 0-7.5 3.355468-7.5 7.5v42.820312h-36.25v-44.085938c0-.097656 0-.199218 0-.300781v-33.324219c0-4.144531-3.359375-7.5-7.5-7.5s-7.5 3.355469-7.5 7.5v23.324219c-7.195312-1.640625-13.378906-1.757812-18.617187-.984375-4.882813-10.859375-1.046875-31.714844 9.117187-45.667968 2.4375-3.347657 1.703125-8.039063-1.644531-10.476563-3.347656-2.441406-8.039062-1.703125-10.476562 1.644531-7.21875 9.90625-12.203126 22.699219-13.675782 35.097656-1.105468 9.304688-.207031 17.671876 2.53125 24.425782-.351562.210937-.691406.425781-1.019531.644531-5.570313 3.644531-11.484375 10.066406-15.554687 19.0625-11.625-31.140625-9.523438-68.148437 6.46875-102.625 8.988281-19.367187 21.570312-35.035156 32.972656-41.832031.613281 9.675781 3.214844 19.433594 7.78125 29.132812 4.25 9.035156 10.136718 17.90625 17.542968 26.445313-2.210937 2.460937-4.21875 5.105469-6 7.910156-2.21875 3.496094-1.183593 8.128906 2.316407 10.351563 1.246093.792968 2.636719 1.167968 4.011719 1.167968 2.480468 0 4.910156-1.230468 6.335937-3.480468 5.273437-8.304688 12.992187-14.683594 22.46875-18.234376l5.976563-2.238281c11.429687 43.207031 50.421874 73.726563 95.929687 73.832031.078125 0 .15625.003907.234375.003907.082031 0 .160156-.003907.238281-.003907 45.503907-.105468 84.496094-30.628906 95.925781-73.832031l5.980469 2.234375c17.679688 6.617188 29.558594 23.753906 29.558594 42.636719v34.785156c-.003906.101563-.003906.203125 0 .304688v44.082031zm100.589844-30.640625c-4.070313-8.996094-9.984375-15.417969-15.554688-19.066406-.328125-.214844-.667969-.429688-1.019531-.640625 2.738281-6.753906 3.636719-15.125 2.53125-24.425782-1.472656-12.398437-6.457031-25.191406-13.675781-35.097656-2.4375-3.347656-7.128907-4.085937-10.476563-1.644531-3.347656 2.4375-4.082031 7.128906-1.644531 10.476563 10.164063 13.953124 14 34.804687 9.117187 45.664062-5.238281-.769531-11.421874-.65625-18.617187.984375v-24.78125c0-15.140625-5.738281-29.429687-15.449219-40.320313 7.414063-8.550781 13.3125-17.429687 17.566406-26.472656 4.566407-9.699218 7.167969-19.457031 7.78125-29.136718 11.402344 6.796874 23.988282 22.464843 32.972657 41.832031 15.992187 34.476562 18.09375 71.488281 6.46875 102.628906zm0 0"/><path d="m168.65625 201.746094c-4.140625 0-7.5-3.355469-7.5-7.5v-2c0-4.140625 3.359375-7.5 7.5-7.5 4.144531 0 7.5 3.359375 7.5 7.5v2c0 4.144531-3.355469 7.5-7.5 7.5zm0 0"/><path d="m268.15625 201.746094c-4.140625 0-7.5-3.355469-7.5-7.5v-2c0-4.140625 3.359375-7.5 7.5-7.5 4.144531 0 7.5 3.359375 7.5 7.5v2c0 4.144531-3.355469 7.5-7.5 7.5zm0 0"/><path d="m218.402344 263.550781c-12.875 0-25.316406-5.390625-34.132813-14.785156-2.832031-3.023437-2.679687-7.769531.339844-10.601563 3.019531-2.832031 7.769531-2.683593 10.601563.339844 6.078124 6.476563 14.3125 10.046875 23.191406 10.046875 8.886718 0 17.125-3.570312 23.203125-10.046875 2.832031-3.023437 7.578125-3.171875 10.601562-.339844 3.019531 2.832032 3.171875 7.578126.335938 10.601563-8.8125 9.394531-21.257813 14.785156-34.140625 14.785156zm0 0"/></svg>