<svg height="511pt" viewBox="-11 0 511 511.99878" width="511pt" xmlns="http://www.w3.org/2000/svg"><g fill="#e59f6a"><path d="m396.5625 198.070312c-6.84375.003907-50.910156 19.171876-50.910156 19.171876l-9.5 32.894531s44.066406-19.167969 50.914062-19.171875c14.734375-.011719 47.367188 101.972656 53.9375 123.339844 0 0 4.066406-47.308594 0-62.363282-7.441406-27.550781-29.707031-93.886718-44.441406-93.871094zm0 0"/><path d="m92.917969 198.070312c6.84375.003907 50.910156 19.171876 50.910156 19.171876l9.5 32.894531s-44.066406-19.167969-50.914063-19.171875c-14.734374-.011719-47.367187 101.972656-53.9375 123.339844 0 0-4.066406-47.308594 0-62.363282 7.441407-27.550781 29.707032-93.886718 44.441407-93.871094zm0 0"/><path d="m435.449219 475.949219c-34.730469-.195313-82.894531-15.554688-82.894531-53.378907 0-31.636718 0-113.300781 0-196.242187 0-87.949219 16.652343-177.332031 23.417968-210.015625.917969-4.425781-4.167968-7.597656-7.75-4.835938l-36.199218 27.898438-14.933594-28.617188c-1.730469-3.3125-6.390625-3.527343-8.417969-.390624l-32.113281 49.695312c-2.953125 4.574219-8.027344 7.332031-13.46875 7.332031-5.976563 0-11.457032-3.320312-14.21875-8.621093l-25.363282-48.652344c-1.648437-3.160156-6.019531-3.539063-8.191406-.710938l-36.140625 47.148438-48.53125-44.320313c-3.335937-3.046875-8.660156-.3125-8.125 4.175781 4.070313 34.238282 14.40625 130.246094 14.40625 222.289063v183.867187c0 37.824219-48.164062 53.183594-82.894531 53.378907-34.046875.195312-28.167969 28.546875-14.570312 28.546875h410.554687c13.601563 0 19.480469-28.351563-14.566406-28.546875zm0 0"/></g><path d="m435.449219 475.949219c-34.730469-.195313-82.894531-15.554688-82.894531-53.378907v-196.242187c0-87.949219 16.652343-177.332031 23.417968-210.015625.917969-4.425781-4.167968-7.597656-7.75-4.835938l-24.859375 19.160157c-7.046875 40.0625-18.785156 118.429687-18.785156 195.691406v196.242187c0 37.824219 44 53.183594 75.730469 53.378907 31.105468.195312 25.734375 28.546875 13.3125 28.546875h36.398437c13.597657 0 19.476563-28.351563-14.570312-28.546875zm0 0" fill="#c98353"/><path d="m170.347656 217.765625 54.214844 28.980469c1.78125.953125 2.683594 2.992187 2.191406 4.953125l-1.535156 6.078125c-.53125 2.09375-2.5 3.492187-4.648438 3.300781l-35.128906-3.113281c-12.203125-1.082032-21.558594-11.304688-21.558594-23.554688v-12.769531c0-3.316406 3.539063-5.4375 6.464844-3.875zm0 0" fill="#4e5173"/><path d="m319.132812 217.765625-54.214843 28.980469c-1.78125.953125-2.683594 2.992187-2.191407 4.953125l1.539063 6.078125c.527344 2.09375 2.496094 3.492187 4.644531 3.300781l35.128906-3.113281c12.203126-1.082032 21.558594-11.304688 21.558594-23.554688v-12.769531c0-3.316406-3.539062-5.4375-6.464844-3.875zm0 0" fill="#4e5173"/><path d="m242.800781 423.078125-25.9375-42.898437c-.9375-1.546876-3.222656-1.429688-3.992187.210937l-6.535156 13.910156c-.851563 1.8125-3.457032 1.714844-4.171876-.15625-3.257812-8.523437-9.703124-26.242187-11.773437-38.066406-.367187-2.089844-3.167969-2.554687-4.207031-.710937-4.398438 7.808593-7.152344 16.226562-8.839844 21.964843-.585938 1.992188-3.320312 2.222657-4.21875.351563-6.742188-14.085938-21.3125-50.714844-11.257812-84.355469.5-1.667969 2.628906-2.152344 3.820312-.882813 9.503906 10.132813 30.789062 26.121094 37.707031 30.625.8125.527344 1.859375.492188 2.625-.097656 7.285157-5.605468 15.992188-17.613281 20.417969-23.566406 1.070312-1.433594 3.304688-1.125 3.9375.550781 3.921875 10.355469 9.292969 25.429688 12.230469 33.738281.710937 2.015626 3.558593 2.015626 4.269531 0 2.9375-8.308593 8.308594-23.382812 12.230469-33.738281.632812-1.675781 2.867187-1.984375 3.933593-.550781 4.425782 5.953125 13.136719 17.957031 20.417969 23.566406.765625.589844 1.816407.625 2.625.097656 6.921875-4.503906 28.207031-20.492187 37.710938-30.625 1.191406-1.269531 3.320312-.785156 3.820312.882813 10.054688 33.640625-4.515625 70.269531-11.261719 84.355469-.894531 1.871094-3.628906 1.640625-4.214843-.351563-1.691407-5.738281-4.445313-14.160156-8.839844-21.964843-1.042969-1.84375-3.839844-1.378907-4.207031.710937-2.070313 11.824219-8.515625 29.542969-11.773438 38.066406-.714844 1.871094-3.320312 1.96875-4.171875.15625l-6.535156-13.910156c-.769531-1.640625-3.054687-1.757813-3.992187-.210937l-25.9375 42.898437c-.882813 1.457031-2.996094 1.457031-3.878907 0zm0 0" fill="#4e5173"/><path d="m488.910156 339.371094-5.09375-36.003906c-.394531-2.773438-2.296875-5.09375-4.933594-6.023438l-31.695312-11.171875c-4.011719-14.203125-10.910156-35.558594-18.746094-54.386719-8.488281-20.382812-18.910156-41.214844-31.886718-41.214844h-.011719c-1.960938.003907-6.304688.011719-36.109375 12.289063 2.480468-78.707031 16.519531-154.285156 22.882812-185.023437 1.0625-5.121094-1.117187-10.21875-5.546875-12.992188-4.4375-2.773438-9.980469-2.503906-14.125.691406l-29.113281 22.4375-10.792969-20.683594c-2.0625-3.949218-5.949219-6.429687-10.398437-6.636718-4.457032-.207032-8.546875 1.902344-10.964844 5.644531l-32.117188 49.699219c-1.578124 2.441406-4.257812 3.902344-7.167968 3.902344-3.191406 0-6.09375-1.761719-7.570313-4.589844l-25.359375-48.652344c-1.964844-3.769531-5.667968-6.242188-9.902344-6.609375-4.230468-.367187-8.304687 1.425781-10.894531 4.800781l-31.164062 40.660156-42.496094-38.808593c-3.855469-3.519531-9.351563-4.257813-14-1.867188-4.644531 2.386719-7.25 7.28125-6.632813 12.464844 2.457032 20.660156 7.078126 62.804687 10.417969 112.9375.277344 4.132813 3.839844 7.261719 7.984375 6.984375 4.132813-.273438 7.257813-3.847656 6.984375-7.980469-3.023437-45.34375-7.085937-84.203125-9.671875-106.71875l43.335938 39.578125c.015625.015625.03125.03125.050781.046875.015625.015625.035156.03125.050781.042969l13.261719 11.675781c2.566406 2.253907 4.035156 5.507813 4.035156 8.921875v39.714844c0 4.140625 3.359375 7.5 7.5 7.5 4.144531 0 7.5-3.359375 7.5-7.5v-39.714844c0-7.722656-3.324219-15.082031-9.125-20.183594l-8-7.042968 29.367188-38.316406 23.457031 45c4.070312 7.804687 12.066406 12.652343 20.871094 12.652343 8.023437 0 15.414062-4.019531 19.769531-10.757812l29.667969-45.910157 11.996094 22.988282v35.191406c0 4.140625 3.355468 7.496094 7.5 7.496094 4.140624 0 7.5-3.355469 7.5-7.496094v-33.339844l27.699218-21.351562c-7.644531 38.273437-22.167968 121.894531-22.167968 204.613281v16.585937c-.007813.203126-.007813.402344 0 .605469v179.050781c0 44.292969 54.035156 60.675782 90.351562 60.882813 10.855469.0625 17.863281 3.539063 17.847656 8.863281-.007812 2.453125-1.546875 4.683594-3.234375 4.683594h-43.195312c-4.140625 0-7.5 3.355469-7.5 7.5 0 4.140625 3.359375 7.5 7.5 7.5h43.195312c10.023438 0 18.203125-8.8125 18.234375-19.640625.03125-10.941406-8.53125-23.769531-32.761718-23.90625-29.167969-.167969-75.4375-12.769531-75.4375-45.882813v-174.332031c17.328124-7.042969 23.894531-9.015625 26.179687-9.566406 2.21875 2.046875 9.761719 11.378906 25.109375 51.902344l-14.078125 2.820312c-2 .398438-3.75 1.59375-4.847656 3.3125-1.097657 1.71875-1.449219 3.808594-.972657 5.789063l11.351563 47.324218c.824219 3.441407 3.898437 5.753907 7.285156 5.753907.582031 0 1.167969-.070313 1.757813-.210938 4.027344-.964843 6.511718-5.011719 5.542968-9.039062l-9.535156-39.753907 8.746094-1.75c8.082031 22.515626 14.632812 43.289063 16.671875 49.863282l-5.199219 24.992187-8.613281 4.976563c-3.585937 2.070312-4.816406 6.65625-2.746094 10.242187 1.390625 2.40625 3.910157 3.75 6.503907 3.75 1.273437 0 2.5625-.320312 3.742187-1.003906l11.523437-6.652344c1.851563-1.066406 3.15625-2.875 3.59375-4.96875l6.277344-30.1875c.078125-.386719.128906-.769531.148438-1.152343.410156-4.824219 2.632812-32.449219 1.503906-51.613282l19.601562 6.910156 4.457032 31.496094c.53125 3.742188 3.738281 6.449219 7.417968 6.449219.347657 0 .703126-.023437 1.058594-.074219 4.097656-.582031 6.953125-4.375 6.375-8.476562zm-101.824218-115.902344c-1.804688.007812-5.292969-.023438-27.03125 8.605469v-5.746094c0-2.359375.011718-4.71875.035156-7.082031 22.957031-9.613282 33.226562-13.015625 36.175781-13.601563 1.441406.890625 7.921875 6.226563 19.480469 34.714844 7.847656 19.34375 14.609375 40.925781 18.011718 53.535156 1.078126 3.976563 1.5 10.980469 1.554688 18.9375-3.386719-9.8125-7.214844-20.503906-11.210938-30.902343-18.699218-48.667969-28.035156-58.460938-37.015624-58.460938zm0 0"/><path d="m376.820312 496.996094h-38.5c-8.550781-5.761719-23.425781-20.527344-24.980468-29.488282-.710938-4.082031-4.589844-6.816406-8.675782-6.105468-4.082031.710937-6.8125 4.59375-6.105468 8.675781 1.59375 9.144531 8.984375 19.019531 16.777344 26.917969h-147.167969c13.652343-11.507813 23.996093-26.472656 27.210937-40.722656.914063-4.039063-1.621094-8.054688-5.664062-8.96875-4.042969-.910157-8.054688 1.625-8.964844 5.664062-3.1875 14.105469-18.285156 34.101562-40.175781 44.027344h-101.113281c-1.683594 0-3.226563-2.230469-3.230469-4.679688-.015625-5.324218 6.988281-8.804687 17.84375-8.867187 36.320312-.207031 90.351562-16.589844 90.351562-60.878907v-179.050781c.007813-.203125.007813-.402343 0-.605469v-4.210937c0-24.496094-.734375-51.203125-2.1875-79.378906-.210937-4.132813-3.742187-7.328125-7.875-7.101563-4.136719.210938-7.316406 3.738282-7.105469 7.875.757813 14.679688 1.320313 28.953125 1.679688 42.714844-29.683594-12.230469-34.191406-12.238281-36.011719-12.242188h-.007812c-7.277344 0-16.757813 4.90625-31.875 41.214844-7.839844 18.828125-14.738281 40.183594-18.746094 54.386719l-31.695313 11.171875c-2.640624.929688-4.542968 3.25-4.933593 6.019531l-5.09375 36.003907c-.57812525 4.101562 2.273437 7.898437 6.375 8.480468.355469.046875.710937.074219 1.0625.074219 3.675781 0 6.886719-2.707031 7.414062-6.453125l4.457031-31.492188 19.605469-6.910156c-1.128906 19.164063 1.089844 46.789063 1.5 51.609375.019531.382813.070313.769531.148438 1.15625l6.277343 30.1875c.4375 2.09375 1.742188 3.898438 3.59375 4.96875l11.523438 6.652344c1.183594.679687 2.472656 1.003906 3.742188 1.003906 2.59375 0 5.113281-1.34375 6.503906-3.75 2.070312-3.585937.839844-8.175781-2.746094-10.246093l-8.613281-4.972657-5.199219-24.992187c2.042969-6.574219 8.589844-27.347656 16.675781-49.863282l8.746094 1.75-9.539063 39.75c-.964843 4.03125 1.515626 8.078126 5.542969 9.042969.589844.140625 1.175781.210938 1.757813.210938 3.386718 0 6.460937-2.316407 7.285156-5.753907l11.355469-47.324218c.476562-1.980469.121093-4.070313-.976563-5.789063s-2.847656-2.914062-4.84375-3.316406l-14.082031-2.820313c15.347656-40.519531 22.890625-49.851562 25.109375-51.902343 2.285156.550781 8.855469 2.523437 26.179688 9.570312v174.332031c0 33.113282-46.269532 45.714844-75.4375 45.878907-24.230469.136719-32.792969 12.964843-32.761719 23.910156.03125 10.828125 8.210937 19.636719 18.234375 19.636719h102.535156c.054688 0 .109375.003906.164062.003906.050782 0 .101563-.003906.15625-.003906h193.707032.121094.0625 40.613281c4.144531 0 7.5-3.355469 7.5-7.5 0-4.140625-3.359375-7.5-7.503907-7.5zm-274.417968-273.527344c-8.988282 0-18.324219 9.796875-37.023438 58.460938-3.992187 10.398437-7.824218 21.09375-11.210937 30.90625.050781-7.957032.476562-14.960938 1.554687-18.941407 3.402344-12.609375 10.164063-34.191406 18.011719-53.535156 11.558594-28.496094 18.039063-33.828125 19.480469-34.714844 2.957031.585938 13.222656 3.976563 36.0625 13.554688.0625 4.351562.105468 8.640625.128906 12.867187-21.730469-8.617187-25.191406-8.558594-27.003906-8.597656zm0 0"/><path d="m162.160156 211.441406c-3.617187 2.167969-5.777344 5.984375-5.777344 10.203125v12.769531c0 16.25 12.207032 29.589844 28.394532 31.023438l35.128906 3.113281c.363281.03125.71875.046875 1.074219.046875 5.414062 0 10.15625-3.636718 11.507812-8.980468l1.535157-6.082032c1.34375-5.3125-1.09375-10.820312-5.925782-13.402344l-54.214844-28.980468c-3.71875-1.988282-8.105468-1.878906-11.722656.289062zm56.726563 40.773438-.292969 1.160156-32.488281-2.878906c-8.394531-.742188-14.722657-7.65625-14.722657-16.082032v-7.585937zm0 0"/><path d="m255.457031 253.535156 1.535157 6.082032c1.351562 5.339843 6.09375 8.980468 11.503906 8.980468.355468 0 .714844-.015625 1.078125-.050781l35.125-3.109375c16.191406-1.4375 28.398437-14.773438 28.398437-31.027344v-12.769531c0-4.21875-2.160156-8.03125-5.78125-10.199219-3.617187-2.167968-7.996094-2.277344-11.71875-.289062l-54.21875 28.976562c-4.828125 2.585938-7.265625 8.09375-5.921875 13.40625zm62.640625-26.710937v7.589843c0 8.421876-6.328125 15.339844-14.722656 16.082032l-32.488281 2.878906-.292969-1.160156zm0 0"/><path d="m301.59375 128.546875v-32.496094c0-4.140625-3.355469-7.5-7.5-7.5-4.140625 0-7.5 3.359375-7.5 7.5v32.496094c0 4.140625 3.359375 7.5 7.5 7.5 4.144531 0 7.5-3.359375 7.5-7.5zm0 0"/><path d="m166.363281 380.925781c1.757813 3.671875 5.519531 5.839844 9.582031 5.507813 4.066407-.328125 7.4375-3.066406 8.59375-6.980469.589844-2.003906 1.320313-4.378906 2.226563-6.953125 2.726563 9.097656 6.113281 18.351562 8.394531 24.324219 1.402344 3.667969 4.839844 6.128906 8.761719 6.273437 3.90625.140625 7.535156-2.054687 9.203125-5.605468l2.378906-5.066407 20.878906 34.53125c1.785157 2.949219 4.910157 4.714844 8.359376 4.714844 3.449218 0 6.574218-1.765625 8.355468-4.714844l20.878906-34.53125 2.378907 5.066407c1.667969 3.554687 5.292969 5.753906 9.203125 5.605468 3.921875-.144531 7.363281-2.605468 8.761718-6.273437 2.28125-5.972657 5.667969-15.226563 8.394532-24.324219.90625 2.574219 1.636718 4.949219 2.230468 6.953125 1.148438 3.914063 4.523438 6.65625 8.589844 6.980469 4.058594.332031 7.824219-1.835938 9.585938-5.511719 7.125-14.882813 22.53125-53.425781 11.679687-89.738281-.996093-3.332032-3.71875-5.898438-7.105469-6.695313-3.394531-.796875-6.988281.28125-9.371093 2.824219-7.910157 8.433594-24.609375 21.277344-33.105469 27.265625-5.492188-5.265625-11.734375-13.679687-15.335938-18.535156l-.824218-1.109375c-2.128906-2.867188-5.648438-4.339844-9.1875-3.84375-3.535156.492187-6.515625 2.875-7.78125 6.210937-2.21875 5.867188-4.90625 13.25-7.347656 20.042969-2.445313-6.792969-5.128907-14.175781-7.351563-20.042969-1.265625-3.335937-4.246094-5.71875-7.78125-6.210937-9.71875-1.367188-11.042969 9.78125-25.347656 23.488281-8.492188-5.988281-25.195313-18.832031-33.101563-27.265625-2.386718-2.542969-5.976562-3.625-9.371094-2.824219-3.390624.796875-6.113281 3.363281-7.105468 6.695313-10.855469 36.3125 4.550781 74.855468 11.679687 89.742187zm.6875-76.738281c11.015625 9.929688 26.480469 21.410156 32.253907 25.171875 3.472656 2.257813 8.011718 2.082031 11.292968-.441406 5.507813-4.242188 11.371094-11.246094 16.089844-17.355469 3.25 8.867188 6.730469 18.660156 8.84375 24.636719 1.378906 3.894531 5.078125 6.507812 9.207031 6.507812 4.132813 0 7.832031-2.617187 9.207031-6.507812 2.113282-5.976563 5.597657-15.769531 8.847657-24.636719 4.71875 6.109375 10.578125 13.113281 16.089843 17.355469 3.28125 2.523437 7.816407 2.699219 11.292969.4375 5.773438-3.757813 21.238281-15.238281 32.253907-25.167969 3.5625 21.503906-2.355469 43.667969-7.628907 57.878906-1.375-3.375-3.015625-6.90625-4.96875-10.378906-2.023437-3.585938-6.109375-5.53125-10.167969-4.832031-4.054687.695312-7.253906 3.882812-7.960937 7.929687-1.253906 7.160156-4.320313 16.894532-7.113281 24.949219l-1.191406-2.535156c-1.535157-3.265625-4.726563-5.410157-8.328126-5.597657-3.601562-.195312-7 1.609376-8.871093 4.699219l-21.457031 35.488281-21.460938-35.488281c-1.777344-2.941406-4.941406-4.714843-8.351562-4.714843-.171876 0-.34375.003906-.515626.015624-3.605468.1875-6.796874 2.332032-8.332031 5.601563l-1.1875 2.53125c-2.796875-8.054687-5.863281-17.789063-7.117187-24.953125-.707032-4.042969-3.90625-7.230469-7.960938-7.925781-4.0625-.695313-8.144531 1.246093-10.167968 4.832031-1.953126 3.46875-3.59375 7.003906-4.96875 10.378906-5.269532-14.210937-11.195313-36.371094-7.628907-57.878906zm0 0"/></svg>