<svg height="512pt" viewBox="-92 0 512 512.00062" width="512pt" xmlns="http://www.w3.org/2000/svg"><path d="m176.882812 57.214844c-3.441406-22.664063-10.371093-43.824219-20.878906-47.59375-26.246094-9.410156-49.699218 16.257812-70.351562 7.761718-4.398438-1.808593-9.226563 1.433594-9.226563 6.191407v11.988281c0 2.816406 1.765625 5.328125 4.410157 6.300781 22.484374 8.269531 41.351562-13.328125 54.273437-7.984375 7.4375 3.074219 10.542969 12.871094 11.828125 25.714844-11.324219 6.230469-19 18.273438-19 32.109375 0 20.222656 16.394531 36.617187 36.617188 36.617187 20.222656 0 36.617187-16.394531 36.617187-36.617187 0-15.898437-10.128906-29.425781-24.289063-34.488281zm0 0" fill="#9bc66a"/><path d="m176.882812 57.214844c-3.441406-22.664063-10.371093-43.824219-20.878906-47.59375-9-3.226563-17.671875-2.328125-26.015625-.097656 4.296875-.085938 8.675781.5 13.132813 2.097656 10.335937 3.707031 17.203125 24.21875 20.707031 46.449218.109375.707032.59375 1.289063 1.257813 1.550782 13.585937 5.351562 23.203124 18.59375 23.203124 34.082031 0 16.019531-10.289062 29.636719-24.621093 34.605469 20.628906.488281 37.503906-16.089844 37.503906-36.605469 0-15.898437-10.128906-29.425781-24.289063-34.488281zm0 0" fill="#7ea052"/><path d="m299.421875 504.5h-269.734375c-2.308594 0-4.183594-1.871094-4.183594-4.183594v-82.394531c0-22.089844 13.710938-41.859375 34.398438-49.597656l104.652344-39.160157 104.648437 39.160157c20.6875 7.742187 34.398437 27.507812 34.398437 49.597656v82.394531c0 2.3125-1.871093 4.183594-4.179687 4.183594zm0 0" fill="#6e7093"/><path d="m269.207031 368.324219-104.652343-39.160157v8.796876l81.140624 30.363281c20.691407 7.742187 34.402344 27.511719 34.402344 49.597656v82.394531c0 2.3125-1.875 4.183594-4.183594 4.183594h23.507813c2.308594 0 4.183594-1.871094 4.183594-4.183594v-82.394531c0-22.085937-13.710938-41.855469-34.398438-49.597656zm0 0" fill="#4e5173"/><path d="m283.347656 359.355469-105.210937-51.039063h-27.164063l-105.210937 51.039063c-1.828125.886719-1.429688 3.601562.578125 3.925781l51.25 8.21875c1.375.21875 2.148437 1.699219 1.546875 2.953125l-19.253907 40.078125c-.910156 1.886719 1.234376 3.78125 2.996094 2.648438l36.984375-23.773438c1.386719-.890625 3.203125.105469 3.203125 1.75v39.132812c0 2.089844 2.742188 2.875 3.847656 1.097657l18.769532-30.222657c.964844-1.554687 3.316406-1.199218 3.777344.570313l13.082031 50.007813c.542969 2.070312 3.480469 2.070312 4.023437 0l13.082032-50.007813c.460937-1.769531 2.816406-2.121094 3.777343-.570313l18.769531 30.222657c1.105469 1.777343 3.847657.992187 3.847657-1.097657v-39.132812c0-1.644531 1.816406-2.640625 3.203125-1.75l36.984375 23.773438c1.761719 1.132812 3.90625-.761719 2.996093-2.648438l-19.253906-40.078125c-.601562-1.253906.171875-2.734375 1.546875-2.953125l51.25-8.21875c2.007813-.324219 2.410157-3.039062.578125-3.925781zm0 0" fill="#878cad"/><path d="m283.347656 359.355469-105.210937-51.039063h-27.164063l-23.785156 11.539063h25.28125l99.648438 48.339843 30.652343-4.914062c2.007813-.324219 2.410157-3.039062.578125-3.925781zm0 0" fill="#6e7093"/><path d="m123.066406 284.148438v61.023437c0 22.910156 18.574219 41.484375 41.488282 41.484375 22.914062 0 41.488281-18.574219 41.488281-41.484375v-61.023437zm0 0" fill="#f9c295"/><path d="m205.003906 354.4375c.679688-2.980469 1.039063-6.082031 1.039063-9.265625v-61.023437h-82.976563v61.023437c0 .957031.035156 1.90625.097656 2.847656 24.71875 6.4375 47.644532 7.546875 59.335938 7.546875 5.410156 0 13.222656-.238281 22.503906-1.128906zm0 0" fill="#e59f6a"/><path d="m183.234375 84.253906c-11.878906 5.417969-25.480469 5.417969-37.359375 0-14.925781-6.808594-35.824219-13.972656-51.222656-9.78125-58.332032 15.878906-101.050782 73.835938-82.84375 164.089844 17.609375 87.304688 122.574218 94.675781 152.746094 94.675781 30.171874 0 135.136718-7.371093 152.75-94.675781 18.207031-90.253906-24.511719-148.210938-82.847657-164.089844-15.398437-4.191406-36.296875 2.972656-51.222656 9.78125zm0 0" fill="#ffa436"/><path d="m234.457031 74.472656c-4.90625-1.335937-10.367187-1.515625-16.015625-.925781 54.03125 15.980469 93.542969 73.898437 76.664063 164.015625-16.347657 87.304688-113.792969 94.675781-141.800781 94.675781-4.332032 0-10.324219-.175781-17.421876-.796875 11.988282 1.445313 22.101563 1.796875 28.671876 1.796875 30.171874 0 135.136718-7.371093 152.75-94.675781 18.203124-90.253906-24.515626-148.210938-82.847657-164.089844zm0 0" fill="#cc6d0e"/><g fill="#4e5173"><path d="m270.53125 149.929688c1.355469-3.523438 6.570312-2.628907 6.679688 1.144531.570312 19.660156-1.828126 46.773437-9.601563 50.972656-9.257813 5-51.632813 15.3125-76.535156 12.65625-3.253907-.347656-4.257813-4.597656-1.496094-6.351563 11.824219-7.515624 27.007813-17.800781 27.28125-30.855468.054687-2.53125 2.726563-4.136719 4.992187-3.007813 9.816407 4.902344 15.285157 4.878907 20.339844 6.140625 9.050782 1.023438 19.050782-6.5625 28.339844-30.699218zm0 0"/><path d="m58.578125 149.929688c-1.355469-3.523438-6.570313-2.628907-6.679687 1.144531-.570313 19.660156 1.828124 46.773437 9.601562 50.972656 9.257812 5 51.632812 15.3125 76.535156 12.65625 3.253906-.347656 4.257813-4.597656 1.496094-6.351563-11.824219-7.515624-27.007812-17.800781-27.28125-30.855468-.054688-2.53125-2.726562-4.136719-4.992188-3.007813-9.816406 4.902344-15.285156 4.878907-20.339843 6.140625-9.050781 1.023438-19.050781-6.5625-28.339844-30.699218zm0 0"/><path d="m162.789062 289.273438-11.816406 19.042968c-.734375 1.1875-2.402344 1.332032-3.324218.28125-6.070313-6.917968-25.070313-28.582031-25.605469-29.457031-.550781-.894531-14.8125 9.453125-18.746094 12.335937-.621094.449219-1.429687.523438-2.125.1875l-47.582031-22.882812c-.519532-.25-.914063-.703125-1.085938-1.25l-12.578125-40.148438c-.65625-2.101562 1.972657-3.648437 3.492188-2.054687l25.117187 26.40625c.21875.234375.492188.414063.796875.523437l28.234375 10.230469c.617188.222657 1.300782.140625 1.847656-.214843l15.730469-10.28125c.769531-.503907 1.777344-.441407 2.480469.152343l21.792969 18.398438c.882812.746093 2.207031.628906 2.945312-.265625l20.585938-24.914063c.832031-1.007812 2.375-1.007812 3.207031 0l20.585938 24.914063c.738281.894531 2.058593 1.011718 2.945312.265625l21.792969-18.398438c.703125-.59375 1.710937-.65625 2.480469-.152343l15.730468 10.28125c.546875.359374 1.230469.4375 1.84375.214843l28.238282-10.230469c.304687-.109374.574218-.289062.796874-.523437l25.117188-26.40625c1.515625-1.597656 4.148438-.046875 3.488281 2.054687l-12.578125 40.148438c-.171875.546875-.5625 1-1.082031 1.25l-47.585937 22.882812c-.691407.335938-1.503907.261719-2.121094-.1875-3.933594-2.882812-18.195313-13.230468-18.746094-12.335937-.535156.875-19.535156 22.539063-25.605469 29.457031-.921875 1.050782-2.589843.90625-3.324219-.28125l-11.816406-19.042968c-.808594-1.3125-2.714844-1.3125-3.527344 0zm0 0"/></g><path d="m291.289062 383.15625c-3.492187 2.222656-4.523437 6.859375-2.296874 10.355469 4.652343 7.304687 7.113281 15.746093 7.113281 24.410156v79.078125h-36.195313v-42.765625c0-4.140625-3.359375-7.5-7.5-7.5s-7.5 3.359375-7.5 7.5v42.765625h-160.710937v-42.765625c0-4.140625-3.355469-7.5-7.5-7.5-4.140625 0-7.5 3.359375-7.5 7.5v42.765625h-36.191407v-79.078125c0-8.527344 2.386719-16.859375 6.90625-24.089844 2.195313-3.511719 1.128907-8.140625-2.382812-10.335937-3.511719-2.195313-8.140625-1.125-10.335938 2.382812-6.011718 9.617188-9.1875 20.699219-9.1875 32.042969v82.394531c0 6.441406 5.242188 11.683594 11.683594 11.683594h269.730469c6.441406 0 11.683594-5.242188 11.683594-11.683594v-82.394531c0-11.523437-3.273438-22.75-9.460938-32.46875-2.226562-3.492187-6.863281-4.523437-10.355469-2.296875zm0 0"/><path d="m311.109375 124.933594c-16.105469-28.480469-42.628906-48.972656-74.683594-57.695313-9.289062-2.53125-20.667969-1.90625-33.992187 1.835938-4.4375-7.425781-10.976563-13.410157-18.8125-17.164063-.539063-3.132812-1.128906-6.152344-1.765625-9.015625-.894531-4.046875-4.902344-6.597656-8.941407-5.703125-4.042968.894532-6.597656 4.898438-5.703124 8.945313.84375 3.792969 1.601562 7.902343 2.261718 12.210937.414063 2.722656 2.289063 5 4.886719 5.929688 5.390625 1.929687 10.035156 5.378906 13.421875 9.855468-2.496094 1.011719-5.050781 2.109376-7.660156 3.296876-9.890625 4.515624-21.238282 4.515624-31.132813 0-2.605469-1.1875-5.15625-2.285157-7.65625-3.292969 2.460938-3.25 5.597657-5.980469 9.21875-7.972657 2.632813-1.445312 4.144531-4.324218 3.847657-7.3125-1.121094-11.242187-4.042969-26.78125-16.425782-31.90625-8.535156-3.53125-17.394531.160157-25.960937 3.722657-9.042969 3.765625-18.390625 7.65625-28.082031 4.335937v-10.246094c12.171874 4.460938 24.199218.15625 35.847656-4.007812 11.59375-4.144531 22.546875-8.0625 33.707031-4.0625.703125.25 2.175781 1.082031 4.148437 3.832031 2.417969 3.363281 7.105469 4.132813 10.46875 1.714844 3.363282-2.414063 4.132813-7.101563 1.714844-10.464844-3.316406-4.621093-7.113281-7.71875-11.277344-9.207031-16.207031-5.808594-30.871093-.5625-43.8125 4.0625-10.191406 3.644531-18.992187 6.789062-26.214843 3.824219-4.382813-1.804688-9.347657-1.304688-13.289063 1.332031-3.941406 2.640625-6.292968 7.046875-6.292968 11.792969v11.988281c0 5.929688 3.746093 11.289062 9.320312 13.339844 15.390625 5.660156 28.773438.089844 39.527344-4.386719 5.742187-2.390625 11.679687-4.863281 14.460937-3.714844 2.226563.925781 5.066407 4.34375 6.675781 14.996094-4.949218 3.542969-9.121093 8.074219-12.234374 13.277344-13.324219-3.742188-24.703126-4.367188-33.992188-1.835938-15.054688 4.097657-28.890625 10.738281-41.128906 19.746094-3.335938 2.457031-4.050782 7.148437-1.597656 10.484375 2.457031 3.335938 7.152343 4.050781 10.488281 1.597656 10.742187-7.90625 22.914062-13.746094 36.175781-17.355468.726562-.199219 1.476562-.363282 2.261719-.5-10.410157 10.007812-19.050781 23.730468-25.460938 40.621093-1.472656 3.871094.476563 8.203125 4.347657 9.671875.875.335938 1.777343.492188 2.660156.492188 3.027344 0 5.875-1.84375 7.011718-4.839844 7.890626-20.777344 19.808594-36.28125 33.742188-43.992188 3.296875.867188 6.765625 1.964844 10.375 3.289063-4.375 15.304687-7.605469 36.082031-9.410156 60.710937-.300782 4.128907 2.804687 7.722657 6.933594 8.027344.1875.011719.371093.019532.554687.019532 3.894531 0 7.183594-3.007813 7.472656-6.953126 1.667969-22.777343 4.546875-41.914062 8.402344-56.019531 12.25 4.769531 25.832031 4.769531 38.082031 0 3.855469 14.105469 6.734375 33.242188 8.402344 56.019531.289062 3.945313 3.578125 6.953126 7.472656 6.953126.183594 0 .367188-.007813.554688-.019532 4.132812-.304687 7.234375-3.898437 6.933594-8.027344-1.804688-24.628906-5.035157-45.40625-9.410157-60.707031 3.609375-1.324219 7.078125-2.425781 10.375-3.292969 13.933594 7.710938 25.851563 23.214844 33.742188 43.992188 1.136719 2.996094 3.984375 4.839844 7.011719 4.839844.882812 0 1.785156-.160156 2.660156-.492188 3.871094-1.46875 5.820312-5.800781 4.347656-9.671875-6.410156-16.890625-15.050781-30.613281-25.460938-40.621093.785157.136718 1.539063.300781 2.261719.5 28.160157 7.664062 51.445313 25.636718 65.566407 50.609374 15.925781 28.164063 20.042968 64.390626 11.898437 104.761719-6.988281 34.632813-29.554687 59.730469-67.074219 74.585938-8.96875 3.550781-18.042968 6.21875-26.738281 8.214843-.351563.054688-.695313.132813-1.035156.234376-3.335938.75-6.617188 1.402343-9.8125 1.964843-.367188.039063-.730469.101563-1.078125.1875-17.367188 2.992188-32.078125 3.46875-39.660156 3.46875-7.578126 0-22.289063-.476562-39.65625-3.46875-.351563-.085937-.710938-.152343-1.082032-.1875-3.191406-.566406-6.472656-1.214843-9.808594-1.964843-.339843-.101563-.683593-.179688-1.035156-.234376-8.695312-2-17.769531-4.664062-26.738281-8.214843-37.519531-14.855469-60.085937-39.953125-67.074219-74.585938-12.175781-60.355469 4.738282-97.726562 21.074219-118.453125 2.5625-3.253906 2.003906-7.96875-1.25-10.535156-3.253906-2.5625-7.96875-2.003906-10.53125 1.25-18.292969 23.210938-37.304687 64.730469-23.996094 130.703125 4.363281 21.632813 14.144531 40.277344 29.066407 55.40625 12.316406 12.492187 28.195312 22.640625 47.1875 30.160156 3.320312 1.3125 6.648437 2.515625 9.96875 3.613281l-48.199219 23.386719c-3.769531 1.832031-5.898438 5.851563-5.292969 10 .609375 4.148438 3.796875 7.394531 7.964844 8.078125l44.082031 7.0625-16.125 33.558594c-1.859375 3.902344-.929687 8.449219 2.316406 11.308594 3.246094 2.859375 7.867188 3.210937 11.507813.871094l28.632812-18.40625v29.207031c0 4.320312 2.789063 8.019531 6.941406 9.207031 4.160157 1.1875 8.488282-.476562 10.78125-4.160156l12.113282-19.503906 9.886718 37.796874c1.097657 4.21875 4.910157 7.160157 9.265626 7.160157 4.359374 0 8.167968-2.941407 9.265624-7.152344l9.890626-37.804687 12.121093 19.515624c2.289063 3.667969 6.617188 5.335938 10.773438 4.148438 4.152343-1.1875 6.941406-4.890625 6.941406-9.207031v-29.207031l28.636719 18.410156c3.636718 2.332031 8.257812 1.980468 11.503906-.875 3.246094-2.859375 4.179688-7.40625 2.308594-11.335938l-16.117188-33.535156 44.109375-7.066406c4.140625-.679688 7.332031-3.921875 7.9375-8.074219.605469-4.144531-1.519531-8.164063-5.296875-10.003906l-48.195312-23.378907c3.320312-1.101562 6.648437-2.300781 9.96875-3.613281 18.992187-7.523437 34.871094-17.667969 47.1875-30.160156 14.921875-15.132813 24.703125-33.773437 29.066406-55.410156 8.863281-43.953125 4.183594-83.757813-13.546875-115.109375zm-112.566406 213.382812v6.859375c0 9.074219-3.535157 17.605469-9.953125 24.023438-6.417969 6.417969-14.953125 9.953125-24.035156 9.953125-18.742188 0-33.988282-15.242188-33.988282-33.976563v-6.859375c14.867188 2.054688 27.148438 2.421875 33.988282 2.421875 6.839843 0 19.121093-.367187 33.988281-2.421875zm66.066406 20.28125-34.265625 5.492188c-2.96875.472656-5.574219 2.339844-6.972656 5-1.398438 2.660156-1.460938 5.871094-.15625 8.613281l10.960937 22.816406-20.867187-13.417969c-2.941406-1.898437-6.6875-2.035156-9.765625-.359374-3.082031 1.679687-5 4.90625-5 8.414062v20.136719l-8.742188-14.078125c-2.015625-3.253906-5.765625-4.996094-9.546875-4.429688-3.789062.5625-6.875 3.320313-7.863281 7.050782l-7.835937 29.953124-7.839844-29.980468c-.984375-3.703125-4.070313-6.460938-7.859375-7.023438-3.785157-.566406-7.53125 1.175782-9.542969 4.421875l-8.746094 14.085938v-20.136719c0-3.511719-1.917968-6.734375-5-8.414062-3.078125-1.675782-6.820312-1.539063-9.757812.355468l-20.875 13.421875 10.976562-22.839843c1.292969-2.71875 1.230469-5.929688-.171875-8.589844-1.398437-2.660156-4.003906-4.527344-6.964843-5l-34.273438-5.488282 48.25-23.414062c.945312.203125 1.882812.398438 2.816406.585938v9.402343c0 27.007813 21.976563 48.980469 48.988282 48.980469 13.089843 0 25.390624-5.097656 34.640624-14.347656 9.253907-9.253906 14.347657-21.550782 14.347657-34.632813v-9.398437c.933593-.191406 1.875-.386719 2.816406-.585938zm0 0"/><path d="m190.277344 222.160156c3.0625.328125 6.335937.476563 9.753906.476563 26.699219 0 62.09375-9.101563 71.144531-13.992188 5.886719-3.179687 9.628907-11.167969 11.777344-25.148437 1.445313-9.402344 2.082031-21.296875 1.753906-32.636719-.15625-5.285156-3.902343-9.597656-9.113281-10.488281-5.207031-.886719-10.167969 1.933594-12.066406 6.863281-6.492188 16.882813-13.824219 26.320313-20.121094 25.96875-1.277344-.296875-2.539062-.527344-3.761719-.75-3.941406-.71875-8.011719-1.464844-14.445312-4.675781-3.378907-1.683594-7.324219-1.527344-10.558594.425781-3.226563 1.953125-5.203125 5.367187-5.28125 9.136719-.203125 9.679687-15.554687 19.4375-23.804687 24.679687-3.988282 2.53125-5.867188 7.140625-4.789063 11.738281 1.078125 4.605469 4.8125 7.902344 9.511719 8.402344zm87.25-69.539062v.011718c0-.003906 0-.007812 0-.011718zm-53.980469 30.863281c7.167969 2.902344 17.699219 4.582031 17.800781 4.59375 10.566406 1.207031 19.957032-4.96875 28.039063-18.367187-.96875 14.191406-3.46875 23.734374-5.539063 25.84375-7.273437 3.769531-36.8125 11.113281-59.605468 11.992187 8.28125-6.078125 16.699218-14.042969 19.304687-24.0625zm0 0"/><path d="m57.933594 208.644531c9.054687 4.890625 44.445312 13.992188 71.144531 13.992188 3.417969 0 6.695313-.148438 9.753906-.476563 4.699219-.5 8.433594-3.796875 9.511719-8.398437 1.074219-4.597657-.804688-9.207031-4.789062-11.742188-8.25-5.242187-23.605469-15-23.804688-24.679687-.082031-3.769532-2.054688-7.183594-5.285156-9.132813-3.230469-1.953125-7.179688-2.113281-10.558594-.425781-6.429688 3.210938-10.503906 3.953125-14.441406 4.675781-1.222656.222657-2.484375.453125-3.761719.75-6.328125.335938-13.632813-9.089843-20.125-25.96875-1.898437-4.929687-6.859375-7.75-12.066406-6.863281-5.210938.890625-8.957031 5.199219-9.109375 10.484375-.332032 11.339844.308594 23.238281 1.753906 32.640625 2.148438 13.972656 5.890625 21.964844 11.777344 25.144531zm29.828125-20.566406c.894531-.101563.628906-.179687 4.398437-.867187 3.347656-.613282 7.667969-1.402344 13.402344-3.726563 2.605469 10.019531 11.023438 17.984375 19.304688 24.0625-22.789063-.878906-52.332032-8.222656-59.605469-11.992187-2.070313-2.109376-4.570313-11.648438-5.539063-25.84375 8.082032 13.398437 17.464844 19.566406 28.039063 18.367187zm-36.179688-35.457031v.011718c0-.003906 0-.007812 0-.011718zm0 0"/><path d="m32.769531 229.625 12.578125 40.144531c.792969 2.523438 2.609375 4.628907 4.992188 5.769531l47.585937 22.886719c3.195313 1.535157 6.949219 1.191407 9.800781-.898437 5.292969-3.875 9.605469-6.898438 12.546876-8.867188 3.554687 4.121094 9.980468 11.488282 21.738281 24.886719 1.820312 2.070313 4.464843 3.257813 7.203125 3.257813.257812 0 .519531-.011719.777344-.03125 3.011718-.25 5.761718-1.933594 7.355468-4.5l7.207032-11.621094 7.207031 11.621094c1.59375 2.566406 4.339843 4.25 7.351562 4.5 3.007813.246093 5.988281-.957032 7.980469-3.226563 11.761719-13.398437 18.183594-20.765625 21.738281-24.890625 2.945313 1.972656 7.253907 4.996094 12.546875 8.867188 2.851563 2.09375 6.609375 2.4375 9.804688.902343l47.582031-22.882812c2.382813-1.144531 4.199219-3.246094 4.992187-5.769531l12.578126-40.148438c1.339843-4.273438-.421876-8.847656-4.28125-11.117188-3.859376-2.273437-8.710938-1.59375-11.800782 1.652344l-24.234375 25.484375-24.488281 8.871094-13.464844-8.800781c-3.515625-2.296875-8.214844-2.011719-11.421875.699218l-17.609375 14.863282-17.097656-20.691406c-1.824219-2.210938-4.515625-3.480469-7.382812-3.480469-2.871094 0-5.558594 1.269531-7.386719 3.480469l-17.097657 20.691406-17.609374-14.863282c-3.257813-2.75-7.847657-3.035156-11.417969-.699218l-13.464844 8.800781-24.492187-8.871094-24.234376-25.484375c-3.085937-3.246094-7.941406-3.925781-11.800781-1.652344-3.859375 2.269532-5.617187 6.84375-4.28125 11.117188zm82.992188 53.613281c.109375.164063.285156.40625.691406.90625-.246094-.273437-.480469-.578125-.691406-.90625zm12.371093-8.472656c.15625.210937.25.367187.304688.457031-.097656-.15625-.195312-.308594-.304688-.457031zm72.542969.453125c.050781-.085938.144531-.242188.300781-.453125-.105468.148437-.207031.300781-.300781.453125zm11.988281 8.921875c.394532-.488281.570313-.730469.679688-.894531-.210938.324218-.4375.621094-.679688.894531zm-149.5625-27.234375c1.019532 1.070312 2.289063 1.898438 3.675782 2.402344l28.238281 10.230468c2.820313 1.023438 5.996094.652344 8.503906-.988281l12.351563-8.074219 18.710937 15.796876c1.96875 1.664062 4.46875 2.453124 7.035157 2.222656 2.566406-.234375 4.886718-1.453125 6.527343-3.441406l16.410157-19.859376 16.410156 19.859376c1.640625 1.988281 3.960937 3.210937 6.527344 3.441406 2.566406.226562 5.066406-.5625 7.035156-2.222656l18.710937-15.796876 12.351563 8.074219c2.507812 1.640625 5.683594 2.011719 8.503906.988281l28.238281-10.230468c1.390625-.503906 2.664063-1.335938 3.675781-2.402344l9.042969-9.507812-4.902343 15.644531-42.542969 20.457031c-17.421875-12.648438-18.710938-12.394531-21.90625-11.765625-1.863281.367187-3.582031 1.464844-4.703125 3-1.085938 1.367187-8.859375 10.304687-20.347656 23.410156l-7.957032-12.824219c-1.757812-2.835937-4.800781-4.53125-8.136718-4.53125-3.339844 0-6.382813 1.695313-8.140626 4.53125l-7.957031 12.824219c-11.488281-13.105469-19.257812-22.042969-20.347656-23.410156-1.121094-1.535156-2.835937-2.632813-4.699219-3-3.199218-.628906-4.484375-.882813-21.910156 11.765625l-42.542969-20.457031-4.902343-15.644531zm0 0"/></svg>