<svg height="512pt" viewBox="-103 0 512 512.00101" width="512pt" xmlns="http://www.w3.org/2000/svg"><path d="m255.96875 370.804688-26.515625-9.921876c-9.304687-3.480468-11.632813-15.613281-4.230469-22.234374 28.957032-25.917969 54.019532-56.050782 64.140625-82.019532 18.296875-46.953125 9.179688-142.390625-16.875-176.417968-26.277343-34.328126-101.914062-54.523438-119.265625-60.183594-26.199218-9.058594-82.785156-18.125-98.847656-8.027344-16.058594 10.09375 24.179688 29.363281-2.121094 51.097656v.003906c-7.273437 5.246094-13.582031 10.949219-18.296875 17.109376-26.054687 34.027343-35.171875 129.464843-16.871093 176.417968 10.117187 25.96875 35.179687 56.101563 64.136718 82.019532 7.402344 6.625 5.074219 18.753906-4.230468 22.234374l-26.511719 9.921876c-20.3125 7.597656-33.773438 27.007812-33.773438 48.695312v80.890625c0 2.269531 1.839844 4.109375 4.105469 4.109375h264.816406c2.269532 0 4.105469-1.839844 4.105469-4.109375v-80.890625c.003906-21.6875-13.457031-41.097656-33.765625-48.695312zm0 0" fill="#ed6161"/><path d="m255.96875 370.804688-26.515625-9.921876c-9.304687-3.480468-11.632813-15.613281-4.230469-22.234374 28.957032-25.917969 54.019532-56.050782 64.140625-82.019532 18.296875-46.953125 9.179688-142.390625-16.875-176.417968-26.28125-34.328126-101.914062-54.523438-119.265625-60.179688-20.839844-7.207031-60.914062-14.417969-84.515625-11.984375 21.660157 1.578125 46.722657 6.78125 61.769531 11.984375 17.351563 5.65625 92.984376 25.851562 119.265626 60.179688 26.054687 34.027343 35.171874 129.464843 16.871093 176.417968-10.117187 25.96875-35.179687 56.101563-64.136719 82.019532-7.402343 6.625-5.074218 18.753906 4.226563 22.234374l26.515625 9.921876c20.3125 7.597656 33.773438 27.007812 33.773438 48.695312v80.890625c0 2.269531-1.839844 4.109375-4.105469 4.109375h22.746093c2.265626 0 4.105469-1.839844 4.105469-4.109375v-80.890625c0-21.6875-13.460937-41.097656-33.769531-48.695312zm0 0" fill="#ce4545"/><path d="m44.050781 199.15625c0 115.652344 75.488281 163.628906 109.171875 189.648438 33.6875-26.019532 109.175782-73.996094 109.175782-189.648438zm0 0" fill="#aa3535"/><path d="m193.953125 288.164062v73.175782c0 .878906-.03125 1.757812-.082031 2.613281-13.894532 10.054687-27.796875 18.609375-40.648438 24.855469-12.851562-6.246094-26.753906-14.800782-40.644531-24.855469-.050781-.859375-.082031-1.734375-.082031-2.613281v-73.175782zm0 0" fill="#f9c295"/><path d="m112.496094 325.683594c16.0625 10.46875 34.707031 16.464844 54.597656 16.464844 9.269531 0 18.265625-1.304688 26.859375-3.753907v-50.230469h-81.457031zm0 0" fill="#e59f6a"/><path d="m262.398438 199.15625c0-67.929688-48.878907-122.996094-109.175782-122.996094-60.292968 0-109.171875 55.066406-109.171875 122.996094 0 67.925781 48.878907 122.996094 109.171875 122.996094 60.296875 0 109.175782-55.070313 109.175782-122.996094zm0 0" fill="#f9c295"/><path d="m203.871094 90.175781c23.816406 22.5625 38.953125 56.375 38.953125 94.171875 0 67.929688-48.878907 122.996094-109.171875 122.996094-18.28125 0-35.507813-5.070312-50.648438-14.015625 18.984375 17.984375 43.476563 28.824219 70.21875 28.824219 60.296875 0 109.175782-55.066406 109.175782-122.996094 0-47.335938-23.738282-88.414062-58.527344-108.980469zm0 0" fill="#e59f6a"/><path d="m44.351562 190.011719c44.214844-7.839844 64.554688-50.914063 64.980469-73.394531v-30.105469c-36.089843 17.875-61.953125 57.109375-64.980469 103.5zm0 0" fill="#f9dc6a"/><path d="m216.246094 460.605469c-28.925782-6.632813-43.648438-34.703125-43.648438-62.261719h-38.746094c0 27.558594-14.722656 55.628906-43.652343 62.261719-28.925781 6.636719-42.597657 28.070312-42.597657 43.894531h211.246094c0-15.820312-13.671875-37.257812-42.601562-43.894531zm0 0" fill="#6e7093"/><path d="m172.597656 398.34375h-38.746094c0 19.292969-7.226562 38.824219-21.480468 51.089844v55.066406h81.703125v-55.066406c-14.25-12.265625-21.476563-31.796875-21.476563-51.089844zm0 0" fill="#e6eff5"/><path d="m202.085938 429.03125-40.992188-16.632812v-19.621094l40.992188-16.632813c8.539062-3.464843 17.871093 2.820313 17.871093 12.035157v28.816406c-.003906 9.214844-9.332031 15.5-17.871093 12.035156zm0 0" fill="#3185db"/><path d="m104.363281 429.03125 40.992188-16.632812v-19.621094l-40.992188-16.632813c-8.539062-3.464843-17.871093 2.820313-17.871093 12.035157v28.816406c0 9.214844 9.332031 15.5 17.871093 12.035156zm0 0" fill="#3185db"/><path d="m155.960938 378.140625h-5.472657c-8.710937 0-15.765625 7.058594-15.765625 15.765625v17.363281c0 8.707031 7.058594 15.765625 15.765625 15.765625h5.472657c8.710937 0 15.765624-7.058594 15.765624-15.765625v-17.363281c0-8.707031-7.058593-15.765625-15.765624-15.765625zm0 0" fill="#80b9f9"/><path d="m99.34375 92.164062c5.394531-28.117187 62.359375-44.277343 115.539062-11.953124 51.132813 31.078124 69.347657 104.59375 52.648438 167.375-.8125 3.046874-4.835938 3.707031-6.550781 1.058593-10.421875-16.089843-25.785157-42.859375-63.246094-58.957031-34.25-14.71875-113.980469-16.289062-98.390625-97.523438zm0 0" fill="#ffcd34"/><path d="m214.882812 80.210938c-24.855468-15.109376-50.535156-19.621094-71.394531-17.277344 15.84375 1.671875 33.058594 7.042968 49.898438 17.277344 46.808593 28.453124 66.023437 92.46875 56.128906 151.253906 4.613281 6.320312 8.273437 12.253906 11.464844 17.179687 1.714843 2.648438 5.738281 1.988281 6.550781-1.058593 16.695312-62.78125-1.515625-136.292969-52.648438-167.375zm0 0" fill="#e69012"/><path d="m287.476562 402.570312c-4.070312.757813-6.753906 4.675782-5.992187 8.75.5 2.683594.757813 5.4375.757813 8.179688v77.5h-16.644532c-3.570312-18.070312-19.792968-37.304688-47.675781-43.703125-7.058594-1.621094-13.390625-4.824219-18.769531-9.378906-.125-.117188-.257813-.230469-.394532-.339844-3.78125-3.28125-7.085937-7.238281-9.824218-11.792969l10.332031 4.191406c2.488281 1.011719 5.105469 1.511719 7.710937 1.511719 4.015626 0 7.996094-1.183593 11.429688-3.496093 5.664062-3.8125 9.046875-10.164063 9.046875-16.988282v-28.820312c0-6.832032-3.382813-13.1875-9.046875-17-5.566406-3.746094-12.574219-4.527344-18.816406-2.113282 5.234375-3.824218 10.453125-7.847656 15.597656-12.023437 2.238281 4.976563 6.359375 8.882813 11.636719 10.859375l26.515625 9.921875c6.261718 2.34375 11.785156 5.96875 16.417968 10.769531 1.472657 1.523438 3.433594 2.289063 5.398438 2.289063 1.871094 0 3.75-.699219 5.203125-2.101563 2.980469-2.875 3.066406-7.621094.191406-10.601562-6.199219-6.425782-13.585937-11.269532-21.957031-14.402344l-26.515625-9.921875c-2.742187-1.027344-3.460937-3.375-3.640625-4.335937-.179688-.949219-.363281-3.363282 1.785156-5.285157 4.722656-4.226562 9.273438-8.5 13.628906-12.792969 4.730469-4.65625 9.265626-9.363281 13.542969-14.0625 16.765625-18.4375 29.320313-36.464843 36.625-52.523437.847657-1.863281 1.628907-3.699219 2.332031-5.507813 19.34375-49.640624 9.804688-147.5-17.90625-183.699218-25.058593-32.734375-88.792968-52.265625-116.007812-60.605469-2.785156-.855469-5.097656-1.5625-6.828125-2.125-21.527344-7.425781-84.246094-20.453125-105.222656-7.269531-5.738281 3.605468-8.285157 9.058594-7.167969 15.351562.75 4.234375 2.996094 8.132813 5.371094 12.257813 5.902344 10.253906 8.550781 15.996093-.976563 23.945312-6.042969 4.382813-11.222656 8.914063-15.460937 13.523438-.035156.035156-.066406.070312-.097656.105469-.054688.058593-.109376.117187-.164063.175781-.050781.058593-.101563.113281-.152344.171875-.035156.035156-.066406.074218-.101562.113281-.066407.070313-.128907.140625-.195313.214844-.015625.015625-.03125.035156-.046875.050781-1.210937 1.355469-2.34375 2.71875-3.390625 4.089844-.007812.007812-.015625.019531-.019531.027344-10.773437 14.089843-19.332031 38.183593-24.097656 67.851562-.65625 4.089844 2.128906 7.9375 6.214843 8.59375 4.09375.652344 7.9375-2.125 8.59375-6.214844 4.320313-26.882812 12.050782-49.167968 21.214844-61.140625.066406-.082031.132813-.167969.199219-.253906.039063-.050781.078125-.105469.121094-.15625.023437-.03125.046875-.0625.074219-.09375.054687-.070313.109374-.136719.164062-.207031.007812-.007813.011719-.019532.019531-.027344 3.949219-4.964844 9.375-9.957031 16.15625-14.84375.121094-.089844.242188-.183594.359375-.277344 9.015625-6.457031 20.4375-12.777344 34.1875-18.917968 3.785156-1.6875 5.480469-6.121094 3.792969-9.902344s-6.125-5.480469-9.90625-3.792969c-5.808594 2.59375-11.257813 5.238281-16.335937 7.933594-.777344-7.382813-4.523438-13.882813-7.15625-18.453125-1.3125-2.277344-3.230469-5.609375-3.574219-7.183594.09375-.070312.210937-.148438.355469-.242188 4.289062-2.695312 17.261718-4.65625 40.8125-2.0625 18.058593 1.984376 38.308593 6.238282 51.59375 10.832032.042968.015625.082031.027344.125.042968 1.804687.585938 4.222656 1.328126 7.144531 2.222657 23.617187 7.238281 86.351562 26.464843 108.492187 55.386719 11.417969 14.910156 20.222656 44.636718 23.558594 79.515624 3.34375 34.992188.488281 68.394532-7.640625 89.421876-.027344.066406-.054687.132812-.082031.203124-7.199219 18.480469-23.660156 41.035157-45.179688 62.957032 11.664063-18.214844 20.257813-38 25.667969-59.128906.382813.039062.769531.058593 1.160156.058593.574219 0 1.15625-.042969 1.734375-.136719 4.347656-.6875 7.890625-3.886718 9.023438-8.148437 8.6875-32.652344 8.351562-68.03125-.9375-99.617187-9.847656-33.472657-29.402344-60.496094-55.0625-76.09375-17.054688-10.367188-35.890625-16.753907-54.46875-18.476563-16.691406-1.542969-33 .765625-45.925782 6.496094-13.367187 5.929687-22.332031 14.964843-25.597656 25.6875-2.046875 1.386719-4.046875 2.839843-6 4.359375-.109375.082031-.214844.164062-.320312.246094-.089844.070312-.179688.140624-.269532.210937-28.554687 22.402344-46.765624 57.933594-49.328124 97.199219-.003907.082031-.007813.167968-.011719.253906-.203125 3.109375-.304688 6.238281-.304688 9.382812 0 50.507813 14.164063 88.714844 32.6875 117.6875-21.507812-21.914062-37.960937-44.460937-45.15625-62.9375-.027343-.066406-.054687-.136718-.085937-.203124-7.234375-18.714844-10.328125-47.308594-8.480469-78.5.242187-4.136719-2.910156-7.683594-7.046875-7.929688-4.113281-.242188-7.683594 2.910156-7.929688 7.042969-1.972656 33.386719 1.511719 64.378906 9.5625 85.03125.410157 1.058593.851563 2.132812 1.316407 3.210937 8.675781 20.332032 24.699219 41.382813 42.882812 60.429688 6.769531 7.128906 14.109375 14.246094 21.925781 21.242187 2.148438 1.925781 1.964844 4.339844 1.789063 5.289063-.183594.960937-.898437 3.308594-3.644531 4.335937l-26.515625 9.921875c-23.113281 8.648438-38.640625 31.039063-38.640625 55.71875v80.890625c0 6.402344 5.203125 11.605469 11.605468 11.605469h264.8125c6.402344 0 11.605469-5.207031 11.605469-11.605469v-80.890625c0-3.667968-.339843-7.347656-1.011719-10.9375-.761718-4.074218-4.675781-6.757812-8.75-5.996094zm-82.566406-19.476562c2.4375-.992188 4.394532.039062 5.121094.53125.726562.488281 2.425781 1.917969 2.425781 4.558594v28.816406c0 2.636719-1.695312 4.0625-2.425781 4.550781-.726562.488281-2.679688 1.519531-5.125.527344l-25.683594-10.417969c.003906-.128906.003906-.257812.003906-.390625v-1.183593h11.296876c4.144531 0 7.5-3.355469 7.5-7.496094 0-4.144532-3.355469-7.5-7.5-7.5h-11.296876v-1.183594c0-.128906 0-.261719-.003906-.390625zm-41.65625-11.28125c-5.152344-1.707031-8.71875-1.011719-12.765625-1.171875-2.542969 0-4.992187.410156-7.285156 1.167969-7.507813-5.726563-15.359375-11.957032-23.203125-18.980469v-28.566406c10.53125 3.507812 21.6875 5.390625 33.226562 5.390625 11.441407 0 22.609376-1.882813 33.222657-5.421875v28.683593c-8.371094 7.496094-16.367188 13.714844-23.195313 18.898438zm.976563 22.09375v17.363281c0 4.558594-3.710938 8.265625-8.269531 8.265625h-5.472657c-4.558593 0-8.265625-3.707031-8.265625-8.265625v-17.363281c0-2.472656 1.089844-4.695312 2.816406-6.210938.058594-.050781.117188-.097656.175782-.148437 1.429687-1.191406 3.269531-1.910156 5.273437-1.910156h5.476563c2 0 3.839844.714843 5.269531 1.90625.0625.050781.121094.105469.183594.15625 1.722656 1.515625 2.8125 3.734375 2.8125 6.207031zm-37.003907-.394531c-.003906.132812-.003906.261719-.003906.394531v1.183594h-11.296875c-4.144531 0-7.5 3.355468-7.5 7.496094 0 4.144531 3.355469 7.5 7.5 7.5h11.296875v1.183593c0 .128907 0 .261719.003906.390625l-25.6875 10.421875c-2.4375.988281-4.394531-.042969-5.125-.53125-.726562-.492187-2.421874-1.914062-2.421874-4.550781v-28.816406c0-2.644532 1.695312-4.070313 2.425781-4.5625.730469-.488282 2.679687-1.519532 5.125-.527344zm-7.359374 71.667969 14.410156 6.210937-14.410156 6.210937zm2.746093-15.148438c5.359375-5.863281 9.730469-12.90625 12.925781-20.945312 4.046876 3.398437 9.261719 5.449218 14.949219 5.449218h5.472657c5.6875 0 10.902343-2.050781 14.949218-5.449218 3.195313 8.039062 7.566406 15.082031 12.925782 20.945312l-30.609376 13.191406zm78.835938-111.726562v-20.363282c11.542969-5.875 22.160156-13.808594 31.421875-23.464844-9.125 17.457032-20.195313 31.875-31.421875 43.828126zm-94.753907-244.667969c.007813-.03125.011719-.058594.019532-.089844 1.367187-7.054687 7.835937-13.621094 17.746094-18.015625 18.214843-8.078125 51.800781-10.019531 86.523437 11.085938 22.789063 13.851562 39.546875 37.195312 48.464844 67.511718 7.707031 26.199219 8.691406 55.273438 2.910156 82.800782-.003906-.003907-.003906-.007813-.007813-.011719-.070312-.113281-.144531-.226563-.222656-.335938-10.933594-16.75-27.617187-39.253906-61.433594-53.78125-7.164062-3.082031-15.941406-5.550781-25.238281-8.164062-18.214843-5.125-38.859375-10.933594-53.019531-22.832031-15.578125-13.089844-20.726562-32.117188-15.742188-58.167969zm-16.816406 15.191406c-.398437 12.492187 1.683594 22.914063 5.539063 31.667969-4.8125 10.121094-17.476563 31.125-42.46875 39.59375 4.152343-28.042969 17.328125-53.484375 36.929687-71.261719zm-38.332031 90.332031c0-1.019531.011719-2.035156.035156-3.046875 21.964844-5.625 40.925781-20.335937 53.0625-40.9375 16.921875 19.878907 45.070313 27.796875 66.75 33.894531 8.804688 2.480469 17.121094 4.820313 23.378907 7.507813.566406.242187 1.121093.496094 1.679687.742187-.617187 1.09375-.976563 2.355469-.976563 3.699219v2c0 4.140625 3.355469 7.5 7.5 7.5 3.582032 0 6.574219-2.515625 7.316407-5.875 18.320312 11.34375 29.464843 25.511719 37.394531 37.292969-15.339844 43.644531-52.898438 72.714844-94.460938 72.714844-56.066406 0-101.679687-51.808594-101.679687-115.492188zm21.984375 95.226563c9.21875 9.65625 19.835938 17.660156 31.46875 23.589843v20.277344c-6.761719-7.175781-13.335938-15.109375-19.488281-23.996094-4.421875-6.390624-8.414063-13.015624-11.980469-19.871093zm31.339844 202.613281h-48.726563c4.597657-16.132812 23.335938-26.238281 35.734375-29.085938 4.578125-1.050781 8.921875-2.585937 12.992188-4.574218zm2.816406-53.421875c-.132812.109375-.265625.21875-.390625.335937-5.378906 4.558594-11.710937 7.761719-18.773437 9.382813-27.878907 6.398437-44.101563 25.632813-47.671876 43.703125h-16.644531v-77.5c0-18.457031 11.617188-35.203125 28.902344-41.671875l26.515625-9.921875c5.285156-1.976562 9.40625-5.890625 11.644531-10.875 5.335938 4.335938 10.574219 8.371094 15.589844 12.039062-6.242187-2.414062-13.25-1.632812-18.816406 2.113282-5.664063 3.8125-9.050781 10.167968-9.050781 17v28.816406c0 6.828125 3.382812 13.179688 9.046874 16.992188 3.4375 2.3125 7.421876 3.496093 11.433594 3.496093 2.601563 0 5.21875-.5 7.707032-1.511719l10.335937-4.191406c-2.742187 4.554688-6.042969 8.511719-9.828125 11.792969zm78.890625 53.421875h-66.710937v-3.066406l33.355468-14.378906 33.355469 14.378906zm0-19.398438-14.40625-6.210937 14.40625-6.210937zm15 19.398438v-33.660156c4.070313 1.988281 8.414063 3.523437 12.992187 4.574218 12.398438 2.847657 31.136719 12.953126 35.734376 29.085938zm0 0"/><path d="m103.472656 210.519531c4.144532 0 7.5-3.359375 7.5-7.5v-2c0-4.140625-3.355468-7.5-7.5-7.5-4.140625 0-7.5 3.359375-7.5 7.5v2c0 4.140625 3.359375 7.5 7.5 7.5zm0 0"/><path d="m153.21875 272.320312c12.882812 0 25.328125-5.386718 34.140625-14.785156 2.835937-3.019531 2.683594-7.765625-.335937-10.601562-3.023438-2.832032-7.769532-2.679688-10.601563.339844-6.078125 6.480468-14.320313 10.046874-23.203125 10.046874-8.875 0-17.113281-3.566406-23.191406-10.046874-2.832032-3.019532-7.578125-3.171876-10.601563-.339844-3.019531 2.835937-3.171875 7.582031-.339843 10.601562 8.816406 9.398438 21.257812 14.785156 34.132812 14.785156zm0 0"/></svg>