<svg height="511pt" viewBox="-28 0 511 511.99745" width="511pt" xmlns="http://www.w3.org/2000/svg"><path d="m9.019531 73.320312 34.84375 130.042969c4.210938 15.714844 20.363281 25.039063 36.074219 20.828125l107.25-28.738281c15.710938-4.207031 25.035156-20.359375 20.824219-36.074219l-34.84375-130.042968c-4.210938-15.714844-20.359375-25.039063-36.074219-20.828126l-107.246094 28.734376c-15.714844 4.210937-25.039062 20.363281-20.828125 36.078124zm0 0" fill="#e6eff5"/><path d="m208.015625 159.378906-34.847656-130.042968c-4.210938-15.714844-20.359375-25.039063-36.074219-20.828126l-17.835938 4.777344c13.648438-3.65625 28.125 6.117188 32.335938 21.828125l34.84375 130.046875c4.210938 15.710938-3.4375 31.414063-17.082031 35.070313l17.832031-4.777344c15.710938-4.207031 25.035156-20.359375 20.828125-36.074219zm0 0" fill="#c5d3d6"/><path d="m124.628906 176.484375c-12.121094 3.253906-19.558594-8.386719-18.410156-15.96875.367188-6.441406-1.265625-12.539063-4.804688-17.933594-4.785156-5.996093-4.167968-19.792969 7.960938-23.035156 12.121094-3.253906 19.554688 8.386719 18.40625 15.96875-.367188 6.441406 1.265625 12.539063 4.804688 17.933594 4.789062 5.996093 4.167968 19.792969-7.957032 23.035156zm0 0" fill="#4e5173"/><path d="m118.449219 213.875 51.429687 191.941406c.285156 1.066406 1.382813 1.699219 2.453125 1.414063l26.359375-7.0625c1.066406-.285157 1.703125-1.382813 1.414063-2.453125l-51.429688-191.941406zm0 0" fill="#f9dc6a"/><path d="m118.441406 213.871094 30.226563-8.097656 5.875 21.925781-30.226563 8.097656zm0 0" fill="#e5ac51"/><path d="m286.332031 127.847656-46.046875 126.515625c-5.566406 15.285157 2.316406 32.1875 17.601563 37.75l104.335937 37.976563c15.285156 5.5625 32.1875-2.320313 37.75-17.605469l46.050782-126.515625c5.5625-15.285156-2.320313-32.1875-17.605469-37.75l-104.335938-37.976562c-15.285156-5.5625-32.1875 2.320312-37.75 17.605468zm0 0" fill="#ffa436"/><path d="m428.417969 148.21875-17.15625-6.246094c13.300781 4.839844 19.574219 21.160156 14.007812 36.445313l-46.046875 126.511719c-5.5625 15.285156-20.851562 23.753906-34.152344 18.914062l17.152344 6.242188c15.285156 5.566406 32.1875-2.316407 37.75-17.601563l46.050782-126.515625c5.5625-15.285156-2.320313-32.1875-17.605469-37.75zm0 0" fill="#cc6d0e"/><path d="m295.351562 305.75-67.964843 186.726562c-.375 1.039063.160156 2.191407 1.199219 2.566407l13 4.734375 12.644531 4.601562c1.039062.378906 2.1875-.160156 2.566406-1.199218l67.960937-186.726563zm0 0" fill="#81ebc7"/><path d="m295.351562 305.75-7.644531 21.003906 14.882813 5.414063 14.523437 5.289062 7.644531-21.003906zm0 0" fill="#50b596"/><g fill="#4e5173"><path d="m319.105469 210.941406-25.582031-9.3125c-4.605469-1.675781-5.710938-7.679687-2.007813-10.890625l21.15625-18.328125c3.804687-3.300781 9.753906-1.132812 10.550781 3.839844l4.421875 27.636719c.773438 4.839843-3.933593 8.730469-8.539062 7.054687zm0 0"/><path d="m393.085938 237.867188-25.582032-9.308594c-4.605468-1.679688-5.710937-7.683594-2.007812-10.894532l21.15625-18.328124c3.804687-3.300782 9.753906-1.132813 10.550781 3.839843l4.421875 27.640625c.773438 4.835938-3.933594 8.726563-8.539062 7.050782zm0 0"/><path d="m331.292969 255.871094-3.835938 10.53125-19.15625-6.972656 3.835938-10.53125-32.628907-11.878907c1.808594 22.449219 16.367188 42.886719 38.914063 51.09375 22.546875 8.203125 46.835937 1.910157 62.652344-14.125zm0 0"/></g><path d="m215.257812 157.441406-34.84375-130.046875c-5.277343-19.683593-25.582031-31.40625-45.261718-26.132812l-107.25 28.738281c-9.53125 2.554688-17.5 8.667969-22.4375 17.21875-4.933594 8.546875-6.246094 18.507812-3.691406 28.042969l13.21875 49.335937c1.074218 4.003906 5.1875 6.375 9.1875 5.304688 4-1.070313 6.375-5.183594 5.304687-9.183594l-13.21875-49.34375c-3.132813-11.691406 3.828125-23.753906 15.523437-26.886719l107.246094-28.734375c11.691406-3.136718 23.753906 3.828125 26.890625 15.523438l34.84375 130.046875c3.132813 11.691406-3.832031 23.753906-15.523437 26.886719l-38.492188 10.3125c-.007812.003906-.011718.003906-.019531.003906l-21.199219 5.679687-47.535156 12.738281c-11.691406 3.136719-23.757812-3.828124-26.890625-15.523437l-13.574219-50.671875c-1.074218-4-5.1875-6.371094-9.1875-5.300781-4 1.070312-6.375 5.183593-5.304687 9.183593l13.578125 50.675782c4.417968 16.488281 19.386718 27.390625 35.703125 27.390625 3.15625 0 6.367187-.40625 9.554687-1.261719l31.265625-8.375 49.492188 184.695312c1.351562 5.042969 6.558593 8.074219 11.636719 6.71875l26.359374-7.0625c5.058594-1.355468 8.074219-6.578124 6.71875-11.640624l-49.488281-184.695313 31.265625-8.375c19.679688-5.277344 31.402344-25.582031 26.128906-45.261719zm-23.820312 236.90625-15.738281 4.214844-48.066407-179.386719 15.738282-4.214843zm0 0"/><path d="m72.566406 72.722656c-3.589844-2.074218-8.175781-.839844-10.246094 2.746094l-4.078124 7.058594-7.058594-4.074219c-3.589844-2.074219-8.175782-.84375-10.246094 2.742187-2.070312 3.589844-.84375 8.175782 2.746094 10.246094l7.058594 4.078125-4.074219 7.058594c-2.074219 3.589844-.84375 8.175781 2.742187 10.246094 1.183594.683593 2.472656 1.007812 3.746094 1.007812 2.589844 0 5.109375-1.347656 6.5-3.75l4.078125-7.0625 7.058594 4.078125c1.183593.679688 2.472656 1.003906 3.746093 1.003906 2.589844 0 5.113282-1.34375 6.5-3.75 2.070313-3.585937.84375-8.175781-2.746093-10.246093l-7.058594-4.078125 4.074219-7.058594c2.074218-3.585938.84375-8.175781-2.742188-10.246094zm0 0"/><path d="m149.464844 52.117188c-3.585938-2.070313-8.171875-.839844-10.242188 2.746093l-4.078125 7.058594-7.0625-4.074219c-3.585937-2.074218-8.171875-.84375-10.246093 2.746094-2.070313 3.585938-.839844 8.171875 2.746093 10.242188l7.0625 4.078124-4.078125 7.0625c-2.070312 3.585938-.839844 8.171876 2.746094 10.242188 1.179688.683594 2.46875 1.007812 3.742188 1.007812 2.59375 0 5.113281-1.347656 6.503906-3.75l4.074218-7.0625 7.0625 4.078126c1.179688.679687 2.46875 1.003906 3.742188 1.003906 2.59375 0 5.113281-1.34375 6.503906-3.75 2.070313-3.585938.839844-8.175782-2.746094-10.246094l-7.0625-4.074219 4.078126-7.0625c2.070312-3.585937.84375-8.175781-2.746094-10.246093zm0 0"/><path d="m107.4375 112.300781c-7.324219 1.957031-12.84375 7.085938-15.140625 14.066407-2.296875 6.976562-1.085937 15.175781 2.996094 20.558593 2.503906 3.914063 3.664062 8.246094 3.453125 12.882813-.84375 6.707031 2.207031 14.410156 7.683594 19.304687 3.980468 3.554688 8.941406 5.414063 14.160156 5.414063 1.972656 0 3.980468-.265625 5.984375-.804688 7.320312-1.957031 12.832031-7.082031 15.128906-14.0625 2.296875-6.976562 1.089844-15.171875-2.996094-20.558594-2.503906-3.914062-3.664062-8.246093-3.453125-12.882812.847656-6.707031-2.207031-14.410156-7.683594-19.300781-5.480468-4.898438-12.820312-6.578125-20.132812-4.617188zm12.929688 22.09375c-.035157.230469-.058594.460938-.070313.695313-.460937 8 1.625 15.773437 6.019531 22.472656.128906.195312.265625.386719.410156.566406 1.015626 1.273438 1.582032 4.25.730469 6.84375-.726562 2.207032-2.285156 3.605469-4.765625 4.265625-.003906 0-.003906 0-.007812.003907-2.480469.664062-4.527344.234374-6.261719-1.3125-2.035156-1.820313-3.03125-4.683594-2.789063-6.292969.035157-.230469.0625-.460938.074219-.695313.457031-8-1.625-15.773437-6.019531-22.472656-.128906-.195312-.265625-.382812-.410156-.566406-1.019532-1.273438-1.585938-4.25-.730469-6.84375.726563-2.207032 2.28125-3.601563 4.773437-4.265625.75-.203125 1.460938-.304688 2.136719-.304688 1.550781 0 2.914063.535157 4.121094 1.613281 2.035156 1.820313 3.035156 4.683594 2.789063 6.292969zm0 0"/><path d="m451.835938 160.28125c-4.171876-8.949219-11.578126-15.734375-20.851563-19.109375l-27.394531-9.96875c-.074219-.03125-.148438-.058594-.21875-.085937l-42.925782-15.617188-33.796874-12.304688c-19.148438-6.96875-40.398438 2.9375-47.367188 22.085938l-15.984375 43.921875c-1.417969 3.894531.589844 8.199219 4.484375 9.613281 3.890625 1.414063 8.195312-.589844 9.613281-4.480468l15.984375-43.921876c4.140625-11.375 16.765625-17.261718 28.140625-13.121093l11.175781 4.066406c-4.484374 4.992187-8.402343 11.757813-11.152343 19.3125l-1.191407 3.285156c-1.414062 3.894531.597657 8.195313 4.492188 9.609375 3.894531 1.410156 8.195312-.601562 9.605469-4.492187l1.191406-3.277344c4.585937-12.597656 11.589844-18.269531 13.617187-18.40625l6.628907 2.410156 42.226562 15.371094c1.464844 1.421875 3.179688 10.265625-1.40625 22.863281l-1.191406 3.285156c-1.414063 3.890626.601563 8.195313 4.492187 9.605469.84375.308594 1.707032.453125 2.558594.453125 3.066406 0 5.945313-1.894531 7.050782-4.945312l1.1875-3.273438c2.882812-7.917968 4.148437-15.457031 3.910156-21.945312l11.136718 4.050781c5.511719 2.003906 9.914063 6.039063 12.390626 11.351563 2.476562 5.316406 2.738281 11.277343.730468 16.789062l-46.046875 126.511719c-4.136719 11.375-16.761719 17.261719-28.136719 13.125l-11.175781-4.070313c1.539063-1.714844 3.035157-3.660156 4.460938-5.832031 2.277343-3.460937 1.316406-8.113281-2.144531-10.386719-3.460938-2.277344-8.113282-1.316406-10.390626 2.144532-4.199218 6.394531-7.675781 7.945312-8.492187 8.042968l-9.714844-3.53125c-.003906-.003906-.003906-.003906-.007812-.003906l-15.695313-5.714844-23.429687-8.53125c-.5625-.582031-2.234375-4-1.34375-11.617187.480469-4.113281-2.460938-7.839844-6.578125-8.324219-4.121094-.484375-7.839844 2.464844-8.320313 6.578125-.300781 2.582031-.410156 5.03125-.335937 7.335937l-11.167969-4.066406c-5.511719-2.003906-9.910156-6.039062-12.390625-11.351562-2.476562-5.316406-2.738281-11.277344-.730469-16.789063l19.785157-54.363281c1.417968-3.894531-.589844-8.195312-4.480469-9.613281-3.894531-1.417969-8.195313.589843-9.613281 4.480469l-19.789063 54.367187c-3.375 9.273437-2.9375 19.308594 1.234375 28.253906 4.171875 8.949219 11.578125 15.734375 20.855469 19.109375l30.414062 11.070313-65.398437 179.683593c-1.789063 4.921876.757812 10.386719 5.679687 12.175782 26.476563 9.433594 25.949219 9.90625 28.882813 9.90625 3.882812 0 7.539062-2.398438 8.941406-6.25l30.957031-85.0625c1.417969-3.890625-.589843-8.195313-4.480469-9.613282-3.894531-1.414062-8.199218.589844-9.613281 4.484376l-29.078125 79.894531-15.3125-5.574219 63.515625-174.515625 7.957031 2.894531 7.355469 2.679688-24.179687 66.4375c-1.417969 3.890625.589844 8.195312 4.480468 9.613281 3.890626 1.414063 8.199219-.589844 9.613282-4.484375l24.179687-66.433594 2.808594 1.023438c.09375.035156.191406.066406.285156.101562l27.324219 9.945313c4.160156 1.511719 8.414062 2.230469 12.601562 2.230469 15.101563-.003907 29.308594-9.328126 34.765626-24.320313l46.046874-126.511719c3.375-9.273437 2.9375-19.3125-1.234374-28.253906zm0 0"/><path d="m290.960938 208.675781 25.578124 9.3125c1.578126.574219 3.199219.855469 4.808594.855469 3.164063 0 6.269532-1.097656 8.820313-3.203125 3.847656-3.175781 5.671875-8.011719 4.882812-12.9375l-4.421875-27.640625c-.800781-4.988281-4.242187-9.15625-8.988281-10.882812-4.746094-1.726563-10.0625-.746094-13.878906 2.558593l-21.15625 18.332031c-3.769531 3.265626-5.480469 8.144532-4.574219 13.050782.902344 4.902344 4.242188 8.851562 8.929688 10.554687zm25.160156-29.332031 3.828125 23.925781-22.140625-8.0625zm0 0"/><path d="m364.941406 235.605469 25.578125 9.308593c1.578125.574219 3.199219.855469 4.808594.855469 3.167969 0 6.269531-1.09375 8.820313-3.203125 3.847656-3.175781 5.671874-8.011718 4.882812-12.9375l-4.425781-27.640625c-.796875-4.984375-4.238281-9.15625-8.984375-10.882812-4.746094-1.726563-10.0625-.746094-13.882813 2.5625l-21.152343 18.328125c-3.773438 3.269531-5.480469 8.144531-4.578126 13.050781.90625 4.90625 4.246094 8.851563 8.933594 10.558594zm25.160156-29.335938 3.828126 23.925781-22.140626-8.0625zm0 0"/><path d="m274.960938 231.054688c-2.03125 1.546874-3.132813 4.023437-2.929688 6.570312 2.097656 26.023438 19.300781 48.609375 43.828125 57.535156 7.425781 2.703125 15.140625 4.015625 22.800781 4.015625 17.636719 0 34.972656-6.960937 47.753906-19.917969 1.792969-1.820312 2.539063-4.425781 1.976563-6.917968-.558594-2.488282-2.351563-4.523438-4.75-5.398438l-49.78125-18.117187c-3.886719-1.417969-8.195313.589843-9.613281 4.480469l-1.269532 3.484374-5.0625-1.839843 1.269532-3.484375c1.417968-3.894532-.589844-8.199219-4.480469-9.613282l-32.628906-11.875c-2.402344-.875-5.078125-.46875-7.113281 1.078126zm27.5625 22.324218-1.269532 3.488282c-1.417968 3.890624.589844 8.195312 4.484375 9.613281l19.15625 6.972656c3.890625 1.414063 8.195313-.589844 9.613281-4.484375l1.269532-3.484375 30.199218 10.992187c-13.324218 8.179688-29.925781 10.074219-44.988281 4.589844s-26.566406-17.605468-31.511719-32.433594zm0 0"/></svg>