<svg height="511pt" viewBox="0 -2 511.99747 511" width="511pt" xmlns="http://www.w3.org/2000/svg"><path d="m498.15625 217.433594c-7.550781-24.121094-25.253906-50.765625-48.308594-57.449219-4.101562-1.191406-7.730468 2.984375-6.09375 6.929687 2.128906 5.144532 2.308594 10.671876 1.304688 15.019532-2.402344 10.429687-10.636719 18.375-20.355469 22.378906-7.875 3.242188-35.03125 3.320312-49.894531-1.671875-12.34375-4.148437 11.109375 50.882813 11.109375 50.882813 21.488281-11.574219 48.492187-12.277344 70.558593-1.84375 18.863282 8.921874 34.753907 24.320312 41.894532 43.570312.789062 2.125 3.921875 1.699219 4.175781-.554688 2.902344-25.957031 3.375-52.453124-4.390625-77.261718zm0 0" fill="#6e7093"/><path d="m429.082031 202.179688c-1.414062.800781-2.878906 1.511718-4.378906 2.128906-7.875 3.246094-35.03125 3.324218-49.894531-1.671875-.390625-.128907-.742188-.199219-1.0625-.21875v17.625c4.203125 14.78125 12.171875 33.480469 12.171875 33.480469 13.128906-7.070313 28.308593-10.082032 43.167969-8.980469v-42.363281zm0 0" fill="#4e5173"/><path d="m13.839844 217.433594c7.550781-24.121094 25.253906-50.765625 48.308594-57.449219 4.101562-1.191406 7.730468 2.984375 6.09375 6.929687-2.128907 5.144532-2.308594 10.671876-1.304688 15.019532 2.402344 10.429687 10.636719 18.375 20.355469 22.378906 7.875 3.242188 35.03125 3.320312 49.894531-1.671875 12.34375-4.148437-11.109375 50.882813-11.109375 50.882813-21.488281-11.574219-48.492187-12.277344-70.558594-1.84375-18.863281 8.921874-34.753906 24.320312-41.898437 43.570312-.785156 2.125-3.917969 1.699219-4.171875-.554688-2.902344-25.957031-3.375-52.453124 4.390625-77.261718zm0 0" fill="#6e7093"/><path d="m105.414062 148.058594v199.644531h301.171876v-199.644531c0-21.730469-17.617188-39.347656-39.347657-39.347656h-222.476562c-21.734375 0-39.347657 17.617187-39.347657 39.347656zm0 0" fill="#bfea92"/><path d="m367.234375 108.710938h-23.285156c21.730469 0 39.347656 17.617187 39.347656 39.347656v199.644531h23.285156v-199.644531c.003907-21.730469-17.613281-39.347656-39.347656-39.347656zm0 0" fill="#9bc66a"/><path d="m376.796875 60.550781c0 29.023438-23.527344 52.550781-52.550781 52.550781-29.023438 0-52.550782-23.527343-52.550782-52.550781 0-29.023437 23.527344-52.550781 52.550782-52.550781 29.023437 0 52.550781 23.527344 52.550781 52.550781zm0 0" fill="#e6eff5"/><path d="m240.300781 60.550781c0 29.023438-23.527343 52.550781-52.550781 52.550781s-52.550781-23.527343-52.550781-52.550781c0-29.023437 23.527343-52.550781 52.550781-52.550781s52.550781 23.527344 52.550781 52.550781zm0 0" fill="#e6eff5"/><path d="m354.738281 47.542969c0 9.363281-7.59375 16.957031-16.960937 16.957031-9.363282 0-16.957032-7.59375-16.957032-16.957031 0-9.367188 7.59375-16.960938 16.957032-16.960938 9.367187 0 16.960937 7.59375 16.960937 16.960938zm0 0" fill="#80b9f9"/><path d="m187.917969 68.011719c0 9.367187-7.59375 16.957031-16.960938 16.957031-9.363281 0-16.957031-7.589844-16.957031-16.957031 0-9.367188 7.59375-16.957031 16.957031-16.957031 9.367188 0 16.960938 7.589843 16.960938 16.957031zm0 0" fill="#80b9f9"/><path d="m255.996094 262.464844c-47.136719 0-85.351563-38.214844-85.351563-85.351563v-3.46875c0-11.511719 9.332031-20.84375 20.84375-20.84375h129.015625c11.511719 0 20.84375 9.332031 20.84375 20.84375v3.46875c.003906 47.136719-38.210937 85.351563-85.351562 85.351563zm0 0" fill="#ed6161"/><path d="m231.605469 190.601562-15.289063-37.800781h41.375l-15.289062 37.800781c-1.960938 4.851563-8.832032 4.851563-10.796875 0zm0 0" fill="#e6eff5"/><path d="m308.789062 244.183594-9.578124-36.738282c-1.648438-6.308593-10.601563-6.308593-12.246094 0l-13.902344 53.3125c13.289062-2.695312 25.460938-8.480468 35.726562-16.574218zm0 0" fill="#e6eff5"/><path d="m452.363281 380.585938v85.558593h-392.730469v-85.558593c0-18.15625 14.730469-32.886719 32.886719-32.886719h326.953125c18.160156 0 32.890625 14.730469 32.890625 32.886719zm0 0" fill="#f8cc7c"/><path d="m452.363281 380.585938v85.558593h-22.277343v-85.558593c0-18.15625-14.722657-32.886719-32.890626-32.886719h22.28125c18.15625 0 32.886719 14.730469 32.886719 32.886719zm0 0" fill="#d3a159"/><path d="m236.398438 405.226562-16.875 29.070313c-7.285157 12.5625-23.390626 16.835937-35.953126 9.535156-12.5625-7.285156-16.835937-23.386719-9.550781-35.949219l7.109375-12.25c10.460938-4.585937 20.621094-11.136718 31.203125-7.949218 9.578125 2.875 15.34375 12.886718 24.066407 17.542968zm0 0" fill="#ed6161"/><path d="m367.515625 347.703125c1.304687-4.289063 2.003906-8.839844 2.003906-13.554687 0-25.730469-20.855469-46.589844-46.585937-46.589844-25.730469 0-46.589844 20.859375-46.589844 46.589844 0 4.714843.703125 9.265624 2.003906 13.554687zm0 0" fill="#e6eff5"/><path d="m347.027344 347.703125c.589844-1.949219.910156-4.015625.910156-6.15625 0-11.679687-9.472656-21.148437-21.152344-21.148437-11.683594 0-21.152344 9.46875-21.152344 21.148437 0 2.144531.316407 4.207031.910157 6.15625zm0 0" fill="#4e5173"/><path d="m233.648438 347.703125c1.300781-4.289063 2.003906-8.839844 2.003906-13.554687 0-25.730469-20.855469-46.589844-46.585938-46.589844-25.730468 0-46.589844 20.859375-46.589844 46.589844 0 4.714843.703126 9.265624 2.003907 13.554687zm0 0" fill="#e6eff5"/><path d="m213.15625 347.703125c.59375-1.949219.910156-4.015625.910156-6.15625 0-11.679687-9.46875-21.148437-21.148437-21.148437-11.683594 0-21.152344 9.46875-21.152344 21.148437 0 2.144531.316406 4.207031.910156 6.15625zm0 0" fill="#4e5173"/><path d="m26.003906 471.109375v3.484375c0 14.113281 11.4375 25.550781 25.550782 25.550781h408.886718c14.113282 0 25.550782-11.4375 25.550782-25.550781v-3.484375c0-2.742187-2.222657-4.964844-4.964844-4.964844h-450.058594c-2.742188 0-4.964844 2.222657-4.964844 4.964844zm0 0" fill="#e6eff5"/><path d="m481.027344 466.144531h-26.996094c2.738281 0 4.960938 2.222657 4.960938 4.964844v3.484375c0 14.113281-11.4375 25.550781-25.546876 25.550781h26.996094c14.113282 0 25.550782-11.4375 25.550782-25.550781v-3.484375c0-2.742187-2.222657-4.964844-4.964844-4.964844zm0 0" fill="#c5d3d6"/><path d="m505.3125 215.203125c-1-3.21875-2.183594-6.496094-3.507812-9.734375-1.574219-3.832031-5.953126-5.664062-9.785157-4.097656-3.832031 1.574218-5.667969 5.953125-4.097656 9.785156 1.164063 2.839844 2.195313 5.699219 3.074219 8.515625 5.035156 16.074219 6.859375 33.855469 5.632812 56.160156-8.835937-12.863281-21.65625-23.703125-36.945312-30.929687-13.980469-6.617188-29.882813-9.238282-45.597656-7.617188v-23.503906c4.707031-.347656 9.914062-1.066406 13.480468-2.535156 12.75-5.261719 22.023438-15.589844 24.808594-27.632813 1.089844-4.742187 1.015625-9.929687-.148438-14.796875 7.449219 3.269532 14.746094 9.253906 21.339844 17.535156 2.578125 3.242188 7.296875 3.777344 10.539063 1.199219 3.238281-2.578125 3.777343-7.296875 1.199219-10.539062-9.855469-12.378907-21.394532-20.757813-33.367188-24.230469-4.664062-1.351562-9.574219.058594-12.828125 3.683594-3.285156 3.664062-4.160156 8.765625-2.28125 13.320312 1.34375 3.242188 1.691406 7.15625.929687 10.460938-1.691406 7.316406-7.640624 13.71875-15.90625 17.132812-1.191406.488282-3.902343 1.015625-7.765624 1.355469v-50.679687c0-25.445313-20.398438-46.214844-45.703126-46.824219 9.875-10.707031 15.914063-25 15.914063-40.679688 0-33.113281-26.9375-60.050781-60.050781-60.050781-33.113282 0-60.050782 26.9375-60.050782 60.050781 0 15.671875 6.035157 29.960938 15.902344 40.664063h-48.195312c9.867187-10.703125 15.902344-24.992188 15.902344-40.664063 0-33.113281-26.941407-60.050781-60.050782-60.050781-33.113281 0-60.050781 26.9375-60.050781 60.050781 0 15.679688 6.039063 29.972657 15.914063 40.679688-25.304688.609375-45.703126 21.378906-45.703126 46.824219v50.679687c-3.863281-.339844-6.574218-.867187-7.761718-1.355469-8.273438-3.414062-14.222656-9.816406-15.910156-17.125-.761719-3.3125-.414063-7.226562.933593-10.480468 1.875-4.542969 1-9.644532-2.285156-13.308594-3.253906-3.625-8.167969-5.035156-12.828125-3.683594-12.148438 3.523438-23.832031 12.085938-33.777344 24.757812-8.378906 10.671876-15.339844 24.042969-19.597656 37.652344-6.972656 22.265625-8.417969 47.046875-4.683594 80.335938.496094 4.472656 3.964844 7.980468 8.433594 8.535156.40625.046875.808594.070312 1.207031.070312 3.984375 0 7.585938-2.449218 9.011719-6.273437 6.117188-16.492187 19.996094-30.851563 38.078125-39.398437 11.964844-5.664063 25.675781-7.765626 39.179687-6.082032v12.144532c0 4.140624 3.355469 7.5 7.5 7.5 4.140626 0 7.5-3.359376 7.5-7.5v-18.386719c0-.082031 0-.167969 0-.25v-97.832031c0-17.558594 14.285157-31.839844 31.847657-31.839844h20.460937c6.960938 2.828125 14.566406 4.386718 22.53125 4.386718s15.570313-1.558593 22.53125-4.386718h91.429688c6.960937 2.828125 14.566406 4.386718 22.53125 4.386718s15.570312-1.558593 22.53125-4.386718h20.460937c17.5625 0 31.847657 14.28125 31.847657 31.839844v97.832031.25 94.0625h-22.398438c.222656-2.003907.335938-4.023438.335938-6.050781 0-29.828126-24.265626-54.089844-54.089844-54.089844-29.824219 0-54.085938 24.265625-54.085938 54.089844 0 2.027343.113282 4.046874.335938 6.050781h-26.367188c.226563-2.003907.335938-4.023438.335938-6.050781 0-29.828126-24.261719-54.089844-54.085938-54.089844-29.824218 0-54.089844 24.265625-54.089844 54.089844 0 2.027343.113282 4.046874.335938 6.050781h-22.398438v-45.675781c0-4.144532-3.359374-7.5-7.5-7.5-4.140624 0-7.5 3.355468-7.5 7.5v45.675781h-5.390624c-22.269532 0-40.390626 18.117187-40.390626 40.386719v78.058593h-21.164062c-6.875 0-12.464844 5.589844-12.464844 12.464844v3.484375c0 18.222656 14.824219 33.050781 33.050782 33.050781h408.886718c18.226563 0 33.050782-14.828125 33.050782-33.050781v-3.484375c0-6.871094-5.589844-12.464844-12.464844-12.464844h-21.164063v-78.058593c0-22.269532-18.121093-40.386719-40.390625-40.386719h-5.390625v-87.820313c13.503907-1.683594 27.21875.417969 39.183594 6.082032 18.082031 8.546874 31.957031 22.90625 38.078125 39.410156 1.421875 3.8125 5.023438 6.261718 9.007812 6.261718.398438 0 .800782-.023437 1.207032-.074218 4.46875-.550782 7.9375-4.058594 8.433594-8.523438 3.738281-33.296875 2.289062-58.078125-4.679688-80.332031zm-452.996094 29.699219c-15.292968 7.226562-28.117187 18.066406-36.949218 30.925781-1.226563-22.296875.601562-40.082031 5.632812-56.15625 8.558594-27.335937 24.878906-44.558594 38.761719-50.816406-1.15625 4.859375-1.226563 10.03125-.136719 14.765625 2.78125 12.035156 12.054688 22.363281 24.808594 27.625 3.566406 1.46875 8.769531 2.191406 13.476562 2.535156v23.503906c-15.714844-1.621094-31.617187 1-45.59375 7.617188zm90.382813-184.351563c0-24.84375 20.210937-45.054687 45.050781-45.054687 24.84375 0 45.054688 20.210937 45.054688 45.054687 0 24.839844-20.210938 45.050781-45.054688 45.050781-24.839844 0-45.050781-20.210937-45.050781-45.050781zm136.492187 0c0-24.84375 20.210938-45.054687 45.054688-45.054687 24.839844 0 45.050781 20.210937 45.050781 45.054687 0 24.839844-20.210937 45.050781-45.050781 45.050781-24.84375 0-45.054688-20.210937-45.054688-45.050781zm4.652344 273.597657c0-21.554688 17.535156-39.089844 39.089844-39.089844 21.554687 0 39.089844 17.535156 39.089844 39.089844 0 2.035156-.15625 4.054687-.464844 6.050781h-6.152344c-.707031-15.175781-13.273438-27.304688-28.621094-27.304688-15.34375 0-27.910156 12.128907-28.617187 27.304688h-13.859375c-.308594-1.996094-.464844-4.015625-.464844-6.050781zm29.355469 6.050781c.679687-6.898438 6.515625-12.300781 13.585937-12.300781 7.070313 0 12.90625 5.402343 13.585938 12.300781zm-163.222657-6.050781c0-21.554688 17.535157-39.089844 39.085938-39.089844 21.554688 0 39.089844 17.535156 39.089844 39.089844 0 2.035156-.15625 4.054687-.464844 6.050781h-6.152344c-.707031-15.175781-13.273437-27.304688-28.617187-27.304688-15.347657 0-27.914063 12.128907-28.621094 27.304688h-13.855469c-.308594-1.996094-.464844-4.015625-.464844-6.050781zm29.355469 6.050781c.679688-6.898438 6.511719-12.300781 13.585938-12.300781 7.070312 0 12.90625 5.402343 13.585937 12.300781zm299.160157 134.394531c0 9.953125-8.097657 18.050781-18.050782 18.050781h-408.886718c-9.953126 0-18.050782-8.097656-18.050782-18.050781v-.949219h444.988282zm-33.628907-94.007812v78.058593h-377.730469v-78.058593c0-14 11.390626-25.386719 25.390626-25.386719h12.644531c.082031 0 .164062.003906.246093.003906.082032 0 .164063-.003906.242188-.003906h38.578125c.082031 0 .164063.003906.246094.003906h89.167969c.082031 0 .167968-.003906.25-.003906h44.203124c.082032 0 .164063.003906.246094.003906h89.171875c.082031 0 .164063-.003906.246094-.003906h38.703125.117188.113281 12.777343c13.996094 0 25.386719 11.386719 25.386719 25.386719zm0 0"/><path d="m337.777344 23.082031c-13.484375 0-24.457032 10.972657-24.457032 24.460938 0 13.484375 10.972657 24.457031 24.457032 24.457031 13.488281 0 24.460937-10.972656 24.460937-24.457031 0-13.488281-10.972656-24.460938-24.460937-24.460938zm0 33.917969c-5.214844 0-9.457032-4.242188-9.457032-9.457031 0-5.214844 4.242188-9.460938 9.457032-9.460938s9.460937 4.246094 9.460937 9.460938c0 5.214843-4.246093 9.457031-9.460937 9.457031zm0 0"/><path d="m170.957031 43.554688c-13.484375 0-24.457031 10.96875-24.457031 24.457031 0 13.484375 10.972656 24.457031 24.457031 24.457031s24.457031-10.972656 24.457031-24.457031c0-13.488281-10.972656-24.457031-24.457031-24.457031zm0 33.914062c-5.214843 0-9.457031-4.242188-9.457031-9.457031 0-5.214844 4.242188-9.457031 9.457031-9.457031 5.214844 0 9.457031 4.242187 9.457031 9.457031 0 5.214843-4.242187 9.457031-9.457031 9.457031zm0 0"/><path d="m255.996094 269.964844c6.246094 0 12.347656-.621094 18.25-1.800782.101562-.015624.203125-.035156.308594-.054687 14.09375-2.863281 27.539062-9.097656 38.875-18.035156.21875-.171875.421874-.351563.617187-.542969 21.207031-17.03125 34.800781-43.167969 34.800781-72.417969v-3.46875c0-15.628906-12.714844-28.34375-28.34375-28.34375h-129.015625c-15.628906 0-28.34375 12.714844-28.34375 28.34375v3.46875c0 51.199219 41.65625 92.851563 92.851563 92.851563zm27.648437-20.070313 9.441407-36.203125 7.15625 27.445313c-5.121094 3.550781-10.6875 6.503906-16.597657 8.757812zm-37.074219-89.59375-9.5625 23.644531-9.566406-23.644531zm-68.425781 13.34375c0-7.359375 5.988281-13.34375 13.34375-13.34375h19.773438l13.394531 33.113281c2.042969 5.058594 6.894531 8.324219 12.347656 8.324219 5.457032 0 10.304688-3.265625 12.351563-8.324219l13.394531-33.113281h57.757812c7.355469 0 13.34375 5.984375 13.34375 13.34375v3.46875c0 20.496094-7.964843 39.167969-20.957031 53.085938l-6.429687-24.648438c-1.613282-6.183593-6.988282-10.335937-13.378906-10.335937-6.390626 0-11.765626 4.15625-13.378907 10.335937l-12.683593 48.636719c-3.601563.511719-7.285157.777344-11.027344.777344-42.925782 0-77.851563-34.925782-77.851563-77.851563zm0 0"/><path d="m380.8125 377.457031c-.175781-.125-.359375-.246093-.546875-.355469-4.769531-3.097656-9.902344-5.636718-15.277344-7.53125-3.90625-1.375-8.191406.671876-9.566406 4.578126-1.378906 3.90625.671875 8.1875 4.578125 9.566406 2.214844.78125 4.378906 1.699218 6.476562 2.746094-8.265624 12.621093-24.992187 20.039062-39.523437 16.65625-4.710937-1.101563-9.402344-3.164063-14.367187-5.339844-8.441407-3.703125-17.144532-7.535156-27.289063-7.269532-7.859375.207032-15.027344 2.871094-21.960937 5.449219-18.132813 6.734375-21.125 5.945313-32-4.222656-3.5625-3.335937-7.496094-7.015625-12.445313-9.484375-.082031-.039062-.164063-.082031-.246094-.121094-1.308593-.636718-2.6875-1.1875-4.148437-1.628906-.089844-.023438-.179688-.050781-.269532-.078125-2.597656-.753906-5.144531-1.082031-7.632812-1.085937-13.375-.023438-24.769531 9.09375-35.296875 11.953124-8.0625 2.207032-17.222656.296876-24.324219-4.589843.550782-.144531 1.105469-.277344 1.664063-.386719 4.058593-.8125 6.695312-4.761719 5.882812-8.824219-.808593-4.0625-4.761719-6.695312-8.824219-5.886719-5.511718 1.101563-10.8125 3.332032-15.542968 6.441407-.203125.121093-.402344.253906-.597656.398437-.015626.011719-.027344.019532-.042969.03125-5.089844 3.472656-9.480469 7.96875-12.703125 13.171875-2.183594 3.519531-1.097656 8.144531 2.421875 10.324219 1.230469.765625 2.59375 1.128906 3.945312 1.128906 2.507813 0 4.960938-1.261718 6.378907-3.550781 1.046874-1.6875 2.28125-3.265625 3.664062-4.707031 8.824219 8.277344 20.871094 12.789062 32.742188 12.335937-7.054688 15.601563-1.269532 34.375 13.84375 43.140625 5.226562 3.039063 11.035156 4.589844 16.921874 4.589844 2.910157 0 5.835938-.378906 8.722657-1.148438 8.730469-2.3125 16.03125-7.890624 20.5625-15.699218l13.703125-23.605469c10.25 2.46875 20.078125-1.179687 28.84375-4.4375 6.050781-2.25 11.765625-4.371094 17.132812-4.515625 11.671875-.335938 23.515625 8.863281 37.855469 12.222656 20.664063 4.808594 43.652344-5.164062 55.359375-22.867187 1.527344 1.355469 2.984375 2.789062 4.359375 4.304687 1.480469 1.628906 3.511719 2.457032 5.554687 2.457032 1.796876 0 3.605469-.644532 5.039063-1.953126 3.066406-2.785156 3.292969-7.527343.507813-10.59375-4.019532-4.417968-8.585938-8.320312-13.554688-11.613281zm-167.777344 53.078125c-2.519531 4.339844-6.578125 7.441406-11.433594 8.730469-4.851562 1.289063-9.917968.605469-14.265624-1.917969-8.96875-5.203125-12.027344-16.730468-6.828126-25.699218l5.898438-10.167969c.191406-.085938.382812-.175781.570312-.265625.027344-.011719.054688-.023438.078126-.035156.929687-.433594 1.851562-.867188 2.753906-1.296876 4.953125-2.34375 9.472656-4.484374 13.652344-5.246093l-10.164063 17.511719c-2.078125 3.582031-.859375 8.171874 2.722656 10.253906 1.183594.6875 2.476563 1.011718 3.757813 1.011718 2.585937 0 5.101562-1.335937 6.492187-3.734374l11.585938-19.957032c1.066406.9375 2.140625 1.941406 3.234375 2.964844 1.746094 1.628906 3.488281 3.257812 5.339844 4.773438zm0 0"/></svg>