<svg height="511pt" viewBox="-93 0 511 511.99823" width="511pt" xmlns="http://www.w3.org/2000/svg"><path d="m142.28125 115.648438v186.449218h87.058594v-186.449218c0-6.316407-5.117188-11.4375-11.433594-11.4375h-64.191406c-6.316406 0-11.433594 5.121093-11.433594 11.4375zm0 0" fill="#80b9f9"/><path d="m217.90625 104.210938h-20.835938c6.316407 0 11.433594 5.121093 11.433594 11.4375v186.449218h20.835938v-186.449218c0-6.316407-5.117188-11.4375-11.433594-11.4375zm0 0" fill="#3185db"/><path d="m199.546875 192.109375c-76.886719-13.558594-149.359375 32.988281-161.875 103.964844l-29.210937 165.664062 133.828124 23.597657 5.617188-31.867188c.519531-2.9375 3.328125-4.863281 6.265625-4.34375.015625.003906.035156.003906.054687.007812 76.882813 13.558594 149.359376-32.988281 161.875-103.964843 12.511719-70.972657-39.667968-139.5-116.554687-153.058594zm0 0" fill="#e6eff5"/><path d="m212.925781 195.082031c56.472657 25.277344 91.121094 82.828125 80.671875 142.085938-12.515625 70.976562-84.988281 117.523437-161.875 103.964843-.015625-.003906-.035156-.003906-.054687-.007812-2.933594-.519531-5.742188 1.40625-6.261719 4.34375l-5.617188 31.867188-110.640624-19.507813-.691407 3.910156 133.832031 23.597657 5.617188-31.867188c.519531-2.9375 3.328125-4.863281 6.261719-4.34375.019531.003906.039062.003906.054687.007812 76.886719 13.558594 149.359375-32.988281 161.875-103.964843 11.777344-66.773438-33.71875-131.382813-103.171875-150.085938zm0 0" fill="#c5d3d6"/><path d="m36.675781 432.152344c-12.320312-2.171875-24.066406 6.054687-26.238281 18.371094l-2.058594 11.671874c-2.171875 12.320313 6.054688 24.066407 18.371094 26.238282 12.320312 2.171875 24.066406-6.054688 26.238281-18.371094l2.058594-11.671875c2.171875-12.316406-6.054687-24.066406-18.371094-26.238281zm0 0" fill="#fdeaaf"/><path d="m81.285156 440.019531c-12.320312-2.171875-24.066406 6.050781-26.238281 18.371094l-2.058594 11.671875c-2.171875 12.316406 6.050781 24.066406 18.371094 26.238281s24.066406-6.054687 26.238281-18.375l2.058594-11.667969c2.171875-12.320312-6.054688-24.066406-18.371094-26.238281zm0 0" fill="#f8cc7c"/><path d="m125.894531 447.882812c-12.320312-2.171874-24.066406 6.054688-26.238281 18.375l-2.058594 11.667969c-2.171875 12.320313 6.054688 24.066407 18.371094 26.238281 12.320312 2.171876 24.066406-6.050781 26.238281-18.371093l2.058594-11.671875c2.171875-12.316406-6.054687-24.066406-18.371094-26.238282zm0 0" fill="#fdeaaf"/><g fill="#4e5173"><path d="m172.679688 302.613281c-24.097657-4.25-47.074219 11.84375-51.324219 35.941407-4.246094 24.097656 11.84375 47.078124 35.941406 51.324218 24.097656 4.25 47.078125-11.84375 51.328125-35.941406 4.246094-24.097656-11.84375-47.078125-35.945312-51.324219zm0 0"/><path d="m61.503906 328.011719c3.507813-19.882813-5.207031-38.71875-20.242187-46.792969-1.492188 4.816406-2.695313 9.773438-3.59375 14.855469l-12.183594 69.113281c17.308594-2.003906 32.449219-16.902344 36.019531-37.175781zm0 0"/><path d="m94.40625 389.589844c-2.066406 11.71875-8.875 11.070312-17.15625 9.609375-8.285156-1.460938-14.902344-3.179688-12.835938-14.898438 2.066407-11.71875 11.613282-26.609375 19.898438-25.148437 8.28125 1.457031 12.160156 18.71875 10.09375 30.4375zm0 0"/></g><path d="m201.398438 286.8125c8.609374 0 15.585937-6.980469 15.585937-15.585938v-35.027343c0-8.609375 6.980469-15.589844 15.589844-15.589844s15.585937 6.980469 15.585937 15.589844v18.214843c0 8.609376 6.980469 15.585938 15.585938 15.585938 8.609375 0 15.589844-6.980469 15.589844-15.585938v-28.09375c0-2.996093-1.3125-5.851562-3.597657-7.792968-20.875-17.695313-46.566406-29.730469-74.734375-34.695313-1.160156-.207031-2.324218-.398437-3.488281-.578125-6.160156-.949218-11.707031 3.878906-11.707031 10.113282v77.859374c.003906 8.609376 6.980468 15.585938 15.589844 15.585938zm0 0" fill="#80b9f9"/><path d="m214.699219 55.730469c0 15.953125-12.933594 23.515625-28.890625 23.515625-15.953125 0-28.886719-7.5625-28.886719-23.515625 0-21.207031 14.96875-38.203125 23.355469-46.058594 3.117187-2.917969 7.949218-2.917969 11.0625 0 8.386718 7.855469 23.359375 24.851563 23.359375 46.058594zm0 0" fill="#ffa436"/><path d="m191.339844 9.671875c-3.113282-2.917969-7.945313-2.917969-11.058594 0-.195312.179687-.390625.367187-.59375.558594 5.515625 8.085937 14.804688 24.78125 14.804688 45.5 0 13.851562-6.339844 21.378906-14.804688 23.121093 1.972656.265626 4.023438.394532 6.121094.394532 15.957031 0 28.890625-7.5625 28.890625-23.515625 0-21.207031-14.972657-38.203125-23.359375-46.058594zm0 0" fill="#cc6d0e"/><path d="m286.835938 230.277344c-.289063-1.78125 1.648437-10.777344-6.25-17.472656-2.347657-1.992188-4.789063-3.941407-7.253907-5.792969-3.3125-2.492188-8.011719-1.828125-10.503906 1.484375-2.488281 3.308594-1.824219 8.011718 1.484375 10.503906 6.636719 4.988281 7.523438 5.707031 7.523438 7.320312v28.089844c0 4.460938-3.628907 8.089844-8.089844 8.089844-4.457032 0-8.085938-3.628906-8.085938-8.089844v-18.214844c0-12.730468-10.355468-23.085937-23.085937-23.085937s-23.085938 10.355469-23.085938 23.085937v35.027344c0 4.460938-3.628906 8.089844-8.089843 8.089844-4.457032 0-8.085938-3.628906-8.085938-8.089844.03125-84.476562-.496094-78.699218.960938-79.945312 1.210937-1.035156 2.363281-.601563 5.433593-.0625 9.160157 1.617187 18.09375 4.023437 26.691407 7.191406.21875.089844.441406.171875.667968.246094 4.394532 1.640625 8.699219 3.480468 12.902344 5.511718 3.730469 1.804688 8.214844.242188 10.019531-3.484374 1.800781-3.730469.242188-8.214844-3.488281-10.019532-3.171875-1.53125-6.390625-2.964844-9.664062-4.296875v-70.714843c0-10.445313-8.492188-18.941407-18.929688-18.941407h-24.59375v-10.460937c17.78125-2.46875 28.886719-13.898438 28.886719-30.515625 0-23.867188-16.121094-42.53125-25.730469-51.53125-5.976562-5.597657-15.339844-5.597657-21.316406 0-9.609375 9-25.730469 27.664062-25.730469 51.53125 0 16.617187 11.105469 28.046875 28.886719 30.515625v10.460937h-24.597656c-10.4375 0-18.929688 8.5-18.929688 18.941407v71.339843c-15.277344 3.839844-29.847656 9.976563-43.046875 18.253907-3.507813 2.199218-4.570313 6.828124-2.371094 10.335937 1.425781 2.273437 3.867188 3.519531 6.363281 3.519531 1.359376 0 2.738282-.371094 3.976563-1.148437 22.984375-14.414063 50.644531-21.613281 78.605469-20.582031v73.859374c0 12.730469 10.359375 23.085938 23.089844 23.085938 12.730468 0 23.085937-10.355469 23.085937-23.085938v-35.027343c0-4.460938 3.628906-8.089844 8.085937-8.089844 4.460938 0 8.089844 3.628906 8.089844 8.089844v18.214843c0 12.730469 10.355469 23.085938 23.085938 23.085938 12.730468 0 23.085937-10.355469 23.085937-23.085938v-.859374c19.546875 26.558593 27.472657 58.578124 21.878907 90.316406-10.398438 58.96875-65.183594 100.097656-127.902344 100.097656-8.285156 0-16.714844-.71875-25.191406-2.210938-.054688-.007812-.109376-.019531-.164063-.027343-5.417969-.941407-10.636719 1.636719-13.300781 6.058593-4.15625-3.765624-9.296875-6.292968-14.957032-7.292968-8.882812-1.566406-17.550781.945312-24.089843 6.179687-4.351563-7.152343-11.640625-12.476562-20.519531-14.042969-8.882813-1.566406-17.550782.941407-24.089844 6.179688-4.351563-7.15625-11.640625-12.480469-20.519532-14.046875-5.433593-.957031-10.785156-.386719-15.617187 1.394531l9.617187-54.558594c18.421876-4.675781 33.214844-21.304687 36.914063-42.285156 3.546875-20.109375-4.019531-40.242187-18.652344-51.234375 5.761719-15.785156 14.996094-30.234375 27.257813-42.492187 2.933594-2.925782 2.933594-7.675782.003906-10.605469-2.925781-2.929687-7.675781-2.929687-10.605469-.003906-15.3125 15.304687-26.445312 33.65625-32.710937 53.753906-.03125.089844-.0625.179687-.089844.269531-1.589844 5.140625-2.871094 10.445313-3.8125 15.769532l-12.183594 69.113281c-.019531.101562-.035156.207031-.046875.308593l-14.84375 84.207032c-.058593.269531-.109375.546875-.15625.820312l-2.058593 11.671875c-4.832032 27.386719 26.976562 46 48.53125 28.753907.339843.554687.695312 1.101562 1.074218 1.640624 10.0625 14.371094 30.023438 17.046876 43.546875 6.214844 14.449219 23.75 50.597657 17.039063 55.53125-10.859375l5.253907-29.785156c8.703124 1.421875 17.347656 2.109375 25.867187 2.109375 69.863281-.003906 131.007813-46.257812 142.691406-112.496094 7.371094-41.847656-5.972656-84.023437-36.652343-116.195312zm-122.414063-174.546875c0-18.210938 13.148437-33.242188 20.984375-40.585938.117188-.105469.261719-.160156.402344-.160156.144531 0 .289062.054687.402344.160156 7.839843 7.34375 20.984374 22.378907 20.984374 40.585938 0 4.808593-2.078124 15.984375-21.300781 16.015625-.027343 0-.054687 0-.085937 0-.027344 0-.054688 0-.085938 0-19.222656-.03125-21.300781-11.207032-21.300781-16.015625zm-14.640625 128.265625v-68.347656c0-2.171876 1.761719-3.9375 3.929688-3.9375h64.195312c2.167969 0 3.929688 1.765624 3.929688 3.9375v65.429687c-7.78125-2.335937-15.613282-4.074219-23.179688-5.238281-6.4375-.992188-12.769531 1.652344-16.652344 6.6875-10.824218-.617188-21.636718-.113282-32.222656 1.46875zm-95.660156 142.714844c-2.1875 12.410156-9.523438 22.675781-19.125 27.761718l10.066406-57.097656c.1875-1.082031.394531-2.15625.617188-3.226562 7.234374 8.09375 10.605468 20.273437 8.441406 32.5625zm-26.066406 154.335937c-8.226563-1.449219-13.742188-9.324219-12.289063-17.550781l.039063-.230469c.015624-.070313.03125-.144531.042968-.21875l2.042969-11.542969c.003906-.027344.007813-.050781.011719-.078125.011718-.042969.019531-.085937.027344-.132812 1.6875-7.929688 9.394531-13.171875 17.441406-11.753907 8.230468 1.453126 13.742187 9.324219 12.289062 17.550782l-2.058594 11.667968c-1.449218 8.226563-9.324218 13.738282-17.546874 12.289063zm44.609374 7.867187c-3.984374-.703124-7.457031-2.917968-9.777343-6.230468-2.324219-3.3125-3.214844-7.335938-2.511719-11.320313l2.058594-11.671875c1.292968-7.339844 7.703125-12.519531 14.910156-12.519531.871094 0 1.753906.078125 2.640625.234375 8.222656 1.449219 13.738281 9.320312 12.285156 17.546875l-2.058593 11.671875c-1.449219 8.226562-9.320313 13.738281-17.546876 12.289062zm55.929688 5.355469c-3.316406 2.320313-7.339844 3.214844-11.320312 2.507813-8.226563-1.449219-13.738282-9.320313-12.289063-17.546875l2.058594-11.671875c1.292969-7.339844 7.699219-12.519532 14.910156-12.519532.871094 0 1.753906.074219 2.640625.230469 3.984375.703125 7.457031 2.914063 9.777344 6.230469 2.320312 3.316406 3.210937 7.332031 2.507812 11.320312l-2.058594 11.671876c-.703124 3.984374-2.914062 7.457031-6.226562 9.777343zm0 0"/><path d="m156.007812 397.28125c3.039063.539062 6.085938.800781 9.105469.800781 10.535157 0 20.800781-3.214843 29.609375-9.382812 11.332032-7.9375 18.898438-19.8125 21.300782-33.441407 4.960937-28.132812-13.890626-55.058593-42.023438-60.015624-28.140625-4.960938-55.054688 13.890624-60.015625 42.023437-2.402344 13.628906.644531 27.375 8.582031 38.710937 7.9375 11.335938 19.8125 18.902344 33.441406 21.304688zm-27.25-57.410156c3.144532-17.835938 18.710938-30.421875 36.230469-30.421875 2.113281 0 4.257813.183593 6.410157.5625 19.988281 3.527343 33.378906 22.652343 29.855468 42.640625-3.523437 19.988281-22.652344 33.382812-42.640625 29.855468-19.988281-3.523437-33.378906-22.652343-29.855469-42.636718zm0 0"/><path d="m65.988281 362.339844c-4.382812 5.957031-7.730469 13.679687-8.960937 20.660156-1.421875 8.066406.277344 14.222656 5.050781 18.300781 3.871094 3.304688 8.769531 4.382813 13.867187 5.285157 1.996094.351562 4.785157.84375 7.808594.84375 7.144532 0 15.605469-2.742188 18.039063-16.539063 1.230469-6.976563.726562-15.378906-1.355469-22.476563-2.796875-9.542968-8.0625-15.457031-14.824219-16.648437-6.765625-1.195313-13.734375 2.5625-19.625 10.574219zm5.8125 23.261718c1.652344-9.378906 8.34375-18.21875 11.195313-19.007812 2.414062 1.71875 5.679687 12.3125 4.023437 21.695312-.496093 2.804688-1.214843 3.921876-1.488281 4.023438-1.332031.496094-5.144531-.175781-6.980469-.5-1.832031-.324219-5.648437-.996094-6.730469-1.917969-.21875-.191406-.515624-1.488281-.019531-4.292969zm0 0"/><path d="m194.949219 146.808594v-7.714844c0-2.160156 1.757812-3.914062 3.914062-3.914062h5.347657c4.144531 0 7.5-3.359376 7.5-7.5 0-4.140626-3.355469-7.5-7.5-7.5h-5.347657c-10.429687 0-18.914062 8.484374-18.914062 18.914062v7.714844c0 1.390625-1.128907 2.523437-2.519531 2.523437-1.390626 0-2.519532-1.132812-2.519532-2.523437v-7.832032c0-4.140624-3.359375-7.5-7.5-7.5-4.144531 0-7.5 3.359376-7.5 7.5v7.832032c0 9.664062 7.859375 17.523437 17.519532 17.523437 9.660156 0 17.519531-7.863281 17.519531-17.523437zm0 0"/></svg>