<svg height="512pt" viewBox="0 -14 512 512" width="512pt" xmlns="http://www.w3.org/2000/svg"><path d="m487.988281 284.914062h-68.558593v-33.019531h68.5625c9.117187 0 16.507812 7.390625 16.507812 16.507813 0 9.117187-7.390625 16.511718-16.511719 16.511718zm0 0" fill="#9bc66a"/><path d="m24.011719 284.914062h68.558593v-33.019531h-68.558593c-9.121094 0-16.511719 7.390625-16.511719 16.507813 0 9.117187 7.390625 16.511718 16.511719 16.511718zm0 0" fill="#9bc66a"/><path d="m115.15625 160.382812c-5.964844 0-11.550781 2.847657-15.121094 7.628907-27.128906 36.320312-50.164062 85.183593-50.164062 146.527343 0 124.339844 92.285156 162.4375 206.128906 162.4375s206.132812-38.097656 206.132812-162.4375c0-56.328124-26.671874-107.820312-58.839843-147.300781-3.550781-4.359375-8.898438-6.855469-14.519531-6.855469zm0 0" fill="#ffb05a"/><path d="m403.292969 167.238281c-3.550781-4.359375-8.898438-6.855469-14.519531-6.855469h-63.828126c2.917969 0 5.695313 2.496094 7.539063 6.855469 16.703125 39.480469 30.554687 90.972657 30.554687 147.300781 0 124.339844-47.921874 162.4375-107.039062 162.4375 113.84375 0 206.132812-38.097656 206.132812-162.4375-.003906-56.328124-26.675781-107.820312-58.839843-147.300781zm0 0" fill="#f79a34"/><path d="m403.292969 167.238281c-3.550781-4.359375-8.898438-6.855469-14.523438-6.855469h-16.863281c4.949219 0 9.660156 2.496094 12.785156 6.855469 28.324219 39.480469 51.808594 90.96875 51.808594 147.300781 0 123.328126-79.949219 161.804688-179.0625 162.425782-.480469.003906-.957031.011718-1.4375.011718 113.839844 0 206.128906-38.097656 206.128906-162.4375 0-56.328124-26.671875-107.820312-58.835937-147.300781zm0 0" fill="#cc6d0e"/><path d="m148.964844 314.539062c0-61.34375 11.960937-110.207031 26.046875-146.527343 1.855469-4.78125 4.753906-7.628907 7.851562-7.628907h-67.707031c-5.964844 0-11.550781 2.847657-15.121094 7.628907-27.128906 36.320312-50.164062 85.183593-50.164062 146.527343 0 124.339844 92.285156 162.4375 206.128906 162.4375-59.113281 0-107.035156-38.097656-107.035156-162.4375zm0 0" fill="#ffce80"/><g fill="#4e5173"><path d="m383.097656 258.671875-32.808594-43.519531-49.125 45.488281 45.742188 14.097656 2.421875-18.699219zm0 0"/><path d="m128.902344 258.671875 32.808594-43.519531 49.125 45.488281-45.742188 14.097656-2.421875-18.699219zm0 0"/><path d="m389.71875 322.625c-16.230469 20.648438-41.722656 37.140625-72.496094 46.675781l-10.542968 21.089844c-2.644532 5.289063-10.195313 5.289063-12.835938 0l-7.125-14.25c-9.925781 1.433594-20.195312 2.195313-30.71875 2.195313s-20.792969-.761719-30.71875-2.195313l-7.125 14.25c-2.640625 5.289063-10.191406 5.289063-12.835938 0l-10.542968-21.089844c-30.773438-9.535156-56.265625-26.027343-72.496094-46.675781-1.75 6.683594-2.675781 13.59375-2.675781 20.671875 0 57.722656 61.066406 104.519531 136.394531 104.519531s136.390625-46.796875 136.390625-104.519531c.003906-7.078125-.921875-13.988281-2.671875-20.671875zm0 0"/><path d="m278.128906 315.664062c0 14.378907-10.664062 2.019532-23.824218 2.019532-13.15625 0-23.824219 12.359375-23.824219-2.019532 0-14.375 23.824219-30.75 23.824219-30.75s23.824218 16.375 23.824218 30.75zm0 0"/></g><path d="m487.988281 244.390625h-7.976562v-31.359375c0-56.902344-22.160157-110.398438-62.390625-150.636719-40.234375-40.234375-93.730469-62.394531-150.632813-62.394531h-21.976562c-56.902344 0-110.398438 22.160156-150.632813 62.394531-40.230468 40.238281-62.390625 93.734375-62.390625 150.636719v31.359375h-7.976562c-13.242188 0-24.011719 10.769531-24.011719 24.011719 0 6.414062 2.5 12.445312 7.035156 16.980468 4.53125 4.53125 10.5625 7.027344 16.976563 7.027344h19.34375c-.65625 7.316406-.984375 14.691406-.984375 22.125v.003906.90625c0 .265626.003906.527344.003906.789063.011719 1.320313.027344 2.628906.058594 3.929687v.132813c1.320312 57.445313 22.550781 100.488281 63.152344 127.992187 41.914062 28.394532 100.636718 36.628907 151.671874 36.183594 96.644532-.238281 161.191407-27.855468 191.855469-82.09375 2.039063-3.605468.769531-8.179687-2.839843-10.21875-3.601563-2.039062-8.179688-.769531-10.21875 2.835938-20.789063 36.769531-59.644532 60.050781-115.871094 69.5625 11.597656-8.941406 21.25-20.875 28.902344-35.765625 2.714843-1.796875 5.355468-3.675781 7.921874-5.640625 27.652344-21.191406 42.886719-49.550782 42.886719-79.855469 0-7.585937-.984375-15.179687-2.917969-22.574219-.722656-2.753906-2.941406-4.863281-5.730468-5.445312-2.785156-.578125-5.664063.46875-7.425782 2.707031-3.953124 5.035156-8.519531 9.8125-13.621093 14.289063.226562-5.769532.339843-11.699219.339843-17.734376 0-6.824218-.207031-13.828124-.613281-20.824218-.238281-4.136719-3.808593-7.300782-7.921875-7.054688-4.136718.242188-7.292968 3.789063-7.054687 7.921875.390625 6.707031.589843 13.421875.589843 19.957031 0 10.246094-.339843 20.140626-1.003906 29.46875-11.648437 7.464844-25.011718 13.625-39.535156 18.125-1.953125.605469-3.574219 1.980469-4.488281 3.808594l-10.253907 20.507813-6.832031-13.664063c-1.449219-2.894531-4.578125-4.53125-7.78125-4.070312-19.449219 2.808594-39.84375 2.808594-59.292969 0-3.195312-.460938-6.332031 1.175781-7.777343 4.070312l-6.835938 13.664063-10.253906-20.507813c-.914063-1.828125-2.535156-3.203125-4.488281-3.808594-14.523438-4.5-27.886719-10.660156-39.53125-18.125-.667969-9.328124-1.003906-19.222656-1.003906-29.472656 0-6.5625.148437-13.300781.441406-20.019531.179687-4.136719-3.027344-7.640625-7.164063-7.820313-4.125-.183593-7.640625 3.027344-7.824219 7.164063-.300781 6.9375-.453124 13.894531-.453124 20.675781 0 6.039063.113281 11.964844.335937 17.738282-5.097656-4.476563-9.664063-9.257813-13.621094-14.289063-1.761719-2.238281-4.640625-3.285156-7.425781-2.707031s-5.007812 2.6875-5.726562 5.441406c-1.9375 7.398438-2.917969 14.992188-2.917969 22.574219 0 30.304687 15.230469 58.667969 42.886719 79.859375 2.5625 1.964844 5.203124 3.84375 7.921874 5.640625 7.652344 14.890625 17.308594 26.824219 28.914063 35.761719-.015625 0-.03125-.003907-.046875-.007813-.363281-.0625-.726562-.121094-1.089844-.183594-.015625-.003906-.035156-.007812-.050781-.011719-30.671875-5.308593-56.175781-14.730468-76.214844-28.195312-18.203125-12.234375-32.210937-28.085938-41.640625-47.117188-9.585937-19.351562-14.742187-42.574218-15.355468-69.101562 0-.015625 0-.035156 0-.050781-.03125-1.246094-.046876-2.5-.054688-3.757813-.003906-.234375-.003906-.464844-.003906-.699218 0-.296876-.003906-.597657-.003906-.898438 0-41.335938 10.863281-80.828125 32.28125-117.375 2.09375-3.574219.894531-8.167969-2.679688-10.261719-3.570312-2.09375-8.167969-.894531-10.261719 2.675781-10.347656 17.65625-18.378906 35.964844-24.0625 54.816407h-5.65625v-31.363281c0-109.191407 88.832031-198.027344 198.023438-198.027344h21.976562c109.191407 0 198.023438 88.835937 198.023438 198.027344v31.363281h-8.230469c-12.117188-33.253907-30.875-61.273438-47.671875-81.894531-4.980469-6.109376-12.390625-9.613282-20.335937-9.613282h-63.699219c-.042969 0-.089844-.003906-.132813-.003906-.039062 0-.078125.003906-.117187.003906h-141.847657c-.039062 0-.078124-.003906-.117187-.003906s-.082031.003906-.125.003906h-67.574219c-8.257812 0-16.15625 3.976563-21.132812 10.636719-2.476563 3.320313-1.796875 8.019531 1.523437 10.5 3.316407 2.476563 8.015625 1.796875 10.496094-1.523437 2.15625-2.890626 5.5625-4.613282 9.113281-4.613282h51.867188c-5.664063 14.964844-10.453125 30.640625-14.25 46.660156l-29.863282 39.613282c-1.773437 2.355468-2.003906 5.53125-.585937 8.121094 1.417969 2.585937 4.226563 4.101562 7.160156 3.871093l26.660157-2.078125 1.507812 11.628906c.28125 2.191407 1.519531 4.148438 3.378906 5.34375 1.84375 1.1875 4.132813 1.515626 6.265625.859376l45.742188-14.097657c2.5625-.789062 4.507812-2.886719 5.105469-5.5.59375-2.613281-.25-5.347656-2.21875-7.167969l-46.984376-43.507812c3.589844-14.054688 7.972657-27.78125 13.054688-40.898438.609375-1.566406 1.230469-2.449218 1.601562-2.847656h140.628907c.3125.339844.824219 1.050782 1.34375 2.28125 5.929687 14.011719 11.085937 28.601563 15.355469 43.4375l-44.859376 41.535156c-1.96875 1.820313-2.8125 4.554688-2.21875 7.167969.597657 2.613281 2.542969 4.714844 5.105469 5.503907 47.628907 14.554687 45.859375 14.425781 47.949219 14.425781 3.78125 0 6.957031-2.808594 7.441406-6.535157l1.503906-11.628906 26.664063 2.078125c2.933594.230469 5.742187-1.285156 7.160156-3.871093 1.417969-2.589844 1.1875-5.765626-.589843-8.121094l-32.808594-43.519532c-.261719-.347656-.554688-.671874-.871094-.964843-4.089844-14.234375-8.964844-28.257813-14.53125-41.789063h47.898438c3.414062 0 6.585937 1.488282 8.707031 4.089844 16.617187 20.398438 35.273437 48.402344 46.613281 81.527344.121094.542968.296875 1.066406.527344 1.558594 3.25 9.746093 5.867187 19.925781 7.605468 30.480468.03125.390625.09375.773438.183594 1.148438 1.433594 9.023437 2.21875 18.320312 2.21875 27.851562 0 19.921875-2.484375 38.152344-7.390625 54.1875-1.210937 3.960938 1.019531 8.15625 4.980469 9.367188.730469.222656 1.46875.328125 2.195312.328125 3.210938 0 6.183594-2.078125 7.171876-5.308594 5.335937-17.457031 8.042968-37.167969 8.042968-58.574219 0-7.523437-.449218-14.902344-1.289062-22.128906h19.648437c6.414063 0 12.441407-2.492188 16.976563-7.023438 4.535156-4.539062 7.035156-10.570312 7.035156-16.984374 0-13.238282-10.769531-24.007813-24.011719-24.007813zm-360.882812 98.90625c0-1.355469.039062-2.714844.113281-4.070313 17.265625 16.691407 39.449219 28.769532 62.265625 36.257813l9.128906 18.257813c2.5 5.003906 7.53125 8.113281 13.125 8.113281 5.597657 0 10.625-3.109375 13.128907-8.113281l4.734374-9.46875c17.417969 2.074218 35.378907 2.074218 52.796876 0l4.734374 9.46875c2.503907 5.003906 7.53125 8.113281 13.128907 8.113281 5.59375 0 10.621093-3.109375 13.125-8.113281l9.128906-18.257813c22.816406-7.492187 45-19.566406 62.265625-36.257813.074219 1.355469.113281 2.714844.113281 4.070313 0 29.417969-17.484375 55.816406-45.039062 73.625-.394531.203125-.769531.441406-1.125.71875-22.402344 14.144531-51.269531 22.675781-82.730469 22.675781-31.464844 0-60.328125-8.53125-82.730469-22.679687-.355469-.269531-.730469-.507813-1.121093-.714844-27.558594-17.804687-45.042969-44.207031-45.042969-73.625zm128.894531 112.019531c23.050781 0 45.292969-4.1875 65.265625-12.09375-15.757813 17.375-36.929687 26.011719-64.082031 26.253906-.394532 0-.789063 0-1.183594 0-.359375 0-.714844 0-1.070312 0-.046876-.003906-.09375-.003906-.144532-.003906-.019531 0-.039062 0-.0625 0-.007812 0-.015625 0-.027344 0-27.09375-.277344-48.214843-8.90625-63.949218-26.246094 19.96875 7.902344 42.207031 12.089844 65.253906 12.089844zm-207.355469-195.925781c-1.382812 5.957031-2.542969 11.964844-3.46875 18.019531h-21.164062c-2.410157 0-4.667969-.933594-6.367188-2.632812-1.707031-1.703125-2.644531-3.96875-2.644531-6.375 0-4.96875 4.042969-9.011719 9.011719-9.011719zm122.742188 5.558594-1.277344-9.875c-.488281-3.761719-3.695313-6.535157-7.429687-6.535157-.195313 0-.394532.007813-.589844.023438l-17.179688 1.339844 17.792969-23.605469 33.488281 31.007813zm178.523437-16.386719c-3.976562-.296875-7.507812 2.554688-8.019531 6.511719l-1.277344 9.875-24.808593-7.644531 33.488281-31.007813 17.796875 23.601563zm144.445313 26.214844c-1.699219 1.699218-3.957031 2.632812-6.367188 2.632812h-21.980469c-1.195312-6.136718-2.652343-12.148437-4.339843-18.019531h26.320312c4.96875 0 9.011719 4.042969 9.011719 9.011719 0 2.40625-.9375 4.671875-2.644531 6.375zm0 0"/><path d="m258.554688 278.730469c-2.558594-1.757813-5.9375-1.757813-8.496094 0-.265625.183593-6.578125 4.546875-12.9375 10.835937-9.382813 9.277344-14.136719 18.058594-14.136719 26.097656 0 2.226563 0 9 5.125 12.5625 5.0625 3.519532 10.707031 1.417969 15.691406-.4375 3.285157-1.222656 7.007813-2.605468 10.507813-2.605468 3.496094 0 7.21875 1.382812 10.503906 2.605468 3.019531 1.125 6.28125 2.339844 9.511719 2.339844 2.101562 0 4.1875-.515625 6.183593-1.902344 5.125-3.5625 5.125-10.335937 5.125-12.5625 0-8.039062-4.757812-16.820312-14.140624-26.101562-6.355469-6.285156-12.671876-10.648438-12.9375-10.832031zm11.488281 35.003906c-4.023438-1.5-9.535157-3.550781-15.734375-3.550781-6.199219 0-11.714844 2.050781-15.738282 3.550781-.117187.042969-.234374.085937-.355468.128906 1.425781-5.886719 9.148437-13.972656 16.09375-19.578125 6.941406 5.605469 14.667968 13.691406 16.089844 19.578125-.121094-.042969-.238282-.085937-.355469-.128906zm0 0"/></svg>