<svg height="512pt" viewBox="0 -68 512.00056 512" width="512pt" xmlns="http://www.w3.org/2000/svg"><path d="m488.761719 136.101562c-5.117188 2.957032-11.125 4.503907-17.464844 4.144532l-73.539063-4.140625c-10.585937-.597657-20.15625-6.488281-25.457031-15.667969s-5.617187-20.414062-.839843-29.878906l33.179687-65.761719c7.824219-15.503906 26.730469-21.722656 42.230469-13.902344 15.5 7.820313 21.722656 26.726563 13.902344 42.226563l-4.613282 9.144531c-3.277344 6.496094 1.183594 14.226563 8.449219 14.632813l10.226563.578124c17.332031.976563 30.59375 15.820313 29.617187 33.152344-.621094 10.996094-6.820313 20.351563-15.691406 25.472656zm0 0" fill="#ed6161"/><path d="m494.734375 86.09375c.488281 2.546875.578125 5.253906.207031 8.0625-1.296875 9.820312-7.863281 18.539062-16.738281 23.664062-5.113281 2.953126-11 4.710938-17.082031 4.800782l-70.574219.992187c-8.308594.117188-15.734375-2.960937-20.640625-8.375.636719 1.785157 1.429688 3.527344 2.394531 5.199219 5.300781 9.179688 14.871094 15.070312 25.457031 15.667969l73.539063 4.140625c6.339844.355468 12.347656-1.191406 17.464844-4.144532 8.875-5.125 15.070312-14.476562 15.691406-25.472656.539063-9.582031-3.277344-18.398437-9.71875-24.535156zm0 0" fill="#ce4545"/><path d="m413.511719 146.273438-12.6875 7.324218c-9.597657 5.542969-21.871094 2.253906-27.410157-7.34375l-22.914062-39.691406c-5.542969-9.59375-2.253906-21.867188 7.34375-27.40625l12.6875-7.328125c9.597656-5.539063 21.867188-2.253906 27.410156 7.34375l22.914063 39.691406c5.539062 9.597657 2.253906 21.867188-7.34375 27.410157zm0 0" fill="#ffcd34"/><path d="m420.855469 118.863281-10.671875-18.488281c4.796875 8.308594 1.949218 18.9375-6.359375 23.734375l-17.347657 10.015625c-8.3125 4.796875-18.9375 1.953125-23.738281-6.359375l10.675781 18.488281c5.542969 9.597656 17.8125 12.882813 27.410157 7.34375l12.6875-7.328125c9.597656-5.539062 12.882812-17.808593 7.34375-27.40625zm0 0" fill="#e69012"/><path d="m95.042969 363.417969c5.113281-2.957031 9.457031-7.382813 12.316406-13.054688l33.183594-65.757812c4.777343-9.464844 4.460937-20.699219-.839844-29.878907-5.300781-9.183593-14.871094-15.074218-25.457031-15.667968l-73.539063-4.144532c-17.339843-.976562-32.179687 12.285157-33.15625 29.621094-.976562 17.332032 12.285157 32.175782 29.617188 33.152344l10.226562.578125c7.265625.410156 11.726563 8.136719 8.449219 14.632813l-4.613281 9.144531c-7.820313 15.5-1.597657 34.40625 13.902343 42.226562 9.832032 4.960938 21.035157 4.269531 29.910157-.851562zm0 0" fill="#ed6161"/><path d="m139.703125 254.726562c-1.074219-1.859374-2.328125-3.574218-3.722656-5.148437 1.957031 6.726563.8125 14.386719-3.371094 21.285156l-36.445313 60.105469c-3.144531 5.183594-7.621093 9.375-12.738281 12.332031-8.871093 5.125-19.667969 6.511719-28.757812 2.84375-2.304688-.929687-4.355469-2.136719-6.144531-3.554687 1.882812 9.050781 7.714843 17.191406 16.609374 21.679687 9.832032 4.960938 21.035157 4.269531 29.910157-.851562 5.113281-2.953125 9.457031-7.382813 12.316406-13.050781l33.183594-65.761719c4.777343-9.464844 4.460937-20.699219-.839844-29.878907zm0 0" fill="#ce4545"/><path d="m141.472656 303.332031 12.6875-7.324219c9.597656-5.539062 12.886719-17.8125 7.34375-27.410156l-22.914062-39.6875c-5.539063-9.597656-17.8125-12.886718-27.410156-7.34375l-12.6875 7.324219c-9.597657 5.539063-12.886719 17.8125-7.34375 27.410156l22.914062 39.6875c5.542969 9.597657 17.8125 12.886719 27.410156 7.34375zm0 0" fill="#ffcd34"/><path d="m161.503906 268.597656-10.402344-18.015625c4.816407 8.339844 1.960938 19.003907-6.382812 23.820313l-17.234375 9.953125c-8.34375 4.816406-19.007813 1.957031-23.824219-6.382813l10.402344 18.015625c5.542969 9.597657 17.8125 12.886719 27.410156 7.34375l12.6875-7.324219c9.597656-5.539062 12.886719-17.8125 7.34375-27.410156zm0 0" fill="#e69012"/><path d="m377.945312 236.035156-140.949218 81.378906c-31.429688 18.144532-71.613282 7.378907-89.757813-24.050781l-37.230469-64.480469c-18.144531-31.425781-7.375-71.613281 24.050782-89.757812l140.953125-81.378906c31.425781-18.140625 71.609375-7.375 89.753906 24.050781l37.230469 64.484375c18.144531 31.425781 7.375 71.609375-24.050782 89.753906zm0 0" fill="#ed6161"/><path d="m401.996094 146.277344-9.824219-17.015625c17.132813 29.675781 6.964844 67.621093-22.710937 84.753906l-147.296876 85.042969c-29.671874 17.128906-67.617187 6.964844-84.75-22.710938l9.824219 17.015625c18.144531 31.425781 58.332031 42.195313 89.757813 24.050781l140.949218-81.378906c31.425782-18.144531 42.195313-58.328125 24.050782-89.757812zm0 0" fill="#ce4545"/><g fill="#4e5173"><path d="m325.078125 133.75c-3.652344 15.691406-12.511719 31.652344-25.632813 45.824219l.960938 16.003906c.242188 4.011719-4.203125 6.578125-7.558594 4.363281l-9.039062-5.96875c-5.355469 4.21875-11.144532 8.15625-17.339844 11.734375s-12.503906 6.621094-18.835938 9.152344l.648438 10.8125c.242188 4.011719-4.203125 6.578125-7.554688 4.363281l-13.382812-8.832031c-18.832031 4.273437-37.085938 3.96875-52.5-.714844-2.582031-.785156-4.910156 1.761719-3.886719 4.257813.933594 2.285156 2.027344 4.523437 3.285157 6.699218 19.625 33.992188 71.488281 40.785157 115.847656 15.175782 44.355468-25.609375 64.40625-73.921875 44.78125-107.914063-1.257813-2.175781-2.648438-4.242187-4.160156-6.195312-1.652344-2.132813-5.019532-1.390625-5.632813 1.238281zm0 0"/><path d="m185.363281 163.46875.753907 20.046875c.242187 6.453125 7.65625 9.886719 12.777343 5.953125 4.421875-3.390625 9.210938-6.15625 14.359375-8.289062 5.964844-2.472657 6.699219-10.605469 1.234375-14.042969l-16.984375-10.675781c-5.394531-3.394532-12.378906.640624-12.140625 7.007812zm0 0"/><path d="m258.296875 121.359375.753906 20.046875c.242188 6.453125 7.65625 9.882812 12.78125 5.953125 4.421875-3.390625 9.207031-6.15625 14.359375-8.289063 5.964844-2.472656 6.699219-10.609374 1.230469-14.042968l-16.980469-10.675782c-5.394531-3.390624-12.382812.640626-12.144531 7.007813zm0 0"/></g><path d="m475.25 69.984375-10.214844-.570313c-1.875-.105468-3.027344-2.085937-2.175781-3.777343l4.609375-9.136719c4.683594-9.285156 5.472656-19.839844 2.222656-29.71875s-10.15625-17.902344-19.441406-22.585938c-9.285156-4.6875-19.839844-5.476562-29.71875-2.222656-9.882812 3.253906-17.902344 10.160156-22.585938 19.449219l-20.371093 40.367187c-3.753907.410157-7.421875 1.601563-10.789063 3.546876l-3.179687 1.832031c-9.539063-11.25-22.246094-19.332031-36.796875-23.230469-18.886719-5.058594-38.617188-2.460938-55.550782 7.3125l-122.328124 70.628906c-3.585938 2.070313-4.816407 6.660156-2.746094 10.246094 2.070312 3.585938 6.660156 4.816406 10.246094 2.746094l122.332031-70.628906c13.460937-7.773438 29.148437-9.839844 44.167969-5.8125 13.210937 3.539062 24.511718 11.417968 32.332031 22.429687.164062.269531.34375.523437.535156.765625.871094 1.269531 1.699219 2.574219 2.472656 3.921875l37.230469 64.480469c.824219 1.433594 1.585938 2.890625 2.28125 4.367187.046875.105469.09375.203125.144531.304688 5.386719 11.632812 6.796875 24.6875 3.933594 37.300781-3.234375 14.253906-11.605469 26.664062-23.574219 34.949219-3.402344 2.359375-4.253906 7.03125-1.894531 10.4375 1.457031 2.101562 3.792969 3.230469 6.171875 3.230469 1.472656 0 2.960938-.433594 4.265625-1.335938 15.058594-10.425781 25.589844-26.039062 29.660156-43.960938 3.097657-13.65625 2.21875-27.730468-2.410156-40.714843l3.183594-1.839844c3.371093-1.945313 6.238281-4.523437 8.46875-7.574219l45.140625 2.546875c.75.039063 1.5.0625 2.246094.0625 4.984374 0 9.859374-.949219 14.519531-2.824219 3.84375-1.550781 5.703125-5.917968 4.152343-9.761718-1.546874-3.839844-5.914062-5.699219-9.757812-4.152344-3.292969 1.328125-6.757812 1.902344-10.316406 1.699219l-40.707032-2.296875c.3125-5.324219-.929687-10.628906-3.660156-15.355469l-7.703125-13.347656 10.3125-5.960938c3.585938-2.070312 4.8125-6.660156 2.742188-10.246093-2.074219-3.585938-6.660157-4.8125-10.246094-2.742188l-10.308594 5.957031-7.703125-13.351562c-2.730468-4.726563-6.699218-8.453125-11.46875-10.84375l18.367188-36.402344c2.878906-5.707031 7.8125-9.957031 13.882812-11.957031 6.074219-2 12.5625-1.511719 18.273438 1.367187 5.707031 2.878907 9.949218 7.8125 11.949218 13.886719 1.996094 6.070312 1.511719 12.5625-1.367187 18.269531l-4.609375 9.140625c-2.683594 5.316406-2.507812 11.574219.46875 16.730469 2.980469 5.160156 8.308594 8.441406 14.257812 8.777344l10.214844.566406c14.253906.808594 25.128906 14.066406 22.070313 28.917969-.835938 4.058594 1.773437 8.023437 5.832031 8.859375 4.050781.832031 8.019531-1.769531 8.855469-5.832031 4.910156-23.835938-12.550781-45.59375-35.917969-46.914063zm-60.894531 52.625c3.433593 5.945313 1.488281 13.65625-4.597657 17.167969l-2.140624 1.238281-35.480469-61.449219c1.363281-.617187 5.546875-4.140625 11.683593-2.496094 3.242188.867188 5.949219 2.945313 7.628907 5.851563zm0 0"/><path d="m352.554688 242.035156-119.3125 68.882813c-13.460938 7.777343-29.148438 9.839843-44.167969 5.816406-13.203125-3.539063-24.503907-11.414063-32.324219-22.417969-.167969-.277344-.351562-.539062-.550781-.789062-.867188-1.265625-1.691407-2.570313-2.46875-3.910156l-37.226563-64.484376c-.789062-1.367187-1.519531-2.753906-2.183594-4.160156-.097656-.242187-.207031-.476562-.332031-.710937-11.195312-24.441407-4.148437-53.914063 17.554688-70.46875 3.292969-2.511719 3.929687-7.21875 1.417969-10.511719-2.515626-3.292969-7.21875-3.929688-10.515626-1.414062-25.566406 19.5-34.96875 53.234374-24.511718 82.6875l-3.191406 1.84375c-3.371094 1.945312-6.234376 4.523437-8.46875 7.570312l-45.144532-2.542969c-21.445312-1.207031-39.851562 15.257813-41.066406 36.6875-1.210938 21.433594 15.246094 39.859375 36.691406 41.070313l10.214844.570312c1.867188.105469 3.027344 2.082032 2.175781 3.773438l-4.609375 9.136718c-4.683594 9.285157-5.472656 19.839844-2.222656 29.71875 3.25 9.882813 10.15625 17.902344 19.441406 22.585938 5.542969 2.800781 11.546875 4.191406 17.542969 4.191406 6.730469 0 13.453125-1.757812 19.488281-5.246094 6.5625-3.78125 11.84375-9.371093 15.273438-16.171874l20.367187-40.367188c3.757813-.410156 7.421875-1.597656 10.792969-3.546875l3.175781-1.832031c9.539063 11.25 22.25 19.332031 36.796875 23.230468 6.308594 1.6875 12.707032 2.527344 19.066406 2.527344 12.6875 0 25.207032-3.328125 36.484376-9.839844l119.3125-68.886718c3.585937-2.070313 4.816406-6.65625 2.746093-10.242188-2.070312-3.59375-6.660156-4.820312-10.246093-2.75zm-251.890626 104.949219c-2.105468 4.179687-5.347656 7.613281-9.378906 9.9375-7.023437 4.0625-15.539062 4.304687-22.777344.652344-5.703124-2.878907-9.949218-7.808594-11.945312-13.882813-2-6.074218-1.515625-12.5625 1.367188-18.269531l4.605468-9.140625c2.6875-5.316406 2.511719-11.574219-.46875-16.730469-2.976562-5.160156-8.304687-8.441406-14.257812-8.777343l-10.214844-.570313c-13.183594-.742187-23.300781-12.070313-22.554688-25.246094.742188-13.175781 12.058594-23.292969 25.25-22.554687l40.707032 2.292968c-.3125 5.324219.929687 10.628907 3.660156 15.355469l7.703125 13.347657-10.3125 5.960937c-3.585937 2.074219-4.8125 6.660156-2.738281 10.246094 1.386718 2.40625 3.90625 3.75 6.5 3.75 1.273437 0 2.5625-.324219 3.746094-1.007813l10.304687-5.957031 7.703125 13.351563c2.730469 4.726562 6.699219 8.453124 11.46875 10.84375zm19.890626-54.742187-22.90625-39.6875c-1.679688-2.910157-2.125-6.300782-1.257813-9.542969.867187-3.238281 2.945313-5.945313 5.851563-7.625l2.144531-1.238281 35.480469 61.449218-2.144532 1.238282c-5.917968 3.414062-13.640625 1.515624-17.167968-4.59375zm0 0"/><path d="m166 216.339844c-2.800781 3.078125-3.5625 7.386718-1.984375 11.246094 1.0625 2.605468 2.320313 5.167968 3.730469 7.613281 10.683594 18.503906 29.921875 30.445312 54.171875 33.621093 4.226562.554688 8.515625.828126 12.847656.828126 19.753906 0 40.3125-5.699219 59.074219-16.53125 22.871094-13.207032 40.472656-32.535157 49.558594-54.433594 9.375-22.585938 8.652343-45.21875-2.03125-63.726563-1.414063-2.445312-3.003907-4.8125-4.726563-7.035156-2.550781-3.296875-6.664063-4.792969-10.734375-3.90625-4.070312.890625-7.183594 3.96875-8.128906 8.035156-3.398438 14.582031-11.640625 29.253907-23.832032 42.429688-1.390624 1.5-2.105468 3.503906-1.984374 5.542969l.648437 10.773437-4.664063-3.082031c-2.699218-1.78125-6.234374-1.632813-8.773437.367187-5.15625 4.0625-10.691406 7.808594-16.453125 11.132813-5.757812 3.324218-11.769531 6.246094-17.863281 8.683594-3.003907 1.199218-4.898438 4.1875-4.703125 7.414062l.332031 5.578125-9.003906-5.945313c-1.707031-1.125-3.800781-1.507812-5.792969-1.054687-17.507812 3.972656-34.332031 3.773437-48.664062-.578125-3.992188-1.210938-8.21875-.050781-11.023438 3.027344zm59.839844 12.855468 10.753906 7.101563c3.9375 2.601563 8.921875 2.75 13.011719.390625 4.085937-2.359375 6.449219-6.753906 6.164062-11.464844l-.328125-5.507812c5.03125-2.226563 9.984375-4.742188 14.777344-7.507813 4.792969-2.769531 9.445312-5.800781 13.890625-9.046875l4.609375 3.042969c3.9375 2.601563 8.921875 2.75 13.007812.390625 4.085938-2.359375 6.449219-6.753906 6.167969-11.460938l-.773437-12.863281c10.3125-11.679687 17.972656-24.4375 22.53125-37.449219 15.269531 30.226563-3.652344 72.410157-43.3125 95.308594-20.03125 11.566406-42.21875 16.472656-62.472656 13.820313-18.460938-2.417969-33.164063-10.890625-41.722657-23.960938 13.546875 2.554688 28.425781 2.296875 43.695313-.792969zm0 0"/><path d="m187.453125 197.160156c2.101563.988282 4.347656 1.472656 6.582031 1.472656 3.34375 0 6.65625-1.089843 9.425782-3.210937 3.882812-2.980469 8.144531-5.441406 12.664062-7.316406 5.378906-2.226563 9.023438-7.203125 9.507812-12.992188.488282-5.757812-2.253906-11.25-7.152343-14.328125l-16.984375-10.675781c-4.855469-3.050781-10.957032-3.167969-15.925782-.296875-4.96875 2.867188-7.917968 8.207031-7.703124 13.9375l.753906 20.046875c.21875 5.785156 3.601562 10.902344 8.832031 13.363281zm5.617187-34.359375c.222657-.128906.339844-.054687.441407.007813l16.984375 10.675781c.117187.074219.210937.132813.191406.371094-.023438.277343-.179688.34375-.304688.394531-5.730468 2.375-11.132812 5.496094-16.054687 9.269531-.105469.082031-.242187.183594-.496094.066407-.214843-.101563-.21875-.210938-.222656-.351563l-.753906-20.046875c-.003907-.125-.007813-.257812.214843-.386719zm0 0"/><path d="m260.390625 155.050781c2.101563.988281 4.347656 1.472657 6.582031 1.472657 3.339844 0 6.65625-1.089844 9.425782-3.210938 3.882812-2.980469 8.144531-5.441406 12.664062-7.3125 5.375-2.230469 9.019531-7.207031 9.507812-12.996094.488282-5.757812-2.253906-11.25-7.15625-14.328125l-16.984374-10.675781c-4.855469-3.050781-10.957032-3.167969-15.921876-.300781-4.96875 2.871093-7.917968 8.210937-7.703124 13.941406l.753906 20.046875c.214844 5.78125 3.597656 10.902344 8.832031 13.363281zm5.617187-34.359375c.089844-.054687.164063-.070312.226563-.070312.085937 0 .152344.039062.214844.078125l16.984375 10.675781c.117187.074219.210937.132812.191406.371094-.023438.277344-.179688.34375-.304688.394531-5.730468 2.375-11.132812 5.492187-16.054687 9.269531-.105469.082032-.238281.183594-.496094.0625-.214843-.097656-.21875-.210937-.222656-.347656l-.753906-20.046875c-.003907-.128906-.007813-.257813.214843-.386719zm0 0"/></svg>