<svg height="512pt" viewBox="-101 0 512 512.001" width="512pt" xmlns="http://www.w3.org/2000/svg"><path d="m255.40625 373.785156-60.628906-22.6875v-58.113281h-79.644532v58.113281l-60.632812 22.6875c-19.855469 7.429688-33.015625 26.40625-33.015625 47.609375v79.089844c0 2.21875 1.796875 4.015625 4.015625 4.015625h258.910156c2.21875 0 4.015625-1.796875 4.015625-4.015625v-79.089844c.003907-21.203125-13.160156-40.179687-33.019531-47.609375zm0 0" fill="#e6eff5"/><path d="m255.40625 373.785156-60.628906-22.6875v-58.113281h-14.578125v58.113281l55.53125 22.6875c18.1875 7.429688 30.242187 26.40625 30.242187 47.609375v79.089844c0 2.21875-1.648437 4.015625-3.679687 4.015625h22.117187c2.21875 0 4.019532-1.796875 4.019532-4.015625v-79.089844c0-21.203125-13.164063-40.179687-33.023438-47.609375zm0 0" fill="#c5d3d6"/><path d="m228.027344 363.539062-33.25-12.441406v-58.113281h-79.644532v58.113281l-33.25 12.441406c-.007812.332032-.03125.660157-.03125.992188 0 33.757812 32.730469 61.125 73.105469 61.125 40.371094 0 73.101563-27.367188 73.101563-61.125 0-.332031-.023438-.660156-.03125-.992188zm0 0" fill="#bfea92"/><path d="m228.058594 364.53125c0-.332031-.023438-.660156-.03125-.992188l-25.675782-9.605468-7.574218-2.835938v-58.113281h-79.644532v45.046875c16.925782 12.707031 37.253907 20.121094 59.117188 20.121094 6.375 0 12.613281-.644532 18.679688-1.855469l34.777343 14.210937c.226563-1.96875.351563-3.960937.351563-5.976562zm0 0" fill="#9bc66a"/><path d="m279.582031 118.316406c-15.734375-15.386718 5.914063-53.667968-54.914062-75.703125-7.261719-2.628906-19.574219-35.113281-69.710938-35.113281-50.140625 0-62.449219 32.484375-69.714843 35.113281-60.828126 22.035157-39.175782 60.316407-54.914063 75.703125-34.097656 33.339844-28.648437 88.785156 7.753906 126.253906h233.75c36.402344-37.46875 41.851563-92.914062 7.75-126.253906zm0 0" fill="#6e7093"/><path d="m100.832031 244.566406c-25.558593-35.128906-34.765625-86.992187-18.121093-122.445312 8.207031-17.484375-11.78125-54.757813 25.425781-83.722656 2.449219-1.910157 4.605469-13.335938 11.625-24.066407-21.71875 9.679688-29.390625 26.421875-34.519531 28.28125-5.828126 2.113281-10.890626 4.371094-15.3125 6.746094-33.976563 28.882813-14.78125 61.914063-24.421876 78.496094-19.878906 34.183593-12.359374 82.402343 13.675782 116.710937zm0 0" fill="#e6eff5"/><path d="m279.582031 118.316406c-15.734375-15.386718 5.914063-53.667968-54.914062-75.703125-7.261719-2.628906-19.574219-35.113281-69.710938-35.113281-2.328125 0-4.550781.09375-6.71875.226562 40.648438 2.746094 51.1875 32.378907 57.511719 34.886719 55.523438 22.035157 35.761719 60.316407 50.128906 75.703125 31.125 33.339844 26.152344 88.785156-7.082031 126.253906h23.03125c36.40625-37.46875 41.855469-92.914062 7.753906-126.253906zm0 0" fill="#4e5173"/><path d="m250.726562 244.566406c26.035157-34.308594 33.554688-82.527344 13.675782-116.707031-9.640625-16.582031 9.554687-49.617187-24.421875-78.5-4.417969-2.375-9.484375-4.632813-15.3125-6.746094-5.128907-1.855469-12.800781-18.601562-34.519531-28.277343 7.019531 10.726562 9.175781 22.15625 11.628906 24.0625 37.203125 28.964843 17.214844 66.238281 25.421875 83.722656 16.644531 35.453125 7.441406 87.316406-18.121094 122.449218h41.648437zm0 0" fill="#e6eff5"/><path d="m190.15625 14.339844c-.003906-.003906-.003906-.003906-.007812-.003906 7.019531 10.726562 9.175781 22.15625 11.628906 24.0625 2.074218 1.617187 3.964844 3.261718 5.699218 4.925781 53.371094 22.136719 34.1875 59.769531 48.402344 74.992187 6.609375 7.078125 11.574219 15.160156 15 23.847656-1.691406-4.96875-3.835937-9.765624-6.476562-14.304687-9.640625-16.582031 9.550781-49.617187-24.421875-78.496094h-.003907c-6.957031-3.742187-15.890624-7.019531-15.933593-7.046875-.183594-.101562-13.042969-18.6875-33.886719-27.976562zm0 0" fill="#c5d3d6"/><path d="m248.796875 244.566406h1.929687c5.0625-6.671875 9.417969-13.875 13.011719-21.390625-4.070312 7.542969-9.050781 14.753907-14.941406 21.390625zm0 0" fill="#c5d3d6"/><path d="m272.96875 267.441406h-36.203125v-62.980468h36.203125c10.414062 0 18.859375 8.441406 18.859375 18.859374v25.261719c-.003906 10.414063-8.445313 18.859375-18.859375 18.859375zm0 0" fill="#9bc66a"/><path d="m36.945312 267.441406h36.199219v-62.980468h-36.199219c-10.417968 0-18.859374 8.441406-18.859374 18.859374v25.261719c0 10.414063 8.441406 18.859375 18.859374 18.859375zm0 0" fill="#9bc66a"/><path d="m154.957031 160.015625c-58.953125 0-106.742187-46.078125-106.742187 58.921875 0 66.414062 47.789062 120.253906 106.742187 120.253906 58.949219 0 106.738281-53.839844 106.738281-120.253906 0-105-47.789062-58.921875-106.738281-58.921875zm0 0" fill="#bfea92"/><path d="m214.054688 151.0625c14.019531 4.125 22.484374 20.828125 22.484374 67.871094 0 63.886718-39.007812 116.128906-88.265624 120.015625 2.210937.152343 4.4375.238281 6.679687.238281 58.953125 0 106.742187-53.839844 106.742187-120.253906 0-66.066406-18.921874-72.316406-47.640624-67.871094zm0 0" fill="#9bc66a"/><path d="m304.359375 142.730469c-1.460937-3.875-5.789063-5.832031-9.664063-4.367188-3.875 1.464844-5.832031 5.792969-4.367187 9.667969 6.332031 16.75 5.96875 36.1875-.769531 54.824219-2.691406-2.1875-5.824219-3.855469-9.238282-4.847657 5.878907-26.753906 2.570313-53.289062-9.429687-73.914062-1.195313-2.058594-1.738281-4.863281-1.960937-8.179688 1.300781 2.8125 3.027343 5.4375 5.394531 7.75.65625.648438 1.308593 1.308594 1.949219 1.976563 2.863281 2.992187 7.613281 3.09375 10.601562.226563 2.992188-2.867188 3.09375-7.613282.226562-10.605469-.742187-.769531-1.492187-1.53125-2.273437-2.300781-3.339844-3.265626-4.269531-9.207032-5.449219-16.730469-2.921875-18.632813-6.914062-44.125-51.726562-60.511719-.800782-.664062-2.488282-2.609375-3.859375-4.191406-5.398438-6.238282-14.351563-16.582032-29.929688-23.710938-.425781-.242187-.875-.441406-1.335937-.59375-9.773438-4.253906-22.058594-7.222656-37.570313-7.222656-41.550781 0-59.980469 21.292969-68.839843 31.523438-1.371094 1.585937-3.054688 3.53125-3.855469 4.191406-44.8125 16.390625-48.808594 41.882812-51.730469 60.511718-1.179688 7.523438-2.109375 13.464844-5.449219 16.730469-27.332031 26.71875-32.761719 68.089844-14.144531 106.050781-.230469 1.402344-.351562 2.84375-.351562 4.3125v25.257813c0 14.535156 11.824218 26.359375 26.359374 26.359375h15.269532c3.296875 7.535156 7.285156 14.746094 11.941406 21.554688 2.335938 3.417968 7.003906 4.292968 10.421875 1.957031 3.417969-2.335938 4.296875-7.003907 1.957031-10.425781-4.855468-7.101563-8.894531-14.710938-12.085937-22.707032-.125-.421875-.285157-.828125-.476563-1.21875-5.441406-14.089844-8.257812-29.355468-8.257812-45.164062 0-31.375 4.308594-50.125 13.171875-57.320313 2.101562-1.707031 4.566406-2.8125 7.355469-3.460937.222656-.035156.4375-.082032.652343-.136719 8.640625-1.746094 20.308594.699219 34.121094 3.601563 13.167969 2.765624 28.09375 5.894531 43.9375 5.894531 15.847656 0 30.773437-3.132813 43.941406-5.894531 13.808594-2.898438 25.476563-5.347657 34.117188-3.605469.21875.058593.4375.105469.660156.144531 2.789063.644531 5.25 1.753906 7.351563 3.457031 8.863281 7.195313 13.171874 25.945313 13.171874 57.320313 0 62.171875-44.519531 112.753906-99.242187 112.753906-12.617187 0-24.890625-2.65625-36.359375-7.792969-.238281-.125-.484375-.238281-.738281-.335937-7.558594-3.46875-14.761719-8.023438-21.476563-13.613282-3.183594-2.648437-7.910156-2.21875-10.5625.964844-2.648437 3.183594-2.21875 7.910156.964844 10.5625 6.570312 5.46875 13.550781 10.082032 20.855469 13.808594v10.617188l-28.25 10.566406c-.089844.03125-.175781.0625-.261719.097656l-27.25 10.195312c-22.664062 8.488282-37.890625 30.449219-37.890625 54.644532v79.078125c0 6.351562 5.164063 11.519531 11.511719 11.519531h258.917968c6.347657 0 11.511719-5.167969 11.511719-11.519531v-79.082031c0-24.191407-15.226562-46.152344-37.894531-54.644532l-55.757812-20.855468v-10.691407c24.09375-12.308593 43.71875-33.714843 55.347656-60.265625h15.34375c14.535156 0 26.359375-11.828125 26.359375-26.363281v-25.257813c0-1.46875-.121094-2.910156-.351563-4.3125 12.289063-25.117187 14.273438-52.769531 5.386719-76.277343zm-23.433594 278.667969v75.601562h-34.140625v-40.75c0-4.140625-3.355468-7.5-7.5-7.5-4.140625 0-7.5 3.359375-7.5 7.5v40.75h-153.660156v-40.75c0-4.140625-3.359375-7.5-7.5-7.5s-7.5 3.359375-7.5 7.5v40.75h-34.140625v-75.601562c0-17.972657 11.3125-34.289063 28.148437-40.59375l17.996094-6.734376c5.472656 33.34375 39.183594 59.085938 79.828125 59.085938 40.640625 0 74.355469-25.742188 79.824219-59.085938l17.992188 6.734376c16.839843 6.304687 28.152343 22.621093 28.152343 40.59375zm-88.777343-63.273438 28.214843 10.554688c-2.597656 27.636718-30.941406 49.476562-65.40625 49.476562-34.46875 0-62.8125-21.839844-65.410156-49.476562l28.21875-10.554688c2.929687-1.097656 4.871094-3.898438 4.871094-7.023438v-9.566406c10.378906 3.40625 21.226562 5.15625 32.320312 5.15625 11.21875 0 22.066407-1.820312 32.320313-5.207031v9.617187c0 3.128907 1.941406 5.925782 4.871094 7.023438zm-156.578126-234.441406c2.375-2.324219 4.105469-4.957032 5.414063-7.777344-.222656 3.320312-.765625 6.125-1.960937 8.183594-12.003907 20.632812-15.316407 47.167968-9.433594 73.917968-3.417969.992188-6.554688 2.664063-9.25 4.855469-10.613282-29.203125-5.128906-59.277343 15.230468-79.179687zm1.375 136.257812c-6.261718 0-11.359374-5.097656-11.359374-11.363281v-25.257813c0-1.046874.144531-2.058593.410156-3.019531.035156-.117187.066406-.230469.097656-.347656 1.4375-4.625 5.757812-7.992187 10.851562-7.992187h2.199219 1.644531c-.34375 16.21875.726563 30.859374 5.902344 47.976562h-9.746094zm158.867188-113.003906c-13.0625 2.742188-26.570312 5.578125-40.855469 5.578125-14.289062 0-27.796875-2.835937-40.859375-5.578125-10.5625-2.214844-20.824218-4.371094-30.226562-4.449219 1.285156-6.175781 3.171875-11.929687 5.632812-17.183593 3.445313-7.339844 3.082032-16.328126 2.699219-25.84375-.34375-8.632813-.738281-18.414063 1.71875-27.835938 1.046875-4.011719-1.355469-8.105469-5.363281-9.152344-4.007813-1.046875-8.105469 1.355469-9.148438 5.363282-3.023437 11.582031-2.582031 22.550781-2.191406 32.226562.304688 7.636719.59375 14.847656-1.292969 18.875-3.695312 7.871094-6.289062 16.605469-7.738281 26.015625-3.101562 1.167969-6.027344 2.804687-8.753906 5.019531-8.574219 6.957032-14 18.636719-16.6875 36.53125-2.835938-20.171875.335937-39.5625 9.242187-54.871094 4.425781-7.609374 4.246094-16.757812 4.058594-26.445312-.316406-16.363281-.644531-33.273438 18.15625-49.601562 3.925781-2.070313 8.429687-4.050782 13.597656-5.921876 3.578125-1.296874 6.128907-4.242187 9.65625-8.320312 8.53125-9.855469 22.804688-26.34375 57.5-26.34375 12.40625 0 22.199219 2.109375 30.054688 5.269531 2.871093 4.824219 4.757812 9.734375 6.308593 13.769531 1.886719 4.914063 3.136719 8.164063 5.847657 10.277344 22.066406 17.179688 21.253906 37.347656 20.539062 55.140625-.382812 9.519531-.746093 18.507813 2.699219 25.847657 2.464844 5.253906 4.347656 11.007812 5.636719 17.183593-9.40625.078125-19.667969 2.230469-30.230469 4.449219zm54.667969 3.03125c-2.726563-2.210938-5.65625-3.847656-8.753907-5.015625-1.449218-9.410156-4.046874-18.144531-7.738281-26.019531-1.890625-4.023438-1.601562-11.238282-1.292969-18.871094.578126-14.375 1.3125-32.714844-10.027343-50.195312 4.933593 1.8125 9.253906 3.722656 13.042969 5.71875 18.796874 16.324218 18.472656 33.238281 18.152343 49.601562-.1875 9.6875-.363281 18.835938 4.058594 26.445312 8.90625 15.304688 12.078125 34.691407 9.242187 54.867188-2.6875-17.894531-8.113281-29.570312-16.683593-36.53125zm33.84375 98.609375c0 6.265625-5.09375 11.363281-11.359375 11.363281h-9.804688c5.277344-17.359375 6.304688-32 5.964844-47.980468 2.265625.003906 1.386719 0 3.839844 0 6.304687 0 11.359375 5.132812 11.359375 11.359374zm0 0"/><path d="m105.207031 225.78125c-4.144531 0-7.5-3.355469-7.5-7.5v-2c0-4.140625 3.355469-7.5 7.5-7.5 4.140625 0 7.5 3.359375 7.5 7.5v2c0 4.144531-3.359375 7.5-7.5 7.5zm0 0"/><path d="m204.707031 225.78125c-4.144531 0-7.5-3.355469-7.5-7.5v-2c0-4.140625 3.355469-7.5 7.5-7.5 4.140625 0 7.5 3.359375 7.5 7.5v2c0 4.144531-3.359375 7.5-7.5 7.5zm0 0"/><path d="m154.949219 278.046875c-12.179688 0-23.613281-2.519531-32.1875-7.09375-3.65625-1.945313-5.039063-6.488281-3.09375-10.144531 1.949219-3.65625 6.492187-5.039063 10.148437-3.089844 6.351563 3.382812 15.511719 5.324219 25.132813 5.324219 9.628906 0 18.792969-1.941407 25.144531-5.324219 3.652344-1.953125 8.195312-.566406 10.144531 3.089844s.566407 8.199218-3.089843 10.144531c-8.574219 4.574219-20.011719 7.09375-32.199219 7.09375zm0 0"/></svg>