<svg height="512pt" viewBox="-61 0 512 512.00352" width="512pt" xmlns="http://www.w3.org/2000/svg"><path d="m293.988281 451.640625 11.96875-67.875-49.417969-8.710937-11.96875 67.871093c-13.765624-1.246093-26.425781 8.238281-28.871093 22.101563-2.578125 14.621094 7.183593 28.5625 21.804687 31.140625 9.472656 1.671875 18.660156-1.84375 24.65625-8.5 3.359375 8.304687 10.785156 14.75 20.261719 16.421875 14.617187 2.578125 28.5625-7.1875 31.140625-21.808594 2.445312-13.859375-6.207031-27.105469-19.574219-30.640625zm0 0" fill="#d8e6f0"/><path d="m247.664062 425.269531 8.855469-50.230469 49.417969 8.710938-8.855469 50.230469zm0 0" fill="#bdcdd6"/><path d="m327.664062 415.703125-102.445312-18.0625c-7.878906-1.390625-13.136719-8.902344-11.746094-16.777344l36.886719-209.191406c4.023437-22.824219 25.789063-38.0625 48.613281-34.039063l48.316406 8.519532c22.824219 4.027344 38.0625 25.789062 34.039063 48.613281l-36.886719 209.191406c-1.386718 7.875-8.898437 13.136719-16.777344 11.746094zm0 0" fill="#bfea92"/><path d="m347.289062 146.152344-18.914062-3.335938c20.78125 3.664063 34.660156 23.484375 30.996094 44.265625l-37.765625 214.164063c-1.261719 7.171875-8.101563 11.960937-15.273438 10.695312l21.332031 3.761719c7.878907 1.390625 15.390626-3.871094 16.777344-11.746094l36.886719-209.191406c4.023437-22.824219-11.214844-44.589844-34.039063-48.613281zm0 0" fill="#9bc66a"/><path d="m339.929688 192.417969-49.867188-8.792969c-6.550781-1.152344-10.925781-7.402344-9.769531-13.953125l7.6875-43.601563c3.582031-20.324218 22.960937-33.890624 43.285156-30.308593 20.320313 3.582031 33.890625 22.960937 30.304687 43.285156l-7.6875 43.601563c-1.15625 6.550781-7.402343 10.925781-13.953124 9.769531zm0 0" fill="#fdeaaf"/><path d="m331.261719 95.761719c-1.871094-.332031-3.738281-.515625-5.585938-.5625 12.105469 4.40625 19.675781 16.976562 17.363281 30.097656l-10.058593 57.042969c-.835938 4.742187-5.359375 7.90625-10.101563 7.070312l17.046875 3.007813c6.554688 1.152343 12.800781-3.222657 13.957031-9.773438l7.6875-43.601562c3.585938-20.320313-9.984374-39.699219-30.308593-43.28125zm0 0" fill="#f8cc7c"/><path d="m142.921875 296.144531-15.164063-56.585937-41.199218 11.039062 15.164062 56.585938c-11.054687 3.984375-17.398437 15.839844-14.304687 27.398437 3.265625 12.1875 15.796875 19.421875 27.984375 16.15625 7.898437-2.117187 13.710937-8.125 15.941406-15.40625 5.570312 5.191407 13.609375 7.488281 21.507812 5.371094 12.1875-3.265625 19.421876-15.792969 16.15625-27.984375-3.097656-11.554688-14.519531-18.652344-26.085937-16.574219zm0 0" fill="#d8e6f0"/><path d="m86.554688 250.59375 41.195312-11.035156 11.839844 44.183594-41.199219 11.039062zm0 0" fill="#bdcdd6"/><path d="m155.957031 256.363281-85.414062 22.886719c-6.566407 1.757812-13.316407-2.136719-15.074219-8.703125l-46.730469-174.402344c-5.097656-19.03125 6.195313-38.589843 25.222657-43.6875l40.28125-10.792969c19.027343-5.101562 38.585937 6.191407 43.6875 25.222657l46.730468 174.402343c1.757813 6.566407-2.136718 13.316407-8.703125 15.074219zm0 0" fill="#bfea92"/><path d="m164.660156 241.289062-46.730468-174.40625c-5.101563-19.027343-24.660157-30.320312-43.6875-25.21875l-18.273438 4.894532.441406-.117188c17.125-4.589844 34.726563 5.574219 39.3125 22.699219l47.972656 179.039063c1.585938 5.910156-1.921874 11.984374-7.832031 13.566406l20.09375-5.382813c6.566407-1.757812 10.460938-8.507812 8.703125-15.074219zm0 0" fill="#9bc66a"/><path d="m85.191406 79.949219-41.570312 11.140625c-5.464844 1.464844-11.078125-1.777344-12.542969-7.242188l-9.738281-36.351562c-4.539063-16.941406 5.511718-34.355469 22.457031-38.894532 16.941406-4.542968 34.355469 5.515626 38.894531 22.457032l9.742188 36.347656c1.464844 5.464844-1.777344 11.078125-7.242188 12.542969zm0 0" fill="#fdeaaf"/><path d="m92.433594 67.410156-9.738282-36.351562c-4.542968-16.941406-21.957031-27-38.898437-22.457032-1.777344.476563-3.472656 1.101563-5.085937 1.84375 10.121093-.566406 19.597656 6 22.324218 16.179688l13.125 48.980469c1.007813 3.761719-1.226562 7.628906-4.988281 8.636719l16.019531-4.292969c5.464844-1.464844 8.703125-7.078125 7.242188-12.539063zm0 0" fill="#f8cc7c"/><path d="m367.859375 146.582031 1.097656-6.234375c2.082031-11.800781-.554687-23.707031-7.429687-33.523437-6.875-9.816407-17.160156-16.367188-28.960938-18.449219-11.796875-2.085938-23.707031.558594-33.523437 7.433594-9.8125 6.871094-16.367188 17.15625-18.445313 28.957031l-1.101562 6.234375c-18.730469 4.734375-33.09375 19.964844-36.515625 39.367188l-4.730469 26.828124c-.8125 4.59375 2.722656 8.804688 7.394531 8.804688 3.570313 0 6.734375-2.5625 7.375-6.199219l4.730469-26.828125c1.957031-11.097656 9.054688-20.238281 18.75-24.980468l-3.59375 20.378906c-.90625 5.140625.246094 10.328125 3.238281 14.601562 2.996094 4.277344 7.476563 7.132813 12.617188 8.039063l49.863281 8.792969h.003906c1.144532.203124 2.292969.304687 3.433594.304687 3.972656 0 7.847656-1.214844 11.171875-3.542969 4.273437-2.992187 7.128906-7.476562 8.035156-12.617187l3.59375-20.378907c7.496094 7.769532 11.035157 18.789063 9.082031 29.894532l-36.886718 209.1875c-.671875 3.792968-4.296875 6.328125-8.09375 5.664062l-75.699219-13.34375c-.074219-.015625-.152344-.03125-.230469-.042968-.078125-.015626-.15625-.027344-.234375-.039063l-26.273437-4.632813c-3.796875-.667968-6.335938-4.296874-5.667969-8.089843l26.949219-152.828125c.71875-4.078125-2.003906-7.96875-6.082032-8.6875-4.085937-.722656-7.96875 2.003906-8.6875 6.082031l-26.949218 152.828125c-2.105469 11.9375 5.894531 23.363281 17.832031 25.46875l19.125 3.371094-4.789063 27.148437c-14.761718 1.738281-27.28125 13.078125-29.9375 28.179688-1.597656 9.042969.425782 18.167969 5.691407 25.6875 5.265625 7.523437 13.144531 12.546875 22.191406 14.144531 8.4375 1.484375 16.894531-.195312 23.960937-4.546875 5.144532 6.507813 12.519532 10.976563 20.957032 12.464844 1.992187.351562 3.996094.523437 5.980468.523437 9.230469 0 18.152344-3.71875 24.699219-10.484375 2.882813-2.976562 2.804688-7.726562-.171875-10.605469-2.980468-2.878906-7.726562-2.800781-10.605468.175782-4.488282 4.636718-10.957032 6.738281-17.296876 5.617187-6.617187-1.164062-12.082031-5.59375-14.609374-11.847656-.972657-2.394531-3.105469-4.121094-5.648438-4.570313-2.546875-.453124-5.140625.441407-6.875 2.359376-4.519531 5.011718-11.171875 7.304687-17.785156 6.140624-5.101563-.898437-9.542969-3.730468-12.511719-7.972656-2.96875-4.238281-4.105469-9.378906-3.207031-14.480468 1.730468-9.835938 10.863281-16.835938 20.8125-15.941407 3.890625.355469 7.382812-2.328125 8.058594-6.164062l5.855468-33.222657 34.648438 6.109376-5.855469 33.226562c-.679687 3.839844 1.699219 7.554688 5.464844 8.550781 5.964843 1.578125 10.863281 5.972657 13.105469 11.753907 1.152343 2.972656 3.988281 4.789062 6.996093 4.789062.902344 0 1.816407-.164062 2.710938-.507812 3.859375-1.5 5.777343-5.84375 4.277343-9.707032-3.117187-8.039062-9.144531-14.5625-16.714843-18.351562l4.789062-27.148438 19.121094 3.371094c1.285156.226562 2.566406.335938 3.828125.335938 10.460938 0 19.761719-7.519532 21.640625-18.171876l36.890625-209.1875c3.414062-19.417968-4.875-38.644531-20.859375-49.488281zm-23.230469 37.695313c-.996094.699218-2.199218.964844-3.398437.753906l-49.863281-8.792969c-1.195313-.210937-2.238282-.875-2.933594-1.867187-.699219-.996094-.964844-2.203125-.753906-3.398438l5.640624-32c.042969-.195312.078126-.398437.105469-.597656l1.941407-11.003906c1.386718-7.855469 5.746093-14.703125 12.28125-19.277344 6.53125-4.574219 14.457031-6.328125 22.3125-4.945312 7.855468 1.382812 14.703124 5.746093 19.277343 12.277343 4.574219 6.535157 6.332031 14.460938 4.949219 22.316407l-1.980469 11.226562c-.007812.03125-.011719.066406-.019531.101562l-5.691406 32.273438c-.207032 1.195312-.871094 2.238281-1.867188 2.933594zm0 0"/><path d="m314.023438 265.785156c.441406.078125.878906.113282 1.3125.113282 3.570312 0 6.734374-2.558594 7.378906-6.199219.71875-4.078125-2.003906-7.96875-6.085938-8.6875l-24.707031-4.355469c-4.074219-.722656-7.96875 2.003906-8.6875 6.082031s2.003906 7.96875 6.082031 8.6875zm0 0"/><path d="m263.539062 283.476562c-.71875 4.082032 2.003907 7.972657 6.082032 8.6875l52.394531 9.238282c.441406.078125.878906.117187 1.3125.117187 3.570313 0 6.734375-2.5625 7.378906-6.199219.71875-4.078124-2.003906-7.96875-6.085937-8.6875l-52.394532-9.238281c-4.082031-.722656-7.96875 2.003907-8.6875 6.082031zm0 0"/><path d="m148.597656 288.339844-5.554687-20.75 14.851562-3.980469c5.113281-1.371094 9.386719-4.644531 12.035157-9.226563 2.644531-4.585937 3.351562-9.925781 1.980468-15.039062l-46.738281-174.390625c-4.375-16.378906-17.691406-28.417969-34.027344-31.328125l-1.207031-4.511719c-2.714844-10.128906-9.207031-18.59375-18.289062-23.835937-9.082032-5.2421878-19.660157-6.636719-29.792969-3.921875-10.128907 2.714843-18.59375 9.207031-23.835938 18.289062-5.242187 9.082031-6.636719 19.664063-3.921875 29.792969l1.207032 4.511719c-12.6875 10.679687-18.203126 27.757812-13.8125 44.128906l4.351562 16.238281c.898438 3.351563 3.929688 5.5625 7.238281 5.5625.644531 0 1.296875-.082031 1.945313-.257812 4.003906-1.070313 6.378906-5.183594 5.304687-9.183594l-4.351562-16.246094c-2.179688-8.128906-.617188-16.527344 3.90625-23.144531l3.949219 14.742187c2.121093 7.914063 9.308593 13.148438 17.140624 13.148438 1.515626 0 3.058594-.195312 4.585938-.605469l41.574219-11.140625c9.445312-2.53125 15.074219-12.277344 12.542969-21.726562l-3.949219-14.742188c7.226562 3.476563 12.777343 9.96875 14.953125 18.105469l46.738281 174.394531c.332031 1.242188.160156 2.539063-.480469 3.652344-.644531 1.113281-1.683594 1.910156-2.925781 2.242188l-85.410156 22.882812c-2.566407.6875-5.207031-.839844-5.894531-3.398438l-34.507813-128.789062c-1.074219-4-5.1875-6.378906-9.1875-5.300781-4 1.070312-6.375 5.183593-5.304687 9.183593l34.511718 128.789063c2.367188 8.839844 10.390625 14.683594 19.140625 14.679687 1.691407 0 3.414063-.21875 5.125-.675781l14.863281-3.984375 5.558594 20.757813c-10.691406 7.019531-16.160156 20.453125-12.738281 33.265625 3.632813 13.539062 15.933594 22.492187 29.339844 22.492187 2.589843 0 5.222656-.335937 7.839843-1.035156 6.976563-1.871094 12.890626-6.058594 16.910157-11.761719 6.339843 2.929688 13.554687 3.597656 20.53125 1.726563 7.832031-2.097657 14.378906-7.117188 18.429687-14.140625 4.054688-7.019532 5.128906-15.199219 3.027344-23.023438-3.421875-12.808594-14.871094-21.710937-27.652344-22.445312zm-65.34375-215.636719-41.570312 11.140625c-1.457032.390625-2.96875-.480469-3.359375-1.9375l-9.738281-36.351562c-1.675782-6.261719-.816407-12.796876 2.421874-18.410157 3.242188-5.609375 8.472657-9.625 14.730469-11.300781 2.089844-.5625 4.210938-.839844 6.320313-.839844 4.203125 0 8.351562 1.105469 12.089844 3.261719 5.609374 3.242187 9.625 8.472656 11.300781 14.730469l9.742187 36.351562c.390625 1.460938-.480468 2.964844-1.9375 3.355469zm76.976563 253.609375c-2.046875 3.550781-5.351563 6.085938-9.316407 7.144531-5.144531 1.382813-10.546874.03125-14.457031-3.609375-1.890625-1.765625-4.554687-2.429687-7.050781-1.757812-2.496094.667968-4.472656 2.574218-5.230469 5.046875-1.5625 5.109375-5.570312 8.980469-10.707031 10.359375-8.175781 2.183594-16.613281-2.683594-18.804688-10.851563-2.046874-7.644531 2.171876-15.730469 9.601563-18.40625 3.667969-1.320312 5.714844-5.230469 4.707031-8.996093l-7.128906-26.617188 26.710938-7.15625 7.128906 26.613281c1.007812 3.769531 4.738281 6.128907 8.570312 5.441407 7.773438-1.402344 15.464844 3.492187 17.507813 11.140624 1.0625 3.964844.519531 8.101563-1.53125 11.648438zm0 0"/><path d="m69.335938 152.636719c.644531 0 1.296874-.082031 1.949218-.257813l20.597656-5.519531c4.003907-1.070313 6.375-5.183594 5.304688-9.1875-1.070312-4-5.183594-6.375-9.1875-5.300781l-20.597656 5.519531c-4.003906 1.070313-6.375 5.183594-5.304688 9.183594.898438 3.351562 3.929688 5.5625 7.238282 5.5625zm0 0"/><path d="m57.96875 177.832031c.898438 3.347657 3.929688 5.558594 7.238281 5.558594.644531 0 1.296875-.082031 1.949219-.257813l43.679688-11.703124c4.003906-1.070313 6.375-5.183594 5.304687-9.1875-1.070313-4-5.183594-6.378907-9.1875-5.300782l-43.679687 11.703125c-4 1.070313-6.375 5.183594-5.304688 9.1875zm0 0"/></svg>