<svg height="511pt" viewBox="-85 1 511 511.999" width="511pt" xmlns="http://www.w3.org/2000/svg"><path d="m308.5625 185.71875h-23.867188c-14.65625-10.75-28.023437-25.570312-28.304687-33.503906-.175781-4.773438 3.898437-18.050782 6.976563-31.863282 3.476562-15.570312 5.703124-31.839843-.828126-37.382812-5.324218-4.519531-14.65625.535156-27.222656 7.714844-16.472656 9.433594-38.523437 22.527344-64.417968 22.527344-25.894532 0-47.945313-13.09375-64.417969-22.527344-12.5625-7.179688-21.898438-12.234375-27.222657-7.714844-6.53125 5.542969-4.304687 21.8125-.824218 37.382812 3.074218 13.8125 7.148437 27.089844 6.976562 31.863282-.285156 7.933594-13.648437 22.753906-28.308594 33.503906h-23.863281c-6.519531-35.320312 6.921875-116.972656 39.121094-149.019531 24.296875-24.179688 75.101563-29.199219 95.628906-29.199219h5.824219c20.527344 0 71.328125 5.019531 95.628906 29.199219 32.199219 32.046875 45.640625 113.699219 39.121094 149.019531zm0 0" fill="#6e7093"/><path d="m269.441406 36.699219c-24.300781-24.179688-75.101562-29.199219-95.628906-29.199219h-5.824219c-1.253906 0-2.628906.019531-4.097656.058594 20.339844.648437 62.386719 6.976562 83.125 31.972656 25.285156 30.476562 37.796875 101.851562 36.828125 145.550781.285156.210938.570312.425781.855469.636719h23.863281c6.519531-35.320312-6.921875-116.972656-39.121094-149.019531zm0 0" fill="#4e5173"/><path d="m262.0625 207.992188c12.195312-11.566407 43.902344-39.753907 58.316406-52.527344 2.847656-2.523438 7.339844-.460938 7.273438 3.34375-.378906 21.984375-2.84375 74.542968-17.515625 91.566406-18.734375 21.734375-59.488281 4.347656-58.945313 0 .546875-4.347656-8.230468-24.269531 10.871094-42.382812zm0 0" fill="#e59f6a"/><path d="m79.738281 207.992188c-12.199219-11.566407-43.90625-39.753907-58.316406-52.527344-2.851563-2.523438-7.339844-.460938-7.273437 3.34375.378906 21.984375 2.839843 74.542968 17.515624 91.566406 18.734376 21.734375 59.484376 4.347656 58.941407 0s8.234375-24.269531-10.867188-42.382812zm0 0" fill="#e59f6a"/><path d="m311.859375 504.5h-281.921875c-2.414062 0-4.371094-1.957031-4.371094-4.371094v-86.121094c0-23.085937 14.328125-43.75 35.953125-51.839843l109.378907-40.929688 109.382812 40.929688c21.625 8.089843 35.953125 28.753906 35.953125 51.839843v86.121094c0 2.414063-1.957031 4.371094-4.375 4.371094zm0 0" fill="#6e7093"/><path d="m280.28125 362.167969-109.382812-40.929688-7.238282 2.707031 92.445313 38.222657c19.574219 8.089843 32.542969 28.753906 32.542969 51.839843v86.121094c0 2.414063-1.773438 4.371094-3.957032 4.371094h27.167969c2.417969 0 4.375-1.957031 4.375-4.371094v-86.121094c0-23.085937-14.332031-43.75-35.953125-51.839843zm0 0" fill="#4e5173"/><path d="m171.710938 276.296875h-.535157c-.015625 0-.011719 0-.019531 0-.085938 0-.171875 0-.257812 0-.085938 0-.171876 0-.257813 0-.007813 0 0 0-.019531 0h-.535156c-67.121094.132813-142.917969 12.808594-162.085938 33.101563 77.507812 38.40625 163.15625 124.5 163.15625 128.269531 0-3.769531 85.132812-89.863281 162.640625-128.269531-19.164063-20.292969-94.960937-32.964844-162.085937-33.101563zm-1.070313 0c-.003906 0-.011719 0-.019531 0zm.535156 0c-.007812 0-.011719 0-.019531 0 .046875 0 .125 0 .019531 0zm0 0" fill="#ed6161"/><path d="m333.800781 309.398438c-19.167969-20.292969-94.964843-32.96875-162.089843-33.101563h-.535157c-.015625 0-.011719 0-.019531 0-.085938 0-.171875 0-.257812 0-.085938 0-.171876 0-.257813 0-.007813 0 0 0-.019531 0h-.535156c-15.582032.03125-31.628907.738281-47.328126 2.058594.675782.074219 1.179688.136719 1.425782.1875 6.230468 1.257812 12.355468 3 18.359375 5.082031 23.453125 8.148438 47.847656 18.921875 66.28125 36.246094 18.742187 17.617187 23.941406 38.082031 20.941406 61.214844 30.058594-25.476563 67.875-53.769532 104.035156-71.6875zm-163.160156-33.101563c-.003906 0-.011719 0-.019531 0zm.535156 0c-.007812 0-.011719 0-.019531 0 .046875 0 .125 0 .019531 0zm0 0" fill="#ce4545"/><path d="m127.535156 275.632812v63.785157c0 23.945312 19.414063 43.359375 43.363282 43.359375 23.949218 0 43.363281-19.414063 43.363281-43.359375v-63.785157zm0 0" fill="#c5d3d6"/><path d="m287.132812 199.691406c0 72.320313-52.042968 130.945313-116.234374 130.945313-64.191407 0-116.230469-58.625-116.230469-130.945313 0-4.25.183593-8.464844.53125-12.605468.640625-.445313 1.273437-.902344 1.902343-1.367188 14.660157-10.75 28.027344-25.570312 28.308594-33.503906.171875-4.773438-3.902344-18.050782-6.976562-31.863282-3.476563-15.570312-5.707032-31.839843.824218-37.382812 5.324219-4.519531 14.660157.535156 27.222657 7.714844 16.472656 9.433594 38.523437 22.527344 64.417969 22.527344 25.898437 0 47.945312-13.09375 64.421874-22.527344 12.5625-7.179688 21.894532-12.234375 27.21875-7.714844 6.53125 5.542969 4.304688 21.8125.828126 37.382812-3.074219 13.8125-7.152344 27.089844-6.976563 31.863282.28125 7.933594 13.648437 22.753906 28.308594 33.503906.628906.464844 1.257812.921875 1.902343 1.367188.34375 4.140624.53125 8.355468.53125 12.605468zm0 0" fill="#f9c295"/><path d="m224.566406 200.167969c-4.140625 0-7.5-3.359375-7.5-7.5v-1c0-4.144531 3.359375-7.5 7.5-7.5 4.144532 0 7.5 3.355469 7.5 7.5v1c0 4.140625-3.359375 7.5-7.5 7.5zm0 0"/><path d="m117.234375 200.167969c-4.144531 0-7.5-3.359375-7.5-7.5v-1c0-4.144531 3.355469-7.5 7.5-7.5 4.140625 0 7.5 3.355469 7.5 7.5v1c0 4.140625-3.359375 7.5-7.5 7.5zm0 0"/><path d="m286.601562 187.085938c-.644531-.445313-1.273437-.902344-1.902343-1.367188-14.660157-10.75-28.027344-25.570312-28.308594-33.503906-.175781-4.773438 3.898437-18.050782 6.976563-31.863282 3.476562-15.570312 5.703124-31.839843-.828126-37.382812-4.257812-3.617188-11.09375-1.097656-20.085937 3.730469 2.777344 7.359375.976563 20.742187-1.59375 33.652343-2.746094 13.8125-6.378906 27.089844-6.222656 31.863282.25 7.933594 12.175781 22.753906 25.253906 33.503906.5625.464844 1.125.921875 1.695313 1.367188.3125 4.140624.476562 8.355468.476562 12.605468 0 69.816406-43.269531 126.859375-97.785156 130.730469 2.191406.140625 4.398437.214844 6.625.214844 64.191406 0 116.230468-58.625 116.230468-130.945313 0-4.25-.1875-8.464844-.53125-12.605468zm0 0" fill="#e59f6a"/><path d="m211.035156 355.832031c-28.65625.171875-57.359375-5.859375-83.5-17.605469v1.1875c0 23.949219 19.414063 43.363282 43.363282 43.363282 18.136718 0 33.664062-11.136719 40.136718-26.945313zm0 0" fill="#e6eff5"/><path d="m239.0625 455.554688c0 9.871093-5.378906 18.617187-13.660156 24.046874-9.074219-11.09375-23.753906-18.285156-40.324219-18.285156-4.097656 0-8.085937.433594-11.898437 1.277344-.621094-2.257812-.945313-4.613281-.945313-7.039062 0-4.03125.902344-7.871094 2.53125-11.382813 3.105469 1.398437 6.605469 2.171875 10.3125 2.171875 12.726563 0 23.039063-9.171875 23.089844-20.515625 17.28125 1.144531 30.894531 14.019531 30.894531 29.726563zm0 0" fill="#e69012"/><path d="m102.734375 455.554688c0 9.871093 5.378906 18.617187 13.660156 24.046874 9.074219-11.09375 23.753907-18.285156 40.328125-18.285156 4.097656 0 8.085938.433594 11.898438 1.277344.617187-2.257812.945312-4.613281.945312-7.039062 0-4.03125-.902344-7.871094-2.53125-11.382813-3.109375 1.398437-6.609375 2.171875-10.3125 2.171875-12.726562 0-23.039062-9.171875-23.09375-20.515625-17.277344 1.144531-30.894531 14.019531-30.894531 29.726563zm0 0" fill="#e69012"/><path d="m190.730469 452.714844c0 10.953125-8.878907 19.832031-19.832031 19.832031-10.953126 0-19.832032-8.878906-19.832032-19.832031s8.878906-19.832032 19.832032-19.832032c10.953124 0 19.832031 8.878907 19.832031 19.832032zm0 0" fill="#ffcd34"/><path d="m220.039062 291.746094-31.132812-26.332032c10.039062-2.324218 19.472656-6.574218 27.960938-12.398437l8.171874 35.6875c.660157 2.890625-2.738281 4.953125-5 3.042969zm0 0" fill="#e6eff5"/><path d="m152.894531 265.414062-31.136719 26.332032c-2.257812 1.914062-5.660156-.152344-4.996093-3.042969l8.171875-35.6875c8.484375 5.824219 17.917968 10.074219 27.960937 12.398437zm0 0" fill="#e6eff5"/><path d="m339.253906 304.25c-12.328125-13.050781-40.984375-21.257812-66.402344-26.191406 1.9375-3.144532 3.761719-6.382813 5.464844-9.707032 1.816406.15625 3.601563.234376 5.347656.234376 13.429688 0 24.617188-4.570313 32.15625-13.3125 15.683594-18.203126 18.839844-68.171876 19.328126-96.328126.085937-4.703124-2.617188-9.019531-6.890626-10.992187-3.65625-1.6875-7.878906-1.390625-11.238281.691406-3.140625-41.859375-17.773437-92.855469-42.289062-117.261719-24.898438-24.773437-75.152344-31.382812-100.921875-31.382812h-5.820313c-4.757812 0-21.878906.320312-42.289062 4.457031-20.460938 4.148438-37.078125 10.625-49.390625 19.25-3.394532 2.375-4.21875 7.054688-1.839844 10.445313 2.375 3.394531 7.054688 4.214844 10.445312 1.839844 23.65625-16.570313 63.351563-20.992188 83.074219-20.992188h5.820313c21.855468 0 68.867187 5.644531 90.339844 27.015625 23.324218 23.21875 37.621093 78.011719 38.472656 119.191406-5.5 4.894531-11.476563 10.226563-17.363282 15.503907-13.816406-10.980469-21.238281-21.714844-21.371093-24.769532 0-.015625 0-.03125-.003907-.042968-.042968-2.109376 1.867188-9.707032 3.402344-15.820313 1.082032-4.308594 2.308594-9.1875 3.402344-14.097656.554688-2.476563 1.074219-4.953125 1.542969-7.398438 2.601562-13.652343 3.441406-26.445312-2.042969-34.261719-.652344-.929687-1.394531-1.785156-2.234375-2.566406-.183594-.171875-.367187-.339844-.558594-.5-.128906-.109375-.257812-.214844-.386719-.320312-19.167968-15.320313-50.074218 28.777344-96.109374 28.777344-46.445313 0-77.335938-44.734376-96.492188-28.460938-.382812.324219-.746094.667969-1.09375 1.019531-.023438.027344-.046875.050781-.070312.074219-.042969.046875-.089844.09375-.132813.140625-.0625.066406-.125.128906-.183594.195313-.007812.007812-.011719.015624-.019531.019531-14.535156 16 5.339844 63.863281 5.007812 73.246093-.03125.742188-.5 1.945313-1.386718 3.492188-.003906.011719-.011719.023438-.019532.035156-.019531.035156-.035156.066406-.058593.101563-.011719.023437-.023438.042969-.035157.066406-.019531.03125-.039062.0625-.054687.09375-.015625.023437-.027344.042969-.042969.066406-.015625.03125-.035156.0625-.054687.089844-.015625.027344-.03125.054687-.046875.082031-.011719.023438-.027344.046875-.042969.070313-.023437.035156-.046875.074219-.066406.113281-.007813.015625-.019531.027344-.027344.039062-.023437.042969-.050781.085938-.078125.128907-.007812.015625-.019531.03125-.03125.046875-.027344.046875-.054688.09375-.085938.140625-.003906.007812-.007812.015625-.015624.019531-.035157.058594-.066407.113281-.105469.167969v.003906c-3.132813 4.894531-9.636719 12.386719-19.222657 20.003906-5.871093-5.265625-11.847656-10.597656-17.355468-15.5.707031-31.929687 10.203125-77.285156 27.652344-105.28125 2.1875-3.515625 1.117187-8.140625-2.398438-10.332031s-8.140625-1.117188-10.332031 2.398438c-17.410157 27.933593-26.824219 68.726562-29.296875 100.667968-3.359375-2.097656-7.597656-2.402344-11.269532-.707031-4.269531 1.972656-6.972656 6.285156-6.886718 10.984375.484375 28.164062 3.644531 78.132812 19.328125 96.339844 7.539062 8.738281 18.722656 13.308594 32.15625 13.308594 1.746093 0 3.527343-.078126 5.347656-.234376 1.703125 3.324219 3.527344 6.5625 5.460937 9.707032-25.414062 4.929687-54.074218 13.136718-66.398437 26.191406-1.632813 1.726562-2.347656 4.128906-1.929687 6.46875.417968 2.339844 1.921874 4.34375 4.050781 5.398438 19.910156 9.867187 40.394531 22.933593 59.804687 36.941406l-5.578125 2.085937c-7.164062 2.671875-13.703125 6.582031-19.433593 11.621094-3.113282 2.730469-3.417969 7.472656-.6875 10.582031 1.484374 1.6875 3.554687 2.550782 5.640624 2.550782 1.753907 0 3.519532-.613282 4.945313-1.867188 4.359375-3.828125 9.332031-6.800781 14.789063-8.839844l14.660156-5.484375c32.949218 25.167969 61.324218 51.5 76.207031 66.785157-2.460937 1.757812-4.636719 3.925781-6.414063 6.421874-4.503906-2.324218-7.453124-6.503906-7.472656-11.113281-.007812-2.070312-.871094-4.042969-2.382812-5.457031-1.515625-1.410156-3.539063-2.128906-5.609375-2-21.25 1.402344-37.894531 17.746094-37.894531 37.207031 0 11.988281 6.367187 23.324219 17.035156 30.320313 1.261718.828125 2.691406 1.230468 4.109375 1.230468 2.179687 0 4.332031-.953124 5.804687-2.75 6.519532-7.960937 16.207032-13.28125 27.039063-14.960937 5.101562 6.679687 13.007812 10.660156 21.667969 10.660156 8.667968 0 16.582031-3.988281 21.675781-10.660156 10.828125 1.683594 20.515625 7 27.03125 14.960937 1.476562 1.800782 3.628906 2.75 5.808593 2.75 1.417969 0 2.847657-.402343 4.109376-1.230468 10.667968-6.996094 17.035156-18.332032 17.035156-30.320313 0-19.460937-16.644532-35.804687-37.894532-37.203125-2.066406-.136718-4.097656.585938-5.609374 1.996094-1.511719 1.414062-2.375 3.386719-2.386719 5.457031-.015625 4.613281-2.964844 8.789063-7.46875 11.113281-1.710938-2.40625-3.789063-4.503906-6.144531-6.226562 14.757812-15.269531 43.0625-41.691406 76.019531-66.945312l14.578125 5.453124c18.589844 6.957032 31.078125 24.964844 31.078125 44.816407v82.988281h-29.8125v-34.339844c0-4.140625-3.355469-7.5-7.5-7.5s-7.5 3.359375-7.5 7.5v34.339844h-186.035157v-34.339844c0-4.140625-3.359374-7.5-7.5-7.5-4.144531 0-7.5 3.359375-7.5 7.5v34.339844h-29.8125v-82.988281c0-5.316407.875-10.5625 2.601563-15.582031 1.347656-3.917969-.734375-8.1875-4.652344-9.53125-3.917969-1.347657-8.183593.734374-9.53125 4.652343-2.265625 6.59375-3.417969 13.480469-3.417969 20.457031v86.121094c0 6.546875 5.324219 11.871094 11.871094 11.871094h281.917969c6.546875 0 11.871094-5.324219 11.871094-11.871094v-86.121094c0-26.070312-16.40625-49.726562-40.820313-58.863281l-5.527344-2.066406c19.367188-14.015625 39.828126-27.085937 59.75-36.957031 2.128907-1.058594 3.632813-3.0625 4.050782-5.402344.417968-2.339844-.296875-4.738281-1.929688-6.46875zm-202.597656 45.828125c19.570312 7.3125 40.371094 11.695313 61.273438 12.910156-18.628907 21.300781-53.019532 13.558594-61.273438-12.910156zm70.105469-10.65625c0 3.027344-.375 6.003906-1.101563 8.867187-24.132812-.542968-48.382812-5.671874-70.621094-14.980468v-1.097656c11.355469 3.855468 23.394532 5.929687 35.859376 5.929687 12.464843 0 24.507812-2.074219 35.863281-5.929687zm-35.863281-16.285156c-59.953126 0-108.730469-55.375-108.730469-123.445313 0-2.835937.089843-5.710937.261719-8.585937 2.417968-1.808594 5.144531-3.996094 7.949218-6.441407.023438-.019531.046875-.042968.070313-.0625.078125-.066406.152343-.132812.230469-.199218.027343-.027344.058593-.050782.089843-.078125.078125-.066407.152344-.132813.226563-.203125.03125-.023438.058594-.050782.089844-.074219.074218-.066406.144531-.128906.21875-.195313.039062-.035156.082031-.070312.121093-.105468.054688-.050782.109375-.101563.164063-.148438.070312-.0625.136718-.121094.203125-.183594.027343-.023437.054687-.046874.082031-.070312.082031-.074219.167969-.152344.25-.226562.023438-.019532.046875-.042969.070312-.0625.085938-.078126.167969-.152344.253907-.230469.023437-.019531.042969-.039063.066406-.058594.097656-.089844.199219-.179687.296875-.273437 9.824219-8.96875 19.761719-20.625 20.09375-30.007813.359375-9.835937-15.714844-56.597656-8.863281-63.726563.058593-.011718.121093-.023437.1875-.027343 10.722656-1.046875 43.738281 31.984375 86.671875 31.984375 35.699218 0 63.820312-22.628906 80.8125-30.234375.058594-.03125.125-.058594.183594-.085938.03125-.011719.066406-.027343.097656-.039062.019531-.011719.042968-.019531.066406-.03125.003906-.003907.011719-.003907.019531-.007813 2.492188-1.09375 4.601563-1.773437 5.679688-1.558594 6.800781 7.03125-9.21875 54.023438-8.863281 63.722657.027343.824219.132812 1.664062.300781 2.515625v.003906c.023437.105469.046875.214844.070312.320312 2.582031 11.835938 17.804688 26.285157 28.464844 34.539063.558594.429687 1.105469.847656 1.636719 1.246094.175781 2.875.265625 5.753906.265625 8.585937-.003907 68.070313-48.78125 123.445313-108.738281 123.445313zm133.5625-77.65625c-5.210938 6.035156-12.824219 7.863281-19.574219 8.066406 6.273437-16.5625 9.746093-34.765625 9.746093-53.855469 0-3.597656-.128906-7.253906-.382812-10.898437 7.074219-6.34375 14.324219-12.8125 20.765625-18.535157.085937-.074218.167969-.148437.25-.226562 1.628906-1.449219 3.203125-2.847656 4.710937-4.183594-1.253906 39.660156-7.085937 69.847656-15.515624 79.632813zm-267.117188.003906c-8.433594-9.789063-14.265625-39.96875-15.519531-79.636719 1.503906 1.335938 3.078125 2.734375 4.703125 4.179688.085937.078125.171875.15625.257812.230468 6.449219 5.738282 13.703125 12.207032 20.761719 18.535157-.253906 3.644531-.378906 7.300781-.378906 10.898437 0 19.09375 3.472656 37.292969 9.746093 53.855469-6.75-.199219-14.367187-2.027344-19.570312-8.0625zm78.4375 223.859375c-3.570312-3.890625-5.542969-8.699219-5.542969-13.792969 0-9.636719 7.257813-18.015625 17.40625-21.070312 2.601563 7.292969 8.386719 13.355469 15.96875 16.65625.003907.207031-.140625 1.699219.0625 4.023437-10.582031 2.226563-20.25 7.140625-27.894531 14.183594zm55.117188-4.292969c-8.632813 0-14.46875-8.566406-11.589844-16.558593 0-.003907 0-.003907 0-.003907 1.871094-5.125 7.132812-8.972656 13.976562-7.875 8.085938 1.605469 12.203125 10.410157 8.6875 17.523438-2.085937 4.265625-6.328125 6.914062-11.074218 6.914062zm43.257812-30.570312c10.148438 3.054687 17.402344 11.433593 17.402344 21.070312 0 5.09375-1.96875 9.902344-5.542969 13.792969-7.640625-7.042969-17.3125-11.957031-27.894531-14.183594.199218-2.308594.0625-3.886718.0625-4.019531 7.585937-3.304687 13.367187-9.367187 15.972656-16.660156zm-42.722656-9.09375c-.175782-.003907-.355469-.007813-.535156-.007813-.015626 0-.035157 0-.050782 0-20.644531-22.285156-86.015625-82.964844-148.730468-117.085937 8.976562-4.957031 25.648437-11.34375 56.292968-16.730469 11.5 14.476562 25.664063 26.246094 41.628906 34.332031v12.179688c0 .050781-.003906.101562-.003906.152343v1.1875c0 12.820313 4.769532 24.546876 12.621094 33.5 9.328125 10.636719 23.015625 17.363282 38.242188 17.363282 6.261718 0 12.351562-1.125 18.035156-3.273438.035156-.015625.070312-.027344.105468-.039062.101563-.039063.199219-.078125.300782-.117188 9.480468-3.671875 17.683594-10.132812 23.5-18.632812 5.800781-8.40625 8.921875-18.363282 8.921875-28.792969v-13.527344c15.960937-8.085937 30.128906-19.855469 41.628906-34.332031 30.640625 5.382812 47.316406 11.777344 56.292969 16.730469-62.648438 34.101562-127.640625 94.710937-148.25 117.09375zm0 0"/><path d="m225.289062 256.191406c1.375-1.054687 2.730469-2.152344 4.054688-3.285156 3.144531-2.695312 3.507812-7.429688.8125-10.578125-2.695312-3.140625-7.429688-3.507813-10.574219-.808594-29.421875 25.226563-69.324219 24.035157-97.363281 0-3.144531-2.699219-7.878906-2.332031-10.574219.8125-2.699219 3.144531-2.332031 7.878907.8125 10.574219 1.324219 1.136719 2.679688 2.234375 4.054688 3.285156l-7.0625 30.832032c-1.019531 4.449218.914062 9.03125 4.8125 11.40625 1.703125 1.035156 3.609375 1.546874 5.507812 1.546874 2.445313 0 4.871094-.847656 6.832031-2.507812l28.332032-23.960938c5.226562.976563 10.585937 1.46875 15.964844 1.46875 5.363281 0 10.710937-.492187 15.964843-1.46875l28.332031 23.960938c1.960938 1.660156 4.390626 2.507812 6.835938 2.507812 1.894531 0 3.804688-.511718 5.507812-1.546874 3.894532-2.375 5.828126-6.957032 4.808594-11.402344zm-95.359374 8.59375c2.550781 1.34375 5.148437 2.558594 7.789062 3.640625l-10.691406 9.042969zm74.152343 3.640625c2.644531-1.082031 5.238281-2.296875 7.785157-3.636719l2.90625 12.679688zm0 0"/></svg>