<svg height="512pt" viewBox="-81 0 512 512.001" width="512pt" xmlns="http://www.w3.org/2000/svg"><path d="m278.386719 72.867188h-206.152344c-26.296875 62.390624-64.730469 91.941406-64.730469 169.585937 0 53.386719 38.730469 83.335937 82.128906 99.6875 43.398438 16.351563 76.550782 19.390625 85.675782 19.390625 9.128906 0 42.28125-3.039062 85.679687-19.390625 43.398438-16.351563 82.128907-46.300781 82.128907-99.6875 0-77.644531-38.433594-107.195313-64.730469-169.585937zm0 0" fill="#f9dc6a"/><path d="m278.386719 72.867188h-21.140625c25.890625 54.941406 59.667968 85.460937 59.667968 158.253906 0 53.386718-38.730468 83.335937-82.128906 99.6875-43.398437 16.351562-76.550781 19.390625-85.675781 19.390625-8.816406 0-40.058594-2.839844-81.292969-17.773438 7.019532 3.671875 14.34375 6.902344 21.816406 9.714844 43.398438 16.351563 76.550782 19.394531 85.675782 19.394531 9.128906 0 42.28125-3.042968 85.679687-19.394531 43.398438-16.351563 82.128907-46.300781 82.128907-99.6875 0-77.644531-38.433594-107.195313-64.730469-169.585937zm0 0" fill="#e5ac51"/><path d="m306.835938 504.5h-263.050782c-2.253906 0-4.078125-1.828125-4.078125-4.078125v-80.355469c0-21.542968 13.371094-40.820312 33.546875-48.371094l102.054688-38.1875 102.058594 38.1875c20.175781 7.550782 33.546874 26.828126 33.546874 48.371094v80.355469c0 2.25-1.824218 4.078125-4.078124 4.078125zm0 0" fill="#c8e7f7"/><path d="m277.367188 371.695312-102.058594-38.1875-11.25 4.207032 90.808594 33.980468c20.175781 7.550782 33.546874 26.828126 33.546874 48.371094v80.355469c0 2.253906-1.824218 4.078125-4.078124 4.078125h22.5c2.253906 0 4.078124-1.824219 4.078124-4.078125v-80.355469c0-21.542968-13.371093-40.820312-33.546874-48.371094zm0 0" fill="#accfdd"/><path d="m276.066406 246.472656c-10.972656 30.957032-32.863281 55.675782-60.300781 68.117188-12.5 5.667968-26.148437 8.777344-40.457031 8.777344-14.304688 0-27.953125-3.121094-40.453125-8.789063-26.839844-12.15625-48.367188-36.066406-59.570313-66.078125 2.300782-18.566406 7.9375-35.953125 14.347656-47.3125 12.125-21.523438 45.871094-23.53125 81.835938-23.53125 35.820312 0 42.035156-32.265625 44.296875-51.550781 15.523437 9.390625 57.371094 61.691406 60.300781 120.367187zm0 0" fill="#bdcdd6"/><path d="m256.824219 179.039062c.617187 5.238282.941406 10.585938.941406 16.015626 0 66.550781-47.886719 120.496093-106.953125 120.496093-5.859375 0-11.601562-.539062-17.203125-1.558593.414063.195312.828125.398437 1.246094.585937 12.5 5.667969 26.148437 8.789063 40.453125 8.789063 14.308594 0 27.957031-3.109376 40.457031-8.777344 27.4375-12.441406 49.328125-37.164063 60.300781-68.117188-1.222656-24.472656-9.214844-47.832031-19.242187-67.433594zm0 0" fill="#97aeba"/><path d="m276.070312 246.46875c-1.371093 3.859375-2.910156 7.621094-4.609374 11.28125-17.242188 5.480469-35.28125 8.839844-53.210938 11.480469-42.339844 6.230469-85.21875 8.828125-128 7.757812-6.058594-8.628906-11.121094-18.199219-14.96875-28.488281.660156-5.320312 1.597656-10.550781 2.75-15.570312 13.328125 1.308593 26.789062 1.570312 40.167969 1.089843 29.03125-1.050781 57.820312-5.519531 86.519531-9.988281 21.820312-3.402344 43.953125-6.890625 64.703125-14.152344 3.589844 11.660156 6.019531 23.980469 6.648437 36.589844zm0 0" fill="#d8e6f0"/><path d="m269.417969 209.882812c-4.265625 1.488282-8.589844 2.816407-12.957031 4.019532-2.691407 19.308594-9.453126 37.085937-19.265626 52.199218 11.59375-2.148437 23.097657-4.800781 34.265626-8.351562.847656-1.824219 1.65625-3.675781 2.421874-5.550781.769532-1.882813 1.5-3.792969 2.183594-5.726563-.613281-12.304687-2.964844-24.578125-6.648437-36.589844zm0 0" fill="#bdcdd6"/><path d="m227.390625 220.308594c-7.550781 1.363281-15.128906 2.542968-22.671875 3.722656-28.699219 4.46875-57.488281 8.9375-86.519531 9.988281-13.378907.480469-26.839844.21875-40.167969-1.089843 2.847656-12.46875 7.027344-23.640626 11.597656-31.738282 8.152344-14.472656 26.082032-20.121094 47.882813-22.261718 17.457031 14.539062 37.949219 25.609374 59.449219 33.089843 9.949218 3.46875 20.121093 6.199219 30.429687 8.289063zm0 0" fill="#6e7093"/><path d="m80.753906 121.980469c.640625 1.09375 2.113282 1.324219 3.078125.5 23.335938-19.941407 55.699219-32.296875 91.476563-32.296875 35.78125 0 68.144531 12.355468 91.480468 32.292968.964844.824219 2.4375.597657 3.078126-.496093 8.695312-14.828125 16.195312-30.390625 21.785156-46.097657 1.113281-3.121093.6875-6.601562-1.199219-9.324218-24.640625-35.578125-67.007813-59.058594-115.144531-59.058594-48.132813 0-90.5 23.480469-115.140625 59.058594-1.882813 2.722656-2.308594 6.203125-1.199219 9.324218 5.589844 15.707032 13.089844 31.269532 21.785156 46.097657zm0 0" fill="#e6eff5"/><path d="m290.453125 66.558594c-7.65625-11.050782-17.019531-20.929688-27.734375-29.304688 3.414062 3.949219 6.625 8.0625 9.589844 12.34375 2.089844 3.015625 2.5625 6.871094 1.332031 10.324219-6.109375 17.167969-14.289063 34.175781-23.753906 50.402344 6.039062 3.640625 11.695312 7.707031 16.902343 12.15625.960938.824219 2.4375.59375 3.078126-.5 8.691406-14.828125 16.195312-30.390625 21.785156-46.097657 1.109375-3.121093.683594-6.601562-1.199219-9.324218zm0 0" fill="#c5d3d6"/><path d="m215.847656 329.933594h-81.015625c-13.195312 0-25.234375 7.535156-31.003906 19.40625l-39.328125 80.925781h46.578125l50.339844 23.980469h27.84375l50.339843-23.980469h46.578126l-39.328126-80.925781c-5.769531-11.871094-17.804687-19.40625-31.003906-19.40625zm0 0" fill="#e6eff5"/><path d="m215.765625 348.644531v-34.054687c-12.5 5.667968-26.148437 8.78125-40.457031 8.78125-14.304688 0-27.953125-3.125-40.453125-8.792969v34.066406l-4.5625 1.707031c-10.484375 3.921876-16.75 14.640626-15.128907 25.714844 4.210938 28.761719 20.046876 63.035156 60.144532 93.933594 40.101562-30.898438 55.9375-65.171875 60.148437-93.933594 1.621094-11.074218-4.644531-21.792968-15.128906-25.714844zm0 0" fill="#f9c295"/><path d="m215.765625 340.46875v-25.878906c-12.5 5.667968-26.148437 8.78125-40.457031 8.78125-14.304688 0-27.953125-3.125-40.453125-8.792969v12.738281c4.574219 3.019532 9.359375 5.675782 14.332031 7.929688 12.503906 5.667968 26.148438 8.789062 40.457031 8.789062 9.007813 0 17.757813-1.234375 26.121094-3.566406zm0 0" fill="#e59f6a"/><path d="m273.46875 225.820312c-26.039062-1.140624-51.929688-5.242187-76.507812-13.800781-21.5-7.480469-41.992188-18.550781-59.449219-33.089843 10.628906-1.058594 22.179687-1.269532 33.957031-1.269532 35.820312 0 42.042969-32.269531 44.300781-51.550781 13.671875 8.269531 47.761719 49.832031 57.699219 99.710937zm0 0" fill="#bdcdd6"/><path d="m257.765625 195.054688c0 10.136718-1.117187 19.980468-3.210937 29.386718 6.28125.644532 12.582031 1.101563 18.894531 1.375-3.1875-16.007812-9.011719-31.878906-16.625-46.765625.617187 5.238281.941406 10.578125.941406 16.003907zm0 0" fill="#97aeba"/><path d="m138.816406 206.863281c0 7.472657-6.058594 13.53125-13.535156 13.53125-7.472656 0-13.53125-6.058593-13.53125-13.53125 0-7.476562 6.058594-13.535156 13.53125-13.535156 7.476562 0 13.535156 6.058594 13.535156 13.535156zm0 0" fill="#bfea92"/><path d="m263.632812 349.15625c56.910157-21.4375 86.988282-58.335938 86.988282-106.707031 0-54.820313-18.671875-86.917969-38.441406-120.898438-5.898438-10.144531-11.984376-20.609375-17.753907-31.980469 1.542969-3.742187 2.976563-7.46875 4.292969-11.175781 1.925781-5.410156 1.140625-11.429687-2.101562-16.109375-27.015626-39-72.363282-62.285156-121.308594-62.285156-48.941406 0-94.289063 23.285156-121.304688 62.285156-3.242187 4.679688-4.027344 10.703125-2.101562 16.109375 1.316406 3.707031 2.75 7.433594 4.292968 11.175781-5.78125 11.398438-11.878906 21.878907-17.792968 32.042969-4.808594 8.265625-9.347656 16.070313-13.679688 24.246094-1.9375 3.660156-.546875 8.199219 3.113282 10.136719 1.121093.59375 2.324218.875 3.507812.875 2.6875 0 5.285156-1.449219 6.632812-3.988282 4.191407-7.914062 8.660157-15.59375 13.390626-23.726562 4.183593-7.191406 8.457031-14.539062 12.679687-22.300781 3.121094 6.296875 6.535156 12.609375 10.234375 18.917969 1.425781 2.4375 3.839844 4.101562 6.625 4.570312.53125.085938 1.0625.132812 1.589844.132812 2.257812 0 4.457031-.800781 6.207031-2.296874 23.011719-19.664063 53.769531-30.496094 86.601563-30.496094 32.835937 0 63.59375 10.832031 86.605468 30.496094 2.160156 1.84375 5 2.632812 7.796875 2.164062 2.785157-.472656 5.199219-2.136719 6.625-4.570312 3.699219-6.308594 7.117188-12.621094 10.238281-18.917969 4.207032 7.738281 8.46875 15.066406 12.640626 22.234375 19.535156 33.582031 36.40625 62.585937 36.40625 113.359375 0 42.175781-26 73.355469-77.277344 92.671875-3.164063 1.191406-6.332032 2.335937-9.464844 3.414062-6.34375-8.054687-15.507812-13.589844-25.613281-15.433594v-3.800781c15.882812-8.085937 29.886719-20.113281 40.980469-34.929687-1.875 6.304687-4.339844 12.417968-7.386719 18.320312-1.902344 3.679688-.457031 8.203125 3.222656 10.105469 3.679687 1.898437 8.203125.457031 10.101563-3.226563 10.023437-19.398437 14.523437-40.757812 13.371093-63.472656-3.128906-62.667968-47.550781-116.519531-63.910156-126.410156-.394531-.242188-.808594-.441406-1.234375-.601562-.015625-.003907-.027344-.011719-.039062-.015626-.007813 0-.011719-.003906-.019532-.003906-1.328125-.492187-2.769531-.59375-4.152344-.296875-.59375.125-1.171874.324219-1.730468.597657-.816406.402343-1.542969.9375-2.148438 1.582031-1.097656 1.15625-1.8125 2.652343-2.003906 4.28125-3.691406 31.488281-14.710938 44.921875-36.851562 44.921875-30.875 0-73.339844.679687-88.367188 27.351562-5.066406 8.980469-9.375 20.804688-12.296875 33.410156-.058594.214844-.105469.429688-.148437.652344-1.195313 5.253906-2.148438 10.640625-2.8125 16.007813-2.09375 16.835937-2.410157 41.246093 7.957031 61.917969 1.316406 2.625 3.960937 4.140624 6.710937 4.140624 1.128906 0 2.277344-.257812 3.355469-.796874 3.703125-1.855469 5.199219-6.363282 3.34375-10.066407-3.394531-6.765625-5.664063-14.894531-6.761719-23.949219.421875.625.84375 1.246094 1.273438 1.863282.246094.429687.53125.832031.851562 1.203125 11.382813 15.960937 26.070313 28.898437 42.78125 37.402343v3.820313c-10.085937 1.855469-19.234375 7.394531-25.5625 15.441406-3.164062-1.085937-6.351562-2.234375-9.519531-3.433593-51.273437-19.3125-77.273437-50.492188-77.273437-92.667969 0-23.21875 3.46875-43.296875 10.917968-63.191407 1.449219-3.878906-.519531-8.203124-4.398437-9.652343-3.878907-1.453125-8.199219.515625-9.652344 4.394531-8.089844 21.632812-11.859375 43.382812-11.859375 68.449219 0 48.371093 30.078125 85.273437 86.980469 106.707031 2.429687.917969 4.871093 1.808594 7.304687 2.664062l-2.375 4.886719-21.289062 7.96875c-22.972656 8.601563-38.410156 30.859375-38.410156 55.394531v80.351563c0 6.386719 5.195312 11.578125 11.578124 11.578125h263.042969c6.382813 0 11.578125-5.191406 11.578125-11.578125v-33.160156c0-4.144531-3.359375-7.5-7.5-7.5s-7.5 3.355469-7.5 7.5v29.738281h-34.921875v-41.519531c0-4.144531-3.355469-7.5-7.5-7.5-4.140625 0-7.5 3.355469-7.5 7.5v41.519531h-155.179687v-40.847656c0-4.140625-3.355469-7.5-7.5-7.5-4.140625 0-7.5 3.359375-7.5 7.5v40.847656h-36.097656v-76.929688c0-18.3125 11.519531-34.929687 28.667968-41.347656l6.519532-2.4375-24.644532 50.707032c-1.128906 2.324218-.980468 5.066406.390625 7.253906 1.371094 2.191406 3.773438 3.523437 6.355469 3.523437h44.886719l39.570312 18.851563c6.304688 6.484375 13.519531 12.957031 21.777344 19.320312 1.347656 1.039063 2.960937 1.558594 4.574219 1.558594 1.617187 0 3.230468-.519531 4.578125-1.558594 8.238281-6.347656 15.4375-12.800781 21.730469-19.273437l39.679687-18.898438h44.882813c2.585937 0 4.988281-1.332031 6.359374-3.523437 1.371094-2.1875 1.515626-4.929688.386719-7.253906l-24.628906-50.679688 6.445313 2.414062c17.144531 6.417969 28.667968 23.03125 28.667968 41.34375v17.191407c0 4.140625 3.355469 7.5 7.5 7.5 4.140625 0 7.5-3.359375 7.5-7.5v-17.191407c0-24.535156-15.4375-46.796874-38.410156-55.394531l-21.21875-7.941406-2.394531-4.929687c2.410156-.851563 4.832031-1.734376 7.246093-2.648438zm2.941407-236.511719c-25.070313-19.363281-57.210938-29.957031-91.265625-29.957031-34.050782 0-66.191406 10.59375-91.261719 29.957031-4.761719-8.53125-8.96875-17.046875-12.585937-25.464843-.074219-.199219-.160157-.394532-.25-.585938-1.890626-4.441406-3.621094-8.851562-5.175782-13.226562-.3125-.871094-.199218-1.820313.300782-2.539063 24.210937-34.957031 64.949218-55.828125 108.972656-55.828125 44.027344 0 84.765625 20.871094 108.976562 55.828125.5.71875.613282 1.667969.300782 2.539063-1.554688 4.371093-3.28125 8.78125-5.171876 13.214843-.097656.199219-.183593.402344-.261718.609375-3.613282 8.414063-7.816406 16.921875-12.578125 25.453125zm-157.398438 80.707031c-9.265625 11.027344-4.933593 28.007813 8.644531 33.175782-10.515624.375-20.664062.253906-30.289062-.355469 4.191406-14.308594 8.386719-26.328125 21.644531-32.820313zm25.988281-6.652343c16.589844 13.332031 35.8125 23.964843 57.210938 31.65625-18.898438 2.902343-38.15625 5.65625-57.40625 7.175781 6.734375-3.511719 11.347656-10.5625 11.347656-18.667969 0-9.113281-5.828125-16.894531-13.953125-19.808593.925781-.125 1.859375-.242188 2.800781-.355469zm-9.878906 26.195312c-3.328125 0-6.035156-2.703125-6.035156-6.03125s2.707031-6.035156 6.035156-6.035156c3.324219 0 6.03125 2.707031 6.03125 6.035156s-2.707031 6.03125-6.03125 6.03125zm-42.316406 34.699219c.3125-2.308594.664062-4.46875 1.058594-6.625 7.085937.515625 14.441406.773438 22.011718.773438 4.085938 0 8.234376-.078126 12.433594-.226563 29.589844-1.070313 58.980469-5.648437 87.410156-10.074219l.671876-.105468c6.78125-1.0625 13.777343-2.160157 20.714843-3.386719 3.804688.753906 7.65625 1.433593 11.550781 2.03125 9.058594 1.40625 18.558594 2.417969 28.316407 3.015625.648437 4.136718 1.101562 8.234375 1.355469 12.367187-.777344 2.105469-1.605469 4.183594-2.488282 6.222657-17.410156 5.238281-35.132812 8.203124-48.84375 10.226562-40.558594 5.964844-81.867187 8.582031-122.851562 7.765625-4.46875-6.800781-8.289063-14.171875-11.339844-21.984375zm138.125-107.054688c18.414062 19.109376 35.066406 48.699219 42.632812 76.5625v.003907c.058594.203125.113282.40625.164063.609375l.011719.027344c-7.839844-.582032-15.472656-1.445313-22.792969-2.585938-3.996094-.613281-7.945313-1.316406-11.835937-2.105469-.253907-.066406-.511719-.117187-.773438-.15625-10.121094-2.082031-19.859375-4.746093-29.078125-7.957031-14.464844-5.035156-28.214844-11.714844-40.578125-19.671875 4.175781-.082031 8.398438-.109375 12.621094-.109375 34.6875 0 45.65625-26.097656 49.628906-44.617188zm-114.886719 144.179688c.890625.003906 1.78125.003906 2.675781.003906 36.914063 0 73.988282-2.707031 110.460938-8.070312 10.5625-1.558594 23.429688-3.660156 36.859375-6.894532-11.082031 16.824219-26.148437 30.117188-43.535156 38-2.222657 1.007813-4.472657 1.925782-6.746094 2.746094-.191406.070313-.378906.136719-.570313.207032-9.675781 3.425781-19.746093 5.15625-30.042968 5.15625-.199219 0-.402344 0-.605469 0-12.691406-.085938-25.050781-2.816407-36.753906-8.121094-.015625-.007813-.03125-.011719-.046875-.019532-11.785156-5.34375-22.535156-13.21875-31.695313-23.007812zm8.097657 138.78125c-1.007813-.480469-2.105469-.730469-3.222657-.730469h-34.597656l27.527344-56.640625c.058593-.113281.113281-.230468.167969-.347656l6.394531-13.164062c3.367187-6.921876 9.566406-12.007813 16.78125-14.113282v4.941406c-13.480469 5.210938-21.714844 19.328126-19.609375 33.707032 2.136718 14.597656 7.53125 33.109375 19.972656 52.734375zm61.003906 36.929688c-37.601563-30.726563-49.46875-63.226563-52.722656-85.449219-1.105469-7.546875 3.242187-14.949219 10.335937-17.601563l4.5625-1.707031c2.929687-1.097656 4.871094-3.898437 4.871094-7.027344v-23.085937c20.84375 6.910156 43.953125 7.269531 65.910156.007812v23.078125c0 3.128907 1.941406 5.929688 4.871094 7.027344l4.5625 1.707031c7.09375 2.652344 11.441406 10.054688 10.335937 17.601563-3.253906 22.222656-15.121094 54.722656-52.726562 85.449219zm64.292968-37.660157c-1.117187 0-2.21875.25-3.226562.730469l-13.496094 6.425781c12.457032-19.636719 17.859375-38.164062 20-52.769531 2.105469-14.378906-6.132812-28.5-19.613281-33.710938v-4.957031c6.660156 1.925781 12.457031 6.390625 15.972656 12.492188.0625.125.132813.246093.203125.363281.230469.417969.453125.84375.664063 1.273438l34.09375 70.152343zm0 0"/><path d="m184.308594 40.636719h-4.539063v-4.542969c0-4.140625-3.359375-7.5-7.5-7.5-4.144531 0-7.5 3.359375-7.5 7.5v4.542969h-4.542969c-4.140624 0-7.5 3.355469-7.5 7.5s3.359376 7.5 7.5 7.5h4.542969v4.542969c0 4.140624 3.355469 7.5 7.5 7.5 4.140625 0 7.5-3.359376 7.5-7.5v-4.542969h4.539063c4.144531 0 7.5-3.355469 7.5-7.5s-3.355469-7.5-7.5-7.5zm0 0"/></svg>