<svg height="511pt" viewBox="-47 1 511 511.99914" width="511pt" xmlns="http://www.w3.org/2000/svg"><path d="m209.210938 435.859375c-134.03125 0-168.683594-46.742187-174.136719-76.941406-.488281-2.695313 1.277343-5.292969 3.960937-5.84375 30.015625-6.125 29.726563-53.964844 19.851563-92.734375-10.359375-40.675782-23.164063-109.996094 8.167969-173.996094 31.332031-64 110.324218-68.496094 142.15625-40.449219 31.832031-28.046875 110.824218-23.550781 142.15625 40.449219 31.332031 64 18.527343 133.320312 8.167968 173.996094-9.871094 38.769531-10.164062 86.609375 19.851563 92.734375 2.683593.550781 4.449219 3.148437 3.964843 5.84375-5.453124 30.199219-40.109374 76.941406-174.140624 76.941406zm0 0" fill="#6e7093"/><path d="m359.539062 260.339844c10.355469-40.675782 23.160157-109.996094-8.171874-173.996094-21.457032-43.824219-65.257813-59.746094-100.960938-56.421875 28.84375 2.867187 59.625 20.558594 76.105469 58.261719 28.875 66.066406 17.074219 137.632812 7.527343 179.625-9.027343 39.714844-9.363281 88.648437 17.660157 95.582031 2.847656.730469 4.738281 3.4375 4.261719 6.339844-2.445313 14.917969-11.066407 33.707031-32.886719 49.25 42.339843-16.359375 56.898437-41.367188 60.277343-60.050781.488282-2.703126-1.273437-5.304688-3.964843-5.855469-30.015625-6.125-29.722657-53.964844-19.847657-92.734375zm0 0" fill="#4e5173"/><path d="m309.863281 373.523438-60.75-22.730469v-58.230469h-79.804687v58.230469l-60.75 22.730469c-19.894532 7.449218-33.082032 26.460937-33.082032 47.707031v79.246093c0 2.222657 1.800782 4.023438 4.023438 4.023438h259.425781c2.222657 0 4.023438-1.800781 4.023438-4.023438v-79.246093c0-21.246094-13.1875-40.257813-33.085938-47.707031zm0 0" fill="#f9c295"/><path d="m309.863281 373.523438-60.75-22.730469v-58.230469h-15.085937v46.085938c0 7.347656 4.4375 13.960937 11.234375 16.746093l44.238281 18.128907c18.167969 7.445312 30.210938 26.460937 30.210938 47.707031v79.246093c0 2.21875-1.648438 4.023438-3.675782 4.023438h22.890625c2.222657 0 4.023438-1.800781 4.023438-4.023438v-79.246093c0-21.246094-13.1875-40.257813-33.085938-47.707031zm0 0" fill="#e59f6a"/><path d="m169.308594 330.988281c16.304687 11.328125 35.507812 17.875 56.070312 17.875 8.15625 0 16.097656-1.039062 23.734375-2.988281v-53.3125h-79.804687zm0 0" fill="#e59f6a"/><path d="m296.359375 275.246094c-19.390625 30.640625-51.199219 50.617187-87.148437 50.617187-35.949219 0-67.757813-19.976562-87.148438-50.617187 34.761719-33.109375 17.550781-103.378906 13.652344-123.277344-11.980469-61.085938 57.996094-53.359375 73.496094-19.957031 15.5-33.402344 85.476562-41.128907 73.5 19.957031-3.902344 19.898438-21.109376 90.167969 13.648437 123.277344zm0 0" fill="#f9c295"/><path d="m164.210938 213.296875c-4.140626 0-7.5-3.359375-7.5-7.5v-1.8125c0-4.140625 3.359374-7.5 7.5-7.5 4.140624 0 7.5 3.359375 7.5 7.5v1.8125c0 4.140625-3.355469 7.5-7.5 7.5zm0 0"/><path d="m254.210938 213.296875c-4.140626 0-7.5-3.359375-7.5-7.5v-1.8125c0-4.140625 3.359374-7.5 7.5-7.5 4.140624 0 7.5 3.359375 7.5 7.5v1.8125c0 4.140625-3.355469 7.5-7.5 7.5zm0 0"/><path d="m209.207031 263.175781c-10.460937 0-20.570312-4.378906-27.734375-12.011719-2.832031-3.023437-2.679687-7.769531.339844-10.601562 3.019531-2.835938 7.769531-2.683594 10.601562.335938 4.402344 4.691406 10.363282 7.277343 16.792969 7.277343 6.433594 0 12.402344-2.585937 16.800781-7.277343 2.835938-3.019532 7.582032-3.171876 10.601563-.335938 3.023437 2.832031 3.175781 7.578125.339844 10.601562-7.160157 7.632813-17.273438 12.011719-27.742188 12.011719zm0 0"/><path d="m277.152344 236.757812c-9.519532 47.90625-40.300782 84.003907-77.800782 88.597657 3.246094.335937 6.535157.507812 9.859376.507812 35.949218 0 67.757812-19.980469 87.148437-50.621093-10.675781-10.164063-16.441406-23.839844-19.207031-38.484376zm0 0" fill="#e59f6a"/><path d="m393.929688 50.945312c-11.410157 23.460938-22.898438 40.269532-33.996094 52.410157-16.332032 17.851562-31.800782 25.578125-44.910156 29.441406-10.210938-20.832031-29.347657-46.449219-56.179688-63.480469 15.171875-18.527344 32.859375-34.988281 50.160156-46.257812 19.910156-12.960938 39.308594-19.039063 53.777344-13.492188 11.660156 4.472656 22.671875 21.773438 31.148438 41.378906zm0 0" fill="#cf579c"/><path d="m321.316406 103.855469c-6.972656-10.457031-16.664062-22.761719-29.441406-34.367188-1.929688-1.75-2.003906-4.769531-.144531-6.597656 9.277343-9.125 18.898437-17.023437 28.1875-23.074219 16.445312-10.707031 26.53125-12.304687 31.078125-12.304687 1.804687 0 3.359375.246093 4.625.730469 1.824218.765624 8.207031 6.488281 16.097656 22.324218-8.429688 16.027344-17.339844 29.222656-26.546875 39.296875-5.75 6.28125-11.519531 11.320313-17.535156 15.265625-2.109375 1.382813-4.921875.824219-6.320313-1.273437zm0 0" fill="#fdeaaf"/><path d="m409.28125 118.90625c-8.882812 12.9375-61.328125.359375-100.277344-95.847656 19.910156-12.960938 39.308594-19.042969 53.777344-13.492188 28.671875 11 53.300781 99.429688 46.5 109.339844zm0 0" fill="#fa7ec1"/><path d="m362.78125 9.566406c-2.898438-1.109375-5.992188-1.746094-9.25-1.964844 22.222656 26.953126 38.480469 90.027344 32.796875 98.304688-2.882813 4.203125-10.367187 5.707031-20.492187 2.535156 21.183593 16.988282 38.65625 17.445313 43.445312 10.464844 6.800781-9.910156-17.828125-98.339844-46.5-109.339844zm0 0" fill="#cf579c"/><path d="m24.492188 50.945312c11.410156 23.460938 22.898437 40.269532 34 52.410157 16.328124 17.851562 31.796874 25.578125 44.90625 29.441406 10.210937-20.832031 29.351562-46.449219 56.179687-63.480469-15.167969-18.527344-32.859375-34.988281-50.15625-46.257812-19.910156-12.960938-39.3125-19.039063-53.78125-13.492188-11.660156 4.472656-22.667969 21.773438-31.148437 41.378906zm0 0" fill="#cf579c"/><path d="m97.105469 103.855469c6.972656-10.457031 16.664062-22.761719 29.445312-34.367188 1.929688-1.75 2-4.769531.140625-6.597656-9.277344-9.125-18.894531-17.023437-28.1875-23.074219-16.445312-10.707031-26.53125-12.304687-31.078125-12.304687-1.804687 0-3.359375.246093-4.621093.730469-1.828126.765624-8.207032 6.488281-16.097657 22.324218 8.425781 16.027344 17.335938 29.222656 26.546875 39.296875 5.746094 6.28125 11.515625 11.320313 17.535156 15.265625 2.105469 1.382813 4.917969.824219 6.316407-1.273437zm0 0" fill="#fdeaaf"/><path d="m9.144531 118.90625c8.878907 12.9375 61.328125.359375 100.277344-95.847656-19.910156-12.960938-39.308594-19.042969-53.78125-13.492188-28.667969 11-53.296875 99.429688-46.496094 109.339844zm0 0" fill="#fa7ec1"/><path d="m209.210938 461.5c-31.519532 0-91.996094-53.496094-91.996094 4v39h183.996094c0-30.5 0-22.328125 0-39 0-57.496094-60.480469-4-92-4zm0 0" fill="#4e5173"/><path d="m155.605469 375.195312c3.480469-1.699218 3.480469-4.507812 0-6.207031-3.476563-1.699219-6.632813-4.53125-7.996094-8.335937-1.359375-3.808594-.53125-8.628906 2.539063-11.058594 3.25-2.570312 7.777343-1.902344 11.707031-.871094 14.316406 3.765625 27.835937 10.898438 39.324219 20.734375v5.269531c-11.488282 9.835938-25.007813 16.964844-39.324219 20.730469-3.929688 1.035157-8.457031 1.699219-11.707031-.871093-3.070313-2.429688-3.898438-7.246094-2.539063-11.054688 1.363281-3.804688 4.519531-6.636719 7.996094-8.335938zm0 0" fill="#cf579c"/><path d="m262.816406 375.195312c-3.476562-1.699218-3.476562-4.507812 0-6.207031 3.480469-1.699219 6.636719-4.53125 7.996094-8.335937 1.359375-3.808594.535156-8.628906-2.539062-11.058594-3.246094-2.570312-7.777344-1.902344-11.707032-.871094-14.3125 3.765625-27.835937 10.898438-39.320312 20.734375v5.269531c11.484375 9.835938 25.007812 16.964844 39.320312 20.730469 3.929688 1.035157 8.460938 1.699219 11.707032-.871093 3.074218-2.429688 3.898437-7.246094 2.539062-11.054688-1.359375-3.804688-4.515625-6.636719-7.996094-8.335938zm0 0" fill="#cf579c"/><path d="m191.210938 362.753906v18.675782c0 9.941406 8.058593 18 18 18 9.941406 0 18-8.058594 18-18v-18.675782c0-9.941406-8.058594-18-18-18-9.941407 0-18 8.058594-18 18zm0 0" fill="#fa7ec1"/><path d="m380.886719 345.726562c-5.515625-1.125-9.761719-4.164062-12.980469-9.296874-8.777344-14-9.199219-42.449219-1.101562-74.242188 11.683593-45.878906 14.660156-85.675781 9.105468-121.671875-.632812-4.09375-4.460937-6.898437-8.554687-6.265625-4.09375.628906-6.902344 4.460938-6.269531 8.554688 6.984374 45.234374-1.6875 87.683593-8.816407 115.679687-3.453125 13.554687-13.445312 59.804687 2.929688 85.914063 4.980469 7.941406 11.804687 13.132812 20.296875 15.457031-2.253906 9.664062-9.082032 25.210937-29.464844 39.011719-2.890625-6.984376-7.15625-13.398438-12.65625-18.910157-2.921875-2.933593-7.671875-2.9375-10.605469-.011719-2.929687 2.925782-2.9375 7.675782-.011719 10.605469 5.824219 5.835938 9.785157 13.035157 11.585938 20.875.046875.308594.113281.617188.199219.921875.597656 2.890625.90625 5.867188.90625 8.886719v75.765625h-26.738281v-31.5c0-15.117188-3.871094-25.023438-11.828126-30.285156-13.617187-9.003906-33.988281-.335938-53.6875 8.046875-12.410156 5.28125-25.246093 10.742187-33.984374 10.742187-8.734376 0-21.570313-5.460937-33.980469-10.742187-19.703125-8.382813-40.070313-17.046875-53.6875-8.046875-7.960938 5.261718-11.828125 15.171875-11.828125 30.285156v31.5h-26.738282v-75.769531c0-18.015625 11.339844-34.367188 28.214844-40.683594l32.222656-12.054687c.964844 1.296874 2.089844 2.503906 3.355469 3.597656-2.867187 2.480468-5.007812 5.523437-6.21875 8.921875-2.550781 7.144531-.511719 15.152343 4.941407 19.457031 3.34375 2.652344 7.128906 3.417969 10.476562 3.417969 3.320312 0 6.210938-.757813 7.792969-1.171875 8-2.105469 15.722656-5.15625 23.050781-9.105469 4.332031 7.929687 12.746094 13.320313 22.398438 13.320313 9.652343 0 18.066406-5.390626 22.398437-13.320313 7.332031 3.949219 15.050781 7 23.058594 9.109375 1.582031.414062 4.472656 1.171875 7.796875 1.171875 3.335937 0 7.117187-.765625 10.449218-3.410156 5.472657-4.3125 7.511719-12.320313 4.957032-19.46875-1.207032-3.390625-3.347656-6.433594-6.21875-8.917969 1.265625-1.09375 2.390625-2.300781 3.355468-3.597656l24.484376 9.160156c.863281.324219 1.753906.480469 2.625.480469 3.039062 0 5.898437-1.863281 7.023437-4.875 1.453125-3.878907-.515625-8.199219-4.394531-9.652344l-26.03125-9.742187c-.667969-4.023438-2.667969-7.691407-5.785156-10.148438-5.574219-4.421875-12.382813-3.601562-16.320313-2.726562v-19.144532c15.882813-8.085937 30.082031-20.195312 41.324219-35.59375 6.699218 4.789063 14.460937 8.375 23.183594 10.699219.648437.171875 1.296874.253906 1.933593.253906 3.316407 0 6.347657-2.214843 7.242188-5.570312 1.066406-4.003907-1.3125-8.113281-5.316407-9.179688-32.535156-8.664062-42.507812-37.199219-42.476562-70.613281.019531-21.617188 4.324219-42.582031 6.679688-54.046875.316406-1.546875.601562-2.933594.839843-4.144531.019531-.082032.035157-.164063.046875-.242188 5.171875-26.363281-3.582031-45.949218-23.414062-52.390625-19.40625-6.304687-43.847656 1.800781-57.441406 17.441407-13.597657-15.640626-38.035157-23.746094-57.445313-17.441407-19.832031 6.441407-28.582031 26.027344-23.414063 52.390625.25 1.269532.550782 2.734375.890626 4.386719 2.351562 11.464844 6.65625 32.429687 6.679687 54.046875.03125 33.652344-10.089844 61.988281-42.476563 70.613281-4.003906 1.066407-6.382812 5.175781-5.316406 9.179688 1.0625 4 5.175782 6.386719 9.175782 5.316406 8.722656-2.324219 16.484374-5.910156 23.179687-10.699219 11.246094 15.398438 25.445313 27.511719 41.328125 35.59375v19.140625c-3.933594-.871093-10.742188-1.695312-16.304688 2.714844-3.125 2.464844-5.128906 6.136719-5.796874 10.160156l-33.777344 12.636719c-15.390625 5.761719-27.359375 17.726562-33.472656 32.386719-11.453126-7.800781-25.332032-20.679688-29.539063-39.03125 8.5-2.324219 15.324219-7.515625 20.304687-15.457031 16.375-26.109376 6.378907-72.359376 2.929688-85.910157-3.910156-15.363281-9.289062-38.898437-10.890625-65.816406-.246094-4.132813-3.78125-7.308594-7.933594-7.039063-4.136719.246094-7.285156 3.796876-7.039062 7.929688 1.679687 28.195312 7.265625 52.667969 11.328125 68.625 8.097656 31.792969 7.675781 60.242188-1.101563 74.242188-3.21875 5.128906-7.464843 8.171874-12.988281 9.296874-6.632812 1.359376-11.042969 7.878907-9.832031 14.519532 4.925781 27.285156 25.941406 44.746094 40.714843 53.890625-.289062 2.335937-.4375 4.703125-.4375 7.09375v79.25c0 6.351562 5.167969 11.519531 11.519532 11.519531h259.433594c6.355468 0 11.523437-5.167969 11.523437-11.519531v-79.25c0-2.390625-.144531-4.761719-.425781-7.101563 14.769531-9.144531 35.777344-26.605468 40.703125-53.871094 1.207031-6.652343-3.203125-13.167968-9.84375-14.53125zm-171.675781 46.203126c-5.582032 0-10.164063-4.378907-10.480469-9.886719-.003907-.109375-.007813-.214844-.015625-.324219 0-.09375-.003906-.191406-.003906-.289062v-18.675782c0-.09375.003906-.1875.003906-.28125.007812-.109375.011718-.222656.015625-.335937.320312-5.503907 4.898437-9.882813 10.480469-9.882813 5.582031 0 10.164062 4.378906 10.480468 9.882813.003906.113281.007813.226562.015625.335937.003907.09375.003907.1875.003907.28125v18.675782c0 .097656 0 .195312-.003907.289062-.003906.109375-.011719.214844-.011719.324219-.320312 5.503906-4.898437 9.886719-10.484374 9.886719zm54.382812-36.476563c.214844.242187.429688 1.09375.316406 1.980469-.03125.148437-.0625.296875-.085937.445312-.023438.085938-.046875.167969-.074219.25-.570312 1.589844-2.105469 3.089844-4.222656 4.117188-4.269532 2.085937-6.816406 5.761718-6.816406 9.84375-.003907 4.078125 2.546874 7.757812 6.816406 9.84375 2.113281 1.03125 3.652344 2.535156 4.21875 4.121094.390625 1.097656.121094 2.375-.136719 2.664062-.007813.003906-.917969.59375-5.132813-.507812-8.324218-2.191407-16.300781-5.582032-23.765624-10.097657v-12.039062c5.355468-3.238281 10.972656-5.898438 16.789062-7.949219.265625-.078125.523438-.167969.777344-.273438 2.039062-.699218 4.105468-1.324218 6.191406-1.871093 4.195312-1.097657 5.117188-.527344 5.125-.527344zm-131.96875-79.402344c26.511719-30.953125 20.511719-81.335937 12.308594-121.273437-.304688-1.496094-.582032-2.84375-.8125-4.019532-.019532-.078124-.03125-.15625-.046875-.230468-4.710938-24.019532 4.648437-32.421875 13.328125-35.238282 15.375-4.996093 36.796875 3.714844 44.910156 17.765626.132812.230468.261719.464843.386719.695312.125.234375.25.46875.367187.707031.117188.234375.230469.472657.34375.710938 1.226563 2.648437 3.882813 4.34375 6.800782 4.34375 2.921874 0 5.574218-1.695313 6.804687-4.34375 7.085937-15.273438 29.878906-25.121094 46.007813-19.878907 8.679687 2.816407 18.039062 11.21875 13.328124 35.238282-.03125.152344-.0625.3125-.09375.46875-.222656 1.117187-.480468 2.382812-.769531 3.78125-8.324219 40.554687-14.125 89.734375 12.3125 121.273437-18.820312 26.601563-47.441406 42.3125-77.585937 42.3125-30.152344 0-58.773438-15.714843-77.589844-42.3125zm77.585938 57.3125c11.09375 0 21.996093-1.808593 32.398437-5.25v17.734375c-3.402344 1.394532-6.738281 2.972656-10 4.726563-4.328125-7.929688-12.746094-13.320313-22.398437-13.320313-9.652344 0-18.070313 5.390625-22.398438 13.320313-3.257812-1.753907-6.597656-3.332031-10-4.726563v-17.734375c10.40625 3.441407 21.304688 5.25 32.398438 5.25zm-54.398438 22.105469c.007812-.003906.914062-.597656 5.128906.507812 2.097656.550782 4.167969 1.179688 6.214844 1.882813.246094.101563.5.1875.757812.261719 5.820313 2.054687 11.441407 4.714844 16.796876 7.953125v12.039062c-7.464844 4.515625-15.441407 7.90625-23.757813 10.09375-4.191406 1.101563-5.113281.527344-5.121094.527344-.273437-.304687-.546875-1.582031-.15625-2.679687.566407-1.589844 2.105469-3.089844 4.21875-4.125 4.269531-2.082032 6.820313-5.761719 6.820313-9.84375-.003906-4.078126-2.550782-7.757813-6.835938-9.847657-2.101562-1.019531-3.632812-2.519531-4.203125-4.105469-.03125-.082031-.054687-.167968-.078125-.253906-.023437-.148437-.050781-.292968-.085937-.441406-.113281-.886719.097656-1.742188.300781-1.96875zm-30.097656 141.53125v-31.5c0-6.570312.882812-14.984375 5.101562-17.773438 6.890625-4.554687 24.992188 3.148438 39.539063 9.335938 13.796875 5.871094 28.0625 11.9375 39.855469 11.9375 11.792968 0 26.058593-6.066406 39.855468-11.9375 14.546875-6.1875 32.652344-13.890625 39.539063-9.335938 4.21875 2.789063 5.105469 11.203126 5.105469 17.773438v31.5zm0 0"/><path d="m400.914062 48.222656c-.027343-.066406-.050781-.128906-.078124-.195312-.089844-.210938-.179688-.421875-.273438-.628906-11.246094-26.339844-23.824219-40.859376-39.558594-45.671876-15.308594-4.683593-33.132812.101563-56.09375 15.046876-.011718.007812-.023437.015624-.03125.023437-4.480468 2.917969-9.007812 6.191406-13.535156 9.769531-29.746094-8.761718-61.46875-4.910156-82.132812 9.773438-20.664063-14.683594-52.378907-18.53125-82.117188-9.761719-4.53125-3.582031-9.066406-6.859375-13.546875-9.78125-.011719-.007813-.019531-.015625-.03125-.019531-22.957031-14.945313-40.785156-19.71875-56.113281-15.035156-15.738282 4.8125-28.320313 19.347656-39.546875 45.667968-.089844.203125-.179688.410156-.265625.617188-.027344.0625-.050782.125-.074219.1875-5.914063 13.714844-11.070313 29.597656-14.164063 43.617187-1.589843 7.222657-5.320312 24.125-.386718 31.324219 2.894531 4.21875 8.445312 7.484375 16.566406 7.484375 5.519531 0 14.761719-1.441406 26.679688-8.554687-3.199219 12.976562-5.210938 26.578124-6.011719 40.648437-.234375 4.136719 2.925781 7.679687 7.0625 7.914063.144531.007812.289062.011718.429687.011718 3.949219 0 7.257813-3.085937 7.484375-7.074218.902344-15.902344 3.460938-31.132813 7.617188-45.433594 9.511719 8.472656 19.574219 14.773437 30.40625 19.058594-2.035157 4.917968-3.550781 9.519531-4.523438 13.636718-.953125 4.03125 1.542969 8.070313 5.578125 9.019532.578125.140624 1.15625.203124 1.726563.203124 3.402343 0 6.480469-2.328124 7.292969-5.777343 5.503906-23.292969 32.683593-66.71875 73.558593-85.933594 3.75-1.761719 5.359375-6.230469 3.597657-9.976563-1.765626-3.75-6.230469-5.363281-9.980469-3.597656-3.15625 1.484375-6.238281 3.09375-9.238281 4.808594-6.417969-7.460938-13.1875-14.511719-20.109376-20.960938 24.175782-4.484374 48.8125.253907 63.15625 12.886719 1.414063 1.25 3.183594 1.871094 4.957032 1.871094 1.769531 0 3.539062-.621094 4.957031-1.871094 14.335937-12.632812 38.976563-17.375 63.160156-12.890625-6.921875 6.445313-13.699219 13.5-20.117187 20.964844-3-1.714844-6.082032-3.324219-9.238282-4.808594-3.746093-1.765625-8.214843-.152344-9.976562 3.597656-1.765625 3.746094-.152344 8.214844 3.59375 9.976563 40.875 19.214844 68.058594 62.640625 73.558594 85.933594.816406 3.453125 3.894531 5.777343 7.292968 5.777343.570313 0 1.148438-.0625 1.730469-.203124 4.03125-.949219 6.527344-4.988282 5.574219-9.019532-.972656-4.117187-2.484375-8.71875-4.519531-13.636718 12.652343-5.003907 24.25-12.765626 35.15625-23.511719 17.660156 14.472656 31.277343 16.941406 38.511719 16.941406 1.222656 0 2.265624-.070313 3.109374-.167969 5.890626-.660156 10.671876-3.261718 13.457032-7.316406 0-.003906 0-.003906 0-.003906 8.164062-11.914063-6.539063-56.332032-14.550782-74.929688zm-296.890624 4.734375c5.058593 3.902344 10.136718 8.289063 15.179687 13.113281-9.804687 9.21875-18.761719 19.679688-26.667969 31.164063-3.523437-2.527344-6.972656-5.492187-10.433594-8.964844 8.363282-11.003906 15.691407-23.164062 21.921876-35.3125zm-85.523438 62.648438c-1.582031-.125-2.488281-.492188-2.902344-.738281-1.117187-6.265626 3.832032-33.253907 15.757813-60.875.019531-.039063.035156-.078126.054687-.117188l.328125-.761719c.039063-.089843.074219-.179687.109375-.273437 9.191406-21.375 18.992188-33.402344 29.941406-36.75 9.734376-2.976563 21.988282.1875 38.277344 9.960937-16.195312 38.007813-33.085937 57.042969-33.660156 57.90625-3.96875 4.859375-8.339844 9.609375-12.992188 13.890625-15.113281 13.933594-27.949218 18.308594-34.914062 17.757813zm129.964844-47.8125c-25.707032 18.5-41.234375 42.101562-48.757813 55.851562-10.945312-4.167969-21.050781-10.808593-30.628906-20.132812 1.144531-1.183594 2.191406-2.292969 3.417969-3.644531 4.625 4.53125 9.304687 8.332031 14.183594 11.539062 2.027343 1.328125 4.320312 1.960938 6.589843 1.960938 3.910157 0 7.75-1.878907 10.074219-5.34375 8.238281-12.347657 17.742188-23.441407 28.25-32.980469 2.441406-2.214844 3.882812-5.378907 3.949219-8.675781.066406-3.296876-1.242188-6.511719-3.589844-8.820313-7.023437-6.917969-14.160156-13.074219-21.277344-18.371094.699219-1.539062 1.390625-3.101562 2.082031-4.679687 12.117188 8.910156 24.433594 20.394531 35.707032 33.296875zm187.339844 19.753906c.128906.171875.257812.34375.386718.515625.007813.011719.019532.023438.027344.035156.039062.050782.078125.105469.121094.15625-3.464844 3.476563-6.921875 6.449219-10.453125 8.980469-7.910157-11.484375-16.859375-21.945313-26.664063-31.164063 5.070313-4.84375 10.148438-9.234374 15.1875-13.125 6.625 12.882813 13.78125 24.457032 21.332032 34.523438.023437.023438.042968.050781.0625.078125zm-17.089844 36.097656c-7.523438-13.75-23.050782-37.351562-48.757813-55.851562 11.273438-12.90625 23.59375-24.386719 35.710938-33.296875.066406.148437.132812.296875.199219.445312 0 .007813.003906.015625.007812.023438.617188 1.414062 1.246094 2.816406 1.875 4.210937-7.078125 5.261719-14.214844 11.421875-21.28125 18.371094-2.347656 2.308594-3.65625 5.523437-3.589844 8.820313.066406 3.300781 1.507813 6.464843 3.949219 8.679687 10.507813 9.539063 20.015625 20.632813 28.257813 32.984375 2.316406 3.457031 6.148437 5.335938 10.058593 5.335938 2.273438 0 4.574219-.636719 6.613281-1.96875 4.875-3.207032 9.554688-7.011719 14.179688-11.535157 1.234375 1.359375 2.386719 2.585938 3.410156 3.644531-9.578125 9.324219-19.6875 15.964844-30.632812 20.136719zm84.113281-8.78125c-.417969.25-1.324219.617188-2.90625.742188-11.835937.949219-27.523437-10.722657-36.09375-18.867188-19.625-18.570312-34.917969-45.933593-45.46875-70.691406 16.292969-9.773437 28.542969-12.945313 38.257813-9.976563 10.949218 3.351563 20.753906 15.371094 29.964843 36.78125.03125.089844.066407.175782.101563.261719l.332031.761719s.003906.003906.003906.003906c.007813.019532.015625.039063.023438.058594 11.9375 27.605469 16.898437 54.648438 15.785156 60.925781zm0 0"/></svg>