<svg height="512pt" viewBox="-87 0 512 512.004" width="512pt" xmlns="http://www.w3.org/2000/svg"><path d="m330.359375 212.226562c-5.164063-173.480468-107.839844-203.054687-161.324219-164.316406-53.484375-38.738281-156.160156-9.164062-161.328125 164.316406-3.328125 111.757813 33.84375 178.863282 74.585938 216.152344 19.707031 18.035156 45.613281 27.777344 72.328125 27.777344h28.828125c26.710937 0 52.621093-9.742188 72.328125-27.777344 40.742187-37.289062 77.910156-104.394531 74.582031-216.152344zm0 0" fill="#6e7093"/><path d="m330.359375 212.226562c-4.21875-141.796874-73.582031-187.4375-127.988281-178.234374 47.921875 8.039062 97.269531 59.332031 100.808594 178.234374 3.328124 111.757813-33.839844 178.863282-74.582032 216.152344-19.707031 18.035156-45.617187 27.777344-72.328125 27.777344h27.179688c26.710937 0 52.621093-9.742188 72.328125-27.777344 40.742187-37.289062 77.910156-104.394531 74.582031-216.152344zm0 0" fill="#4e5173"/><path d="m269.691406 373.523438-60.753906-22.734376v-58.230468h-79.804688v58.230468l-60.753906 22.734376c-19.898437 7.445312-33.085937 26.457031-33.085937 47.707031v79.246093c0 2.222657 1.804687 4.023438 4.023437 4.023438h259.433594c2.222656 0 4.023438-1.800781 4.023438-4.023438v-79.246093c0-21.25-13.183594-40.261719-33.082032-47.707031zm0 0" fill="#80b9f9"/><path d="m269.691406 373.523438-60.753906-22.734376v-58.230468h-23.800781v58.230468l60.753906 22.734376c19.898437 7.445312 33.085937 26.457031 33.085937 47.707031v79.246093c0 2.222657-1.804687 4.023438-4.027343 4.023438h23.800781c2.222656 0 4.027344-1.800781 4.027344-4.023438v-79.246093c-.003906-21.25-13.1875-40.261719-33.085938-47.707031zm0 0" fill="#3185db"/><path d="m192.234375 427.570312c-4.089844.28125-42.308594.28125-46.398437 0-64.269532-4.410156-64.199219-33.191406-52.742188-63.300781l36.042969-13.480469v-33.609374c12.328125 5.589843 25.789062 8.679687 39.898437 8.679687s27.570313-3.089844 39.898438-8.679687v33.609374l36.042968 13.480469c11.457032 30.109375 11.527344 58.890625-52.742187 63.300781zm0 0" fill="#f9c295"/><path d="m129.132812 317.179688v17.144531c14.804688 8.726562 31.640626 13.675781 49.507813 13.675781 10.523437 0 20.691406-1.722656 30.296875-4.914062v-25.90625c-12.332031 5.589843-25.792969 8.679687-39.902344 8.679687s-27.570312-3.089844-39.902344-8.679687zm0 0" fill="#e59f6a"/><path d="m266.585938 150.859375c-7.699219 49.691406-21.761719 95-9.542969 122.992187-19.296875 31.417969-51.519531 52.007813-88.007813 52.007813-36.492187 0-68.710937-20.589844-88.011718-52.007813 12.222656-27.992187-1.839844-73.300781-9.539063-122.992187-10.507813-67.898437 58.421875-50.859375 80.570313-36.859375h33.960937c22.148437-14 91.078125-31.039062 80.570313 36.859375zm0 0" fill="#f9c295"/><path d="m253.808594 224.5h-1.226563c-12.921875 50.175781-54.019531 86.851562-102.722656 86.851562-17.910156 0-34.785156-4.964843-49.617187-13.730468 49.496093 46.886718 121.699218 33.375 156.796874-23.78125-5.710937-13.097656-5.675781-29.984375-3.230468-49.339844zm0 0" fill="#e59f6a"/><path d="m169.035156 7.5c-10.378906 0-28.667968 102.589844-28.667968 133.089844 0 15.832031 12.835937 28.667968 28.667968 28.667968 15.832032 0 28.667969-12.835937 28.667969-28.667968-.003906-30.5-18.289063-133.089844-28.667969-133.089844zm0 0" fill="#d8e6f0"/><path d="m295.046875 142.679688c-3.359375-30.878907-23.019531-53.199219-47.339844-62.148438 23.539063-28.761719 70.320313-35.070312 79.738281-23.203125 8.992188 11.351563-8.339843 64.152344-32.398437 85.351563zm0 0" fill="#fa7ec1"/><path d="m309.007812 74.710938c-1.34375 6.867187-4.3125 16.777343-9.632812 27.75-3.410156 7-6.96875 12.769531-10.347656 17.257812-5.269532-12.109375-13.421875-22.078125-23.261719-29.398438 11.332031-11.679687 28.679687-17.671874 40.621094-18.550781 1.628906-.121093 2.929687 1.339844 2.621093 2.941407zm0 0" fill="#fdeaaf"/><path d="m43.023438 142.679688c3.359374-30.878907 23.019531-53.199219 47.339843-62.148438-23.539062-28.761719-70.320312-35.070312-79.742187-23.203125-8.988282 11.351563 8.34375 64.152344 32.402344 85.351563zm0 0" fill="#fa7ec1"/><path d="m29.0625 74.710938c1.339844 6.867187 4.308594 16.777343 9.628906 27.75 3.410156 7 6.972656 12.769531 10.351563 17.257812 5.269531-12.109375 13.421875-22.078125 23.261719-29.398438-11.332032-11.679687-28.683594-17.671874-40.621094-18.550781-1.628906-.121093-2.929688 1.339844-2.621094 2.941407zm0 0" fill="#fdeaaf"/><path d="m194.726562 504.5h-51.382812c-3.007812-24.921875-3.199219-51.96875-.578125-77.171875 1.007813.09375 2.027344.171875 3.070313.242187 4.089843.28125 42.308593.28125 46.398437 0 1.039063-.070312 2.058594-.148437 3.070313-.242187 2.621093 25.203125 2.429687 52.25-.578126 77.171875zm0 0" fill="#e6eff5"/><path d="m7.515625 237h.050781c4.144532-.027344 7.476563-3.410156 7.449219-7.554688-.039063-5.605468.023437-11.328124.1875-16.992187.863281-28.929687 4.53125-54.933594 10.917969-77.546875 2.945312 4.039062 6.007812 7.660156 9.113281 10.746094-.261719 3.863281-.289063 7.800781-.082031 11.761718.210937 4 3.523437 7.105469 7.484375 7.105469.132812 0 .265625-.003906.398437-.011719 4.136719-.214843 7.3125-3.746093 7.097656-7.878906-.234374-4.453125-.117187-8.863281.34375-13.117187 0-.003907 0-.011719 0-.019531 2.796876-25.699219 18.851563-47 41.953126-55.730469.167968-.0625.335937-.125.503906-.1875 4-1.460938 8.097656-2.515625 12.179687-3.140625 4.097657-.625 6.910157-4.453125 6.28125-8.546875-.625-4.09375-4.453125-6.90625-8.546875-6.28125-3.386718.519531-6.777344 1.273437-10.128906 2.257812-5.566406-5.886719-12.003906-10.78125-18.804688-14.734375 15.679688-11.734375 33.792969-17.613281 51.972657-16.6875 4.128906.207032 7.660156-2.976562 7.867187-7.113281.210938-4.136719-2.972656-7.65625-7.109375-7.867187-24.152343-1.207032-48.050781 7.476562-67.804687 24.5625-10.660156-3.96875-21.292969-5.863282-30.113282-5.863282-.15625 0-.308593 0-.460937 0-11.035156.085938-19.167969 3.027344-23.523437 8.515625-8.683594 10.964844-1.054688 35.945313 2.628906 46.179688 2.394531 6.652343 5.21875 13.089843 8.34375 19.109375-9.222656 26.695312-14.4375 58.316406-15.507813 94.050781-.1679685 5.851563-.2343748 11.753906-.191406 17.539063.0273438 4.125 3.378906 7.445312 7.5 7.445312zm40.953125-132.011719c-1.039062-1.859375-2.054688-3.800781-3.027344-5.800781-3.609375-7.445312-5.882812-13.933594-7.300781-18.867188 7.261719 1.621094 15.597656 4.933594 22.59375 9.9375-4.574219 4.308594-8.746094 9.304688-12.265625 14.730469zm-31.972656-42.996093c.882812-1.109376 4.773437-2.777344 11.882812-2.832032.121094-.003906.246094-.003906.367188-.003906 14.59375 0 34.523437 6.445312 48.816406 18.933594-1.554688.839844-3.082031 1.730468-4.570312 2.667968-13.003907-10.808593-29.597657-15.644531-40.757813-16.464843-3.125-.230469-6.113281.980469-8.199219 3.324219-2.078125 2.34375-2.929687 5.445312-2.335937 8.519531l.003906.011719c1.03125 5.285156 3.730469 16.164062 10.246094 29.597656 2.695312 5.527344 5.578125 10.550781 8.601562 14.988281-.722656 1.925781-1.375 3.882813-1.957031 5.867187-2.746094-3.703124-5.402344-7.871093-7.894531-12.382812-.144531-.316406-.3125-.625-.503907-.921875-3.167968-5.851563-6.054687-12.253906-8.496093-18.941406-6.714844-18.390625-6.6875-30.171875-5.203125-32.363281zm0 0"/><path d="m337.863281 212.007812c-1.074219-35.730468-6.289062-67.347656-15.507812-94.046874 3.125-6.015626 5.945312-12.453126 8.339843-19.109376 3.6875-10.230468 11.316407-35.214843 2.625-46.183593-4.351562-5.480469-12.480468-8.425781-23.515624-8.507813-.152344-.003906-.304688-.003906-.460938-.003906-8.816406 0-19.445312 1.894531-30.101562 5.859375-19.898438-17.199219-43.972657-25.886719-68.273438-24.535156-4.136719.230469-7.304688 3.769531-7.074219 7.90625s3.792969 7.3125 7.90625 7.070312c18.304688-1.015625 36.554688 4.851563 52.359375 16.664063-6.800781 3.953125-13.242187 8.851562-18.808594 14.742187-3.351562-.984375-6.742187-1.742187-10.132812-2.257812-4.089844-.621094-7.917969 2.183593-8.546875 6.277343-.625 4.097657 2.1875 7.921876 6.28125 8.550782 4.082031.621094 8.179687 1.679687 12.164063 3.136718.519531.1875 1.03125.382813 1.542968.585938.027344.011719.054688.023438.082032.035156.039062.015625.082031.03125.125.050782 22.257812 8.9375 37.722656 29.667968 40.652343 54.632812.023438.203125.046875.410156.070313.617188.464844 4.25.582031 8.671874.347656 13.132812-.214844 4.136719 2.960938 7.667969 7.097656 7.882812.132813.007813.265625.011719.398438.011719 3.960937 0 7.273437-3.105469 7.480468-7.109375.210938-3.957031.183594-7.898437-.078124-11.757812 3.105468-3.085938 6.167968-6.707032 9.113281-10.746094 6.386719 22.613281 10.054687 48.617188 10.917969 77.546875 1.925781 64.878906-9.726563 119.6875-34.640626 163.085937-4.722656-3.777343-10.070312-6.859374-15.914062-9.046874l-24.347656-9.101563c-.117188-.054687-.238282-.101563-.359375-.148437l-31.167969-11.65625v-23.71875c15.382812-7.824219 29.171875-19.4375 40.246094-34.171876 5.714844 7.148438 13.519531 12.613282 23.335937 16.320313.871094.328125 1.765625.484375 2.644531.484375 3.03125 0 5.886719-1.851562 7.019532-4.855469 1.460937-3.875-.492188-8.203125-4.367188-9.664062-10.636718-4.015625-17.425781-10.070313-21.367187-19.0625-.015625-.042969-.035157-.085938-.054688-.128907-8.347656-19.207031-2.664062-49.214843 3.917969-83.957031 2.128906-11.242187 4.332031-22.871093 6.1875-34.828125 3.585938-23.167968-1.03125-39.867187-13.726562-49.632812-15.640626-12.027344-39.882813-9.84375-59.140626-3.421875-1.761718-12.089844-3.996093-25.171875-6.515624-37.8125-11.25-56.460938-18.523438-61.136719-25.582032-61.136719-7.0625 0-14.332031 4.675781-25.582031 61.140625-2.515625 12.640625-4.753906 25.726563-6.511719 37.8125-19.261718-6.417969-43.5-8.605469-59.144531 3.425781-12.695313 9.765625-17.3125 26.460938-13.722656 49.632813 1.851562 11.957031 4.054687 23.585937 6.183593 34.828125 6.585938 34.769531 12.273438 64.800781 3.894532 84.007812-.003906.011719-.007813.019532-.015625.03125-3.933594 9.011719-10.726563 15.085938-21.378907 19.105469-3.875 1.464844-5.832031 5.789063-4.371093 9.664063 1.132812 3.003906 3.988281 4.855468 7.019531 4.855468.878906 0 1.773438-.15625 2.648438-.484375 9.8125-3.703125 17.621093-9.171875 23.332031-16.316406 11.074219 14.734375 24.867187 26.34375 40.25 34.171875v23.714844l-31.167969 11.65625c-.121094.046875-.242188.097656-.359375.148437l-24.351563 9.105469c-5.839843 2.183594-11.1875 5.265625-15.910156 9.042969-18.53125-32.316407-29.789062-71.226563-33.488281-115.8125-.34375-4.125-3.964844-7.199219-8.09375-6.851563-4.128906.34375-7.199219 3.964844-6.855469 8.09375 4.03125 48.550782 16.695313 90.855469 37.664063 125.847656-7.15625 9.8125-11.28125 21.808594-11.28125 34.414063v79.25c0 6.351563 5.167969 11.519531 11.519531 11.519531h259.441406c6.351563 0 11.519532-5.167968 11.519532-11.519531v-38.484375c0-4.144531-3.355469-7.5-7.5-7.5-4.140626 0-7.5 3.355469-7.5 7.5v35h-34.238282v-40.847656c0-4.140625-3.355468-7.5-7.5-7.5-4.140625 0-7.5 3.359375-7.5 7.5v40.847656h-42.960937c1.960937-20.628906 2.09375-42.113281.382812-62.972656 25.167969-3.125 41.332031-10.839844 49.300781-23.492188 6.664063-10.582031 6.355469-22.878906 3.894532-33.882812l10.402344 3.890625c16.878906 6.320312 28.21875 22.671875 28.21875 40.6875v10.769531c0 4.144531 3.359374 7.5 7.5 7.5 4.144531 0 7.5-3.355469 7.5-7.5v-10.769531c0-12.605469-4.125-24.601563-11.277344-34.410157 27.855468-46.449218 40.929687-105.226562 38.867187-174.8125zm-45.230469-112.832031c-.976562 2.003907-1.988281 3.949219-3.03125 5.8125-3.519531-5.425781-7.59375-10.324219-12.265624-14.730469 6.996093-5.003906 15.332031-8.316406 22.59375-9.9375-1.414063 4.933594-3.6875 11.417969-7.296876 18.855469zm6.84375 27.425781c-.582031-1.984374-1.234374-3.941406-1.957031-5.867187 3.023438-4.4375 5.90625-9.464844 8.605469-15.003906 6.507812-13.417969 9.210938-24.296875 10.242188-29.585938 0-.003906 0-.007812 0-.011719.597656-3.070312-.253907-6.175781-2.335938-8.519531s-5.070312-3.558593-8.199219-3.324219c-11.15625.824219-27.75 5.660157-40.753906 16.46875-1.492187-.9375-3.015625-1.828124-4.574219-2.667968 14.296875-12.488282 34.222656-18.933594 48.816406-18.933594h.371094c7.109375.054688 11 1.726562 11.859375 2.808594 1.503907 2.21875 1.53125 14-5.183593 32.390625-2.441407 6.691406-5.328126 13.09375-8.5 18.949219-.1875.292968-.351563.59375-.496094.90625-2.488282 4.511718-5.148438 8.683593-7.894532 12.390624zm-118.46875-56.859374c.949219 4.96875 1.84375 9.960937 2.679688 14.886718-5.136719.050782-10.234375-.480468-15.222656-1.589844-4.472656-.992187-8.847656-2.449218-13.054688-4.34375.53125-2.980468 1.082032-5.96875 1.648438-8.953124 1.101562-5.78125 2.171875-11.027344 3.199218-15.777344 1.652344.480468 3.3125.902344 4.960938 1.265625 4.332031.960937 8.769531 1.570312 13.25 1.816406.824219 3.914063 1.671875 8.136719 2.539062 12.695313zm-15.789062 27.941406c5.847656 1.300781 11.8125 1.949218 17.820312 1.949218 1.007813 0 2.019532-.019531 3.027344-.054687.546875 3.671875 1.046875 7.246094 1.496094 10.683594.003906.035156.007812.074219.015625.109375.777344 5.96875 1.40625 11.515625 1.851563 16.417968-7.03125.640626-14.167969.203126-20.957032-1.300781-6.621094-1.46875-12.972656-3.929687-18.933594-7.332031.84375-7.339844 1.976563-15.597656 3.332032-24.253906 4.015625 1.582031 8.144531 2.847656 12.347656 3.78125zm-17.144531 36.601562c5.496093 2.578125 11.230469 4.535156 17.148437 5.847656 5.828125 1.292969 11.859375 1.9375 17.90625 1.9375 2.347656 0 4.699219-.097656 7.039063-.292968-.617188 11.121094-9.859375 19.980468-21.132813 19.980468-11.671875 0-21.167968-9.496093-21.167968-21.167968 0-1.820313.070312-3.9375.207031-6.304688zm26.917969-92.582031c-2.203126-.265625-4.382813-.640625-6.53125-1.117187-1.59375-.351563-3.195313-.769532-4.796876-1.253907 2.066407-8.175781 3.886719-14.09375 5.371094-18.1875 1.625 4.480469 3.648438 11.144531 5.957032 20.558594zm-85.597657 231.328125c8.089844-23.0625 2.277344-53.75-4.398437-88.984375-2.105469-11.121094-4.285156-22.625-6.097656-34.332031-2.6875-17.351563.019531-29.273438 8.046874-35.449219 10.96875-8.4375 31.523438-6.160156 47.972657-.128906-1.304688 10.914062-2.050781 20.207031-2.050781 26.453125 0 19.941406 16.226562 36.167968 36.167968 36.167968s36.167969-16.226562 36.167969-36.167968c0-6.246094-.75-15.539063-2.050781-26.453125 16.449218-6.027344 37.003906-8.304688 47.972656.128906 8.027344 6.175781 10.734375 18.101563 8.050781 35.445313-1.816406 11.710937-3.996093 23.210937-6.101562 34.332031-6.675781 35.238281-12.488281 65.929687-4.402344 88.992187-39.691406 60.171875-119.300781 60.601563-159.277344-.003906zm-46.601562 148.199219c0-18.015625 11.34375-34.367188 28.21875-40.6875l10.40625-3.890625c-2.460938 11-2.769531 23.300781 3.894531 33.878906 7.972656 12.660156 24.144531 20.375 49.296875 23.496094-1.707031 20.855468-1.578125 42.34375.382813 62.972656h-42.957032v-40.847656c0-4.140625-3.359375-7.5-7.5-7.5-4.144531 0-7.5 3.359375-7.5 7.5v40.847656h-34.242187zm145.707031 13.941406c.207031 2.5625.386719 5.148437.535156 7.742187l-20 14.253907-20.003906-14.253907c.152344-2.59375.332031-5.179687.539062-7.742187 9.261719.144531 29.707032.144531 38.929688 0zm1.023438 36.589844-7.566407-5.386719 7.65625-5.453125c.023438 3.617187-.007812 7.234375-.089843 10.839844zm-41.066407-10.839844 7.652344 5.453125-7.5625 5.386719c-.085937-3.605469-.113281-7.222657-.089844-10.839844zm1.609375 36.078125c-.242187-2.460938-.457031-4.941406-.644531-7.441406l19.613281-13.972656 19.613282 13.972656c-.1875 2.5-.402344 4.980468-.644532 7.441406zm89.996094-94.460938c-7.933594 12.597657-30.585938 16.050782-45.421875 17.320313-7.476563.664063-45.457031.4375-49.027344.175781-.730469-.050781-1.441406-.109375-2.183593-.175781-.019532 0-.039063-.003906-.054688-.003906-24.136719-2.015625-39.402344-7.839844-45.371094-17.316407-4.550781-7.226562-4.265625-17.59375.949219-32.453124l32.808594-12.269532c2.929687-1.097656 4.875-3.898437 4.875-7.027344v-22.636718c20.4375 6.75 43.1875 7.136718 64.796875 0v22.636718c0 3.132813 1.941406 5.929688 4.875 7.027344l32.808594 12.269532c5.210937 14.859374 5.5 25.226562.945312 32.453124zm0 0"/><path d="m117.535156 213.289062c-4.140625 0-7.5-3.355468-7.5-7.5v-1.808593c0-4.144531 3.359375-7.5 7.5-7.5s7.5 3.355469 7.5 7.5v1.808593c0 4.144532-3.359375 7.5-7.5 7.5zm0 0"/><path d="m220.535156 213.289062c-4.144531 0-7.5-3.355468-7.5-7.5v-1.808593c0-4.144531 3.355469-7.5 7.5-7.5 4.144532 0 7.5 3.355469 7.5 7.5v1.808593c0 4.144532-3.359375 7.5-7.5 7.5zm0 0"/><path d="m169.03125 263.171875c-11.660156 0-22.523438-4.140625-30.59375-11.65625-3.03125-2.824219-3.199219-7.570313-.375-10.601563s7.570312-3.199218 10.601562-.378906c5.207032 4.851563 12.628907 7.636719 20.367188 7.636719 7.742188 0 15.167969-2.785156 20.375-7.636719 3.035156-2.820312 7.777344-2.652344 10.601562.378906 2.824219 3.03125 2.65625 7.777344-.375 10.601563-8.070312 7.515625-18.9375 11.65625-30.601562 11.65625zm0 0"/></svg>