<svg height="512pt" viewBox="-101 0 512 512.003" width="512pt" xmlns="http://www.w3.org/2000/svg"><path d="m294.277344 150.886719c0 79.191406-64.195313 143.386719-143.386719 143.386719-79.1875 0-143.386719-64.195313-143.386719-143.386719 0-79.191407 64.199219-143.386719 143.386719-143.386719 79.191406 0 143.386719 64.195312 143.386719 143.386719zm0 0" fill="#e6eff5"/><path d="m165.582031 8.242188c59.570313 17.414062 103.082031 72.449218 103.082031 137.644531 0 79.1875-64.199218 143.382812-143.386718 143.382812-4.960938 0-9.859375-.25-14.691406-.742187 12.785156 3.738281 26.3125 5.742187 40.304687 5.742187 79.191406 0 143.386719-64.195312 143.386719-143.382812 0-74.230469-56.40625-135.285157-128.695313-142.644531zm0 0" fill="#c5d3d6"/><path d="m162.621094 123.453125c0 33.648437-27.277344 60.921875-60.921875 60.921875s-60.921875-27.273438-60.921875-60.921875c0-33.644531 27.277344-60.921875 60.921875-60.921875s60.921875 27.277344 60.921875 60.921875zm0 0" fill="#9bc66a"/><path d="m125.277344 119.914062c0 15.152344-12.285156 27.433594-27.433594 27.433594-15.152344 0-27.433594-12.28125-27.433594-27.433594 0-15.148437 12.28125-27.429687 27.433594-27.429687 15.148438 0 27.433594 12.28125 27.433594 27.429687zm0 0" fill="#4e5173"/><path d="m283.792969 157.847656c-23.511719 0-29.390625 35.269532-30.996094 53.441406-1.601563 18.167969-11.753906 45.957032-33.667969 49.164063-21.910156 3.207031-41.882812-19.398437-68.238281-19.398437-26.351563 0-24.144531 22.605468-55.742187 22.605468-31.597657 0-34.203126-49.164062-64.664063-49.164062-24.847656 0-13.625 46.761718 5.34375 69.472656 16.800781 20.113281 24.226563 36.875 24.226563 73.746094v123.328125c0 12.421875 9.660156 23 22.074218 23.441406 13.035156.464844 23.746094-9.964844 23.746094-22.894531v-77.089844c0-8.640625 6.640625-16.074219 15.269531-16.480469 9.214844-.433593 16.824219 6.90625 16.824219 16.027344v49.492187c0 10.515626 8.605469 19.445313 19.117188 19.25 10.195312-.191406 18.402343-8.515624 18.402343-18.757812v-106.433594c0-15.269531 12.378907-27.648437 27.648438-27.648437s27.648437 12.378906 27.648437 27.648437v68.398438c0 10.359375 8.398438 18.757812 18.761719 18.757812 10.359375 0 18.757813-8.398437 18.757813-18.757812v-110.117188c0-32.332031 10.390624-44.914062 22.972656-62.527344 16.03125-22.445312 16.03125-85.503906-7.484375-85.503906zm-149.367188 187.042969c0 7.96875-6.457031 14.425781-14.425781 14.425781-7.972656 0-14.429688-6.457031-14.429688-14.425781v-15.765625c0-7.96875 6.457032-14.429688 14.429688-14.429688 7.96875 0 14.425781 6.460938 14.425781 14.429688zm0 0" fill="#ed6161"/><g fill="#ce4545"><path d="m115.75 315.332031c-1.234375-.414062-2.550781-.636719-3.910156-.636719-7.34375 0-13.296875 6.460938-13.296875 14.429688v15.765625c0 7.96875 5.953125 14.429687 13.296875 14.429687 1.359375 0 2.675781-.222656 3.910156-.636718-5.894531-1.8125-10.179688-7.300782-10.179688-13.792969v-15.765625c0-6.492188 4.285157-11.980469 10.179688-13.792969zm0 0"/><path d="m203.179688 260.453125c1.097656-.171875 2.160156-.417969 3.191406-.734375-17.25-4.070312-34.308594-18.664062-55.480469-18.664062-1.925781 0-3.699219.121093-5.34375.34375 21.746094 2.828124 38.921875 22.027343 57.632813 19.054687zm0 0"/><path d="m88.941406 263.660156c1.238282 0 2.425782-.042968 3.554688-.121094-29.117188-2.664062-32.425782-49.046874-62.011719-49.046874-.179687 0-.359375.003906-.535156.007812 27.511719.6875 30.082031 49.160156 58.992187 49.160156zm0 0"/><path d="m283.792969 157.847656c-4.898438 0-9.035157 1.53125-12.523438 4.121094 12.808594 14.367188 10.882813 62.402344-1.613281 81.382812-11.589844 17.613282-21.167969 30.195313-21.167969 62.527344v110.117188c0 6.875-3.40625 12.886718-8.492187 16.152344 2.796875 1.65625 6.0625 2.609374 9.546875 2.609374 10.359375 0 18.757812-8.402343 18.757812-18.761718v-110.117188c0-32.332031 10.394531-44.917968 22.972657-62.527344 16.035156-22.445312 16.035156-85.503906-7.480469-85.503906zm0 0"/><path d="m188.441406 319.949219c-14.066406 0-25.472656 12.378906-25.472656 27.648437v106.433594c0 8.324219-5 15.386719-11.917969 17.835938 1.898438.632812 3.929688.957031 6.035157.917968 10.195312-.1875 18.398437-8.515625 18.398437-18.753906v-106.433594c0-12.617187 8.453125-23.257812 20.003906-26.578125-2.238281-.695312-4.601562-1.070312-7.046875-1.070312zm0 0"/><path d="m112.894531 388.015625c-7.953125.40625-14.070312 7.839844-14.070312 16.480469v77.09375c0 11.722656-8.117188 21.390625-18.582031 22.746094.621093.074218 1.25.125 1.886718.148437 13.035156.460937 23.746094-9.964844 23.746094-22.894531v-77.09375c0-7.417969 4.894531-13.949219 11.742188-15.902344-1.492188-.453125-3.078126-.660156-4.722657-.578125zm0 0"/></g><path d="m101.699219 55.03125c-37.726563 0-68.421875 30.695312-68.421875 68.421875 0 37.730469 30.695312 68.421875 68.421875 68.421875 37.730469 0 68.421875-30.691406 68.421875-68.421875 0-37.726563-30.695313-68.421875-68.421875-68.421875zm0 121.84375c-29.457031 0-53.421875-23.964844-53.421875-53.421875s23.964844-53.421875 53.421875-53.421875 53.421875 23.964844 53.421875 53.421875-23.964844 53.421875-53.421875 53.421875zm0 0"/><path d="m97.84375 84.980469c-19.261719 0-34.933594 15.671875-34.933594 34.933593 0 19.261719 15.671875 34.933594 34.933594 34.933594s34.933594-15.671875 34.933594-34.933594c0-19.261718-15.671875-34.933593-34.933594-34.933593zm0 54.867187c-10.992188 0-19.933594-8.941406-19.933594-19.933594 0-10.992187 8.941406-19.933593 19.933594-19.933593s19.933594 8.941406 19.933594 19.933593c0 10.992188-8.941406 19.933594-19.933594 19.933594zm0 0"/><path d="m303.503906 164.015625c-.648437-1.257813-1.324218-2.402344-2.027344-3.445313.203126-3.175781.304688-6.421874.304688-9.679687 0-83.203125-67.6875-150.890625-150.890625-150.890625-83.199219 0-150.890625 67.6875-150.890625 150.890625 0 21.96875 4.84375 43.855469 14.050781 63.648437-.992187 1.269532-1.859375 2.6875-2.589843 4.253907-8.1875 17.5 3.074218 51.382812 18.613281 69.980469 15.230469 18.238281 22.480469 33.207031 22.480469 68.941406v42.480468c0 4.144532 3.355468 7.5 7.5 7.5 4.144531 0 7.5-3.355468 7.5-7.5v-42.480468c0-40.125-8.746094-57.933594-25.972657-78.558594-15.515625-18.574219-22.878906-51.433594-14.574219-56.402344 1.011719-.609375 2.289063-.761718 3.476563-.761718 6.925781 0 12.097656 1.414062 25.480469 20.980468 9.039062 13.210938 19.28125 28.1875 39.179687 28.1875 19.269531 0 28.324219-7.683594 35.601563-13.851562 5.988281-5.082032 10.316406-8.753906 20.144531-8.753906 9.9375 0 19.269531 3.949218 27.238281 7.65625 3.753906 1.742187 8.214844.113281 9.960938-3.640626 1.746094-3.753906.117187-8.214843-3.636719-9.960937-9.425781-4.382813-20.566406-9.058594-33.5625-9.058594-15.332031 0-23.046875 6.542969-29.851563 12.316407-6.507812 5.519531-12.128906 10.289062-25.894531 10.289062-11.179687 0-17.585937-8.179688-26.800781-21.652344-8.820312-12.894531-18.816406-27.511718-37.863281-27.511718-1.136719 0-2.238281.074218-3.304688.214843-8.082031-17.683593-12.179687-36.597656-12.179687-56.320312 0-74.929688 60.960937-135.890625 135.890625-135.890625 74.828125 0 135.722656 60.792968 135.890625 135.582031-1.105469-.171875-2.117188-.230469-2.988282-.230469-21.375 0-35.035156 21.40625-38.464843 60.277344-2.503907 28.351562-18.0625 41.054688-27.28125 42.40625-2.332031.339844-4.742188.308594-7.363281-.101562-4.101563-.644532-7.925782 2.160156-8.5625 6.253906-.640626 4.09375 2.160156 7.929687 6.253906 8.566406 4.125.644531 8 .683594 11.84375.121094 24.445312-3.578125 37.894531-31.5 40.050781-55.925782 4.09375-46.386718 22.191406-50.773437 27.765625-44.332031 10.664062 12.703125 8.484375 55.492188-2.863281 71.375-.683594.960938-1.363281 1.90625-2.035157 2.839844-11.984374 16.675781-22.332031 31.074219-22.332031 64.046875v14.074219c0 4.140625 3.355469 7.5 7.5 7.5s7.5-3.359375 7.5-7.5v-14.074219c0-28.140625 8.183594-39.53125 19.511719-55.292969.679688-.945312 1.367188-1.902343 2.0625-2.875 13.898438-19.449219 17.046875-62.472656 6.128906-83.691406zm0 0"/><path d="m268.304688 342.449219c-4.144532 0-7.5 3.359375-7.5 7.5v66.046875c0 6.207031-5.050782 11.257812-11.261719 11.257812-6.207031 0-11.261719-5.050781-11.261719-11.257812v-68.398438c0-19.378906-15.765625-35.144531-35.144531-35.144531-7.492188 0-14.441407 2.351563-20.148438 6.359375v-13.46875c0-4.144531-3.359375-7.5-7.5-7.5-4.144531 0-7.5 3.355469-7.5 7.5v148.6875c0 6.09375-4.953125 11.144531-11.042969 11.257812-2.882812.082032-5.695312-1.085937-7.867187-3.21875-2.292969-2.253906-3.609375-5.363281-3.609375-8.53125v-49.492187c0-6.40625-2.660156-12.617187-7.296875-17.039063-4.703125-4.488281-10.882813-6.777343-17.378906-6.480468-12.570313.589844-22.417969 11.121094-22.417969 23.972656v77.09375c0 4.21875-1.671875 8.15625-4.710938 11.085938-3.035156 2.933593-7.054687 4.457031-11.269531 4.3125-8.183593-.292969-14.839843-7.445313-14.839843-15.949219v-50.84375c0-4.140625-3.355469-7.5-7.5-7.5-4.140626 0-7.5 3.359375-7.5 7.5v50.84375c0 16.484375 13.148437 30.363281 29.308593 30.9375.375.015625.746094.023437 1.117188.023437 7.921875 0 15.375-3.007812 21.101562-8.527344 5.992188-5.785156 9.292969-13.554687 9.292969-21.882812v-77.09375c0-4.746094 3.644531-8.777344 8.125-8.988281 2.363281-.105469 4.609375.722656 6.316406 2.351562 1.710938 1.628907 2.648438 3.824219 2.648438 6.1875v49.492188c0 7.167969 2.957031 14.179687 8.105468 19.234375 5.066407 4.976562 11.691407 7.636718 18.652344 7.511718 14.207032-.265624 25.761719-12.042968 25.761719-26.253906v-106.4375c0-11.105468 9.039063-20.144531 20.148437-20.144531 11.109376 0 20.148438 9.039063 20.148438 20.144531v68.398438c0 14.480468 11.78125 26.261718 26.261719 26.261718 14.476562 0 26.257812-11.78125 26.257812-26.261718v-66.042969c.003907-4.144531-3.355469-7.503906-7.496093-7.503906zm0 0"/><path d="m120 366.816406c12.089844 0 21.925781-9.835937 21.925781-21.925781v-15.765625c0-12.09375-9.835937-21.929688-21.925781-21.929688-12.09375 0-21.929688 9.835938-21.929688 21.929688v15.765625c0 12.089844 9.835938 21.925781 21.929688 21.925781zm-6.929688-37.691406c0-3.820312 3.105469-6.929688 6.929688-6.929688 3.820312 0 6.925781 3.109376 6.925781 6.929688v15.765625c0 3.820313-3.105469 6.929687-6.925781 6.929687-3.824219 0-6.929688-3.109374-6.929688-6.929687zm0 0"/></svg>