<svg height="511pt" viewBox="-38 0 511 511.99772" width="511pt" xmlns="http://www.w3.org/2000/svg"><path d="m133.613281 211.351562c-4.523437-2.292968-7.460937-.078124-6.492187 4.902344.964844 4.980469.496094 10.511719-2.410156 14.941406-2.90625 4.429688-8.597657 7.367188-13.5625 6.074219-5.253907-1.367187-8.132813-6.632812-10.15625-11.558593-7.359376-17.941407-10.574219-37.710938-9.355469-57.492188l5.507812-4.15625c19.355469 4.246094 37.488281 12.761719 52.722657 24.757812 4.1875 3.292969 8.457031 7.507813 8.332031 12.933594-.113281 5.128906-4.503907 9.796875-9.558594 11.378906-5.054687 1.582032-10.507813.515626-15.027344-1.78125zm0 0" fill="#3185db"/><path d="m41.878906 89.816406c.964844 4.976563-1.972656 7.195313-6.492187 4.898438-4.523438-2.296875-9.976563-3.363282-15.03125-1.78125-5.054688 1.582031-9.441407 6.253906-9.558594 11.382812-.125 5.425782 4.148437 9.640625 8.332031 12.933594 15.234375 11.996094 33.367188 20.511719 52.722656 24.757812l5.507813-4.15625c1.222656-19.78125-1.996094-39.550781-9.355469-57.492187-2.023437-4.929687-4.902344-10.191406-10.152344-11.558594-4.96875-1.292969-10.660156 1.644531-13.566406 6.074219-2.90625 4.425781-3.378906 9.960938-2.40625 14.941406zm0 0" fill="#3185db"/><path d="m118.101562 127.683594c-15.617187-20.6875-43.320312-26.109375-61.878906-12.101563-18.558594 14.007813-20.945312 42.132813-5.332031 62.824219 15.617187 20.691406 43.320313 26.109375 61.878906 12.101562 18.558594-14.003906 20.945313-42.132812 5.332031-62.824218zm0 0" fill="#80b9f9"/><path d="m230.90625 205.09375c3.210938-3.925781 1.675781-7.269531-3.394531-7.390625-5.070313-.121094-10.375-1.765625-14.078125-5.554687-3.703125-3.789063-5.351563-9.980469-3.023438-14.554688 2.460938-4.835938 8.21875-6.519531 13.464844-7.4375 19.101562-3.34375 39.101562-2.25 58.160156 3.183594l2.882813 6.269531c-8.300781 17.996094-20.503907 33.882813-35.484375 46.191406-4.117188 3.382813-9.144532 6.652344-14.417969 5.367188-4.988281-1.210938-8.609375-6.5-9.070313-11.777344-.460937-5.273437 1.75-10.371094 4.960938-14.296875zm0 0" fill="#9bc66a"/><path d="m369.28125 141.542969c-5.070312-.121094-6.605469-3.46875-3.394531-7.390625 3.214843-3.925782 5.421875-9.023438 4.960937-14.300782-.460937-5.277343-4.082031-10.5625-9.066406-11.777343-5.277344-1.285157-10.304688 1.988281-14.417969 5.367187-14.984375 12.3125-27.1875 28.195313-35.484375 46.191406l2.878906 6.273438c19.058594 5.433594 39.058594 6.527344 58.160157 3.183594 5.246093-.917969 11.003906-2.601563 13.46875-7.441406 2.328125-4.574219.675781-10.761719-3.027344-14.550782-3.699219-3.789062-9.007813-5.433594-14.078125-5.554687zm0 0" fill="#9bc66a"/><path d="m341.039062 150.011719c-9.703124-21.128907-36.667968-29.484375-60.222656-18.667969-23.554687 10.820312-34.78125 36.71875-25.078125 57.847656 9.707031 21.128906 36.667969 29.484375 60.222657 18.664063 23.554687-10.820313 34.785156-36.71875 25.078124-57.84375zm0 0" fill="#bfea92"/><path d="m8 228.09375c0 12.214844 9.898438 22.117188 22.113281 22.117188h355.183594c12.214844 0 22.113281-9.902344 22.113281-22.117188s-9.898437-22.113281-22.113281-22.113281h-355.183594c-12.214843 0-22.113281 9.902343-22.113281 22.113281zm0 0" fill="#878cad"/><path d="m385.296875 205.980469h-23.316406c12.214843 0 22.117187 9.898437 22.117187 22.113281s-9.902344 22.117188-22.117187 22.117188h23.316406c12.214844 0 22.113281-9.902344 22.113281-22.117188 0-12.210938-9.898437-22.113281-22.113281-22.113281zm0 0" fill="#6e7093"/><path d="m391.597656 327.546875c0-27.625-6.105468-53.824219-17.019531-77.335937h-333.746094c-10.914062 23.511718-17.019531 49.710937-17.019531 77.335937 0 46.605469 17.347656 84.527344 45.925781 111.925781-12.9375 30.722656-14.242187 59.28125-2.753906 64.277344 10.351563 4.5 27.617187-11.65625 40.914063-37.152344 28.746093 14.929688 63.011718 22.855469 99.804687 22.855469 36.796875 0 71.0625-7.925781 99.808594-22.855469 13.292969 25.496094 30.5625 41.652344 40.914062 37.152344 11.484375-4.996094 10.183594-33.554688-2.753906-64.277344 28.578125-27.398437 45.925781-65.320312 45.925781-111.925781zm0 0" fill="#6e7093"/><path d="m391.597656 327.546875c0-27.625-6.105468-53.824219-17.019531-77.335937h-24.765625c10.144531 23.511718 15.816406 49.707031 15.816406 77.335937 0 46.605469-16.121094 84.523437-42.683594 111.925781 9.53125 24.351563 12.261719 47.332032 7.667969 58.308594 6.703125 5.6875 13.003907 8.058594 17.808594 5.96875 11.488281-4.996094 10.1875-33.554688-2.753906-64.277344 28.582031-27.398437 45.929687-65.320312 45.929687-111.925781zm0 0" fill="#4e5173"/><path d="m112.734375 40.308594c4.597656-1.066406 5.367187-4.402344 1.703125-7.371094-3.664062-2.972656-6.632812-7.199219-7.203125-12.089844-.574219-4.894531 1.730469-10.390625 6.042969-12.433594 4.5625-2.160156 9.757812-.128906 14.140625 2.179688 15.960937 8.394531 30.0625 20.570312 41 35.402344l-1.445313 6.253906c-16.335937 8.527344-34.347656 13.285156-52.371094 13.832031-4.953124.148438-10.511718-.304687-13.664062-4.246093-2.980469-3.730469-2.640625-9.675782.019531-13.824219 2.660157-4.144531 7.183594-6.640625 11.777344-7.703125zm0 0" fill="#cc6d0e"/><path d="m250.710938 72.183594c-3.664063-2.972656-2.890626-6.308594 1.703124-7.371094 4.597657-1.0625 9.121094-3.558594 11.78125-7.707031 2.660157-4.144531 3-10.09375.019532-13.820313-3.152344-3.945312-8.714844-4.394531-13.664063-4.246094-18.027343.546876-36.035156 5.304688-52.375 13.832032l-1.445312 6.253906c10.941406 14.832031 25.042969 27.003906 41.003906 35.402344 4.382813 2.304687 9.578125 4.339844 14.140625 2.179687 4.3125-2.042969 6.613281-7.539062 6.042969-12.433593-.570313-4.894532-3.542969-9.117188-7.207031-12.089844zm0 0" fill="#cc6d0e"/><path d="m191.386719 14.421875c-23.484375-5.425781-46.472657 7.253906-51.339844 28.320313-4.867187 21.066406 10.226563 42.546874 33.714844 47.972656 23.488281 5.425781 46.472656-7.253906 51.339843-28.320313 4.867188-21.066406-10.226562-42.546875-33.714843-47.972656zm0 0" fill="#ffa436"/><path d="m394.191406 284.234375c-2.089844-9.011719-4.839844-17.867187-8.25-26.53125 16.035156-.347656 28.96875-13.496094 28.96875-29.609375 0-16.332031-13.285156-29.617188-29.613281-29.617188h-45.15625c3.609375-4.433593 6.503906-9.382812 8.542969-14.675781.679687-1.761719 1.253906-3.535156 1.726562-5.320312h.570313c7.824219 0 15.613281-.671875 23.230469-2.007813 3.917968-.6875 14.328124-2.507812 18.855468-11.417968 3.644532-7.148438 1.816406-16.90625-4.34375-23.195313-3.636718-3.726563-8.511718-6.226563-14.046875-7.269531 2.816407-4.878906 4.09375-10.199219 3.640625-15.382813-.761718-8.785156-6.976562-16.53125-14.757812-18.417969-9.730469-2.382812-17.886719 4.328126-20.957032 6.855469-6.125 5.035157-11.832031 10.652344-17.027343 16.75-2.292969-1.109375-4.707031-2.058593-7.21875-2.835937-13.144531-4.078125-27.582031-3.015625-40.660157 2.992187-16.15625 7.421875-27.269531 21.117188-31.273437 36.214844-8.03125-.035156-16.027344.632813-23.84375 2.003906-4.777344.839844-10.835937 2.355469-15.332031 6.683594-2.984375 2.871094-3.078125 7.621094-.203125 10.605469 1.46875 1.53125 3.433593 2.300781 5.402343 2.300781 1.871094 0 3.746094-.695313 5.199219-2.097656 1.777344-1.707031 6.105469-2.46875 7.527344-2.714844 6.445313-1.132813 13.039063-1.726563 19.671875-1.78125.304688 5.625 1.632812 11.226563 4.085938 16.570313.980468 2.140624 2.125 4.191406 3.417968 6.144531h-86.90625c-1.425781-8.066407-8.1875-13.390625-10.933594-15.554688-6.203124-4.886719-12.910156-9.257812-20.003906-13.042969.589844-2.476562 1-5.035156 1.222656-7.660156 1.160157-13.710937-2.972656-27.585937-11.640624-39.070312-10.710938-14.1875-26.472657-22.109375-42.078126-22.785156-.417968-1.949219-.875-3.878907-1.367187-5.769532-1.050781-4.007812-5.152344-6.402344-9.15625-5.355468-4.007813 1.050781-6.40625 5.148437-5.355469 9.15625.3125 1.199218.609375 2.414062.890625 3.644531-5.433593 1.5-10.621093 4-15.316406 7.542969-4.695313 3.546874-8.523437 7.851562-11.457031 12.664062-5.8125-3.195312-11.335938-6.84375-16.484375-10.894531-3.667969-2.886719-5.507813-5.199219-5.472657-6.859375.035157-1.453125 1.882813-3.644532 4.300782-4.398438 2.6875-.839844 6.109375-.363281 9.402344 1.3125 4.8125 2.4375 9.628906 2.277344 13.21875-.433594 3.589843-2.710937 5.054687-7.300781 4.023437-12.589843-.707031-3.625-.226563-7.046875 1.316406-9.390625 1.394531-2.125 4.007813-3.304688 5.347657-2.957032.261718.070313.488281.164063.710937.289063 3.59375 2.054687 8.175781.808594 10.234375-2.785156 2.054688-3.597657.808594-8.179688-2.789062-10.234375-1.328126-.757813-2.757813-1.347656-4.320313-1.769532-7.878906-2.042968-16.808594 1.746094-21.714844 9.214844-2.863281 4.347656-4.261719 9.640625-4.097656 15.28125-5.363281-1.699218-10.832031-1.808594-15.808594-.253906-8.398437 2.625-14.628906 10.347656-14.816406 18.371094-.222656 10.007812 8.066406 16.53125 11.1875 18.988281 6.238281 4.90625 12.960937 9.289063 20.046875 13.066406-3.628906 15.191407-.332031 32.519531 10.378906 46.707031 4.855469 6.4375 10.828125 11.707032 17.515625 15.5625h-32.3125c-16.328125 0-29.613281 13.285157-29.613281 29.617188 0 16.117188 12.9375 29.265625 28.972656 29.609375-4.285156 10.925781-7.554687 22.238281-9.757812 33.761719-.777344 4.066406 1.890625 7.996094 5.960937 8.773437 4.066407.777344 7.996094-1.890625 8.773438-5.960937 2.398437-12.550782 6.171875-24.828125 11.238281-36.570313h95.148438c24.878906 23.539063 59.207031 47.929688 97.042968 68.921875 50.019532 27.757813 100.742188 46.628906 138.160156 51.621094-7.203124 21.226562-19.160156 40.082031-35.558593 55.804688-2.242188 2.152343-2.929688 5.460937-1.722657 8.328124 13.480469 32.003907 10.789063 52.699219 6.675782 54.488282-3.175782 1.371094-17.136719-6.632813-31.273438-33.742188-1.914062-3.667968-6.4375-5.097656-10.109375-3.191406-27.722656 14.402344-61.042969 22.015625-96.347656 22.015625s-68.621094-7.613281-96.347656-22.015625c-3.671875-1.910156-8.195313-.476562-10.109375 3.191406-14.132813 27.109375-28.089844 35.125-31.273438 33.742188-4.109375-1.789063-6.800781-22.484375 6.675782-54.488282 1.207031-2.867187.523437-6.175781-1.722657-8.328124-28.53125-27.355469-43.613281-64.1875-43.613281-106.507813 0-1.511719.019531-3.015625.054688-4.515625.105468-4.140625-3.167969-7.582031-7.308594-7.683594-.066406-.003906-.128906-.003906-.191406-.003906-4.054688 0-7.394532 3.234375-7.496094 7.3125-.039063 1.625-.058594 3.253906-.058594 4.890625 0 44.691406 15.398438 83.902344 44.601562 113.742187-5.453124 14.09375-8.699218 28.007813-9.207031 39.640626-.863281 19.753906 6.207031 27.054687 12.285157 29.695312 2.121093.921875 4.355468 1.371094 6.671874 1.371094 12.449219 0 27.332032-12.980469 40.351563-35.492188 28.457031 13.398438 61.714844 20.449219 96.6875 20.449219 34.976563 0 68.230469-7.050781 96.691406-20.449219 13.015625 22.515625 27.898438 35.496094 40.347657 35.492188 2.316406 0 4.550781-.449219 6.671874-1.371094 6.082032-2.644531 13.148438-9.941406 12.285157-29.695312-.507813-11.632813-3.753907-25.546876-9.207031-39.640626 17.21875-17.59375 29.640624-38.449218 36.933593-61.761718.933594.023437 1.84375.035156 2.738281.035156 24.570313 0 34.835938-8.609375 39.101563-16.28125 10.078125-18.148438-3.796875-46.171875-39.074219-79.046875zm-42.0625-165.003906c3.605469-2.960938 6.246094-4.265625 7.878906-3.863281 1.410157.339843 3.148438 2.609374 3.367188 5.140624.246094 2.796876-.957031 6.035157-3.296875 8.894532-3.410156 4.171875-4.289063 8.910156-2.414063 12.996094 1.875 4.085937 6.042969 6.507812 11.445313 6.644531 3.6875.089843 6.921875 1.289062 8.886719 3.300781 1.777344 1.8125 2.367187 4.609375 1.703125 5.90625-.75 1.480469-3.46875 2.644531-8.078125 3.449219-6.445313 1.128906-13.027344 1.726562-19.652344 1.777343-.320312-5.707031-1.691406-11.308593-4.105469-16.570312-2.425781-5.285156-5.777343-9.972656-9.886719-13.925781 4.355469-4.984375 9.097657-9.589844 14.152344-13.75zm-89.566406 66.847656c-7.957031-17.335937 1.636719-38.820313 21.394531-47.894531 9.710938-4.460938 20.351563-5.28125 29.957031-2.300782 3.289063 1.019532 6.3125 2.445313 9.019532 4.226563.179687.128906.359375.25.542968.363281 4.699219 3.226563 8.394532 7.546875 10.757813 12.695313 7.167969 15.605469-.105469 35.167969-16.574219 45.308593h-44.738281c-4.535156-3.210937-8.097656-7.460937-10.359375-12.398437zm-117.335938 8.632813c1.765626 1.390624 3.113282 2.648437 4.027344 3.769531h-34.828125c.976563-.628907 1.929688-1.292969 2.863281-2 4.644532-3.503907 8.503907-7.777344 11.484376-12.640625 5.820312 3.195312 11.332031 6.835937 16.453124 10.871094zm-88.34375-20.832032c-9.070312-12.015625-11.03125-26.960937-6.328124-38.832031.003906-.003906.003906-.007813.003906-.007813 2.089844-5.273437 5.496094-9.945312 10.183594-13.480468 4.632812-3.496094 9.992187-5.488282 15.574218-6.078125.15625-.011719.3125-.027344.472656-.046875 12.628907-1.148438 26.324219 4.832031 35.324219 16.757812 6.4375 8.527344 9.515625 18.742188 8.664063 28.765625-.292969 3.457031-1.046875 6.746094-2.21875 9.796875-.070313.152344-.128906.308594-.1875.464844-2.140625 5.3125-5.578125 9.867188-10.117188 13.292969-4.480468 3.382812-9.730468 5.429687-15.347656 6.0625-.304688.011719-.609375.039062-.917969.089843-3.1875.269532-6.484375.085938-9.816406-.566406-9.871094-1.929687-18.851563-7.691406-25.289063-16.21875zm-26.769531 68.832032c-8.058593 0-14.613281-6.558594-14.613281-14.617188s6.554688-14.613281 14.613281-14.613281h64.535157.089843.066407 62.253906.070312.109375 228.058594c8.058594 0 14.613281 6.554687 14.613281 14.613281s-6.554687 14.617188-14.613281 14.617188h-238.394531c-6.140625-6.066407-11.507813-11.96875-15.980469-17.574219-2.585937-3.238281-7.300781-3.769531-10.542969-1.1875-3.234375 2.585937-3.765625 7.304687-1.183594 10.542969 2.148438 2.6875 4.472657 5.429687 6.972657 8.21875zm215.046875 70.804687c-30.917968-17.15625-59.351562-36.574219-81.871094-55.808594h206.433594c15.417969 35.675781 17.664063 74.167969 10.4375 105.949219-35.6875-4.226562-85.488281-22.667969-135-50.140625zm174.996094 42.480469c-3.003906 5.402344-11.863281 8.398437-24.820312 8.558594 2.496093-11.824219 3.761718-24.191407 3.761718-37.007813 0-6.035156-.273437-12.023437-.824218-17.957031 21.5625 23.636718 25.746093 39.445312 21.882812 46.40625zm0 0"/><path d="m112.8125 73.609375c.785156 0 1.46875-.019531 2.019531-.035156 7.257813-.222657 14.542969-1.085938 21.742188-2.578125 1.027343 2.019531 2.214843 3.988281 3.5625 5.902344 7.429687 10.574218 18.773437 18.074218 31.9375 21.113281 15.882812 3.667969 31.902343.167969 43.722656-8.730469 5.796875 4.492188 11.980469 8.476562 18.453125 11.886719 2.367188 1.242187 7.519531 3.949219 13.40625 3.949219 2.40625 0 4.929688-.453126 7.441406-1.636719 7.03125-3.347657 11.253906-11.601563 10.265625-20.070313-.542969-4.691406-2.582031-9.199218-5.859375-13.078125 4.648438-2.050781 8.457032-5.203125 11.007813-9.179687 4.605469-7.1875 4.425781-16.460938-.433594-22.542969-5.972656-7.488281-15.984375-7.183594-19.769531-7.070313-7.28125.230469-14.566406 1.097657-21.734375 2.578126-1.03125-2.015626-2.214844-3.984376-3.558594-5.898438-7.433594-10.574219-18.777344-18.074219-31.941406-21.113281-13.164063-3.042969-26.644531-1.277344-37.964844 4.964843-2.046875 1.128907-3.976563 2.378907-5.789063 3.742188-5.796874-4.484375-11.96875-8.457031-18.40625-11.847656-3.332031-1.757813-12.175781-6.421875-20.851562-2.328125-7.039062 3.335937-11.269531 11.59375-10.277344 20.078125.542969 4.691406 2.582032 9.191406 5.855469 13.070312-4.640625 2.046875-8.449219 5.199219-10.996094 9.179688-4.617187 7.183594-4.441406 16.457031.429688 22.554687 5.101562 6.378907 13.148437 7.089844 17.738281 7.089844zm137.960938-27.078125c5.199218-.15625 6.988281.691406 7.582031 1.4375.714843.894531.664062 3.3125-.472657 5.089844-1.335937 2.082031-3.945312 3.703125-7.152343 4.449218-5.089844 1.171876-8.582031 4.300782-9.570313 8.578126-.992187 4.277343.765625 8.625 4.828125 11.925781 2.558594 2.074219 4.191407 4.675781 4.476563 7.132812.246094 2.097657-.773438 4.296875-1.792969 4.78125-.859375.402344-2.84375.378907-7.441406-2.035156-5.238281-2.761719-10.269531-5.953125-15.023438-9.535156 2.867188-4.261719 5-9.058594 6.207031-14.285157 1.191407-5.167968 1.421876-10.414062.714844-15.566406 5.835938-1.125 11.742188-1.785156 17.644532-1.972656zm-38.03125-9.6875c17.210937 24.484375-6.195313 53.742188-37.289063 46.554688-18.519531-4.277344-32.191406-21.261719-28.097656-38.976563 6.183593-26.765625 47.445312-33.105469 65.386719-7.578125zm-105.472657 15.21875c1.339844-2.089844 3.945313-3.710938 7.148438-4.449219 5.097656-1.171875 8.585937-4.304687 9.574219-8.589843.992187-4.285157-.773438-8.628907-4.832032-11.910157-2.558594-2.078125-4.1875-4.675781-4.476562-7.136719-.242188-2.0625.789062-4.304687 1.796875-4.78125.859375-.40625 2.847656-.386718 7.4375 2.035157 5.226562 2.753906 10.25 5.9375 15 9.511719-2.890625 4.320312-4.984375 9.132812-6.179688 14.300781-1.195312 5.171875-1.421875 10.417969-.71875 15.566406-5.851562 1.128906-11.761719 1.789063-17.644531 1.96875-5.199219.164063-6.992188-.6875-7.582031-1.425781-.703125-.878906-.648438-3.339844.476562-5.089844zm0 0"/></svg>