<svg height="511pt" viewBox="-137 1 511 511.999" width="511pt" xmlns="http://www.w3.org/2000/svg"><path d="m178.511719 177.585938c2-59.058594-7.660157-98.75-20.277344-157.644532h-78.125c-12.617187 58.894532-22.277344 98.585938-20.277344 157.644532-29.703125 6.933593-51.835937 33.558593-51.835937 65.371093v226.4375c0 19.386719 15.71875 35.105469 35.109375 35.105469h152.136719c19.386718 0 35.105468-15.71875 35.105468-35.105469v-226.4375c0-31.8125-22.132812-58.4375-51.835937-65.371093zm0 0" fill="#9e71d3"/><path d="m178.511719 177.585938c2-59.058594-7.660157-98.75-20.277344-157.644532h-22.5c12.140625 56.664063 21.542969 95.550782 20.457031 151.015625-.074218 3.75 2.265625 7.140625 5.820313 8.328125 26.636719 8.910156 45.835937 34.039063 45.835937 63.671875v226.4375c0 19.386719-15.71875 35.105469-35.105468 35.105469h22.5c19.386718 0 35.105468-15.71875 35.105468-35.109375v-226.433594c0-31.8125-22.132812-58.4375-51.835937-65.371093zm0 0" fill="#7f56af"/><path d="m7.996094 242.957031v205.011719h222.351562v-205.011719c0-.195312-.011718-.386719-.015625-.582031h-222.320312c-.003907.195312-.015625.386719-.015625.582031zm0 0" fill="#ffa436"/><path d="m207.835938 242.375c0 .195312.011718.386719.011718.582031v205.011719h22.5v-205.011719c0-.195312-.011718-.386719-.011718-.582031zm0 0" fill="#cc6d0e"/><path d="m170.273438 48.167969h-102.199219c-4.421875 0-8.007813-3.585938-8.007813-8.007813v-12.46875c0-11.152344 9.039063-20.191406 20.191406-20.191406h77.828126c11.152343 0 20.195312 9.039062 20.195312 20.191406v12.46875c0 4.421875-3.585938 8.007813-8.007812 8.007813zm0 0" fill="#ed6161"/><path d="m158.085938 7.5h-23.605469c11.152343 0 20.191406 9.039062 20.191406 20.191406v12.46875c0 4.421875-3.585937 8.007813-8.007813 8.007813h23.609376c4.421874 0 8.007812-3.582031 8.007812-8.007813v-12.46875c0-11.152344-9.042969-20.191406-20.195312-20.191406zm0 0" fill="#ce4545"/><g fill="#4e5173"><path d="m194.304688 283.265625c.960937-2.5 4.660156-1.863281 4.738281.8125.40625 13.933594-1.296875 33.15625-6.808594 36.136719-6.5625 3.542968-36.605469 10.855468-54.261719 8.972656-2.304687-.246094-3.015625-3.261719-1.058594-4.507812 8.382813-5.328126 19.148438-12.617188 19.339844-21.871094.039063-1.796875 1.9375-2.933594 3.542969-2.132813 6.957031 3.472657 10.835937 3.457031 14.417969 4.351563 6.417968.726562 13.503906-4.648438 20.089844-21.761719zm0 0"/><path d="m44.039062 283.265625c-.960937-2.5-4.65625-1.863281-4.734374.8125-.40625 13.933594 1.292968 33.15625 6.804687 36.136719 6.5625 3.542968 36.605469 10.855468 54.261719 8.972656 2.308594-.246094 3.015625-3.261719 1.058594-4.507812-8.382813-5.328126-19.148438-12.617188-19.339844-21.871094-.039063-1.796875-1.933594-2.933594-3.539063-2.132813-6.960937 3.472657-10.839843 3.457031-14.421875 4.351563-6.414062.726562-13.503906-4.648438-20.089844-21.761719zm0 0"/><path d="m117.484375 398.546875-7.589844 13.609375c-.667969 1.199219-2.335937 1.34375-3.195312.273438-4.753907-5.894532-17.296875-21.480469-17.664063-22.078126-.378906-.613281-9.867187 6.242188-13.003906 8.535157-.609375.445312-1.417969.492187-2.078125.125l-28.511719-15.90625c-.433594-.238281-.757812-.636719-.90625-1.109375l-13.125-41.929688c-.613281-1.957031 1.835938-3.398437 3.25-1.914062l16.441406 17.289062c.15625.167969.351563.292969.566407.371094l20.015625 7.253906c.4375.15625.921875.101563 1.3125-.152344l11.152344-7.292968c.542968-.355469 1.257812-.3125 1.757812.109375l15.449219 13.042969c.628906.53125 1.566406.445312 2.089843-.183594l14.59375-17.667969c.589844-.710937 1.683594-.710937 2.273438 0l14.597656 17.667969c.519532.628906 1.460938.714844 2.085938.183594l15.449218-13.042969c.5-.417969 1.214844-.464844 1.757813-.109375l11.15625 7.292968c.386719.253907.871094.308594 1.308594.152344l20.015625-7.253906c.21875-.078125.410156-.207031.566406-.371094l16.445312-17.289062c1.410157-1.484375 3.859376-.042969 3.246094 1.914062l-13.125 41.929688c-.148437.472656-.472656.871094-.902344 1.109375l-28.515624 15.90625c-.660157.367187-1.46875.320312-2.078126-.125-3.136718-2.289063-12.625-9.148438-13.003906-8.535157-.367187.597657-12.910156 16.183594-17.660156 22.078126-.863281 1.070312-2.527344.925781-3.199219-.273438l-7.585937-13.609375c-.746094-1.324219-2.652344-1.324219-3.386719 0zm0 0"/></g><path d="m230.347656 409.167969c-4.144531 0-7.5 3.355469-7.5 7.5v23.800781h-207.351562v-190.59375h207.347656v136.796875c0 4.140625 3.355469 7.5 7.5 7.5 4.140625 0 7.5-3.359375 7.5-7.5v-143.457031c0-.085938.003906-.171875.003906-.257813 0-.148437-.003906-.296875-.007812-.441406-.1875-32.605469-21.089844-60.777344-51.667969-70.582031.941406-44.488282-4.792969-78.636719-12.695313-116.597656 7.019532-1.480469 12.304688-7.722657 12.304688-15.175782v-12.46875c0-15.269531-12.421875-27.691406-27.695312-27.691406h-77.828126c-15.269531 0-27.691406 12.421875-27.691406 27.691406v12.46875c0 7.453125 5.285156 13.695313 12.304688 15.175782-2.976563 14.3125-5.890625 29.308593-8.097656 44.234374-.605469 4.101563 2.226562 7.914063 6.320312 8.519532.375.054687.742188.082031 1.109375.082031 3.65625 0 6.855469-2.679687 7.410156-6.402344 2.292969-15.511719 5.386719-31.203125 8.511719-46.101562h78.09375c8.339844 39.738281 14.378906 74.824219 12.796875 121.667969-.121094 3.578124 2.304687 6.742187 5.792969 7.558593 24.441406 5.703125 42.234375 25.679688 45.492187 49.980469h-206.265625c3.261719-24.300781 21.058594-44.28125 45.5-49.984375 3.488282-.8125 5.914063-3.980469 5.792969-7.558594-.542969-15.980469-.238281-31.0625.933594-46.109375.320312-4.128906-2.765625-7.738281-6.894531-8.058594-4.125-.332031-7.738282 2.765626-8.0625 6.894532-1.066407 13.734375-1.4375 27.492187-1.132813 41.871094-30.714844 9.851562-51.671875 38.234374-51.671875 71.027343v226.4375c0 23.492188 19.113281 42.605469 42.605469 42.605469h152.136719c23.492187 0 42.605468-19.113281 42.605468-42.605469v-52.726562c0-4.144531-3.359375-7.5-7.5-7.5zm-162.78125-381.476563c0-7 5.691406-12.691406 12.691406-12.691406h77.828126c7 0 12.695312 5.691406 12.695312 12.691406v12.46875c0 .28125-.230469.507813-.507812.507813h-5.921876c-.039062 0-.078124 0-.121093 0h-90.121094c-.035156 0-.066406 0-.097656 0h-5.9375c-.28125 0-.507813-.226563-.507813-.507813zm127.675782 469.308594h-152.136719c-15.222657 0-27.605469-12.382812-27.605469-27.605469v-13.925781h207.347656v13.925781c0 15.222657-12.382812 27.605469-27.605468 27.605469zm0 0"/><path d="m137.179688 336.644531c2.128906.226563 4.433593.332031 6.859374.332031 18.621094 0 44.328126-6.148437 51.761719-10.164062 10.269531-5.546875 11.136719-29.292969 10.738281-42.953125-.140624-4.800781-3.542968-8.714844-8.277343-9.523437-4.722657-.808594-9.234375 1.757812-10.957031 6.234374-5.128907 13.328126-9.804688 16.9375-11.972657 17.015626-.871093-.195313-1.710937-.351563-2.527343-.5-2.644532-.480469-5.378907-.980469-9.664063-3.121094-3.066406-1.53125-6.652344-1.386719-9.589844.390625-2.929687 1.769531-4.722656 4.875-4.792969 8.296875-.121093 5.691406-11.15625 12.703125-15.871093 15.699218-3.5625 2.269532-5.308594 6.554688-4.34375 10.664063.960937 4.117187 4.433593 7.179687 8.636719 7.628906zm25.195312-26.738281c3.1875 1.105469 5.699219 1.5625 7.730469 1.9375.878906.160156 1.636719.296875 2.292969.460938.320312.078124.644531.136718.972656.175781 6.285156.710937 11.992187-1.75 17.070312-7.34375-.675781 4.386719-1.542968 7.464843-2.332031 8.753906-4.46875 2.046875-19.839844 6.136719-34.121094 7.589844 3.550781-3.273438 6.675781-7.113281 8.386719-11.574219zm0 0"/><path d="m42.546875 326.8125c7.433594 4.015625 33.136719 10.164062 51.757813 10.164062 2.425781 0 4.734374-.105468 6.863281-.332031 4.203125-.449219 7.671875-3.511719 8.636719-7.628906.960937-4.109375-.785157-8.398437-4.351563-10.664063-4.710937-2.996093-15.746094-10.007812-15.863281-15.699218-.074219-3.425782-1.867188-6.527344-4.796875-8.300782-2.9375-1.773437-6.519531-1.917968-9.589844-.386718-4.285156 2.140625-7.019531 2.640625-9.664063 3.121094-.816406.148437-1.65625.304687-2.523437.5-2.171875-.078126-6.847656-3.6875-11.976563-17.015626-1.722656-4.476562-6.230468-7.046874-10.957031-6.234374-4.734375.808593-8.132812 4.726562-8.273437 9.523437-.398438 13.660156.46875 37.40625 10.738281 42.953125zm22.429687-14.332031c.324219-.039063.648438-.097657.96875-.175781.65625-.164063 1.414063-.304688 2.292969-.464844 2.03125-.371094 4.546875-.828125 7.730469-1.9375 1.710938 4.464844 4.835938 8.304687 8.386719 11.574218-14.277344-1.453124-29.652344-5.542968-34.117188-7.585937-.792969-1.292969-1.660156-4.371094-2.332031-8.753906 5.074219 5.59375 10.78125 8.054687 17.070312 7.34375zm-27.9375-26.523438s.003907.003907.003907.003907c-.003907-.003907-.003907-.003907-.003907-.003907zm0 0"/><path d="m24.25 342.308594 13.125 41.925781c.726562 2.316406 2.292969 4.242187 4.410156 5.421875l28.511719 15.90625c3.207031 1.789062 7.199219 1.546875 10.15625-.621094 2.699219-1.96875 4.964844-3.578125 6.742187-4.804687 2.628907 3.289062 6.84375 8.539062 13.660157 17 1.800781 2.234375 4.5 3.515625 7.339843 3.515625.269532 0 .535157-.011719.804688-.035156 3.128906-.265626 5.914062-2.0625 7.441406-4.804688l2.730469-4.898438 2.730469 4.898438c1.53125 2.742188 4.3125 4.539062 7.441406 4.804688 3.113281.257812 6.171875-1.035157 8.144531-3.480469 6.8125-8.460938 11.03125-13.710938 13.660157-17 1.777343 1.226562 4.039062 2.832031 6.738281 4.804687 2.960937 2.164063 6.949219 2.410156 10.160156.621094l28.511719-15.90625c2.121094-1.183594 3.6875-3.109375 4.40625-5.417969l13.128906-41.929687c1.316406-4.210938-.417969-8.714844-4.21875-10.953125-3.804688-2.238281-8.582031-1.566407-11.621094 1.628906l-15.464844 16.257813-15.855468 5.746093-8.628906-5.640625c-3.296876-2.15625-7.695313-1.886718-10.703126.652344l-10.796874 9.113281-10.714844-12.96875c-1.710938-2.070312-4.230469-3.257812-6.917969-3.257812h-.003906c-2.683594 0-5.207031 1.1875-6.914063 3.257812l-10.71875 12.96875-10.792968-9.109375c-3.007813-2.542968-7.410157-2.8125-10.703126-.660156l-8.632812 5.644531-15.855469-5.746093-15.460937-16.257813c-3.042969-3.195313-7.820313-3.867187-11.625-1.628906-3.796875 2.238281-5.535156 6.742187-4.214844 10.953125zm58.519531 52.171875c.082031.121093.210938.296875.445313.609375-.15625-.191406-.300782-.394532-.445313-.609375zm12.425781-8.402344c.113282.160156.1875.277344.230469.351563-.074219-.117188-.148437-.238282-.230469-.351563zm47.722657.351563c.039062-.0625.113281-.183594.230469-.351563-.078126.117187-.15625.234375-.230469.351563zm12.230469 8.636718c.230468-.304687.351562-.476562.433593-.597656-.136719.210938-.285156.410156-.433593.597656zm-106.039063-32.203125 20.027344 7.253907c2.640625.953124 5.613281.605468 7.957031-.925782l7.398438-4.835937 12.019531 10.148437c1.847656 1.558594 4.191406 2.308594 6.59375 2.082032 2.40625-.21875 4.578125-1.359376 6.117187-3.222657l9.949219-12.042969 9.949219 12.039063c1.539062 1.863281 3.710937 3.007813 6.117187 3.226563 2.390625.21875 4.746094-.523438 6.589844-2.082032l12.023437-10.148437 7.398438 4.835937c2.347656 1.53125 5.320312 1.878906 7.964844.925782l20.027344-7.257813c1.273437-.460937 2.441406-1.21875 3.386718-2.195313l-5.3125 16.972657-23.472656 13.09375c-10.9375-7.894531-12.652344-8.417969-15.929688-7.769531-1.90625.375-3.632812 1.507812-4.746093 3.09375-.585938.777343-4.128907 5.226562-12.1875 15.242187l-3.566407-6.402344c-1.667968-2.984375-4.824218-4.839843-8.246093-4.839843-3.417969 0-6.574219 1.855468-8.238281 4.84375l-3.570313 6.398437c-8.058594-10.019531-11.601563-14.46875-12.183594-15.246094-1.117187-1.585937-2.84375-2.714843-4.746093-3.089843-3.28125-.648438-4.992188-.125-15.933594 7.769531l-23.46875-13.09375-5.316406-16.972657c.945312.972657 2.113281 1.730469 3.398437 2.199219zm0 0"/></svg>