<svg height="512pt" viewBox="-107 0 512 512" width="512pt" xmlns="http://www.w3.org/2000/svg"><path d="m128.625 274.628906h41.105469v229.871094h-41.105469zm0 0" fill="#d8e6f0"/><path d="m128.621094 312.40625c6.714844.976562 13.574218 1.492188 20.554687 1.492188 6.984375 0 13.84375-.515626 20.554688-1.492188v-42.785156h-41.109375zm0 0" fill="#bdcdd6"/><path d="m151.992188 274.628906h17.738281v229.871094h-17.738281zm0 0" fill="#bdcdd6"/><path d="m290.851562 149.175781c0 78.246094-63.429687 141.675781-141.675781 141.675781-78.246093 0-141.675781-63.429687-141.675781-141.675781 0-78.246093 63.429688-141.675781 141.675781-141.675781 78.246094 0 141.675781 63.429688 141.675781 141.675781zm0 0" fill="#ffa436"/><path d="m193.695312 14.644531c44.507813 23.886719 74.777344 70.863281 74.777344 124.910157 0 78.246093-63.429687 141.675781-141.671875 141.675781-15.554687 0-30.519531-2.511719-44.523437-7.144531 19.925781 10.691406 42.703125 16.765624 66.898437 16.765624 78.246094 0 141.675781-63.429687 141.675781-141.675781 0-62.691406-40.722656-115.863281-97.15625-134.53125zm0 0" fill="#cc6d0e"/><path d="m246.492188 113.5-76.476563-64.972656c-11.792969-10.015625-28.925781-10.601563-41.375-1.414063l-68.375 50.460938c-12.890625 9.515625-17.5625 26.636719-11.285156 41.378906l33.195312 78c6.089844 14.316406 23.058594 20.441406 36.890625 13.320313l48.636719-25.046876c11.632813-5.992187 17.140625-19.589843 12.949219-31.992187l-17.023438-50.382813c-1.980468-5.867187-8.007812-9.355468-14.082031-8.144531l-37.511719 7.46875c-7.289062 1.453125-11.644531 8.972657-9.277344 16.015625l10.902344 32.429688c.796875 2.371094 4.273438 1.914062 4.433594-.578125l1.175781-18.46875c.378907-5.96875 5.128907-10.726563 11.097657-11.121094l9.539062-.628906c5.449219-.359375 10.441406 3.03125 12.117188 8.230469l5.203124 16.167968c2.613282 8.125-.496093 17-7.613281 21.710938l-25.4375 16.859375c-9.503906 6.296875-22.394531 2.226562-26.558593-8.390625l-23.066407-58.824219c-4.054687-10.332031-.53125-22.097656 8.535157-28.507813l47.472656-33.550781c10.910156-7.710937 25.6875-6.902343 35.691406 1.949219l53.027344 46.921875c8.925781 7.898437 12.058594 20.480469 7.882812 31.644531l-19.101562 51.058594c-2.941406 7.855469-8.421875 14.5-15.570313 18.878906l-93.96875 57.539063c14.164063 5.425781 29.417969 8.640625 45.34375 9.226562l74.023438-52.574219c6.382812-4.527343 11.210937-10.917968 13.832031-18.289062l24.6875-69.484375c4.679688-13.160156.734375-27.84375-9.914062-36.890625zm0 0" fill="#6e7093"/><path d="m126.800781 281.230469c-8.316406 0-16.460937-.722657-24.382812-2.101563l-3.890625 2.382813c14.507812 5.558593 29.796875 8.65625 45.335937 9.230469l20.492188-14.554688c-11.960938 3.28125-24.550781 5.042969-37.554688 5.042969zm0 0" fill="#4e5173"/><path d="m233.277344 349.804688c-5.328125-2.445313-5.328125-6.492188 0-8.9375 5.332031-2.445313 10.167968-6.523438 12.25-12.003907 2.085937-5.480469.820312-12.417969-3.886719-15.917969-4.980469-3.703124-11.917969-2.742187-17.941406-1.253906-21.933594 5.421875-42.652344 15.691406-60.253907 29.851563v7.585937c17.601563 14.164063 38.320313 24.429688 60.253907 29.851563 6.023437 1.488281 12.960937 2.449219 17.941406-1.253907 4.707031-3.5 5.972656-10.4375 3.886719-15.917968-2.082032-5.480469-6.917969-9.558594-12.25-12.003906zm0 0" fill="#50b596"/><path d="m65.074219 349.804688c5.332031-2.445313 5.332031-6.492188 0-8.9375-5.328125-2.445313-10.164063-6.523438-12.25-12.003907-2.085938-5.480469-.816407-12.417969 3.890625-15.917969 4.976562-3.703124 11.917968-2.742187 17.941406-1.253906 21.929688 5.421875 42.652344 15.691406 60.253906 29.851563v7.585937c-17.601562 14.164063-38.324218 24.429688-60.253906 29.851563-6.023438 1.488281-12.964844 2.449219-17.941406-1.253907-4.707032-3.5-5.976563-10.4375-3.890625-15.917968 2.085937-5.480469 6.921875-9.558594 12.25-12.003906zm0 0" fill="#50b596"/><path d="m172.476562 328.71875h-46.597656c-9.179687 0-16.617187 7.441406-16.617187 16.617188 0 9.175781 7.4375 16.613281 16.617187 16.613281h46.597656c9.175782 0 16.613282-7.4375 16.613282-16.613281 0-9.175782-7.4375-16.617188-16.613282-16.617188zm0 0" fill="#81ebc7"/><path d="m177.226562 295.707031c68.894532-13.160156 121.125-73.859375 121.125-146.53125 0-82.253906-66.917968-149.175781-149.175781-149.175781-41.433593 0-79.9375 16.589844-108.414062 46.710938-2.847657 3.007812-2.714844 7.753906.296875 10.601562 3.007812 2.84375 7.753906 2.714844 10.601562-.296875 25.617188-27.09375 60.246094-42.015625 97.515625-42.015625 73.984375 0 134.175781 60.191406 134.175781 134.175781 0 67.125-49.546874 122.898438-113.992187 132.660157l52.871094-37.550782c7.675781-5.453125 13.402343-13.023437 16.554687-21.894531l24.691406-69.488281c5.683594-15.996094.8125-34.125-12.128906-45.117188l-76.476562-64.972656c-14.515625-12.332031-35.359375-13.046875-50.6875-1.734375l-68.371094 50.460937c-15.753906 11.628907-21.402344 32.332032-13.734375 50.351563l33.195313 78c3.714843 8.734375 10.96875 15.59375 19.894531 18.816406 8.929687 3.222657 18.890625 2.578125 27.328125-1.765625l48.640625-25.046875c15.050781-7.753906 22.039062-25.023437 16.621093-41.058593l-17.023437-50.386719c-3.175781-9.40625-12.914063-15.035157-22.652344-13.097657l-37.511719 7.46875c-5.585937 1.113282-10.429687 4.578126-13.285156 9.507813-2.851562 4.929687-3.449218 10.855469-1.636718 16.253906l10.902343 32.433594c1.511719 4.488281 5.84375 7.199219 10.542969 6.578125 4.691406-.617188 8.183594-4.347656 8.484375-9.074219l1.175781-18.46875c.140625-2.199219 1.90625-3.96875 4.105469-4.113281l9.539063-.628906c2.019531-.128906 3.863281 1.117187 4.484374 3.042968l5.203126 16.171876c1.574218 4.902343-.320313 10.316406-4.613282 13.160156l-25.441406 16.855468c-2.628906 1.746094-5.867188 2.199219-8.878906 1.25-3.011719-.949218-5.398438-3.183593-6.550782-6.121093l-23.070312-58.824219c-2.800781-7.140625-.382812-15.21875 5.882812-19.644531l47.472657-33.554688c8.105469-5.730469 18.960937-5.136719 26.394531 1.441407l53.027344 46.925781c6.550781 5.796875 8.894531 15.199219 5.828125 23.398437l-3.433594 9.171875c-1.449219 3.878907.519531 8.199219 4.398437 9.652344 3.878907 1.453125 8.199219-.519531 9.652344-4.398437l3.429688-9.171876c5.230468-13.972656 1.234375-30.003906-9.9375-39.886718l-53.027344-46.925782c-12.667969-11.214843-31.167969-12.222656-44.988281-2.457031l-47.476563 33.550781c-11.914062 8.421876-16.515625 23.789063-11.1875 37.371094l23.070313 58.824219c2.8125 7.179687 8.644531 12.628906 16 14.949219 7.351562 2.324218 15.253906 1.214844 21.679687-3.046875l25.441406-16.855469c9.871094-6.542969 14.230469-18.984375 10.605469-30.261719l-5.203125-16.167969c-2.730468-8.488281-10.855468-14.003906-19.746094-13.417968l-9.542968.628906c-7.667969.503906-14.132813 5.484375-16.808594 12.339844l-3.195312-9.507813c-.605469-1.800781-.011719-3.25.398437-3.957031.40625-.703125 1.371094-1.941406 3.230469-2.3125l37.511718-7.46875c2.371094-.476562 4.738282.898438 5.515626 3.1875l17.023437 50.386719c3.023437 8.953125-.878906 18.59375-9.28125 22.917969l-48.636719 25.046874c-4.816406 2.480469-10.273437 2.832032-15.367187.996094-5.097657-1.839844-9.070313-5.597656-11.1875-10.582031l-33.195313-78c-4.9375-11.597656-1.300781-24.921875 8.839844-32.410156l68.375-50.460938c9.695312-7.15625 22.878906-6.703125 32.0625 1.097657l76.480469 64.972656c8.21875 6.984375 11.316406 18.503906 7.703125 28.664062l-24.691406 69.484375c-2.113282 5.953125-5.953126 11.03125-11.101563 14.691407l-71.917969 51.074218c-4.996094-.277344-9.953125-.828125-14.851562-1.648437-.136719-.023438-.269532-.046875-.402344-.070313-.0625-.011718-.125-.019531-.1875-.03125-3.28125-.570312-6.523438-1.257812-9.71875-2.0625l79.933594-48.949218c8.539062-5.226563 15.171875-13.269532 18.679687-22.644532l4.675781-12.5c1.453126-3.882812-.515624-8.203125-4.394531-9.652344-3.878906-1.453124-8.203125.515626-9.652343 4.394532l-4.679688 12.503906c-2.339844 6.253906-6.765625 11.621094-12.460938 15.105469l-90.734374 55.5625c-48.585938-20.195313-82.835938-68.15625-82.835938-123.964844 0-24.3125 6.570312-48.128906 18.996094-68.867187 2.128906-3.550782.976562-8.15625-2.578125-10.289063-3.554688-2.128906-8.15625-.976563-10.289063 2.578125-13.820312 23.070312-21.128906 49.550781-21.128906 76.578125 0 72.792969 52.40625 133.457031 121.125 146.53125v25.984375c-.46875.09375-.933594.203125-1.394531.324219-13.578125-7.945313-28.117188-13.863281-43.273438-17.605469-6.71875-1.664062-16.539062-3.210938-24.214843 2.523438-7.136719 5.300781-9.839844 15.648437-6.429688 24.585937 2.082031 5.496094 6.195312 10.285156 11.792969 13.820313-5.589844 3.519531-9.703125 8.304687-11.789063 13.796874-3.414062 8.957032-.714844 19.308594 6.421875 24.609376 4.101563 3.058593 8.8125 4.039062 13.335938 4.039062 3.949219 0 7.75-.75 10.878906-1.523438 9.980469-2.464843 19.695313-5.871093 29.039063-10.179687-7.25 10.527344-14.414063 12.957031-22.972657 20.21875-20.710937 17.484375-16.78125 38.214844-2.378906 60.960937 5.0625 8.003907 9.84375 15.5625 10.296875 24.085938.210938 4.003906 3.523438 7.105469 7.480469 7.105469.136719 0 .269531-.003907.402343-.011719 4.140626-.21875 7.316407-3.75 7.09375-7.886719-1.320312-24.972656-26.097656-40.550781-21.871093-59.886719 3.59375-16.496093 23.632812-16.535156 37.582031-41.359374v125.195312c0 4.144531 3.359375 7.5 7.5 7.5 4.144531 0 7.5-3.355469 7.5-7.5v-135.046875h26.101562v135.046875c0 4.144531 3.355469 7.5 7.5 7.5 4.140626 0 7.5-3.355469 7.5-7.5v-135.519531c.472657-.09375.9375-.203125 1.398438-.324219.492188.285156.980469.570312 1.472656.851562-.066406 5.007813.101563 9.375.515625 13.488282.890625 8.902344 3.496094 21.359375 10.847657 30.140625 14.867187 17.804687 35.382812 8.152343 44.472656 22.5625 2.800781 4.445312 3.832031 11.105469 2.445312 15.832031-1.164062 3.972656 1.113282 8.140625 5.089844 9.304688 3.984375 1.167968 8.144531-1.121094 9.304688-5.089844 2.609374-8.898438.980468-19.910156-4.152344-28.046875-4.152344-6.585938-10.25-11.265625-18.113282-13.90625-3.566406-1.203125-7.019531-1.875-10.355468-2.523438-2.152344-.417969-4.1875-.8125-6.128906-1.324219-5.0625-1.351562-8.46875-3.332031-11.054688-6.429687-3.769531-4.507813-6.480469-12.53125-7.429688-22.019531-.140624-1.398438-.25-2.84375-.324218-4.351563 8.621094 3.808594 17.539062 6.855469 26.683594 9.117188 3.128906.773437 6.933593 1.523437 10.882812 1.523437 4.523438 0 9.230469-.984375 13.332031-4.035156 7.136719-5.304688 9.839844-15.65625 6.425781-24.605469-2.089843-5.5-6.203124-10.289062-11.789062-13.808593 5.597656-3.53125 9.707031-8.320313 11.785156-13.804688 3.414063-8.953125.714844-19.300781-6.410156-24.59375-7.6875-5.742188-17.511719-4.191406-24.226562-2.53125-15.15625 3.742188-29.699219 9.660156-43.273438 17.605469-.460938-.121094-.925781-.226563-1.398438-.324219zm-4.75 58.746094c-51.804687.382813-48.558593-.035156-50.558593-.90625-8.722657-4.230469-5.648438-17.324219 3.960937-17.324219h46.597656c5.027344 0 9.117188 4.085938 9.117188 9.113282-.003906 5.058593-4.125 9.117187-9.117188 9.117187zm-10.25-33.230469h-26.097656v-23.4375c4.300782.375 8.652344.566406 13.046875.566406 4.398438 0 8.75-.195312 13.050781-.566406zm-89.371093 50.476563c-2.167969.535156-8.765625 2.167969-11.664063.011719-1.738281-1.289063-2.359375-4.601563-1.351562-7.238282 1.171875-3.089844 4.21875-5.949218 8.371094-7.847656 7.554687-3.472656 8.363281-9.058594 8.363281-11.296875s-.820313-7.820313-8.363281-11.273437c-4.152344-1.90625-7.203126-4.769532-8.375-7.867188-1-2.621094-.382813-5.925781 1.367187-7.226562 2.890625-2.160157 9.484375-.527344 11.65625.011718 11.523437 2.84375 22.65625 7.078125 33.214844 12.617188-2.714844 3.902344-4.3125 8.640625-4.3125 13.746094 0 5.105468 1.59375 9.84375 4.3125 13.746093-10.558594 5.539063-21.691407 9.773438-33.21875 12.617188zm152.640625-52.726563c2.167968-.535156 8.761718-2.171875 11.667968-.003906 1.734376 1.292969 2.355469 4.597656 1.347657 7.234375-1.167969 3.082031-4.214844 5.945313-8.355469 7.847656-7.554688 3.457031-8.375 9.039063-8.378906 11.277344 0 2.238281.8125 7.824219 8.378906 11.300781 4.140625 1.894532 7.1875 4.753906 8.363281 7.855469 1.003907 2.625.382813 5.9375-1.359375 7.230469-2.898437 2.152344-9.496094.523437-11.664062-.015625-11.523438-2.847657-22.65625-7.078125-33.214844-12.617188 2.714844-3.902343 4.3125-8.640625 4.3125-13.746093 0-5.105469-1.597656-9.84375-4.3125-13.746094 10.558594-5.539063 21.691406-9.773438 33.214844-12.617188zm0 0"/></svg>