<svg height="512pt" viewBox="-41 0 512 512" width="512pt" xmlns="http://www.w3.org/2000/svg"><path d="m421.980469 504.5h-414.480469v-191.839844c0-61.933594 50.210938-112.140625 112.144531-112.140625h190.191407c61.9375 0 112.144531 50.207031 112.144531 112.140625zm0 0" fill="#6e7093"/><path d="m309.835938 200.519531h-24c61.933593 0 112.144531 50.207031 112.144531 112.140625v191.839844h24v-191.839844c0-61.933594-50.210938-112.140625-112.144531-112.140625zm0 0" fill="#4e5173"/><path d="m129.65625 7.5h170.167969c25.839843 0 46.789062 20.949219 46.789062 46.789062v137.78125h-263.746093v-137.78125c0-25.839843 20.949218-46.789062 46.789062-46.789062zm0 0" fill="#6e7093"/><path d="m299.824219 7.5h-23.789063c25.84375 0 46.789063 20.949219 46.789063 46.789062v137.78125h23.789062v-137.78125c0-25.839843-20.949219-46.789062-46.789062-46.789062zm0 0" fill="#4e5173"/><path d="m347.683594 228.734375h-38.8125v-53.613281h38.8125c11.164062 0 20.21875 9.054687 20.21875 20.222656v13.171875c0 11.167969-9.054688 20.21875-20.21875 20.21875zm0 0" fill="#9bc66a"/><path d="m81.796875 228.734375h38.8125v-53.613281h-38.8125c-11.164063 0-20.21875 9.054687-20.21875 20.222656v13.171875c0 11.167969 9.054687 20.21875 20.21875 20.21875zm0 0" fill="#9bc66a"/><path d="m321.449219 88.550781v141.136719c0 12.511719-10.140625 22.652344-22.652344 22.652344h-3.691406c-4.476563 0-8.109375 3.632812-8.109375 8.109375v20.125c0 24.925781-20.207032 45.132812-45.132813 45.132812h-54.246093c-24.925782 0-45.128907-20.207031-45.128907-45.132812v-20.125c0-4.476563-3.632812-8.109375-8.109375-8.109375h-3.691406c-12.511719 0-22.652344-10.140625-22.652344-22.652344v-141.132812c0-2.695313 3.117188-4.191407 5.21875-2.503907l19.445313 15.597657c1.175781.945312 2.847656.945312 4.019531 0l22.65625-18.175782c1.175781-.941406 2.84375-.941406 4.015625 0l22.660156 18.175782c1.171875.945312 2.84375.945312 4.015625 0l22.65625-18.175782c1.175782-.941406 2.84375-.941406 4.015625 0l22.660157 18.179688c1.171874.941406 2.839843.941406 4.015624 0l22.667969-18.179688c1.175781-.941406 2.84375-.941406 4.015625 0l22.660156 18.175782c1.171876.941406 2.84375.945312 4.015626 0l19.457031-15.601563c2.101562-1.683594 5.21875-.1875 5.21875 2.503906zm0 0" fill="#bfea92"/><path d="m387.890625 153.550781h-17.210937c-2.363282 0-4.277344-1.914062-4.277344-4.28125v-35.308593c0-2.363282 1.914062-4.277344 4.277344-4.277344h17.210937c2.363281 0 4.28125 1.914062 4.28125 4.277344v35.308593c0 2.363281-1.917969 4.28125-4.28125 4.28125zm0 0" fill="#accfdd"/><path d="m41.589844 153.550781h17.210937c2.363281 0 4.277344-1.914062 4.277344-4.28125v-35.308593c0-2.363282-1.914063-4.277344-4.277344-4.277344h-17.210937c-2.363282 0-4.28125 1.914062-4.28125 4.277344v35.308593c.003906 2.363281 1.917968 4.28125 4.28125 4.28125zm0 0" fill="#accfdd"/><path d="m421.980469 373.910156-14.195313-18.164062c-1.28125-1.644532-3.769531-1.644532-5.058594 0l-11.660156 14.925781c-1.285156 1.644531-3.777344 1.644531-5.058594 0l-11.660156-14.925781c-1.285156-1.644532-3.777344-1.644532-5.0625 0l-11.65625 14.925781c-1.285156 1.644531-3.773437 1.644531-5.058594 0l-8.445312-10.8125c-1.878906-2.40625-5.738281-1.078125-5.738281 1.976563v142.664062h83.59375zm0 0" fill="#bfea92"/><path d="m407.785156 355.746094c-1.28125-1.644532-3.769531-1.644532-5.058594 0l-4.746093 6.078125v142.675781h24v-130.59375zm0 0" fill="#9bc66a"/><path d="m7.5 373.910156 14.191406-18.164062c1.285156-1.644532 3.773438-1.644532 5.0625 0l11.660156 14.925781c1.285157 1.644531 3.773438 1.644531 5.058594 0l11.660156-14.925781c1.285157-1.644532 3.773438-1.644532 5.058594 0l11.660156 14.925781c1.285157 1.644531 3.773438 1.644531 5.058594 0l8.445313-10.8125c1.878906-2.40625 5.738281-1.078125 5.738281 1.976563v142.664062h-83.59375zm0 0" fill="#bfea92"/><path d="m421.082031 268.550781c-1.53125-3.847656-5.890625-5.734375-9.738281-4.203125-3.851562 1.53125-5.730469 5.890625-4.203125 9.742188 4.871094 12.261718 7.339844 25.238281 7.339844 38.570312v39.472656l-.785157-1.003906c-2.042968-2.617187-5.117187-4.117187-8.4375-4.117187-3.316406 0-6.394531 1.5-8.4375 4.117187l-8.28125 10.597656-8.28125-10.597656c-2.042968-2.613281-5.117187-4.113281-8.4375-4.113281-3.320312 0-6.394531 1.5-8.4375 4.113281l-8.28125 10.597656-5.0625-6.484374c-1.121093-1.433594-2.554687-2.523438-4.148437-3.21875v-22.28125c0-4.144532-3.359375-7.5-7.5-7.5-4.144531 0-7.5 3.355468-7.5 7.5v167.257812h-232.296875v-167.261719c0-4.140625-3.355469-7.5-7.5-7.5s-7.5 3.359375-7.5 7.5v22.285157c-1.59375.695312-3.03125 1.785156-4.148438 3.21875l-5.0625 6.484374-8.28125-10.597656c-2.042968-2.617187-5.117187-4.117187-8.4375-4.117187-3.320312 0-6.394531 1.5-8.4375 4.117187l-8.28125 10.597656-8.28125-10.597656c-2.042968-2.617187-5.121093-4.117187-8.4375-4.117187-3.320312 0-6.398437 1.5-8.441406 4.117187l-.78125 1.003906v-39.472656c0-34.519531 17.28125-66.964844 45.550782-86.355468 5.089843 6.070312 12.726562 9.933593 21.25 9.933593h19.449218c3 13.488281 15.054688 23.601563 29.433594 23.601563h3.691406c.335938 0 .609375.273437.609375.609375v20.128906c0 29.019531 23.609375 52.628906 52.628907 52.628906h54.25c29.019531 0 52.628906-23.609375 52.628906-52.628906v-20.128906c0-.335938.273437-.609375.613281-.609375h3.691406c14.375 0 26.433594-10.113282 29.433594-23.601563h19.449219c8.53125 0 16.171875-3.871093 21.261718-9.953125 9.242188 6.324219 17.359376 14.050782 24.199219 23.035156 1.476563 1.941407 3.710938 2.957032 5.972657 2.957032 1.585937 0 3.179687-.5 4.539062-1.53125 3.292969-2.507813 3.933594-7.214844 1.425781-10.507813-8.375-11.007812-18.433593-20.355469-29.945312-27.851562.175781-1.265625.265625-2.554688.265625-3.867188v-13.179687c0-13.070313-9.09375-24.058594-21.289063-26.964844v-29.257812h4.792969v10.152343c0 6.496094 5.28125 11.78125 11.777344 11.78125h17.210937c6.496094 0 11.777344-5.285156 11.777344-11.78125v-35.308593c0-6.496094-5.28125-11.777344-11.777344-11.777344h-17.210937c-6.496094 0-11.777344 5.28125-11.777344 11.777344v10.15625h-4.792969v-69.828126c-.003906-29.933593-24.355469-54.289062-54.292969-54.289062h-170.160156c-8.730468 0-17.410156 2.125-25.101562 6.144531-3.671875 1.917969-5.09375 6.449219-3.175782 10.117188 1.917969 3.671875 6.449219 5.09375 10.121094 3.175781 5.636719-2.945312 11.742188-4.4375 18.15625-4.4375h170.160156c21.664063 0 39.289063 17.625 39.289063 39.289062v113.332032h-10.160156v-79.070313c0-4.15625-2.328125-7.855469-6.078125-9.65625-3.75-1.796875-8.089844-1.300781-11.332032 1.300781l-16.773437 13.453126-19.976563-16.023438c-3.945312-3.164062-9.457031-3.164062-13.402343-.003906l-19.980469 16.027344-19.976562-16.023438c-3.945313-3.164062-9.457032-3.164062-13.402344 0l-19.972656 16.023438-19.972657-16.023438c-3.945312-3.164062-9.457031-3.164062-13.402343 0l-19.972657 16.023438-16.761719-13.449219c-3.242187-2.601563-7.585937-3.097657-11.335937-1.300781-3.75 1.796874-6.078125 5.496093-6.078125 9.65625v79.066406h-10.160156v-113.332032c0-5.558593 1.132812-10.929687 3.363281-15.953124 1.679687-3.789063-.023437-8.21875-3.8125-9.898438-3.78125-1.679688-8.21875.023438-9.898437 3.808594-3.085938 6.957031-4.652344 14.375-4.652344 22.042968v69.828126h-4.792969v-10.152344c0-6.496094-5.28125-11.78125-11.777344-11.78125h-17.210937c-6.496094 0-11.777344 5.285156-11.777344 11.78125v35.308594c0 6.496093 5.28125 11.777343 11.777344 11.777343h17.210937c6.496094 0 11.777344-5.285156 11.777344-11.777343v-10.15625h4.792969v29.257812c-12.195313 2.90625-21.292969 13.894531-21.292969 26.964844v13.179687c0 1.320313.09375 2.617188.273437 3.890625-33.664062 21.964844-54.351562 59.867188-54.351562 100.25v191.839844c0 4.140625 3.355469 7.5 7.5 7.5h414.480469c4.140625 0 7.5-3.359375 7.5-7.5v-191.839844c0-15.234375-2.828125-30.074218-8.398438-44.109375zm-47.179687-151.367187h10.769531v28.867187h-10.769531zm-318.324219 28.867187h-10.769531v-28.867187h10.769531zm292.101563 36.570313c7.015624 0 12.71875 5.703125 12.71875 12.71875v13.179687c0 1.535157-.269532 3.007813-.769532 4.371094-.074218.167969-.140625.335937-.199218.503906-1.917969 4.601563-6.460938 7.84375-11.75 7.84375h-18.730469v-38.617187zm-232.148438-85.125 12.472656 10.003906c3.945313 3.167969 9.457032 3.167969 13.402344 0l19.976562-16.023438 19.972657 16.023438c3.945312 3.167969 9.457031 3.164062 13.402343 0l19.972657-16.023438 19.972656 16.023438c3.945313 3.164062 9.457031 3.164062 13.402344.003906l19.984375-16.027344 19.972656 16.023438c3.945312 3.164062 9.457031 3.164062 13.402344.003906l12.484375-10.011718v132.195312c0 8.355469-6.796875 15.152344-15.152344 15.152344h-3.691406c-8.605469 0-15.609375 7.003906-15.609375 15.609375v20.125c0 20.75-16.882813 37.632812-37.632813 37.632812h-54.246093c-20.75 0-37.632813-16.882812-37.632813-37.632812v-20.125c0-8.605469-7-15.609375-15.609375-15.609375h-3.691406c-8.351563 0-15.148438-6.796875-15.148438-15.152344v-132.191406zm-46.453125 97.84375c0-7.015625 5.707031-12.71875 12.722656-12.71875h18.730469v38.617187h-18.730469c-5.359375 0-9.953125-3.328125-11.824219-8.023437-.015624-.042969-.03125-.082032-.046874-.125-.546876-1.417969-.851563-2.960938-.851563-4.570313zm-54.078125 301.660156v-120.507812l9.222656-11.800782 8.28125 10.597656c2.042969 2.613282 5.117188 4.113282 8.4375 4.113282 3.320313 0 6.398438-1.5 8.441406-4.113282l8.277344-10.597656 8.28125 10.59375c2.042969 2.617188 5.117188 4.117188 8.4375 4.117188 3.320313 0 6.398438-1.5 8.441406-4.117188l.769532-.988281v122.703125zm330.886719 0v-122.703125l.769531.988281c2.042969 2.617188 5.121094 4.117188 8.441406 4.117188 3.320313 0 6.394532-1.5 8.4375-4.117188l8.28125-10.59375 8.28125 10.597656c2.042969 2.617188 5.117188 4.117188 8.4375 4.113282 3.320313 0 6.394532-1.5 8.4375-4.113282l8.28125-10.601562 9.222656 11.800781v120.511719zm0 0"/><path d="m160.707031 240.761719h6.945313v3.65625c0 4.140625 3.355468 7.5 7.5 7.5 4.140625 0 7.5-3.359375 7.5-7.5v-3.65625h11.390625v3.65625c0 4.140625 3.359375 7.5 7.5 7.5 4.144531 0 7.5-3.359375 7.5-7.5v-3.65625h11.394531v3.65625c0 4.140625 3.355469 7.5 7.5 7.5 4.140625 0 7.5-3.359375 7.5-7.5v-3.65625h11.390625v3.65625c0 4.140625 3.359375 7.5 7.5 7.5 4.144531 0 7.5-3.359375 7.5-7.5v-3.65625h6.945313c4.144531 0 7.5-3.355469 7.5-7.5 0-4.140625-3.355469-7.5-7.5-7.5h-6.945313v-3.652344c0-4.140625-3.355469-7.5-7.5-7.5-4.140625 0-7.5 3.359375-7.5 7.5v3.652344h-11.390625v-3.652344c0-4.140625-3.359375-7.5-7.5-7.5-4.144531 0-7.5 3.359375-7.5 7.5v3.652344h-11.394531v-3.652344c0-4.140625-3.355469-7.5-7.5-7.5-4.140625 0-7.5 3.359375-7.5 7.5v3.652344h-11.390625v-3.652344c0-4.140625-3.359375-7.5-7.5-7.5-4.144532 0-7.5 3.359375-7.5 7.5v3.652344h-6.945313c-4.144531 0-7.5 3.359375-7.5 7.5 0 4.144531 3.355469 7.5 7.5 7.5zm0 0"/><path d="m285.003906 161.050781h-56.328125c-4.144531 0-7.5-3.359375-7.5-7.5 0-4.144531 3.355469-7.5 7.5-7.5h56.328125c.09375 0 .171875-.078125.171875-.171875v-3.878906c0-.085938-.085937-.171875-.171875-.171875h-8.328125c-4.144531 0-7.5-3.355469-7.5-7.5 0-4.140625 3.355469-7.5 7.5-7.5h8.328125c8.363282 0 15.171875 6.808594 15.171875 15.171875v3.878906c0 8.367188-6.808593 15.171875-15.171875 15.171875zm0 0"/><path d="m285.101562 158.089844c0 13.121094-10.636718 23.761718-23.757812 23.761718s-23.761719-10.640624-23.761719-23.761718c0-1.550782.152344-3.070313.441407-4.539063h46.640624c.289063 1.46875.4375 2.988281.4375 4.539063zm0 0" fill="#e6eff5"/><path d="m261.34375 189.351562c-17.238281 0-31.261719-14.023437-31.261719-31.261718 0-2.019532.195313-4.03125.582031-5.992188.695313-3.515625 3.777344-6.046875 7.359376-6.046875h46.640624c3.582032 0 6.664063 2.535157 7.355469 6.046875.386719 1.957032.582031 3.972656.582031 5.992188 0 17.238281-14.023437 31.261718-31.257812 31.261718zm-15.992188-28.300781c1.394532 7.554688 8.035157 13.300781 15.992188 13.300781 7.953125 0 14.59375-5.746093 15.988281-13.300781zm0 0"/><path d="m200.804688 161.050781h-56.328126c-8.363281 0-15.171874-6.804687-15.171874-15.171875v-3.878906c0-8.363281 6.808593-15.171875 15.171874-15.171875h8.328126c4.144531 0 7.5 3.359375 7.5 7.5 0 4.144531-3.355469 7.5-7.5 7.5h-8.328126c-.085937 0-.171874.085937-.171874.171875v3.878906c0 .09375.078124.171875.171874.171875h56.328126c4.144531 0 7.5 3.355469 7.5 7.5 0 4.140625-3.355469 7.5-7.5 7.5zm0 0"/><path d="m144.378906 158.089844c0 13.121094 10.636719 23.761718 23.757813 23.761718 13.121093 0 23.761719-10.640624 23.761719-23.761718 0-1.550782-.152344-3.070313-.441407-4.539063h-46.640625c-.289062 1.46875-.4375 2.988281-.4375 4.539063zm0 0" fill="#e6eff5"/><path d="m168.136719 189.351562c-17.238281 0-31.261719-14.023437-31.261719-31.261718 0-2.019532.195312-4.03125.582031-5.992188.695313-3.515625 3.777344-6.046875 7.359375-6.046875h46.640625c3.582031 0 6.664063 2.535157 7.355469 6.046875.386719 1.957032.582031 3.972656.582031 5.992188.003907 17.238281-14.019531 31.261718-31.257812 31.261718zm-15.992188-28.300781c1.398438 7.554688 8.035157 13.300781 15.992188 13.300781 7.953125 0 14.59375-5.746093 15.992187-13.300781zm0 0"/></svg>