<svg height="511pt" viewBox="-36 0 511 511.998" width="511pt" xmlns="http://www.w3.org/2000/svg"><path d="m399.242188 140.671875h-70.0625v-107.738281c0-7.019532 2.84375-13.378906 7.441406-17.992188 4.613281-4.59375 10.960937-7.441406 17.992187-7.441406 11.125 0 20.960938 7.222656 24.273438 17.84375l31.375 100.332031c2.328125 7.4375-3.226563 14.996094-11.019531 14.996094zm0 0" fill="#f8cc7c"/><path d="m329.179688 32.933594v107.738281h24.148437v-107.738281c0-7.019532 2.847656-13.378906 7.445313-17.992188 1.738281-1.730468 3.722656-3.214844 5.898437-4.390625-3.625-1.953125-7.738281-3.050781-12.058594-3.050781-7.03125 0-13.378906 2.847656-17.992187 7.441406-4.597656 4.613282-7.441406 10.972656-7.441406 17.992188zm0 0" fill="#d3a159"/><path d="m354.613281 7.5c-7.03125 0-13.378906 2.847656-17.992187 7.441406-4.597656 4.613282-7.441406 10.972656-7.441406 17.992188v373.121094c0 12.308593-9.980469 22.285156-22.289063 22.285156h-276.605469c-12.308594 0-22.285156-9.976563-22.285156-22.285156v-373.121094c0-7.019532 2.84375-13.378906 7.441406-17.992188 4.613282-4.59375 10.960938-7.441406 17.992188-7.441406zm0 0" fill="#fdeaaf"/><path d="m221.769531 117.871094c0 29.371094-23.808593 53.179687-53.179687 53.179687s-53.183594-23.808593-53.183594-53.179687 23.8125-53.179688 53.183594-53.179688 53.179687 23.808594 53.179687 53.179688zm0 0" fill="#b78358"/><path d="m359.324219 344.015625c-.863281-.1875-1.714844.457031-1.613281 1.222656 1.527343 11.828125-10.921876 37.699219-17.660157 41.496094-1.503906.117187-3.609375.085937-6.039062-.042969.25-4.050781.042969-8.191406-.691407-12.363281-.855468-4.839844-2.347656-9.40625-4.382812-13.632813.628906-1.027343 1.207031-2.085937 1.726562-3.179687 6.261719-13.085937 3.757813-28.496094-6.222656-38.34375l-4.417968-4.359375c-.230469-.226562-.570313-.308594-.878907-.210938l-5.921875 1.84375c-8.488281 2.640626-15.71875 8.3125-20.304687 15.8125-6.472657-1.414062-13.320313-1.617187-20.25-.394531-6.929688 1.222657-13.292969 3.753907-18.890625 7.296875-6.878906-5.480468-15.613282-8.335937-24.488282-7.914062l-6.199218.292968c-.324219.015626-.613282.207032-.75.5l-2.660156 5.605469c-6.011719 12.667969-3.09375 28.003907 7.261718 38.160157.867188.847656 1.773438 1.644531 2.710938 2.398437-.484375 4.894531-.289063 9.945313.679687 15.027344.742188 3.90625 1.925781 7.625 3.460938 11.128906-2.242188.957031-4.214844 1.707031-5.675781 2.109375-7.628907-1.257812-28.175782-21.316406-30.785157-32.953125-.171875-.753906-1.1875-1.066406-1.9375-.59375-46.722656 29.261719-44.71875 90.484375-29.480469 130.886719.375.992187 2.054688.890625 2.390626-.144532 5.035156-15.527343 23.457031-59.75 50.355468-37.570312.730469.601562 1.996094.183594 2.121094-.703125 1.4375-9.953125 9.960938-35.398437 35.097656-33.707031 7.210938 19.679687 28.03125 31.96875 39.664063 29.917968 11.636719-2.050781 26.996093-20.71875 27.042969-41.679687 23.039062-10.1875 39.753906 10.808594 44.507812 19.671875.421875.789062 1.753906.746094 2.234375-.066406 17.691406-30.042969 50.128906 5.210937 60.171875 18.082031.667969.855469 2.28125.375 2.296875-.683594.5-43.175781-18.558594-101.394531-72.472656-112.910156zm0 0" fill="#6e7093"/><path d="m8 121.664062c4.140625 0 7.5-3.355468 7.5-7.5v-81.226562c0-4.789062 1.863281-9.300781 5.238281-12.683594 3.398438-3.386718 7.90625-5.253906 12.695313-5.253906h293.539062c-3.5 5.371094-5.292968 11.628906-5.292968 17.9375v241.269531c0 4.144531 3.355468 7.5 7.5 7.5 4.140624 0 7.5-3.355469 7.5-7.5v-126.035156h62.5625c6.125 0 11.71875-2.832031 15.347656-7.769531 3.628906-4.933594 4.660156-11.121094 2.832031-16.964844l-31.375-100.328125c-4.3125-13.824219-16.945313-23.109375-31.433594-23.109375h-321.179687c-8.785156 0-17.054688 3.421875-23.300782 9.648438-6.210937 6.230468-9.632812 14.5-9.632812 23.285156v81.230468c0 4.144532 3.355469 7.5 7.5 7.5zm363.726562-94.085937 31.378907 100.335937c.53125 1.699219-.148438 2.988282-.601563 3.605469-.453125.617188-1.480468 1.652344-3.261718 1.652344h-62.5625v-100.234375c0-9.914062 8-17.9375 17.933593-17.9375 7.890625 0 14.769531 5.054688 17.113281 12.578125zm0 0"/><path d="m229.269531 117.871094c0-33.460938-27.222656-60.679688-60.679687-60.679688-33.460938 0-60.683594 27.21875-60.683594 60.679688 0 33.457031 27.222656 60.679687 60.683594 60.679687 33.457031 0 60.679687-27.222656 60.679687-60.679687zm-106.363281 0c0-25.1875 20.492188-45.679688 45.683594-45.679688 25.1875 0 45.679687 20.492188 45.679687 45.679688s-20.492187 45.679687-45.679687 45.679687c-25.191406 0-45.683594-20.492187-45.683594-45.679687zm0 0"/><path d="m238.824219 204.933594h-140.472657c-4.140624 0-7.5 3.355468-7.5 7.5 0 4.140625 3.359376 7.5 7.5 7.5h140.472657c4.144531 0 7.5-3.359375 7.5-7.5 0-4.144532-3.355469-7.5-7.5-7.5zm0 0"/><path d="m238.824219 266.707031h-140.472657c-4.140624 0-7.5 3.359375-7.5 7.5 0 4.144531 3.359376 7.5 7.5 7.5h140.472657c4.144531 0 7.5-3.355469 7.5-7.5 0-4.140625-3.355469-7.5-7.5-7.5zm0 0"/><path d="m422.578125 385.0625c-13.90625-26-35.234375-42.730469-61.6875-48.382812-2.828125-.601563-5.789063.199218-7.910156 2.152343-2.046875 1.886719-3.058594 4.636719-2.710938 7.367188.863281 6.667969-4.644531 20.054687-9.367187 28.011719-.0625-.394532-.125-.789063-.195313-1.183594-.726562-4.113282-1.871093-8.125-3.417969-11.976563.050782-.101562.097657-.199219.144532-.300781 7.636718-15.96875 4.535156-34.824219-7.722656-46.917969l-4.429688-4.367187c-2.199219-2.164063-5.398438-2.941406-8.363281-2.023438l-5.921875 1.84375c-8.535156 2.652344-16.011719 7.820313-21.488282 14.773438-6.015624-.789063-12.09375-.648438-18.140624.417968-6.046876 1.0625-11.808594 3.015626-17.1875 5.808594-7.527344-4.65625-16.332032-6.953125-25.246094-6.53125l-6.207032.292969c-3.089843.148437-5.835937 1.980469-7.164062 4.777344l-2.660156 5.605469c-7.382813 15.554687-3.847656 34.335937 8.789062 46.730468.078125.078125.160156.152344.238282.230469-.144532 4.421875.199218 8.863281 1.035156 13.246094.023437.117187.046875.238281.070312.355469-7.160156-5.863282-16.914062-16.554688-18.386718-23.117188-.601563-2.683594-2.492188-4.925781-5.058594-5.996094-2.664063-1.109375-5.722656-.851562-8.175782.683594-19.601562 12.277344-32.917968 30.886719-38.972656 54.277344h-122.160156c-8.148438 0-14.777344-6.636719-14.777344-14.792969v-261.699219c0-4.144531-3.359375-7.5-7.5-7.5-4.144531 0-7.5 3.355469-7.5 7.5v261.699219c0 16.429687 13.355469 29.792969 29.777344 29.792969h119.355469c-2.65625 22.289062.675781 47.855468 9.257812 70.605468 1.253907 3.34375 4.507813 5.550782 8.136719 5.550782h.207031c3.761719-.085938 7.058594-2.503906 8.199219-6.019532 5.449219-16.804687 15.523438-35.09375 25.738281-38.074218 1.441407-.421875 5.828125-1.699219 12.714844 3.976562 2.445313 2.015625 5.832031 2.550782 8.828125 1.390625 2.9375-1.132812 5.042969-3.742187 5.488281-6.808593.660157-4.574219 2.960938-11.992188 7.273438-17.839844 4.160156-5.640625 9.253906-8.738282 15.480469-9.390625 4.160156 8.476562 10.695312 16.054687 18.800781 21.710937 9.316406 6.503906 19.1875 9.4375 27.085937 8.042969 7.890625-1.390625 16.164063-7.519531 22.699219-16.820313 5.679687-8.085937 9.226563-17.4375 10.238281-26.816406 18.460938-4.550781 30.175782 16.8125 30.703125 17.796875 1.464844 2.722657 4.328125 4.453125 7.480469 4.515625h.175781c3.148438 0 6.066407-1.644531 7.644531-4.328125 4.53125-7.691406 9.089844-7.988281 10.585938-8.085937 10.589844-.683594 26.34375 13.050781 37.214844 26.980468 2.269531 2.90625 6.191406 4.050782 9.757812 2.847657 3.515625-1.1875 5.90625-4.429688 5.945313-8.0625.296875-25.316407-5.796875-51.539063-16.714844-71.949219zm-6.605469 47.855469c-11.039062-8.988281-21.316406-13.234375-30.570312-12.640625-4.765625.3125-11.042969 2.074218-16.863282 7.957031-9.078124-11.53125-25.4375-23.585937-45.808593-16.429687-.128907.042968-.253907.085937-.378907.136718-.921874.332032-1.855468.707032-2.796874 1.125-2.710938 1.195313-4.460938 3.878906-4.46875 6.84375 0 .5-.011719 1-.035157 1.496094-.007812.109375-.011719.21875-.015625.328125-.898437 17.1875-13.742187 31.238281-20.792968 32.484375-7.308594 1.269531-25.125-8.203125-31.316407-25.113281-1.023437-2.78125-3.582031-4.703125-6.539062-4.902344-23.828125-1.59375-36.019531 16.351563-40.84375 31.011719-7.480469-3.535156-13.980469-3.046875-18.566407-1.707032-8.894531 2.59375-17.105468 10.109376-24.402343 22.332032-1.769531 2.960937-3.347657 5.96875-4.730469 8.851562-4.089844-16.734375-5.195312-34.078125-3-49.4375.25-1.730468.535156-3.425781.855469-5.09375.058593-.230468.105469-.472656.144531-.714844 3.9375-19.554687 13.175781-34.984374 27.539062-46.007812 7.546876 13.558594 24.5625 28.957031 33.515626 30.433594 2.445312.410156 4.992187-.542969 9.839843-2.609375 3.835938-1.636719 5.597657-6.09375 3.925781-9.910157-1.347656-3.078124-2.347656-6.28125-2.964843-9.519531-.8125-4.269531-1.007813-8.601562-.582031-12.882812.253906-2.523438-.792969-5.011719-2.773438-6.597657-.765625-.613281-1.488281-1.25-2.148438-1.898437-8.074218-7.917969-10.378906-19.808594-5.738281-29.589844l.957031-2.019531 2.234376-.105469c7.035156-.324219 13.945312 1.902344 19.457031 6.289063 2.496093 1.992187 5.984375 2.183594 8.683593.476562 4.9375-3.125 10.386719-5.230468 16.1875-6.253906 5.796876-1.019531 11.632813-.90625 17.34375.339844 3.125.683594 6.335938-.6875 8-3.414063 3.675782-6.011719 9.40625-10.472656 16.132813-12.566406l2.136719-.664063 1.589844 1.570313c7.707031 7.601563 9.605468 19.566406 4.726562 29.765625-.398438.835938-.859375 1.683594-1.371094 2.523438-1.316406 2.171874-1.449218 4.859374-.351562 7.144531 3.257812 6.769531 4.832031 14.417969 4.347656 22.285156-.257812 4.152344 2.929688 7.730469 7.085938 7.949219 4.523437.242187 7.824218.375 10.113281-.910156 7.910156-4.453126 18.632812-24.746094 21.089843-40.0625 39.828126 12.558593 54.941407 54.199218 58.566407 86.355468-2.273438-2.222656-4.765625-4.488281-7.414063-6.648437zm0 0"/></svg>