<svg height="511pt" viewBox="0 -122 511.99881 511" width="511pt" xmlns="http://www.w3.org/2000/svg"><path d="m493.035156 15.953125-23.039062 132.945313c-.59375 3.425781-4.628906 4.972656-7.359375 2.824218l-17.324219-13.625c-2.132812-1.675781-5.25-1.148437-6.710938 1.140625l-11.863281 18.574219c-1.871093 2.929688-6.195312 2.800781-7.882812-.238281l-50.847657-91.457031c43.53125-9.550782 82.488282-24.542969 114.421876-43.53125 3.628906-2.160157 7.167968-4.371094 10.605468-6.632813zm0 0" fill="#6e7093"/><path d="m482.429688 22.585938c-4.578126 2.71875-9.316407 5.351562-14.175782 7.902343l-19.164062 110.582031 13.546875 10.652344c2.730469 2.148438 6.769531.601563 7.359375-2.824218l23.039062-132.945313c-3.4375 2.261719-6.976562 4.472656-10.605468 6.632813zm0 0" fill="#4e5173"/><path d="m143.992188 66.117188-50.847657 91.457031c-1.691406 3.039062-6.011719 3.167969-7.882812.238281l-11.863281-18.574219c-1.464844-2.289062-4.578126-2.816406-6.710938-1.140625l-17.324219 13.625c-2.734375 2.148438-6.769531.601563-7.363281-2.824218l-23.039062-132.945313c3.4375 2.261719 6.976562 4.472656 10.609374 6.632813 31.929688 18.988281 70.886719 33.976562 114.421876 43.53125zm0 0" fill="#6e7093"/><path d="m123.1875 61.03125-46.417969 83.488281 8.488281 13.292969c1.871094 2.929688 6.195313 2.800781 7.882813-.238281l50.851563-91.457031c-7.0625-1.546876-13.992188-3.257813-20.804688-5.085938zm0 0" fill="#4e5173"/><path d="m364.882812 66.789062-101.878906 188.480469c-3.007812 5.570313-11 5.570313-14.011718 0l-101.875-188.480469c2.707031.585938 5.433593 1.132813 8.183593 1.671876 1.144531.222656 2.292969.445312 3.4375.660156 3.652344.6875 7.3125 1.335937 11.023438 1.945312 27.40625 4.503906 56.335937 6.90625 86.238281 6.90625 29.898438 0 58.828125-2.402344 86.234375-6.90625 3.710937-.609375 7.371094-1.257812 11.023437-1.945312 1.144532-.214844 2.292969-.4375 3.4375-.660156 2.75-.539063 5.480469-1.085938 8.1875-1.671876zm0 0" fill="#ffa436"/><path d="m356.695312 68.460938c-1.144531.222656-2.289062.445312-3.4375.660156-3.648437.6875-7.3125 1.335937-11.023437 1.945312-.988281.164063-1.996094.300782-2.988281.460938l-94.785156 175.359375 4.53125 8.382812c3.011718 5.570313 11.003906 5.570313 14.011718 0l101.878906-188.484375c-2.707031.589844-5.4375 1.136719-8.1875 1.675782zm0 0" fill="#cc6d0e"/><path d="m402.332031 127.855469c7.628907-.507813 13.664063-6.84375 13.664063-14.601563 0-8.09375-6.558594-14.652344-14.648438-14.652344-4.902344 0-9.226562 2.410157-11.886718 6.105469zm0 0" fill="#ffa436"/><path d="m471.082031 104.777344c0 8.09375-6.558593 14.652344-14.652343 14.652344s-14.652344-6.558594-14.652344-14.652344c0-8.089844 6.558594-14.652344 14.652344-14.652344s14.652343 6.5625 14.652343 14.652344zm0 0" fill="#ffa436"/><path d="m457.90625 90.199219-4.988281 28.789062c1.125.277344 2.300781.441407 3.511719.441407 8.089843 0 14.652343-6.558594 14.652343-14.652344 0-7.59375-5.777343-13.835938-13.175781-14.578125zm0 0" fill="#cc6d0e"/><path d="m456.429688 50.648438c0-4.617188-1.402344-8.90625-3.804688-12.464844-12.757812 5.882812-26.3125 11.203125-40.558594 15.902344 1.652344 10.691406 10.894532 18.875 22.046875 18.875 12.324219 0 22.316407-9.988282 22.316407-22.3125zm0 0" fill="#ffa436"/><path d="m138.101562 76.710938 5.890626-10.59375c-7.628907-1.671876-15.109376-3.523438-22.441407-5.523438l-86.664062 47.269531 3.984375 22.976563zm0 0" fill="#ffa436"/><path d="m123.1875 61.03125-19.003906 34.183594 33.917968-18.503906.820313-1.472657 5.070313-9.121093c-5.691407-1.238282-13.914063-3.226563-20.804688-5.085938zm0 0" fill="#cc6d0e"/><path d="m25.117188 51.488281 3.984374 22.976563 50.648438-27.628906c-8.886719-3.464844-17.460938-7.179688-25.679688-11.140626zm0 0" fill="#ffa436"/><g fill="#4e5173"><path d="m198.179688 111.460938 13.117187-11.738282c2.675781-2.394531 6.832031-1.957031 8.949219.949219l13.113281 18.011719c3.316406 4.558594-.832031 10.78125-6.3125 9.46875l-26.230469-6.273438c-4.761718-1.136718-6.28125-7.15625-2.636718-10.417968zm0 0"/><path d="m313.816406 111.460938-13.113281-11.738282c-2.675781-2.394531-6.835937-1.957031-8.949219.949219l-13.117187 18.011719c-3.316407 4.558594.832031 10.78125 6.316406 9.46875l26.230469-6.273438c4.757812-1.136718 6.28125-7.15625 2.632812-10.417968zm0 0"/><path d="m256 182.097656-11.078125 10.175782-25.261719-43.742188 29.25 13.222656 7.089844-10.847656 7.089844 10.847656 29.25-13.222656-25.261719 43.742188zm0 0"/></g><path d="m510.539062 3.554688c-2.457031-3.335938-7.148437-4.050782-10.488281-1.59375-124.042969 91.328124-364.121093 91.285156-488.105469 0-3.332031-2.457032-8.027343-1.742188-10.484374 1.59375-2.457032 3.335937-1.742188 8.027343 1.59375 10.484374 2.890624 2.128907 5.933593 4.265626 9.070312 6.375l22.484375 129.765626c.734375 4.234374 3.570313 7.683593 7.585937 9.222656 4.011719 1.539062 8.425782.875 11.804688-1.78125l14.804688-11.644532 10.136718 15.871094c2.242188 3.519532 6.027344 5.585938 10.175782 5.585938.128906 0 .253906 0 .382812-.003906 4.296875-.132813 8.109375-2.453126 10.199219-6.210938l45.601562-82.019531 20.664063 38.226562c1.96875 3.644531 6.519531 5.003907 10.164062 3.03125 3.640625-1.96875 5-6.519531 3.03125-10.164062l-17.878906-33.078125c57.363281 10.351562 121.351562 11.226562 182.625 1.179687.136719-.023437.269531-.046875.40625-.066406.023438-.003906.046875-.007813.070312-.011719 2.101563-.351562 4.207032-.714844 6.339844-1.101562l-94.3125 174.488281c-.058594.109375-.132812.246094-.410156.246094s-.347656-.136719-.40625-.246094l-61.972656-114.648437c-1.96875-3.644532-6.519532-5.003907-10.164063-3.03125-3.644531 1.96875-5 6.519531-3.03125 10.164062l61.96875 114.648438c2.707031 5.003906 7.917969 8.113281 13.605469 8.113281s10.902344-3.109375 13.605469-8.113281l97.09375-179.636719 16.199219 29.136719c.003906.003906.003906.011718.007812.015624l3.546875 6.378907 25.847656 46.488281c2.089844 3.757812 5.902344 6.078125 10.199219 6.210938.128906.003906.253906.003906.382812.003906 4.148438 0 7.933594-2.066406 10.175782-5.582032l10.136718-15.875 14.800782 11.640626c3.378906 2.65625 7.792968 3.324218 11.808594 1.785156 4.015624-1.539063 6.847656-4.988282 7.582031-9.226563l10.863281-62.679687c.707031-4.082032-2.027344-7.964844-6.109375-8.671875-4.082031-.703125-7.960937 2.027343-8.667969 6.109375l-.828125 4.765625c-4.046875-4.351563-9.816406-7.074219-16.214843-7.074219-12.214844 0-22.152344 9.9375-22.152344 22.152344s9.9375 22.152344 22.152344 22.152344c3.675781 0 7.140624-.898438 10.195312-2.492188l-3.183594 18.375-13.492187-10.609375c-2.679688-2.105469-6.136719-2.984375-9.5-2.417969-3.355469.570313-6.335938 2.542969-8.167969 5.414063l-9.242188 14.46875-9.851562-17.722657c6.207031-3.949218 10.308594-10.890624 10.308594-18.691406 0-12.214844-9.9375-22.152344-22.152344-22.152344-3.371094 0-6.660156.78125-9.632812 2.21875l-12.308594-22.136718c9.445312-2.289063 18.722656-4.851563 27.785156-7.667969 4.8125 10.175781 15.097656 16.945313 26.925781 16.945313 16.441407 0 29.816407-13.375 29.816407-29.8125 0-3.042969-.457032-6.03125-1.347657-8.886719.484375-.234375.972657-.472657 1.453125-.710938.007813-.003906.011719-.003906.019532-.007812 6.472656-3.1875 12.734374-6.519531 18.753906-9.992188l-4.140625 23.882813c-.707031 4.082031 2.027343 7.964844 6.109375 8.671875 4.085937.710937 7.964844-2.027344 8.671875-6.109375l6.425781-37.082032c3.140625-2.113281 6.179688-4.25 9.066406-6.375 3.339844-2.457031 4.050782-7.148437 1.597656-10.484374zm-467.34375 108.320312 28.734376-15.671875c3.636718-1.984375 4.976562-6.539063 2.992187-10.175781-1.980469-3.640625-6.539063-4.976563-10.175781-2.992188l-24.253906 13.230469-3.082032-17.789063 42.902344-23.402343c7.097656 2.695312 14.363281 5.226562 21.78125 7.585937l-10.667969 5.820313c-3.636719 1.984375-4.976562 6.539062-2.992187 10.175781 1.980468 3.636719 6.539062 4.976562 10.175781 2.992188l23.890625-13.03125c3.335938.890624 6.695312 1.742187 10.078125 2.5625l-88.105469 48.0625zm-14.003906-80.824219c.101563.058594 3.789063 2.210938 8.785156 4.878907l-7.253906 3.960937zm5.488282 31.675781-1.253907-7.226562 20.878907-11.390625c2.648437 1.238281 5.34375 2.457031 8.078124 3.65625l-27.679687 15.101563zm54.277343 86.941407-9.242187-14.46875c-1.832032-2.871094-4.808594-4.84375-8.167969-5.414063-.667969-.113281-1.34375-.167968-2.011719-.167968-2.695312 0-5.339844.898437-7.484375 2.585937l-13.492187 10.609375-1.382813-7.960938 71.792969-39.160156zm367.472657-37.738281c-3.945313 0-7.152344-3.207032-7.152344-7.152344 0-3.941406 3.207031-7.152344 7.152344-7.152344 3.945312 0 7.152343 3.210938 7.152343 7.152344 0 3.945312-3.207031 7.152344-7.152343 7.152344zm-55.082032-5.828126c3.941406 0 7.148438 3.207032 7.148438 7.152344 0 2.210938-1.019532 4.210938-2.628906 5.523438-.691407-1.238282-6.246094-11.230469-6.835938-12.292969.730469-.25 1.511719-.382813 2.316406-.382813zm32.765625-40.640624c-5.09375 0-9.722656-2.664063-12.398437-6.734376 9.28125-3.25 18.316406-6.789062 27.003906-10.574218.140625.820312.210938 1.652344.210938 2.496094 0 8.167968-6.644532 14.8125-14.816407 14.8125zm0 0"/><path d="m226.308594 96.257812c-4.734375-6.503906-14.046875-7.464843-20.015625-2.125l-13.113281 11.738282c-3.773438 3.378906-5.347657 8.523437-4.105469 13.433594 1.242187 4.910156 5.070312 8.691406 9.996093 9.867187l26.230469 6.273437c1.078125.257813 2.15625.386719 3.222657.386719 4.457031 0 8.648437-2.195312 11.21875-6.050781 3.1875-4.777344 3.0625-10.867188-.320313-15.511719zm-21.085938 18.964844 9.894532-8.855468 9.890624 13.585937zm0 0"/><path d="m283.472656 135.832031c1.066406 0 2.148438-.128906 3.226563-.386719l26.230469-6.273437c4.921874-1.175781 8.753906-4.957031 9.996093-9.867187 1.238281-4.910157-.332031-10.054688-4.105469-13.433594l-13.113281-11.738282c-6.035156-5.398437-15.332031-4.3125-20.015625 2.125l-13.117187 18.011719c-3.378907 4.644531-3.503907 10.734375-.316407 15.511719 2.570313 3.855469 6.757813 6.050781 11.214844 6.050781zm13.410156-29.464843 9.890626 8.855468-19.78125 4.730469zm0 0"/><path d="m262.277344 146.800781c-1.386719-2.117187-3.746094-3.394531-6.277344-3.394531s-4.894531 1.277344-6.277344 3.394531l-3.578125 5.472657-23.394531-10.574219c-2.96875-1.34375-6.460938-.613281-8.648438 1.800781s-2.5625 5.960938-.933593 8.785156l25.257812 43.738282c1.140625 1.972656 3.109375 3.316406 5.359375 3.660156.378906.0625.757813.089844 1.136719.089844 1.867187 0 3.679687-.695313 5.074219-1.976563l6.003906-5.515625 6.007812 5.515625c1.675782 1.539063 3.957032 2.230469 6.207032 1.886719s4.222656-1.691406 5.359375-3.660156l25.261719-43.738282c1.628906-2.824218 1.25-6.371094-.9375-8.785156-2.1875-2.417969-5.679688-3.144531-8.648438-1.800781l-23.394531 10.574219zm11.90625 18.167969-8.921875 15.453125-4.191407-3.847656c-1.433593-1.316407-3.25-1.976563-5.070312-1.976563s-3.636719.660156-5.070312 1.976563l-4.191407 3.847656-8.921875-15.453125 8.003906 3.621094c3.371094 1.523437 7.347657.363281 9.367188-2.730469l.8125-1.242187.8125 1.242187c2.023438 3.09375 6 4.253906 9.367188 2.730469zm0 0"/></svg>