<svg height="511pt" viewBox="-73 0 511 511.99956" width="511pt" xmlns="http://www.w3.org/2000/svg"><path d="m297.097656 77.195312c-3.980468-11.1875-14.570312-18.65625-26.441406-18.65625h-176.09375c-11.871094 0-22.460938 7.46875-26.441406 18.65625l-37.34375 104.953126h303.664062zm-46.597656 43.148438c0 15.417969-12.5 27.917969-27.921875 27.917969h-79.941406c-15.417969 0-27.921875-12.5-27.921875-27.917969 0-15.421875 12.5-27.921875 27.921875-27.921875h79.941406c15.421875 0 27.921875 12.5 27.921875 27.921875zm0 0" fill="#ffb05a"/><path d="m142.636719 92.421875h-23.746094c-15.421875 0-27.921875 12.5-27.921875 27.921875 0 15.417969 12.5 27.917969 27.921875 27.917969h23.746094c-15.417969 0-27.917969-12.5-27.917969-27.917969 0-15.421875 12.5-27.921875 27.917969-27.921875zm0 0" fill="#cc6d0e"/><path d="m297.097656 77.195312c-3.980468-11.1875-14.570312-18.65625-26.441406-18.65625h-23.75c11.875 0 22.460938 7.46875 26.441406 18.65625l37.347656 104.953126h23.746094zm0 0" fill="#cc6d0e"/><path d="m37.546875 111.027344 51.785156-31.117188-10.203125-35.199218-60.398437 1.402343c-7.113281.164063-10.519531 8.8125-5.433594 13.785157l14.027344 13.699218c2.550781 2.492188 3.609375 6.140625 2.785156 9.609375l-4.523437 19.078125c-1.640626 6.925782 5.863281 12.410156 11.960937 8.742188zm0 0" fill="#3185db"/><path d="m166.765625 73.570312-60.398437 1.398438-10.203126-35.195312 51.785157-31.121094c6.097656-3.664063 13.597656 1.820312 11.957031 8.742187l-4.519531 19.078125c-.824219 3.472656.234375 7.117188 2.78125 9.609375l14.027343 13.703125c5.089844 4.972656 1.683594 13.617188-5.429687 13.785156zm0 0" fill="#3185db"/><path d="m102.425781 93.230469c7.390625-2.144531 11.644531-9.871094 9.503907-17.261719l-11.601563-40.011719c-2.140625-7.390625-9.871094-11.644531-17.257813-9.503906-7.390624 2.140625-11.644531 9.871094-9.503906 17.257813l11.601563 40.015624c2.140625 7.390626 9.867187 11.644532 17.257812 9.503907zm0 0" fill="#80b9f9"/><path d="m8 188.132812v300.082032c0 8.992187 7.289062 16.285156 16.285156 16.285156h316.644532c8.996093 0 16.285156-7.292969 16.285156-16.285156v-300.082032c0-8.992187-7.289063-16.285156-16.285156-16.285156h-316.644532c-8.996094 0-16.285156 7.292969-16.285156 16.285156zm0 0" fill="#ffa436"/><path d="m340.933594 171.847656h-22.503906c8.996093 0 16.285156 7.292969 16.285156 16.285156v300.082032c0 8.992187-7.289063 16.285156-16.285156 16.285156h22.503906c8.992187 0 16.28125-7.292969 16.28125-16.285156v-300.082032c0-8.992187-7.289063-16.285156-16.28125-16.285156zm0 0" fill="#cc6d0e"/><path d="m270.46875 333.21875c0 27.304688-22.132812 49.4375-49.433594 49.4375-27.300781 0-49.433594-22.132812-49.433594-49.4375 0-27.300781 22.132813-49.433594 49.433594-49.433594 27.300782 0 49.433594 22.132813 49.433594 49.433594zm0 0" fill="#f9dc6a"/><g fill="#4e5173"><path d="m145.132812 197.34375c-1.90625 7.535156-5.792968 13.835938-10.820312 17.769531-1.046875.820313-2.570312.320313-2.964844-.949219-2.960937-9.523437-9.394531-16.121093-16.859375-16.121093-7.464843 0-13.898437 6.597656-16.855469 16.121093-.394531 1.269532-1.921874 1.769532-2.96875.949219-5.027343-3.933593-8.914062-10.234375-10.816406-17.769531-.265625-1.039062-1.351562-1.640625-2.375-1.332031-19.042968 5.78125-33.273437 28.707031-33.273437 56.125 0 3.570312.238281 7.0625.699219 10.453125.253906 1.855468 2.761718 2.273437 3.558593.578125 6.769531-14.429688 14.933594-22.554688 21.574219-19.855469 1.789062.730469 3.347656 2.199219 4.664062 4.292969.886719 1.410156 3.007813 1.113281 3.421876-.503907 1.902343-7.460937 6.464843-13.167968 12.097656-14.902343 1.070312-.328125 2.1875.347656 2.398437 1.445312 2.226563 11.660157 9.386719 20.195313 17.875 20.195313s15.644531-8.535156 17.871094-20.195313c.210937-1.097656 1.332031-1.773437 2.398437-1.445312 5.636719 1.734375 10.195313 7.441406 12.097657 14.902343.414062 1.617188 2.535156 1.914063 3.425781.503907 1.316406-2.09375 2.875-3.5625 4.660156-4.292969 6.640625-2.699219 14.808594 5.425781 21.574219 19.855469.796875 1.695312 3.304687 1.277343 3.558594-.578125.460937-3.390625.699219-6.882813.699219-10.453125 0-27.417969-14.226563-50.34375-33.269532-56.125-1.023437-.308594-2.109375.292969-2.371094 1.332031zm0 0"/><path d="m315.109375 286.625c-4.367187 6.429688-10.175781 11.019531-16.246094 12.996094-1.265625.414062-2.527343-.578125-2.460937-1.90625.472656-9.960938-3.316406-18.359375-10.328125-20.914063-7.011719-2.554687-15.316407 1.449219-21.351563 9.382813-.808594 1.058594-2.410156 1.007812-3.113281-.121094-3.382813-5.417969-4.878906-12.664062-4.089844-20.398438.105469-1.070312-.707031-2.003906-1.777343-2.0625-19.871094-1.082031-41.085938 15.59375-50.460938 41.355469-1.222656 3.355469-2.191406 6.722657-2.917969 10.066407-.398437 1.832031 1.820313 3.082031 3.148438 1.757812 11.292969-11.242188 21.746093-16.085938 27.0625-11.277344 1.429687 1.296875 2.390625 3.210938 2.914062 5.625.351563 1.632813 2.445313 2.078125 3.386719.699219 4.339844-6.359375 10.578125-10.164063 16.464844-9.863281 1.117187.054687 1.9375 1.074218 1.761718 2.175781-1.894531 11.722656 1.914063 22.1875 9.886719 25.089844 7.976563 2.902343 17.621094-2.667969 23.703125-12.863281.574219-.960938 1.855469-1.210938 2.75-.539063 4.703125 3.558594 7.035156 10.480469 6.269532 18.144531-.164063 1.660156 1.730468 2.664063 3.046874 1.640625 1.953126-1.515625 3.921876-2.363281 5.851563-2.4375 7.164063-.265625 12.054687 10.164063 13.480469 26.035157.171875 1.867187 2.667968 2.332031 3.542968.675781 1.589844-3.027344 3.011719-6.230469 4.234376-9.585938 9.375-25.761719 3.84375-52.171875-12.070313-64.113281-.859375-.644531-2.085937-.449219-2.6875.4375zm0 0"/><path d="m187.679688 422.117188c3.097656 0 4.359374-3.988282 1.828124-5.769532l-34.464843-24.25-28.152344-41.304687h-29.203125l-28.15625 41.304687-34.460938 24.25c-2.535156 1.78125-1.273437 5.769532 1.824219 5.769532h35.851563l4.066406 58.320312-45.507812 24.0625h176.113281l-59.488281-26.71875 3.902343-55.664062zm0 0"/></g><path d="m124.65625 460.480469h-24.949219c-1.421875 0-2.574219-1.148438-2.574219-2.570313v-21.242187c0-8.308594 6.738282-15.046875 15.046876-15.046875 8.3125 0 15.046874 6.738281 15.046874 15.046875v21.242187c.003907 1.417969-1.148437 2.570313-2.570312 2.570313zm0 0" fill="#f9dc6a"/><path d="m107.214844 120.34375c0 19.53125 15.890625 35.421875 35.421875 35.421875h79.941406c19.53125 0 35.421875-15.890625 35.421875-35.421875s-15.890625-35.421875-35.421875-35.421875h-79.941406c-19.53125 0-35.421875 15.890625-35.421875 35.421875zm135.785156 0c0 11.261719-9.160156 20.421875-20.421875 20.421875h-79.941406c-11.257813 0-20.417969-9.160156-20.417969-20.421875s9.160156-20.421875 20.417969-20.421875h79.941406c11.261719 0 20.421875 9.160156 20.421875 20.421875zm0 0"/><path d="m340.933594 164.347656h-4.867188l-31.90625-89.667968c-5.035156-14.144532-18.503906-23.644532-33.507812-23.644532h-66.023438c-4.144531 0-7.5 3.355469-7.5 7.5 0 4.140625 3.359375 7.5 7.5 7.5h66.023438c8.675781 0 16.464844 5.496094 19.375 13.671875l30.117187 84.640625h-36.765625c-4.140625 0-7.5 3.359375-7.5 7.5 0 4.144532 3.359375 7.5 7.5 7.5h47.296875.097657.09375 10.066406c4.84375 0 8.785156 3.941406 8.785156 8.785156v179.519532c0 4.144531 3.355469 7.5 7.5 7.5 4.140625 0 7.5-3.359375 7.5-7.5v-179.519532c0-13.113281-10.671875-23.785156-23.785156-23.785156zm0 0"/><path d="m357.21875 390.160156c-4.144531 0-7.5 3.355469-7.5 7.5v90.554688c0 4.84375-3.941406 8.785156-8.785156 8.785156h-131.90625l-53.246094-23.914062 3.042969-43.46875h28.859375c4.671875 0 8.761718-2.996094 10.171875-7.453126 1.414062-4.457031-.207031-9.257812-4.03125-11.949218l-33.347657-23.464844-27.390624-40.183594c-1.394532-2.046875-3.714844-3.273437-6.195313-3.273437h-29.203125c-2.480469 0-4.800781 1.226562-6.195312 3.273437l-12.65625 18.566406-10-6.175781 8.507812-22.699219c1.183594-3.15625.117188-6.710937-2.605469-8.695312l-19.746093-14.390625c-3.347657-2.441406-8.039063-1.707031-10.480469 1.644531-2.4375 3.34375-1.703125 8.035156 1.644531 10.476563l15.140625 11.035156-8.671875 23.136719c-1.257812 3.355468.03125 7.128906 3.082031 9.015625l14.671875 9.0625-6.277344 9.207031-33.347656 23.464844c-3.824218 2.691406-5.445312 7.492187-4.03125 11.953125 1.410156 4.457031 5.5 7.449219 10.175782 7.449219h28.851562l3.242188 46.472656-39.546876 20.910156h-5.160156c-4.84375 0-8.785156-3.941406-8.785156-8.785156v-199.003906c0-4.144532-3.355469-7.5-7.5-7.5-4.140625 0-7.5 3.359374-7.5 7.5v199.003906c0 13.113281 10.671875 23.785156 23.789062 23.785156h316.644532c13.117187 0 23.785156-10.671875 23.785156-23.785156v-90.554688c0-4.144531-3.359375-7.5-7.5-7.5zm-295.683594 106.839844 18.78125-9.933594c2.625-1.386718 4.183594-4.191406 3.976563-7.152344l-4.066407-58.320312c-.277343-3.929688-3.542968-6.980469-7.484374-6.980469h-22.179688l23.285156-16.378906c.734375-.519531 1.371094-1.164063 1.878906-1.910156l25.921876-38.03125h21.273437l25.925781 38.03125c.503906.746093 1.144532 1.390625 1.878906 1.910156l23.28125 16.378906h-22.179687c-3.9375 0-7.207031 3.046875-7.480469 6.976563l-3.898437 55.667968c-.222657 3.136719 1.539062 6.078126 4.40625 7.367188l27.554687 12.375zm0 0"/><path d="m8 266.714844c4.140625 0 7.5-3.359375 7.5-7.5v-71.082032c0-4.84375 3.941406-8.785156 8.785156-8.785156h10.066406c.027344 0 .058594.003906.089844.003906.035156 0 .070313 0 .101563-.003906h218.835937c4.144532 0 7.5-3.355468 7.5-7.5 0-4.140625-3.359375-7.5-7.5-7.5h-208.308594l22.21875-62.445312 14.480469-8.699219c11.890625 14.941406 35.988281 7.945313 38.074219-11.039063l47.097656-1.101562c6.261719-.144531 11.796875-4.003906 14.09375-9.832031 2.296875-5.832031.886719-12.433594-3.597656-16.8125l-14.03125-13.699219c-.660156-.644531-.933594-1.609375-.71875-2.515625l4.519531-19.082031c1.441407-6.09375-.890625-12.421875-5.945312-16.121094-5.058594-3.695312-11.800781-4.003906-17.179688-.777344l-40.371093 24.261719c-5.253907-6.582031-14.152344-9.71875-22.730469-7.238281-8.359375 2.417968-14.40625 9.75-15.339844 18.277344l-47.085937 1.089843c-6.269532.148438-11.804688 4.015625-14.097657 9.847657-2.292969 5.828124-.878906 12.421874 3.601563 16.796874l14.023437 13.710938c.671875.660156.945313 1.597656.734375 2.503906l-4.53125 19.082032c-1.449218 6.101562.894532 12.433593 5.960938 16.132812 2.726562 1.988281 5.9375 2.996094 9.160156 2.996094 2.757812 0 5.527344-.738282 8-2.230469l5.632812-3.382813-17.886718 50.277344h-4.867188c-13.113281 0-23.785156 10.671875-23.785156 23.785156v71.082032c0 4.140625 3.359375 7.5 7.5 7.5zm143.808594-251.632813c.148437-.089843.304687-.1875.597656.027344.285156.207031.246094.382813.203125.554687l-4.519531 19.082032c-1.417969 6.003906.433594 12.402344 4.839844 16.703125l14.027343 13.699219c.125.121093.253907.246093.125.578124-.128906.332032-.308593.335938-.480469.339844h-.007812l-49.394531 1.152344-7.730469-26.691406zm-64.871094 18.320313c2.792969 0 5.371094 1.832031 6.191406 4.667968l11.273438 38.902344.320312 1.085938c1.59375 5.511718-4.316406 10.160156-9.277344 7.425781-1.503906-.828125-2.597656-2.195313-3.070312-3.820313l-.261719-.898437c-.019531-.085937-.042969-.167969-.066406-.25-.292969-1.007813 1.851563 6.382813-10.957031-37.789063-.480469-1.296874-.574219-2.300781-.574219-2.894531 0-2.847656 2.835937-6.429687 6.421875-6.429687zm-53.265625 71.199218c-.144531.085938-.296875.179688-.582031-.03125-.292969-.210937-.25-.386718-.210938-.554687l4.53125-19.089844c1.417969-5.988281-.441406-12.386719-4.84375-16.683593l-14.023437-13.714844c-.125-.121094-.253907-.25-.125-.574219.128906-.332031.3125-.339844.488281-.34375l49.386719-1.144531 7.738281 26.683594-18.699219 11.234374c-.050781.03125-.101562.0625-.152343.089844zm0 0"/><path d="m178.164062 271.738281c.480469 0 .964844-.035156 1.449219-.109375 4.15625-.632812 7.328125-3.859375 7.894531-8.027344.511719-3.753906.769532-7.613281.769532-11.464843 0-30.371094-15.867188-56.402344-38.59375-63.300781-2.445313-.742188-5.125-.445313-7.347656.8125-2.21875 1.253906-3.851563 3.390624-4.476563 5.859374-.722656 2.859376-1.8125 5.523438-3.183594 7.839844-4.847656-7.984375-12.195312-12.804687-20.1875-12.804687-7.992187 0-15.339843 4.820312-20.191406 12.804687-1.367187-2.316406-2.457031-4.980468-3.179687-7.839844-.625-2.46875-2.257813-4.605468-4.476563-5.859374-2.222656-1.257813-4.902344-1.550782-7.351563-.8125-22.722656 6.898437-38.589843 32.929687-38.589843 63.300781 0 3.851562.257812 7.710937.769531 11.464843.566406 4.164063 3.738281 7.394532 7.894531 8.027344 4.132813.628906 8.105469-1.488281 9.882813-5.273437 5.863281-12.5 10.769531-15.730469 12.042968-16.03125.171876.128906.554688.476562 1.058594 1.273437 2.007813 3.195313 5.710938 4.886719 9.429688 4.296875 3.695312-.578125 6.683594-3.304687 7.609375-6.9375.53125-2.085937 1.339843-3.964843 2.324219-5.507812 4.480468 10.972656 12.992187 17.890625 22.777343 17.890625 9.789063 0 18.296875-6.917969 22.78125-17.890625.984375 1.542969 1.789063 3.421875 2.320313 5.507812.929687 3.632813 3.914062 6.359375 7.613281 6.9375 3.714844.589844 7.417969-1.101562 9.429687-4.296875.503907-.804687.886719-1.152344 1.050782-1.277344 1.273437.304688 6.179687 3.527344 12.046875 16.035157 1.566406 3.339843 4.84375 5.382812 8.433593 5.382812zm-26.050781-35.367187c-.425781.171875-.84375.367187-1.253906.578125-3.289063-5.894531-8.164063-10.152344-13.898437-11.917969-2.546876-.777344-5.308594-.441406-7.589844.933594-2.28125 1.371094-3.875 3.660156-4.375 6.273437-1.539063 8.042969-6.054688 14.105469-10.507813 14.105469s-8.96875-6.0625-10.507812-14.105469c-.5-2.613281-2.09375-4.902343-4.375-6.277343-1.476563-.886719-3.152344-1.339844-4.839844-1.339844-.925781 0-1.855469.136718-2.753906.414062-5.734375 1.761719-10.605469 6.019532-13.894531 11.914063-.410157-.214844-.832032-.40625-1.261719-.582031-3.675781-1.496094-11.601563-2.867188-20.589844 6.90625 2.210937-17.1875 10.734375-31.742188 22.3125-37.964844 2.613281 6.429687 6.566406 11.882812 11.460937 15.710937 2.425782 1.898438 5.632813 2.488281 8.570313 1.566407 2.953125-.917969 5.261719-3.238282 6.183594-6.195313 1.984375-6.386719 5.972656-10.847656 9.695312-10.847656 3.722657 0 7.707031 4.460937 9.695313 10.847656.917968 2.957031 3.230468 5.277344 6.183594 6.195313 2.9375.917968 6.140624.332031 8.566406-1.5625 4.898437-3.832032 8.851562-9.285157 11.464844-15.710938 11.578124 6.21875 20.097656 20.773438 22.3125 37.960938-8.992188-9.773438-16.917969-8.402344-20.597657-6.902344zm0 0"/><path d="m262.78125 259.390625c-1.660156-1.941406-4.078125-3.140625-6.632812-3.277344-23.695313-1.265625-47.527344 17.742188-57.914063 46.28125-1.316406 3.617188-2.394531 7.328125-3.199219 11.035157-.890625 4.109374.984375 8.226562 4.671875 10.246093 3.671875 2.011719 8.128907 1.375 11.09375-1.578125 9.785157-9.738281 15.492188-11.078125 16.800781-10.941406.117188.179688.355469.632812.554688 1.554688.796875 3.691406 3.695312 6.542968 7.386719 7.265624 3.675781.726563 7.414062-.816406 9.53125-3.914062 1.210937-1.777344 2.613281-3.269531 4.066406-4.382812.433594 11.175781 5.46875 20.1875 13.761719 23.980468-1.265625 21.992188-19.5625 39.496094-41.871094 39.496094-23.121094 0-41.929688-18.808594-41.929688-41.929688 0-10.046874 3.609376-19.769531 10.160157-27.378906 2.703125-3.136718 2.351562-7.871094-.785157-10.578125-3.140624-2.703125-7.875-2.351562-10.578124.789063-8.898438 10.328125-13.796876 23.527344-13.796876 37.164062 0 31.394532 25.539063 56.933594 56.929688 56.933594 30.277344 0 55.113281-23.746094 56.847656-53.59375 5.007813-1.488281 9.871094-4.675781 14.074219-9.304688.398437 1.789063.511719 3.832032.296875 5.976563-.371094 3.730469 1.507812 7.3125 4.78125 9.121094 3.292969 1.820312 7.347656 1.5 10.332031-.816407.75-.582031 1.226563-.777343 1.421875-.835937 1.09375.71875 4.601563 5.425781 5.835938 19.179687.375 4.167969 3.378906 7.519532 7.484375 8.339844.628906.128906 1.261719.191406 1.882812.191406 3.441407 0 6.621094-1.878906 8.285157-5.035156 1.765624-3.355468 3.324218-6.890625 4.640624-10.507812 10.390626-28.539063 4.378907-58.425782-14.617187-72.683594-2.050781-1.53125-4.667969-2.171875-7.1875-1.75-2.511719.421875-4.773437 1.871094-6.203125 3.976562-1.65625 2.441407-3.59375 4.570313-5.671875 6.277344-1.828125-9.160156-7.082031-16.203125-14.59375-18.9375-7.507813-2.730468-16.0625-.714844-23.347656 5.128906-.496094-2.644531-.609375-5.519531-.3125-8.453124.257812-2.535157-.542969-5.101563-2.199219-7.039063zm34.351562 60.828125c0-.003906.003907-.007812.003907-.007812zm-26.441406-29.492188c4.046875-5.324218 9.320313-8.152343 12.816406-6.878906 3.5 1.273438 5.71875 6.828125 5.402344 13.507813-.148437 3.097656 1.230469 6.0625 3.691406 7.941406 2.445313 1.867187 5.660157 2.414063 8.585938 1.457031 5.910156-1.925781 11.492188-5.695312 16.148438-10.839844 8.746093 9.800782 11.777343 26.394532 7.980468 43.300782-4.894531-11.746094-12.367187-13.539063-16.476562-13.539063-.175782 0-.351563 0-.515625.007813-.460938.019531-.921875.058594-1.378907.117187-1.074218-6.664062-4.195312-12.332031-8.976562-15.949219-2.125-1.605468-4.84375-2.238281-7.457031-1.722656-2.617188.507813-4.898438 2.113282-6.257813 4.398438-4.195312 7.027344-10.507812 11.1875-14.699218 9.660156-4.183594-1.523438-6.355469-8.765625-5.046876-16.851562.421876-2.628907-.296874-5.324219-1.972656-7.394532-1.675781-2.070312-4.160156-3.332031-6.8125-3.464844-5.992187-.304687-12.023437 2.03125-17.132812 6.445313-.3125-.339844-.640625-.667969-.984375-.976563-2.941407-2.660156-9.921875-6.660156-21.710938-.554687 7.957031-15.394531 20.945313-26.15625 33.949219-28.042969.257812 6.9375 2.105469 13.410156 5.402344 18.6875 1.628906 2.613282 4.441406 4.257813 7.515625 4.402344 3.066406.144531 6.050781-1.246094 7.929687-3.710938zm0 0"/><path d="m112.179688 414.121094c-12.433594 0-22.546876 10.113281-22.546876 22.546875v21.242187c0 5.554688 4.519532 10.074219 10.074219 10.074219h24.949219c5.554688 0 10.074219-4.519531 10.074219-10.074219v-21.242187c0-12.433594-10.117188-22.546875-22.550781-22.546875zm7.550781 38.859375h-15.09375v-16.3125c0-4.160157 3.382812-7.546875 7.546875-7.546875 4.160156 0 7.546875 3.386718 7.546875 7.546875zm0 0"/></svg>