<svg height="512pt" viewBox="-52 0 512 512.001" width="512pt" xmlns="http://www.w3.org/2000/svg"><path d="m310.589844 345.023438c-5.421875 0-4.636719 0-10.0625 0-6.871094 0-19.144532 21.210937-19.144532 32.988281 0 6.875 5.574219 12.445312 12.449219 12.445312 3.792969 0 7.1875-1.699219 9.464844-4.382812 1.171875-1.375 3.355469-1.375 4.523437 0 2.277344 2.683593 5.671876 4.382812 9.46875 4.382812 6.875 0 12.445313-5.570312 12.445313-12.445312 0-11.777344-12.269531-32.988281-19.144531-32.988281zm0 0" fill="#cc6d0e"/><path d="m305.558594 121.488281c-52.347656 0-94.78125 42.4375-94.78125 94.785157 0 77.234374 66.9375 143.082031 94.78125 143.082031s94.78125-65.84375 94.78125-143.082031c0-52.347657-42.433594-94.785157-94.78125-94.785157zm0 0" fill="#ffa436"/><path d="m305.558594 121.488281c-2.007813 0-4 .070313-5.980469.195313 43.679687 3.085937 78.261719 44.25 78.261719 94.589844 0 72.152343-51.476563 134.355468-78.261719 142.234374 2.140625.554688 4.148437.847657 5.980469.847657 27.84375 0 94.78125-65.84375 94.78125-143.082031 0-52.347657-42.433594-94.785157-94.78125-94.785157zm0 0" fill="#cc6d0e"/><g fill="#4e5173"><path d="m338.6875 231.527344c-7.652344 0-13.96875-5.988282-14.375-13.632813l-1.15625-21.847656c-.320312-6.070313 4.511719-11.167969 10.589844-11.167969 4.28125 0 8.136718 2.570313 9.789062 6.519532l8.433594 20.191406c3.957031 9.480468-3.007812 19.9375-13.28125 19.9375zm0 0"/><path d="m272.433594 231.527344c7.652344 0 13.96875-5.988282 14.371094-13.632813l1.15625-21.847656c.324218-6.070313-4.511719-11.167969-10.589844-11.167969-4.277344 0-8.136719 2.570313-9.785156 6.519532l-8.433594 20.191406c-3.960938 9.480468 3.003906 19.9375 13.28125 19.9375zm0 0"/><path d="m317.300781 276.46875c0-11.890625-5.257812-21.527344-11.742187-21.527344s-11.742188 9.636719-11.742188 21.527344c0 11.886719 5.257813 21.527344 11.742188 21.527344s11.742187-9.640625 11.742187-21.527344zm0 0"/></g><path d="m107.3125 231.03125c-5.421875 0-4.636719 0-10.0625 0-6.871094 0-19.144531 21.210938-19.144531 32.988281 0 6.875 5.574219 12.449219 12.449219 12.449219 3.792968 0 7.1875-1.703125 9.46875-4.382812 1.167968-1.375 3.351562-1.375 4.519531 0 2.28125 2.679687 5.671875 4.382812 9.46875 4.382812 6.875 0 12.445312-5.574219 12.445312-12.449219 0-11.777343-12.269531-32.988281-19.144531-32.988281zm0 0" fill="#50b596"/><path d="m102.28125 7.5c-52.347656 0-94.78125 42.433594-94.78125 94.78125 0 77.238281 66.941406 143.085938 94.78125 143.085938 27.84375 0 94.785156-65.847657 94.785156-143.085938 0-52.347656-42.4375-94.78125-94.785156-94.78125zm0 0" fill="#81ebc7"/><path d="m102.28125 7.5c-2.007812 0-4 .070312-5.980469.191406 43.679688 3.085938 78.265625 44.253906 78.265625 94.589844 0 72.15625-51.480468 134.359375-78.265625 142.238281 2.144531.554688 4.148438.847657 5.980469.847657 27.84375 0 94.785156-65.847657 94.785156-143.085938 0-52.347656-42.4375-94.78125-94.785156-94.78125zm0 0" fill="#50b596"/><path d="m135.410156 123.417969c-7.652344 0-13.96875-5.988281-14.375-13.632813l-1.15625-21.851562c-.320312-6.066406 4.511719-11.164063 10.589844-11.164063 4.28125 0 8.140625 2.570313 9.789062 6.515625l8.433594 20.191406c3.960938 9.484376-3.007812 19.941407-13.28125 19.941407zm0 0" fill="#4e5173"/><path d="m69.15625 123.417969c7.652344 0 13.96875-5.988281 14.371094-13.632813l1.15625-21.851562c.324218-6.066406-4.511719-11.164063-10.589844-11.164063-4.277344 0-8.136719 2.570313-9.785156 6.515625l-8.433594 20.191406c-3.960938 9.484376 3.003906 19.941407 13.28125 19.941407zm0 0" fill="#4e5173"/><path d="m114.023438 168.359375c0-11.890625-5.257813-21.527344-11.742188-21.527344s-11.742188 9.636719-11.742188 21.527344c0 11.886719 5.257813 21.527344 11.742188 21.527344s11.742188-9.640625 11.742188-21.527344zm0 0" fill="#4e5173"/><path d="m305.558594 113.988281c-23.386719 0-46.257813 8.101563-64.390625 22.808594-3.214844 2.609375-3.707031 7.335937-1.097657 10.550781 2.605469 3.214844 7.328126 3.710938 10.546876 1.101563 15.472656-12.546875 34.984374-19.457031 54.941406-19.457031 48.128906 0 87.28125 39.152343 87.28125 87.28125 0 43.683593-22.164063 78.84375-35.378906 95.914062-13.671876 17.664062-28.160157 29.75-39.230469 35.609375-.289063.125-.570313.269531-.847657.4375-4.71875 2.398437-8.773437 3.621094-11.824218 3.621094-3.046875 0-7.097656-1.21875-11.804688-3.613281-.289062-.171876-.582031-.324219-.882812-.457032-11.066406-5.855468-25.546875-17.941406-39.214844-35.597656-13.210938-17.070312-35.378906-52.230469-35.378906-95.914062 0-16.539063 4.644531-32.632813 13.429687-46.546876 2.210938-3.5 1.167969-8.132812-2.335937-10.34375-3.5-2.210937-8.132813-1.164062-10.34375 2.335938-10.304688 16.308594-15.75 35.175781-15.75 54.554688 0 48.144531 24.132812 86.511718 38.515625 105.09375 11.96875 15.464843 25.414062 28.042968 37.925781 36.023437-3.164062 6.367187-5.839844 14.039063-5.839844 20.617187 0 11.003907 8.949219 19.953126 19.949219 19.953126 4.261719 0 8.351563-1.355469 11.726563-3.820313 1.519531 1.105469 3.179687 1.988281 4.933593 2.625-1.371093 2.601563-2.988281 5.222656-4.648437 7.914063l-.21875.359374c-4.792969 7.785157-9.160156 15.53125-9.964844 24.671876-1.582031 17.953124 11.070312 31.808593 13.976562 45.8125 1.847657 8.832031-.183593 18.167968-2.65625 26.941406-1.121093 3.988281 1.199219 8.132812 5.1875 9.253906.679688.191406 1.363282.28125 2.035157.28125 3.273437 0 6.285156-2.160156 7.21875-5.46875 2.984375-10.609375 5.40625-22.082031 2.902343-34.066406-3.316406-15.960938-14.832031-28.882813-13.722656-41.4375.515625-5.890625 3.835938-11.695313 7.792969-18.121094l.214844-.351562c3.199219-5.183594 6.753906-10.949219 8.863281-17.398438 5.835938-3.480469 9.757812-9.867188 9.757812-17.144531 0-6.574219-2.675781-14.25-5.835937-20.617188 12.511719-7.980469 25.957031-20.558593 37.929687-36.023437 14.382813-18.585938 38.515626-56.953125 38.515626-105.097656.003906-56.402344-45.878907-102.285157-102.277344-102.285157zm16.671875 264.019531c0 2.730469-2.214844 4.949219-4.9375 4.949219-1.984375 0-3.207031-1.089843-3.75-1.730469-1.984375-2.339843-4.894531-3.683593-7.980469-3.683593s-5.996094 1.34375-7.972656 3.675781c-.554688.648438-1.777344 1.738281-3.757813 1.738281-2.730469 0-4.949219-2.21875-4.949219-4.949219 0-3.394531 1.636719-8.636718 4.164063-13.761718 4.496094 1.707031 8.714844 2.609375 12.511719 2.609375s8.015625-.902344 12.511718-2.605469c2.523438 5.125 4.160157 10.367188 4.160157 13.757812zm0 0"/><path d="m338.6875 239.027344c7.339844 0 14.152344-3.648438 18.222656-9.757813 4.066406-6.109375 4.808594-13.800781 1.976563-20.574219l-8.433594-20.1875c-2.820313-6.761718-9.378906-11.128906-16.707031-11.128906-4.945313 0-9.734375 2.054688-13.136719 5.644532-3.402344 3.585937-5.203125 8.476562-4.941406 13.417968l1.15625 21.847656c.617187 11.628907 10.21875 20.738282 21.863281 20.738282zm-2.074219-44.742188 8.433594 20.191406c.902344 2.164063.675781 4.527344-.625 6.476563-1.296875 1.953125-3.390625 3.074219-5.734375 3.074219-3.667969 0-6.691406-2.867188-6.886719-6.527344l-1.15625-21.851562c-.183593-3.460938 4.628907-4.570313 5.96875-1.363282zm0 0"/><path d="m277.371094 177.378906c-7.324219 0-13.882813 4.367188-16.707032 11.125l-8.433593 20.191406c-2.828125 6.773438-2.089844 14.464844 1.980469 20.574219 4.066406 6.109375 10.878906 9.757813 18.21875 9.757813 11.648437 0 21.25-9.109375 21.863281-20.734375l1.15625-21.851563c.261719-4.9375-1.539063-9.828125-4.941407-13.417968-3.402343-3.589844-8.191406-5.644532-13.136718-5.644532zm1.945312 40.121094c-.195312 3.660156-3.21875 6.527344-6.882812 6.527344-2.347656 0-4.4375-1.121094-5.738282-3.074219-1.300781-1.949219-1.527343-4.3125-.621093-6.476563l8.433593-20.191406c.867188-2.078125 3.582032-2.5625 5.117188-.9375.34375.359375.261719 3.3125-.308594 24.152344zm0 0"/><path d="m286.316406 276.46875c0 16.546875 8.273438 29.027344 19.242188 29.027344 10.972656 0 19.242187-12.480469 19.242187-29.027344s-8.269531-29.027344-19.242187-29.027344c-10.96875 0-19.242188 12.480469-19.242188 29.027344zm23.484375 0c0 8.011719-2.824219 12.875-4.242187 13.910156-1.417969-1.035156-4.242188-5.898437-4.242188-13.910156s2.828125-12.878906 4.242188-13.910156c1.417968 1.03125 4.242187 5.898437 4.242187 13.910156zm0 0"/><path d="m102.28125 0c-24.554688 0-48.296875 8.835938-66.863281 24.875-3.132813 2.707031-3.476563 7.445312-.769531 10.578125 2.707031 3.136719 7.445312 3.480469 10.578124.769531 15.839844-13.683594 36.101563-21.222656 57.054688-21.222656 48.125 0 87.277344 39.152344 87.277344 87.28125 0 35.117188-14.402344 64.722656-26.484375 83.371094-13.960938 21.546875-32.5625 40.078125-48.542969 48.351562-4.679688 2.414063-8.90625 3.777344-11.957031 3.859375-.097657.003907-.195313.003907-.292969.003907s-.191406 0-.292969-.003907c-3.050781-.082031-7.28125-1.445312-11.949219-3.855469-15.988281-8.277343-34.589843-26.808593-48.550781-48.355468-12.082031-18.648438-26.488281-48.253906-26.488281-83.371094 0-15.925781 4.332031-31.511719 12.519531-45.074219 2.144531-3.546875 1.003907-8.15625-2.542969-10.296875-3.546874-2.144531-8.152343-1.003906-10.296874 2.542969-9.601563 15.902344-14.679688 34.167969-14.679688 52.828125 0 38.785156 15.714844 71.179688 28.898438 91.527344 13.65625 21.082031 30.992187 39.097656 47.527343 49.636718-3.152343 6.359376-5.816406 14.019532-5.816406 20.574219 0 9.855469 7.179687 18.066407 16.582031 19.667969 2.132813 6 5.390625 11.410156 8.347656 16.324219l.234376.386719c3.976562 6.605468 7.308593 12.566406 7.832031 18.667968.628906 7.355469-2.824219 14.855469-6.480469 22.800782-2.855469 6.207031-5.808594 12.621093-7.253906 19.71875-6.304688 30.964843 20.722656 63.738281 6.492187 86.691406-2.179687 3.523437-1.097656 8.144531 2.425781 10.328125 1.230469.761719 2.59375 1.125 3.945313 1.125 2.507813 0 4.960937-1.257813 6.378906-3.550781 18.800781-30.328126-9.921875-65.183594-4.546875-91.601563 1.101563-5.394531 3.570313-10.757813 6.183594-16.4375 4.3125-9.367187 8.769531-19.046875 7.800781-30.351563-.796875-9.304687-5.148437-17.191406-9.925781-25.128906l-.234375-.390625c-2.449219-4.058593-4.800781-7.96875-6.417969-11.898437.101563-.070313.203125-.144532.308594-.21875 3.375 2.460937 7.46875 3.816406 11.726562 3.816406 11.003907 0 19.953126-8.949219 19.953126-19.949219 0-6.5625-2.667969-14.21875-5.820313-20.578125 16.527344-10.53125 33.863281-28.550781 47.523437-49.632812 13.179688-20.347656 28.894532-52.742188 28.894532-91.527344 0-56.398438-45.878906-102.28125-102.277344-102.28125zm11.730469 268.96875c-1.980469 0-3.207031-1.089844-3.75-1.730469-1.984375-2.339843-4.894531-3.683593-7.980469-3.683593s-5.996094 1.34375-7.972656 3.675781c-.433594.507812-1.273438 1.28125-2.5625 1.597656-.097656.015625-.195313.03125-.292969.050781-.070313.015625-.140625.027344-.207031.042969-.21875.03125-.453125.046875-.695313.046875-2.722656 0-4.9375-2.222656-4.9375-4.949219 0-3.378906 1.625-8.605469 4.144531-13.722656.113282.042969.402344.152344.84375.3125 6.402344 2.28125 10.765626 2.242187 10.605469 2.238281 6.5625.261719 13.007813-2.417968 13.605469-2.550781 2.519531 5.109375 4.148438 10.335937 4.148438 13.722656 0 2.726563-2.21875 4.949219-4.949219 4.949219zm0 0"/><path d="m135.410156 130.917969c7.339844 0 14.152344-3.648438 18.222656-9.757813 4.066407-6.109375 4.808594-13.800781 1.980469-20.574218l-8.4375-20.191407c-2.824219-6.757812-9.378906-11.125-16.707031-11.125-4.945312 0-9.730469 2.054688-13.136719 5.644531-3.402343 3.589844-5.203125 8.476563-4.941406 13.414063l1.15625 21.851563c.617187 11.628906 10.21875 20.738281 21.863281 20.738281zm-2.074218-44.742188 8.433593 20.191407c.90625 2.164062.679688 4.523437-.621093 6.476562-1.300782 1.953125-3.394532 3.074219-5.738282 3.074219-3.664062 0-6.6875-2.867188-6.882812-6.527344l-1.15625-21.851563c-.1875-3.457031 4.628906-4.570312 5.964844-1.363281zm0 0"/><path d="m74.09375 69.269531c-7.324219 0-13.882812 4.367188-16.707031 11.125l-8.433594 20.191407c-2.828125 6.773437-2.089844 14.464843 1.980469 20.574218 4.066406 6.109375 10.882812 9.757813 18.222656 9.757813 11.644531 0 21.246094-9.109375 21.859375-20.734375l1.160156-21.851563c.261719-4.9375-1.542969-9.828125-4.945312-13.417969-3.402344-3.589843-8.191407-5.644531-13.136719-5.644531zm1.945312 40.121094c-.195312 3.660156-3.21875 6.527344-6.882812 6.527344-2.347656 0-4.4375-1.121094-5.738281-3.074219-1.300781-1.949219-1.527344-4.3125-.621094-6.476562l8.433594-20.191407c.859375-2.0625 3.570312-2.570312 5.117187-.9375.34375.359375.265625 3.285157-.308594 24.152344zm0 0"/><path d="m83.039062 168.359375c0 16.546875 8.273438 29.027344 19.242188 29.027344 10.972656 0 19.242188-12.480469 19.242188-29.027344s-8.269532-29.027344-19.242188-29.027344c-10.96875 0-19.242188 12.480469-19.242188 29.027344zm23.484376 0c0 8.011719-2.824219 12.878906-4.242188 13.910156-1.414062-1.03125-4.242188-5.898437-4.242188-13.910156s2.828126-12.878906 4.242188-13.910156c1.417969 1.03125 4.242188 5.898437 4.242188 13.910156zm0 0"/></svg>