<svg height="512pt" viewBox="-67 0 512 512" width="512pt" xmlns="http://www.w3.org/2000/svg"><path d="m269.933594 7.5h-160.910156c-3.472657 0-6.695313 1.800781-8.515626 4.757812l-91.523437 148.667969c-1.527344 2.480469-1.894531 5.503907-1.011719 8.277344l104.613282 328.332031c1.320312 4.148438 5.175781 6.964844 9.527343 6.964844h134.730469c4.355469 0 8.207031-2.816406 9.53125-6.964844l104.609375-328.332031c.886719-2.773437.515625-5.796875-1.011719-8.277344l-91.523437-148.667969c-1.820313-2.957031-5.042969-4.757812-8.515625-4.757812zm0 0" fill="#fdeaaf"/><path d="m369.972656 160.925781-91.523437-148.667969c-1.820313-2.957031-5.042969-4.757812-8.515625-4.757812h-23.109375c3.472656 0 6.695312 1.800781 8.515625 4.757812l91.519531 148.667969c1.527344 2.480469 1.898437 5.503907 1.011719 8.277344l-104.609375 328.332031c-1.324219 4.148438-5.175781 6.964844-9.53125 6.964844h23.113281c4.351562 0 8.207031-2.816406 9.527344-6.964844l104.613281-328.332031c.882813-2.773437.515625-5.796875-1.011719-8.277344zm0 0" fill="#f8cc7c"/><path d="m310.519531 169.371094c0-7.933594 3.78125-14.984375 9.640625-19.445313 1.210938-.921875 1.496094-2.628906.699219-3.925781l-59.941406-97.363281c-2.730469-4.433594-7.566407-7.136719-12.773438-7.136719h-117.335937c-5.207032 0-10.042969 2.703125-12.773438 7.136719l-59.9375 97.363281c-.796875 1.296875-.515625 3.003906.695313 3.925781 5.863281 4.460938 9.644531 11.511719 9.644531 19.445313 0 10.074218-6.097656 18.726562-14.804688 22.460937-1.394531.597657-2.070312 2.191407-1.609374 3.636719l85.855468 269.460938c1.054688 3.316406 4.140625 5.570312 7.621094 5.570312h87.953125c3.484375 0 6.566406-2.253906 7.621094-5.570312l85.855469-269.460938c.460937-1.445312-.214844-3.039062-1.605469-3.636719-8.707031-3.734375-14.804688-12.386719-14.804688-22.460937zm0 0" fill="#935d38"/><path d="m202.53125 174.289062v-29.570312c0-7.207031-5.84375-13.054688-13.054688-13.054688-7.207031 0-13.050781 5.847657-13.050781 13.054688v29.570312h-29.570312c-7.207031 0-13.050781 5.84375-13.050781 13.050782 0 7.210937 5.84375 13.054687 13.050781 13.054687h29.570312v75.386719c0 7.207031 5.84375 13.054688 13.050781 13.054688 7.210938 0 13.054688-5.847657 13.054688-13.054688v-75.386719h29.570312c7.207032 0 13.050782-5.84375 13.050782-13.054687 0-7.207032-5.84375-13.050782-13.050782-13.050782zm0 0" fill="#fdeaaf"/><path d="m376.359375 156.992188-91.523437-148.664063c-3.160157-5.136719-8.871094-8.328125-14.902344-8.328125h-160.910156c-6.03125 0-11.742188 3.191406-14.902344 8.324219l-28.71875 46.648437c-2.171875 3.527344-1.070313 8.144532 2.457031 10.316406 3.527344 2.175782 8.148437 1.074219 10.316406-2.453124l28.71875-46.648438c.457031-.742188 1.253907-1.1875 2.128907-1.1875h160.910156c.875 0 1.671875.445312 2.128906 1.1875l91.523438 148.667969c.378906.621093.472656 1.375.253906 2.070312l-104.613282 328.332031c-.332031 1.042969-1.289062 1.742188-2.382812 1.742188h-134.730469c-1.09375 0-2.050781-.699219-2.382812-1.738281l-104.609375-328.332031c-.222656-.695313-.128906-1.453126.25-2.074219l46.625-75.738281c2.171875-3.523438 1.074218-8.144532-2.453125-10.316407-3.527344-2.171875-8.148438-1.070312-10.320313 2.457031l-46.625 75.734376c-2.6718748 4.347656-3.320312 9.625-1.769531 14.488281l104.609375 328.332031c2.324219 7.289062 9.023438 12.1875 16.675781 12.1875h134.730469c7.648438 0 14.351562-4.898438 16.671875-12.1875l104.613281-328.335938c1.550782-4.859374.902344-10.136718-1.769531-14.484374zm0 0"/><path d="m252.652344 187.339844c0-11.332032-9.21875-20.550782-20.554688-20.550782h-22.066406v-22.070312c0-11.332031-9.222656-20.550781-20.554688-20.550781-11.332031 0-20.550781 9.21875-20.550781 20.550781v22.070312h-22.070312c-11.332031 0-20.554688 9.21875-20.554688 20.550782 0 11.335937 9.222657 20.554687 20.554688 20.554687h22.070312v67.886719c0 11.332031 9.21875 20.554688 20.550781 20.554688 11.332032 0 20.554688-9.222657 20.554688-20.554688v-67.886719h22.066406c11.335938 0 20.554688-9.21875 20.554688-20.554687zm-50.121094 5.554687c-4.140625 0-7.5 3.355469-7.5 7.5v75.386719c0 3.0625-2.492188 5.554688-5.554688 5.554688-3.058593 0-5.550781-2.492188-5.550781-5.554688v-75.386719c0-4.144531-3.359375-7.5-7.5-7.5h-29.570312c-3.0625 0-5.550781-2.492187-5.550781-5.554687s2.488281-5.550782 5.550781-5.550782h29.570312c4.140625 0 7.5-3.359374 7.5-7.5v-29.570312c0-3.0625 2.492188-5.550781 5.550781-5.550781 3.0625 0 5.554688 2.488281 5.554688 5.550781v29.570312c0 4.140626 3.359375 7.5 7.5 7.5h29.570312c3.0625 0 5.550782 2.488282 5.550782 5.550782s-2.488282 5.554687-5.550782 5.554687zm0 0"/><path d="m166.367188 326c-4.140626 0-7.5 3.355469-7.5 7.5s3.359374 7.5 7.5 7.5h46.222656c4.140625 0 7.5-3.355469 7.5-7.5s-3.359375-7.5-7.5-7.5zm0 0"/><path d="m324.707031 155.890625c4.285157-3.269531 5.378907-9.207031 2.539063-13.820313l-59.941406-97.363281c-4.0625-6.605469-11.40625-10.707031-19.160157-10.707031h-117.335937c-7.753906 0-15.09375 4.101562-19.160156 10.703125l-59.9375 97.363281c-2.839844 4.613282-1.75 10.554688 2.542968 13.824219 4.25 3.234375 6.683594 8.148437 6.683594 13.480469 0 6.78125-4.027344 12.894531-10.261719 15.566406-4.953125 2.125-7.445312 7.632812-5.796875 12.808594l85.855469 269.457031c2.058594 6.457031 7.992187 10.796875 14.769531 10.796875h87.953125c6.773438 0 12.710938-4.339844 14.765625-10.796875l37.339844-117.183594c1.253906-3.949219-.921875-8.167969-4.871094-9.425781-3.945312-1.257812-8.164062.921875-9.421875 4.871094l-37.339843 117.1875c-.0625.207031-.257813.347656-.472657.347656h-87.953125c-.21875 0-.410156-.140625-.476562-.347656l-84.699219-265.828125c9.601563-5.703125 15.609375-16.078125 15.609375-27.453125 0-8.652344-3.402344-16.71875-9.453125-22.6875l57.9375-94.117188c1.355469-2.199218 3.804687-3.566406 6.386719-3.566406h117.335937c2.582031 0 5.03125 1.367188 6.386719 3.566406l57.9375 94.117188c-6.050781 5.96875-9.453125 14.035156-9.453125 22.6875 0 11.375 6.007813 21.75 15.609375 27.453125l-38.039062 119.398437c-1.257813 3.945313.921874 8.164063 4.867187 9.421875 3.945313 1.257813 8.164063-.921875 9.421875-4.867187l39.203125-123.03125c1.644531-5.175782-.847656-10.679688-5.796875-12.804688-6.234375-2.675781-10.265625-8.789062-10.265625-15.570312 0-5.332032 2.441406-10.242188 6.691406-13.480469zm0 0"/></svg>