<svg height="512pt" viewBox="-62 0 512 512" width="512pt" xmlns="http://www.w3.org/2000/svg"><path d="m277.585938 70.539062-66.894532 8.816407c-1.4375.191406-2.660156-1.035157-2.472656-2.46875l8.816406-66.898438c.175782-1.316406-.851562-2.488281-2.179687-2.488281h-42.675781c-1.332032 0-2.355469 1.171875-2.183594 2.488281l8.816406 66.898438c.1875 1.433593-1.035156 2.660156-2.46875 2.46875l-66.898438-8.816407c-1.320312-.171874-2.488281.851563-2.488281 2.183594v42.675782c0 1.332031 1.167969 2.355468 2.488281 2.183593l66.898438-8.816406c1.433594-.1875 2.65625 1.035156 2.46875 2.46875l-8.816406 66.898437c-.175782 1.320313.851562 2.488282 2.183594 2.488282h42.675781c1.328125 0 2.355469-1.167969 2.179687-2.488282l-8.816406-66.898437c-.1875-1.433594 1.035156-2.65625 2.472656-2.46875l66.894532 8.816406c1.320312.175781 2.488281-.851562 2.488281-2.183593v-42.675782c0-1.332031-1.167969-2.355468-2.488281-2.183594zm0 0" fill="#b1bfc4"/><path d="m55.929688 461.941406v-16.6875c0-8.007812 6.492187-14.5 14.5-14.5h246.171874c8.007813 0 14.5 6.492188 14.5 14.5v16.6875zm0 0" fill="#e6eff5"/><path d="m316.601562 430.753906h-22.5c8.007813 0 14.5 6.492188 14.5 14.5v16.6875h22.5v-16.6875c0-8.007812-6.492187-14.5-14.5-14.5zm0 0" fill="#c5d3d6"/><path d="m263.5 229.695312c-7.109375-32.109374-35.734375-56.136718-69.984375-56.136718s-62.875 24.027344-69.984375 56.136718h-14.050781c-13.769531 0-24.933594 11.164063-24.933594 24.933594v176.125h217.9375v-176.125c0-13.769531-11.164063-24.933594-24.933594-24.933594zm0 0" fill="#d8e6f0"/><path d="m277.550781 229.695312h-14.050781c-7.109375-32.109374-35.734375-56.136718-69.984375-56.136718-3.828125 0-7.582031.316406-11.25.894531 29.128906 4.597656 52.417969 26.722656 58.734375 55.242187h14.050781c13.769531 0 24.933594 11.164063 24.933594 24.933594v176.125h22.5v-176.125c0-13.769531-11.164063-24.933594-24.933594-24.933594zm0 0" fill="#bdcdd6"/><path d="m237.109375 257.019531c-4.429687-20-22.257813-34.964843-43.59375-34.964843s-39.164063 14.964843-43.59375 34.964843h-8.75c-8.578125 0-15.53125 6.953125-15.53125 15.53125v158.203125h135.75v-158.203125c0-8.578125-6.953125-15.53125-15.53125-15.53125zm0 0" fill="#bdcdd6"/><path d="m31.714844 474.976562v29.523438h323.601562v-29.523438c0-7.199218-5.835937-13.035156-13.035156-13.035156h-297.53125c-7.199219 0-13.035156 5.835938-13.035156 13.035156zm0 0" fill="#d8e6f0"/><path d="m342.28125 461.941406h-23c7.199219 0 13.035156 5.835938 13.035156 13.035156v29.523438h23v-29.523438c0-7.199218-5.835937-13.035156-13.035156-13.035156zm0 0" fill="#bdcdd6"/><path d="m379.53125 497h-16.714844v-22.023438c0-11.324218-9.210937-20.535156-20.535156-20.535156h-3.679688v-9.1875c0-12.132812-9.871093-22-22-22h-6.617187v-168.625c0-17.886718-14.550781-32.433594-32.433594-32.433594h-8.273437c-4.574219-14.988281-13.605469-28.46875-25.863282-38.429687-5.960937-4.84375-12.582031-8.765625-19.613281-11.675781l-2.824219-21.425782c12.71875-6.167968 22.976563-16.425781 29.144532-29.140624l26.503906 3.496093c2.769531.359375 5.5625-.496093 7.65625-2.339843 2.09375-1.839844 3.292969-4.492188 3.292969-7.28125v-42.679688c0-2.785156-1.199219-5.4375-3.292969-7.277344-2.09375-1.84375-4.886719-2.691406-7.679688-2.335937l-26.480468 3.492187c-6.167969-12.71875-16.425782-22.976562-29.144532-29.144531l3.496094-26.503906c.355469-2.769531-.496094-5.5625-2.339844-7.65625-1.835937-2.09375-4.492187-3.292969-7.277343-3.292969h-42.679688c-2.785156 0-5.441406 1.199219-7.28125 3.292969-1.839843 2.09375-2.695312 4.886719-2.335937 7.679687l3.492187 26.480469c-12.714843 6.167969-22.976562 16.425781-29.140625 29.144531l-26.507812-3.496094c-2.769532-.363281-5.558594.496094-7.65625 2.339844-2.089844 1.839844-3.289063 4.492188-3.289063 7.277344v42.679688c0 2.789062 1.199219 5.441406 3.289063 7.28125 2.097656 1.84375 4.886718 2.691406 7.679687 2.335937l26.484375-3.492187c6.167969 12.714843 16.425782 22.972656 29.144532 29.140624l-2.824219 21.425782c-7.03125 2.910156-13.65625 6.832031-19.613281 11.675781-12.253907 9.960937-21.292969 23.441406-25.863282 38.429687h-8.273437c-17.882813 0-32.433594 14.546876-32.433594 32.433594v168.625h-6.617187c-12.128907 0-22 9.867188-22 22v9.1875h-3.679688c-11.324219 0-20.535156 9.210938-20.535156 20.535156v22.023438h-16.714844c-4.140625 0-7.5 3.355469-7.5 7.5s3.359375 7.5 7.5 7.5h372.03125c4.144531 0 7.5-3.355469 7.5-7.5s-3.355469-7.5-7.5-7.5zm-160.65625-362.285156-2.320312-17.617188 17.617187 2.324219c-3.863281 6.199219-9.097656 11.429687-15.296875 15.292969zm15.296875-66.015625-17.617187 2.324219 2.324218-17.617188c6.195313 3.863281 11.429688 9.09375 15.292969 15.292969zm-66.015625-15.296875 2.320312 17.617187-17.617187-2.320312c3.863281-6.199219 9.097656-11.429688 15.296875-15.296875zm-15.296875 66.019531 17.617187-2.324219-2.320312 17.617188c-6.199219-3.863282-11.429688-9.09375-15.296875-15.292969zm28.777344 27.820313c.027343-.171876.050781-.347657.066406-.523438l4.554687-34.550781c.378907-3.011719-.640624-5.96875-2.792968-8.109375-2.152344-2.132813-5.101563-3.136719-8.101563-2.734375l-60.910156 8.03125v-30.589844l60.90625 8.03125c3 .394531 5.953125-.601563 8.105469-2.734375 2.152344-2.140625 3.171875-5.097656 2.785156-8.152344l-8.027344-60.910156h30.585938l-8.035156 60.953125c-.378907 3.011719.640624 5.96875 2.792968 8.105469 2.152344 2.136718 5.101563 3.132812 8.097656 2.738281l60.910157-8.03125v30.589844l-60.902344-8.03125c-3.003906-.398438-5.953125.601562-8.105469 2.734375-2.152344 2.140625-3.171875 5.097656-2.785156 8.152344l4.546875 34.503906c.015625.175781.039063.355468.070313.53125l2.65625 20.164062c-4.773438-.894531-9.640626-1.351562-14.539063-1.351562s-9.765625.457031-14.539063 1.351562zm-89.589844 107.386718c0-9.613281 7.820313-17.433594 17.433594-17.433594h14.050781c3.519531 0 6.5625-2.445312 7.324219-5.878906 6.449219-29.121094 32.800781-50.257812 62.660156-50.257812 29.863281 0 56.214844 21.136718 62.664063 50.257812.761718 3.433594 3.804687 5.878906 7.324218 5.878906h14.046875c9.613281 0 17.433594 7.820313 17.433594 17.433594v168.625h-26.089844v-96.851562c0-4.144532-3.359375-7.5-7.5-7.5-4.144531 0-7.5 3.355468-7.5 7.5v96.851562h-120.753906v-150.703125c0-4.429687 3.601563-8.03125 8.03125-8.03125h8.753906c3.515625 0 6.5625-2.441406 7.320313-5.878906 3.730468-16.851563 18.984375-29.085937 36.269531-29.085937s32.539063 12.234374 36.269531 29.085937c.761719 3.4375 3.808594 5.878906 7.324219 5.878906h8.753906c4.425781 0 8.03125 3.605469 8.03125 8.03125v23.847657c0 4.140624 3.355469 7.5 7.5 7.5 4.140625 0 7.5-3.359376 7.5-7.5v-23.847657c0-12.699219-10.332031-23.03125-23.03125-23.03125h-3.105469c-7.21875-20.578125-27.035156-34.964843-49.238281-34.964843s-42.023437 14.386718-49.242187 34.964843h-3.101563c-12.699219 0-23.03125 10.332031-23.03125 23.03125v150.703125h-26.09375v-168.625zm-52.832031 242.371094v-22.023438c0-3.050781 2.484375-5.535156 5.539062-5.535156h65.886719c4.140625 0 7.5-3.355468 7.5-7.5 0-4.144531-3.359375-7.5-7.5-7.5h-47.210937v-9.1875c0-3.859375 3.140624-7 7.003906-7h246.167968c3.859376 0 7 3.140625 7 7v9.1875h-183.03125c-4.140624 0-7.5 3.355469-7.5 7.5 0 4.144532 3.359376 7.5 7.5 7.5h201.710938c3.050781 0 5.535156 2.484375 5.535156 5.535156v22.023438zm0 0"/></svg>