<svg height="511pt" viewBox="0 -117 511.99774 511" width="511pt" xmlns="http://www.w3.org/2000/svg"><path d="m265.542969 270.375c-3.457031 0-6.933594-1.195312-9.753907-3.632812-6.242187-5.390626-6.933593-14.820313-1.542968-21.0625 30.375-35.171876 46.429687-68.550782 46.429687-96.527344 0-55.179688-44.796875-101.792969-97.820312-101.792969-53.027344 0-97.824219 46.613281-97.824219 101.792969 0 27.976562 16.054688 61.355468 46.429688 96.527344 5.390624 6.242187 4.699218 15.671874-1.542969 21.0625-6.242188 5.390624-15.671875 4.703124-21.0625-1.542969-35.628907-41.25-53.691407-80.296875-53.691407-116.046875 0-33.722656 13.539063-67.257813 37.148438-92.019532 24.375-25.566406 56.53125-39.644531 90.539062-39.644531 34.011719 0 66.164063 14.082031 90.542969 39.644531 23.605469 24.757813 37.148438 58.296876 37.148438 92.019532 0 35.75-18.066407 74.796875-53.691407 116.046875-2.953124 3.421875-7.117187 5.175781-11.308593 5.175781zm0 0" fill="#6e7093"/><path d="m359.3125 41.722656 15.472656 57.746094c1.574219 5.867188 7.507813 9.667969 13.402344 8.203125 6.003906-1.492187 9.589844-7.605469 7.996094-13.554687l-3.238282-12.085938c27.285157-2.757812 50.128907-9.054688 67.574219-20.546875 5.511719 10.59375 17.8125 16.328125 29.828125 13.109375l10.933594-2.929688c2.3125-.621093 3.6875-3 3.066406-5.3125l-12.996094-48.507812c-1.898437-7.085938-9.179687-11.289062-16.265624-9.390625l-114.242188 30.613281c-1.15625.308594-1.839844 1.5-1.53125 2.65625zm0 0" fill="#6e7093"/><path d="m504.347656 66.351562-5.914062-22.070312c.398437 1.480469-1.15625 3.183594-3.46875 3.804688l-10.9375 2.929687c-11.230469 3.007813-22 .84375-26.972656-4.792969-.609376-.691406-1.585938-.910156-2.410157-.5-17.328125 8.558594-38.933593 14.484375-64.152343 18.640625-1.167969.191407-1.921876 1.347657-1.613282 2.488281l1.5 5.605469c1.023438 3.804688-3.03125 8.191407-9.023437 9.722657-5.882813 1.503906-11.332031-.488282-12.339844-4.242188l5.769531 21.53125c1.574219 5.867188 7.507813 9.667969 13.402344 8.203125 6.003906-1.492187 9.589844-7.605469 7.996094-13.554687l-3.238282-12.085938c27.285157-2.757812 50.128907-9.054688 67.574219-20.546875 5.511719 10.59375 17.8125 16.328125 29.828125 13.109375l10.933594-2.933594c2.3125-.617187 3.6875-2.996094 3.066406-5.308594zm0 0" fill="#4e5173"/><path d="m87.636719 202.894531c-35.527344 5.71875-70.359375-16.28125-79.859375-51.820312-.191406-.699219-.28125-1.410157-.28125-2.109375 0-.222656.011718-.441406.03125-.660156.019531-.230469.039062-.453126.082031-.660157.039063-.242187.089844-.480469.160156-.710937.027344-.160156.078125-.320313.128907-.480469.027343-.089844.058593-.179687.097656-.269531.042968-.109375.082031-.21875.132812-.332032.027344-.078124.058594-.15625.097656-.226562.050782-.132812.109376-.25.179688-.371094.082031-.160156.171875-.320312.269531-.46875.0625-.132812.140625-.242187.222657-.363281 1.058593-1.578125 2.679687-2.796875 4.667968-3.328125l64.121094-17.179688c-1.660156 8.308594-2.519531 16.769532-2.519531 25.238282 0 9.402344 1.25 19.042968 3.738281 28.882812 2.0625 8.148438 4.972656 16.4375 8.730469 24.859375zm0 0" fill="#c8e7f7"/><path d="m347.667969 99.761719 1.71875 6.421875h.011719l1.25 4.667968c3.027343 11.3125-3.691407 22.941407-15.011719 25.972657l-5.558594 1.488281c-.742187-8.679688-2.359375-17.289062-4.800781-25.667969-5.089844-17.511719-13.757813-34.042969-25.449219-48.25l61.167969-16.390625 10.25 38.269532-18.667969 5c-3.710937.988281-5.890625 4.789062-4.910156 8.488281zm0 0" fill="#c8e7f7"/><path d="m320.765625 58.785156-20.9375 5.609375c11.691406 14.207031 20.359375 30.738281 25.449219 48.25 2.441406 8.378907 4.058594 16.988281 4.800781 25.667969l5.558594-1.488281c7.753906-2.074219 13.347656-8.1875 15.132812-15.460938-4.332031-22.867187-14.710937-44.667969-30.003906-62.578125zm0 0" fill="#accfdd"/><path d="m87.636719 202.894531c-35.527344 5.71875-70.359375-16.28125-79.859375-51.820312-.191406-.699219-.28125-1.410157-.28125-2.109375 0-.222656.011718-.441406.03125-.660156.019531-.230469.039062-.453126.082031-.660157.039063-.242187.089844-.480469.160156-.710937.027344-.160156.078125-.320313.128907-.480469.027343-.089844.058593-.179687.097656-.269531.042968-.109375.082031-.21875.132812-.332032.027344-.078124.058594-.15625.097656-.226562.050782-.132812.109376-.25.179688-.371094.082031-.160156.171875-.320312.269531-.46875.0625-.132812.140625-.242187.222657-.363281 14.398437 23.773437 41.828124 37.332031 70.007812 33.613281 2.0625 8.148438 4.972656 16.4375 8.730469 24.859375zm0 0" fill="#e6eff5"/><path d="m335.636719 136.824219-5.558594 1.488281c-.742187-8.679688-2.359375-17.289062-4.800781-25.667969l24.109375-6.460937h.011719l1.25 4.667968c3.027343 11.3125-3.691407 22.941407-15.011719 25.972657zm0 0" fill="#e6eff5"/><path d="m350.769531 121.363281c-.933593-4.917969-2.144531-9.789062-3.625-14.578125l-21.867187 5.855469c2.441406 8.382813 4.058594 16.992187 4.800781 25.671875 1.707031-.863281 16.972656-1.769531 20.691406-16.949219zm0 0" fill="#c5d3d6"/><path d="m511.59375 64.410156-13-48.507812c-2.964844-11.066406-14.390625-17.660156-25.445312-14.691406l-17.8125 4.769531c-4 1.070312-6.375 5.183593-5.300782 9.183593 1.070313 4.003907 5.1875 6.382813 9.183594 5.304688l17.8125-4.769531c3.082031-.824219 6.25 1.007812 7.078125 4.085937l12.175781 45.449219-7.878906 2.113281c-8.328125 2.226563-17.261719-1.691406-21.234375-9.324218-.976563-1.886719-2.710937-3.265626-4.765625-3.800782s-4.238281-.171875-6.011719.996094c-15.515625 10.222656-36.515625 16.546875-64.203125 19.347656-2.1875.222656-4.167968 1.390625-5.417968 3.199219-3.140626 4.554687.125 8.433594 2.167968 18.289063.332032 1.242187-.089844 2.230468-.371094 2.707031-1.671874 2.832031-5.6875 1.941406-6.539062-1.234375l-8.695312-32.445313-5.09375-19.019531c-.011719-.054688-.027344-.105469-.042969-.15625l-.261719-.976562 62.304688-16.695313c4-1.070313 6.375-5.183594 5.300781-9.183594-1.070313-4-5.183594-6.378906-9.183594-5.304687l-67.453125 18.074218c-2.492188.667969-4.578125 2.269532-5.871094 4.503907-1.125 1.949219-1.527344 4.175781-1.171875 6.363281l-49.402343 13.234375c-1.1875-1.34375-2.398438-2.667969-3.636719-3.964844-25.804688-27.0625-59.886719-41.96875-95.96875-41.96875-26.207031 0-51.65625 7.921875-73.585938 22.90625-3.417969 2.335938-4.296875 7.003907-1.960937 10.425781 2.335937 3.417969 7.003906 4.296876 10.421875 1.960938 19.429687-13.277344 41.949219-20.292969 65.125-20.292969 31.9375 0 62.167969 13.253907 85.113281 37.320313 2.9375 3.078125 5.710938 6.304687 8.308594 9.652344.042968.054687.085937.109374.125.164062.089844.113281.175781.226562.265625.339844.113281.148437.226562.292968.335937.441406.019532.023438.035156.046875.054688.070312 9.433594 12.429688 16.664062 26.773438 21.019531 41.761719 2.3125 7.941407 3.835937 16.085938 4.53125 24.210938.003906.054687.007813.105469.015625.160156.277344 3.339844.421875 6.6875.421875 10.042969 0 33.898437-17.449219 71.296875-51.867187 111.144531-1.414063 1.636719-3.464844 2.574219-5.632813 2.574219-1.261719 0-3.121094-.3125-4.851563-1.804688-3.105468-2.683594-3.449218-7.386718-.769531-10.488281 31.566407-36.550781 48.25-71.625 48.25-101.429687 0-59.242188-48.230469-109.292969-105.320312-109.292969-57.089844 0-105.320313 50.050781-105.320313 109.292969 0 29.804687 16.683594 64.878906 48.25 101.429687 2.679688 3.101563 2.335938 7.808594-.765625 10.488281-1.503906 1.296875-3.421875 1.925782-5.402343 1.785156-1.980469-.144531-3.785157-1.050781-5.082032-2.554687-34.441406-39.878906-59.566406-84.5-49.492187-134.917969.019531-.09375.035156-.1875.050781-.285156 4.566406-22.632812 15.425781-44.164062 31.296875-61.347656 2.8125-3.042969 2.621094-7.789063-.421875-10.597656-3.042969-2.8125-7.785156-2.621094-10.597656.421874-16.722656 18.105469-28.46875 40.546876-34.039063 64.277344l-59.695312 15.996094c-3.554688.949219-6.804688 3.144531-9.070313 6.558594-.226562.335937-.570312.925781-.765625 1.296875-.132812.238281-.269531.519531-.398437.804687-.070313.15625-.152344.339844-.226563.535156-.097656.234376-.28125.710938-.394531 1.050782-.109375.339844-.203125.65625-.285156 1.007812-.179688.652344-.316406 1.425782-.378906 1.957032-.023438.203124-.039063.378906-.054688.566406-.164062 1.769531-.0039062 3.640625.472656 5.386718 10.035156 37.535157 45.175782 61.300782 82.617188 57.996094 9.242187 19.179688 22.601562 38.917969 40.03125 59.097656 3.917968 4.535157 9.363281 7.273438 15.34375 7.710938.558594.042969 1.117187.0625 1.671875.0625 5.375 0 10.515625-1.90625 14.625-5.457031 9.363281-8.085938 10.402343-22.28125 2.316406-31.644531-29.179687-33.789063-44.605469-65.472657-44.605469-91.625 0-51.109376 41.363282-94.292969 90.324219-94.292969 48.957031 0 90.320313 43.183593 90.320313 94.292969 0 26.152343-15.425782 57.835937-44.605469 91.625-8.085938 9.363281-7.046875 23.558593 2.316406 31.644531 4.074219 3.515625 9.277344 5.453125 14.65625 5.453125 6.53125 0 12.722656-2.832032 16.984375-7.769532 30.855469-35.726562 57.226562-79.378906 55.414062-126.136718 15.121094-4.253906 24.019532-19.863282 19.953126-35.054688l-1.25-4.667968c-.019532-.0625-.035157-.125-.054688-.1875 0-.003907-.003906-.011719-.003906-.019532-.019532-.058594-.039063-.117187-.054688-.175781l-1.472656-5.492187 10.890625-2.914063 1.59375 5.953125c4.285156 15.996094 25.527344 19.257812 33.949219 4.96875 2.546875-4.316406 3.234375-9.363281 1.9375-14.207031l-.992188-3.703125c22.65625-3.035156 41.09375-8.609375 55.957032-16.925782 8.265624 9.367188 21.449218 13.625 33.894531 10.292969l10.933593-2.929687c6.300782-1.683594 10.054688-8.1875 8.367188-14.492188zm-441.867188 106.734375c-19.371093.035157-37.746093-8.8125-49.808593-23.988281l48.59375-13.019531c-1.496094 13.328125-.96875 25.183593 1.214843 37.007812zm-54.609374-22.714843c.007812-.039063.015624-.074219.019531-.113282-.003907.039063-.011719.078125-.019531.113282zm-.003907.023437s0 .003906-.003906.003906c0 .015625-.003906.035157-.007813.050781-.003906.011719-.007812.023438-.007812.035157l-.003906.003906c.003906-.007813.007812-.019531.007812-.03125.003906-.019531.011719-.042969.015625-.0625zm26.957031 37.832031c-5.078124-3.308594-9.507812-7.039062-13.664062-11.839844 13.28125 8.191407 28.917969 12.375 44.941406 11.609376.984375 3.273437 2.132813 6.695312 3.472656 10.25-2.308593.023437-24.84375-3.660157-34.75-10.019532zm301.773438-70.851562c.359375 5.34375-2.488281 10.558594-7.386719 13.082031-.476562-3.160156-1.183593-6.902344-2.039062-10.558594zm18.21875-34.464844-11.417969 3.058594c-7.40625 1.976562-11.9375 9.417968-10.417969 16.84375l-9.984374 2.675781c-.578126-1.664063-1.191407-3.320313-1.832032-4.964844-.011718-.027343-.023437-.054687-.035156-.082031-.066406-.171875-.136719-.347656-.203125-.519531-.054687-.140625-.109375-.277344-.167969-.414063-.011718-.035156-.023437-.066406-.035156-.097656-4.03125-10.089844-9.214844-19.746094-15.449219-28.714844l43.171875-11.566406 1.234375 4.609375zm0 0"/></svg>