<svg height="512pt" viewBox="-110 0 512 512" width="512pt" xmlns="http://www.w3.org/2000/svg"><path d="m125.171875 323.394531h42.664063v181.105469h-42.664063zm0 0" fill="#6e7093"/><path d="m147.800781 323.394531h20.035157v181.105469h-20.035157zm0 0" fill="#4e5173"/><path d="m283.796875 113.1875-30.089844-43.097656c-3.757812-5.386719-11.730469-5.386719-15.492187 0l-30.089844 43.097656c-3.878906 5.558594-.816406 13.304688 5.832031 14.652344 7.871094 1.597656 14.46875 4.347656 19.679688 8.355468l4.402343 50.519532c1.632813 18.296875-4.648437 35.816406-17.65625 48.988281-11.714843 11.859375-27.878906 18.246094-44.550781 18.246094-7.757812 0-14.046875-6.289063-14.046875-14.046875v-164.324219c4.660156-2.898437 10.234375-4.964844 16.644532-6.273437 6.679687-1.363282 9.8125-9.078126 5.910156-14.667969l-30.089844-43.097657c-3.757812-5.386718-11.730469-5.386718-15.492188 0l-30.089843 43.097657c-3.902344 5.589843-.769531 13.308593 5.910156 14.667969 6.410156 1.308593 11.988281 3.375 16.644531 6.273437v164.324219c0 7.757812-6.289062 14.046875-14.046875 14.046875-17.324219 0-34.054687-6.941407-45.863281-19.621094-12.113281-13.003906-17.921875-29.945313-16.339844-47.613281l4.402344-50.519532c5.207031-4.007812 11.804688-6.761718 19.675781-8.355468 6.648438-1.347656 9.714844-9.09375 5.832031-14.652344l-30.089843-43.097656c-3.757813-5.386719-11.730469-5.386719-15.492188 0l-30.089843 43.097656c-3.863282 5.535156-.855469 13.300781 5.761718 14.636719 7.023438 1.417969 13.03125 3.757812 17.953125 7.082031l-5.632812 62.804688c-4.691407 52.386718 36.570312 97.503906 89.167969 97.503906h7.265624l-9.367187 31.75c-1.3125 4.460937 2.027344 8.929687 6.675781 8.929687h50.941406c4.648438 0 7.988282-4.46875 6.675782-8.929687l-9.367188-31.75h7.265625c52.597657 0 93.859375-45.117188 89.167969-97.503906l-5.632812-62.804688c4.921874-3.320312 10.929687-5.664062 17.953124-7.082031 6.613282-1.332031 9.625-9.101563 5.757813-14.636719zm0 0" fill="#ed6161"/><g fill="#ce4545"><path d="m68.882812 113.1875c3.882813 5.558594.816407 13.304688-5.832031 14.652344-7.871093 1.597656-14.46875 4.347656-19.675781 8.355468l-4.40625 50.519532c-1.578125 17.671875 4.226562 34.609375 16.339844 47.617187 11.8125 12.675781 28.539062 19.621094 45.867187 19.621094 1.785157 0 3.484375-.347656 5.054688-.953125-13.28125-2.285156-25.625-8.691406-34.921875-18.667969-12.113282-13.003906-17.917969-29.945312-16.339844-47.617187l4.40625-50.519532c5.207031-4.007812 11.804688-6.757812 19.675781-8.355468 6.648438-1.347656 9.714844-9.09375 5.832031-14.652344l-30.089843-43.097656c-3.761719-5.386719-11.734375-5.386719-15.492188 0l-.253906.363281zm0 0"/><path d="m168.339844 54.636719c3.902344 5.589843.769531 13.304687-5.910156 14.667969-6.410157 1.308593-11.988282 3.375-16.644532 6.269531v164.328125c0 7.757812 6.289063 14.046875 14.046875 14.046875 3.691407 0 7.355469-.332031 10.957031-.945313-5.265624-2.03125-9.003906-7.121094-9.003906-13.101562v-164.324219c4.65625-2.898437 10.234375-4.964844 16.644532-6.273437 6.679687-1.363282 9.8125-9.078126 5.910156-14.667969l-30.089844-43.097657c-3.757812-5.386718-11.730469-5.386718-15.492188 0l-.253906.363282zm0 0"/><path d="m283.796875 113.1875-30.089844-43.101562c-3.761719-5.382813-11.734375-5.382813-15.492187.003906l-.253906.363281 29.835937 42.734375c3.867187 5.539062.859375 13.304688-5.761719 14.640625-7.023437 1.417969-13.027344 3.757813-17.949218 7.082031l5.632812 62.804688c4.691406 52.386718-36.574219 97.503906-89.167969 97.503906h-4.59375c-1.335937 0-2.296875 1.285156-1.917969 2.5625l8.609376 29.1875c1.316406 4.457031-2.023438 8.925781-6.671876 8.925781h16c4.648438 0 7.988282-4.46875 6.671876-8.925781l-9.367188-31.75h7.269531c52.59375 0 93.859375-45.117188 89.167969-97.503906l-5.632812-62.804688c4.917968-3.324218 10.925781-5.664062 17.949218-7.082031 6.617188-1.335937 9.628906-9.105469 5.761719-14.640625zm0 0"/></g><path d="m289.949219 108.894531-30.09375-43.097656c-3.167969-4.539063-8.359375-7.246094-13.894531-7.246094-5.53125 0-10.726563 2.707031-13.894532 7.246094l-30.089844 43.097656c-3.28125 4.699219-3.96875 10.683594-1.839843 16.007813 2.125 5.308594 6.734375 9.152344 12.328125 10.289062 5.496094 1.113282 10.191406 2.851563 14.003906 5.175782l4.097656 47.015624c1.445313 16.164063-4.066406 31.453126-15.523437 43.050782-10.050781 10.179687-24.34375 16.019531-39.210938 16.019531-3.609375 0-6.546875-2.9375-6.546875-6.546875v-159.863281c3.097656-1.441407 6.660156-2.574219 10.644532-3.390625 5.636718-1.148438 10.273437-5.015625 12.402343-10.347656 2.121094-5.308594 1.429688-11.273438-1.84375-15.960938l-30.089843-43.097656c-3.167969-4.535156-8.359376-7.246094-13.894532-7.246094-5.53125 0-10.730468 2.710938-13.894531 7.246094l-30.089844 43.097656c-3.273437 4.6875-3.964843 10.652344-1.84375 15.960938 2.128907 5.332031 6.765625 9.199218 12.402344 10.351562 3.984375.8125 7.546875 1.945312 10.644531 3.386719v14.515625c0 4.144531 3.355469 7.5 7.5 7.5 4.144532 0 7.5-3.355469 7.5-7.5v-18.980469c0-2.59375-1.339844-5.003906-3.539062-6.371094-5.328125-3.308593-11.753906-5.75-19.109375-7.25-.933594-.191406-1.320313-.84375-1.46875-1.21875-.175781-.4375-.28125-1.105469.210937-1.808593l30.089844-43.097657c.480469-.6875 1.136719-.832031 1.597656-.832031.464844 0 1.117188.144531 1.597656.832031l30.089844 43.097657c.492188.703124.386719 1.375.210938 1.8125-.148438.371093-.535156 1.023437-1.472656 1.214843-7.351563 1.503907-13.78125 3.941407-19.105469 7.253907-2.199219 1.367187-3.539063 3.773437-3.539063 6.367187v164.328125c0 11.878906 9.667969 21.546875 21.546875 21.546875 18.851563 0 37.035157-7.464844 49.886719-20.480469 14.605469-14.789062 21.632812-34.292968 19.792969-54.90625l-4.40625-50.519531c-.179688-2.09375-1.230469-4.011719-2.894531-5.292969-6.023438-4.636718-13.683594-7.921875-22.761719-9.765625-1.375-.277343-1.957031-1.882812-1.171875-3.007812l30.089844-43.097657c.480468-.6875 1.132812-.832031 1.597656-.832031.460937 0 1.117187.144531 1.597656.832031 30.425781 44.570313 31.132812 42.910157 30.296875 44.980469-.167969.421875-.53125.953125-1.304687 1.109375-8.039063 1.625-14.992188 4.386719-20.664063 8.21875-2.265625 1.527344-3.519531 4.164063-3.273437 6.886719l4.582031 51.09375c.371093 4.125 4.03125 7.175781 8.140625 6.796875 4.125-.367188 7.171875-4.015625 6.800781-8.140625l-4.15625-46.347656c3.316406-1.648438 7.183594-2.925781 11.535156-3.804688 5.5625-1.121093 10.148438-4.945312 12.265625-10.234375 2.136719-5.335937 1.449219-11.335937-1.835937-16.046875zm0 0"/><path d="m266.355469 208.519531c-4.109375-.457031-7.832031 2.484375-8.300781 6.601563-4.71875 41.386718-39.757813 72.59375-81.503907 72.59375h-7.269531c-5.011719 0-8.609375 4.828125-7.191406 9.625l9.160156 31.054687c.101562 0-2.429688 0-49.492188 0l9.160157-31.054687c.667969-2.269532.230469-4.722656-1.1875-6.613282-1.414063-1.894531-3.640625-3.011718-6.007813-3.011718h-7.265625c-41.757812 0-76.796875-31.214844-81.507812-72.609375-.46875-4.113281-4.1875-7.070313-8.300781-6.601563-4.113282.46875-7.070313 4.183594-6.601563 8.296875 5.46875 48.070313 45.488281 84.535157 93.65625 85.878907l-6.539063 22.167968c-1.304687 4.414063-.46875 9.0625 2.289063 12.746094 2.066406 2.765625 4.960937 4.648438 8.21875 5.414062v161.492188c0 4.144531 3.355469 7.5 7.5 7.5s7.5-3.355469 7.5-7.5v-161.105469h27.660156v161.105469c0 4.144531 3.355469 7.5 7.5 7.5s7.5-3.355469 7.5-7.5v-161.492188c3.261719-.769531 6.152344-2.648437 8.222657-5.414062 2.753906-3.6875 3.589843-8.332031 2.285156-12.75l-6.539063-22.167969c48.160157-1.339843 88.175781-37.800781 93.65625-85.855469.46875-4.117187-2.484375-7.832031-6.601562-8.300781zm0 0"/><path d="m20.875 185.304688c-.371094 4.125 2.671875 7.769531 6.800781 8.136718 4.113281.375 7.769531-2.671875 8.136719-6.796875l4.582031-51.066406c.242188-2.71875-1.011719-5.355469-3.273437-6.886719-5.671875-3.832031-12.625-6.59375-20.664063-8.214844-1.324219-.269531-1.871093-1.886718-1.097656-2.996093l30.089844-43.097657c.480469-.6875 1.136719-.832031 1.597656-.832031.464844 0 1.117187.144531 1.597656.832031 30.226563 44.253907 31.121094 42.890626 30.300781 44.945313-.175781.4375-.558593.992187-1.382812 1.160156-9.078125 1.84375-16.734375 5.128907-22.761719 9.765625-1.664062 1.28125-2.714843 3.199219-2.898437 5.292969l-4.398438 50.5c-1.773437 19.847656 4.734375 38.8125 18.324219 53.398437 13.027344 13.984376 31.746094 22.007813 51.351563 22.007813 11.878906 0 21.546874-9.667969 21.546874-21.546875v-115.34375c0-4.144531-3.355468-7.5-7.5-7.5-4.144531 0-7.5 3.355469-7.5 7.5v115.34375c0 3.609375-2.9375 6.546875-6.546874 6.546875-15.457032 0-30.175782-6.28125-40.378907-17.234375-10.648437-11.429688-15.746093-26.285156-14.355469-41.851562l4.097657-47c3.8125-2.324219 8.507812-4.0625 14.003906-5.175782 5.59375-1.136718 10.203125-4.980468 12.328125-10.289062 2.128906-5.324219 1.441406-11.308594-1.839844-16.007813l-30.089844-43.097656c-3.167968-4.539063-8.363281-7.246094-13.898437-7.246094-5.53125 0-10.726563 2.707031-13.894531 7.246094l-30.089844 43.097656c-3.289062 4.710938-3.976562 10.710938-1.835938 16.050781 2.121094 5.285157 6.703126 9.113282 12.265626 10.234376 4.355468.878906 8.21875 2.152343 11.539062 3.800781zm0 0"/></svg>