<svg height="512pt" viewBox="0 -19 512.00017 512" width="512pt" xmlns="http://www.w3.org/2000/svg"><path d="m480.097656 66.550781c-4.371094 30.980469 2.378906 61.957031 4.039063 92.867188.230469 4.15625.351562 8.359375.359375 12.558593.019531 18.6875-2.429688 37.4375-10.21875 54.316407-3.507813 7.578125-8.089844 14.589843-13.488282 20.917969-6.320312 7.410156-13.757812 13.878906-21.917968 19.210937-6.070313 3.96875-19.089844 11.675781-30.539063 15.078125-6.730469-28.179688-20.9375-54.6875-41.195312-75.9375-3.722657-3.898438-7.589844-7.585938-11.589844-11.046875 14.398437-2.25 28.238281-8.238281 39.316406-17.519531 13.210938-11.078125 22.570313-26.675782 26.117188-43.546875 6.972656-33.085938-5.359375-68.675781 18.449219-97.042969 9.390624-11.199219 22.269531-18.660156 35.890624-23.539062 3.71875-1.332032 13.675782-3.421876 23.066407-5.261719 4.769531-.929688 8.019531 4.699219 4.820312 8.339843-11.730469 13.367188-20.578125 32.628907-23.109375 50.605469zm0 0" fill="#ed6161"/><path d="m503.203125 15.945312c3.203125-3.640624-.046875-9.269531-4.816406-8.339843-6.722657 1.316406-13.722657 2.761719-18.527344 3.960937-10.035156 13.035156-17.464844 30.273438-19.746094 46.484375-4.371093 30.980469 2.378907 61.957031 4.039063 92.867188.230468 4.15625.351562 8.359375.359375 12.558593.019531 18.6875-2.429688 37.4375-10.21875 54.316407-3.507813 7.578125-8.089844 14.589843-13.488281 20.917969-6.320313 7.410156-13.757813 13.878906-21.917969 19.210937-3.335938 2.179687-8.78125 5.492187-14.902344 8.597656 1.679687 4.925781 3.140625 9.925781 4.347656 14.980469 11.449219-3.402344 24.46875-11.109375 30.535157-15.078125 8.160156-5.332031 15.601562-11.800781 21.921874-19.210937 5.398438-6.328126 9.976563-13.339844 13.488282-20.917969 7.789062-16.878907 10.238281-35.628907 10.21875-54.316407-.011719-4.199218-.128906-8.402343-.359375-12.558593-1.660157-30.910157-8.410157-61.886719-4.039063-92.867188 2.53125-17.976562 11.378906-37.238281 23.105469-50.605469zm0 0" fill="#ce4545"/><path d="m156.457031 194.515625c-4 3.457031-7.871093 7.148437-11.589843 11.046875-20.257813 21.25-34.46875 47.757812-41.195313 75.9375-11.449219-3.402344-24.472656-11.109375-30.539063-15.082031-8.160156-5.328125-15.601562-11.796875-21.917968-19.207031-5.402344-6.332032-9.980469-13.339844-13.492188-20.917969-7.789062-16.878907-10.238281-35.628907-10.21875-54.320313.011719-4.199218.132813-8.398437.359375-12.558594 1.660157-30.90625 8.410157-61.882812 4.042969-92.863281-2.53125-17.980469-11.378906-37.238281-23.109375-50.605469-3.199219-3.640624.050781-9.269531 4.820313-8.34375 9.386718 1.84375 19.347656 3.933594 23.066406 5.261719 13.621094 4.878907 26.5 12.339844 35.886718 23.539063 23.808594 28.371094 11.480469 63.957031 18.449219 97.046875 3.550781 16.867187 12.910157 32.464843 26.117188 43.546875 11.082031 9.277344 24.921875 15.269531 39.320312 17.519531zm0 0" fill="#ed6161"/><path d="m117.136719 176.996094c-13.207031-11.082032-22.566407-26.679688-26.117188-43.546875-6.96875-33.089844 5.359375-68.679688-18.449219-97.046875-9.390624-11.199219-22.269531-18.65625-35.886718-23.539063-3.71875-1.328125-13.679688-3.417969-23.070313-5.257812-4.769531-.929688-8.019531 4.699219-4.816406 8.339843 3.476563 3.960938 6.6875 8.449219 9.570313 13.261719 1.957031.488281 3.570312.9375 4.648437 1.324219 13.621094 4.878906 26.5 12.339844 35.890625 23.539062 23.808594 28.367188 11.476562 63.957032 18.449219 97.042969 3.546875 16.871094 12.90625 32.46875 26.117187 43.546875 10.21875 8.558594 22.785156 14.308594 35.96875 16.917969 1.761719-2.042969 3.558594-4.058594 5.425782-6.015625 3.71875-3.898438 7.589843-7.589844 11.589843-11.046875-14.398437-2.25-28.238281-8.242187-39.320312-17.519531zm0 0" fill="#ce4545"/><path d="m332.949219 467.3125c-4.246094 0-8.511719-1.464844-11.972657-4.457031-7.664062-6.617188-8.511718-18.195313-1.894531-25.855469 37.28125-43.171875 56.988281-84.140625 56.988281-118.484375 0-67.726563-54.984374-124.949219-120.070312-124.949219s-120.070312 57.222656-120.070312 124.949219c0 34.34375 19.707031 75.3125 56.988281 118.484375 6.617187 7.660156 5.769531 19.234375-1.890625 25.855469-7.660156 6.617187-19.238282 5.769531-25.855469-1.894531-43.730469-50.632813-65.90625-98.558594-65.90625-142.445313 0-41.390625 16.621094-82.554687 45.601563-112.949219 29.921874-31.378906 69.390624-48.660156 111.136718-48.660156 41.742188 0 81.210938 17.28125 111.132813 48.660156 28.980469 30.394532 45.601562 71.558594 45.601562 112.949219 0 43.886719-22.175781 91.8125-65.90625 142.445313-3.625 4.199218-8.742187 6.351562-13.882812 6.351562zm0 0" fill="#6e7093"/><path d="m508.839844 20.894531c3.605468-4.097656 4.175781-9.8125 1.457031-14.554687-2.726563-4.75-7.960937-7.148438-13.351563-6.09375-17.074218 3.34375-21.960937 4.773437-24.15625 5.558594-16.589843 5.945312-29.75 14.617187-39.105468 25.777343-17.257813 20.5625-17.433594 44.054688-17.601563 66.769531v.132813c-.03125 4.140625 3.300781 7.523437 7.441407 7.554687h.058593c4.117188 0 7.46875-3.324218 7.5-7.445312v-.128906c.15625-20.988282.304688-40.808594 14.09375-57.246094 7.628907-9.09375 18.621094-16.261719 32.667969-21.292969 1.542969-.554687 5.515625-1.621093 15.449219-3.65625-10.503907 13.980469-18.234375 32.269531-20.621094 49.234375-3.128906 22.171875-.804687 44.246094 1.441406 65.589844.996094 9.449219 2.023438 19.21875 2.535157 28.734375.054687.960937.101562 1.929687.140624 2.894531-7.28125-2.046875-14.136718-5.359375-20.160156-9.773437-3.34375-2.445313-8.03125-1.722657-10.484375 1.621093-2.445312 3.339844-1.722656 8.03125 1.621094 10.480469 8.613281 6.308594 18.582031 10.800781 29.136719 13.167969-.5625 17.683594-3.664063 32.429688-9.429688 44.921875-2.175781 4.703125-4.84375 9.246094-7.964844 13.570313-7.222656-6.335938-12.894531-14.273438-16.273437-22.886719-1.511719-3.859375-5.863281-5.761719-9.71875-4.246094-3.855469 1.511719-5.753906 5.863281-4.242187 9.71875 4.261718 10.875 11.398437 20.863281 20.464843 28.792969-4.515625 4.460937-9.527343 8.496094-14.972656 12.054687-2.128906 1.390625-11.460937 7.355469-21.28125 11.507813-8.035156-27.679688-22.886719-53.003906-42.675781-73.078125 10.675781-3.445313 20.484375-8.804688 28.875-15.832031 15.363281-12.890626 26.21875-31.171876 29.632812-53.234376.632813-4.09375-2.171875-7.921874-6.265625-8.554687-4.082031-.628906-7.921875 2.171875-8.558593 6.265625-2.84375 18.464844-11.867188 33.480469-24.445313 44.027344-9.0625 7.589844-20.1875 12.832031-32.351563 15.269531-29.042968-24.058594-64.5-37.109375-101.695312-37.109375s-72.648438 13.050781-101.691406 37.109375c-12.164063-2.4375-23.292969-7.679687-32.351563-15.265625-11.992187-10.0625-20.375-24.035156-23.597656-39.347656-2.269531-10.777344-2.351563-21.839844-2.441406-33.554688-.167969-22.714844-.34375-46.203125-17.597657-66.761718-9.359374-11.164063-22.515624-19.835938-39.113281-25.785157-2.191406-.78125-7.078125-2.210937-24.15625-5.554687-5.382812-1.050782-10.617187 1.34375-13.347656 6.09375-2.71875 4.742187-2.144531 10.453125 1.453125 14.550781 10.835938 12.347656 19.003906 30.246094 21.320312 46.707031 2.566407 18.183594 1.09375 36.429688-.636718 53.558594-.417969 4.121094 2.585937 7.800781 6.707031 8.214844 4.136719.421875 7.800781-2.585938 8.214844-6.707032 1.742187-17.253906 3.367187-37.320312.566406-57.160156-2.386719-16.964844-10.117187-35.25-20.621094-49.234375 9.9375 2.035157 13.90625 3.101563 15.445313 3.652344 14.050781 5.035156 25.042968 12.199219 32.671875 21.300781 13.789062 16.429688 13.9375 36.25 14.09375 57.238282.089843 11.9375.183593 24.28125 2.761719 36.53125 3.914062 18.582031 14.082031 35.539062 28.644531 47.75 8.386719 7.027343 18.195312 12.386718 28.867187 15.832031-.054687.054687-.109375.109375-.164062.167969-.109375.113281-.21875.226562-.332032.339843-.421874.433594-.839843.867188-1.257812 1.304688-19.125 20.058593-33.167969 44.558593-40.921875 71.265625-9.820313-4.152344-19.152344-10.117188-21.285156-11.511719-5.441407-3.554687-10.453125-7.59375-14.96875-12.050781 9.066406-7.929688 16.203125-17.921875 20.46875-28.792969 1.511719-3.859375-.390625-8.210937-4.246094-9.71875-3.855469-1.515625-8.207031.386719-9.71875 4.242187-3.378906 8.617188-9.050781 16.554688-16.273437 22.890626-3.121094-4.324219-5.785157-8.867188-7.960938-13.5625-5.769531-12.503907-8.871094-27.253907-9.433594-44.929688 10.554688-2.367188 20.523438-6.859375 29.136719-13.167969 3.34375-2.449219 4.066406-7.140625 1.621094-10.480469-2.449219-3.34375-7.140625-4.066406-10.484375-1.621093-6.023438 4.414062-12.875 7.726562-20.160156 9.773437.148437-3.472656.382812-7.09375.644531-10.496094.320312-4.128906-2.769531-7.734374-6.898438-8.054687-4.117187-.320313-7.738281 2.769531-8.054687 6.902344-2.0625 26.628906-1.207032 54.054687 10.015625 78.367187 3.679687 7.945313 8.523437 15.484375 14.398437 22.410156.125.160157.257813.3125.390625.457032 6.671875 7.777344 14.515625 14.636718 23.320313 20.386718 3.496094 2.289063 14.390625 9.144532 25.902344 13.691407-2.085938 10.582031-3.164063 21.347656-3.164063 32.128906 0 45.734375 22.789063 95.3125 67.726563 147.347656 9.34375 10.816407 25.652343 11.980469 36.4375 2.667969 10.773437-9.3125 11.972656-25.65625 2.664062-36.433594-36.089844-41.789062-55.164062-81.066406-55.164062-113.582031 0-63.664063 51.550781-117.449219 112.570312-117.449219s112.570312 53.785156 112.570312 117.449219c0 32.519531-19.078124 71.792969-55.167968 113.582031-9.304688 10.777344-8.109375 27.121094 2.667968 36.433594 10.75 9.277344 27.070313 8.175781 36.433594-2.667969 44.941406-52.035156 67.726563-101.613281 67.726563-147.347656 0-10.78125-1.078125-21.550781-3.164063-32.128906 11.515625-4.546875 22.40625-11.402344 25.902344-13.6875 8.808594-5.757813 16.660156-12.617188 23.332031-20.398438.128907-.140625.253907-.285156.375-.4375 5.878907-6.933593 10.722657-14.472656 14.40625-22.429687 7.332031-15.882813 10.902344-34.574219 10.910157-57.148438.011718-.222656.011718-.441406 0-.664062-.015626-4.207032-.140626-8.453125-.371094-12.609375-.527344-9.886719-1.578125-19.851563-2.59375-29.488281-2.25-21.382813-4.378906-41.578126-1.507813-61.925782 2.320313-16.460937 10.488281-34.359375 21.320313-46.703125zm-494.410156-9.902343v.003906s0 0 0-.003906zm326.722656 445.070312c-3.902344 4.519531-10.746094 5.027344-15.273438 1.117188-4.519531-3.90625-5.023437-10.757813-1.121094-15.277344 38.476563-44.550782 58.8125-87.21875 58.8125-123.386719 0-71.792969-58.417968-132.445313-127.570312-132.445313-69.148438 0-127.570312 60.652344-127.570312 132.445313 0 36.167969 20.339843 78.835937 58.8125 123.386719 6.300781 7.296875.59375 18.566406-8.988282 17.882812-2.886718-.210937-5.515625-1.535156-7.40625-3.722656-42.523437-49.234375-64.082031-95.511719-64.082031-137.546875 0-11.753906 1.40625-23.488281 4.113281-34.945313.03125-.105468.058594-.21875.085938-.328124 1.515625-6.335938 3.410156-12.558594 5.671875-18.621094.035156-.101563.070312-.195313.109375-.292969.03125-.085937.0625-.171875.097656-.261719 21.835938-57.800781 76.003906-99.660156 139.15625-99.660156 61.414062 0 116.75 40.347656 139.15625 99.65625.035156.09375.070312.1875.105469.277344.03125.085937.0625.175781.097656.261718 2.261719 6.074219 4.160156 12.296876 5.675781 18.640626.027344.109374.058594.222656.085938.328124 2.707031 11.457032 4.113281 23.191407 4.113281 34.945313 0 42.035156-21.558594 88.308594-64.082031 137.546875zm0 0"/></svg>