<svg height="512pt" viewBox="-87 0 512 512.00064" width="512pt" xmlns="http://www.w3.org/2000/svg"><path d="m49.691406 185.265625c-2.101562 9.933594-3.21875 20.285156-3.21875 30.925781 0 14.011719 1.933594 27.527344 5.511719 40.238282h234.894531c3.582032-12.710938 5.511719-26.226563 5.511719-40.238282 0-10.640625-1.117187-20.992187-3.21875-30.925781zm0 0" fill="#363b51"/><path d="m296.351562 504.5h-253.839843c-2.175781 0-3.9375-1.761719-3.9375-3.9375v-56.992188c0-20.789062 12.902343-39.394531 32.371093-46.675781l98.488282-36.855469 98.484375 36.855469c19.46875 7.28125 32.371093 25.886719 32.371093 46.675781v56.992188c0 2.175781-1.761718 3.9375-3.9375 3.9375zm0 0" fill="#6e7093"/><path d="m169.433594 360.039062-51.085938 19.117188v125.34375h102.167969v-125.34375zm0 0" fill="#e6eff5"/><path d="m267.917969 396.894531-98.484375-36.855469v8.28125l76.359375 28.574219c19.472656 7.285157 32.375 25.886719 32.375 46.675781v56.992188c0 2.175781-1.761719 3.9375-3.9375 3.9375h22.121093c2.175782 0 3.9375-1.761719 3.9375-3.9375v-56.992188c0-20.785156-12.902343-39.390624-32.371093-46.675781zm0 0" fill="#4e5173"/><path d="m282.644531 290.191406h-33.867187v-58.929687h33.867187c9.746094 0 17.644531 7.902343 17.644531 17.648437v23.632813c0 9.746093-7.898437 17.648437-17.644531 17.648437zm0 0" fill="#e59f6a"/><path d="m56.21875 290.191406h33.871094v-58.929687h-33.871094c-9.746094 0-17.644531 7.902343-17.644531 17.648437v23.632813c0 9.746093 7.898437 17.648437 17.644531 17.648437zm0 0" fill="#e59f6a"/><path d="m130.390625 324.523438v50.582031c0 21.5625 17.480469 39.042969 39.042969 39.042969s39.042968-17.480469 39.042968-39.042969v-50.582031zm0 0" fill="#f9c295"/><path d="m269.300781 239.207031c0-62.140625-44.714843-112.511719-99.867187-112.511719-55.15625 0-99.867188 50.371094-99.867188 112.511719 0 62.136719 44.710938 112.507813 99.867188 112.507813 55.152344 0 99.867187-50.371094 99.867187-112.507813zm0 0" fill="#f9c295"/><path d="m215.761719 139.519531c21.785156 20.636719 35.632812 51.566407 35.632812 86.140625 0 62.140625-44.710937 112.511719-99.867187 112.511719-16.722656 0-32.480469-4.636719-46.328125-12.820313 17.363281 16.449219 39.769531 26.363282 64.234375 26.363282 55.152344 0 99.867187-50.371094 99.867187-112.507813 0-43.300781-21.714843-80.878906-53.539062-99.6875zm0 0" fill="#e59f6a"/><path d="m7.5 177.515625v15.503906c0 6.570313 5.328125 11.898438 11.898438 11.898438h300.066406c6.574218 0 11.902344-5.328125 11.902344-11.898438v-15.503906c0-6.570313-5.328126-11.898437-11.902344-11.898437h-300.066406c-6.570313 0-11.898438 5.328124-11.898438 11.898437zm0 0" fill="#6e7093"/><path d="m319.464844 165.617188h-22.015625c6.574219 0 11.902343 5.328124 11.902343 11.898437v15.503906c0 6.570313-5.328124 11.898438-11.902343 11.898438h22.015625c6.574218 0 11.902344-5.328125 11.902344-11.898438v-15.503906c0-6.570313-5.328126-11.898437-11.902344-11.898437zm0 0" fill="#4e5173"/><path d="m281.210938 165.617188c-7.195313-46.648438-8.074219-93.296876-2.648438-139.941407 1.171875-10.070312-6.972656-18.792969-17.089844-18.140625-61.359375 3.964844-122.71875 3.964844-184.078125 0-10.117187-.652344-18.265625 8.070313-17.09375 18.140625 5.429688 46.644531 4.546875 93.292969-2.644531 139.941407zm0 0" fill="#6e7093"/><path d="m278.5625 25.671875c1.171875-10.066406-6.972656-18.789063-17.089844-18.136719-5.511718.355469-11.023437.667969-16.539062.960938 6.789062 2.492187 11.417968 9.425781 10.519531 17.175781-5.429687 46.648437-4.546875 93.296875 2.644531 139.941406h23.113282c-7.195313-46.644531-8.074219-93.292969-2.648438-139.941406zm0 0" fill="#4e5173"/><path d="m61.78125 131.53125c-1.003906 11.363281-2.375 22.722656-4.125 34.085938h223.554688c-1.753907-11.363282-3.125-22.722657-4.125-34.085938zm0 0" fill="#ed6161"/><g fill="#ce4545"><path d="m279.960938 157.050781c-.367188-2.664062-.707032-5.324219-1.03125-7.984375-.019532-.167968-.046876-.335937-.066407-.503906-.6875-5.671875-1.277343-11.34375-1.777343-17.015625 0-.003906 0-.011719 0-.015625h-23.117188c1.003906 11.363281 2.375 22.722656 4.125 34.085938h23.117188c-.441407-2.859376-.859376-5.710938-1.25-8.566407zm0 0"/><path d="m175.046875 428.753906 40.519531 24.125c6.339844 3.777344 14.539063 1.695313 18.3125-4.644531l3.390625-5.699219c3.117188-5.234375 2.296875-11.910156-1.988281-16.234375l-4.089844-4.125c-5.160156-5.207031-5.160156-13.597656 0-18.804687l4.089844-4.125c4.285156-4.324219 5.105469-11.003906 1.988281-16.234375l-3.390625-5.699219c-3.777344-6.34375-11.972656-8.421875-18.3125-4.648438l-40.519531 24.128907zm0 0"/><path d="m163.816406 428.753906-40.515625 24.125c-6.339843 3.777344-14.539062 1.695313-18.3125-4.644531l-3.394531-5.699219c-3.113281-5.234375-2.296875-11.910156 1.992188-16.234375l4.085937-4.125c5.160156-5.207031 5.160156-13.597656 0-18.804687l-4.085937-4.125c-4.289063-4.324219-5.105469-11.003906-1.992188-16.234375l3.394531-5.699219c3.773438-6.34375 11.972657-8.421875 18.3125-4.648438l40.515625 24.128907zm0 0"/></g><path d="m169.433594 381.460938c-9.558594 0-17.304688 7.75-17.304688 17.304687v28.015625c0 9.554688 7.746094 17.300781 17.304688 17.300781 9.554687 0 17.300781-7.746093 17.300781-17.300781v-28.015625c0-9.554687-7.746094-17.304687-17.300781-17.304687zm0 0" fill="#ed6161"/><path d="m169.433594 301.917969c-10.542969 13.492187-25.886719 24.164062-42.46875 28.429687-16.582032 4.265625-35.164063 1.675782-48.996094-8.417968s-22.640625-28.226563-19.769531-45.105469c2.445312 8.445312 11.753906 13.5 20.546875 13.5 8.792968-.003907 17.078125-4.019531 24.5625-8.636719s14.621094-9.964844 22.824218-13.136719c13.804688-5.339843 30.753907-3.789062 43.300782 4.066407 12.542968-7.855469 29.496094-9.40625 43.300781-4.066407 8.199219 3.171875 15.339844 8.519531 22.824219 13.136719s15.769531 8.632812 24.5625 8.636719c8.792968 0 18.101562-5.050781 20.546875-13.5 2.871093 16.878906-5.941407 35.011719-19.769531 45.105469-13.832032 10.09375-32.414063 12.683593-48.996094 8.417968-16.582032-4.265625-31.929688-14.9375-42.46875-28.429687zm0 0" fill="#6e7093"/><path d="m319.464844 158.117188h-31.78125c-.632813-4.464844-1.207032-8.953126-1.726563-13.449219-.007812-.082031-.019531-.164063-.027343-.246094-.023438-.210937-.046876-.425781-.074219-.636719-.023438-.230468-.050781-.460937-.074219-.6875-.007812-.0625-.015625-.125-.023438-.1875-4.316406-38.734375-4.234374-77.78125.257813-116.371094.820313-7.054687-1.507813-14.046874-6.386719-19.1875-4.839844-5.09375-11.632812-7.753906-18.640625-7.3007808-60.753906 3.9257808-122.359375 3.9257808-183.109375 0-7.007812-.4570312-13.800781 2.2070308-18.640625 7.3007808-4.878906 5.136719-7.207031 12.132813-6.386719 19.1875 1.011719 8.675782 1.808594 17.46875 2.371094 26.132813.269532 4.132813 3.832032 7.273437 7.972656 6.996094 4.132813-.265625 7.265626-3.835938 6.996094-7.96875-.582031-8.917969-1.398437-17.964844-2.4375-26.894531-.308594-2.625.554688-5.21875 2.359375-7.121094 1.792969-1.886719 4.199219-2.835938 6.796875-2.664063 61.394532 3.964844 123.652344 3.964844 185.046875 0 2.582031-.171875 5.003907.777344 6.796875 2.664063 1.804688 1.902344 2.664063 4.496094 2.359375 7.121094-3.828125 32.902343-4.542969 66.128906-2.148437 99.226562h-199.058594c1.046875-14.347656 1.503906-28.695312 1.375-42.945312-.039062-4.117188-3.386719-7.429688-7.496094-7.429688-.023437 0-.050781 0-.070312 0-4.144532.035156-7.46875 3.425781-7.433594 7.566406.152344 16.714844-.53125 33.570313-2.039062 50.398438-.789063 8.828125-1.816407 17.710937-3.058594 26.492187h-31.78125c-10.699219 0-19.402344 8.703125-19.402344 19.402344v15.5c0 10.699219 8.703125 19.402344 19.402344 19.402344h19.613281c-.027344 1.253906-.042969 2.511719-.042969 3.769531 0 4.632812.203125 9.285156.605469 13.882812-5.210937 4.609376-8.503906 11.347657-8.503906 18.839844v23.628906c0 12.484376 9.140625 22.871094 21.082031 24.820313 3.378906 11.878906 10.886719 22.960937 21.390625 30.625 10.519531 7.679687 23.71875 11.753906 37.335937 11.84375 3.875 2.820313 7.882813 5.347656 12.011719 7.566406v16.90625c-9.054687-2.933593-19.277343.65625-24.355469 9.175781l-3.390624 5.699219c-.164063.273438-.316407.546875-.464844.824219l-26.371094 9.867188c-22.273438 8.339843-37.238281 29.921874-37.238281 53.703124v56.992188c0 6.304688 5.132812 11.4375 11.4375 11.4375h253.839843c6.308594 0 11.441407-5.132812 11.441407-11.4375v-56.992188c0-6.539062-1.105469-12.980468-3.289063-19.144531-1.382812-3.902343-5.671875-5.945312-9.574218-4.5625-3.90625 1.382813-5.949219 5.667969-4.566407 9.574219 1.613281 4.546875 2.429688 9.304688 2.429688 14.132812v53.429688h-20.296875v-22.191406c0-4.140625-3.359375-7.5-7.5-7.5-4.144532 0-7.5 3.359375-7.5 7.5v22.191406h-29.484375v-35.527344c4.984375-1.390625 9.464843-4.621094 12.316406-9.40625l3.390625-5.703125c4.859375-8.167969 3.582031-18.589843-3.113281-25.347656l-4.085938-4.113281c-2.253906-2.273438-2.253906-5.976563-.003906-8.246094l4.101563-4.132812c2.289062-2.316407 3.941406-5.0625 4.933593-7.996094 17.28125 6.847656 22.632813 7.445312 30.175781 13.074218 1.347657 1.003907 2.921876 1.488282 4.480469 1.488282 2.289063 0 4.546875-1.042969 6.019531-3.015625 2.476563-3.320313 1.792969-8.019531-1.527343-10.496094-10.238281-7.636719-17.5625-8.476563-40.515625-17.578125-.148438-.277344-.300782-.550781-.464844-.824219l-3.390625-5.707031c-5.078125-8.511719-15.304687-12.101562-24.355469-9.167969v-16.902343c4.128906-2.222657 8.136719-4.746094 12.011719-7.566407 13.617187-.085937 26.816406-4.167969 37.335937-11.84375 10.503907-7.664062 18.011719-18.746093 21.390626-30.625 11.941406-1.949219 21.082031-12.335937 21.082031-24.820312v-23.628907c0-7.492187-3.289063-14.230468-8.503907-18.839843.402344-4.597657.605469-9.25.605469-13.882813 0-1.257812-.015625-2.515625-.042969-3.769531h19.613282c10.699218 0 19.402344-8.703125 19.402344-19.402344v-15.5c0-10.699219-8.703126-19.402343-19.402344-19.402343zm-49.203125-19.085938c.648437 6.398438 1.429687 12.929688 2.273437 19.085938h-206.207031c.875-6.347657 1.632813-12.714844 2.277344-19.085938zm-216.289063 77.160156c0-1.257812.015625-2.519531.050782-3.773437h10.730468c-.765625 3.746093-1.367187 7.527343-1.808594 11.34375h-6.722656c-.6875 0-1.371094.027343-2.046875.082031-.132812-2.546875-.203125-5.101562-.203125-7.652344zm204.789063-3.773437c1.445312 6.238281 2.382812 12.617187 2.796875 19.074219.003906.160156.015625.316406.027344.472656.144531 2.402344.21875 4.816406.21875 7.238281 0 14.953125-2.683594 29.308594-7.988282 42.757813-5.257812-1.371094-10.253906-4.144532-14.320312-6.65625-1.800782-1.109376-3.566406-2.253907-5.433594-3.464844-5.777344-3.75-11.75-7.625-18.625-10.285156-14.519531-5.617188-32.089844-4.585938-46.003906 2.460937-13.914063-7.046875-31.484375-8.078125-46.003906-2.460937-6.875 2.660156-12.847657 6.535156-18.625 10.285156-1.867188 1.210937-3.632813 2.355468-5.433594 3.464844-4.070313 2.511718-9.0625 5.289062-14.324219 6.65625-5.300781-13.449219-7.984375-27.804688-7.984375-42.757813 0-2.421875.070312-4.835937.21875-7.238281.011719-.152344.023438-.3125.027344-.472656.414062-6.457032 1.347656-12.835938 2.792968-19.074219zm-193.363281 62.320312c-.972657-3.359375-4.140626-5.609375-7.628907-5.402343-3.488281.199218-6.378906 2.785156-6.964843 6.230468-.292969 1.707032-.480469 3.429688-.578126 5.160156-2.515624-1.847656-4.152343-4.828124-4.152343-8.183593v-23.632813c0-5.59375 4.550781-10.148437 10.148437-10.148437h5.839844v.441406c0 13.707031 2.007812 26.980469 5.980469 39.640625-1.242188-1.152344-2.1875-2.53125-2.644531-4.105469zm139.617187 61.394531c-11.1875 5.320313-23.242187 8.078126-35.582031 8.078126-12.34375 0-24.394532-2.757813-35.582032-8.078126-.003906 0-.003906 0-.003906 0 13.113282-4.351562 25.582032-12.351562 35.585938-22.78125 10 10.429688 22.472656 18.429688 35.582031 22.78125zm-93.589844 45.019532c1.65625-2.777344 5.261719-3.695313 8.039063-2.039063l6.925781 4.125c.140625.089844.285156.175781.429687.253907l18.207032 10.839843c-.261719 1.441407-.398438 2.921875-.398438 4.433594v28.015625c0 1.507812.136719 2.988281.394532 4.425781l-25.554688 15.226563c-.636719.378906-1.320312.621094-2.011719.738281-.109375.015625-.214843.03125-.324219.046875-2.21875.25-4.492187-.785156-5.707031-2.824219l-3.386719-5.699219c-1.367187-2.292968-1.007812-5.222656.863282-7.113281l4.097656-4.125c8.019531-8.09375 8.019531-21.269531-.003906-29.371093l-4.082032-4.109376c-1.515624-1.535156-2.042968-3.738281-1.476562-5.738281.027344-.089843.058594-.179687.082031-.273437.128907-.382813.304688-.761719.519531-1.121094zm66.65625 13.007812c.058594.125.125.246094.191407.367188.617187 1.285156.960937 2.722656.960937 4.238281-.308594 28.125.714844 28.730469-.941406 32.210937-.085938.152344-.164063.308594-.234375.460938-1.660156 3.0625-4.902344 5.144531-8.625 5.144531s-6.964844-2.082031-8.625-5.144531c-.070313-.152344-.148438-.308594-.234375-.460938-.605469-1.273437-.945313-2.695312-.945313-4.195312v-28.015625c0-1.515625.347656-2.953125.964844-4.238281.066406-.121094.128906-.246094.191406-.367188 1.648438-3.089844 4.90625-5.195312 8.648438-5.195312 3.738281-.003906 6.996094 2.105468 8.648437 5.195312zm-132.007812 49.410156c0-17.5625 11.050781-33.496093 27.496093-39.65625l19.746094-7.386718c.992188 2.9375 2.652344 5.6875 4.945313 8.007812l4.082031 4.113282c2.253906 2.277343 2.253906 5.980468.007812 8.25l-4.097656 4.125c-6.6875 6.75-7.964844 17.171874-3.109375 25.339843l3.394531 5.710938c2.851563 4.78125 7.332032 8.007812 12.3125 9.402343v35.523438h-29.480468v-22.191406c0-4.140625-3.359375-7.5-7.5-7.5-4.144532 0-7.5 3.359375-7.5 7.5v22.191406h-20.296875zm79.777343 53.429688v-36.96875c.4375-.21875.867188-.453125 1.289063-.707031l24.925781-14.851563c4.476563 4.394532 10.609375 7.109375 17.367188 7.109375 6.753906 0 12.886718-2.714843 17.363281-7.109375l24.933594 14.855469c.421875.25.851562.484375 1.28125.703125v36.96875zm101.585938-115.855469 3.390625 5.699219c.214844.363281.382813.738281.515625 1.125.027344.09375.054688.183594.085938.273438.566406 2 .039062 4.199218-1.46875 5.722656l-4.097657 4.128906c-8.019531 8.097656-8.019531 21.269531.007813 29.371094l4.085937 4.113281c1.875 1.898437 2.234375 4.824219.871094 7.121094l-3.386719 5.691406c-1.214844 2.035156-3.476562 3.074219-5.691406 2.832031-.117188-.019531-.238281-.035156-.359375-.050781-.683594-.117187-1.355469-.359375-1.988281-.734375l-25.5625-15.230469c.691406-3.816406.273437-4.089843.398437-32.441406 0-1.511719-.136719-2.992187-.398437-4.429687l18.199218-10.835938c.152344-.085938.300782-.175781.445313-.265625l6.921875-4.121094c2.769531-1.65625 6.378906-.742187 8.03125 2.03125zm-26.464844-8.515625-14.175781 8.441406c-4.476563-4.394531-10.609375-7.109374-17.363281-7.109374s-12.886719 2.714843-17.367188 7.109374l-14.175781-8.441406v-18.667968c10.128906 3.46875 20.734375 5.25 31.542969 5.25 10.804687 0 21.410156-1.78125 31.539062-5.25zm55.503906-56.757812c-8.398437 6.128906-19.128906 9.222656-30.203124 8.957031-.324219-.035156-.648438-.042969-.976563-.035156-3.835937-.160157-7.707031-.726563-11.527344-1.707031-14.542969-3.742188-28.546875-13.140626-38.425781-25.785157-1.421875-1.820312-3.601562-2.882812-5.910156-2.882812s-4.488282 1.0625-5.910156 2.882812c-9.878907 12.644531-23.886719 22.042969-38.425782 25.785157-3.824218.984374-7.691406 1.546874-11.527344 1.707031-.328124-.007813-.65625.003906-.980468.035156-11.070313.269531-21.800782-2.828125-30.199219-8.957031-6.957031-5.078125-12.195313-12.335938-14.976563-20.121094 3.386719 1.308594 7.191407 2.074219 11.332032 2.074219 11.25-.003907 21.140625-5.214844 28.5-9.753907 1.945312-1.199218 3.863281-2.445312 5.722656-3.648437 5.371094-3.484375 10.445312-6.777344 15.871094-8.875 11.691406-4.523437 26.0625-3.175781 36.613281 3.429687 2.433594 1.523438 5.523437 1.523438 7.960937 0 10.550782-6.605468 24.921876-7.953124 36.613282-3.429687 5.425781 2.097656 10.5 5.390625 15.871094 8.875 1.855468 1.203125 3.773437 2.449219 5.722656 3.648437 7.359375 4.542969 17.25 9.75 28.5 9.753907 4.144531 0 7.945312-.765625 11.335937-2.074219-2.785156 7.785156-8.023437 15.042969-14.980469 20.121094zm36.316407-43.332032c0 3.359376-1.636719 6.335938-4.15625 8.1875-.09375-1.730468-.285157-3.453124-.574219-5.160156-.585938-3.445312-3.476562-6.03125-6.96875-6.230468-3.492188-.203126-6.65625 2.042968-7.628906 5.398437-.457032 1.578125-1.398438 2.957031-2.644532 4.105469 3.976563-12.65625 5.980469-25.933594 5.980469-39.640625 0-.144531 0-.292969 0-.4375h5.839844c5.597656 0 10.152344 4.550781 10.152344 10.148437zm-7.902344-56.347656c0 2.550782-.066406 5.105469-.203125 7.652344-.675781-.054688-1.355469-.082031-2.046875-.082031h-6.722656c-.4375-3.816407-1.039063-7.601563-1.804688-11.34375h10.730469c.03125 1.253906.046875 2.515625.046875 3.773437zm38.976563-23.171875c0 2.425781-1.976563 4.398438-4.402344 4.398438h-300.066406c-2.425782 0-4.398438-1.972657-4.398438-4.398438v-15.503906c0-2.425781 1.972656-4.398437 4.398438-4.398437h300.066406c2.425781 0 4.398437 1.972656 4.398437 4.398437v15.503906zm0 0"/><path d="m169.433594 456.070312c-4.144532 0-7.5 3.355469-7.5 7.5v1.957032c0 4.140625 3.355468 7.5 7.5 7.5 4.140625 0 7.5-3.359375 7.5-7.5v-1.957032c0-4.144531-3.359375-7.5-7.5-7.5zm0 0"/><path d="m169.433594 478.246094c-4.144532 0-7.5 3.359375-7.5 7.5v1.957031c0 4.144531 3.355468 7.5 7.5 7.5 4.140625 0 7.5-3.355469 7.5-7.5v-1.957031c0-4.140625-3.359375-7.5-7.5-7.5zm0 0"/><path d="m223.097656 241.167969c-4.140625 0-7.5-3.359375-7.5-7.5v-1c0-4.140625 3.359375-7.5 7.5-7.5 4.144532 0 7.5 3.359375 7.5 7.5v1c0 4.140625-3.355468 7.5-7.5 7.5zm0 0"/><path d="m115.765625 241.167969c-4.140625 0-7.5-3.359375-7.5-7.5v-1c0-4.140625 3.359375-7.5 7.5-7.5 4.144531 0 7.5 3.359375 7.5 7.5v1c0 4.140625-3.355469 7.5-7.5 7.5zm0 0"/></svg>