<svg height="511pt" viewBox="-64 1 511 511.999" width="511pt" xmlns="http://www.w3.org/2000/svg"><path d="m255.621094 161.949219c-15.425782 42.683593 17.425781 88.554687 84.738281 96.3125 7.910156.914062 10.527344-105.835938-84.738281-96.3125zm0 0" fill="#ce4545"/><path d="m247.917969 145.175781c24.949219-37.910156 81.363281-39.066406 127.878906 10.203125 5.46875 5.785156-78.460937 71.800782-127.878906-10.203125zm0 0" fill="#ed6161"/><path d="m28.066406 157.78125v75.71875h249.707032v-75.71875c0-18.617188-15.09375-33.707031-33.710938-33.707031h-182.285156c-18.617188 0-33.710938 15.089843-33.710938 33.707031zm0 0" fill="#6e7093"/><path d="m280.707031 504.5h-255.574219c-2.1875 0-3.964843-1.773438-3.964843-3.964844v-78.070312c0-20.929688 12.992187-39.660156 32.59375-46.996094l99.160156-37.105469 99.160156 37.105469c19.601563 7.335938 32.59375 26.066406 32.59375 46.996094v78.070312c-.003906 2.191406-1.777343 3.964844-3.96875 3.964844zm0 0" fill="#e6eff5"/><path d="m252.078125 375.46875-99.15625-37.105469v8.335938l76.882813 28.769531c19.601562 7.335938 32.59375 26.066406 32.59375 46.996094v78.070312c0 2.191406-1.773438 3.964844-3.964844 3.964844h22.277344c2.1875 0 3.960937-1.773438 3.960937-3.964844v-78.070312c0-20.929688-12.992187-39.660156-32.59375-46.996094zm0 0" fill="#c5d3d6"/><path d="m21.167969 422.464844v44.902344h263.503906v-44.902344c0-3.890625-.449219-7.707032-1.308594-11.390625h-260.886719c-.855468 3.683593-1.308593 7.5-1.308593 11.390625zm0 0" fill="#ed6161"/><path d="m283.964844 414.117188c-.027344-.179688-.058594-.355469-.089844-.53125-.152344-.84375-.320312-1.679688-.511719-2.507813h-22.273437c.855468 3.679687 1.308594 7.496094 1.308594 11.390625v44.898438h22.273437v-44.898438c0-.871094-.03125-1.734375-.074219-2.597656-.011718-.207032-.023437-.417969-.035156-.625-.113281-1.730469-.3125-3.441406-.597656-5.128906zm0 0" fill="#ce4545"/><path d="m269.410156 264.585938h-35.734375v-62.171876h35.734375c10.28125 0 18.617188 8.335938 18.617188 18.617188v24.9375c0 10.28125-8.335938 18.617188-18.617188 18.617188zm0 0" fill="#e59f6a"/><path d="m36.429688 264.585938h35.734374v-62.171876h-35.734374c-10.28125 0-18.617188 8.335938-18.617188 18.617188v24.9375c0 10.28125 8.335938 18.617188 18.617188 18.617188zm0 0" fill="#e59f6a"/><path d="m113.609375 295.710938v57.820312c0 21.710938 17.601563 39.308594 39.3125 39.308594 21.707031 0 39.308594-17.597656 39.308594-39.308594v-57.820312zm0 0" fill="#f9c295"/><path d="m258.285156 209.808594c0-65.558594-47.171875-118.707032-105.363281-118.707032s-105.367187 53.148438-105.367187 118.707032 47.175781 118.703125 105.367187 118.703125 105.363281-53.144531 105.363281-118.703125zm0 0" fill="#f9c295"/><path d="m201.800781 104.632812c22.984375 21.773438 37.59375 54.40625 37.59375 90.886719 0 65.558594-47.171875 118.703125-105.363281 118.703125-17.644531 0-34.269531-4.890625-48.882812-13.527344 18.320312 17.359376 41.960937 27.820313 67.769531 27.820313 58.195312 0 105.367187-53.148437 105.367187-118.707031 0-45.683594-22.90625-85.332032-56.484375-105.175782zm0 0" fill="#e59f6a"/><path d="m293.929688 141.476562c-12.125-20.351562-6.046876-133.976562-141.007813-133.976562-134.964844 0-128.886719 113.625-141.011719 133.976562-12.128906 20.355469 6.765625 37.507813 16.785156 27.257813 21.632813-22.125 61.292969-40.21875 124.222657-40.21875 62.933593 0 102.589843 18.09375 124.222656 40.21875 10.023437 10.25 28.917969-6.902344 16.789063-27.257813zm0 0" fill="#ed6161"/><path d="m293.929688 141.476562c-12.125-20.351562-6.046876-133.976562-141.007813-133.976562-2.289063 0-4.527344.039062-6.734375.101562 116.652344 3.730469 111.488281 113.867188 122.351562 133.875 4.382813 8.070313 4.3125 15.625 2.074219 21.179688 2.335938 1.984375 4.511719 4.011719 6.53125 6.078125 10.019531 10.25 28.914063-6.902344 16.785157-27.257813zm0 0" fill="#ce4545"/><path d="m208.582031 295.507812c-14.285156 9.996094-29.554687.203126-55.660156.203126-26.109375 0-41.378906 9.792968-55.660156-.203126-14.285157-9.996093-34.972657-41.722656-49.058594-72.476562 0 0 6.394531 96.15625 25.207031 108.789062 18.8125 12.632813 26.964844-13.015624 36.734375 10.625 9.773438 23.644532 34.097657 25.613282 42.777344 25.613282s33-1.96875 42.773437-25.613282c9.773438-23.640624 17.921876 2.007813 36.734376-10.625 18.8125-12.632812 25.207031-108.789062 25.207031-108.789062-14.085938 30.75-34.773438 62.480469-49.054688 72.476562zm0 0" fill="#6e7093"/><path d="m228.636719 273.601562c-3.507813 25.347657-9.050781 51.976563-17.285157 58.21875-.460937.351563-.914062.667969-1.363281.960938 5.746094 1.820312 12.648438 5.613281 22.441407-.960938 18.8125-12.632812 25.207031-108.789062 25.207031-108.789062-8.269531 18.054688-18.8125 36.4375-29 50.570312zm0 0" fill="#4e5173"/><path d="m178.820312 342.445312c-7.027343 19.199219-22.550781 24.105469-32.253906 25.273438 2.539063.269531 4.722656.339844 6.355469.339844 8.675781 0 33-1.96875 42.773437-25.613282 1.3125-3.175781 2.59375-5.453124 3.878907-7.0625-8.9375-1.28125-14.46875-10.109374-20.753907 7.0625zm0 0" fill="#4e5173"/><path d="m116.679688 235.746094-3.40625.601562c-16.964844 2.992188-33.144532-8.339844-36.136719-25.304687l-2.296875-13.019531c-1.078125-6.121094 3.007812-11.953126 9.125-13.035157l42.691406-7.527343c6.117188-1.078126 11.953125 3.007812 13.03125 9.128906l2.296875 13.015625c2.992187 16.96875-8.335937 33.148437-25.304687 36.140625zm0 0" fill="#6e7093"/><path d="m381.25 150.230469c-26.886719-28.480469-58.621094-42.742188-88.167969-39.914063-4.601562-19.164062-12.039062-44.15625-29.234375-65.441406-24.050781-29.777344-61.375-44.875-110.925781-44.875-35.027344 0-64.109375 7.5625-86.433594 22.476562-3.441406 2.300782-4.371093 6.957032-2.070312 10.402344 2.300781 3.441406 6.960937 4.371094 10.40625 2.070313 19.8125-13.238281 46.089843-19.949219 78.097656-19.949219 45.429687 0 77.894531 12.855469 99.257813 39.300781 17.882812 22.140625 23.945312 48.890625 28.375 68.421875 2.328124 10.269532 4.011718 17.6875 6.9375 22.59375 5.578124 9.363282 1.871093 15.824219-.871094 17.929688-1.984375 1.527344-3.140625 1.0625-3.75.578125-.082032-.074219-.164063-.148438-.246094-.21875-.042969-.042969-.082031-.082031-.117188-.117188-18.949218-19.375-56.808593-42.472656-129.585937-42.472656-72.773437 0-110.636719 23.097656-129.585937 42.472656-.035157.039063-.078126.078125-.121094.125-.082032.066407-.160156.132813-.234375.203125-.609375.484375-1.765625.964844-3.757813-.570312-2.742187-2.109375-6.449218-8.566406-.871094-17.929688 2.925782-4.90625 4.605469-12.324218 6.933594-22.59375 4.585938-20.214844 10.863282-47.902344 30.003906-70.382812 2.683594-3.152344 2.304688-7.886719-.847656-10.570313-3.152344-2.6875-7.886718-2.308593-10.574218.847657-21.53125 25.289062-28.558594 56.28125-33.210938 76.789062-1.789062 7.902344-3.484375 15.367188-5.191406 18.230469-9.105469 15.285156-4.574219 30.433593 4.609375 37.496093 3.25 2.5 6.886719 3.855469 10.492187 4.089844v21.070313c-6.226562 4.777343-10.25 12.296875-10.25 20.734375v24.941406c0 14.394531 11.714844 26.109375 26.109375 26.109375h9.648438c.089843.582031.175781 1.167969.265625 1.75 7.53125 48.839844 16.671875 60.039063 22.890625 64.21875 11.71875 7.867187 21.253906 4.53125 26.953125 2.539063 1.1875-.414063 2.929687-1.023438 3.703125-1.101563.394531.355469 1.625 1.699219 3.328125 5.824219.445312 1.074218.914062 2.113281 1.40625 3.113281l-37.351563 13.984375c-3.878906 1.449219-5.847656 5.773438-4.394531 9.652344 1.125 3.011718 3.984375 4.871094 7.023438 4.871094.875 0 1.761718-.152344 2.628906-.476563l34.644531-12.96875c4.578125 21.042969 23.347656 36.855469 45.746094 36.855469 12.492187 0 24.25-4.867188 33.105469-13.710938 6.4375-6.449218 10.769531-14.441406 12.644531-23.136718l50.78125 19.003906c10.332031 3.859375 18.550781 11.550781 23.277343 21.078125h-239.644531c3.113281-6.300781 7.769531-11.828125 13.667969-15.984375 3.382812-2.386719 4.195312-7.066406 1.804688-10.453125-2.386719-3.386719-7.066407-4.195313-10.449219-1.808594-11.585938 8.167969-19.636719 20.257813-22.863281 33.773437-.046876.171876-.089844.347657-.125.527344-.953126 4.171875-1.449219 8.476563-1.449219 12.839844v78.070312c0 6.320313 5.144531 11.460938 11.46875 11.460938h255.570312c6.324219 0 11.46875-5.140625 11.46875-11.460938v-78.070312c0-4.289062-.480469-8.511719-1.40625-12.59375-.058593-.359375-.140625-.710938-.25-1.050781-4.484375-18.238281-17.765625-33.632813-35.8125-40.378907l-53.488281-20.015624c.492188-1.003907.964844-2.042969 1.410156-3.121094 1.703125-4.125 2.933594-5.46875 3.328125-5.824219.773438.078125 2.515625.6875 3.703125 1.101563 5.699219 1.992187 15.234375 5.328124 26.953125-2.539063 6.21875-4.175781 15.359375-15.378906 22.890625-64.214844.089844-.585937.175782-1.171875.265625-1.753906h9.648438c11.859375 0 21.898437-7.949219 25.070312-18.800781 13.21875 6.335937 28.304688 10.507812 45 12.429687.335938.039063.667969.058594 1 .058594 2.625 0 5.078125-1.21875 6.84375-3.441406 6.207031-7.792969 5.15625-33.683594-2.199219-54.324219-1.390624-3.902344-5.683593-5.9375-9.585937-4.546875-3.902344 1.394531-5.9375 5.683594-4.542969 9.585937 5.601563 15.71875 5.828125 30.355469 4.980469 37.078126-15.28125-2.289063-28.851563-6.707032-40.457031-13.179688v-15.90625c0-8.441406-4.023438-15.960938-10.25-20.738281v-11.703125c8.847656 3.398437 17.832031 4.824218 26.585937 4.824218 31.027344-.003906 59.171875-17.902343 68.25-29.195312 5.957031-7.40625 2.777344-12.25 1.136719-13.988281zm-304.074219 324.636719h151.488281v22.132812h-151.488281zm166.492188 22.132812v-40.128906c0-4.140625-3.359375-7.5-7.5-7.5-4.144531 0-7.5 3.359375-7.5 7.5v2.996094h-151.492188v-2.996094c0-4.140625-3.355469-7.5-7.5-7.5-4.140625 0-7.5 3.359375-7.5 7.5v40.128906h-33.507812v-22.132812h11.007812c4.144531 0 7.5-3.359376 7.5-7.5 0-4.140626-3.355469-7.5-7.5-7.5h-11.007812v-37.398438c0-1.304688.058593-2.605469.175781-3.894531h248.152344c.117187 1.289062.179687 2.585937.179687 3.894531v37.398438h-11.011719c-4.140624 0-7.5 3.359374-7.5 7.5 0 4.140624 3.359376 7.5 7.5 7.5h11.011719v22.132812zm-39.386719-207.636719c-6.207031 4.339844-12.511719 3.542969-25.058594 1.480469-7.5-1.234375-16.003906-2.632812-26.300781-2.632812s-18.800781 1.398437-26.300781 2.632812c-12.546875 2.0625-18.851563 2.863281-25.058594-1.480469-12.203125-8.539062-31.867188-37.765625-46.007812-68.300781-.328126-3.710938-.496094-7.492188-.496094-11.25 0-.949219.011718-1.894531.03125-2.835938 4.453125.898438 9.339844 1.324219 13.976562 1.480469l.6875 3.886719c3.304688 18.75 19.671875 31.980469 38.089844 31.980469 28.839844 0 45.542969-23.277344 41.53125-46.019531l-.410156-2.339844c29.335937-8.550782 59.875-20.988282 90.980468-37.054688 6.144532 13.511719 9.757813 28.300782 10.632813 43.582032.003906.222656.015625.441406.035156.660156.117188 2.210937.175781 4.429687.175781 6.660156 0 3.753906-.167968 7.535156-.5 11.25-14.140624 30.535156-33.804687 59.761719-46.007812 68.300781zm-122.054688-92.644531c-.355468-2.035156 1.007813-3.984375 3.042969-4.34375l42.691407-7.527344c.21875-.039062.4375-.058594.652343-.058594 1.785157 0 3.375 1.28125 3.691407 3.101563 1.207031 6.855469-.652344-3.707031 2.296874 13.015625 2.269532 12.871094-6.355468 25.183594-19.222656 27.453125-1.148437.203125-3.550781.625-3.40625.601563-12.863281 2.269531-25.179687-6.355469-27.449218-19.222657-.019532-.101562-1.804688-10.257812-1.828126-10.363281zm146.601563-48.972656c-28.382813 14.378906-56.203125 25.613281-82.945313 33.488281-3.324218-7.867187-11.761718-12.699219-20.527343-11.160156l-42.691407 7.527343c-8.15625 1.441407-14.15625 7.980469-15.296874 15.761719-4.941407-.277343-8.5625-.859375-11.039063-1.480469 2.101563-14.722656 6.789063-28.800781 13.871094-41.488281 22.535156-9.402343 50.6875-14.378906 82.722656-14.378906 28.878906 0 54.609375 4.046875 75.90625 11.730469zm-193.261719 24.730468c3.851563-3.75 8.148438-7.230468 12.851563-10.433593-3.835938 10.496093-6.386719 21.539062-7.582031 32.867187h-4.410157c-.289062 0-.574219.003906-.859375.015625zm.859375 84.601563c-6.125 0-11.109375-4.980469-11.109375-11.109375v-24.9375c0-4.273438 2.417969-7.988281 5.957032-9.847656.117187-.058594.238281-.117188.355468-.179688 1.453125-.703125 3.078125-1.09375 4.796875-1.09375h3.632813c0 4.566406.226562 9.15625.664062 13.65625.074219 1.101563 1.050782 15.363282 3.300782 33.511719zm116.492188 128.261719c-11.773438 0-22.070313-6.425782-27.570313-15.953125 10.5 5.289062 21.445313 6.171875 27.574219 6.171875 6.132813 0 17.089844-.886719 27.59375-6.183594-1.382813 2.398438-3.089844 4.636719-5.097656 6.648438-6.019531 6.007812-14.007813 9.316406-22.5 9.316406zm75.332031-59.746094c-5.488281 3.683594-8.730469 2.550781-13.636719.835938-8.628906-3.019532-18.453125-4.742188-25.847656 13.148437-3.242187 7.835937-12.203125 20.980469-35.84375 20.980469-23.644531 0-32.605469-13.144532-35.84375-20.980469-4.871094-11.78125-10.796875-15.058594-16.742187-15.058594-3.078126 0-6.164063.878907-9.105469 1.910157-4.910157 1.714843-8.148438 2.847656-13.636719-.835938-1.507812-1.011719-9.375-8.363281-16.414062-53.957031-.40625-2.617188-.785157-5.21875-1.140626-7.785157-.019531-.207031-.046874-.414062-.085937-.617187-.125-.933594-.253906-1.863281-.375-2.785156 10.769531 17.777343 22.894531 33.867187 33.382813 41.203125 11.488281 8.039062 23.4375 6.074218 36.089843 3.992187 6.9375-1.140625 14.796875-2.433593 23.867188-2.433593 9.074219 0 16.933593 1.292968 23.867187 2.433593 12.65625 2.082031 24.605469 4.046875 36.09375-3.992187 10.484375-7.335938 22.613282-23.429688 33.382813-41.203125-.125.925781-.25 1.859375-.378907 2.800781-.035156.191406-.0625.390625-.082031.589844-.351562 2.539062-.726562 5.117187-1.125 7.707031-7.042969 45.671875-14.917969 53.035156-16.425781 54.046875zm41.167969-68.515625h-7.597657c2.246094-18.125 3.222657-32.375 3.300782-33.507813.4375-4.503906.664062-9.097656.664062-13.660156h3.632813c1.714843 0 3.34375.390625 4.796875 1.09375.117187.0625.234375.121094.355468.179688 3.535157 1.859375 5.957032 5.578125 5.957032 9.847656v20.089844c-.003906.074218-.003906.152344 0 .226562v4.625c0 6.125-4.984375 11.105469-11.109375 11.105469zm0-62.167969h-4.410157c-1.195312-11.328125-3.742187-22.371094-7.582031-32.863281 4.703125 3.199219 9 6.679687 12.851563 10.429687v4.035157c-.003906.0625-.003906.121093 0 .183593v18.230469c-.285156-.011719-.574219-.015625-.859375-.015625zm61.835937-19.15625c-13.148437 3.585938-25.425781 3.652344-36.65625.222656.394532-.265624.785156-.542968 1.171875-.839843 9.183594-7.066407 13.710938-22.214844 4.605469-37.496094-1.285156-2.160156-2.5625-6.925781-3.878906-12.527344 22.859375-1.332031 48.304687 10.085938 70.171875 31.65625-5.160157 5.011719-18.089844 14.253907-35.414063 18.984375zm0 0"/><path d="m202.347656 216.070312c-4.140625 0-7.5-3.355468-7.5-7.5v-2c0-4.140624 3.359375-7.5 7.5-7.5 4.144532 0 7.5 3.359376 7.5 7.5v2c0 4.144532-3.355468 7.5-7.5 7.5zm0 0"/><path d="m152.921875 282.25c-14.203125 0-27.101563-7.246094-34.503906-19.386719-2.15625-3.539062-1.039063-8.152343 2.5-10.308593 3.535156-2.15625 8.148437-1.039063 10.304687 2.5 4.65625 7.636718 12.769532 12.195312 21.699219 12.195312 8.933594 0 17.042969-4.558594 21.691406-12.191406 2.152344-3.539063 6.769531-4.660156 10.304688-2.507813 3.539062 2.15625 4.660156 6.769531 2.507812 10.308594-7.390625 12.140625-20.289062 19.390625-34.503906 19.390625zm0 0"/></svg>