<svg height="512pt" viewBox="-85 0 512 512.002" width="512pt" xmlns="http://www.w3.org/2000/svg"><path d="m316.921875 177.734375c-18.355469-16.84375-29.359375-40.488281-29.359375-65.710937v-2.40625c0-65.824219-52.1875-102.117188-116.5625-102.117188-64.378906 0-116.5625 36.292969-116.5625 102.117188v2.40625c0 25.222656-11.003906 48.867187-29.359375 65.710937-10.789063 9.90625-17.578125 24.273437-17.578125 40.265625 0 23.96875 20.445312 35.527344 36.363281 51.394531 20.050781 19.988281 35.222657 59.765625 52.703125 81.339844l-33.964844 12.710937c-21.429687 8.019532-35.632812 28.496094-35.632812 51.375v85.34375c0 2.394532 1.941406 4.335938 4.335938 4.335938h279.386718c2.394532 0 4.335938-1.941406 4.335938-4.335938v-85.34375c0-22.878906-14.203125-43.355468-35.632813-51.375l-33.964843-12.710937c17.480468-21.574219 32.652343-61.351563 52.703124-81.339844 15.917969-15.867187 36.363282-27.425781 36.363282-51.394531 0-15.992188-6.785156-30.359375-17.574219-40.265625zm0 0" fill="#6e7093"/><path d="m316.921875 177.734375c-18.355469-16.84375-29.359375-40.488281-29.359375-65.710937v-2.40625c0-65.824219-52.1875-102.117188-116.5625-102.117188-13.257812 0-25.992188 1.542969-37.867188 4.5625 4.46875-.371094 9.007813-.5625 13.617188-.5625 64.375 0 116.5625 36.292969 116.5625 102.117188v2.40625c0 25.222656 11 48.867187 29.359375 65.710937 10.789063 9.90625 17.574219 24.273437 17.574219 40.265625 0 23.96875-20.441406 35.527344-36.359375 51.394531-19.101563 19.039063-33.773438 56.035157-50.234375 78.152344-1.195313 1.609375-.539063 3.914063 1.34375 4.617187l30.152344 11.28125c21.425781 8.019532 35.628906 28.496094 35.628906 51.375v85.34375c0 .117188-.023438.222657-.035156.335938h19.953124c2.390626 0 4.332032-1.941406 4.332032-4.335938v-85.34375c0-22.878906-14.203125-43.355468-35.632813-51.375l-33.964843-12.710937c17.480468-21.574219 32.652343-61.351563 52.707031-81.339844 15.917969-15.867187 36.359375-27.425781 36.359375-51.394531 0-15.992188-6.785156-30.359375-17.574219-40.265625zm0 0" fill="#4e5173"/><path d="m264.3125 206.351562h-1.671875c-1.839844 0-3.332031-1.492187-3.332031-3.332031v-57.710937c0-48.773438-39.535156-88.3125-88.308594-88.3125s-88.308594 39.539062-88.308594 88.3125v57.710937c0 1.839844-1.492187 3.332031-3.332031 3.332031h-1.671875c-9.789062 0-17.722656 7.933594-17.722656 17.722657 0 9.785156 7.933594 17.722656 17.722656 17.722656h14.566406c18.273438 0 33.089844 14.8125 33.089844 33.085937v24.816407c0 25.214843 20.441406 45.65625 45.65625 45.65625 25.21875 0 45.660156-20.441407 45.660156-45.65625v-24.816407c0-18.273437 14.8125-33.085937 33.085938-33.085937h14.570312c9.785156 0 17.722656-7.9375 17.722656-17.722656-.003906-9.789063-7.9375-17.722657-17.726562-17.722657zm0 0" fill="#e6eff5"/><g fill="#363b51"><path d="m170.441406 314.460938c-9.34375 0-16.917968-7.574219-16.917968-16.917969v-43.5c0-9.34375 7.574218-16.914063 16.917968-16.914063 9.339844 0 16.914063 7.570313 16.914063 16.914063v43.5c0 9.34375-7.574219 16.917969-16.914063 16.917969zm0 0"/><path d="m216.546875 194.992188c-2.292969-.480469-4.480469-1.589844-6.292969-3.335938-11.121094-10.707031-18.039062-24.648438-18.980468-38.253906-.492188-7.117188 4.878906-13.285156 11.996093-13.773438 7.117188-.492187 13.28125 4.878906 13.773438 11.992188.238281 3.453125 1.800781 12.449218 11.128906 21.429687 5.136719 4.945313 5.292969 13.125.34375 18.261719-3.203125 3.328125-7.757813 4.566406-11.96875 3.679688zm0 0"/><path d="m125.453125 194.992188c2.289063-.480469 4.480469-1.589844 6.289063-3.335938 11.125-10.707031 18.042968-24.648438 18.980468-38.253906.492188-7.117188-4.878906-13.285156-11.992187-13.773438-7.117188-.492187-13.285157 4.878906-13.777344 11.992188-.238281 3.453125-1.800781 12.449218-11.125 21.429687-5.140625 4.945313-5.292969 13.125-.347656 18.261719 3.203125 3.328125 7.761719 4.566406 11.972656 3.679688zm0 0"/></g><path d="m309.28125 389.257812c-3.894531 1.398438-5.925781 5.691407-4.527344 9.589844 1.839844 5.132813 2.773438 10.507813 2.773438 15.976563v82.175781h-38.027344v-44.5625c0-4.144531-3.355469-7.5-7.5-7.5s-7.5 3.355469-7.5 7.5v44.5625h-167.003906v-44.5625c0-4.144531-3.355469-7.5-7.5-7.5-4.140625 0-7.5 3.355469-7.5 7.5v44.5625h-38.023438v-82.175781c0-19.644531 12.359375-37.46875 30.757813-44.351563l29.066406-10.878906c.421875.457031.847656.902344 1.277344 1.34375 12.230469 12.5 25.066406 21.949219 38.148437 28.078125 1.027344.484375 2.109375.710937 3.175782.710937 2.820312 0 5.523437-1.597656 6.796874-4.316406 1.757813-3.753906.144532-8.21875-3.609374-9.976562-13.625-6.386719-29.054688-18.761719-37.691407-29.417969-7.265625-8.96875-14.214843-21.449219-21.574219-34.65625-9.667968-17.367187-19.667968-35.320313-31.664062-47.277344-3.566406-3.554687-7.308594-6.867187-10.929688-10.070312-12.460937-11.027344-23.226562-20.550781-23.226562-36.007813 0-13.242187 5.523438-25.90625 15.148438-34.742187 20.203124-18.539063 31.789062-44.503907 31.789062-71.234375v-2.40625c0-11.53125 1.722656-22.390625 5.117188-32.273438 1.347656-3.917968-.738282-8.183594-4.65625-9.53125-3.914063-1.34375-8.183594.738282-9.527344 4.65625-3.9375 11.457032-5.933594 23.953125-5.933594 37.148438v2.40625c0 22.539062-9.816406 44.476562-26.929688 60.183594-12.714843 11.671874-20.007812 28.359374-20.007812 45.792968 0 22.214844 14.382812 34.9375 28.289062 47.242188 3.453126 3.058594 7.027344 6.222656 10.28125 9.460937 10.5 10.46875 19.980469 27.488281 29.148438 43.949219 1.53125 2.753906 3.050781 5.476562 4.558594 8.152344.046875.09375.097656.183594.148437.277344 4.28125 7.574218 8.257813 14.28125 12.207031 20.109374l-24.65625 9.230469c-24.226562 9.0625-40.503906 32.535157-40.503906 58.398438v85.34375c0 6.527343 5.308594 11.835937 11.832032 11.835937h279.390624c6.523438 0 11.832032-5.3125 11.832032-11.835937v-85.34375c0-7.195313-1.226563-14.273438-3.648438-21.035157-1.402344-3.902343-5.695312-5.933593-9.597656-4.53125zm0 0"/><path d="m321.992188 172.210938c-17.113282-15.707032-26.929688-37.644532-26.929688-60.1875v-2.40625c0-33.550782-12.753906-61.75-36.886719-81.542969-22.070312-18.101563-53.03125-28.074219-87.175781-28.074219-42.898438 0-80.046875 15.65625-101.925781 42.953125-2.589844 3.230469-2.066407 7.953125 1.164062 10.542969 3.234375 2.589844 7.953125 2.070312 10.542969-1.160156 19.015625-23.730469 51.898438-37.335938 90.21875-37.335938 30.683594 0 58.265625 8.761719 77.664062 24.675781 20.539063 16.847657 31.398438 41.035157 31.398438 69.945313v2.40625c0 26.730468 11.585938 52.695312 31.785156 71.234375 9.628906 8.835937 15.148438 21.5 15.148438 34.742187 0 15.457032-10.765625 24.980469-23.226563 36.011719-3.621093 3.203125-7.363281 6.511719-10.929687 10.066406-11.992188 11.957031-21.992188 29.910157-31.664063 47.273438-7.355469 13.210937-14.308593 25.691406-21.574219 34.660156-.074218.09375-.148437.1875-.214843.28125-7.914063 9.6875-23.078125 22.390625-37.476563 29.136719-3.75 1.757812-5.363281 6.226562-3.605468 9.976562 1.273437 2.722656 3.976562 4.316406 6.792968 4.316406 1.066406 0 2.148438-.226562 3.179688-.710937 13.078125-6.128906 25.914062-15.578125 38.148437-28.082031.425781-.4375.851563-.882813 1.273438-1.339844l29.066406 10.875c4.5625 1.707031 8.808594 4.089844 12.621094 7.082031 1.375 1.078125 3.003906 1.597657 4.625 1.597657 2.222656 0 4.425781-.984376 5.90625-2.871094 2.554687-3.257813 1.984375-7.972656-1.273438-10.53125-5.027343-3.941406-10.617187-7.078125-16.621093-9.324219l-24.65625-9.226563c3.949218-5.832031 7.925781-12.535156 12.207031-20.113281.054687-.09375.105469-.191406.152343-.285156 1.507813-2.671875 3.023438-5.394531 4.554688-8.144531 9.167969-16.457032 18.648438-33.476563 29.148438-43.949219 3.25-3.238281 6.824218-6.398437 10.28125-9.457031 13.90625-12.308594 28.285156-25.03125 28.285156-47.246094 0-17.429688-7.289063-34.121094-20.003906-45.789062zm0 0"/><path d="m171 49.496094c-52.832031 0-95.8125 42.980468-95.8125 95.8125v53.664062c-12.738281 1.257813-22.722656 12.035156-22.722656 25.101563 0 13.90625 11.3125 25.222656 25.21875 25.222656h14.570312c14.109375 0 25.589844 11.476563 25.589844 25.585937v24.816407c0 29.308593 23.84375 53.15625 53.15625 53.15625s53.15625-23.847657 53.15625-53.15625v-24.816407c0-14.109374 11.480469-25.585937 25.589844-25.585937h14.566406c13.910156 0 25.222656-11.316406 25.222656-25.222656 0-13.066407-9.984375-23.84375-22.726562-25.101563v-53.664062c0-52.832032-42.980469-95.8125-95.808594-95.8125zm103.535156 174.578125c0 5.636719-4.585937 10.222656-10.222656 10.222656h-14.566406c-22.382813 0-40.589844 18.207031-40.589844 40.585937v24.816407c0 21.039062-17.117188 38.15625-38.15625 38.15625s-38.160156-17.117188-38.160156-38.15625v-24.816407c0-22.378906-18.207032-40.585937-40.585938-40.585937h-14.570312c-5.636719 0-10.222656-4.585937-10.222656-10.222656s4.585937-10.222657 10.222656-10.222657h1.675781c5.96875 0 10.828125-4.859374 10.828125-10.832031v-57.710937c0-44.5625 36.25-80.8125 80.808594-80.8125 44.5625 0 80.8125 36.25 80.8125 80.8125v57.710937c0 5.972657 4.855468 10.832031 10.832031 10.832031h1.671875c5.636719 0 10.222656 4.585938 10.222656 10.222657zm0 0"/><path d="m170.441406 229.628906c-13.464844 0-24.417968 10.953125-24.417968 24.414063v43.5c0 13.464843 10.953124 24.417969 24.417968 24.417969 13.460938 0 24.414063-10.953126 24.414063-24.417969v-43.5c0-13.460938-10.953125-24.414063-24.414063-24.414063zm9.414063 67.914063c0 5.191406-4.222657 9.417969-9.414063 9.417969-5.195312 0-9.417968-4.226563-9.417968-9.417969v-43.5c0-5.191407 4.222656-9.414063 9.417968-9.414063 5.191406 0 9.414063 4.222656 9.414063 9.414063zm0 0"/><path d="m233.371094 167.644531c-7.65625-7.371093-8.707032-14.523437-8.84375-16.539062-.777344-11.230469-10.535156-19.746094-21.773438-18.960938-5.441406.375-10.410156 2.847657-13.992187 6.960938-3.578125 4.113281-5.34375 9.375-4.96875 14.8125 1.066406 15.4375 8.8125 31.160156 21.257812 43.140625 2.765625 2.664062 6.207031 4.488281 9.953125 5.277344 1.417969.296874 2.84375.441406 4.253906.441406 5.480469 0 10.757813-2.207032 14.664063-6.261719 7.804687-8.113281 7.558594-21.0625-.550781-28.871094zm-10.257813 18.464844c-1.300781 1.355469-3.179687 1.929687-5.023437 1.542969-.988282-.207032-1.898438-.6875-2.632813-1.398438-9.800781-9.433594-15.886719-21.597656-16.699219-33.371094-.097656-1.441406.371094-2.835937 1.316407-3.929687.953125-1.089844 2.269531-1.746094 3.710937-1.84375 2.996094-.203125 5.570313 2.050781 5.777344 5.027344.300781 4.320312 2.203125 15.527343 13.40625 26.316406 2.152344 2.070313 2.214844 5.503906.144531 7.65625zm0 0"/><path d="m153.234375 139.105469c-3.582031-4.113281-8.550781-6.585938-13.992187-6.960938-11.246094-.78125-20.996094 7.730469-21.769532 18.960938-.140625 2.015625-1.191406 9.171875-8.847656 16.539062-8.109375 7.808594-8.355469 20.757813-.546875 28.867188 3.90625 4.058593 9.179687 6.265625 14.664063 6.265625 1.410156 0 2.832031-.148438 4.25-.445313 3.746093-.785156 7.1875-2.609375 9.953124-5.273437 12.445313-11.980469 20.195313-27.707032 21.257813-43.140625.378906-5.441407-1.386719-10.699219-4.96875-14.8125zm-9.992187 13.78125c-.8125 11.769531-6.898438 23.933593-16.699219 33.367187-.734375.710938-1.644531 1.191406-2.632813 1.398438-1.84375.386718-3.722656-.1875-5.027344-1.542969-2.070312-2.148437-2.003906-5.585937.144532-7.65625 11.203125-10.789063 13.109375-21.996094 13.40625-26.3125.199218-2.855469 2.582031-5.042969 5.402344-5.042969.125 0 .25.003906.375.011719 1.441406.101563 2.761718.753906 3.710937 1.847656.949219 1.089844 1.417969 2.484375 1.320313 3.929688zm0 0"/><path d="m150.773438 206.675781c-2.515626 3.289063-1.890626 7.996094 1.402343 10.511719 3.289063 2.515625 7.996094 1.890625 10.511719-1.402344 3.207031-4.191406 6.292969-6.59375 8.472656-6.59375h.03125c2.105469.023438 5.03125 2.378906 8.027344 6.46875 1.46875 2.007813 3.746094 3.070313 6.054688 3.070313 1.539062 0 3.089843-.46875 4.425781-1.449219 3.34375-2.445312 4.070312-7.136719 1.621093-10.480469-6.066406-8.289062-12.785156-12.53125-19.972656-12.609375-.0625 0-.128906 0-.195312 0-7.1875 0-14.042969 4.199219-20.378906 12.484375zm0 0"/></svg>