<?xml version="1.0" encoding="iso-8859-1"?>
<!-- Generator: Adobe Illustrator 19.0.0, SVG Export Plug-In . SVG Version: 6.00 Build 0)  -->
<svg version="1.1" id="Layer_1" xmlns="http://www.w3.org/2000/svg" xmlns:xlink="http://www.w3.org/1999/xlink" x="0px" y="0px"
	 viewBox="0 0 512 512" style="enable-background:new 0 0 512 512;" xml:space="preserve">
<g>
	<path style="fill:#EEE5DD;" d="M480.979,135.313c0.639,13.266-3.915,25.989-12.845,35.83
		c-9.406,10.357-22.835,16.297-36.836,16.297c-12.383,0-24.249-4.594-33.41-12.926c-1.998-1.808-4.649-2.759-7.354-2.623
		c-2.691,0.122-5.233,1.318-7.054,3.317l-57.17,62.974l-59.345-53.894l57.183-62.96c1.808-1.998,2.759-4.649,2.623-7.34
		c-0.122-2.705-1.318-5.247-3.317-7.068c-9.841-8.93-15.604-21.15-16.243-34.416c-0.639-13.266,3.928-25.989,12.858-35.816
		c9.406-10.357,22.822-16.297,36.822-16.297c12.383,0,24.249,4.581,33.424,12.913c12.505,11.35,18.35,28.123,15.631,44.841
		c-0.557,3.412,0.652,6.864,3.208,9.188c2.555,2.324,6.103,3.181,9.447,2.311c4.159-1.101,8.441-1.645,12.75-1.645
		c12.369,0,24.235,4.581,33.397,12.899C474.577,109.827,480.34,122.047,480.979,135.313z"/>
	<path style="fill:#EEE5DD;" d="M245,327.7l-57.17,62.974c-1.821,1.998-2.773,4.635-2.637,7.34c0.122,2.705,1.318,5.233,3.33,7.054
		c9.827,8.93,15.591,21.15,16.229,34.43c0.639,13.266-3.928,25.989-12.858,35.816c-9.392,10.357-22.822,16.297-36.822,16.297
		c-6.198,0-12.26-1.155-17.915-3.33c-5.654-2.202-10.915-5.423-15.495-9.583c-12.519-11.363-18.363-28.123-15.645-44.855
		c0.557-3.398-0.652-6.864-3.208-9.175c-1.889-1.726-4.35-2.651-6.851-2.651c-0.87,0-1.74,0.109-2.596,0.34
		c-4.159,1.087-8.441,1.645-12.75,1.645c-12.369,0-24.235-4.581-33.397-12.899c-20.294-18.431-21.816-49.952-3.371-70.246
		c9.406-10.357,22.822-16.297,36.822-16.297c12.383,0,24.249,4.581,33.41,12.913c4.173,3.792,10.616,3.48,14.408-0.693l57.17-62.96
		L245,327.7z"/>
</g>
<g>
	<path style="opacity:0.3;fill:#20272E;enable-background:new    ;" d="M480.979,135.313c0.639,13.266-3.915,25.989-12.845,35.83
		c-9.406,10.357-22.835,16.297-36.836,16.297c-12.383,0-24.249-4.594-33.41-12.926c-1.998-1.808-4.649-2.759-7.354-2.623
		c-2.691,0.122-5.233,1.318-7.054,3.317l-57.17,62.974l-59.345-53.894l57.183-62.96c1.808-1.998,2.759-4.649,2.623-7.34
		c-0.122-2.705-1.318-5.247-3.317-7.068c-9.841-8.93-15.604-21.15-16.243-34.416c-0.639-13.266,3.928-25.989,12.858-35.816
		c9.406-10.357,22.822-16.297,36.822-16.297c12.383,0,24.249,4.581,33.424,12.913c12.505,11.35,18.35,28.123,15.631,44.841
		c-0.557,3.412,0.652,6.864,3.208,9.188c2.555,2.324,6.103,3.181,9.447,2.311c4.159-1.101,8.441-1.645,12.75-1.645
		c12.369,0,24.235,4.581,33.397,12.899C474.577,109.827,480.34,122.047,480.979,135.313z"/>
	<path style="opacity:0.3;fill:#20272E;enable-background:new    ;" d="M245,327.7l-57.17,62.974
		c-1.821,1.998-2.773,4.635-2.637,7.34c0.122,2.705,1.318,5.233,3.33,7.054c9.827,8.93,15.591,21.15,16.229,34.43
		c0.639,13.266-3.928,25.989-12.858,35.816c-9.392,10.357-22.822,16.297-36.822,16.297c-6.198,0-12.26-1.155-17.915-3.33
		c-5.654-2.202-10.915-5.423-15.495-9.583c-12.519-11.363-18.363-28.123-15.645-44.855c0.557-3.398-0.652-6.864-3.208-9.175
		c-1.889-1.726-4.35-2.651-6.851-2.651c-0.87,0-1.74,0.109-2.596,0.34c-4.159,1.087-8.441,1.645-12.75,1.645
		c-12.369,0-24.235-4.581-33.397-12.899c-20.294-18.431-21.816-49.952-3.371-70.246c9.406-10.357,22.822-16.297,36.822-16.297
		c12.383,0,24.249,4.581,33.41,12.913c4.173,3.792,10.616,3.48,14.408-0.693l57.17-62.96L245,327.7z"/>
	
		<rect x="185.342" y="205.731" transform="matrix(-0.6723 0.7403 -0.7403 -0.6723 617.6305 238.5992)" style="opacity:0.3;fill:#20272E;enable-background:new    ;" width="141.323" height="100.549"/>
</g>
<path style="fill:#EEE5DD;" d="M491.54,354.504c0.639,13.266-3.928,25.989-12.858,35.816c-9.392,10.344-22.808,16.284-36.808,16.284
	c-2.691,0-5.396-0.217-8.033-0.652c-3.412-0.544-6.864,0.666-9.189,3.221c-2.324,2.542-3.194,6.103-2.311,9.447
	c4.309,16.379,0.109,33.628-11.255,46.133c-9.406,10.357-22.822,16.297-36.836,16.297c-12.369,0-24.235-4.581-33.41-12.913
	c-20.294-18.431-21.816-49.939-3.385-70.246c3.792-4.159,3.48-10.602-0.693-14.394L121.309,187.834
	c-1.944-1.767-4.404-2.637-6.851-2.637c-2.773,0-5.532,1.115-7.544,3.33c-9.406,10.357-22.835,16.297-36.836,16.297
	c-12.369,0-24.235-4.581-33.41-12.913c-20.294-18.431-21.816-49.939-3.385-70.246c9.392-10.344,22.822-16.284,36.822-16.284
	c2.678,0,5.383,0.231,8.033,0.652c3.412,0.557,6.864-0.652,9.175-3.208c2.324-2.555,3.194-6.117,2.311-9.447
	c-4.309-16.379-0.109-33.641,11.255-46.146c9.406-10.357,22.835-16.297,36.836-16.297c12.369,0,24.235,4.594,33.41,12.913
	c9.827,8.93,15.604,21.163,16.243,34.43c0.639,13.266-3.928,25.989-12.858,35.816c-1.821,1.998-2.773,4.649-2.637,7.34
	c0.122,2.705,1.332,5.247,3.33,7.068l215.454,195.65c1.998,1.821,4.635,2.773,7.34,2.637c2.705-0.122,5.247-1.318,7.054-3.33
	c9.406-10.357,22.835-16.297,36.836-16.297c12.383,0,24.249,4.594,33.41,12.913C485.138,329.005,490.901,341.238,491.54,354.504z"/>
<path style="fill:#20272E;" d="M511.902,353.526c0.911,18.703-5.532,36.645-18.119,50.509c-12.723,14-30.665,22.278-49.531,22.917
	c1.196,18.744-5.165,37.298-18.064,51.515c-13.266,14.598-32.201,22.971-51.937,22.971c-17.453,0-34.185-6.456-47.111-18.2
	c-26.057-23.664-30.162-62.62-11.078-91.001l-55.96-50.822l-50.822,55.96c9.555,11.581,15.115,25.866,15.849,41.131
	c0.897,18.717-5.546,36.645-18.132,50.51c-6.633,7.313-14.68,13.049-23.542,16.977c-8.849,3.915-18.513,6.008-28.381,6.008
	c-17.453,0-34.185-6.47-47.125-18.214c-14.218-12.899-22.319-30.76-22.93-49.531c-1.468,0.095-2.936,0.136-4.404,0.136
	c-17.453,0-34.171-6.456-47.098-18.2c-28.626-25.989-30.76-70.422-4.771-99.035c13.266-14.612,32.187-22.985,51.923-22.985
	c14.027,0,27.579,4.173,39.078,11.907l50.822-55.974l-55.974-50.822c-12.464,10.222-28.204,15.93-44.515,15.93
	c-17.453,0-34.185-6.456-47.125-18.2c-28.612-26.002-30.76-70.422-4.757-99.048c12.709-14,30.651-22.278,49.517-22.93
	C66.518,66.29,72.879,47.75,85.792,33.533c13.253-14.612,32.187-22.985,51.923-22.985c17.453,0,34.185,6.47,47.111,18.214
	c13.864,12.587,22.006,29.822,22.903,48.539c0.734,15.264-3.425,30.012-11.812,42.463l55.946,50.822l50.822-55.96
	c-9.555-11.581-15.101-25.866-15.835-41.144c-0.911-18.703,5.532-36.645,18.119-50.51C318.237,8.373,337.157,0,356.893,0
	c17.453,0,34.199,6.456,47.125,18.2c14.218,12.913,22.332,30.76,22.93,49.544c1.468-0.095,2.936-0.136,4.404-0.136
	c17.453,0,34.185,6.456,47.098,18.187c13.864,12.6,21.993,29.835,22.903,48.539c0.897,18.703-5.546,36.645-18.132,50.51
	c-13.266,14.598-32.187,22.985-51.923,22.985c-14.027,0-27.579-4.173-39.078-11.907l-50.822,55.96l55.974,50.836
	c12.464-10.222,28.218-15.944,44.515-15.944c17.453,0,34.185,6.47,47.125,18.214C502.876,317.574,511.005,334.809,511.902,353.526z
	 M478.682,390.321c8.93-9.827,13.497-22.55,12.858-35.816c-0.639-13.266-6.402-25.499-16.243-34.43
	c-9.161-8.319-21.027-12.913-33.41-12.913c-14,0-27.43,5.94-36.836,16.297c-1.808,2.012-4.35,3.208-7.055,3.33
	c-2.705,0.136-5.342-0.816-7.34-2.637l-215.454-195.65c-1.998-1.821-3.208-4.363-3.33-7.068c-0.136-2.691,0.816-5.342,2.637-7.34
	c8.93-9.827,13.497-22.55,12.858-35.816s-6.416-25.499-16.243-34.43c-9.175-8.319-21.041-12.913-33.41-12.913
	c-14,0-27.43,5.94-36.836,16.297C89.517,59.739,85.317,77.001,89.625,93.38c0.884,3.33,0.014,6.891-2.311,9.447
	c-2.311,2.555-5.763,3.765-9.175,3.208c-2.651-0.421-5.355-0.652-8.033-0.652c-14,0-27.43,5.94-36.822,16.284
	c-18.431,20.307-16.909,51.814,3.385,70.246c9.175,8.332,21.041,12.913,33.41,12.913c14,0,27.43-5.94,36.836-16.297
	c2.012-2.216,4.771-3.33,7.544-3.33c2.447,0,4.907,0.87,6.851,2.637l215.454,195.663c4.173,3.792,4.486,10.235,0.693,14.394
	c-18.431,20.307-16.909,51.814,3.385,70.246c9.175,8.332,21.041,12.913,33.41,12.913c14.014,0,27.43-5.94,36.836-16.297
	c11.363-12.505,15.563-29.754,11.255-46.133c-0.883-3.344-0.014-6.905,2.311-9.447c2.324-2.555,5.777-3.765,9.189-3.221
	c2.637,0.435,5.342,0.652,8.033,0.652C455.874,406.604,469.289,400.664,478.682,390.321z M468.134,171.142
	c8.93-9.841,13.484-22.563,12.845-35.83c-0.639-13.266-6.402-25.486-16.229-34.416c-9.161-8.319-21.027-12.899-33.397-12.899
	c-4.309,0-8.59,0.544-12.75,1.645c-3.344,0.87-6.891,0.014-9.447-2.311c-2.555-2.324-3.765-5.777-3.208-9.188
	c2.718-16.719-3.126-33.492-15.631-44.841c-9.175-8.332-21.041-12.913-33.424-12.913c-14,0-27.416,5.94-36.822,16.297
	c-8.93,9.827-13.497,22.55-12.858,35.816s6.402,25.486,16.243,34.416c1.998,1.821,3.194,4.363,3.317,7.068
	c0.136,2.691-0.816,5.342-2.623,7.34l-57.183,62.96l59.345,53.894l57.17-62.974c1.821-1.998,4.363-3.194,7.054-3.317
	c2.705-0.136,5.355,0.816,7.354,2.623c9.161,8.332,21.027,12.926,33.41,12.926C445.299,187.44,458.728,181.5,468.134,171.142z
	 M187.831,390.674L245,327.7l-59.345-53.88l-57.17,62.96c-3.792,4.173-10.235,4.486-14.408,0.693
	c-9.161-8.332-21.028-12.913-33.41-12.913c-14,0-27.416,5.94-36.822,16.297c-18.445,20.294-16.923,51.814,3.371,70.246
	c9.161,8.319,21.028,12.899,33.397,12.899c4.309,0,8.59-0.557,12.75-1.645c0.856-0.231,1.726-0.34,2.596-0.34
	c2.501,0,4.961,0.924,6.851,2.651c2.555,2.311,3.765,5.777,3.208,9.175c-2.718,16.732,3.126,33.492,15.645,44.855
	c4.581,4.159,9.841,7.381,15.495,9.583c5.654,2.175,11.717,3.33,17.915,3.33c14,0,27.43-5.94,36.822-16.297
	c8.93-9.827,13.497-22.55,12.858-35.816c-0.639-13.28-6.402-25.499-16.229-34.43c-2.012-1.821-3.208-4.35-3.33-7.054
	C185.058,395.309,186.009,392.672,187.831,390.674z"/>
<g>
</g>
<g>
</g>
<g>
</g>
<g>
</g>
<g>
</g>
<g>
</g>
<g>
</g>
<g>
</g>
<g>
</g>
<g>
</g>
<g>
</g>
<g>
</g>
<g>
</g>
<g>
</g>
<g>
</g>
</svg>
