<?xml version="1.0" encoding="iso-8859-1"?>
<!-- Generator: Adobe Illustrator 19.0.0, SVG Export Plug-In . SVG Version: 6.00 Build 0)  -->
<svg version="1.1" id="Layer_1" xmlns="http://www.w3.org/2000/svg" xmlns:xlink="http://www.w3.org/1999/xlink" x="0px" y="0px"
	 viewBox="0 0 512 512" style="enable-background:new 0 0 512 512;" xml:space="preserve">
<path style="fill:#EEE5DD;" d="M279.467,238.405c0,12.96-10.507,23.467-23.467,23.467s-23.467-10.507-23.467-23.467v-53.782
	c0,12.96-10.507,23.467-23.467,23.467c-3.06,0-5.975-0.604-8.655-1.668v253.117h111.176V230.324
	c-2.681,1.065-5.594,1.668-8.655,1.668c-12.96,0-23.467-10.507-23.467-23.467L279.467,238.405z"/>
<path style="fill:#FFE046;" d="M295.889,109.69c-1.506,51.217-78.272,51.217-79.778,0C214.495,54.729,232.974,8.964,256,8.964
	C279.026,8.964,297.505,54.729,295.889,109.69z"/>
<g>
	<path style="fill:#20272E;" d="M264.964,190.267v-12.488v-77.745c0-4.951-4.012-8.964-8.964-8.964
		c-4.951,0-8.964,4.012-8.964,8.964v77.745v12.488H264.964z"/>
	<path style="opacity:0.3;fill:#20272E;enable-background:new    ;" d="M279.467,238.405c0,12.96-10.507,23.467-23.467,23.467
		s-23.467-10.507-23.467-23.467v-53.782c0,12.96-10.507,23.467-23.467,23.467c-3.06,0-5.975-0.604-8.655-1.668v253.117h111.176
		V230.324c-2.681,1.065-5.594,1.668-8.655,1.668c-12.96,0-23.467-10.507-23.467-23.467L279.467,238.405z"/>
	<path style="opacity:0.3;fill:#20272E;enable-background:new    ;" d="M279.467,208.526v29.879
		c0,12.96-10.507,23.467-23.467,23.467s-23.467-10.507-23.467-23.467v-53.782c0,12.96-10.507,23.467-23.467,23.467
		c-3.06,0-5.975-0.604-8.655-1.668v66.484c2.793,0.596,5.686,0.918,8.655,0.918c1.878,0,3.728-0.125,5.539-0.369v12.757
		c0,22.825,18.569,41.394,41.394,41.394c19.046,0,35.128-12.929,39.931-30.471c2.277,0.39,4.616,0.593,7.001,0.593
		c2.969,0,5.862-0.32,8.655-0.918v-66.484c-2.681,1.065-5.594,1.668-8.655,1.668C289.973,231.992,279.467,221.485,279.467,208.526z"
		/>
</g>
<path style="fill:#EEE5DD;" d="M279.467,256.332c0,12.96,10.507,23.467,23.467,23.467s23.467-10.507,23.467-23.467v-78.545H185.6
	v54.642c0,12.96,10.507,23.467,23.467,23.467s23.467-10.507,23.467-23.467v53.782c0,12.96,10.507,23.467,23.467,23.467
	s23.467-10.507,23.467-23.467L279.467,256.332z"/>
<path style="fill:#664B33;" d="M95.149,433.256L95.149,433.256c0,38.539,31.242,69.781,69.781,69.781h182.14
	c38.539,0,69.781-31.242,69.781-69.781l0,0H95.149z"/>
<g>
	<path style="opacity:0.3;fill:#20272E;enable-background:new    ;" d="M311.589,433.256V278.129
		c8.672-3.447,14.811-11.898,14.811-21.798v-78.545h-61.436l0,0V147.19c16.181-3.334,30.289-15.832,30.926-37.501
		C297.505,54.729,279.026,8.964,256,8.964v494.073h91.07c38.539,0,69.781-31.242,69.781-69.781l0,0H311.589z"/>
	<path style="fill:#20272E;" d="M416.851,424.292h-96.299V283.537c8.905-5.787,14.811-15.817,14.811-27.205v-78.545
		c0-4.95-4.013-8.964-8.964-8.964h-61.436v-12.537c20.424-3.565,39.091-19.325,39.886-46.332
		c1.253-42.57-9.108-81.578-26.392-99.379C271.738,3.657,263.973,0,256,0c-7.973,0-15.738,3.657-22.457,10.576
		c-17.284,17.8-27.644,56.808-26.392,99.377c0.794,27.007,19.462,42.768,39.886,46.333v12.537H185.6
		c-4.95,0-8.964,4.013-8.964,8.964v54.642c0,11.39,5.906,21.418,14.811,27.205v164.657H95.149c-4.95,0-8.964,4.013-8.964,8.964
		c0,43.42,35.325,78.744,78.744,78.744h182.14c43.42,0,78.745-35.325,78.745-78.744
		C425.815,428.305,421.801,424.292,416.851,424.292z M225.07,109.427c-0.884-30.102,5.414-69.966,21.336-86.362
		c3.311-3.409,6.539-5.137,9.595-5.137s6.285,1.728,9.595,5.137c15.921,16.396,22.22,56.261,21.335,86.362
		c-0.482,16.391-10.38,25.545-21.966,28.57v-37.964l0,0c0-0.418-0.038-0.826-0.094-1.229c-0.384-2.789-2.045-5.167-4.381-6.522
		c-1.321-0.767-2.85-1.213-4.489-1.213s-3.167,0.447-4.489,1.213c-2.337,1.355-3.998,3.732-4.381,6.522
		c-0.055,0.403-0.094,0.81-0.094,1.229l0,0v37.964C235.451,134.972,225.553,125.818,225.07,109.427z M194.564,186.75h122.873v69.581
		c0,6.09-3.779,11.307-9.111,13.453c-0.016,0.006-0.032,0.01-0.049,0.016c-3.924,1.558-8.409,1.328-12.135-0.656
		c-3.185-1.695-5.677-4.576-6.883-7.978c-0.55-1.549-0.828-3.19-0.828-4.834c0-4.95-4.013-8.964-8.964-8.964
		c-4.95,0-8.964,4.013-8.964,8.964v29.879c0,7.997-6.506,14.503-14.503,14.503s-14.503-6.506-14.503-14.503v-53.782
		c0-4.95-4.013-8.964-8.964-8.964s-8.964,4.013-8.964,8.964c0,3.692-1.441,7.292-3.98,9.97c-2.533,2.671-6.064,4.329-9.746,4.512
		c-4.337,0.216-8.619-1.557-11.532-4.773c-2.396-2.647-3.747-6.137-3.747-9.709V186.75H194.564z M256,318.64
		c17.882,0,32.43-14.547,32.43-32.43v-0.876c0,0.675,5.251,2.082,5.888,2.256c2.7,0.742,5.506,1.143,8.306,1.169v135.532h-93.249
		V264.857c0.304-0.002,0.602-0.024,0.904-0.035c0.286-0.011,0.571-0.016,0.855-0.032c4.312-0.274,8.575-1.421,12.437-3.36v24.779
		C223.57,304.093,238.118,318.64,256,318.64z M347.07,494.073H164.93c-30.489,0-55.81-22.555-60.158-51.854h95.64h111.176h95.64
		C402.88,471.518,377.558,494.073,347.07,494.073z"/>
</g>
<g>
</g>
<g>
</g>
<g>
</g>
<g>
</g>
<g>
</g>
<g>
</g>
<g>
</g>
<g>
</g>
<g>
</g>
<g>
</g>
<g>
</g>
<g>
</g>
<g>
</g>
<g>
</g>
<g>
</g>
</svg>
