<?xml version="1.0" encoding="iso-8859-1"?>
<!-- Generator: Adobe Illustrator 19.0.0, SVG Export Plug-In . SVG Version: 6.00 Build 0)  -->
<svg version="1.1" id="Layer_1" xmlns="http://www.w3.org/2000/svg" xmlns:xlink="http://www.w3.org/1999/xlink" x="0px" y="0px"
	 viewBox="0 0 512 512" style="enable-background:new 0 0 512 512;" xml:space="preserve">
<g>
	<path style="fill:#B857D0;" d="M101.957,176.524l-13.68-8.385c-17.289-10.597-39.896-5.171-50.491,12.119l0,0
		c-7.751,12.646-6.92,28.131,0.845,39.684C21.658,223.178,8.828,238.087,8.828,256l0,0c0,17.913,12.831,32.822,29.802,36.058
		c-7.765,11.555-8.595,27.039-0.845,39.685l0,0c10.597,17.289,33.202,22.715,50.491,12.118l13.68-8.385L101.957,176.524z"/>
	<path style="fill:#B857D0;" d="M410.043,176.524l13.68-8.385c17.289-10.597,39.896-5.171,50.491,12.119l0,0
		c7.751,12.646,6.92,28.131-0.845,39.684c16.971,3.236,29.802,18.145,29.802,36.058l0,0c0,17.913-12.831,32.822-29.802,36.058
		c7.765,11.555,8.595,27.039,0.845,39.685l0,0c-10.597,17.289-33.202,22.715-50.491,12.118l-13.68-8.385V176.524z"/>
</g>
<path style="fill:#A93CCB;" d="M244.384,132.028h70.518c68.468,0,123.972,55.504,123.972,123.972l0,0
	c0,20.462-4.961,39.765-13.742,56.778l-157.518,67.194l0,0h-70.518c-68.468,0-123.972-55.504-123.972-123.972l0,0
	c0-20.434,4.951-39.709,13.707-56.703l0.033-0.075L244.384,132.028z"/>
<path style="fill:#FF8800;" d="M425.134,312.778l-180.75-180.75h-47.286c-48.004,0-89.634,27.288-110.231,67.196l180.749,180.75
	h47.286C362.908,379.972,404.536,352.686,425.134,312.778z"/>
<g>
	<path style="opacity:0.3;fill:#20272E;enable-background:new    ;" d="M503.172,256c0-17.913-12.831-32.822-29.802-36.058
		c7.765-11.555,8.595-27.039,0.845-39.685l0,0c-10.595-17.289-33.202-22.715-50.491-12.119l-13.68,8.385
		c-22.741-27.194-56.918-44.496-95.14-44.496H256v247.945h11.616h47.286c38.468,0,72.83-17.533,95.569-45.03
		c-0.146,0.177-0.282,0.359-0.428,0.534l13.682,8.385c17.289,10.597,39.896,5.171,50.491-12.118l0,0
		c7.749-12.646,6.92-28.129-0.845-39.684C490.342,288.822,503.172,273.914,503.172,256z"/>
	<path style="fill:#20272E;" d="M512,255.999c0-17.971-10.535-33.893-26.211-41.242c4.549-12.795,3.23-27.238-4.048-39.112
		c-8.347-13.619-22.878-21.75-38.867-21.75c-8.376,0-16.594,2.323-23.764,6.718l-7.428,4.553
		c-24.242-25.813-58.658-41.964-96.78-41.964h-70.518h-47.286c-37.392,0-72.159,15.475-96.885,41.9l-7.323-4.488
		c-7.17-4.395-15.388-6.718-23.764-6.718c-15.99,0-30.52,8.132-38.866,21.751c-7.277,11.874-8.597,26.316-4.048,39.111
		C10.535,222.106,0,238.029,0,256c0,17.972,10.535,33.894,26.211,41.244c-4.549,12.795-3.23,27.238,4.048,39.111
		c8.347,13.619,22.876,21.75,38.866,21.75l0,0c8.376,0,16.594-2.323,23.764-6.718l7.428-4.553
		c24.242,25.813,58.658,41.965,96.78,41.965h70.518h47.286c37.391,0,72.159-15.475,96.885-41.9l7.323,4.488
		c7.17,4.394,15.388,6.717,23.764,6.718c0.002,0,0.002,0,0.004,0c15.987,0,30.516-8.131,38.864-21.75
		c7.277-11.875,8.597-26.316,4.048-39.111C501.466,289.894,512,273.971,512,255.999z M83.664,336.335
		c-4.394,2.693-9.421,4.116-14.54,4.116c-9.799,0-18.702-4.98-23.813-13.32c-5.684-9.274-5.431-21.109,0.645-30.148
		c1.654-2.461,1.962-5.588,0.819-8.324c-1.143-2.735-3.58-4.716-6.494-5.272c-13.111-2.5-22.627-14.019-22.627-27.388
		c0-13.367,9.516-24.886,22.629-27.387c2.912-0.556,5.351-2.535,6.492-5.272c1.142-2.737,0.833-5.863-0.82-8.324
		c-6.076-9.041-6.328-20.873-0.645-30.148c5.113-8.34,14.015-13.32,23.813-13.32c5.119,0,10.146,1.423,14.538,4.116l5.28,3.237
		c-2.934-1.798-18.501,37.125-19.37,40.14c-10.954,37.982-3.612,81.78,19.39,114.047L83.664,336.335z M197.098,371.145
		c-51.418,0-97.964-36.018-111.261-85.571c-6.158-22.949-6.399-49.018,3.798-70.88c4.962,3.721,9.351,9.131,13.779,13.559
		c9.596,9.596,19.191,19.191,28.787,28.787c24.203,24.203,48.406,48.406,72.609,72.609c13.784,13.784,27.567,27.567,41.351,41.351
		c0.048,0.048,0.095,0.096,0.144,0.144C246.304,371.145,197.104,371.145,197.098,371.145z M403.27,329.793
		c-0.18,0.217-0.347,0.441-0.506,0.672c-21.597,25.551-53.445,40.68-87.862,40.68h-43.629L97.804,197.674
		c3.192-5.41,6.853-10.593,10.926-15.468c0.18-0.215,0.346-0.44,0.504-0.67c21.597-25.551,53.446-40.681,87.863-40.681h43.629
		l173.469,173.469C411.003,319.735,407.344,324.92,403.27,329.793z M422.34,297.499L265.696,140.855c0,0,49.196,0,49.206,0
		c49.204,0,94.949,33.77,109.821,80.609c7.769,24.47,6.977,51.63-2.215,75.602C422.454,297.211,422.396,297.354,422.34,297.499z
		 M471.717,283.387c-2.912,0.556-5.351,2.535-6.494,5.272c-1.143,2.737-0.833,5.863,0.819,8.324
		c6.076,9.041,6.329,20.874,0.645,30.148c-5.113,8.341-14.014,13.32-23.812,13.32c-5.12,0-10.147-1.424-14.541-4.116
		c0,0-5.28-3.236-5.279-3.234c1.177,0.693,10.072-17.16,10.847-18.682c5.16-10.119,8.828-20.748,11.051-31.906
		c5.406-27.134,2.219-55.823-9.059-81.09c-0.89-1.994-11.809-23.153-12.86-22.508c0.007-0.005,5.3-3.249,5.3-3.249
		c4.393-2.693,9.42-4.116,14.538-4.116c9.8,0,18.702,4.98,23.814,13.321c5.684,9.274,5.431,21.107-0.645,30.147
		c-1.654,2.461-1.962,5.587-0.82,8.323c1.142,2.737,3.58,4.717,6.492,5.272c13.114,2.501,22.63,14.019,22.63,27.388
		S484.829,280.887,471.717,283.387z"/>
</g>
<g>
</g>
<g>
</g>
<g>
</g>
<g>
</g>
<g>
</g>
<g>
</g>
<g>
</g>
<g>
</g>
<g>
</g>
<g>
</g>
<g>
</g>
<g>
</g>
<g>
</g>
<g>
</g>
<g>
</g>
</svg>
