<?xml version="1.0" encoding="iso-8859-1"?>
<!-- Generator: Adobe Illustrator 19.0.0, SVG Export Plug-In . SVG Version: 6.00 Build 0)  -->
<svg version="1.1" id="Layer_1" xmlns="http://www.w3.org/2000/svg" xmlns:xlink="http://www.w3.org/1999/xlink" x="0px" y="0px"
	 viewBox="0 0 512 512" style="enable-background:new 0 0 512 512;" xml:space="preserve">
<g>
	<path style="fill:#FF8800;" d="M107.837,29.441c-30.317,0-108.004,180.473-97.247,277.284c5.304,42.43,77.79,44.378,94.033,44.28
		c2.143-0.013,4.286-0.013,6.429,0c16.243,0.098,88.729-1.85,94.033-44.28C215.841,209.915,138.154,29.441,107.837,29.441z"/>
	<path style="fill:#FF8800;" d="M404.163,29.441c30.317,0,108.004,180.473,97.247,277.284c-5.304,42.43-77.79,44.378-94.033,44.28
		c-2.143-0.013-4.286-0.013-6.429,0c-16.243,0.098-88.729-1.85-94.033-44.28C296.16,209.915,373.847,29.441,404.163,29.441z"/>
</g>
<path style="fill:#FFE046;" d="M107.837,253.969c-34.152,0-66.393-3.102-94.892-8.6c-3.286,22.226-4.368,43.254-2.356,61.357
	c5.304,42.43,77.79,44.378,94.033,44.28c2.143-0.013,4.286-0.013,6.429,0c16.243,0.098,88.729-1.85,94.033-44.28
	c2.011-18.102,0.929-39.131-2.356-61.357C174.231,250.866,141.989,253.969,107.837,253.969z"/>
<path style="fill:#EEE5DD;" d="M107.837,117.127c19.746,0,38.852-1.038,56.969-2.975c-20.363-48.589-43.406-84.711-56.969-84.711
	s-36.606,36.122-56.969,84.711C68.983,116.089,88.091,117.127,107.837,117.127z"/>
<path style="fill:#FFE046;" d="M404.163,253.969c34.152,0,66.393-3.102,94.892-8.6c3.286,22.226,4.368,43.254,2.355,61.357
	c-5.304,42.43-77.79,44.378-94.033,44.28c-2.143-0.013-4.286-0.013-6.427,0c-16.243,0.098-88.729-1.85-94.033-44.28
	c-2.011-18.102-0.929-39.131,2.355-61.357C337.77,250.866,370.012,253.969,404.163,253.969z"/>
<path style="fill:#EEE5DD;" d="M404.163,117.127c-19.746,0-38.852-1.038-56.969-2.975c20.364-48.589,43.406-84.711,56.969-84.711
	c13.562,0,36.606,36.121,56.969,84.711C443.017,116.089,423.91,117.127,404.163,117.127z"/>
<g>
	<path style="opacity:0.3;fill:#20272E;enable-background:new    ;" d="M205.084,306.724c0.001-0.012,0.002-0.024,0.003-0.037
		c0.11-0.992,0.207-1.995,0.299-3.003c0.024-0.264,0.047-0.527,0.069-0.792c0.086-1.004,0.166-2.013,0.235-3.034
		c0.001-0.023,0.003-0.046,0.005-0.069c0.069-1.043,0.126-2.098,0.178-3.156c0.013-0.266,0.025-0.532,0.037-0.799
		c0.046-1.045,0.086-2.095,0.114-3.155c0-0.022,0.001-0.043,0.002-0.065c0.029-1.085,0.046-2.181,0.057-3.281
		c0.002-0.266,0.005-0.532,0.007-0.799c0.007-1.08,0.008-2.163-0.001-3.255c0-0.025,0-0.051,0-0.076
		c-0.01-1.125-0.032-2.257-0.06-3.396c-0.007-0.264-0.014-0.527-0.021-0.792c-0.031-1.119-0.067-2.242-0.114-3.374
		c-0.001-0.02-0.001-0.039-0.002-0.06c-0.049-1.163-0.109-2.336-0.173-3.512c-0.014-0.257-0.029-0.513-0.044-0.771
		c-0.068-1.164-0.141-2.334-0.225-3.509c0-0.005-0.001-0.01-0.001-0.016c-0.086-1.201-0.183-2.409-0.284-3.621
		c-0.021-0.251-0.043-0.503-0.065-0.754c-0.104-1.195-0.213-2.395-0.332-3.601c0-0.005-0.001-0.009-0.001-0.013
		c-0.123-1.234-0.254-2.475-0.392-3.719c-0.027-0.24-0.054-0.481-0.081-0.722c-0.281-2.484-0.592-4.986-0.933-7.507
		c-0.031-0.23-0.062-0.461-0.095-0.691c-0.171-1.249-0.348-2.501-0.534-3.759c-0.001-0.006-0.001-0.012-0.002-0.017l0,0
		c-4.467-30.216-13.012-62.64-23.396-92.946c-0.139,0.276-0.279,0.549-0.417,0.826l-0.201,0.383l-0.139,0.299
		c-0.741,1.489-1.479,2.991-2.187,4.445l-0.121,0.25c-0.8,1.647-1.6,3.314-2.398,4.999l-0.075,0.16
		c-3.214,6.789-6.433,13.931-9.57,21.232l-0.049,0.112c-23.406,54.524-41.04,114.488-48.88,165.855
		C137.195,350.626,200.154,346.16,205.084,306.724z"/>
	<path style="opacity:0.3;fill:#20272E;enable-background:new    ;" d="M350.669,191.846l-0.504-1.206
		c-0.771-1.837-1.543-3.659-2.309-5.443l-0.095-0.221c-0.776-1.807-1.555-3.599-2.336-5.376l-0.036-0.081
		c-2.351-5.343-4.761-10.622-7.16-15.692l-0.102-0.216c-0.795-1.677-1.59-3.333-2.405-5.009l-0.079-0.162
		c-0.8-1.645-1.601-3.272-2.426-4.925c-0.183-0.366-0.368-0.727-0.55-1.092c-10.384,30.305-18.93,62.728-23.396,92.945l0,0
		c-0.001,0.007-0.002,0.013-0.002,0.02c-0.185,1.252-0.361,2.499-0.532,3.743c-0.032,0.239-0.066,0.477-0.098,0.715
		c-0.341,2.516-0.651,5.015-0.932,7.495c-0.028,0.24-0.054,0.482-0.081,0.722c-0.274,2.469-0.516,4.918-0.726,7.344
		c-0.021,0.245-0.043,0.489-0.064,0.734c-0.103,1.216-0.199,2.427-0.285,3.63c0,0.006-0.001,0.01-0.001,0.016
		c-0.084,1.178-0.157,2.349-0.225,3.515c-0.015,0.255-0.03,0.509-0.044,0.763c-0.066,1.18-0.125,2.354-0.173,3.521
		c0,0.01-0.001,0.021-0.001,0.031c-0.047,1.14-0.084,2.271-0.116,3.398c-0.007,0.264-0.014,0.527-0.021,0.791
		c-0.028,1.138-0.05,2.271-0.06,3.396c0,0.025,0,0.051,0,0.076c-0.009,1.091-0.008,2.174-0.001,3.251
		c0.002,0.269,0.003,0.539,0.007,0.807c0.012,1.097,0.028,2.19,0.057,3.272c0.001,0.03,0.002,0.06,0.003,0.09
		c0.029,1.052,0.068,2.093,0.113,3.13c0.012,0.269,0.024,0.539,0.037,0.807c0.051,1.059,0.107,2.113,0.177,3.154
		c0.001,0.023,0.003,0.046,0.005,0.069c0.068,1.021,0.148,2.03,0.235,3.034c0.023,0.265,0.046,0.528,0.069,0.792
		c0.091,1.009,0.188,2.011,0.299,3.003c0.001,0.012,0.002,0.024,0.003,0.037c4.931,39.445,67.92,43.903,89.807,44.257
		C389.267,302.11,372.556,244.336,350.669,191.846z"/>
	<path style="opacity:0.3;fill:#20272E;enable-background:new    ;" d="M502.355,281.774c-0.006-0.24-0.013-0.481-0.018-0.721
		c-0.064-2.315-0.162-4.659-0.294-7.028c-0.013-0.225-0.025-0.451-0.039-0.676c-0.14-2.39-0.312-4.805-0.518-7.243
		c-0.018-0.217-0.037-0.433-0.055-0.651c-0.213-2.458-0.459-4.939-0.736-7.441c-0.023-0.203-0.045-0.407-0.068-0.61
		c-0.284-2.517-0.6-5.055-0.945-7.611c-0.027-0.198-0.054-0.396-0.081-0.595c-6.321-46.088-22.464-97.824-40.363-139.517
		c-0.013-0.029-0.025-0.058-0.037-0.087c-0.635-1.478-1.271-2.944-1.911-4.396c-0.001-0.002-0.002-0.006-0.003-0.008
		c-1.932-4.391-3.88-8.66-5.836-12.788c-0.006-0.012-0.012-0.024-0.017-0.036c-0.64-1.35-1.281-2.684-1.921-4.003
		c-0.023-0.049-0.046-0.096-0.069-0.144c-0.64-1.316-1.281-2.618-1.922-3.902c-0.006-0.012-0.012-0.023-0.017-0.035
		c-1.943-3.893-3.885-7.633-5.817-11.203c-0.032-0.059-0.065-0.119-0.096-0.178c-0.618-1.142-1.237-2.264-1.853-3.371
		c-0.042-0.074-0.083-0.149-0.125-0.224c-0.621-1.111-1.24-2.205-1.857-3.278c-0.016-0.029-0.034-0.057-0.05-0.086
		c-1.264-2.196-2.522-4.312-3.77-6.344c-0.023-0.038-0.047-0.077-0.07-0.116c-0.599-0.973-1.195-1.926-1.789-2.859
		c-0.054-0.087-0.11-0.172-0.165-0.259c-0.581-0.912-1.16-1.804-1.737-2.675c-0.057-0.086-0.113-0.171-0.17-0.257
		c-0.584-0.881-1.166-1.743-1.744-2.581c-0.025-0.037-0.051-0.072-0.075-0.109c-1.184-1.713-2.353-3.334-3.507-4.864
		c-0.053-0.072-0.107-0.144-0.162-0.215c-0.544-0.718-1.084-1.412-1.62-2.087c-0.073-0.091-0.144-0.181-0.217-0.272
		c-0.531-0.663-1.059-1.306-1.581-1.926c-0.065-0.076-0.128-0.15-0.193-0.227c-0.536-0.63-1.068-1.242-1.594-1.826
		c-0.027-0.029-0.052-0.057-0.079-0.086c-0.532-0.587-1.059-1.151-1.58-1.689c-0.029-0.03-0.058-0.061-0.086-0.09
		c-0.51-0.524-1.014-1.019-1.514-1.494c-0.068-0.066-0.138-0.132-0.206-0.195c-0.482-0.454-0.959-0.884-1.432-1.291
		c-0.077-0.066-0.154-0.132-0.23-0.196c-0.472-0.4-0.937-0.779-1.398-1.132c-0.062-0.049-0.125-0.094-0.187-0.141
		c-0.476-0.359-0.949-0.698-1.414-1.006c-0.017-0.012-0.034-0.021-0.051-0.032c-0.461-0.304-0.915-0.578-1.365-0.828
		c-0.045-0.025-0.091-0.053-0.138-0.079c-0.437-0.239-0.866-0.447-1.29-0.633c-0.069-0.031-0.139-0.062-0.208-0.092
		c-0.413-0.175-0.818-0.324-1.219-0.447c-0.07-0.022-0.14-0.042-0.209-0.061c-0.402-0.117-0.8-0.212-1.188-0.275
		c-0.051-0.008-0.101-0.013-0.15-0.021c-0.407-0.059-0.809-0.097-1.201-0.097v321.564c1.071,0,2.143-0.006,3.214,0
		c0.254,0.001,0.521,0.002,0.802,0.003c17.69,0.024,88.01-2.517,93.231-44.284c0.112-1.011,0.212-2.035,0.305-3.064
		c0.022-0.246,0.044-0.494,0.065-0.741c0.178-2.071,0.318-4.176,0.421-6.314c0.012-0.247,0.023-0.495,0.035-0.743
		c0.095-2.154,0.154-4.342,0.176-6.56c0.002-0.245,0.005-0.49,0.006-0.735C502.431,286.331,502.41,284.067,502.355,281.774z"/>
	<path style="opacity:0.3;fill:#20272E;enable-background:new    ;" d="M206.088,285.279c0-0.025,0-0.051,0-0.076
		c-0.01-1.125-0.032-2.257-0.06-3.396c-0.007-0.264-0.014-0.527-0.021-0.792c-0.031-1.119-0.067-2.242-0.114-3.374
		c-0.001-0.02-0.001-0.039-0.002-0.06c-0.049-1.163-0.109-2.336-0.173-3.512c-0.014-0.257-0.029-0.513-0.044-0.771
		c-0.068-1.164-0.141-2.334-0.225-3.509c0-0.005-0.001-0.01-0.001-0.016c-0.086-1.201-0.183-2.409-0.284-3.621
		c-0.021-0.251-0.043-0.503-0.065-0.754c-0.104-1.195-0.213-2.395-0.332-3.601c0-0.005-0.001-0.009-0.001-0.013
		c-0.123-1.234-0.254-2.475-0.392-3.719c-0.027-0.24-0.054-0.481-0.081-0.722c-0.281-2.484-0.592-4.986-0.933-7.507
		c-0.031-0.23-0.062-0.461-0.095-0.691c-0.171-1.249-0.348-2.501-0.534-3.759c-0.001-0.006-0.001-0.012-0.002-0.017l0,0
		c-6.425-43.462-21.278-91.503-37.922-131.216l0,0c-0.002-0.007-0.006-0.014-0.008-0.021c-0.622-1.482-1.245-2.952-1.871-4.411
		c-0.024-0.057-0.049-0.112-0.073-0.169c-0.624-1.453-1.251-2.894-1.879-4.323c-0.014-0.03-0.027-0.06-0.039-0.09
		c-1.92-4.363-3.857-8.605-5.8-12.708c-0.014-0.028-0.027-0.057-0.04-0.086c-0.635-1.34-1.27-2.664-1.906-3.973
		c-0.027-0.055-0.054-0.111-0.081-0.168c-0.637-1.31-1.274-2.604-1.912-3.882c-0.009-0.02-0.02-0.038-0.029-0.058
		c-1.938-3.884-3.875-7.616-5.804-11.179c-0.036-0.066-0.07-0.131-0.106-0.196c-0.616-1.136-1.231-2.254-1.845-3.355
		c-0.045-0.08-0.09-0.161-0.135-0.24c-0.617-1.106-1.234-2.195-1.849-3.264c-0.02-0.035-0.039-0.068-0.06-0.103
		c-1.259-2.186-2.509-4.292-3.751-6.313c-0.03-0.049-0.059-0.097-0.089-0.144c-0.594-0.965-1.186-1.909-1.774-2.836
		c-0.06-0.095-0.12-0.19-0.18-0.283c-0.578-0.906-1.153-1.793-1.727-2.66c-0.059-0.09-0.119-0.179-0.178-0.268
		c-0.581-0.876-1.159-1.734-1.735-2.567c-0.03-0.044-0.06-0.087-0.09-0.131c-1.177-1.704-2.341-3.317-3.488-4.838
		c-0.058-0.076-0.116-0.155-0.173-0.231c-0.54-0.712-1.076-1.401-1.609-2.071c-0.077-0.097-0.155-0.194-0.232-0.291
		c-0.527-0.658-1.049-1.296-1.568-1.909c-0.069-0.082-0.138-0.162-0.207-0.243c-0.532-0.625-1.06-1.232-1.582-1.811
		c-0.031-0.035-0.061-0.067-0.092-0.101c-0.525-0.579-1.045-1.135-1.56-1.667c-0.034-0.035-0.067-0.071-0.099-0.104
		c-0.506-0.52-1.007-1.011-1.503-1.484c-0.073-0.069-0.146-0.141-0.218-0.209c-0.479-0.451-0.952-0.876-1.422-1.282
		c-0.081-0.069-0.161-0.138-0.24-0.206c-0.468-0.398-0.932-0.774-1.389-1.126c-0.066-0.051-0.131-0.097-0.196-0.147
		c-0.474-0.357-0.943-0.695-1.405-1c-0.02-0.014-0.039-0.024-0.06-0.038c-0.458-0.301-0.908-0.572-1.353-0.821
		c-0.047-0.027-0.096-0.057-0.144-0.082c-0.435-0.238-0.862-0.445-1.285-0.631c-0.07-0.031-0.142-0.064-0.213-0.094
		c-0.411-0.175-0.817-0.322-1.216-0.446c-0.071-0.022-0.141-0.043-0.212-0.062c-0.402-0.117-0.798-0.21-1.187-0.274
		c-0.051-0.008-0.102-0.013-0.153-0.021c-0.407-0.059-0.808-0.097-1.2-0.097l0,0l0,0l0,0c-0.392,0-0.793,0.038-1.201,0.097
		c-0.051,0.008-0.101,0.013-0.15,0.021c-0.161,0.027-0.328,0.077-0.491,0.113v321.334c1.685-0.006,3.371-0.009,5.057,0
		c0.254,0.001,0.521,0.002,0.802,0.003c17.69,0.024,88.01-2.517,93.231-44.284c0.001-0.012,0.002-0.024,0.003-0.037
		c0.11-0.992,0.207-1.995,0.299-3.003c0.024-0.264,0.047-0.527,0.069-0.792c0.086-1.004,0.166-2.013,0.235-3.034
		c0.001-0.023,0.003-0.046,0.005-0.069c0.069-1.043,0.126-2.098,0.178-3.156c0.013-0.266,0.025-0.532,0.037-0.799
		c0.046-1.045,0.086-2.095,0.114-3.155c0-0.022,0.001-0.043,0.002-0.065c0.029-1.085,0.046-2.181,0.057-3.281
		c0.002-0.266,0.005-0.532,0.007-0.799C206.098,287.456,206.099,286.372,206.088,285.279z"/>
</g>
<path style="fill:#FF8800;" d="M256,101.421c-35.933,0-128.011,213.906-115.263,328.651c6.286,50.289,92.201,52.6,111.453,52.483
	c2.539-0.015,5.08-0.015,7.619,0c19.251,0.117,105.167-2.194,111.453-52.483C384.012,315.328,291.932,101.421,256,101.421z"/>
<path style="fill:#FFE046;" d="M256.001,367.543c-40.477,0-78.693-3.677-112.47-10.193c-3.894,26.343-5.177,51.267-2.792,72.723
	c6.286,50.289,92.201,52.6,111.453,52.483c2.539-0.015,5.08-0.015,7.619,0c19.251,0.117,105.167-2.194,111.453-52.483
	c2.384-21.456,1.101-46.379-2.792-72.723C334.694,363.866,296.478,367.543,256.001,367.543z"/>
<path style="fill:#EEE5DD;" d="M256.001,205.351c23.404,0,46.051-1.23,67.522-3.526c-24.137-57.59-51.447-100.404-67.522-100.404
	s-43.387,42.813-67.522,100.404C209.949,204.121,232.596,205.351,256.001,205.351z"/>
<g>
	<path style="opacity:0.3;fill:#20272E;enable-background:new    ;" d="M372.453,404.628c0-0.021,0-0.04,0-0.06
		c-0.013-1.337-0.038-2.685-0.07-4.04c-0.007-0.306-0.015-0.613-0.024-0.919c-0.037-1.341-0.081-2.687-0.136-4.043
		c0-0.009-0.001-0.02-0.001-0.028c-0.058-1.385-0.128-2.779-0.207-4.178c-0.016-0.299-0.034-0.599-0.052-0.898
		c-0.164-2.802-0.366-5.633-0.607-8.491c-0.024-0.289-0.05-0.579-0.075-0.869c-0.25-2.877-0.537-5.779-0.861-8.706
		c-0.031-0.284-0.064-0.569-0.096-0.853c-0.333-2.944-0.702-5.912-1.106-8.9c-0.037-0.273-0.074-0.546-0.112-0.818
		c-0.203-1.483-0.413-2.968-0.633-4.46c-0.001-0.005-0.001-0.01-0.002-0.016l0,0c-7.614-51.513-25.22-108.454-44.947-155.524l0,0
		c-0.001-0.003-0.002-0.007-0.005-0.01c-0.74-1.763-1.482-3.512-2.226-5.247c-0.027-0.064-0.054-0.126-0.081-0.19
		c-0.742-1.728-1.487-3.443-2.234-5.141c-0.012-0.027-0.023-0.052-0.035-0.079c-2.28-5.183-4.582-10.222-6.89-15.095
		c-0.012-0.025-0.024-0.051-0.036-0.077c-0.755-1.593-1.511-3.167-2.268-4.724c-0.03-0.061-0.06-0.123-0.09-0.185
		c-0.757-1.557-1.515-3.096-2.272-4.616c-0.008-0.016-0.016-0.031-0.024-0.047c-2.301-4.613-4.602-9.044-6.893-13.274
		c-0.038-0.071-0.076-0.141-0.113-0.21c-0.734-1.355-1.467-2.687-2.198-3.999c-0.049-0.087-0.096-0.171-0.144-0.258
		c-0.736-1.319-1.471-2.617-2.204-3.89c-0.02-0.034-0.039-0.067-0.058-0.101c-1.497-2.601-2.985-5.106-4.464-7.512
		c-0.03-0.05-0.061-0.101-0.091-0.15c-0.706-1.149-1.41-2.272-2.112-3.374c-0.069-0.109-0.138-0.217-0.207-0.325
		c-0.687-1.076-1.371-2.129-2.05-3.158c-0.069-0.105-0.139-0.209-0.209-0.314c-0.691-1.041-1.379-2.061-2.062-3.052
		c-0.03-0.045-0.061-0.088-0.091-0.132c-1.401-2.027-2.784-3.947-4.151-5.755c-0.066-0.088-0.133-0.177-0.199-0.265
		c-0.641-0.845-1.277-1.663-1.909-2.458c-0.091-0.116-0.183-0.229-0.274-0.343c-0.625-0.78-1.246-1.537-1.861-2.267
		c-0.081-0.096-0.161-0.19-0.242-0.284c-0.631-0.743-1.258-1.463-1.878-2.151c-0.036-0.039-0.07-0.076-0.106-0.117
		c-0.625-0.69-1.245-1.351-1.857-1.985c-0.036-0.037-0.073-0.077-0.109-0.114c-0.601-0.618-1.195-1.202-1.785-1.763
		c-0.086-0.081-0.171-0.165-0.257-0.245c-0.569-0.535-1.13-1.04-1.686-1.521c-0.095-0.082-0.188-0.162-0.283-0.242
		c-0.556-0.472-1.106-0.919-1.649-1.335c-0.077-0.059-0.154-0.116-0.231-0.173c-0.562-0.424-1.119-0.824-1.667-1.186
		c-0.024-0.016-0.047-0.029-0.07-0.045c-0.542-0.357-1.077-0.678-1.605-0.973c-0.057-0.031-0.113-0.066-0.17-0.097
		c-0.516-0.282-1.023-0.528-1.523-0.749c-0.084-0.037-0.168-0.075-0.252-0.111c-0.488-0.207-0.969-0.383-1.441-0.529
		c-0.084-0.025-0.168-0.05-0.251-0.074c-0.476-0.138-0.945-0.25-1.405-0.325c-0.061-0.009-0.12-0.015-0.18-0.024
		c-0.482-0.072-0.958-0.116-1.422-0.116v381.134c1.269,0,2.539-0.007,3.808,0c0.301,0.001,0.618,0.002,0.951,0.003
		c20.966,0.029,104.314-2.983,110.502-52.486c0.001-0.013,0.002-0.024,0.003-0.037c0.131-1.178,0.246-2.369,0.355-3.567
		c0.028-0.312,0.055-0.624,0.082-0.937c0.103-1.195,0.198-2.397,0.279-3.612c0.001-0.021,0.003-0.042,0.005-0.062
		c0.082-1.237,0.149-2.486,0.21-3.741c0.015-0.318,0.03-0.636,0.044-0.955c0.054-1.238,0.102-2.48,0.135-3.736
		c0.001-0.025,0.002-0.051,0.002-0.076c0.035-1.286,0.054-2.586,0.068-3.89c0.003-0.313,0.006-0.628,0.008-0.943
		C372.463,407.227,372.465,405.933,372.453,404.628z"/>
	<path style="fill:#20272E;" d="M485.445,153.537c-5.002-14.949-10.482-29.48-16.191-43.099c-0.009-0.024-0.015-0.049-0.025-0.072
		c-0.451-1.076-0.904-2.137-1.357-3.2c-0.082-0.191-0.163-0.385-0.244-0.576c-6.541-15.305-13.696-30.395-21.98-44.842
		c-6.907-12.045-14.807-25.167-25.44-34.299c-17.924-15.394-35.516,0.672-46.25,15.986c-14.583,20.803-25.533,44.834-35.201,68.209
		c-3.766,9.103-7.331,18.289-10.679,27.554c-1.796,4.972-3.531,9.968-5.203,14.984c-0.792,2.373-5.562,12.129-4.56,14.228
		c-8.147-16.899-16.355-31.689-24.245-43.606c-14.676-22.165-26.741-32.487-37.966-32.487c-11.225,0-23.289,10.324-37.966,32.487
		c-7.891,11.916-16.098,26.706-24.245,43.605c-13.89-45.179-31.515-98.947-63.841-134.742c-0.347-0.392-0.689-0.758-1.033-1.133
		c-0.066-0.071-0.132-0.143-0.199-0.214c-13.946-15.051-28.892-14.598-42.609,0.892c-18.476,20.863-30.79,47.984-41.625,73.354
		c-0.098,0.23-0.195,0.463-0.294,0.693c-0.439,1.031-0.88,2.06-1.316,3.103c-0.009,0.023-0.015,0.049-0.024,0.072
		c-5.709,13.62-11.188,28.15-16.192,43.101C15.186,188.129,5.949,223.994,2.367,260.36c-1.66,16.833-5.106,38.715,1.639,54.597
		c6.953,16.371,22.038,28.747,38.327,35.173c15.452,6.096,32.138,7.814,48.618,8.265c3.122,0.086,43.395,2.263,43.759-0.297
		c-3.923,27.584-4.765,51.971-2.485,72.496c0.005,0.039,0.009,0.079,0.014,0.119c6.97,55.747,92.701,60.079,118.811,60.079
		l1.298-0.003c2.505-0.016,5.006-0.016,7.513,0l1.296,0.003c26.11,0,111.842-4.332,118.811-60.079
		c0.005-0.039,0.009-0.079,0.014-0.119c2.28-20.525,1.438-44.91-2.483-72.496c30.31,3.019,62.913,2.019,91.855-8.162
		c12.119-4.263,24.016-10.586,31.751-20.843c15.588-20.672,10.764-53.495,7.753-77.474c-3.251-25.898-9.229-51.443-16.607-76.459
		C490.113,167.913,487.844,160.703,485.445,153.537z M360.833,104.304c0.168-0.373,0.335-0.748,0.503-1.118
		c2.787-6.149,5.628-12.094,8.503-17.768c5.8-11.441,12.113-22.773,19.673-33.154c0.061-0.084,0.122-0.169,0.185-0.253
		c7.349-9.998,12.256-13.652,14.248-14.256c0.109-0.029,0.222-0.062,0.327-0.075c0.082,0.012,0.175,0.04,0.262,0.062
		c1.612,0.467,5.574,3.147,11.641,10.764c3.811,4.824,8.314,11.392,13.357,20.009c6.28,10.769,12.746,23.605,19.018,37.695
		c-14.479,1.202-29.324,1.81-44.284,1.81c-14.958,0-29.802-0.608-44.28-1.81C360.268,105.578,360.549,104.935,360.833,104.304z
		 M352.847,122.981c16.752,1.577,34.015,2.379,51.419,2.379c17.401,0,34.66-0.801,51.408-2.377c1.755,4.32,3.484,8.71,5.172,13.168
		c13.473,35.576,23.151,70.615,28.415,101.769c-26.698,4.606-55.242,6.946-84.997,6.946c-18.999,0-37.776-0.992-55.917-2.928
		c-5.105-14.774-10.681-29.418-16.639-43.642c-0.032-0.086-0.055-0.173-0.09-0.258c-0.757-1.805-1.516-3.595-2.277-5.369
		C335.675,169.272,343.803,145.264,352.847,122.981z M232.592,134.377c13.429-20.282,21.525-24.724,23.511-24.724
		c1.987,0,10.081,4.442,23.51,24.723c9.969,15.054,20.937,35.906,31.358,59.529c-17.922,1.556-36.326,2.342-54.87,2.342
		c-18.544,0-36.948-0.787-54.87-2.342C211.655,170.282,222.623,149.43,232.592,134.377z M194.147,210.656
		c20.177,1.937,40.981,2.928,61.957,2.928c20.974,0,41.779-0.991,61.956-2.928c18.258,44.703,32.146,91.227,40.642,138.776
		c0.733,4.102-94.249,9.007-102.599,9.007c-35.955,0-70.429-2.874-102.625-8.533c0.031-0.142,0.082-0.277,0.106-0.423
		c5.665-33.923,14.763-67.15,25.887-99.667c2.29-6.693,4.679-13.352,7.163-19.975C187.304,228.05,193.14,210.559,194.147,210.656z
		 M82.599,68.648c5.079-8.689,9.612-15.306,13.444-20.156c6.059-7.604,10.016-10.281,11.627-10.748
		c0.089-0.022,0.184-0.051,0.269-0.064c0.099,0.014,0.212,0.047,0.32,0.076c2.242,0.588,4.312,2.803,5.895,4.352
		c3.302,3.234,6.088,6.896,8.796,10.628c7.458,10.279,13.743,21.335,19.416,32.684c2.874,5.672,5.715,11.615,8.501,17.761
		c0.17,0.376,0.34,0.755,0.51,1.134c0.282,0.628,0.562,1.267,0.843,1.899c-14.479,1.201-29.323,1.81-44.281,1.81
		c-14.96,0-29.805-0.608-44.284-1.81C69.902,92.179,76.342,79.39,82.599,68.648z M51.359,136.15
		c1.687-4.458,3.418-8.848,5.172-13.168c16.748,1.575,34.007,2.377,51.408,2.377c17.404,0,34.667-0.802,51.419-2.379
		c9.044,22.282,17.172,46.29,23.504,69.687c-0.762,1.774-1.521,3.563-2.278,5.37c-0.035,0.083-0.058,0.17-0.09,0.254
		c-5.958,14.225-11.534,28.87-16.639,43.644c-18.14,1.936-36.918,2.928-55.917,2.928c-29.754,0-58.298-2.34-84.997-6.946
		C28.209,206.765,37.886,171.726,51.359,136.15z M146.859,298.201c-3.591,13.937-6.723,27.991-9.281,42.14
		c-27.075,3.335-56.472,2.966-82.834-4.652c-9.504-2.746-19.304-6.678-26.586-13.595c-7.816-7.424-9.7-18.621-9.874-29.069
		c-0.21-12.634,0.643-25.44,2.154-37.937c27.542,4.721,56.929,7.113,87.501,7.113c16.891,0,33.628-0.751,49.927-2.24
		c-0.312,0.981-0.602,1.958-0.91,2.938C153.304,274.571,149.915,286.344,146.859,298.201z M362.757,428.617
		c-5.403,42.677-85.578,44.838-101.601,44.838l-1.189-0.003c-1.288-0.008-2.575-0.013-3.864-0.013c-1.289,0-2.576,0.005-3.862,0.013
		l-1.192,0.003c-16.023,0-96.198-2.161-101.601-44.838c-1.934-17.461-1.414-38.127,1.54-61.537
		c33.036,5.772,68.35,8.696,105.115,8.696s72.078-2.924,105.115-8.696C364.17,390.49,364.69,411.155,362.757,428.617z
		 M493.9,290.072c-0.001,0.614-0.006,1.226-0.012,1.839c-0.105,10.654-1.522,21.964-9.384,29.741
		c-7.284,7.206-17.368,11.241-27.045,14.037c-6.545,1.891-13.301,3.212-19.7,4.134c-0.415,0.059-0.829,0.118-1.24,0.173
		c-0.022,0.003-0.044,0.006-0.067,0.009c-19.649,2.658-40.1,2.792-59.806,0.572c-0.667-0.075-1.341-0.155-2.02-0.238
		c-1.334-0.164-6.967-32.768-7.724-35.847c-3.423-13.926-6.945-28.058-11.661-41.614c-0.305-0.973-0.594-1.944-0.903-2.918
		c16.298,1.488,33.036,2.24,49.927,2.24c30.572,0,59.959-2.391,87.501-7.113C493.165,266.653,493.931,278.396,493.9,290.072z"/>
</g>
<g>
</g>
<g>
</g>
<g>
</g>
<g>
</g>
<g>
</g>
<g>
</g>
<g>
</g>
<g>
</g>
<g>
</g>
<g>
</g>
<g>
</g>
<g>
</g>
<g>
</g>
<g>
</g>
<g>
</g>
</svg>
