<?xml version="1.0" encoding="iso-8859-1"?>
<!-- Generator: Adobe Illustrator 19.0.0, SVG Export Plug-In . SVG Version: 6.00 Build 0)  -->
<svg version="1.1" id="Layer_1" xmlns="http://www.w3.org/2000/svg" xmlns:xlink="http://www.w3.org/1999/xlink" x="0px" y="0px"
	 viewBox="0 0 512.001 512.001" style="enable-background:new 0 0 512.001 512.001;" xml:space="preserve">
<g>
	<circle style="fill:#00C279;" cx="168.037" cy="142.308" r="32.983"/>
	<circle style="fill:#00C279;" cx="207.903" cy="39.351" r="23.421"/>
	<circle style="fill:#00C279;" cx="275.093" cy="136.627" r="23.421"/>
</g>
<path style="fill:#664B33;" d="M356.102,220.828l96.196-164.43c6.822-12.448,2.26-28.069-10.189-34.891
	c-12.448-6.822-28.069-2.26-34.891,10.189L297.487,220.828H356.102z"/>
<g>
	<path style="fill:#B857D0;" d="M101.592,409.715l-3.789,61.072c-1.282,20.671,22.658,32.969,38.714,19.887l43.129-35.143
		L101.592,409.715z"/>
	<path style="fill:#B857D0;" d="M414.197,470.787l-3.789-61.072l-78.053,45.815l43.129,35.143
		C391.54,503.755,415.481,491.459,414.197,470.787z"/>
</g>
<path style="fill:#A93CCB;" d="M36.544,235.708v24.063l0,0c0,113.43,91.954,205.384,205.384,205.384h28.145
	c113.43,0,205.384-91.954,205.384-205.384l0,0v-24.063H36.544z"/>
<path style="fill:#B857D0;" d="M475.456,206.975H36.544c-14.58,0-26.399,11.819-26.399,26.399l0,0
	c0,14.58,11.819,26.399,26.399,26.399h438.911c14.58,0,26.399-11.819,26.399-26.399l0,0
	C501.854,218.794,490.036,206.975,475.456,206.975z"/>
<g>
	<path style="opacity:0.3;fill:#20272E;enable-background:new    ;" d="M473.251,289.894c1.445-9.833,2.205-19.888,2.205-30.123
		H36.544c0,10.233,0.76,20.29,2.205,30.123H473.251z"/>
	<path style="opacity:0.3;fill:#20272E;enable-background:new    ;" d="M475.456,206.975H255.999v258.18h14.073
		c21.714,0,42.637-3.38,62.283-9.626l0,0l43.129,35.143c16.056,13.082,39.996,0.785,38.714-19.887l-3.789-61.072
		c40.026-37.476,65.048-90.784,65.048-149.943l0,0c14.58,0,26.399-11.819,26.399-26.399l0,0
		C501.854,218.794,490.036,206.975,475.456,206.975z"/>
	<path style="fill:#20272E;" d="M168.039,185.442c23.781,0,43.128-19.347,43.128-43.128s-19.347-43.128-43.128-43.128
		s-43.128,19.347-43.128,43.128C124.909,166.093,144.258,185.442,168.039,185.442z M168.039,119.477
		c12.593,0,22.837,10.244,22.837,22.837c0,12.593-10.244,22.837-22.837,22.837c-12.593,0-22.837-10.244-22.837-22.837
		C145.2,129.721,155.446,119.477,168.039,119.477z"/>
	<path style="fill:#20272E;" d="M207.909,72.921c18.51,0,33.567-15.059,33.567-33.567S226.419,5.787,207.909,5.787
		s-33.567,15.057-33.567,33.567S189.401,72.921,207.909,72.921z M207.909,26.078c7.321,0,13.276,5.955,13.276,13.276
		s-5.956,13.276-13.276,13.276s-13.276-5.956-13.276-13.276S200.59,26.078,207.909,26.078z"/>
	<path style="fill:#20272E;" d="M275.097,170.199c18.51,0,33.567-15.057,33.567-33.567s-15.059-33.567-33.567-33.567
		s-33.567,15.059-33.567,33.567S256.589,170.199,275.097,170.199z M275.097,123.355c7.321,0,13.276,5.956,13.276,13.276
		c0,7.32-5.956,13.276-13.276,13.276s-13.276-5.955-13.276-13.276C261.822,129.31,267.778,123.355,275.097,123.355z"/>
	<path style="fill:#20272E;" d="M475.456,196.829h-93.558l79.158-135.308c0.047-0.083,0.095-0.165,0.141-0.248
		c4.602-8.398,5.659-18.083,2.973-27.275c-2.684-9.192-8.787-16.788-17.184-21.39c-5.27-2.888-11.22-4.415-17.203-4.415
		c-13.065,0-25.083,7.087-31.394,18.507l-98.705,170.127H36.544C16.394,196.829,0,213.223,0,233.373
		c0,16.7,11.264,30.809,26.591,35.155c2.279,56.734,26.587,107.885,64.591,145.123l-3.506,56.508
		c-0.587,9.466,2.607,18.423,8.994,25.219c6.47,6.885,15.57,10.834,24.966,10.835c0.001,0,0.003,0,0.004,0
		c7.762,0,15.122-2.654,21.285-7.675l38.97-31.754c19.064,5.538,39.206,8.517,60.033,8.517h28.145
		c20.827,0,40.968-2.98,60.033-8.517l38.97,31.754c6.162,5.02,13.523,7.674,21.287,7.674h0.001c9.395,0,18.495-3.947,24.965-10.831
		c6.389-6.798,9.584-15.754,8.997-25.223l-3.506-56.508c38.004-37.237,62.311-88.389,64.591-145.123
		c15.327-4.346,26.591-18.455,26.591-35.155C512,213.223,495.606,196.829,475.456,196.829z M415.995,36.788
		c0.042-0.072,0.083-0.143,0.122-0.216c2.734-4.988,7.969-8.085,13.665-8.085c2.622,0,5.13,0.647,7.452,1.918
		c3.644,1.997,6.293,5.293,7.458,9.281c1.154,3.949,0.716,8.108-1.231,11.727L358.39,196.828h-35.248L415.995,36.788z
		 M130.108,482.808c-2.536,2.067-5.385,3.114-8.468,3.114h-0.001c-3.763,0-7.57-1.66-10.182-4.44
		c-1.776-1.891-3.832-5.173-3.528-10.067l2.536-40.873c10.399,7.999,21.541,15.03,33.192,21.022
		c0.131,0.068,0.261,0.135,0.392,0.203c1.499,0.767,3.004,1.518,4.52,2.25c0,0,0.001,0.001,0.003,0.001
		c3.579,1.727,7.193,3.376,10.856,4.901L130.108,482.808z M400.542,481.485c-2.612,2.779-6.417,4.437-10.179,4.437
		c-3.084,0-5.934-1.047-8.471-3.114l-29.319-23.892c5.222-2.172,10.35-4.578,15.393-7.159c0.118-0.061,0.235-0.122,0.353-0.183
		c11.659-5.994,22.81-13.03,33.217-21.034l2.536,40.873C404.376,476.311,402.32,479.594,400.542,481.485z M270.072,455.01h-28.145
		c-104.252,0-189.68-82.136-194.979-185.093h418.101C459.752,372.873,374.324,455.01,270.072,455.01z M475.456,249.625H36.544
		c-8.962,0-16.253-7.291-16.253-16.253s7.291-16.253,16.253-16.253h268.98h58.683h111.248c8.962,0,16.253,7.291,16.253,16.253
		S484.418,249.625,475.456,249.625z"/>
</g>
<g>
</g>
<g>
</g>
<g>
</g>
<g>
</g>
<g>
</g>
<g>
</g>
<g>
</g>
<g>
</g>
<g>
</g>
<g>
</g>
<g>
</g>
<g>
</g>
<g>
</g>
<g>
</g>
<g>
</g>
</svg>
