<?xml version="1.0" encoding="iso-8859-1"?>
<!-- Generator: Adobe Illustrator 19.0.0, SVG Export Plug-In . SVG Version: 6.00 Build 0)  -->
<svg version="1.1" id="Layer_1" xmlns="http://www.w3.org/2000/svg" xmlns:xlink="http://www.w3.org/1999/xlink" x="0px" y="0px"
	 viewBox="0 0 512.003 512.003" style="enable-background:new 0 0 512.003 512.003;" xml:space="preserve">
<path style="fill:#EEE5DD;" d="M503.117,256c-71.133-25.296-104.79-106.55-72.379-174.736l0,0l0,0
	c-68.186,32.411-149.44-1.245-174.736-72.378l0,0l0,0C230.706,80.019,149.452,113.675,81.266,81.264l0,0l0,0
	C113.677,149.45,80.021,230.704,8.888,256l0,0l0,0c71.133,25.296,104.79,106.55,72.378,174.736l0,0l0,0
	c68.186-32.411,149.44,1.245,174.736,72.378l0,0l0,0c25.296-71.133,106.55-104.79,174.736-72.378l0,0l0,0
	C398.327,362.551,431.983,281.296,503.117,256L503.117,256L503.117,256z"/>
<g>
	<path style="opacity:0.3;fill:#20272E;enable-background:new    ;" d="M430.738,81.264L430.738,81.264L430.738,81.264
		c-68.186,32.411-149.44-1.245-174.736-72.378v494.229c25.296-71.133,106.55-104.79,174.736-72.378l0,0l0,0
		c-32.411-68.186,1.245-149.44,72.379-174.736l0,0C431.983,230.704,398.327,149.45,430.738,81.264z"/>
	<path style="fill:#20272E;" d="M511.906,254.752c-0.474-3.153-2.676-5.958-5.706-7.082c-0.037-0.013-0.068-0.033-0.104-0.046
		c-31.539-11.216-56.974-35.384-69.783-66.309c-12.81-30.926-11.915-66.002,2.455-96.235c0.014-0.031,0.021-0.063,0.036-0.095
		c1.593-3.453,0.718-7.762-2.109-10.316c-2.581-2.332-6.508-2.926-9.664-1.478c-0.037,0.017-0.075,0.025-0.11,0.043
		c-16.085,7.646-33.172,11.524-50.786,11.525c-50.072,0.001-94.984-31.686-111.757-78.85c-0.012-0.034-0.031-0.063-0.044-0.097
		c-1.304-3.533-4.899-5.947-8.669-5.805c-3.526,0.133-6.777,2.5-7.998,5.805c-0.012,0.033-0.031,0.063-0.044,0.097
		c-16.771,47.16-61.682,78.848-111.757,78.851c-17.609,0.001-34.696-3.878-50.786-11.525c-0.034-0.017-0.071-0.025-0.107-0.04
		c-3.365-1.546-7.529-0.771-10.105,1.9c-2.495,2.587-3.175,6.617-1.677,9.878c0.017,0.036,0.025,0.073,0.041,0.109
		c14.371,30.232,15.266,65.308,2.456,96.234c-12.81,30.925-38.244,55.095-69.783,66.31c-0.037,0.013-0.069,0.033-0.104,0.046
		c-3.511,1.3-5.911,4.847-5.798,8.597c0.107,3.554,2.468,6.829,5.798,8.063c0.037,0.013,0.069,0.034,0.106,0.047
		c31.539,11.216,56.974,35.386,69.784,66.31c12.81,30.926,11.914,66.001-2.456,96.232c-0.015,0.033-0.024,0.069-0.039,0.102
		c-1.5,3.259-0.823,7.294,1.67,9.881c2.577,2.673,6.744,3.451,10.112,1.903c0.034-0.015,0.07-0.024,0.103-0.039
		c16.087-7.646,33.172-11.524,50.785-11.524c50.073,0,94.985,31.687,111.757,78.851c0.013,0.036,0.033,0.068,0.046,0.102
		c1.226,3.314,4.48,5.674,8.017,5.799c3.765,0.133,7.34-2.272,8.645-5.799c0.013-0.036,0.033-0.066,0.046-0.102
		c16.772-47.163,61.685-78.851,111.758-78.851c17.611,0,34.698,3.878,50.785,11.524c0.036,0.017,0.072,0.025,0.108,0.042
		c3.23,1.484,7.237,0.83,9.821-1.621c2.714-2.571,3.517-6.784,1.954-10.174c-0.014-0.031-0.021-0.064-0.036-0.095
		c-14.37-30.231-15.265-65.308-2.455-96.232c12.81-30.926,38.245-55.095,69.784-66.31c0.037-0.013,0.069-0.033,0.105-0.047
		c3.262-1.209,5.614-4.402,5.79-7.881C512.02,255.878,511.99,255.31,511.906,254.752z M92.12,188.119
		c9.898-23.895,12.669-49.943,8.417-75.009l43.229,43.229c-1.888,16.537-6.03,32.683-12.391,48.04
		c-6.36,15.355-14.847,29.7-25.207,42.732H45.032C65.764,232.391,82.222,212.013,92.12,188.119z M187.056,227.44
		c-2.763,6.671-5.87,13.259-9.236,19.67h-49.542c7.734-11.262,14.287-23.281,19.524-35.927c5.238-12.646,9.104-25.779,11.598-39.21
		l35.031,35.031C192.281,213.914,189.82,220.77,187.056,227.44z M194.432,304.996l-35.031,35.031
		c-2.494-13.431-6.36-26.564-11.598-39.209c-5.237-12.646-11.789-24.666-19.523-35.927h49.542
		c3.365,6.407,6.473,12.996,9.236,19.668C189.82,291.234,192.282,298.089,194.432,304.996z M92.12,323.882
		c-9.897-23.894-26.356-44.272-47.087-58.991h61.134c10.36,13.029,18.846,27.374,25.207,42.732
		c6.361,15.359,10.504,31.502,12.392,48.039l-43.229,43.23C104.789,373.824,102.018,347.777,92.12,323.882z M247.111,466.983
		c-25.162-35.403-66.396-57.522-111.244-57.522c-7.658,0-15.224,0.658-22.675,1.923l43.197-43.197
		c33.219,3.838,64.417,16.807,90.722,37.713V466.983z M247.111,383.782c-22.668-15.595-48.143-26.184-75.099-31.218l35.021-35.021
		c13.82,4.31,27.258,9.895,40.079,16.653V383.782z M197.717,247.11c2.038-4.244,3.975-8.538,5.767-12.866
		c1.792-4.327,3.458-8.731,5.018-13.17l26.036,26.036H197.717z M234.537,264.892l-26.035,26.035
		c-1.559-4.44-3.226-8.842-5.018-13.173c-1.792-4.327-3.728-8.619-5.766-12.863h36.819V264.892z M247.111,314.286
		c-8.466-4.077-17.156-7.686-26.013-10.807l26.013-26.013V314.286z M247.111,234.535l-26.013-26.013
		c8.858-3.12,17.546-6.73,26.013-10.807V234.535z M247.111,177.804c-12.822,6.758-26.26,12.342-40.079,16.652l-35.019-35.019
		c26.955-5.033,52.43-15.623,75.098-31.219V177.804z M247.111,106.1c-26.306,20.905-57.504,33.875-90.721,37.714l-43.195-43.195
		c7.452,1.265,15.017,1.923,22.675,1.923c44.848-0.004,86.08-22.122,111.241-57.523V106.1z M264.893,45.019
		c25.162,35.403,66.396,57.524,111.243,57.523c7.658,0,15.225-0.659,22.676-1.924l-43.198,43.198
		c-33.216-3.837-64.414-16.806-90.722-37.713V45.019H264.893z M334.185,247.11c-3.365-6.409-6.473-12.997-9.236-19.668
		c-2.766-6.678-5.228-13.534-7.376-20.438l35.031-35.031c2.494,13.431,6.36,26.564,11.598,39.21
		c5.237,12.645,11.789,24.664,19.523,35.927H334.185z M383.726,264.892c-7.734,11.262-14.286,23.281-19.523,35.927
		c-5.239,12.646-9.104,25.779-11.598,39.209l-35.031-35.031c2.15-6.909,4.611-13.764,7.375-20.435
		c2.766-6.674,5.873-13.264,9.237-19.67L383.726,264.892L383.726,264.892z M264.893,128.219
		c22.669,15.596,48.145,26.185,75.099,31.218l-35.019,35.019c-13.819-4.309-27.257-9.893-40.079-16.652v-49.585H264.893z
		 M277.467,247.11l26.036-26.036c1.559,4.44,3.224,8.843,5.018,13.173c1.792,4.327,3.728,8.619,5.766,12.863H277.467z
		 M314.287,264.892c-2.038,4.243-3.974,8.535-5.767,12.866c-1.792,4.327-3.458,8.73-5.017,13.169l-26.035-26.035H314.287
		L314.287,264.892z M264.893,197.716c8.468,4.077,17.156,7.686,26.013,10.807l-26.013,26.013V197.716z M264.893,277.465
		l26.015,26.015c-8.859,3.12-17.548,6.73-26.015,10.807V277.465z M264.893,334.197c12.821-6.758,26.26-12.342,40.08-16.652
		l35.021,35.021c-26.956,5.033-52.431,15.622-75.101,31.218V334.197L264.893,334.197z M376.137,409.461
		c-44.848,0-86.083,22.118-111.244,57.522V405.9c26.306-20.905,57.505-33.874,90.724-37.713l43.197,43.197
		C391.36,410.119,383.795,409.461,376.137,409.461z M419.884,323.882c-9.897,23.895-12.668,49.941-8.417,75.008l-43.227-43.227
		c1.888-16.537,6.03-32.68,12.392-48.039c6.361-15.357,14.848-29.703,25.207-42.732h61.134
		C446.242,279.611,429.782,299.988,419.884,323.882z M405.838,247.11c-10.36-13.032-18.847-27.377-25.206-42.732
		c-6.361-15.357-10.504-31.503-12.392-48.04l43.229-43.229c-4.251,25.067-1.481,51.114,8.418,75.01
		c9.897,23.894,26.357,44.271,47.087,58.99H405.838z"/>
</g>
<g>
</g>
<g>
</g>
<g>
</g>
<g>
</g>
<g>
</g>
<g>
</g>
<g>
</g>
<g>
</g>
<g>
</g>
<g>
</g>
<g>
</g>
<g>
</g>
<g>
</g>
<g>
</g>
<g>
</g>
</svg>
