<?xml version="1.0" encoding="iso-8859-1"?>
<!-- Generator: Adobe Illustrator 19.0.0, SVG Export Plug-In . SVG Version: 6.00 Build 0)  -->
<svg version="1.1" id="Layer_1" xmlns="http://www.w3.org/2000/svg" xmlns:xlink="http://www.w3.org/1999/xlink" x="0px" y="0px"
	 viewBox="0 0 512 512" style="enable-background:new 0 0 512 512;" xml:space="preserve">
<polygon style="fill:#4D3926;" points="366.086,9.164 425.202,188.23 346.742,502.836 165.258,502.836 86.798,188.23 145.914,9.164 
	"/>
<polygon style="fill:#664B33;" points="198.669,460.071 131.286,189.887 176.831,51.929 335.168,51.929 380.714,189.887 
	313.331,460.071 "/>
<path style="fill:#00C279;" d="M294.77,156.419h-29.606v-27.945c0-5.062-4.102-9.164-9.164-9.164c-5.062,0-9.164,4.102-9.164,9.164
	v27.945h-29.606c-5.062,0-9.164,4.102-9.164,9.164s4.102,9.164,9.164,9.164h29.606v86.593c0,5.062,4.102,9.164,9.164,9.164
	c5.062,0,9.164-4.102,9.164-9.164v-86.593h29.606c5.062,0,9.164-4.102,9.164-9.164S299.832,156.419,294.77,156.419z"/>
<g>
	<polygon style="opacity:0.3;fill:#20272E;enable-background:new    ;" points="366.086,9.164 255.999,9.164 255.999,502.836 
		346.742,502.836 425.202,188.23 	"/>
	<path style="fill:#20272E;" d="M346.742,512H165.258c-4.207,0-7.874-2.865-8.891-6.947l-78.46-314.606
		c-0.419-1.68-0.353-3.444,0.189-5.09L137.212,6.29c1.239-3.754,4.747-6.29,8.702-6.29h220.173c3.954,0,7.462,2.537,8.702,6.29
		l59.115,179.066c0.542,1.646,0.608,3.41,0.189,5.09l-78.459,314.607C354.615,509.135,350.95,512,346.742,512z M172.417,493.672
		h167.166l76.086-305.087L359.461,18.328H152.539L96.332,188.585L172.417,493.672z"/>
	<path style="fill:#20272E;" d="M313.331,469.235H198.667c-4.207,0-7.874-2.865-8.891-6.947l-67.382-270.184
		c-0.419-1.68-0.353-3.444,0.189-5.09l45.545-137.958c1.24-3.754,4.748-6.29,8.702-6.29h158.338c3.954,0,7.462,2.537,8.702,6.29
		l45.545,137.958c0.543,1.646,0.608,3.41,0.189,5.09l-67.38,270.185C321.205,466.37,317.539,469.235,313.331,469.235z
		 M205.828,450.907h100.345l65.008-260.664l-42.637-129.15H183.457l-42.638,129.15L205.828,450.907z"/>
</g>
<path style="fill:#EEE5DD;" d="M294.77,156.419h-29.606v-27.945c0-5.062-4.102-9.164-9.164-9.164c-5.062,0-9.164,4.102-9.164,9.164
	v27.945h-29.606c-5.062,0-9.164,4.102-9.164,9.164s4.102,9.164,9.164,9.164h29.606v86.593c0,5.062,4.102,9.164,9.164,9.164
	c5.062,0,9.164-4.102,9.164-9.164v-86.593h29.606c5.062,0,9.164-4.102,9.164-9.164S299.832,156.419,294.77,156.419z"/>
<g>
</g>
<g>
</g>
<g>
</g>
<g>
</g>
<g>
</g>
<g>
</g>
<g>
</g>
<g>
</g>
<g>
</g>
<g>
</g>
<g>
</g>
<g>
</g>
<g>
</g>
<g>
</g>
<g>
</g>
</svg>
