<?xml version="1.0" encoding="iso-8859-1"?>
<!-- Generator: Adobe Illustrator 19.0.0, SVG Export Plug-In . SVG Version: 6.00 Build 0)  -->
<svg version="1.1" id="Layer_1" xmlns="http://www.w3.org/2000/svg" xmlns:xlink="http://www.w3.org/1999/xlink" x="0px" y="0px"
	 viewBox="0 0 512 512" style="enable-background:new 0 0 512 512;" xml:space="preserve">
<path style="fill:#664B33;" d="M414.136,436.167H97.866c-36.773,0-66.584,29.811-66.584,66.583h449.437
	C480.719,465.977,450.909,436.167,414.136,436.167z"/>
<path style="fill:#00D8DE;" d="M256.001,9.252L256.001,9.252c-119.755,0-216.833,97.08-216.833,216.833v2.738
	c0,57.957,22.74,112.335,59.782,153.026h314.102c37.043-40.69,59.782-95.069,59.782-153.026v-2.738
	C472.834,106.33,375.754,9.252,256.001,9.252z"/>
<path style="opacity:0.3;fill:#20272E;enable-background:new    ;" d="M256.001,9.252L256.001,9.252L256.001,9.252l-0.001,372.597
	h157.052c37.043-40.69,59.782-95.069,59.782-153.026v-2.738C472.834,106.33,375.754,9.252,256.001,9.252z"/>
<g>
	<path style="fill:#FFFFFF;" d="M392.845,341.58c-2.091,0-4.193-0.704-5.925-2.15c-3.923-3.274-4.447-9.108-1.173-13.031
		c33.942-40.659,45.407-97.558,29.92-148.495c-1.486-4.889,1.272-10.056,6.16-11.542c4.885-1.486,10.055,1.272,11.542,6.16
		c17.279,56.837,4.475,120.343-33.418,165.735C398.123,340.449,395.493,341.58,392.845,341.58z"/>
	<path style="fill:#FFFFFF;" d="M404.174,141.502c-3.037,0-6.012-1.494-7.782-4.236c-14.062-21.793-34.918-39.903-61.985-53.824
		c-4.544-2.338-6.333-7.914-3.995-12.459c2.339-4.544,7.918-6.332,12.46-3.995c29.989,15.424,53.226,35.694,69.068,60.246
		c2.771,4.294,1.536,10.02-2.757,12.789C407.63,141.023,405.892,141.502,404.174,141.502z"/>
	<path style="fill:#FFFFFF;" d="M304.417,72.298c-0.697,0-1.405-0.079-2.113-0.244c-11.45-2.674-23.268-4.03-35.129-4.03
		c-5.111,0-9.252-4.142-9.252-9.252s4.141-9.252,9.252-9.252c13.274,0,26.509,1.518,39.338,4.515
		c4.975,1.162,8.066,6.138,6.905,11.113C312.42,69.416,308.617,72.298,304.417,72.298z"/>
</g>
<rect x="97.869" y="381.843" style="fill:#4D3926;" width="316.268" height="54.313"/>
<g>
	<path style="opacity:0.3;fill:#20272E;enable-background:new    ;" d="M256.001,502.75h224.718
		c0-36.773-29.81-66.583-66.583-66.583H256.001V502.75z"/>
	<rect x="97.869" y="381.843" style="opacity:0.3;fill:#20272E;enable-background:new    ;" width="158.14" height="54.313"/>
	<path style="fill:#20272E;" d="M423.387,427.499V384.15c37.891-43.463,58.698-98.412,58.698-155.326v-2.737
		C482.085,101.422,380.664,0,256.001,0S29.916,101.422,29.916,226.085v2.737c0,56.916,20.807,111.864,58.698,155.326v43.349
		c-37.465,4.58-66.584,36.57-66.584,75.251c0,5.111,4.142,9.252,9.252,9.252h449.437c5.109,0,9.252-4.141,9.252-9.252
		C489.97,464.067,460.852,432.079,423.387,427.499z M48.419,228.822v-2.737c0-114.462,93.121-207.582,207.582-207.582
		s207.582,93.12,207.582,207.582v2.737c0,52.692-19.386,103.589-54.667,143.774h-305.83
		C67.805,332.411,48.419,281.514,48.419,228.822z M404.884,391.101v35.813H107.117v-35.813H404.884z M41.279,493.497
		c4.437-27.229,28.122-48.081,56.586-48.081h316.27c28.464,0,52.149,20.851,56.586,48.081H41.279z"/>
</g>
<g>
</g>
<g>
</g>
<g>
</g>
<g>
</g>
<g>
</g>
<g>
</g>
<g>
</g>
<g>
</g>
<g>
</g>
<g>
</g>
<g>
</g>
<g>
</g>
<g>
</g>
<g>
</g>
<g>
</g>
</svg>
