<?xml version="1.0" encoding="iso-8859-1"?>
<!-- Generator: Adobe Illustrator 19.0.0, SVG Export Plug-In . SVG Version: 6.00 Build 0)  -->
<svg version="1.1" id="Layer_1" xmlns="http://www.w3.org/2000/svg" xmlns:xlink="http://www.w3.org/1999/xlink" x="0px" y="0px"
	 viewBox="0 0 512 512" style="enable-background:new 0 0 512 512;" xml:space="preserve">
<path style="fill:#3C3A41;" d="M451.02,160.261C427.918,74.187,349.366,10.813,256,10.813l0,0
	c-93.366,0-171.918,63.373-195.02,149.448l-0.166,0.604c-4.392,16.552-6.736,33.936-6.736,51.869v129.801v0.006v1.051v83.12
	c0,41.126,33.339,74.466,74.466,74.466h45.554h163.806h0.001h45.552c41.126,0,74.466-33.339,74.466-74.466v-82.949
	c0-0.058,0-0.114,0-0.17v-1.051V212.735C457.922,194.583,455.512,176.996,451.02,160.261z"/>
<path style="fill:#EEE5DD;" d="M457.922,342.541c0-18.153-2.409-35.739-6.901-52.474C427.918,203.993,349.366,140.62,256,140.62l0,0
	c-93.366,0-171.918,63.373-195.02,149.448l-0.166,0.604c-4.392,16.55-6.736,33.933-6.736,51.865v1.057
	c0,44.607,36.161,80.769,80.769,80.769l0,0v35.609c0,22.005,17.253,40.606,39.251,41.209h163.808
	c21.997-0.603,39.249-19.204,39.249-41.209v-35.607c44.379,0,80.399-35.793,80.766-80.086c0.001-0.228,0.003-0.454,0.003-0.682
	v-1.054H457.922z"/>
<g>
	<path style="opacity:0.3;fill:#20272E;enable-background:new    ;" d="M451.02,160.27C427.918,74.196,349.366,10.822,256,10.822
		l0,0v490.366h10.817h33.011h21.634h16.441h0.001h45.552c41.126,0,74.466-33.339,74.466-74.466v-82.949c0-0.056,0-0.114,0-0.17
		v-1.051V212.743C457.922,194.591,455.512,177.003,451.02,160.27z"/>
	<path style="fill:#20272E;" d="M468.739,212.739c0-18.704-2.446-37.302-7.272-55.278C436.584,64.751,352.092,0,255.999,0
		C159.907,0,75.416,64.751,50.546,157.407l-0.188,0.688c-4.709,17.749-7.098,36.134-7.098,54.644V342.54v1.057v83.12
		c0,47.025,38.257,85.283,85.283,85.283h45.552h163.808h45.552c47.025,0,85.282-38.258,85.282-85.283v-83.633l0.001-0.538
		c0-0.017-0.001-0.035-0.001-0.052L468.739,212.739z M128.544,490.366c-35.095,0-63.649-28.552-63.649-63.649V402.62
		c14.618,17.298,35.505,29.134,59.134,31.927v25.426c0,11.274,3.64,21.797,9.785,30.392L128.544,490.366L128.544,490.366z
		 M447.103,426.717c0,35.095-28.552,63.649-63.647,63.649h-5.27c6.143-8.593,9.785-19.118,9.785-30.392v-25.431
		c23.586-2.808,44.495-14.683,59.133-32.018V426.717z M447.102,344.19c-0.317,38.244-31.696,69.359-69.95,69.359
		c-5.974,0-10.817,4.843-10.817,10.817v35.607c0,16.279-12.813,29.883-28.592,30.392H321.46v-51.254
		c0-5.974-4.843-10.817-10.817-10.817s-10.817,4.843-10.817,10.817v51.254h-33.011v-51.254c0-5.974-4.843-10.817-10.817-10.817
		c-5.974,0-10.817,4.843-10.817,10.817v51.254h-33.01v-51.254c0-5.974-4.843-10.817-10.817-10.817s-10.817,4.843-10.817,10.817
		v51.254h-16.278c-15.779-0.508-28.594-14.113-28.594-30.392v-35.607c0-5.974-4.843-10.817-10.817-10.817
		c-38.571,0-69.951-31.38-69.951-69.951v-1.056c0-16.637,2.145-33.153,6.35-49.006l0.18-0.659
		C93.778,209.602,169.677,151.441,256,151.441s162.223,58.161,184.574,141.436c4.334,16.145,6.531,32.857,6.531,49.67
		L447.102,344.19z M447.104,248.984c-35.162-71.764-108.883-119.177-191.106-119.177c-82.23,0-155.957,47.418-191.105,119.161
		v-36.229c0-16.638,2.145-33.157,6.35-49.012l0.18-0.658C93.778,79.795,169.677,21.634,256,21.634s162.223,58.161,184.572,141.436
		c4.334,16.148,6.532,32.858,6.532,49.67V248.984z"/>
	<circle style="fill:#20272E;" cx="159.359" cy="342.892" r="23.481"/>
	<circle style="fill:#20272E;" cx="352.641" cy="342.892" r="23.481"/>
	<path style="fill:#20272E;" d="M247.444,355.945c-12.95,15.172-33.939,50.041-13.233,50.041h43.576
		c20.704,0-0.284-34.869-13.233-50.041C260.057,350.677,251.941,350.677,247.444,355.945z"/>
</g>
<g>
</g>
<g>
</g>
<g>
</g>
<g>
</g>
<g>
</g>
<g>
</g>
<g>
</g>
<g>
</g>
<g>
</g>
<g>
</g>
<g>
</g>
<g>
</g>
<g>
</g>
<g>
</g>
<g>
</g>
</svg>
