<?xml version="1.0" encoding="iso-8859-1"?>
<!-- Generator: Adobe Illustrator 19.0.0, SVG Export Plug-In . SVG Version: 6.00 Build 0)  -->
<svg version="1.1" id="Layer_1" xmlns="http://www.w3.org/2000/svg" xmlns:xlink="http://www.w3.org/1999/xlink" x="0px" y="0px"
	 viewBox="0 0 512 512" style="enable-background:new 0 0 512 512;" xml:space="preserve">
<path style="fill:#3C3A41;" d="M398.789,225.756H113.211c-53.667,0-97.173,43.507-97.173,97.173v120.303h479.923V322.929
	C495.961,269.263,452.455,225.756,398.789,225.756z"/>
<g>
	<rect x="16.038" y="314.396" style="fill:#FFA5B7;" width="103.971" height="128.842"/>
	<rect x="391.992" y="314.396" style="fill:#FFA5B7;" width="103.971" height="128.842"/>
</g>
<path style="opacity:0.3;fill:#20272E;enable-background:new    ;" d="M495.584,314.394c-4.324-49.669-46.006-88.637-96.796-88.637
	H266.291h-20.582H113.211c-50.79,0-92.472,38.969-96.796,88.637h-0.377v8.537v38.85h72.038c40.448,0,78.854-12.842,111.066-37.139
	c24.475-18.461,44.12-43.047,56.858-70.767c12.738,27.72,32.383,52.306,56.858,70.767c32.212,24.297,70.618,37.139,111.066,37.139
	h72.038v-38.85v-8.537H495.584z"/>
<g>
	<path style="fill:#3C3A41;" d="M88.076,345.079c75.84,0,139.928-50.281,160.77-119.323H113.211
		c-53.667,0-97.173,43.507-97.173,97.173v22.15H88.076z"/>
	<path style="fill:#3C3A41;" d="M398.789,225.756H263.152c20.843,69.042,84.93,119.323,160.77,119.323h72.038v-22.15
		C495.961,269.263,452.455,225.756,398.789,225.756z"/>
</g>
<path style="fill:#EEE5DD;" d="M326.729,182.772H185.271c-11.716,0-21.215,9.499-21.215,21.215v54.872h19.199
	c23.249,0,44.059-10.428,58.014-26.862c7.76-9.138,21.706-9.138,29.465,0c13.954,16.433,34.765,26.862,58.014,26.862h19.199v-54.872
	C347.944,192.269,338.446,182.772,326.729,182.772z"/>
<g>
	<path style="fill:#FF3C63;" d="M234.08,164.326c-4.612,0-8.35-3.738-8.35-8.35v-12.481c0-19.558-15.912-35.47-35.47-35.47
		c-4.612,0-8.35-3.738-8.35-8.35c0-4.611,3.737-8.35,8.35-8.35c28.766,0,52.169,23.403,52.169,52.169v12.481
		C242.429,160.587,238.692,164.326,234.08,164.326z"/>
	<path style="fill:#FF3C63;" d="M277.92,164.326c-4.612,0-8.35-3.738-8.35-8.35v-12.481c0-28.767,23.403-52.169,52.168-52.169
		c4.612,0,8.35,3.738,8.35,8.35c0,4.611-3.737,8.35-8.35,8.35c-19.557,0-35.469,15.911-35.469,35.47v12.481
		C286.27,160.587,282.533,164.326,277.92,164.326z"/>
	<path style="fill:#FF3C63;" d="M240.217,95.223c-4.612,0-8.35-3.738-8.35-8.35c0-6.401-5.209-11.609-11.611-11.609
		c-4.612,0-8.35-3.738-8.35-8.35s3.737-8.35,8.35-8.35c15.61,0,28.31,12.699,28.31,28.309
		C248.567,91.485,244.83,95.223,240.217,95.223z"/>
	<path style="fill:#FF3C63;" d="M271.783,95.223c-4.612,0-8.35-3.738-8.35-8.35c0-15.61,12.699-28.309,28.31-28.309
		c4.612,0,8.35,3.738,8.35,8.35s-3.737,8.35-8.35,8.35c-6.401,0-11.611,5.208-11.611,11.609
		C280.132,91.485,276.394,95.223,271.783,95.223z"/>
</g>
<g>
	<circle style="fill:#EEE5DD;" cx="256.003" cy="292.353" r="11.127"/>
	<circle style="fill:#EEE5DD;" cx="256.003" cy="345.078" r="11.127"/>
	<circle style="fill:#EEE5DD;" cx="256.003" cy="397.804" r="11.127"/>
</g>
<g>
	<path style="opacity:0.3;fill:#20272E;enable-background:new    ;" d="M495.583,314.394c-4.324-49.669-46.005-88.637-96.795-88.637
		h-50.844v-21.769c0-11.716-9.499-21.215-21.215-21.215h-70.729v260.462h135.997h103.964v-98.153v-22.15v-8.537H495.583z"/>
	<path style="fill:#20272E;" d="M511.322,308.823c-6.041-54.225-52.148-96.53-107.958-96.53h-40.677v-8.373
		c0-16.676-13.569-30.245-30.245-30.245l-76.42,0.001c-0.008,0-0.014-0.001-0.021-0.001h-76.442
		c-16.677,0-30.245,13.569-30.245,30.245v8.373h-40.678c-55.81,0-101.918,42.305-107.959,96.53C0.243,309.834,0,310.947,0,312.118
		v8.811v22.859v101.298c0,4.612,3.738,8.35,8.35,8.35h107.295h280.709H503.65c4.611,0,8.35-3.737,8.35-8.35V343.788v-22.859v-8.811
		C512,310.947,511.757,309.834,511.322,308.823z M332.442,190.374c7.469,0,13.545,6.076,13.545,13.545v16.723c0,0,0,31.388,0,31.556
		c0,3.765-35.982-4.629-39.007-5.951c-22.799-9.963-39.18-31.038-42.137-55.874L332.442,190.374L332.442,190.374z M166.012,220.642
		v-16.723c0-7.469,6.076-13.546,13.545-13.546c0,0,67.593,0.001,67.598,0.001c1.517,0-7.407,23.651-8.65,25.804
		c-4.86,8.409-11.47,15.782-19.227,21.618c-16.196,12.188-33.643,14.402-53.267,14.402L166.012,220.642L166.012,220.642z
		 M107.295,436.737H16.699v-84.598h65.996c1.916,0,3.826-0.038,5.732-0.097c0.236-0.008,0.473-0.013,0.71-0.021
		c6.111-0.21,12.168-0.721,18.158-1.526v86.243H107.295z M114.168,330.984c-31.352,5.739-64.339,4.455-97.468,4.455v-14.51
		c0-1.439,0.043-2.87,0.109-4.294c0.032-0.687,0.088-1.38,0.136-2.072c3.284-47.733,43.14-85.571,91.692-85.571h40.675v31.559
		c0,4.611,3.737,8.349,8.349,8.35c24.126,0.003,43.641-3.236,65.668-12.782c-7.822,17.933-26.051,34.562-41.416,46.151
		C160.701,318.269,137.903,326.639,114.168,330.984z M388.004,436.737h-264.01v-89.29c24.469-5.667,47.495-16.399,67.975-31.846
		c28.978-21.857,51.075-52.435,62.728-86.61h2.605c11.653,34.175,33.749,64.753,62.728,86.61
		c20.479,15.447,43.507,26.179,67.975,31.846V436.737z M495.301,436.737h-90.597v-86.243c5.99,0.805,12.047,1.316,18.158,1.526
		c0.237,0.008,0.473,0.013,0.709,0.021c1.906,0.058,3.816,0.097,5.732,0.097h65.997V436.737z M495.301,335.439
		c-32.323,0-65.39,3.168-97.367-2.985c-0.121-0.023-0.244-0.031-0.365-0.049c-24.368-4.723-47.291-14.906-67.483-30.136
		c-16.974-12.803-31.349-28.893-42.257-47.03c0.055,0.035,0.11,0.067,0.165,0.101c0.204,0.129,0.407,0.255,0.612,0.383
		c0.586,0.366,1.175,0.726,1.769,1.079c0.029,0.017,0.057,0.035,0.085,0.051c0.198,0.117,0.4,0.227,0.598,0.343
		c1.318,0.765,2.657,1.495,4.018,2.192c0.092,0.047,0.183,0.095,0.275,0.141c9.57,4.842,20.037,7.87,30.706,8.942
		c8.08,0.813,16.313,0.43,24.427,0.43c1.285,0,2.569,0,3.854,0c4.611,0,8.35-3.737,8.35-8.351v-31.558h40.677
		c48.551,0,88.407,37.838,91.691,85.569c0.048,0.692,0.104,1.387,0.136,2.074c0.066,1.424,0.109,2.854,0.109,4.294
		C495.301,320.93,495.301,335.439,495.301,335.439z"/>
</g>
<g>
</g>
<g>
</g>
<g>
</g>
<g>
</g>
<g>
</g>
<g>
</g>
<g>
</g>
<g>
</g>
<g>
</g>
<g>
</g>
<g>
</g>
<g>
</g>
<g>
</g>
<g>
</g>
<g>
</g>
</svg>
