<?xml version="1.0" encoding="iso-8859-1"?>
<!-- Generator: Adobe Illustrator 19.0.0, SVG Export Plug-In . SVG Version: 6.00 Build 0)  -->
<svg version="1.1" id="Layer_1" xmlns="http://www.w3.org/2000/svg" xmlns:xlink="http://www.w3.org/1999/xlink" x="0px" y="0px"
	 viewBox="0 0 512 512" style="enable-background:new 0 0 512 512;" xml:space="preserve">
<g>
	<path style="fill:#00969B;" d="M70.719,258.688c-23.615,0-42.757,19.143-42.757,42.757l0,0c0,23.613,19.143,42.757,42.757,42.757
		h16.844v-85.514L70.719,258.688L70.719,258.688z"/>
	<path style="fill:#00969B;" d="M441.28,258.688h-16.844v85.514h16.844c23.613,0,42.757-19.143,42.757-42.757l0,0
		C484.036,277.831,464.893,258.688,441.28,258.688z"/>
</g>
<path style="fill:#00D8DE;" d="M436.168,169.918l-0.014-0.082c-0.051-0.091-0.101-0.176-0.152-0.267
	c-1.04-8.514-2.634-16.857-4.81-24.965C410.439,67.282,339.873,49.221,256,49.221l0,0c-83.873,0-154.439,18.06-175.193,95.384
	l-0.149,0.543c-2.107,7.94-3.651,16.105-4.667,24.432c-0.051,0.089-0.101,0.175-0.152,0.264c-0.798,6.902-1.232,13.914-1.232,21.031
	v152.341c0,63.322,46.155,115.854,106.656,125.813h149.471v-11.016c0,0.005,0,0.01,0,0.014v11.002
	c60.501-9.96,106.656-62.491,106.656-125.813V190.876C437.391,183.784,436.969,176.793,436.168,169.918z"/>
<path style="fill:#3C3A41;" d="M255.999,172.323c0,0,118.258-113.141,180.155-2.253c-1.033-8.909-2.689-17.629-4.962-26.099
	C410.438,66.649,339.873,9.717,255.999,9.717l0,0c-83.873,0-154.439,56.931-175.193,134.254l-0.149,0.543
	c-2.203,8.301-3.808,16.842-4.819,25.566C137.735,59.177,255.999,172.323,255.999,172.323z"/>
<g>
	<path style="opacity:0.3;fill:#20272E;enable-background:new    ;" d="M310.661,417.212c-5.314,0-10.514,1.065-15.461,3.167
		l-13.523,5.742c-4.221-1.833-8.823-2.808-13.569-2.808h-24.22c-4.746,0-9.348,0.974-13.569,2.808l-13.522-5.742
		c-4.947-2.102-10.149-3.167-15.461-3.167c-21.785,0-39.509,17.739-39.509,39.542v7.442c6.28,2.09,12.764,3.735,19.435,4.833
		h149.471v-11.016c0,0.005,0,0.01,0,0.014v11.001c6.671-1.099,13.155-2.743,19.435-4.833v-7.441
		C350.17,434.951,332.447,417.212,310.661,417.212z"/>
	<path style="fill:#20272E;" d="M313.008,329.533c0,31.486-25.525,57.009-57.009,57.009s-57.009-25.525-57.009-57.009H313.008z"/>
</g>
<g>
	<path style="fill:#FF3C63;" d="M232.534,490.752v-42.575l-23.332-9.909c-13.247-5.626-27.938,4.096-27.938,18.488v25.42
		c0,14.392,14.691,24.114,27.938,18.488L232.534,490.752L232.534,490.752z"/>
	<path style="fill:#FF3C63;" d="M302.797,438.268l-23.332,9.909v42.575l23.332,9.909c13.247,5.626,27.938-4.096,27.938-18.488
		v-25.42C330.735,442.363,316.044,432.641,302.797,438.268z"/>
</g>
<path style="fill:#FF738D;" d="M268.109,442.748h-24.22c-8.067,0-14.606,6.539-14.606,14.606v24.22
	c0,8.067,6.539,14.606,14.606,14.606h24.22c8.067,0,14.606-6.539,14.606-14.606v-24.219
	C282.715,449.289,276.176,442.748,268.109,442.748z"/>
<g>
	<path style="opacity:0.3;fill:#20272E;enable-background:new    ;" d="M441.28,258.688h-3.888v-67.814
		c0-7.091-0.422-14.083-1.223-20.957l-0.014-0.082c-0.013-0.025-0.027-0.048-0.041-0.073c-1.035-8.803-2.674-17.42-4.921-25.791
		C410.438,66.649,339.873,9.717,255.999,9.717l0,0v486.464h12.111c4.588,0,8.678-2.12,11.355-5.429l23.332,9.909
		c13.247,5.626,27.938-4.096,27.938-18.488v-13.144c60.185-9.907,106.156-61.949,106.634-124.827h3.91
		c23.613,0,42.757-19.143,42.757-42.757l0,0C484.036,277.831,464.893,258.688,441.28,258.688z"/>
	<path style="fill:#20272E;" d="M447.109,249.303v-58.428c0-7.314-0.433-14.743-1.288-22.081c-0.019-0.163-0.056-0.408-0.083-0.571
		c-0.01-0.058-0.029-0.117-0.04-0.175c-1.094-9.057-2.813-17.999-5.12-26.595C418.223,58.169,342.322,0,255.999,0
		C169.677,0,93.775,58.167,71.434,141.402l-0.17,0.621c-2.249,8.475-3.917,17.297-4.983,26.231
		c-0.027,0.159-0.076,0.314-0.095,0.474c-0.862,7.436-1.297,14.887-1.297,22.148v58.428c-26.2,2.911-46.644,25.18-46.644,52.143
		c0,27.11,20.665,49.483,47.069,52.197c2.21,28.98,13.555,56.641,32.555,78.815c19.216,22.427,45.142,38.019,73.678,44.532v5.185
		c0,16.445,13.363,29.824,29.791,29.825h0.001c4,0,7.923-0.806,11.662-2.393l17.802-7.561c3.783,2.427,8.268,3.853,13.086,3.853
		h24.22c4.819,0,9.303-1.427,13.086-3.853L299,509.607c3.738,1.587,7.661,2.393,11.661,2.393c0.001,0,0.001,0,0.003,0
		c7.77,0,15.148-3.005,20.773-8.459c5.814-5.637,9.017-13.226,9.017-21.365v-5.185c28.534-6.513,54.461-22.105,73.678-44.532
		c18.998-22.173,30.343-49.834,32.553-78.815c26.404-2.714,47.069-25.087,47.069-52.197
		C493.754,274.482,473.308,252.213,447.109,249.303z M64.889,333.97c-15.447-2.762-27.209-16.296-27.209-32.525
		s11.762-29.763,27.209-32.525V333.97z M256,20.067c71.622,0,135.254,44.572,160.378,110.323
		c-15.317-12.456-33.156-18.743-53.37-18.743c-46.061,0-90.466,33.624-107.009,47.673c-16.54-14.049-60.943-47.673-107.009-47.673
		c-20.214,0-38.054,6.288-53.371,18.744C120.745,64.641,184.376,20.067,256,20.067z M219.679,483.817
		c0.027,0.299,0.073,0.592,0.111,0.888c0.038,0.285,0.06,0.573,0.108,0.856l-14.495,6.156c-1.323,0.561-2.69,0.846-4.064,0.846
		c-4.982,0-10.358-3.973-10.358-10.39v-13.143v-12.275c0-6.417,5.376-10.39,10.356-10.39c1.376,0,2.743,0.285,4.066,0.847
		l14.495,6.156c-0.048,0.284-0.07,0.571-0.108,0.858c-0.038,0.295-0.084,0.588-0.111,0.888c-0.07,0.744-0.114,1.491-0.114,2.243l0,0
		v24.22C219.565,482.325,219.609,483.073,219.679,483.817z M272.998,481.574c0,0.662-0.135,1.293-0.374,1.87
		c-0.031,0.074-0.069,0.131-0.101,0.2c-0.091,0.193-0.19,0.382-0.304,0.561c-0.057,0.087-0.113,0.162-0.168,0.24
		c-0.89,1.218-2.319,2.02-3.94,2.02h-24.22c-1.621,0-3.05-0.802-3.94-2.02c-0.057-0.076-0.113-0.153-0.168-0.24
		c-0.114-0.179-0.214-0.367-0.304-0.561c-0.032-0.069-0.07-0.126-0.101-0.2c-0.24-0.577-0.374-1.208-0.374-1.87v-24.219
		c0-6.724,10.656-4.889,14.929-4.889c4.199,0,8.402-0.044,12.602,0.003c8.12,0.089,6.467,8.119,6.467,13.862
		C272.998,471.412,272.998,476.492,272.998,481.574z M321.018,469.029v13.146c0,3.633-1.692,6.036-3.111,7.413
		c-1.951,1.892-4.592,2.977-7.245,2.977l0,0c-1.376,0-2.743-0.285-4.066-0.846l-14.496-6.156c0.048-0.284,0.07-0.571,0.108-0.856
		c0.039-0.297,0.084-0.59,0.111-0.888c0.07-0.744,0.114-1.491,0.114-2.243v-24.221l0,0c0-0.751-0.044-1.498-0.114-2.243
		c-0.027-0.298-0.073-0.592-0.111-0.888c-0.038-0.286-0.06-0.574-0.108-0.858l14.496-6.156c1.323-0.562,2.691-0.846,4.066-0.846
		c4.98,0,10.356,3.973,10.356,10.39V469.029z M427.674,258.688v84.522l-0.007,0.222c-0.008,0.231-0.014,0.463-0.014,0.723
		c-0.222,27.758-10.233,54.593-28.282,75.656c-15.527,18.121-36.141,31.067-58.919,37.188v-0.245
		c0-16.446-13.365-29.825-29.791-29.825c-4,0-7.924,0.805-11.662,2.393l-17.767,7.546c-8.098-5.205-18.156-3.838-27.315-3.838
		c-7.927,0-16.17-0.648-23.15,3.838l-17.766-7.545c-3.739-1.588-7.664-2.393-11.664-2.393c-16.426,0-29.791,13.379-29.791,29.825
		V457c-22.779-6.122-43.393-19.067-58.92-37.189c-18.045-21.06-28.058-47.892-28.28-75.646c0-0.013,0.001-0.026,0.001-0.038
		c-0.001-0.236-0.009-0.472-0.017-0.705l-0.006-84.734v-67.814c0-5.796,0.321-11.739,0.937-17.695
		c16.29-28.315,37.15-42.099,63.731-42.099c49.135,0,99.791,47.785,100.296,48.267c1.876,1.793,4.293,2.688,6.71,2.688
		s4.837-0.895,6.715-2.688c0.507-0.483,51.166-48.267,100.296-48.267c26.582,0,47.443,13.785,63.734,42.105
		c0.612,5.894,0.932,11.833,0.932,17.688L427.674,258.688L427.674,258.688z M447.109,333.97v-65.049
		c15.447,2.762,27.209,16.296,27.209,32.525S462.556,331.207,447.109,333.97z"/>
</g>
<g>
	<circle style="fill:#1E252B;" cx="169.472" cy="298.417" r="16.192"/>
	<circle style="fill:#1E252B;" cx="342.533" cy="298.417" r="16.192"/>
</g>
<g>
	<path style="fill:#FFFFFF;" d="M269.641,329.533v15.137c0,5.367,4.35,9.717,9.717,9.717c5.368,0,9.717-4.351,9.717-9.717v-15.137
		l0,0H269.641L269.641,329.533z"/>
	<path style="fill:#FFFFFF;" d="M222.923,329.533v15.137c0,5.367,4.35,9.717,9.717,9.717c5.368,0,9.717-4.351,9.717-9.717v-15.137
		l0,0H222.923L222.923,329.533z"/>
</g>
<path style="fill:#20272E;" d="M255.999,396.26c-36.793,0-66.727-29.934-66.727-66.727c0-5.367,4.351-9.717,9.717-9.717h114.018
	c5.367,0,9.717,4.351,9.717,9.717C322.725,366.326,292.793,396.26,255.999,396.26z M209.711,339.251
	c4.493,21.432,23.541,37.574,46.289,37.574c22.747,0,41.794-16.143,46.289-37.574H209.711z"/>
<g>
</g>
<g>
</g>
<g>
</g>
<g>
</g>
<g>
</g>
<g>
</g>
<g>
</g>
<g>
</g>
<g>
</g>
<g>
</g>
<g>
</g>
<g>
</g>
<g>
</g>
<g>
</g>
<g>
</g>
</svg>
