<?xml version="1.0" encoding="iso-8859-1"?>
<!-- Generator: Adobe Illustrator 19.0.0, SVG Export Plug-In . SVG Version: 6.00 Build 0)  -->
<svg version="1.1" id="Layer_1" xmlns="http://www.w3.org/2000/svg" xmlns:xlink="http://www.w3.org/1999/xlink" x="0px" y="0px"
	 viewBox="0 0 511.998 511.998" style="enable-background:new 0 0 511.998 511.998;" xml:space="preserve">
<path style="fill:#20272E;" d="M299.933,9.727h-87.868c-77.349,0-140.051,62.703-140.051,140.051v212.443
	c0,77.347,62.703,140.05,140.051,140.05h87.868c77.349,0,140.051-62.703,140.051-140.05V149.778
	C439.984,72.429,377.281,9.727,299.933,9.727z"/>
<path style="fill:#DDCBBD;" d="M299.933,9.727h-15.286H227.35h-15.286c-14.637,0-28.747,2.25-42.01,6.414v98.967h57.296h57.296
	h57.296V16.141C328.68,11.976,314.57,9.727,299.933,9.727z"/>
<g>
	<rect x="227.348" y="9.727" style="fill:#EEE5DD;" width="57.296" height="105.378"/>
	<path style="fill:#EEE5DD;" d="M101.058,64.391v42.086c0,38.107,30.891,68.998,68.998,68.998V16.141
		C142.357,24.839,118.373,41.913,101.058,64.391z"/>
	<path style="fill:#EEE5DD;" d="M410.94,64.391c-17.316-22.479-41.3-39.552-68.998-48.25v159.333
		c38.107,0,68.998-30.891,68.998-68.998V64.391z"/>
</g>
<path style="fill:#FF3C63;" d="M256.395,257.645L256.395,257.645c-78.017,0-146.374,41.337-184.381,103.299v1.277
	c0,77.347,62.703,140.05,140.051,140.05h87.869c77.349,0,140.051-62.703,140.051-140.05v-2.544
	C401.825,298.422,333.876,257.645,256.395,257.645z"/>
<path style="opacity:0.3;fill:#20272E;enable-background:new    ;" d="M256.395,257.645L256.395,257.645
	c-0.133,0-0.264,0.006-0.397,0.006v244.619h43.934c77.349,0,140.051-62.703,140.051-140.05v-2.544
	C401.825,298.422,333.876,257.645,256.395,257.645z"/>
<path style="fill:#EEE5DD;" d="M341.942,325.786v170.07c27.698-8.699,51.683-25.773,68.998-48.25v-52.823
	C410.94,356.678,380.049,325.786,341.942,325.786z"/>
<path style="fill:#DDCBBD;" d="M284.646,386.154H227.35h-57.296v109.704c13.262,4.166,27.372,6.414,42.01,6.414h15.286h57.296
	h15.286c14.637,0,28.747-2.25,42.01-6.414V386.154H284.646z"/>
<g>
	<rect x="227.348" y="386.155" style="fill:#EEE5DD;" width="57.296" height="116.117"/>
	<path style="fill:#EEE5DD;" d="M101.058,394.785v52.823c17.316,22.479,41.299,39.552,68.998,48.25V325.786
		C131.948,325.786,101.058,356.678,101.058,394.785z"/>
</g>
<path style="fill:#20272E;" d="M418.965,59.368c-0.148-0.231-0.279-0.473-0.448-0.691c-16.133-20.954-37.662-37.345-62.132-47.359
	c-12.024-4.919-24.708-8.201-37.59-9.852c-11.36-1.455-22.729-1.182-34.149-1.182c-14.733,0-29.466,0-44.198,0
	c-11.224,0-22.451-0.647-33.681,0.01c-28.413,1.662-55.816,10.044-79.36,26.205c-12.909,8.862-24.374,19.776-33.928,32.178
	c-0.168,0.219-0.3,0.46-0.448,0.691c-19.176,25.153-30.584,56.533-30.584,90.532v211.165v1.277c0,7.734,0.589,15.333,1.727,22.754
	c0.379,2.473,0.819,4.928,1.319,7.361c1.746,8.515,4.219,16.767,7.349,24.691c5.087,12.876,11.918,24.876,20.188,35.724
	c0.149,0.232,0.279,0.473,0.449,0.693c12.845,16.708,29.208,30.653,47.785,40.613c20.6,11.045,43.756,17.157,67.123,17.733
	c6.316,0.156,12.646,0.047,18.965,0.047h57.296c9.602,0,19.227,0.269,28.801-0.612c12.241-1.126,24.343-3.745,35.95-7.792
	c20.409-7.114,39.176-18.716,54.675-33.777c5.191-5.043,10.052-10.46,14.446-16.214c0.168-0.219,0.3-0.462,0.449-0.693
	c8.27-10.848,15.101-22.848,20.188-35.724c3.131-7.923,5.603-16.177,7.349-24.691c0.5-2.432,0.939-4.886,1.319-7.361
	c1.138-7.421,1.727-15.02,1.727-22.754v-2.545V149.9C449.55,115.902,438.142,84.522,418.965,59.368z M351.508,115.231v-85.18
	c19.55,8.445,36.636,21.537,49.866,37.877V106.6c0,29.515-21.628,54.074-49.866,58.662V115.231z M294.212,19.415
	c0-0.334,17.374,0.621,19.044,0.779c6.453,0.611,12.841,1.693,19.12,3.305v82.166h-38.164L294.212,19.415L294.212,19.415z
	 M236.916,19.415h38.164v86.25h-38.164V19.415z M179.62,23.499c0-1.004,14.992-2.917,16.29-3.078
	c7.282-0.904,14.549-1.005,21.874-1.006v86.25H179.62V23.499z M110.623,67.928c13.23-16.34,30.316-29.432,49.866-37.877v85.18
	v50.031c-28.239-4.589-49.866-29.148-49.866-58.662V67.928z M160.489,386.276c0,9.102,0,18.203,0,27.305c0,16.134,0,32.268,0,48.402
	c0,6.691-0.372,13.564,0.029,20.22c-9.875-4.203-19.187-9.707-27.695-16.244c-4.259-3.272-8.317-6.805-12.146-10.57
	c-1.911-1.879-3.765-3.816-5.558-5.808c-0.774-0.861-4.496-4.067-4.496-5.266v-49.407c0-29.515,21.628-54.074,49.866-58.662V386.276
	z M217.784,492.829c0,0.945-38.164-2.138-38.164-4.084v-92.903h38.164C217.784,395.842,217.784,492.743,217.784,492.829z
	 M275.08,492.829h-38.164v-96.987h38.164V492.829z M332.376,488.745c-12.575,3.227-25.235,4.084-38.164,4.084v-96.987h38.164
	V488.745z M401.374,444.315c-0.278,0.344-0.552,0.691-0.834,1.033c-13.154,15.898-30.085,28.659-49.032,36.845v-95.917v-50.031
	c28.239,4.589,49.866,29.148,49.866,58.662V444.315z M430.603,364.087c-0.041,1.175-0.269,2.624-0.288,3.158
	c-0.079,2.201-0.214,4.4-0.407,6.594c-0.384,4.388-0.992,8.756-1.821,13.082c-1.658,8.651-4.197,17.136-7.581,25.269
	c1.031-2.482,0.001-7.757,0.001-10.459c0-2.274,0-4.549,0-6.824c0-43.321-35.243-78.564-78.564-78.564
	c-5.283,0-9.566,4.282-9.566,9.566v50.8h-47.73H227.35h-47.73v-50.8c0-5.284-4.283-9.566-9.566-9.566
	c-43.319,0-78.564,35.243-78.564,78.564c0,5.766-0.056,11.538,0.005,17.304c-6.361-14.952-9.608-31.219-9.886-47.448
	c-0.005-0.33-0.009-0.661-0.013-0.992c18.054-28.579,43.021-52.501,72.354-69.288c31.037-17.762,66.461-27.151,102.443-27.151
	c70.928,0,135.776,35.547,174.02,95.229C430.587,362.833,430.626,363.416,430.603,364.087z M430.418,330.229
	c-17.516-21.176-38.817-39.141-62.76-52.735c-33.752-19.162-72.228-29.292-111.263-29.292c-39.309,0-78.019,10.262-111.945,29.679
	c-24.038,13.757-45.376,31.914-62.87,53.302V149.9c0-17.652,3.532-34.495,9.912-49.865v6.565c0,43.321,35.243,78.564,78.564,78.564
	c5.283,0,9.566-4.282,9.566-9.566v-50.801h47.73h57.296h47.73v50.8c0,5.284,4.283,9.566,9.566,9.566
	c43.319,0,78.564-35.243,78.564-78.564v-6.565c6.38,15.372,9.912,32.213,9.912,49.865v180.33H430.418z"/>
<g>
</g>
<g>
</g>
<g>
</g>
<g>
</g>
<g>
</g>
<g>
</g>
<g>
</g>
<g>
</g>
<g>
</g>
<g>
</g>
<g>
</g>
<g>
</g>
<g>
</g>
<g>
</g>
<g>
</g>
</svg>
