<?xml version="1.0" encoding="iso-8859-1"?>
<!-- Generator: Adobe Illustrator 19.0.0, SVG Export Plug-In . SVG Version: 6.00 Build 0)  -->
<svg version="1.1" id="Layer_1" xmlns="http://www.w3.org/2000/svg" xmlns:xlink="http://www.w3.org/1999/xlink" x="0px" y="0px"
	 viewBox="0 0 512 512" style="enable-background:new 0 0 512 512;" xml:space="preserve">
<path style="fill:#ECB400;" d="M434.067,103.607c0,0-0.957,41.29-30.308,41.29c29.351,0,30.308,41.29,30.308,41.29
	s0.957-41.29,30.308-41.29C435.023,144.897,434.067,103.607,434.067,103.607z"/>
<path style="fill:#FFE046;" d="M91.406,57.585c0,0-0.957,41.29-30.308,41.29c29.351,0,30.308,41.29,30.308,41.29
	s0.957-41.29,30.308-41.29C92.363,98.874,91.406,57.585,91.406,57.585z"/>
<path style="fill:#ECB400;" d="M95.971,371.836c0,0-0.957,41.29-30.308,41.29c29.351,0,30.308,41.29,30.308,41.29
	s0.957-41.29,30.308-41.29C96.928,413.125,95.971,371.836,95.971,371.836z"/>
<path style="fill:#A93CCB;" d="M34.395,219.992c7.326,0,13.957,2.98,18.748,7.791c-0.376-2.544-0.576-5.144-0.576-7.791
	c0-29.223,23.69-52.911,52.911-52.911c27.885,0,50.715,21.576,52.748,48.941c4.46-2.56,9.623-4.03,15.134-4.03
	c16.821,0,30.457,13.635,30.457,30.456s-13.635,30.456-30.457,30.456H34.395c-14.611,0-26.456-11.844-26.456-26.456
	C7.939,231.837,19.785,219.992,34.395,219.992z"/>
<circle style="fill:#FFE046;" cx="249.874" cy="256.405" r="162.542"/>
<path style="opacity:0.3;fill:#20272E;enable-background:new    ;" d="M249.874,93.864v325.084
	c89.769,0,162.542-72.773,162.542-162.542S339.644,93.864,249.874,93.864z"/>
<path style="fill:#A93CCB;" d="M471.253,281.626c-9.086,0-17.307,3.694-23.248,9.663c0.466-3.153,0.715-6.379,0.715-9.663
	c0-36.238-29.376-65.614-65.614-65.614c-34.579,0-62.89,26.755-65.411,60.691c-5.53-3.174-11.934-4.997-18.767-4.997
	c-20.859,0-37.768,16.909-37.768,37.768s16.909,37.768,37.768,37.768h172.328c18.119,0,32.807-14.689,32.807-32.807
	S489.372,281.626,471.253,281.626z"/>
<g>
	<path style="fill:#20272E;" d="M403.758,152.836c3.149,0,12.73,0,18.617,15.206c3.459,8.936,3.752,18.252,3.755,18.345
		c0.109,4.298,3.619,7.721,7.92,7.73c0.005,0,0.012,0,0.017,0c4.299,0,7.819-3.431,7.936-7.73c0.002-0.093,0.295-9.408,3.754-18.345
		c5.887-15.206,15.468-15.206,18.617-15.206c4.385,0,7.939-3.555,7.939-7.939s-3.555-7.939-7.939-7.939
		c-3.149,0-12.73,0-18.617-15.206c-3.459-8.936-3.752-18.252-3.754-18.328c-0.099-4.305-3.614-7.738-7.92-7.747
		c-0.005,0-0.012,0-0.017,0c-4.299,0-7.819,3.431-7.936,7.73c-0.002,0.093-0.295,9.409-3.755,18.345
		c-5.887,15.206-15.468,15.206-18.617,15.206c-4.385,0-7.939,3.555-7.939,7.939S399.373,152.836,403.758,152.836z M434.067,134.101
		c2.252,4.033,5.063,7.752,8.532,10.796c-3.469,3.043-6.28,6.763-8.532,10.796c-2.253-4.033-5.064-7.752-8.532-10.796
		C429.002,141.853,431.814,138.134,434.067,134.101z"/>
	<path style="fill:#20272E;" d="M61.098,106.813c3.149,0,12.73,0,18.616,15.206c3.459,8.936,3.752,18.252,3.755,18.345
		c0.109,4.298,3.619,7.721,7.92,7.73c0.005,0,0.012,0,0.017,0c4.299,0,7.819-3.431,7.936-7.73c0.002-0.093,0.295-9.407,3.755-18.345
		c5.887-15.206,15.468-15.206,18.617-15.206c4.385,0,7.939-3.555,7.939-7.939c0-4.385-3.555-7.939-7.939-7.939
		c-3.149,0-12.73,0-18.617-15.206c-3.459-8.936-3.752-18.252-3.754-18.328c-0.1-4.305-3.614-7.738-7.92-7.747
		c-0.005,0-0.012,0-0.017,0c-4.299,0-7.819,3.431-7.936,7.73c-0.002,0.093-0.295,9.409-3.755,18.345
		c-5.887,15.206-15.468,15.206-18.616,15.206c-4.385,0-7.939,3.555-7.939,7.939C53.16,103.258,56.714,106.813,61.098,106.813z
		 M91.406,88.079c2.253,4.033,5.063,7.752,8.532,10.796c-3.469,3.043-6.279,6.763-8.532,10.796
		c-2.253-4.033-5.063-7.752-8.532-10.796C86.342,95.831,89.153,92.111,91.406,88.079z"/>
	<path style="fill:#20272E;" d="M126.279,405.187c-3.149,0-12.73,0-18.617-15.206c-3.459-8.936-3.752-18.252-3.754-18.328
		c-0.1-4.305-3.614-7.738-7.92-7.747c-0.005,0-0.012,0-0.017,0c-4.299,0-7.819,3.431-7.936,7.73
		c-0.002,0.093-0.295,9.409-3.755,18.345c-5.887,15.206-15.468,15.206-18.617,15.206c-4.385,0-7.939,3.555-7.939,7.939
		s3.555,7.939,7.939,7.939c3.149,0,12.73,0,18.617,15.206c3.459,8.936,3.752,18.252,3.755,18.345c0.109,4.298,3.619,7.721,7.92,7.73
		c0.005,0,0.012,0,0.017,0c4.299,0,7.819-3.431,7.936-7.73c0.002-0.093,0.295-9.409,3.754-18.345
		c5.887-15.206,15.468-15.206,18.617-15.206c4.385,0,7.939-3.555,7.939-7.939S130.664,405.187,126.279,405.187z M95.971,423.921
		c-2.253-4.033-5.064-7.752-8.532-10.796c3.468-3.044,6.279-6.763,8.532-10.796c2.252,4.033,5.063,7.752,8.532,10.796
		C101.034,416.169,98.224,419.889,95.971,423.921z"/>
	<path style="fill:#20272E;" d="M471.254,273.687c-5.138,0-10.128,0.944-14.776,2.75c-1.875-26.754-18.131-49.591-41.058-60.857
		c-8.807-35.772-29.334-68.158-58.111-91.546c-30.24-24.576-68.395-38.11-107.435-38.11c-57.948,0-109.225,29.068-140.044,73.381
		c-1.456-0.105-2.909-0.164-4.352-0.164c-31.428,0-57.367,23.948-60.528,54.553c-3.366-1.081-6.918-1.642-10.556-1.642
		C15.43,212.053,0,227.483,0,246.448s15.43,34.395,34.395,34.395H81.15c11.89,82.467,83.016,146.044,168.723,146.044
		c55.32,0,106.938-26.731,138.952-71.708h82.428c22.468,0,40.746-18.279,40.746-40.746C512,291.966,493.721,273.687,471.254,273.687
		z M83.643,218.524c-3.314,14.597-4.688,29.616-4.107,44.575c0.024,0.622,0.039,1.244,0.07,1.866H34.395
		c-10.21,0-18.516-8.307-18.516-18.516s8.307-18.516,18.516-18.516c4.96,0,9.62,1.937,13.121,5.454
		c2.418,2.428,6.123,3.032,9.185,1.496c3.063-1.536,4.795-4.865,4.296-8.256c-0.326-2.207-0.491-4.439-0.491-6.633
		c0-22.896,17.197-41.849,39.353-44.623c-2.528,0.317-7.879,16.615-8.862,19.143c-2.556,6.569-4.703,13.301-6.427,20.137
		C84.247,215.937,83.938,217.229,83.643,218.524z M249.874,411.009c-49.846,0-97.46-24.805-126.248-65.461
		c-33.734-47.641-37.391-112.569-9.182-163.646c25.05-45.357,72.377-75.921,124.097-79.687c3.771-0.274,7.552-0.411,11.333-0.411
		c35.404,0,70.001,12.272,97.419,34.556c23.404,19.02,40.793,44.598,49.894,73.06c-3.403-0.661-6.858-1.074-10.355-1.248
		c-0.038-0.002-0.076-0.006-0.115-0.008c-1.2-0.058-2.405-0.088-3.614-0.088c-34.651,0-64.326,24.481-71.747,57.417
		c-4.029-1.139-8.214-1.725-12.431-1.725c-25.203,0-45.708,20.504-45.708,45.708c0,3.15,0.321,6.228,0.93,9.2
		c4.269,20.808,22.724,36.508,44.777,36.508h69.895C339.572,390.392,296.148,411.009,249.874,411.009z M471.254,339.302h-86.568
		h-85.759c-16.448,0-29.829-13.381-29.829-29.829s13.381-29.829,29.829-29.829c5.196,0,10.319,1.364,14.816,3.944
		c2.366,1.358,5.263,1.406,7.672,0.127s3.994-3.705,4.196-6.424c2.221-29.91,27.476-53.339,57.494-53.339
		c0.99,0,1.975,0.025,2.953,0.075c0.075,0.004,0.15,0.013,0.225,0.017c30.33,1.656,54.497,26.848,54.497,57.584
		c0,2.815-0.212,5.675-0.629,8.502c-0.501,3.391,1.231,6.72,4.295,8.257c3.064,1.537,6.768,0.934,9.185-1.496
		c4.702-4.723,10.96-7.324,17.623-7.324c13.713,0,24.868,11.156,24.868,24.868C496.122,328.146,484.965,339.302,471.254,339.302z"/>
</g>
<g>
</g>
<g>
</g>
<g>
</g>
<g>
</g>
<g>
</g>
<g>
</g>
<g>
</g>
<g>
</g>
<g>
</g>
<g>
</g>
<g>
</g>
<g>
</g>
<g>
</g>
<g>
</g>
<g>
</g>
</svg>
