<?xml version="1.0" encoding="iso-8859-1"?>
<!-- Generator: Adobe Illustrator 19.0.0, SVG Export Plug-In . SVG Version: 6.00 Build 0)  -->
<svg version="1.1" id="Layer_1" xmlns="http://www.w3.org/2000/svg" xmlns:xlink="http://www.w3.org/1999/xlink" x="0px" y="0px"
	 viewBox="0 0 512 512" style="enable-background:new 0 0 512 512;" xml:space="preserve">
<rect x="44.347" y="80.164" style="fill:#FF3C63;" width="423.309" height="384.588"/>
<polygon style="fill:#EEE5DD;" points="467.651,327.482 265.073,327.482 265.073,217.431 467.651,217.431 467.651,199.286 
	44.347,199.286 44.347,217.431 246.928,217.431 246.928,327.482 44.347,327.482 44.347,345.627 141.101,345.627 141.101,464.749 
	159.246,464.749 159.246,345.627 352.753,345.627 352.753,464.749 370.898,464.749 370.898,345.627 467.651,345.627 "/>
<path style="opacity:0.3;fill:#20272E;enable-background:new    ;" d="M44.347,298.351c29.455,0,53.42-23.965,53.42-53.421v-78.272
	c0-9.582,7.397-17.64,16.489-17.965c0.214-0.007,0.428-0.011,0.641-0.011c9.446,0,17.13,7.685,17.13,17.13v187.576
	c0,13.916,5.221,27.179,14.702,37.343c9.693,10.392,22.757,16.39,36.788,16.888c0.645,0.024,1.291,0.035,1.931,0.035
	c29.456,0,53.42-23.965,53.42-53.421V195.952c0-9.582,7.397-17.64,16.489-17.965c0.214-0.007,0.428-0.012,0.641-0.012
	c9.446,0,17.13,7.685,17.13,17.131v36.241c0,13.916,5.221,27.177,14.702,37.342c9.692,10.392,22.757,16.39,36.787,16.888
	c0.646,0.023,1.291,0.035,1.932,0.035c29.456,0,53.421-23.965,53.421-53.421V153.92c0-9.582,7.397-17.641,16.489-17.965
	c0.214-0.007,0.428-0.012,0.641-0.012c9.446,0,17.13,7.685,17.13,17.131v129.218c0,13.916,5.221,27.177,14.702,37.343
	c9.693,10.392,22.757,16.39,36.788,16.888c0.645,0.024,1.289,0.035,1.931,0.035l0,0V80.162H44.347V298.351z"/>
<path style="fill:#00C279;" d="M466.314,47.251H45.686c-20.222,0-36.614,16.392-36.614,36.613v160.222
	c0,19.127,14.874,35.418,33.989,36.098c20.068,0.714,36.562-15.343,36.562-35.252v-78.272c0-19.127,14.874-35.418,33.989-36.098
	c20.068-0.714,36.562,15.343,36.562,35.252V353.39c0,19.127,14.874,35.418,33.989,36.098c20.068,0.714,36.562-15.343,36.562-35.252
	V195.952c0-19.127,14.874-35.418,33.989-36.098c20.068-0.714,36.562,15.343,36.562,35.252v36.241
	c0,19.127,14.874,35.418,33.989,36.098c20.068,0.714,36.562-15.343,36.562-35.252v-78.272c0-19.127,14.874-35.418,33.989-36.097
	c20.068-0.714,36.562,15.343,36.562,35.252v129.218c0,19.127,14.874,35.418,33.989,36.098c20.068,0.714,36.562-15.343,36.562-35.252
	V83.863C502.928,63.643,486.534,47.251,466.314,47.251z"/>
<path style="fill:#00E891;" d="M466.314,47.251H45.686c-20.222,0-36.614,16.392-36.614,36.613v36.29
	c0-20.221,16.392-36.613,36.614-36.613h420.628c20.221,0,36.613,16.392,36.613,36.613v-36.29
	C502.928,63.643,486.534,47.251,466.314,47.251z"/>
<path style="fill:#20272E;" d="M466.314,38.178H45.686C20.494,38.178,0,58.672,0,83.865v160.221
	c0,21.464,15.256,39.89,35.275,44.218v176.446c0,5.012,4.062,9.072,9.072,9.072h423.304c5.01,0,9.072-4.061,9.072-9.072V326.558
	c8.385-1.735,16.092-5.863,22.287-12.058c8.376-8.377,12.989-19.513,12.989-31.359V83.865C512,58.672,491.505,38.178,466.314,38.178
	z M458.579,455.677H53.42V288.335c0.039-0.008,0.076-0.018,0.114-0.027c0.513-0.109,1.021-0.227,1.527-0.353
	c0.148-0.036,0.295-0.074,0.443-0.112c0.501-0.131,0.999-0.267,1.494-0.415c0.128-0.039,0.255-0.079,0.383-0.119
	c0.519-0.16,1.034-0.324,1.545-0.502c0.028-0.01,0.056-0.021,0.083-0.03c1.761-0.618,3.472-1.343,5.123-2.17
	c0.006-0.004,0.012-0.006,0.019-0.01c0.483-0.242,0.958-0.496,1.43-0.755c0.111-0.06,0.224-0.121,0.334-0.183
	c0.443-0.247,0.879-0.503,1.314-0.766c0.128-0.077,0.256-0.156,0.385-0.235c0.428-0.265,0.853-0.536,1.271-0.814
	c0.111-0.074,0.22-0.15,0.329-0.225c0.437-0.296,0.87-0.596,1.294-0.908c0.022-0.016,0.042-0.031,0.063-0.047
	c1.418-1.043,2.769-2.169,4.051-3.369c0.073-0.068,0.146-0.133,0.219-0.202c0.351-0.333,0.692-0.674,1.032-1.017
	c0.129-0.131,0.259-0.26,0.387-0.393c0.317-0.328,0.627-0.662,0.934-1c0.139-0.154,0.277-0.308,0.415-0.465
	c0.296-0.335,0.589-0.674,0.875-1.019c0.133-0.161,0.262-0.324,0.393-0.486c0.284-0.353,0.569-0.706,0.843-1.068
	c0.097-0.127,0.188-0.259,0.283-0.387c0.639-0.862,1.252-1.746,1.828-2.655c0.016-0.025,0.033-0.05,0.05-0.075
	c0.218-0.345,0.422-0.697,0.63-1.046c0.139-0.233,0.281-0.466,0.415-0.703c0.188-0.329,0.365-0.662,0.544-0.996
	c0.144-0.269,0.287-0.537,0.425-0.808c0.165-0.324,0.325-0.651,0.483-0.98c0.14-0.293,0.276-0.588,0.41-0.884
	c0.144-0.319,0.287-0.637,0.423-0.96c0.138-0.327,0.269-0.656,0.398-0.986c0.12-0.302,0.242-0.604,0.356-0.91
	c0.156-0.421,0.299-0.848,0.442-1.275c0.099-0.295,0.198-0.588,0.292-0.885c0.177-0.566,0.344-1.135,0.497-1.71
	c0.069-0.256,0.127-0.517,0.191-0.775c0.105-0.422,0.208-0.844,0.301-1.273c0.062-0.283,0.116-0.567,0.172-0.852
	c0.081-0.414,0.158-0.829,0.227-1.246c0.047-0.285,0.092-0.572,0.134-0.86c0.063-0.431,0.119-0.864,0.169-1.298
	c0.033-0.276,0.065-0.552,0.092-0.83c0.046-0.478,0.081-0.959,0.113-1.442c0.016-0.236,0.035-0.471,0.047-0.708
	c0.035-0.721,0.057-1.444,0.057-2.174v-78.272c0-14.411,11.321-26.538,25.238-27.032c14.862-0.523,27.167,11.417,27.167,26.186
	v187.576c0,15.793,8.257,29.948,20.594,38.049c6.462,4.243,14.044,6.827,22.145,7.115c0.538,0.019,1.075,0.028,1.609,0.028
	c0.146,0,0.29-0.01,0.437-0.011c0.299-0.004,0.596-0.013,0.894-0.023c0.484-0.014,0.965-0.033,1.446-0.062
	c0.262-0.017,0.523-0.039,0.783-0.059c0.51-0.041,1.019-0.087,1.524-0.145c0.229-0.027,0.456-0.057,0.683-0.087
	c0.532-0.069,1.063-0.146,1.589-0.235c0.198-0.034,0.396-0.07,0.593-0.106c0.55-0.1,1.098-0.208,1.641-0.329
	c0.173-0.039,0.344-0.079,0.515-0.12c0.562-0.132,1.121-0.273,1.677-0.426c0.15-0.041,0.299-0.085,0.449-0.127
	c0.571-0.164,1.137-0.339,1.698-0.525c0.129-0.044,0.259-0.087,0.388-0.132c0.575-0.197,1.144-0.404,1.709-0.624
	c0.114-0.045,0.227-0.09,0.341-0.135c0.573-0.229,1.142-0.468,1.703-0.721c0.102-0.045,0.202-0.091,0.302-0.137
	c0.569-0.26,1.13-0.531,1.685-0.814c0.092-0.047,0.185-0.094,0.276-0.142c0.559-0.289,1.109-0.59,1.654-0.902
	c0.085-0.048,0.169-0.097,0.254-0.146c0.547-0.318,1.085-0.647,1.616-0.988c0.079-0.051,0.158-0.1,0.237-0.152
	c0.53-0.345,1.051-0.7,1.565-1.066c0.077-0.054,0.155-0.109,0.231-0.165c0.509-0.368,1.01-0.746,1.504-1.136
	c0.076-0.06,0.154-0.12,0.23-0.181c0.487-0.389,0.965-0.79,1.436-1.199c0.076-0.067,0.154-0.132,0.23-0.2
	c0.465-0.409,0.918-0.829,1.365-1.257c0.077-0.074,0.155-0.146,0.231-0.22c0.438-0.426,0.865-0.861,1.285-1.304
	c0.08-0.083,0.161-0.167,0.24-0.25c0.41-0.439,0.809-0.888,1.201-1.344c0.082-0.094,0.165-0.189,0.246-0.284
	c0.382-0.451,0.752-0.912,1.115-1.378c0.083-0.106,0.168-0.211,0.25-0.318c0.352-0.46,0.693-0.929,1.027-1.403
	c0.085-0.121,0.173-0.24,0.256-0.361c0.323-0.468,0.634-0.945,0.94-1.425c0.085-0.133,0.173-0.265,0.256-0.399
	c0.294-0.473,0.575-0.954,0.85-1.44c0.085-0.15,0.174-0.296,0.258-0.446c0.265-0.479,0.517-0.965,0.765-1.455
	c0.082-0.162,0.168-0.322,0.248-0.484c0.237-0.481,0.46-0.971,0.679-1.463c0.08-0.178,0.163-0.353,0.241-0.533
	c0.208-0.484,0.402-0.974,0.593-1.466c0.075-0.192,0.156-0.383,0.229-0.577c0.183-0.489,0.35-0.985,0.514-1.482
	c0.068-0.203,0.142-0.403,0.206-0.606c0.157-0.496,0.298-1,0.438-1.504c0.058-0.21,0.123-0.417,0.179-0.629
	c0.132-0.503,0.247-1.014,0.36-1.523c0.048-0.218,0.105-0.433,0.151-0.652c0.108-0.519,0.197-1.044,0.288-1.569
	c0.036-0.214,0.081-0.426,0.115-0.641c0.087-0.556,0.154-1.12,0.219-1.684c0.022-0.188,0.052-0.373,0.071-0.56
	c0.068-0.652,0.115-1.31,0.154-1.971c0.006-0.102,0.018-0.203,0.023-0.305c0.04-0.768,0.06-1.54,0.06-2.318V195.948
	c0-10.808,6.369-20.331,15.424-24.626c3.018-1.431,6.335-2.283,9.815-2.406c14.85-0.542,27.167,11.417,27.167,26.186v36.241
	c0,8.273,2.266,16.096,6.196,22.835c7.504,12.865,21.077,21.78,36.543,22.33c3.148,0.113,6.226-0.105,9.204-0.621
	c20.862-3.61,36.753-21.832,36.753-43.699v-78.272c0-0.901,0.045-1.793,0.131-2.672c1.294-13.207,12.062-23.896,25.109-24.359
	c14.868-0.525,27.167,11.418,27.167,26.186v129.218c0,0.715,0.019,1.425,0.053,2.133c0.011,0.233,0.031,0.463,0.046,0.696
	c0.03,0.473,0.062,0.945,0.105,1.415c0.025,0.275,0.059,0.546,0.091,0.819c0.048,0.425,0.098,0.849,0.158,1.271
	c0.04,0.285,0.087,0.569,0.132,0.853c0.065,0.405,0.135,0.81,0.212,1.213c0.054,0.287,0.112,0.573,0.172,0.858
	c0.083,0.397,0.173,0.791,0.266,1.184c0.067,0.282,0.134,0.562,0.207,0.842c0.104,0.399,0.215,0.796,0.329,1.192
	c0.076,0.265,0.15,0.53,0.231,0.792c0.129,0.421,0.27,0.836,0.411,1.252c0.079,0.232,0.154,0.466,0.236,0.697
	c0.185,0.517,0.382,1.027,0.585,1.535c0.05,0.123,0.093,0.249,0.144,0.371c0.256,0.625,0.527,1.244,0.809,1.856
	c0.09,0.194,0.186,0.382,0.278,0.573c0.201,0.419,0.403,0.836,0.616,1.247c0.122,0.236,0.252,0.467,0.377,0.7
	c0.195,0.36,0.391,0.721,0.595,1.077c0.142,0.246,0.288,0.489,0.434,0.732c0.201,0.335,0.404,0.669,0.613,0.998
	c0.156,0.246,0.315,0.489,0.475,0.732c0.212,0.321,0.428,0.639,0.648,0.953c0.167,0.24,0.335,0.477,0.506,0.712
	c0.227,0.313,0.462,0.623,0.697,0.93c0.173,0.226,0.345,0.452,0.521,0.675c0.252,0.316,0.51,0.625,0.771,0.935
	c0.172,0.204,0.34,0.411,0.514,0.612c0.305,0.351,0.618,0.692,0.933,1.032c0.139,0.15,0.273,0.305,0.414,0.454
	c0.454,0.479,0.918,0.947,1.392,1.406c0.146,0.142,0.298,0.275,0.445,0.414c0.337,0.318,0.676,0.635,1.025,0.942
	c0.201,0.178,0.408,0.348,0.612,0.524c0.304,0.259,0.607,0.518,0.917,0.769c0.223,0.18,0.45,0.356,0.676,0.532
	c0.301,0.235,0.602,0.467,0.91,0.693c0.237,0.175,0.477,0.346,0.717,0.517c0.306,0.218,0.616,0.431,0.927,0.64
	c0.244,0.164,0.49,0.328,0.739,0.486c0.319,0.206,0.641,0.405,0.965,0.602c0.248,0.151,0.496,0.302,0.748,0.449
	c0.34,0.197,0.685,0.387,1.029,0.576c0.242,0.132,0.481,0.267,0.725,0.394c0.388,0.203,0.781,0.394,1.176,0.585
	c0.208,0.102,0.414,0.208,0.623,0.305c0.6,0.279,1.207,0.547,1.821,0.8c0.134,0.056,0.272,0.103,0.408,0.157
	c0.489,0.195,0.98,0.386,1.476,0.564c0.238,0.085,0.48,0.161,0.72,0.242c0.399,0.135,0.8,0.27,1.204,0.392
	c0.267,0.082,0.537,0.156,0.806,0.232c0.385,0.109,0.769,0.217,1.158,0.315c0.281,0.071,0.561,0.137,0.844,0.202
	c0.212,0.05,0.421,0.106,0.634,0.152v129.157H458.579z M493.855,283.141c0,6.999-2.725,13.58-7.674,18.528
	c-4.923,4.923-11.463,7.641-18.421,7.668c-0.036,0-0.071-0.006-0.108-0.006h-0.3c-0.221,0-0.441,0.001-0.664-0.007
	c-5.218-0.185-10.073-2.007-14.101-4.97c-5.371-3.952-9.277-9.935-10.623-16.782c-0.336-1.712-0.514-3.478-0.514-5.279V153.075
	c0-5.468-0.994-10.706-2.812-15.543c-6.491-17.285-23.478-29.482-43.145-28.775c-21.358,0.76-39.105,17.471-42.245,38.51
	c-0.325,2.176-0.494,4.4-0.494,6.656v78.272c0,11.999-8.104,22.146-19.128,25.237c-2.54,0.711-5.235,1.048-8.025,0.948
	c-0.005,0-0.01,0-0.013,0c-13.047-0.466-23.813-11.152-25.109-24.359c-0.086-0.881-0.131-1.772-0.131-2.672v-36.241
	c0-17.965-10.727-33.457-26.124-40.422c-6.021-2.727-12.75-4.147-19.825-3.896c-0.002,0-0.005,0-0.007,0
	c-10.168,0.362-19.514,4.345-26.859,10.684c-0.635,0.548-1.259,1.107-1.863,1.689c-0.005,0.005-0.008,0.01-0.013,0.013
	c-8.598,8.295-14.003,19.999-14.003,32.777v158.284c0,0.726-0.038,1.443-0.096,2.154c-1.055,12.853-11.441,23.136-24.309,23.994
	c-0.908,0.059-1.83,0.073-2.762,0.038c-6.958-0.248-13.268-3.403-17.838-8.297s-7.401-11.529-7.401-18.734V165.813
	c0-0.777-0.021-1.55-0.061-2.316c-0.006-0.127-0.022-0.252-0.029-0.379c-0.039-0.634-0.082-1.267-0.148-1.894
	c-0.023-0.227-0.059-0.451-0.086-0.677c-0.062-0.524-0.123-1.046-0.204-1.564c-0.04-0.26-0.093-0.515-0.139-0.774
	c-0.083-0.479-0.163-0.958-0.262-1.431c-0.057-0.276-0.127-0.547-0.19-0.82c-0.103-0.45-0.202-0.901-0.318-1.345
	c-0.074-0.283-0.16-0.561-0.24-0.842c-0.121-0.429-0.24-0.86-0.374-1.283c-0.09-0.284-0.191-0.564-0.287-0.846
	c-0.139-0.413-0.277-0.826-0.428-1.234c-0.105-0.283-0.221-0.561-0.333-0.842c-0.157-0.398-0.313-0.798-0.481-1.192
	c-0.12-0.278-0.249-0.549-0.374-0.825c-0.177-0.388-0.351-0.777-0.537-1.159c-0.133-0.271-0.275-0.537-0.412-0.804
	c-0.194-0.377-0.387-0.754-0.592-1.124c-0.145-0.264-0.299-0.52-0.449-0.78c-0.212-0.367-0.423-0.733-0.646-1.094
	c-0.157-0.255-0.322-0.504-0.485-0.755c-0.229-0.354-0.458-0.71-0.697-1.058c-0.169-0.246-0.345-0.486-0.518-0.728
	c-0.247-0.345-0.494-0.688-0.75-1.025c-0.179-0.235-0.364-0.465-0.548-0.697c-0.264-0.333-0.529-0.665-0.802-0.991
	c-0.189-0.225-0.383-0.444-0.577-0.665c-0.281-0.322-0.563-0.641-0.853-0.954c-0.197-0.213-0.4-0.422-0.602-0.631
	c-0.298-0.308-0.596-0.616-0.902-0.916c-0.207-0.203-0.419-0.4-0.629-0.6c-0.312-0.295-0.627-0.588-0.948-0.873
	c-0.217-0.192-0.435-0.38-0.656-0.569c-0.327-0.279-0.656-0.556-0.991-0.827c-0.225-0.181-0.452-0.358-0.681-0.536
	c-0.341-0.265-0.683-0.525-1.032-0.78c-0.233-0.171-0.469-0.336-0.706-0.503c-0.354-0.248-0.71-0.492-1.072-0.731
	c-0.241-0.158-0.485-0.313-0.729-0.468c-0.367-0.231-0.735-0.457-1.109-0.679c-0.249-0.148-0.502-0.292-0.755-0.434
	c-0.377-0.213-0.758-0.421-1.142-0.624c-0.258-0.135-0.517-0.269-0.778-0.399c-0.387-0.195-0.778-0.383-1.171-0.566
	c-0.267-0.125-0.536-0.246-0.806-0.365c-0.396-0.174-0.794-0.342-1.195-0.506c-0.276-0.113-0.553-0.223-0.832-0.329
	c-0.402-0.154-0.807-0.301-1.214-0.443c-0.287-0.1-0.575-0.198-0.865-0.293c-0.406-0.133-0.817-0.258-1.229-0.379
	c-0.298-0.087-0.595-0.173-0.895-0.255c-0.411-0.111-0.824-0.214-1.24-0.315c-0.308-0.074-0.618-0.148-0.929-0.215
	c-0.412-0.09-0.827-0.171-1.244-0.248c-0.321-0.06-0.641-0.12-0.965-0.173c-0.411-0.068-0.825-0.126-1.24-0.183
	c-0.335-0.045-0.67-0.091-1.006-0.128c-0.409-0.046-0.82-0.082-1.233-0.116c-0.348-0.029-0.696-0.058-1.046-0.08
	c-0.405-0.024-0.813-0.039-1.221-0.052c-0.363-0.012-0.726-0.024-1.091-0.028c-0.127-0.001-0.252-0.01-0.379-0.01
	c-0.533,0-1.071,0.01-1.609,0.028c-23.565,0.837-42.739,21.098-42.739,45.165v78.272c0,0.456-0.012,0.91-0.035,1.361
	c-0.007,0.148-0.023,0.292-0.034,0.438c-0.021,0.302-0.04,0.606-0.071,0.907c-0.017,0.168-0.044,0.333-0.064,0.5
	c-0.034,0.276-0.065,0.552-0.108,0.825c-0.028,0.177-0.063,0.351-0.094,0.526c-0.046,0.26-0.09,0.52-0.143,0.778
	c-0.036,0.177-0.081,0.351-0.122,0.526c-0.058,0.253-0.114,0.506-0.179,0.756c-0.045,0.173-0.098,0.344-0.146,0.515
	c-0.07,0.248-0.139,0.497-0.217,0.742c-0.053,0.169-0.114,0.335-0.171,0.502c-0.082,0.243-0.163,0.488-0.253,0.728
	c-0.062,0.166-0.129,0.328-0.195,0.492c-0.094,0.237-0.186,0.475-0.287,0.709c-0.07,0.162-0.145,0.321-0.218,0.481
	c-0.105,0.231-0.209,0.463-0.321,0.691c-0.079,0.16-0.162,0.316-0.243,0.473c-0.115,0.223-0.229,0.445-0.35,0.664
	c-0.087,0.157-0.179,0.312-0.269,0.467c-0.125,0.214-0.248,0.428-0.379,0.639c-0.094,0.154-0.195,0.304-0.292,0.455
	c-0.133,0.206-0.266,0.413-0.405,0.615c-0.104,0.151-0.212,0.299-0.318,0.448c-0.142,0.196-0.282,0.392-0.428,0.584
	c-0.114,0.15-0.231,0.296-0.348,0.443c-0.146,0.184-0.293,0.368-0.443,0.547c-0.126,0.149-0.254,0.295-0.383,0.442
	c-0.15,0.171-0.3,0.341-0.455,0.508c-0.137,0.148-0.277,0.293-0.417,0.438c-0.152,0.158-0.306,0.316-0.463,0.471
	c-0.15,0.146-0.302,0.29-0.455,0.434c-0.154,0.144-0.308,0.288-0.466,0.429c-0.163,0.145-0.329,0.288-0.495,0.429
	c-0.154,0.131-0.307,0.26-0.463,0.387c-0.179,0.145-0.362,0.288-0.544,0.428c-0.149,0.114-0.298,0.227-0.449,0.339
	c-0.197,0.145-0.397,0.287-0.599,0.426c-0.143,0.099-0.285,0.197-0.431,0.293c-0.215,0.143-0.434,0.283-0.654,0.42
	c-0.135,0.083-0.271,0.167-0.406,0.249c-0.236,0.14-0.474,0.278-0.715,0.411c-0.125,0.069-0.249,0.138-0.375,0.204
	c-0.259,0.138-0.519,0.272-0.783,0.402c-0.111,0.054-0.223,0.109-0.335,0.162c-0.282,0.134-0.567,0.264-0.855,0.387
	c-0.096,0.041-0.192,0.082-0.288,0.122c-0.307,0.128-0.617,0.25-0.929,0.367c-0.08,0.03-0.16,0.058-0.24,0.087
	c-0.333,0.12-0.669,0.235-1.008,0.341c-0.06,0.019-0.121,0.038-0.183,0.057c-0.359,0.11-0.722,0.214-1.089,0.31
	c-0.041,0.011-0.082,0.021-0.125,0.031c-0.387,0.099-0.777,0.19-1.17,0.271c-0.021,0.005-0.041,0.008-0.063,0.012
	c-1.692,0.345-3.444,0.526-5.237,0.526c-0.012,0-0.024,0.001-0.037,0.002c-0.308,0-0.616,0.002-0.927-0.008
	c-13.914-0.494-25.236-12.619-25.236-27.029V83.865c0-15.186,12.354-27.542,27.542-27.542h420.628
	c15.186,0,27.542,12.355,27.542,27.542v199.276H493.855z"/>
<g>
</g>
<g>
</g>
<g>
</g>
<g>
</g>
<g>
</g>
<g>
</g>
<g>
</g>
<g>
</g>
<g>
</g>
<g>
</g>
<g>
</g>
<g>
</g>
<g>
</g>
<g>
</g>
<g>
</g>
</svg>
