<?xml version="1.0" encoding="iso-8859-1"?>
<!-- Generator: Adobe Illustrator 19.0.0, SVG Export Plug-In . SVG Version: 6.00 Build 0)  -->
<svg version="1.1" id="Layer_1" xmlns="http://www.w3.org/2000/svg" xmlns:xlink="http://www.w3.org/1999/xlink" x="0px" y="0px"
	 viewBox="0 0 511.997 511.997" style="enable-background:new 0 0 511.997 511.997;" xml:space="preserve">
<g>
	<path style="fill:#58422C;" d="M31.608,434.158c-15.351,15.351-15.351,40.24,0,55.592c15.351,15.351,40.24,15.351,55.592,0
		l137.124-137.124l-55.592-55.592L31.608,434.158z"/>
	<polygon style="fill:#58422C;" points="182.439,283.327 168.734,297.032 224.324,352.624 239.144,337.653 	"/>
</g>
<g>
	<circle style="fill:#C7C5CC;" cx="157.821" cy="366.927" r="12.852"/>
	<circle style="fill:#C7C5CC;" cx="87.102" cy="437.65" r="12.852"/>
	<path style="fill:#C7C5CC;" d="M257.031,385.331l-88.299-88.299L455.029,10.737l0,0c47.089,47.089,50.126,126.472,3.036,173.56
		L257.031,385.331z"/>
</g>
<path style="fill:#FF3C63;" d="M371.557,305.104l-54.558-54.557c-7.446-7.446-7.446-19.519,0-26.965
	c7.446-7.446,19.519-7.446,26.965,0l3.941,3.941c7.446,7.446,19.519,7.446,26.966,0s7.446-19.52,0-26.966l-17.102-17.102
	c-7.446-7.446-7.446-19.519,0-26.965s19.519-7.446,26.965,0l67.718,67.718c7.446,7.446,19.519,7.446,26.966,0
	c7.446-7.446,7.446-19.52,0-26.966L373.97,91.793L239.142,226.622L344.59,332.07c7.446,7.446,19.52,7.446,26.966,0
	C379.005,324.622,379.003,312.549,371.557,305.104z"/>
<g>
	<path style="opacity:0.3;fill:#20272E;enable-background:new    ;" d="M51.854,454.404L188.979,317.28l0,0l0,0l0,0L472.893,33.366
		c-4.995-8.102-10.951-15.715-17.864-22.628l0,0L168.734,297.032l0,0l0,0l0,0L31.608,434.158c-15.351,15.351-15.351,40.24,0,55.592
		c3.573,3.573,7.666,6.303,12.033,8.213C37.346,483.571,40.078,466.181,51.854,454.404z"/>
	<path style="fill:#20272E;" d="M476.628,179.26c39.135-51.476,33.746-128.363-14.006-176.116C460.608,1.131,457.878,0,455.03,0
		c-2.848,0-5.579,1.131-7.592,3.144l-81.052,81.052c-0.001,0.001-0.003,0.001-0.004,0.003l-134.828,134.83l-70.408,70.408
		c-0.001,0.001-0.001,0.001-0.003,0.003L24.019,426.563c-19.513,19.515-19.513,51.264,0,70.777
		c9.453,9.453,22.02,14.657,35.388,14.657s25.935-5.205,35.387-14.657l129.533-129.533l25.115,25.115
		c2.013,2.013,4.744,3.144,7.592,3.144c2.848,0,5.579-1.131,7.592-3.144l62.819-62.819l9.556,9.556
		c5.629,5.629,13.114,8.73,21.075,8.73s15.446-3.101,21.075-8.73c5.629-5.631,8.73-13.114,8.73-21.076
		c0-7.961-3.101-15.444-8.73-21.075l-9.556-9.556l65.712-65.713l9.556,9.556c5.629,5.629,13.114,8.73,21.075,8.73
		s15.446-3.101,21.074-8.73c5.629-5.629,8.73-13.112,8.73-21.075c0-7.963-3.101-15.446-8.729-21.076L476.628,179.26z
		 M454.674,26.279c32.802,39.626,35.527,97.371,6.631,137.657L389.159,91.79L454.674,26.279z M79.608,482.156
		c-5.397,5.397-12.571,8.369-20.203,8.369s-14.807-2.972-20.203-8.369c-11.141-11.14-11.141-29.265,0-40.406l129.533-129.533
		l40.406,40.408L79.608,482.156z M257.034,370.147l-73.113-73.113l55.225-55.227l73.115,73.113L257.034,370.147z M354.411,272.77
		l-17.891-17.89l-11.927-11.927c-1.18-1.18-1.961-2.651-2.279-4.251c-0.106-0.534-0.16-1.081-0.16-1.638
		c0-2.225,0.866-4.318,2.439-5.89c1.573-1.575,3.665-2.439,5.891-2.439s4.316,0.865,5.891,2.439l3.941,3.94
		c0.703,0.704,1.436,1.369,2.195,1.991c5.313,4.365,11.914,6.74,18.88,6.74c7.961,0,15.446-3.101,21.075-8.73
		c0.717-0.717,1.392-1.467,2.027-2.242c0.1-0.123,0.182-0.253,0.281-0.378c0.527-0.666,1.036-1.341,1.502-2.044
		c0.02-0.03,0.036-0.062,0.056-0.092c3.161-4.809,4.866-10.431,4.866-16.319c0-5.898-1.711-11.53-4.88-16.345
		c-0.014-0.021-0.024-0.043-0.039-0.064c-0.47-0.709-0.984-1.392-1.516-2.063c-0.093-0.117-0.172-0.243-0.268-0.359
		c-0.634-0.776-1.31-1.525-2.027-2.243l-17.102-17.101c-1.573-1.573-2.439-3.665-2.439-5.888c0-2.226,0.866-4.318,2.439-5.89
		c1.573-1.575,3.666-2.441,5.891-2.441c2.225,0,4.316,0.866,5.89,2.439l42.976,42.976L354.411,272.77z M471.829,216.614
		c-1.573,1.573-3.665,2.439-5.89,2.439c-2.225,0-4.318-0.866-5.891-2.441l-67.718-67.718c-5.629-5.629-13.112-8.729-21.074-8.729
		s-15.447,3.101-21.076,8.73c-5.629,5.631-8.73,13.114-8.73,21.075c0,7.963,3.101,15.446,8.73,21.076l17.102,17.101
		c0.042,0.042,0.069,0.09,0.109,0.132c0.352,0.368,0.677,0.753,0.949,1.164c0.059,0.089,0.095,0.189,0.15,0.281
		c0.231,0.381,0.452,0.767,0.617,1.174c0.019,0.047,0.026,0.099,0.044,0.146c0.742,1.93,0.74,4.076-0.004,6.004
		c-0.016,0.043-0.023,0.089-0.04,0.132c-0.17,0.419-0.397,0.822-0.639,1.214c-0.047,0.076-0.077,0.163-0.127,0.238
		c-0.303,0.46-0.656,0.895-1.059,1.297c-1.573,1.575-3.665,2.439-5.891,2.439s-4.316-0.865-5.891-2.439l-3.941-3.941
		c-4.222-4.222-9.487-7.021-15.215-8.156c-1.91-0.378-3.87-0.573-5.86-0.573s-3.951,0.193-5.86,0.573
		c-5.728,1.135-10.993,3.934-15.215,8.156c-4.744,4.744-7.666,10.813-8.475,17.37c-0.15,1.223-0.255,2.455-0.255,3.707
		c0,4.492,1.019,8.819,2.892,12.76c1.446,3.044,3.386,5.863,5.838,8.316l54.557,54.557c1.573,1.573,2.439,3.665,2.439,5.89
		s-0.866,4.316-2.439,5.888c-1.573,1.575-3.665,2.441-5.891,2.441c-2.225,0-4.318-0.866-5.891-2.441l-41.681-41.681l-56.174-56.174
		l119.643-119.644l24.464,24.464l73.391,73.393c1.573,1.573,2.44,3.665,2.44,5.89C474.27,212.948,473.404,215.04,471.829,216.614z"
		/>
</g>
<g>
</g>
<g>
</g>
<g>
</g>
<g>
</g>
<g>
</g>
<g>
</g>
<g>
</g>
<g>
</g>
<g>
</g>
<g>
</g>
<g>
</g>
<g>
</g>
<g>
</g>
<g>
</g>
<g>
</g>
</svg>
