<?xml version="1.0" encoding="iso-8859-1"?>
<!-- Generator: Adobe Illustrator 19.0.0, SVG Export Plug-In . SVG Version: 6.00 Build 0)  -->
<svg version="1.1" id="Layer_1" xmlns="http://www.w3.org/2000/svg" xmlns:xlink="http://www.w3.org/1999/xlink" x="0px" y="0px"
	 viewBox="0 0 512 512" style="enable-background:new 0 0 512 512;" xml:space="preserve">
<path style="fill:#CC6D00;" d="M259.883,418.617c237.818,0,242.413-157.397,242.413-157.397c-40.211-19.531-105.697,0-105.697,0
	c81.571-56.295,71.23-119.534,71.23-119.534c-60.891-20.68-144.078,29.015-144.078,29.015
	c10.808-109.387-67.753-149.698-67.753-149.698s-78.561,40.311-67.753,149.698c0,0-83.187-49.695-144.078-29.015
	c0,0-10.339,63.238,71.23,119.534c0,0-65.486-19.531-105.697,0c0,0,4.595,157.397,242.413,157.397H259.883z"/>
<path style="fill:#FF8800;" d="M432.234,301.73c-3.261-4.252-9.352-5.056-13.605-1.794c-53.395,40.949-126.412,52.08-152.927,54.865
	v-68.018c61.115-20.043,126.452-77.813,129.308-80.355c4.001-3.564,4.357-9.698,0.793-13.699c-3.565-4.003-9.699-4.357-13.699-0.793
	c-0.646,0.574-60.705,53.695-116.403,74.298V113.016c0-5.359-4.344-9.703-9.703-9.703c-5.359,0-9.703,4.344-9.703,9.703v153.217
	c-55.641-20.595-115.757-73.723-116.404-74.298c-4.001-3.562-10.134-3.206-13.698,0.797c-3.562,4.001-3.207,10.134,0.794,13.697
	c2.855,2.542,68.194,60.311,129.308,80.355v68.027c-26.495-2.765-99.427-13.847-152.927-54.874
	c-4.251-3.261-10.342-2.457-13.605,1.794c-3.261,4.252-2.457,10.343,1.796,13.605c59.257,45.443,137.948,56.495,164.735,59.018
	v39.022c0,5.359,4.344,9.703,9.703,9.703c5.359,0,9.703-4.344,9.703-9.703v-39.022c26.786-2.521,105.479-13.574,164.736-59.018
	C434.691,312.075,435.494,305.984,432.234,301.73z"/>
<g>
	<path style="opacity:0.3;fill:#20272E;enable-background:new    ;" d="M396.6,261.221c81.571-56.296,71.23-119.534,71.23-119.534
		c-60.891-20.68-144.078,29.015-144.078,29.015C334.56,61.315,256,21.004,256,21.004v479.695c5.359,0,9.703-4.344,9.703-9.703
		v-72.413c232.072-2.547,236.594-157.363,236.594-157.363C462.086,241.691,396.6,261.221,396.6,261.221z"/>
	<path style="fill:#20272E;" d="M506.536,252.493c-13.189-6.408-29.848-9.655-49.513-9.655c-8.515,0-16.839,0.603-24.503,1.499
		c52.672-51.628,45.286-101.777,44.887-104.215c-0.578-3.538-3.06-6.469-6.454-7.623c-10.846-3.683-22.967-5.551-36.027-5.551
		c-39.267,0-79.174,16.583-100.489,27.072c0.828-50.014-16.871-84.396-32.819-105.107c-19.391-25.182-40.307-36.089-41.188-36.542
		c-2.779-1.427-6.079-1.427-8.859,0c-0.881,0.453-21.796,11.359-41.188,36.542c-15.946,20.71-33.647,55.094-32.819,105.107
		c-21.315-10.489-61.224-27.073-100.488-27.073c-13.06,0-25.181,1.868-36.027,5.551c-3.395,1.153-5.877,4.084-6.454,7.623
		c-0.4,2.437-7.786,52.587,44.887,104.215c-7.665-0.895-15.989-1.499-24.503-1.499c-19.664,0-36.324,3.249-49.513,9.655
		c-3.435,1.668-5.572,5.194-5.461,9.011c0.05,1.737,1.616,43.018,34.091,84.404c18.931,24.125,44.482,43.307,75.941,57.011
		c37.329,16.261,83.162,24.764,136.261,25.344v62.733c0,5.359,4.343,9.703,9.703,9.703c5.36,0,9.703-4.344,9.703-9.703v-62.733
		c53.099-0.581,98.933-9.083,136.263-25.344c31.459-13.704,57.009-32.885,75.939-57.011c32.476-41.386,34.041-82.667,34.092-84.404
		C512.108,257.687,509.972,254.161,506.536,252.493z M461.943,334.809c-17.011,21.35-40.058,38.393-68.502,50.654
		c-36.096,15.561-81.032,23.45-133.556,23.45h-7.766c-52.526,0-97.46-7.89-133.557-23.45
		c-28.442-12.262-51.491-29.304-68.502-50.654c-21.835-27.406-28.161-55.207-29.958-67.432c9.562-3.41,21.257-5.135,34.88-5.135
		c29.438,0,57.376,8.194,57.649,8.275c4.575,1.364,9.461-0.8,11.523-5.104c2.062-4.304,0.688-9.469-3.239-12.18
		c-31.147-21.496-52.628-47.363-62.116-74.801c-4.434-12.817-5.309-23.275-5.334-29.366c7.24-1.802,15.156-2.713,23.615-2.713
		c50.77,0,105.651,32.354,106.194,32.678c3.145,1.878,7.079,1.827,10.175-0.136c3.093-1.964,4.818-5.501,4.457-9.147
		c-4.194-42.454,4.99-78.881,27.3-108.268c11.771-15.505,24.324-24.907,30.797-29.152c6.485,4.252,19.033,13.654,30.799,29.152
		c22.31,29.387,31.495,65.812,27.3,108.268c-0.36,3.646,1.365,7.184,4.458,9.147s7.03,2.017,10.174,0.136
		c0.547-0.326,55.287-32.678,106.195-32.678c8.46,0,16.373,0.911,23.614,2.713c-0.027,6.108-0.903,16.559-5.333,29.367
		c-9.488,27.438-30.969,53.305-62.117,74.801c-3.926,2.71-5.298,7.871-3.238,12.174s6.945,6.47,11.517,5.111
		c0.278-0.083,28.213-8.277,57.654-8.277c13.621,0,25.317,1.724,34.878,5.133C490.099,279.622,483.772,307.412,461.943,334.809z"/>
</g>
<g>
</g>
<g>
</g>
<g>
</g>
<g>
</g>
<g>
</g>
<g>
</g>
<g>
</g>
<g>
</g>
<g>
</g>
<g>
</g>
<g>
</g>
<g>
</g>
<g>
</g>
<g>
</g>
<g>
</g>
</svg>
