<?xml version="1.0" encoding="iso-8859-1"?>
<!-- Generator: Adobe Illustrator 19.0.0, SVG Export Plug-In . SVG Version: 6.00 Build 0)  -->
<svg version="1.1" id="Layer_1" xmlns="http://www.w3.org/2000/svg" xmlns:xlink="http://www.w3.org/1999/xlink" x="0px" y="0px"
	 viewBox="0 0 511.999 511.999" style="enable-background:new 0 0 511.999 511.999;" xml:space="preserve">
<path style="fill:#5C1B6F;" d="M255.997,178.618c-10.104,0-18.296-8.192-18.296-18.296V97.887c0-28.754-23.393-52.147-52.147-52.147
	s-52.147,23.393-52.147,52.147v62.435c0,10.104-8.192,18.296-18.296,18.296s-18.296-8.192-18.296-18.296V97.887
	c0-48.93,39.808-88.738,88.738-88.738s88.738,39.808,88.738,88.738v62.435C274.293,170.426,266.101,178.618,255.997,178.618z"/>
<path style="fill:#7F2599;" d="M396.883,178.618c-10.104,0-18.296-8.192-18.296-18.296V97.887c0-28.754-23.393-52.147-52.147-52.147
	c-28.754,0-52.147,23.393-52.147,52.147v62.435c0,10.104-8.192,18.296-18.296,18.296s-18.296-8.192-18.296-18.296V97.887
	c0-48.93,39.808-88.738,88.738-88.738s88.738,39.808,88.738,88.738v62.435C415.179,170.426,406.988,178.618,396.883,178.618z"/>
<polygon style="fill:#FF8800;" points="44.667,160.322 79.889,114.739 115.111,160.322 150.333,114.739 185.555,160.322 
	220.775,114.739 255.997,160.322 291.219,114.739 326.441,160.322 361.662,114.739 396.884,160.322 432.105,114.739 
	467.327,160.322 467.327,502.851 44.667,502.851 "/>
<polygon style="fill:#CC6D00;" points="150.333,114.739 115.111,160.322 79.889,114.739 44.667,160.322 44.667,502.851 
	185.555,502.851 185.555,160.322 "/>
<g>
	<polygon style="opacity:0.3;fill:#20272E;enable-background:new    ;" points="185.555,502.851 467.327,502.851 467.327,160.322 	
		"/>
	<path style="fill:#20272E;" d="M474.566,154.729l-35.222-45.583c-1.732-2.242-4.406-3.554-7.239-3.554s-5.507,1.312-7.239,3.554
		l-0.539,0.698V97.886C424.327,43.912,380.416,0,326.441,0c-27.634,0-52.611,11.529-70.427,30.006
		C237.606,10.815,212.48,0,185.555,0C131.58,0,87.668,43.912,87.668,97.887v11.957l-0.539-0.699
		c-1.732-2.242-4.406-3.554-7.239-3.554s-5.507,1.312-7.239,3.554l-35.221,45.583c-1.238,1.602-1.909,3.57-1.909,5.594v342.529
		c0,5.053,4.096,9.148,9.148,9.148h422.659c5.052,0,9.148-4.095,9.148-9.148V160.322
		C476.474,158.299,475.804,156.331,474.566,154.729z M246.653,97.88c0.022-0.698,0.049-1.394,0.078-2.091
		c1.752-41.308,35.056-75.849,76.642-77.435c1.022-0.039,2.045-0.059,3.068-0.059c43.887,0,79.59,35.704,79.59,79.591v35.635
		l-9.148,11.839l-9.148-11.84V97.887c0-33.798-27.496-61.296-61.294-61.296s-61.295,27.497-61.295,61.296v35.634l-9.148,11.84
		l-9.148-11.839C246.85,121.686,246.271,109.711,246.653,97.88z M369.439,97.887v11.956l-0.539-0.698
		c-1.732-2.242-4.406-3.554-7.239-3.554s-5.507,1.312-7.239,3.554l-27.983,36.215l-27.983-36.215
		c-1.732-2.242-4.406-3.554-7.239-3.554s-5.507,1.312-7.239,3.554l-0.539,0.698V97.887c0-23.71,19.29-43,42.999-43
		C350.147,54.887,369.439,74.176,369.439,97.887z M105.963,97.887c0-43.888,35.705-79.592,79.592-79.592
		c22.688,0,43.814,9.455,58.916,26.156c-0.174,0.267-0.331,0.542-0.503,0.81c-3.413,5.311-6.345,10.981-8.666,16.854
		c-11.14-15.45-29.288-25.524-49.747-25.524c-33.797,0-61.295,27.497-61.295,61.296v35.634l-9.148,11.84l-9.148-11.84V97.887
		H105.963z M176.407,493.704H53.815v-330.26l26.074-33.744l27.983,36.215c1.732,2.242,4.406,3.554,7.239,3.554
		c2.832,0,5.507-1.312,7.239-3.554l27.983-36.215l26.074,33.745V493.704z M157.572,109.145c-1.733-2.242-4.406-3.554-7.239-3.554
		s-5.507,1.312-7.239,3.554l-0.538,0.698V97.887c0-23.71,19.289-43,42.999-43s42.999,19.289,42.999,43c0,0.004,0,0.007,0,0.012
		v11.945l-0.539-0.699c-1.732-2.242-4.406-3.554-7.239-3.554c-2.832,0-5.507,1.312-7.239,3.554l-27.983,36.215L157.572,109.145z
		 M458.179,493.704H194.702V163.446l26.073-33.745l27.983,36.215c1.732,2.242,4.406,3.554,7.239,3.554
		c2.833,0,5.507-1.312,7.239-3.554l27.983-36.215l27.983,36.215c1.732,2.242,4.406,3.554,7.239,3.554s5.507-1.312,7.239-3.554
		l27.983-36.215l27.983,36.215c1.732,2.242,4.406,3.554,7.239,3.554c2.832,0,5.507-1.312,7.239-3.554l27.983-36.215l26.074,33.744
		v330.26H458.179z"/>
</g>
<g>
</g>
<g>
</g>
<g>
</g>
<g>
</g>
<g>
</g>
<g>
</g>
<g>
</g>
<g>
</g>
<g>
</g>
<g>
</g>
<g>
</g>
<g>
</g>
<g>
</g>
<g>
</g>
<g>
</g>
</svg>
