<?xml version="1.0" encoding="iso-8859-1"?>
<!-- Generator: Adobe Illustrator 19.0.0, SVG Export Plug-In . SVG Version: 6.00 Build 0)  -->
<svg version="1.1" id="Layer_1" xmlns="http://www.w3.org/2000/svg" xmlns:xlink="http://www.w3.org/1999/xlink" x="0px" y="0px"
	 viewBox="0 0 512 512" style="enable-background:new 0 0 512 512;" xml:space="preserve">
<path style="fill:#FF8800;" d="M227.36,86.683c-118.318,14.15-210.047,114.84-210.047,236.97v36.719
	c0,77.939,63.182,141.119,141.119,141.119h195.134c77.939,0,141.119-63.182,141.119-141.119v-36.719
	c0-122.129-91.73-222.82-210.047-236.97C284.638,86.683,227.36,86.683,227.36,86.683z"/>
<path style="fill:#00C279;" d="M255.999,10.508L255.999,10.508c-15.817,0-28.639,12.822-28.639,28.639v63.616
	c0,15.817,12.822,28.639,28.639,28.639l0,0c15.817,0,28.639-12.822,28.639-28.639V39.147
	C284.638,23.33,271.815,10.508,255.999,10.508z"/>
<g>
	<path style="fill:#B35F00;" d="M175.333,238.686c-6.57-7.698-18.429-7.698-24.999,0c-18.922,22.169-49.59,73.117-19.337,73.117
		h63.672C224.922,311.804,194.253,260.855,175.333,238.686z"/>
	<path style="fill:#B35F00;" d="M336.666,238.686c6.57-7.698,18.429-7.698,24.999,0c18.922,22.169,49.59,73.117,19.337,73.117
		h-63.673C287.076,311.804,317.744,260.855,336.666,238.686z"/>
	<path style="fill:#B35F00;" d="M247.492,297.505c4.472-5.239,12.544-5.239,17.017,0c12.879,15.09,33.754,49.769,13.162,49.769
		H234.33C213.736,347.275,234.611,312.595,247.492,297.505z"/>
	<path style="fill:#B35F00;" d="M317.649,358.734h-25.881V370.2c0,5.803-4.704,10.508-10.508,10.508
		c-5.805,0-10.508-4.705-10.508-10.508v-11.465h-29.502V370.2c0,5.803-4.704,10.508-10.508,10.508
		c-5.805,0-10.508-4.705-10.508-10.508v-11.465H194.35c-5.805,0-10.508,4.705-10.508,10.508c0,39.788,32.37,72.158,72.158,72.158
		s72.158-32.37,72.158-72.158C328.157,363.439,323.453,358.734,317.649,358.734z"/>
</g>
<g>
	<path style="opacity:0.3;fill:#20272E;enable-background:new    ;" d="M284.638,86.683V39.147
		c0-15.817-12.822-28.639-28.639-28.639l0,0v490.983h97.567c77.937,0,141.119-63.182,141.119-141.119v-36.719
		C494.686,201.523,402.956,100.833,284.638,86.683z"/>
	<path style="fill:#20272E;" d="M295.147,77.548V39.146C295.147,17.56,277.585,0,255.999,0s-39.147,17.56-39.147,39.146v38.402
		C96.462,96.519,6.805,200.698,6.805,323.653v36.718C6.805,443.98,74.825,512,158.432,512h195.134
		c83.608,0,151.629-68.02,151.629-151.629v-36.718C505.194,200.698,415.536,96.519,295.147,77.548z M237.869,86.683V39.146
		c0-9.997,8.133-18.129,18.13-18.129s18.13,8.133,18.13,18.129v47.537v16.081c0,9.997-8.133,18.129-18.13,18.129
		s-18.13-8.133-18.13-18.129V86.683z M484.177,360.371c0,72.019-58.592,130.612-130.612,130.612H158.431
		c-72.019,0-130.611-58.592-130.611-130.612v-36.718c0-111.469,80.462-206.096,189.031-224.821v3.932
		c0,21.586,17.562,39.146,39.147,39.146s39.147-17.56,39.147-39.146v-3.932c108.569,18.725,189.032,113.352,189.032,224.821V360.371
		z"/>
</g>
<g>
</g>
<g>
</g>
<g>
</g>
<g>
</g>
<g>
</g>
<g>
</g>
<g>
</g>
<g>
</g>
<g>
</g>
<g>
</g>
<g>
</g>
<g>
</g>
<g>
</g>
<g>
</g>
<g>
</g>
</svg>
