<?xml version="1.0" encoding="iso-8859-1"?>
<!-- Generator: Adobe Illustrator 19.0.0, SVG Export Plug-In . SVG Version: 6.00 Build 0)  -->
<svg version="1.1" id="Layer_1" xmlns="http://www.w3.org/2000/svg" xmlns:xlink="http://www.w3.org/1999/xlink" x="0px" y="0px"
	 viewBox="0 0 512.001 512.001" style="enable-background:new 0 0 512.001 512.001;" xml:space="preserve">
<path style="fill:#EEE5DD;" d="M337.904,501.183c21.996-0.603,39.249-19.204,39.249-41.209v-35.607l0,0
	c44.607,0,80.769-36.161,80.769-80.769V212.739c0-18.153-2.409-35.739-6.901-52.474C427.918,74.192,349.366,10.817,256,10.817l0,0
	c-93.367,0-171.918,63.373-195.02,149.448l-0.166,0.604c-4.392,16.552-6.736,33.936-6.736,51.869v130.858
	c0,44.607,36.161,80.769,80.769,80.769l0,0v35.609c0,22.005,17.253,40.606,39.249,41.209L337.904,501.183z"/>
<g>
	<path style="opacity:0.3;fill:#20272E;enable-background:new    ;" d="M451.02,160.265C427.918,74.192,349.366,10.817,256,10.817
		l0,0l0,0v490.366h81.905c21.996-0.603,39.249-19.204,39.249-41.209v-35.607l0,0c44.607,0,80.769-36.161,80.769-80.769V212.739
		C457.922,194.586,455.512,177,451.02,160.265z"/>
	<path style="fill:#20272E;" d="M461.468,157.461C436.584,64.751,352.092,0,256,0S75.417,64.751,50.546,157.407l-0.188,0.688
		c-4.711,17.75-7.098,36.135-7.098,54.644v130.858c0,46.841,35.346,85.583,80.769,90.951v25.426
		c0,27.933,22.327,51.269,49.771,52.022c0.098,0.003,0.198,0.004,0.297,0.004h163.808c0.098,0,0.198-0.001,0.297-0.004
		c27.443-0.753,49.769-24.089,49.769-52.022v-25.426c45.422-5.368,80.769-44.11,80.769-90.951V212.739
		C468.739,194.034,466.291,175.435,461.468,157.461z M447.104,343.597c0,38.571-31.38,69.951-69.951,69.951
		c-5.974,0-10.817,4.843-10.817,10.817v35.607c0,16.279-12.813,29.883-28.592,30.392h-16.282v-51.254
		c0-5.974-4.843-10.817-10.817-10.817s-10.817,4.843-10.817,10.817v51.254h-33.011v-51.254c0-5.974-4.843-10.817-10.817-10.817
		c-5.974,0-10.817,4.843-10.817,10.817v51.254h-33.01v-51.254c0-5.974-4.843-10.817-10.817-10.817s-10.817,4.843-10.817,10.817
		v51.254h-16.281c-15.779-0.509-28.594-14.113-28.594-30.392v-35.607c0-5.974-4.843-10.817-10.817-10.817
		c-38.571,0-69.951-31.38-69.951-69.951V212.739c0-16.637,2.145-33.156,6.352-49.012l0.18-0.658
		C93.779,79.795,169.678,21.634,256,21.634s162.221,58.161,184.572,141.436c4.334,16.145,6.531,32.857,6.531,49.67v130.857H447.104z
		"/>
	<circle style="fill:#20272E;" cx="159.359" cy="342.892" r="23.481"/>
	<circle style="fill:#20272E;" cx="352.641" cy="342.892" r="23.481"/>
	<path style="fill:#20272E;" d="M247.444,355.945c-12.95,15.172-33.939,50.041-13.233,50.041h43.576
		c20.704,0-0.284-34.869-13.233-50.041C260.057,350.676,251.941,350.676,247.444,355.945z"/>
</g>
<g>
</g>
<g>
</g>
<g>
</g>
<g>
</g>
<g>
</g>
<g>
</g>
<g>
</g>
<g>
</g>
<g>
</g>
<g>
</g>
<g>
</g>
<g>
</g>
<g>
</g>
<g>
</g>
<g>
</g>
</svg>
