<?xml version="1.0" encoding="iso-8859-1"?>
<!-- Generator: Adobe Illustrator 19.0.0, SVG Export Plug-In . SVG Version: 6.00 Build 0)  -->
<svg version="1.1" id="Layer_1" xmlns="http://www.w3.org/2000/svg" xmlns:xlink="http://www.w3.org/1999/xlink" x="0px" y="0px"
	 viewBox="0 0 512 512" style="enable-background:new 0 0 512 512;" xml:space="preserve">
<polygon style="fill:#58422C;" points="8.631,150.344 132.887,320.616 150.145,320.616 150.145,201.328 "/>
<polygon style="opacity:0.3;fill:#20272E;enable-background:new    ;" points="150.145,320.616 150.145,264.367 8.631,150.344 
	132.887,320.616 "/>
<polygon style="fill:#58422C;" points="503.37,150.344 379.114,320.616 361.856,320.616 361.856,201.328 "/>
<polygon style="opacity:0.3;fill:#20272E;enable-background:new    ;" points="361.856,320.616 361.856,264.367 503.37,150.344 
	379.114,320.616 "/>
<polygon style="fill:#664B33;" points="392.725,127.479 392.725,384.522 447.023,458.929 339.064,420.034 393.361,494.441 
	256,444.667 118.639,494.441 172.938,420.034 64.977,458.929 119.276,384.522 119.276,127.479 64.977,53.071 172.938,91.966 
	118.639,17.559 256,67.333 393.361,17.559 339.064,91.966 447.023,53.071 "/>
<g>
	<polygon style="opacity:0.3;fill:#20272E;enable-background:new    ;" points="392.725,384.522 392.725,127.479 447.023,53.071 
		339.064,91.966 393.361,17.559 256,67.333 252.417,66.034 252.417,445.965 256,444.667 393.361,494.441 339.064,420.034 
		447.023,458.929 	"/>
	<path style="fill:#20272E;" d="M206.695,210.443c-4.016-4.705-11.265-4.705-15.281,0c-11.566,13.55-30.311,44.692-11.819,44.692
		h38.918C237.005,255.134,218.26,223.993,206.695,210.443z"/>
	<path style="fill:#20272E;" d="M305.307,210.443c-11.566,13.55-30.311,44.692-11.819,44.692h38.918
		c18.492,0-0.253-31.141-11.819-44.692C316.571,205.738,309.322,205.738,305.307,210.443z"/>
	<path style="fill:#20272E;" d="M242.755,276.815h26.49c12.587,0-0.173-21.197-8.045-30.421c-2.733-3.202-7.668-3.202-10.401,0
		C242.928,255.619,230.168,276.815,242.755,276.815z"/>
	<path style="fill:#20272E;" d="M293.683,283.82h-15.819v7.007c0,3.547-2.875,6.423-6.423,6.423c-3.547,0-6.423-2.875-6.423-6.423
		v-7.007h-18.033v7.007c0,3.547-2.875,6.423-6.423,6.423c-3.547,0-6.423-2.875-6.423-6.423v-7.007H218.32
		c-3.547,0-6.423,2.875-6.423,6.423c0,24.32,19.785,44.105,44.105,44.105c24.32,0,44.105-19.785,44.105-44.105
		C300.105,286.696,297.23,283.82,293.683,283.82z"/>
	<path style="fill:#20272E;" d="M510.342,155.431c2.235-3.063,2.209-7.227-0.066-10.261c-2.275-3.035-6.264-4.229-9.831-2.944
		l-99.091,35.7v-47.633l52.64-72.134c2.236-3.063,2.209-7.227-0.064-10.261c-2.274-3.035-6.264-4.234-9.831-2.944l-81.46,29.347
		l37.694-51.655c2.237-3.065,2.208-7.233-0.07-10.268c-2.278-3.035-6.273-4.224-9.841-2.933L256.001,58.155L121.579,9.445
		c-3.567-1.292-7.563-0.104-9.841,2.933c-2.278,3.035-2.307,7.203-0.07,10.268l37.695,51.655l-81.46-29.348
		c-3.567-1.289-7.556-0.091-9.831,2.944c-2.274,3.034-2.3,7.198-0.064,10.261l52.64,72.134v47.633l-99.091-35.7
		c-3.567-1.289-7.556-0.092-9.831,2.944c-2.275,3.034-2.301,7.198-0.066,10.261L110.646,304.78v76.928l-52.64,72.133
		c-2.236,3.063-2.209,7.227,0.064,10.261c2.275,3.035,6.264,4.233,9.831,2.944l81.46-29.347l-37.695,51.655
		c-2.237,3.065-2.208,7.233,0.07,10.268c2.279,3.038,6.274,4.225,9.841,2.933L256,453.847l134.421,48.709
		c0.962,0.349,1.956,0.517,2.939,0.517c2.66,0,5.239-1.232,6.903-3.45c2.278-3.035,2.307-7.203,0.07-10.268L362.639,437.7
		l81.46,29.347c1.025,0.369,2.073,0.556,3.129,0.509c4.683-0.096,8.449-3.921,8.449-8.628c0-2.107-0.755-4.038-2.009-5.537
		l-52.313-71.684v-76.931L510.342,155.431z M110.646,275.498L32.206,168.01l78.44,28.26V275.498z M479.795,168.01l-78.44,107.488
		V196.27L479.795,168.01z M423.447,441.262l-81.459-29.347c-3.567-1.288-7.556-0.092-9.831,2.943c-2.274,3.035-2.3,7.2-0.066,10.263
		l37.639,51.579L258.94,436.553c-1.9-0.688-3.98-0.688-5.88,0L142.268,476.7l37.639-51.579c2.236-3.063,2.209-7.227-0.064-10.261
		c-1.664-2.221-4.245-3.457-6.907-3.457c-0.977,0-1.965,0.168-2.924,0.512l-81.457,29.347l37.694-51.653
		c1.078-1.476,1.658-3.259,1.658-5.087V127.479c0-1.828-0.581-3.611-1.658-5.087L88.553,70.737l81.46,29.347
		c3.567,1.288,7.556,0.092,9.831-2.944c2.274-3.034,2.3-7.198,0.064-10.261L142.27,35.3l110.792,40.148c1.9,0.688,3.98,0.688,5.88,0
		L369.732,35.3l-37.639,51.579c-2.235,3.063-2.208,7.227,0.066,10.263c2.275,3.035,6.268,4.227,9.831,2.943l81.46-29.347
		l-37.695,51.655c-1.078,1.476-1.658,3.259-1.658,5.087v62.728v111.758v82.557c0,1.828,0.581,3.611,1.658,5.087L423.447,441.262z"/>
</g>
<g>
</g>
<g>
</g>
<g>
</g>
<g>
</g>
<g>
</g>
<g>
</g>
<g>
</g>
<g>
</g>
<g>
</g>
<g>
</g>
<g>
</g>
<g>
</g>
<g>
</g>
<g>
</g>
<g>
</g>
</svg>
