<?xml version="1.0" encoding="iso-8859-1"?>
<!-- Generator: Adobe Illustrator 19.0.0, SVG Export Plug-In . SVG Version: 6.00 Build 0)  -->
<svg version="1.1" id="Layer_1" xmlns="http://www.w3.org/2000/svg" xmlns:xlink="http://www.w3.org/1999/xlink" x="0px" y="0px"
	 viewBox="0 0 512 512" style="enable-background:new 0 0 512 512;" xml:space="preserve">
<path style="fill:#664B33;" d="M381.857,260.982L280.03,21.231c-3.908-9.203-14.536-13.493-23.739-9.585
	c-9.202,3.908-13.493,14.536-9.585,23.739l101.825,239.75c3.908,9.202,14.536,13.493,23.739,9.585
	C381.474,280.812,385.765,270.184,381.857,260.982z"/>
<path style="fill:#ECB400;" d="M448.64,279.068c-18.021-32.768-57.922-46.577-92.343-31.958l0,0
	c-34.421,14.619-52.19,52.921-41.122,88.642l33.807,109.116l154.707-65.706L448.64,279.068z"/>
<g>
	<polygon style="fill:#A93CCB;" points="323.482,362.56 462.165,303.659 454.443,289.618 318.739,347.254 	"/>
	<path style="fill:#A93CCB;" d="M315.175,335.753l0.805,2.596l133.97-56.899l-1.31-2.381c-2.208-4.016-4.749-7.741-7.564-11.17
		l-128.688,54.655C312.901,326.96,313.819,331.375,315.175,335.753z"/>
	<polygon style="fill:#A93CCB;" points="326.843,465.593 202.128,190.258 77.415,465.593 77.415,483.697 327.25,483.697 	"/>
</g>
<polygon style="fill:#3D3C40;" points="77.415,465.593 326.843,465.593 304.926,417.209 99.331,417.209 "/>
<rect x="149.052" y="393.069" style="fill:#FFE046;" width="106.157" height="72.526"/>
<rect x="173.186" y="417.203" style="fill:#A93CCB;" width="57.888" height="24.248"/>
<path style="fill:#B857D0;" d="M377.843,465.593H26.414c-9.998,0-18.102,8.105-18.102,18.102s8.105,18.102,18.102,18.102h351.429
	c9.997,0,18.102-8.105,18.102-18.102C395.947,473.698,387.842,465.593,377.843,465.593z"/>
<g>
	<path style="fill:#FFE046;" d="M57.41,231.127c0,0-0.905,39.06-28.671,39.06c27.766,0,28.671,39.06,28.671,39.06
		s0.905-39.06,28.671-39.06C58.315,270.188,57.41,231.127,57.41,231.127z"/>
	<path style="fill:#FFE046;" d="M177.526,43.827c0,0-0.905,39.06-28.671,39.06c27.766,0,28.671,39.06,28.671,39.06
		s0.905-39.06,28.671-39.06C178.431,82.887,177.526,43.827,177.526,43.827z"/>
</g>
<g>
	<path style="opacity:0.3;fill:#20272E;enable-background:new    ;" d="M377.843,465.593h-51.002l-4.42-9.758L202.129,190.258
		v311.541h175.714c9.997,0,18.102-8.105,18.102-18.102S387.842,465.593,377.843,465.593z"/>
	<path style="fill:#20272E;" d="M173.186,449.767h57.884c4.591,0,8.311-3.721,8.311-8.311v-24.248c0-4.59-3.72-8.311-8.311-8.311
		h-57.884c-4.591,0-8.311,3.721-8.311,8.311v24.248C164.876,446.048,168.596,449.767,173.186,449.767z M181.497,425.52h41.263v7.626
		h-41.263V425.52z"/>
	<path style="fill:#20272E;" d="M28.739,278.499c19.262,0,20.326,29.65,20.363,30.958c0.114,4.499,3.788,8.081,8.289,8.093
		c0.008,0,0.013,0,0.021,0c4.498,0,8.181-3.59,8.306-8.089c0.035-1.264,1.086-30.962,20.364-30.962c4.591,0,8.311-3.721,8.311-8.311
		s-3.72-8.311-8.311-8.311c-19.277,0-20.328-29.697-20.363-30.943c-0.105-4.506-3.782-8.097-8.289-8.108c-0.008,0-0.013,0-0.021,0
		c-4.498,0-8.181,3.59-8.306,8.089c-0.035,1.264-1.086,30.962-20.364,30.962c-4.591,0-8.311,3.721-8.311,8.311
		S24.148,278.499,28.739,278.499z M57.41,261.573c1.893,3.168,4.164,6.107,6.867,8.616c-2.703,2.509-4.974,5.447-6.867,8.616
		c-1.893-3.168-4.164-6.107-6.867-8.616C53.246,267.679,55.517,264.741,57.41,261.573z"/>
	<path style="fill:#20272E;" d="M148.855,91.197c19.262,0,20.326,29.65,20.363,30.958c0.114,4.499,3.788,8.081,8.289,8.093
		c0.008,0,0.013,0,0.021,0c4.498,0,8.181-3.59,8.306-8.089c0.035-1.264,1.086-30.962,20.364-30.962c4.591,0,8.311-3.721,8.311-8.311
		s-3.72-8.311-8.311-8.311c-19.277,0-20.328-29.696-20.363-30.942c-0.105-4.506-3.782-8.097-8.289-8.108c-0.008,0-0.013,0-0.021,0
		c-4.498,0-8.181,3.59-8.306,8.089c-0.035,1.264-1.086,30.961-20.364,30.961c-4.591,0-8.311,3.721-8.311,8.311
		S144.264,91.197,148.855,91.197z M177.526,74.271c1.893,3.168,4.164,6.107,6.867,8.616c-2.703,2.509-4.974,5.447-6.867,8.616
		c-1.893-3.168-4.164-6.107-6.867-8.616C173.362,80.378,175.633,77.439,177.526,74.271z"/>
	<path style="fill:#20272E;" d="M510.971,375.156l-55.049-100.094c-14.274-25.952-41.543-42.074-71.169-42.074
		c-1.897,0-3.782,0.09-5.661,0.221l-91.41-215.226c-4.152-9.776-13.698-16.092-24.32-16.092c-3.556,0-7.027,0.709-10.318,2.107
		c-6.494,2.758-11.525,7.88-14.167,14.422s-2.577,13.722,0.181,20.216l91.387,215.172c-23.019,20.635-32.851,53.28-23.207,84.407
		l33.807,109.116c0.696,2.245,2.309,4.09,4.441,5.08c1.108,0.514,2.303,0.771,3.497,0.771c1.105,0,2.21-0.221,3.249-0.662
		l154.707-65.706c2.163-0.919,3.836-2.71,4.605-4.932C512.311,379.658,512.104,377.216,510.971,375.156z M254.357,32.136
		c-1.023-2.407-1.046-5.068-0.068-7.494s2.843-4.324,5.251-5.347c1.224-0.52,2.51-0.785,3.82-0.785c3.94,0,7.481,2.343,9.021,5.969
		l89.913,211.701c-0.186,0.053-0.37,0.114-0.555,0.17c-5.934,1.756-11.638,4.198-17.026,7.239c-0.147,0.083-0.297,0.163-0.443,0.247
		L254.357,32.136z M354.2,433.623c0,0-31.084-100.325-31.086-100.33c-4.705-15.186-3.656-31.819,3.032-46.253
		c6.834-14.749,19.196-26.442,34.243-32.566c15.723-6.4,33.517-6.433,49.197,0.095c13.438,5.595,24.758,15.747,31.774,28.503
		l50.616,92.035L354.2,433.623z"/>
	<path style="fill:#20272E;" d="M377.843,457.283h-45.642L209.699,186.828c-1.346-2.972-4.308-4.881-7.571-4.881
		c-3.262,0-6.224,1.909-7.571,4.881L91.761,413.777c0,0.001-0.001,0.002-0.001,0.003l-11.678,25.785l-8.026,17.719H26.414
		C11.849,457.283,0,469.132,0,483.697c0,14.565,11.849,26.413,26.414,26.413h351.429c14.565,0,26.413-11.849,26.413-26.413
		C404.256,469.133,392.408,457.283,377.843,457.283z M313.954,457.283H263.52V425.52h36.048L313.954,457.283z M202.128,210.4
		l89.91,198.498H263.52v-15.826c0-4.59-3.72-8.311-8.311-8.311H149.05c-4.591,0-8.311,3.721-8.311,8.311v15.826h-28.519
		L202.128,210.4z M246.898,401.383v15.826v40.074H157.36v-40.074v-15.826H246.898z M93.096,451.119l11.595-25.6h36.048v31.763
		H90.303L93.096,451.119z M377.843,493.488H26.414c-5.4,0-9.792-4.393-9.792-9.791c0-5.399,4.393-9.791,9.792-9.791h50.993
		c0.003,0,0.006,0,0.009,0h71.635H255.21h71.635c0.002,0,0.006,0,0.009,0h50.993c5.399,0,9.791,4.393,9.791,9.791
		C387.638,489.095,383.243,493.488,377.843,493.488z"/>
</g>
<g>
</g>
<g>
</g>
<g>
</g>
<g>
</g>
<g>
</g>
<g>
</g>
<g>
</g>
<g>
</g>
<g>
</g>
<g>
</g>
<g>
</g>
<g>
</g>
<g>
</g>
<g>
</g>
<g>
</g>
</svg>
