<?xml version="1.0" encoding="iso-8859-1"?>
<!-- Generator: Adobe Illustrator 19.0.0, SVG Export Plug-In . SVG Version: 6.00 Build 0)  -->
<svg version="1.1" id="Layer_1" xmlns="http://www.w3.org/2000/svg" xmlns:xlink="http://www.w3.org/1999/xlink" x="0px" y="0px"
	 viewBox="0 0 512.001 512.001" style="enable-background:new 0 0 512.001 512.001;" xml:space="preserve">
<path style="fill:#00C279;" d="M493.421,136.66c-4.932-4.932-11.254-7.602-17.704-8.058c-0.024,0.058-0.056,0.114-0.081,0.172
	c1.632-3.804-9.748-15.304-13.518-13.769c-0.456-6.452-3.126-12.775-8.058-17.707c-4.932-4.932-11.254-7.6-17.704-8.058
	c-0.014,0.035-0.033,0.067-0.047,0.102c1.592-3.79-9.782-15.234-13.551-13.699c-0.456-6.45-3.126-12.774-8.058-17.706
	c-4.932-4.932-11.256-7.601-17.706-8.058c-0.011,0.026-0.025,0.053-0.036,0.079c1.579-3.786-9.826-15.215-13.604-13.655
	c0.015-0.006,0.029-0.014,0.045-0.021c-0.456-6.45-3.126-12.774-8.056-17.704c-10.869-10.869-28.491-10.869-39.36,0l-83.009,83.007
	l-28.601-28.603c-9.262-9.26-24.274-9.26-33.536,0s-9.26,24.274,0,33.536l28.603,28.603L26.798,327.764l157.44,157.44l13.351-21.388
	c-2.668,7.799-7.102,15.126-13.318,21.353l309.15-309.149C504.29,165.151,504.29,147.529,493.421,136.66z"/>
<path style="fill:#FF738D;" d="M184.238,406.162l-78.398-78.398c-21.827-21.827-57.215-21.827-79.042,0s-21.827,57.215,0,79.042
	l78.398,78.398c21.827,21.827,57.215,21.827,79.042,0C206.065,463.377,206.065,427.987,184.238,406.162z"/>
<path style="fill:#EEE5DD;" d="M51.378,382.225c-8.238-8.238-8.238-21.643,0-29.882s21.643-8.238,29.882,0l78.398,78.398
	c8.238,8.238,8.238,21.645,0,29.883c-8.238,8.238-21.643,8.238-29.883,0L51.378,382.225z"/>
<g>
	<path style="fill:#20272E;" d="M500.796,129.285c-7.227-7.226-16.835-11.207-27.055-11.207c-0.378,0-0.758,0.006-1.133,0.017
		c0.293-10.165-3.43-20.427-11.171-28.17c-7.227-7.226-16.835-11.207-27.055-11.207c-0.378,0-0.756,0.006-1.133,0.017
		c0.293-10.167-3.43-20.428-11.172-28.172c-7.494-7.493-17.621-11.472-28.187-11.189c0.293-10.167-3.43-20.428-11.172-28.172
		C375.487,3.979,365.881,0,355.661,0c-10.22,0-19.828,3.979-27.054,11.205l-75.634,75.635l-21.229-21.23
		c-6.449-6.449-15.022-9.999-24.141-9.999c-9.12,0-17.693,3.551-24.141,9.999c-13.312,13.312-13.312,34.971,0,48.286l21.228,21.228
		L19.424,320.389c-0.004,0.004-0.008,0.01-0.013,0.014C6.894,332.928,0,349.577,0,367.284c0,17.714,6.898,34.369,19.424,46.895
		l78.398,78.4c12.526,12.525,29.18,19.423,46.895,19.423s34.369-6.898,46.895-19.424c0.008-0.008,0.017-0.018,0.026-0.028
		c0.003-0.003,0.004-0.004,0.007-0.007l309.149-309.149c7.227-7.226,11.208-16.834,11.207-27.055
		C512,146.12,508.021,136.513,500.796,129.285z M176.891,477.801c-0.004,0.004-0.007,0.008-0.011,0.013
		c-0.006,0.006-0.01,0.01-0.015,0.015c-8.587,8.587-20.004,13.315-32.148,13.315c-12.143,0-23.559-4.727-32.147-13.315l-78.398-78.4
		c-8.586-8.585-13.315-20.001-13.315-32.145s4.729-23.559,13.316-32.147c8.587-8.587,20.004-13.316,32.147-13.316
		c11.385,0,22.13,4.156,30.503,11.752c0.558,0.506,1.105,1.029,1.642,1.564l78.398,78.4c1.107,1.107,2.145,2.258,3.115,3.447
		C194.507,434.806,193.48,461.183,176.891,477.801z M486.046,168.645c-10.624,10.624-21.25,21.249-31.874,31.874
		c-24.873,24.873-49.747,49.747-74.62,74.62c-28.626,28.626-57.252,57.252-85.877,85.877
		c-21.881,21.881-43.762,43.762-65.645,65.645c-5.683,5.683-11.513,11.297-17.055,17.094c0.021-27.764-19.593-44.915-37.261-63.284
		c-20.425-21.236-40.521-42.877-62.685-62.34c-11.842-10.399-26.951-16.317-42.574-17.136
		c16.738-19.538,36.898-37.041,55.106-55.249c27.547-27.547,55.094-55.094,82.642-82.642c6.87-6.87,13.74-13.74,20.61-20.61
		c1.956-1.956,3.055-4.608,3.055-7.375c0-2.767-1.098-5.417-3.055-7.375l-28.601-28.6c-5.181-5.181-5.181-13.61,0-18.789
		c2.51-2.51,5.845-3.892,9.394-3.892c3.548,0,6.884,1.382,9.394,3.892l28.603,28.603c1.955,1.955,4.608,3.053,7.373,3.053
		s5.419-1.098,7.373-3.053l83.007-83.009c3.287-3.287,7.657-5.097,12.307-5.097s9.018,1.81,12.305,5.096
		c6.785,6.787,6.787,17.827,0,24.612l-52.932,52.932c-4.073,4.074-4.073,10.676,0,14.748c2.036,2.036,4.705,3.053,7.373,3.053
		c2.668,0,5.338-1.018,7.373-3.053l52.932-52.932c3.287-3.287,7.657-5.097,12.307-5.097c4.65,0,9.02,1.81,12.307,5.096
		c6.783,6.784,6.785,17.82,0,24.613l-52.931,52.931c-4.073,4.074-4.073,10.676,0,14.748c2.036,2.036,4.705,3.053,7.373,3.053
		s5.338-1.018,7.373-3.053c0,0,52.932-52.931,52.939-52.939c3.286-3.283,7.653-5.092,12.298-5.092c4.65,0,9.018,1.812,12.307,5.099
		c6.783,6.783,6.785,17.817,0,24.611l-52.932,52.931c-4.073,4.074-4.073,10.676,0,14.748c2.037,2.036,4.705,3.053,7.375,3.053
		c2.668,0,5.338-1.018,7.375-3.053c0,0,52.932-52.931,52.939-52.939c3.286-3.283,7.653-5.092,12.298-5.092
		c4.65,0,9.018,1.812,12.307,5.099c3.287,3.286,5.097,7.657,5.097,12.307C491.144,160.988,489.335,165.36,486.046,168.645z"/>
	<path style="fill:#20272E;" d="M144.718,477.231c-8.436,0-16.361-3.279-22.316-9.235l-78.398-78.397
		c-5.954-5.954-9.234-13.879-9.232-22.316c0-8.436,3.279-16.361,9.234-22.315c5.954-5.952,13.878-9.232,22.315-9.232
		c8.437,0,16.361,3.279,22.315,9.232l78.398,78.398c12.305,12.305,12.305,32.326,0.001,44.631
		C161.079,473.951,153.153,477.231,144.718,477.231z M66.319,356.593c-2.866,0-5.552,1.11-7.567,3.124
		c-2.015,2.013-3.124,4.702-3.124,7.567s1.11,5.552,3.124,7.565l78.398,78.398c2.016,2.016,4.702,3.126,7.568,3.126
		s5.553-1.11,7.567-3.124c4.173-4.173,4.171-10.962,0-15.135l-78.398-78.398C71.871,357.702,69.184,356.593,66.319,356.593z"/>
</g>
<g style="opacity:0.3;">
	<path style="fill:#20272E;" d="M184.273,485.168l309.15-309.149c10.869-10.869,10.868-28.491,0-39.359
		c-4.932-4.932-11.254-7.601-17.704-8.058c-0.024,0.058-0.056,0.114-0.081,0.172c1.632-3.806-9.748-15.304-13.518-13.769
		c-0.456-6.45-3.126-12.774-8.058-17.707c-4.932-4.93-11.254-7.6-17.704-8.058c-0.014,0.035-0.033,0.067-0.047,0.102
		c0.798-1.899-1.66-5.72-4.785-8.867L65.997,446.005l39.199,39.199c12.278,12.277,28.846,17.649,44.878,16.114
		c1.781-0.171,3.557-0.427,5.318-0.768c1.762-0.341,3.509-0.768,5.238-1.279s3.437-1.108,5.12-1.791
		c6.728-2.728,13.033-6.82,18.489-12.277c0.024-0.024,0.043-0.047,0.067-0.069C184.293,485.144,184.284,485.156,184.273,485.168z"/>
</g>
<g>
</g>
<g>
</g>
<g>
</g>
<g>
</g>
<g>
</g>
<g>
</g>
<g>
</g>
<g>
</g>
<g>
</g>
<g>
</g>
<g>
</g>
<g>
</g>
<g>
</g>
<g>
</g>
<g>
</g>
</svg>
